# This file uses centimeters as units for non-parametric coordinates.

mtllib item_heal.mtl
g default
v -1.512394 -0.750000 1.000000
v -0.500000 -0.750000 1.177669
v 0.500000 -0.750000 1.177669
v 1.512394 -0.750000 1.000000
v -1.512394 -0.250000 1.000000
v -0.500000 -0.250000 1.177669
v 0.500000 -0.250000 1.182798
v 1.512394 -0.250000 1.000000
v -1.512394 0.140387 1.000000
v -0.500000 0.140387 1.177669
v 0.500000 0.140387 1.206096
v 1.512394 0.140387 1.000000
v -1.488782 0.750000 1.000000
v -0.500000 0.979358 1.177670
v 0.500000 0.979358 1.183228
v 1.488782 0.750000 1.000000
v -1.609812 0.750000 0.333333
v -0.500000 0.979358 0.338718
v 0.500000 0.979358 0.338718
v 1.609812 0.750000 0.333333
v -1.609812 0.750000 -0.333333
v -0.500000 0.979358 -0.338719
v 0.500000 0.979358 -0.338718
v 1.609812 0.750000 -0.333333
v -1.488782 0.750000 -1.000000
v -0.500000 0.979358 -1.177669
v 0.500000 0.979358 -1.177669
v 1.488782 0.750000 -1.000000
v -1.512394 0.140387 -1.000000
v -0.500000 0.140387 -1.177669
v 0.500000 0.140387 -1.177669
v 1.512394 0.140387 -1.000000
v -1.512394 -0.250000 -1.000000
v -0.500000 -0.250000 -1.177669
v 0.500000 -0.250000 -1.177669
v 1.512394 -0.250000 -1.000000
v -1.512394 -0.750000 -1.000000
v -0.500000 -0.750000 -1.177669
v 0.500000 -0.750000 -1.177669
v 1.512394 -0.750000 -1.000000
v -1.636315 -0.750000 -0.333333
v -0.500000 -0.860864 -0.338718
v 0.500000 -0.860864 -0.338718
v 1.636315 -0.750000 -0.333333
v -1.636315 -0.750000 0.333333
v -0.500000 -0.860864 0.338719
v 0.500000 -0.860864 0.338718
v 1.636315 -0.750000 0.333333
v 1.636315 -0.250000 -0.333333
v 1.636315 -0.250000 0.333333
v 1.636315 0.140387 -0.333333
v 1.636315 0.140387 0.333333
v -1.636315 -0.250000 -0.333333
v -1.636315 -0.250000 0.333333
v -1.636315 0.140387 -0.333333
v -1.636315 0.140387 0.333333
v -1.512394 -0.250000 1.000000
v -0.500000 -0.250000 1.177669
v -0.500000 0.140387 1.177669
v -1.512394 0.140387 1.000000
v 0.500000 -0.250000 1.182798
v 0.500000 0.140387 1.206097
v 1.512394 -0.250000 1.000000
v 1.512394 0.140387 1.000000
v -1.512394 0.140387 -1.000000
v -0.500000 0.140387 -1.177669
v -0.500000 -0.250000 -1.177669
v -1.512394 -0.250000 -1.000000
v 0.500000 0.140387 -1.177669
v 0.500000 -0.250000 -1.177669
v 1.512394 0.140387 -1.000000
v 1.512394 -0.250000 -1.000000
v 1.636315 -0.250000 -0.333333
v 1.636315 0.140387 -0.333333
v 1.636315 -0.250000 0.333333
v 1.636315 0.140387 0.333333
v -1.636315 -0.250000 -0.333333
v -1.636315 0.140387 -0.333333
v -1.636315 -0.250000 0.333333
v -1.636315 0.140387 0.333333
v -1.427785 -0.250000 0.900000
v -0.500000 -0.250000 1.054219
v -0.500000 0.140387 1.054219
v -1.427785 0.140387 0.900000
v 0.500000 -0.250000 1.059069
v 0.500000 0.140387 1.081835
v 1.427786 -0.250000 0.900000
v 1.427786 0.140387 0.900000
v -1.427785 0.140387 -0.900000
v -0.500000 0.140387 -1.054219
v -0.500000 -0.250000 -1.054219
v -1.427785 -0.250000 -0.900000
v 0.500000 0.140387 -1.054218
v 0.500000 -0.250000 -1.054218
v 1.427786 0.140387 -0.900000
v 1.427786 -0.250000 -0.900000
v 1.522683 -0.250000 -0.333333
v 1.522683 0.140387 -0.333333
v 1.522683 -0.250000 0.333333
v 1.522683 0.140387 0.333333
v -1.522683 -0.250000 -0.333333
v -1.522683 0.140387 -0.333333
v -1.522683 -0.250000 0.333333
v -1.522683 0.140387 0.333333
v -0.500000 -0.750000 1.177669
v -0.500000 -0.250000 1.177669
v 0.500000 -0.750000 1.177669
v 0.500000 -0.250000 1.182797
v -0.500000 0.140387 1.177669
v -0.500000 0.979358 1.177669
v 0.500000 0.140387 1.206097
v 0.500000 0.979358 1.183228
v -0.500000 0.979358 -1.177669
v -0.500000 0.140387 -1.177669
v 0.500000 0.979358 -1.177669
v 0.500000 0.140387 -1.177669
v -0.500000 -0.250000 -1.177669
v -0.500000 -0.750000 -1.177669
v 0.500000 -0.250000 -1.177669
v 0.500000 -0.750000 -1.177669
v -0.500000 -0.750000 1.177669
v 0.500000 -0.750000 1.177669
v 0.500000 -0.250000 1.182798
v -0.500000 -0.250000 1.177669
v -0.500000 0.140387 1.177669
v 0.500000 0.140387 1.206097
v 0.500000 0.979358 1.183228
v -0.500000 0.979358 1.177669
v -0.500000 0.979358 -1.177669
v 0.500000 0.979358 -1.177669
v 0.500000 0.140387 -1.177669
v -0.500000 0.140387 -1.177669
v -0.500000 -0.250000 -1.177669
v 0.500000 -0.250000 -1.177669
v 0.500000 -0.750000 -1.177669
v -0.500000 -0.750000 -1.177669
v -1.636315 -0.250000 0.333333
v -1.512395 -0.250000 1.000000
v -1.512395 -0.250000 1.000000
v -1.636315 -0.250000 0.333333
v -0.500000 0.979358 -1.177669
v -0.500000 0.140387 -1.177669
v 0.500000 0.979358 -1.177669
v 0.500000 0.140387 -1.177669
v -0.500000 -0.250000 -1.177669
v -0.500000 -0.750000 -1.177669
v 0.500000 -0.250000 -1.177669
v 0.500000 -0.750000 -1.177669
v 0.500000 -0.750000 1.177670
v 0.500000 -0.250000 1.182798
v -0.500000 -0.750000 1.177669
v -0.500000 -0.250000 1.177669
v 0.500000 0.140387 1.206097
v 0.500000 0.979358 1.183228
v -0.500000 0.140387 1.177669
v -0.500000 0.979358 1.177669
v -0.500000 0.530512 1.178412
v -1.512395 0.450130 1.000000
v -1.636315 0.450130 0.333333
v -1.636315 0.450130 -0.333333
v -1.512395 0.450130 -1.000000
v -0.500000 0.434417 -1.177669
v -0.500000 0.434417 -1.177669
v 0.500000 0.395126 -1.177669
v 0.500000 0.369223 -1.177241
v 1.512395 0.299582 -1.000000
v 1.636315 0.299582 -0.333333
v 1.636315 0.299582 0.333333
v 1.512395 0.299582 1.000000
v 0.500000 0.369223 1.196030
v 0.500000 0.395126 1.173898
vt 0.381552 0.869682
vt 0.497617 0.869682
vt 0.497617 0.909198
vt 0.381552 0.909198
vt 0.497617 0.948713
vt 0.381552 0.948713
vt 0.265488 0.869682
vt 0.265488 0.909198
vt 0.497617 0.988229
vt 0.381552 0.988229
vt 0.265488 0.948713
vt 0.149423 0.869682
vt 0.149423 0.909198
vt 0.265488 0.988229
vt 0.149423 0.948713
vt 0.149423 0.988229
vt 0.156316 0.858912
vt 0.273286 0.858912
vt 0.273286 0.903739
vt 0.156316 0.903739
vt 0.390256 0.858912
vt 0.390256 0.903739
vt 0.273286 0.948567
vt 0.156316 0.948567
vt 0.507225 0.858912
vt 0.507225 0.903739
vt 0.390256 0.948567
vt 0.273286 0.993394
vt 0.156316 0.993394
vt 0.507225 0.948567
vt 0.390256 0.993394
vt 0.507225 0.993394
vt 0.645490 0.850043
vt 0.439276 0.849340
vt 0.439728 0.703964
vt 0.645942 0.704667
vt 0.233062 0.848638
vt 0.233514 0.703262
vt 0.440180 0.558588
vt 0.646394 0.559291
vt 0.026848 0.847936
vt 0.027300 0.702560
vt 0.233966 0.557886
vt 0.440632 0.413212
vt 0.646846 0.413915
vt 0.027751 0.557183
vt 0.234418 0.412510
vt 0.028203 0.411807
vt 0.538109 0.029666
vt 0.683651 0.029666
vt 0.683651 0.146636
vt 0.538109 0.146636
vt 0.829194 0.029666
vt 0.829194 0.146636
vt 0.683651 0.263606
vt 0.538109 0.263606
vt 0.974736 0.029666
vt 0.974736 0.146636
vt 0.829194 0.263606
vt 0.683651 0.380575
vt 0.538109 0.380575
vt 0.974736 0.263606
vt 0.829194 0.380575
vt 0.974736 0.380575
vt 0.160090 0.863561
vt 0.277582 0.863561
vt 0.277582 0.905061
vt 0.160090 0.905061
vt 0.395075 0.863561
vt 0.395075 0.905061
vt 0.277582 0.946562
vt 0.160090 0.946562
vt 0.512567 0.863561
vt 0.512567 0.905061
vt 0.395075 0.946562
vt 0.277582 0.988062
vt 0.160090 0.988062
vt 0.512567 0.946562
vt 0.395075 0.988062
vt 0.512567 0.988062
vt 0.159214 0.273980
vt 0.276183 0.274458
vt 0.275877 0.310542
vt 0.158908 0.310064
vt 0.393152 0.274937
vt 0.392846 0.311021
vt 0.275572 0.346626
vt 0.158603 0.346148
vt 0.510120 0.275415
vt 0.509815 0.311499
vt 0.392541 0.347104
vt 0.275266 0.382710
vt 0.158298 0.382232
vt 0.509509 0.347583
vt 0.392235 0.383188
vt 0.509204 0.383666
vt 0.160090 0.905061
vt 0.277582 0.905061
vt 0.277582 0.946562
vt 0.160090 0.946562
vt 0.395075 0.905061
vt 0.395075 0.946562
vt 0.512567 0.905061
vt 0.512567 0.946562
vt 0.158908 0.310064
vt 0.275877 0.310542
vt 0.275572 0.346626
vt 0.158603 0.346148
vt 0.392846 0.311021
vt 0.392541 0.347104
vt 0.509815 0.311499
vt 0.509509 0.347583
vt 0.381552 0.909198
vt 0.497617 0.909198
vt 0.497617 0.948713
vt 0.381552 0.948713
vt 0.265488 0.909198
vt 0.265488 0.948713
vt 0.149423 0.909198
vt 0.149423 0.948713
vt 0.156316 0.903739
vt 0.273286 0.903739
vt 0.273286 0.948567
vt 0.156316 0.948567
vt 0.390256 0.903739
vt 0.390256 0.948567
vt 0.507225 0.903739
vt 0.507225 0.948567
vt 0.160090 0.905061
vt 0.277582 0.905061
vt 0.277582 0.946562
vt 0.160090 0.946562
vt 0.395075 0.905061
vt 0.395075 0.946562
vt 0.512567 0.905061
vt 0.512567 0.946562
vt 0.158908 0.310064
vt 0.275877 0.310542
vt 0.275572 0.346626
vt 0.158603 0.346148
vt 0.392846 0.311021
vt 0.392541 0.347104
vt 0.509815 0.311499
vt 0.509509 0.347583
vt 0.381552 0.909198
vt 0.497617 0.909198
vt 0.497617 0.948713
vt 0.381552 0.948713
vt 0.265488 0.909198
vt 0.265488 0.948713
vt 0.149423 0.909198
vt 0.149423 0.948713
vt 0.156316 0.903739
vt 0.273286 0.903739
vt 0.273286 0.948567
vt 0.156316 0.948567
vt 0.390256 0.903739
vt 0.390256 0.948567
vt 0.507225 0.903739
vt 0.507225 0.948567
vt 0.000000 0.000000
vt 1.000000 0.000000
vt 1.000000 1.000000
vt 0.000000 1.000000
vt 0.000000 0.000000
vt 1.000000 0.000000
vt 1.000000 1.000000
vt 0.000000 1.000000
vt 0.000000 0.000000
vt 1.000000 0.000000
vt 1.000000 1.000000
vt 0.000000 1.000000
vt 0.000000 0.000000
vt 1.000000 0.000000
vt 1.000000 1.000000
vt 0.000000 1.000000
vt 0.000000 0.000000
vt 1.000000 0.000000
vt 1.000000 1.000000
vt 0.000000 1.000000
vt 0.000000 0.000000
vt 1.000000 0.000000
vt 1.000000 1.000000
vt 0.000000 1.000000
vt 0.000000 0.000000
vt 1.000000 0.000000
vt 1.000000 1.000000
vt 0.000000 1.000000
vt 0.000000 0.000000
vt 1.000000 0.000000
vt 1.000000 1.000000
vt 0.000000 1.000000
vt 0.277582 0.863561
vt 0.395075 0.863561
vt 0.395075 0.905061
vt 0.277582 0.905061
vt 0.277582 0.946562
vt 0.395075 0.946562
vt 0.395075 0.988062
vt 0.277582 0.988062
vt 0.276183 0.274458
vt 0.393152 0.274937
vt 0.392846 0.311021
vt 0.275877 0.310542
vt 0.275572 0.346626
vt 0.392541 0.347104
vt 0.392235 0.383188
vt 0.275266 0.382710
vt 0.390256 0.903739
vt 0.507225 0.903739
vt 0.507225 0.903739
vt 0.390256 0.903739
vt 0.000000 0.000000
vt 1.000000 0.000000
vt 1.000000 1.000000
vt 0.000000 1.000000
vt 0.000000 0.000000
vt 1.000000 0.000000
vt 1.000000 1.000000
vt 0.000000 1.000000
vt 0.000000 0.000000
vt 1.000000 0.000000
vt 1.000000 1.000000
vt 0.000000 1.000000
vt 0.000000 0.000000
vt 1.000000 0.000000
vt 1.000000 1.000000
vt 0.000000 1.000000
vt 0.000000 0.000000
vt 1.000000 0.000000
vt 1.000000 1.000000
vt 0.000000 1.000000
vt 0.000000 0.000000
vt 1.000000 0.000000
vt 1.000000 1.000000
vt 0.000000 1.000000
vt 0.000000 0.000000
vt 1.000000 0.000000
vt 1.000000 1.000000
vt 0.000000 1.000000
vt 0.000000 0.000000
vt 1.000000 0.000000
vt 1.000000 1.000000
vt 0.000000 1.000000
vt 0.277582 0.961106
vt 0.350465 0.000000
vt 0.277582 0.961106
vt 0.507225 0.964277
vt 0.160090 0.961106
vt 0.390256 0.964277
vt 0.273286 0.964277
vt 0.156316 0.964277
vt 0.159016 0.297418
vt 0.275984 0.297896
vt 0.649535 0.000000
vt 0.649535 0.000000
vt 0.275984 0.297896
vt 0.649535 1.000000
vt 0.696367 1.000000
vt 0.696367 0.000000
vt 0.392939 0.300064
vt 0.696367 0.000000
vt 0.392939 0.300064
vt 0.509908 0.300543
vt 0.497617 0.960711
vt 0.381553 0.960711
vt 0.265488 0.960711
vt 0.512567 0.959163
vt 0.149423 0.960711
vt 0.303633 0.000000
vt 0.395075 0.959163
vt 0.395075 0.959163
vt 0.303633 1.000000
vn -0.172853 0.000000 0.984948
vn -0.172853 0.000000 0.984948
vn -0.172853 0.000000 0.984948
vn -0.172853 0.000000 0.984948
vn 0.000000 0.000000 1.000000
vn -0.002564 -0.005128 0.999984
vn -0.002564 -0.005128 0.999984
vn -0.005128 -0.010256 0.999934
vn 0.172853 0.000000 0.984948
vn 0.175199 -0.004902 0.984521
vn 0.175343 -0.005202 0.984494
vn 0.177678 -0.010093 0.984037
vn -0.163972 0.000000 0.986465
vn -0.082235 0.000000 0.996613
vn -0.163972 0.000000 0.986465
vn -0.087143 -0.012728 0.996114
vn 0.079913 -0.033304 0.996245
vn 0.079237 -0.058034 0.995165
vn 0.168985 0.000000 0.985619
vn 0.179135 -0.024984 0.983507
vn -0.172853 -0.000002 0.984948
vn -0.173247 -0.001330 0.984878
vn -0.173723 0.005153 0.984781
vn -0.175154 0.001690 0.984540
vn -0.028416 0.000000 0.999596
vn -0.020597 0.009325 0.999744
vn -0.013384 0.017922 0.999750
vn -0.005557 0.027247 0.999613
vn 0.199482 -0.000003 0.979902
vn 0.192880 0.011259 0.981158
vn 0.193728 0.037171 0.980351
vn 0.189529 0.023716 0.981589
vn -0.104646 0.994510 0.000000
vn -0.106979 0.994252 0.004297
vn -0.215163 0.976431 0.016942
vn -0.202437 0.979137 0.017620
vn 0.105154 0.994456 0.000000
vn 0.107180 0.994230 0.004282
vn 0.215244 0.976416 0.016815
vn 0.202437 0.979138 0.017554
vn -0.202437 0.979138 -0.017554
vn -0.107146 0.994234 -0.004290
vn 0.106979 0.994252 -0.004297
vn 0.202437 0.979137 -0.017620
vn -0.215163 0.976431 -0.016942
vn -0.105160 0.994455 0.000000
vn 0.105160 0.994455 0.000000
vn 0.215163 0.976431 -0.016942
vn -0.172747 0.006739 -0.984943
vn -0.174667 0.001809 -0.984626
vn -0.172853 -0.000001 -0.984948
vn -0.172853 0.000001 -0.984948
vn 0.000000 0.000000 -1.000000
vn 0.000000 0.000000 -1.000000
vn 0.000000 0.000000 -1.000000
vn 0.000000 0.000000 -1.000000
vn 0.174568 0.002734 -0.984641
vn 0.172956 0.006346 -0.984909
vn 0.172610 0.001587 -0.984989
vn 0.172853 -0.000003 -0.984948
vn -0.163972 0.000000 -0.986465
vn -0.079743 0.000000 -0.996815
vn -0.163972 0.000000 -0.986465
vn -0.079743 0.000000 -0.996815
vn 0.079743 0.000000 -0.996815
vn 0.079743 0.000000 -0.996815
vn 0.163972 0.000000 -0.986465
vn 0.163972 0.000000 -0.986465
vn -0.172853 0.000000 -0.984948
vn -0.172853 0.000000 -0.984948
vn -0.172853 0.000000 -0.984948
vn -0.172853 0.000000 -0.984948
vn 0.000000 0.000000 -1.000000
vn 0.000000 0.000000 -1.000000
vn 0.000000 0.000000 -1.000000
vn 0.000000 0.000000 -1.000000
vn 0.172853 0.000000 -0.984948
vn 0.172853 0.000000 -0.984948
vn 0.172853 0.000000 -0.984948
vn 0.172853 0.000000 -0.984948
vn -0.010557 -0.991326 -0.131000
vn -0.039069 -0.997644 -0.056382
vn -0.055904 -0.995125 -0.081247
vn -0.097141 -0.995233 -0.008625
vn 0.010557 -0.991326 -0.131000
vn 0.039173 -0.997646 -0.056281
vn 0.055904 -0.995125 -0.081247
vn 0.097140 -0.995234 -0.008592
vn -0.097140 -0.995234 0.008592
vn -0.039173 -0.997646 0.056281
vn 0.039069 -0.997644 0.056382
vn 0.097141 -0.995233 0.008625
vn -0.055904 -0.995125 0.081247
vn -0.010557 -0.991326 0.131000
vn 0.010557 -0.991326 0.131000
vn 0.055904 -0.995125 0.081247
vn 0.995709 0.000000 -0.092541
vn 0.983159 0.000000 -0.182750
vn 0.995709 0.000000 -0.092541
vn 0.983159 0.000000 -0.182750
vn 0.995709 0.000000 0.092541
vn 0.995709 0.000000 0.092541
vn 0.983159 0.000000 0.182750
vn 0.983159 0.000000 0.182750
vn 0.997053 0.000000 -0.076717
vn 0.986266 0.000000 -0.165167
vn 0.997053 0.000000 -0.076717
vn 0.986266 0.000000 -0.165167
vn 0.997053 0.000000 0.076717
vn 0.997053 0.000000 0.076717
vn 0.986266 0.000000 0.165167
vn 0.986266 0.000000 0.165167
vn 0.995709 0.000000 -0.092541
vn 0.983159 -0.000003 -0.182750
vn 0.994785 0.043234 -0.092377
vn 0.982664 0.040247 -0.180972
vn 0.995709 0.000001 0.092541
vn 0.994785 0.043235 0.092376
vn 0.983159 -0.000003 0.182750
vn 0.982664 0.040248 0.180972
vn -0.983159 0.000000 -0.182751
vn -0.995709 0.000000 -0.092542
vn -0.983159 0.000000 -0.182751
vn -0.995709 0.000000 -0.092542
vn -0.995709 0.000000 0.092542
vn -0.995709 0.000000 0.092542
vn -0.983159 0.000000 0.182751
vn -0.983159 0.000000 0.182751
vn -0.986266 0.000000 -0.165167
vn -0.997053 0.000000 -0.076718
vn -0.986266 0.000000 -0.165167
vn -0.997053 0.000000 -0.076718
vn -0.997053 0.000000 0.076718
vn -0.997053 0.000000 0.076718
vn -0.986266 0.000000 0.165167
vn -0.986266 0.000000 0.165167
vn -0.983159 -0.000003 -0.182751
vn -0.995709 -0.000001 -0.092541
vn -0.982631 0.039715 -0.181271
vn -0.994786 0.043209 -0.092377
vn -0.995709 -0.000000 0.092542
vn -0.994786 0.043209 0.092377
vn -0.983159 -0.000001 0.182750
vn -0.982631 0.039715 0.181270
vn 0.000000 0.000000 0.000000
vn 0.000000 -0.000000 0.000000
vn 0.000000 -1.000000 0.000000
vn 0.000000 -1.000000 0.000000
vn 0.000000 0.000000 0.000000
vn 0.000000 0.000000 0.000000
vn 0.000000 0.000000 0.000000
vn 0.000000 0.000000 0.000000
vn 0.000000 -1.000000 0.000000
vn 0.000000 -1.000000 0.000000
vn 0.000000 -0.000000 0.000000
vn 0.000000 0.000000 0.000000
vn 0.000000 1.000000 0.000000
vn 0.000000 1.000000 0.000000
vn 0.000000 0.000000 0.000000
vn 0.000000 0.000000 0.000000
vn 0.000000 0.000000 0.000000
vn 0.000000 0.000000 0.000000
vn 0.000000 0.000000 0.000000
vn 0.000000 0.000000 0.000000
vn 0.000000 0.000000 0.000000
vn 0.000000 0.000000 0.000000
vn 0.000000 1.000000 0.000000
vn 0.000000 1.000000 0.000000
vn -1.000000 0.000000 0.000000
vn -1.000000 0.000000 0.000000
vn -0.000000 0.000000 0.000000
vn 0.000000 0.000000 0.000000
vn 0.000000 -1.000000 0.000000
vn 0.000000 -1.000000 -0.000000
vn -0.078719 -0.000292 -0.996897
vn -0.078719 0.000000 -0.996897
vn 0.000000 0.000000 0.000000
vn 0.000000 0.000000 0.000000
vn 0.000000 1.000000 0.000000
vn 0.000000 1.000000 0.000000
vn 0.000000 0.000000 0.000000
vn 0.000000 -0.000000 0.000000
vn 0.000000 -1.000000 0.000000
vn 0.000000 -1.000000 0.000000
vn 0.000000 1.000000 0.000000
vn 0.000000 1.000000 0.000000
vn 0.000000 0.000000 0.000000
vn 0.000000 0.000000 0.000000
vn 0.078719 0.000000 -0.996897
vn 0.078719 0.000000 -0.996897
vn 0.000000 0.000000 -0.000000
vn 0.000000 0.000000 0.000000
vn 0.000000 0.000000 0.000000
vn 0.000000 0.000000 0.000000
vn 1.000000 0.000000 0.000000
vn 1.000000 0.000000 0.000000
vn 0.000000 0.000000 0.000000
vn 0.000000 0.000000 0.000000
vn 0.000000 0.000000 0.000000
vn 0.000000 0.000000 0.000000
vn 0.000000 0.000000 0.000000
vn 0.000000 0.000000 0.000000
vn 0.000000 0.000000 0.000000
vn 0.000000 0.000000 0.000000
vn 0.000000 0.000000 0.000000
vn 0.000000 0.000000 0.000000
vn 0.000000 0.000000 0.000000
vn 0.000000 0.000000 0.000000
vn 0.000000 0.000000 0.000000
vn 0.000000 0.000000 0.000000
vn 0.000000 0.000000 0.000000
vn 0.000000 0.000000 0.000000
vn 0.000000 0.000000 0.000000
vn 0.000000 0.000000 0.000000
vn 0.000000 0.000000 0.000000
vn 0.000000 0.000000 0.000000
vn -1.000000 0.000000 0.000000
vn -1.000000 0.000000 0.000000
vn -0.000000 0.000000 0.000000
vn 0.000000 0.000000 0.000000
vn 0.000000 0.000000 0.000000
vn -0.000000 0.000000 -0.000000
vn -0.962651 0.000000 -0.270746
vn -0.962651 0.000000 -0.270746
vn 0.000000 0.000000 0.000000
vn 0.000000 0.000000 0.000000
vn 0.000000 0.000000 0.000000
vn 0.000000 0.000000 0.000000
vn 0.000000 0.000000 0.000000
vn 0.000000 0.000000 0.000000
vn 0.000000 0.000000 0.000000
vn 0.000000 0.000000 0.000000
vn 0.000000 0.000000 0.000000
vn 0.000000 0.000000 0.000000
vn 0.000000 0.000000 0.000000
vn 0.000000 0.000000 0.000000
vn 0.000000 0.000000 0.000000
vn 0.000000 0.000000 0.000000
vn 0.000000 0.000000 0.000000
vn 0.000000 0.000000 0.000000
vn -0.000000 1.000000 0.000000
vn -0.000000 1.000000 -0.000000
vn -0.000000 1.000000 -0.000000
vn 0.000000 1.000000 -0.000000
vn -0.000000 -1.000000 0.000000
vn 0.000000 -1.000000 -0.000000
vn 0.000000 -1.000000 0.000000
vn -0.000000 -1.000000 -0.000000
vn 0.000000 1.000000 0.000000
vn 0.000000 1.000000 0.000000
vn 0.000000 -1.000000 0.000000
vn 0.000000 -1.000000 0.000000
vn 0.000000 1.000000 0.000000
vn -0.000000 1.000000 0.000000
vn 0.000000 -1.000000 -0.000000
vn -0.000000 -1.000000 -0.000000
vn 0.000000 -1.000000 0.000000
vn 0.000000 -1.000000 -0.000000
vn -0.000000 -1.000000 -0.000000
vn -0.000000 -1.000000 -0.000000
vn -0.000000 1.000000 0.000000
vn -0.000000 1.000000 0.000000
vn -0.000000 1.000000 0.000000
vn 0.000000 1.000000 0.000000
vn 0.000000 -1.000000 0.000000
vn -0.000000 -1.000000 0.000000
vn 0.000000 1.000000 0.000000
vn 0.000000 1.000000 0.000000
vn -0.000000 -1.000000 0.000000
vn -0.000000 -1.000000 0.000000
vn 0.000000 1.000000 0.000000
vn -0.000000 1.000000 0.000000
vn -0.000000 1.000000 -0.000000
vn 0.000000 1.000000 -0.000000
vn -0.000000 -1.000000 0.000000
vn -0.000000 -1.000000 0.000000
vn -0.000000 1.000000 0.000000
vn 0.000000 1.000000 0.000000
vn -0.000000 -1.000000 -0.000000
vn -0.000000 -1.000000 -0.000000
vn 0.000000 1.000000 -0.000000
vn 0.000000 1.000000 -0.000000
vn -0.000000 -1.000000 0.000000
vn 0.000000 -1.000000 0.000000
vn 0.000000 1.000000 0.000000
vn 0.000000 1.000000 0.000000
vn -0.000000 -1.000000 -0.000000
vn 0.000000 -1.000000 0.000000
vn 1.000000 0.000000 0.000000
vn 1.000000 0.000000 0.000000
vn 1.000000 0.000000 0.000000
vn 1.000000 0.000000 0.000000
vn -1.000000 -0.000000 0.000000
vn -1.000000 -0.000000 0.000000
vn -1.000000 -0.000000 0.000000
vn -1.000000 0.000000 0.000000
vn -1.000000 0.000000 0.000000
vn -1.000000 -0.000000 0.000000
vn -1.000000 -0.000000 0.000000
vn -1.000000 -0.000000 0.000000
vn -1.000000 -0.000000 0.000000
vn 1.000000 0.000000 0.000000
vn -1.000000 0.000000 0.000000
vn -1.000000 0.000000 0.000000
vn -1.000000 0.000000 0.000000
vn 0.000000 0.000000 0.000000
vn 0.000000 0.000000 0.000000
vn 1.000000 0.000000 0.000000
vn 1.000000 0.000000 0.000000
vn 0.000000 0.000000 0.000000
vn 1.000000 0.000000 0.000000
vn 1.000000 0.000000 0.000000
vn 1.000000 0.000000 0.000000
vn -1.000000 0.000000 0.000000
vn -1.000000 0.000000 0.000000
vn -1.000000 0.000000 0.000000
vn -1.000000 0.000000 0.000000
vn -1.000000 0.000000 0.000000
vn -1.000000 0.000000 0.000000
vn -1.000000 0.000000 0.000000
vn -1.000000 0.000000 0.000000
vn 0.000000 -0.871576 -0.490261
vn 0.000000 -0.000000 -0.000000
vn 0.000000 -0.871576 -0.490261
vn 0.000000 0.000000 0.000000
vn 0.000000 0.000000 0.000000
vn 0.000000 0.000000 0.000000
vn 0.000000 0.000000 0.000000
vn 0.000000 0.000000 0.000000
vn 0.000000 0.000000 0.000000
vn 0.000000 0.000000 0.000000
vn 0.000000 1.000000 0.000000
vn 0.000000 1.000000 0.000000
vn -1.000000 0.000000 0.000000
vn -1.000000 0.000000 0.000000
vn -1.000000 0.000000 0.000000
vn -1.000000 0.000000 0.000000
vn 0.000000 0.000000 0.000000
vn -0.000000 -0.000000 0.000000
vn -0.000666 -0.999382 0.035135
vn -0.000666 -0.999382 0.035135
vn 0.999970 -0.007812 0.000000
vn 1.000000 -0.000054 0.000000
vn 0.999997 0.002385 0.000000
vn 1.000000 0.000071 0.000000
vn 1.000000 -0.000000 0.000000
vn -0.001042 0.999999 0.000000
vn -0.001042 0.999999 0.000000
vn 0.004169 -0.999991 0.000000
vn 0.004169 -0.999991 0.000000
vn 1.000000 0.000000 0.000000
vn 1.000000 0.000000 0.000000
vn 0.000000 0.000000 0.000000
vn 1.000000 0.000000 0.000000
vn 1.000000 0.000000 0.000000
vn 0.000000 1.000000 0.000000
vn -0.000000 1.000000 0.000000
vn -0.000000 1.000000 0.000000
vn -0.000000 1.000000 0.000000
vn 1.000000 0.000000 0.000000
vn 1.000000 0.000000 0.000000
vn 1.000000 0.000000 0.000000
vn 1.000000 0.000000 0.000000
vn 1.000000 0.000000 0.000000
vn 0.000000 -1.000000 0.000000
vn 0.000000 -1.000000 0.000000
vn 0.000000 -0.000000 0.000000
vn 0.000000 0.000000 0.000000
vn 0.000000 0.000000 0.000000
vn -0.000000 0.000000 0.000000
vn -1.000000 0.000000 0.000000
vn -1.000000 0.000000 0.000000
vn -1.000000 0.000000 0.000000
vn 0.000000 1.000000 0.000000
vn 0.000000 1.000000 0.000000
vn 0.000000 0.000000 0.000000
vn 0.000000 0.000000 0.000000
vn 0.000000 0.000000 0.000000
vn 0.000000 0.000000 0.000000
vn 0.000000 0.000000 0.000000
vn 0.000000 0.000000 0.000000
vn 0.000000 0.000000 0.000000
vn 0.000000 -0.000000 0.000000
vn 0.000000 -1.000000 0.000000
vn 0.000000 -1.000000 0.000000
vn 0.000000 0.000000 0.000000
vn -1.000000 0.000000 0.000000
vn 0.000000 0.000000 0.000000
vn -1.000000 0.000000 0.000000
vn 0.000000 0.000000 0.000000
vn -0.000000 -0.000000 0.000000
vn -0.083023 -0.996274 0.023350
vn -0.083023 -0.996274 0.023350
vn 0.000000 0.000000 0.000000
vn 0.000000 0.000000 0.000000
vn 0.000000 0.000000 0.000000
vn 0.000000 0.000000 0.000000
vn 0.083023 0.996274 -0.023350
vn 0.083023 0.996274 -0.023350
vn 0.000000 0.000000 -0.000000
vn 0.000000 0.000000 0.000000
vn 0.000000 0.000000 0.000000
vn 0.000000 0.000000 0.000000
vn 0.000000 0.000000 0.000000
vn 0.000000 0.000000 0.000000
vn 1.000000 0.000000 0.000000
vn 1.000000 0.000000 0.000000
vn -1.000000 0.000000 0.000000
vn -1.000000 0.000000 0.000000
vn 1.000000 0.000000 0.000000
vn 1.000000 0.000000 0.000000
vn 1.000000 0.000000 0.000000
vn 0.000000 0.000000 0.000000
vn 1.000000 0.000000 0.000000
vn 1.000000 0.000000 0.000000
vn 0.000000 0.000000 0.000000
vn 1.000000 0.000000 0.000000
vn 0.000000 0.000000 0.000000
vn 1.000000 0.000000 0.000000
vn -1.000000 0.000000 0.000000
vn -0.000000 0.000000 0.000000
vn -1.000000 0.000000 0.000000
vn 0.000000 0.000000 0.000000
vn 1.000000 0.000000 0.000000
vn 1.000000 0.000000 0.000000
vn 1.000000 0.000000 0.000000
vn 1.000000 0.000000 0.000000
vn 0.000000 0.000000 0.000000
vn 0.000000 0.000000 0.000000
vn 0.000000 0.000000 0.000000
vn 0.000000 0.000000 0.000000
vn 0.000000 0.000000 0.000000
vn 0.000000 0.000000 0.000000
vn 1.000000 0.000000 0.000000
vn 1.000000 0.000000 0.000000
vn 0.000000 0.000000 0.000000
vn 0.000000 0.000000 0.000000
vn 0.000000 0.000000 0.000000
vn 0.000000 0.000000 0.000000
vn -0.175917 0.007659 0.984375
vn -0.177219 0.001627 0.984170
vn -0.992070 0.086042 0.091622
vn -0.980977 0.077246 0.178092
vn -0.992070 0.086042 -0.091622
vn -0.980977 0.077246 -0.178092
vn -0.176853 0.000000 -0.984237
vn -0.175255 0.005160 -0.984510
vn -1.000000 0.000000 0.000000
vn 1.000000 0.000000 0.000000
vn -1.000000 0.000000 0.000000
vn 1.000000 0.000000 0.000000
vn 0.000000 0.000000 0.000000
vn 1.000000 -0.000000 0.000000
vn 1.000000 -0.000000 0.000000
vn 1.000000 -0.000000 0.000000
vn 0.176698 -0.000691 -0.984265
vn 0.175224 0.003257 -0.984523
vn 0.994172 0.057014 -0.091500
vn 0.982611 0.051513 -0.178388
vn 0.994172 0.057014 0.091500
vn 0.982611 0.051513 0.178388
vn 0.188401 0.016297 0.981957
vn 0.186786 0.020609 0.982184
vn 1.000000 0.000868 0.000000
vn -1.000000 -0.000000 0.000000
vn -1.000000 0.000001 0.000000
vn -1.000000 -0.000000 0.000000
s 1
g pCube1
usemtl lambert2SG
f 1/65/1 2/66/2 5/68/3
f 5/68/3 2/66/2 6/67/4
s 2
f 121/193/5 122/194/6 124/196/7
f 124/196/7 122/194/6 123/195/8
s 3
f 4/73/9 8/74/10 3/69/11
f 3/69/11 8/74/10 7/70/12
s 4
f 81/129/13 82/130/14 84/132/15
f 84/132/15 82/130/14 83/131/16
f 82/130/14 85/133/17 83/131/16
f 83/131/16 85/133/17 86/134/18
f 87/135/19 88/136/20 85/133/17
f 85/133/17 88/136/20 86/134/18
s 5
f 9/72/21 10/71/22 158/249/23
f 158/249/23 10/71/22 157/245/24
s 6
f 125/197/25 126/198/26 128/200/27
f 128/200/27 126/198/26 127/199/28
s 7
f 12/78/29 169/268/30 11/75/31
f 11/75/31 169/268/30 170/272/32
s 8
f 14/34/33 18/35/34 13/33/35
f 13/33/35 18/35/34 17/36/36
f 15/37/37 19/38/38 14/34/33
f 14/34/33 19/38/38 18/35/34
f 15/37/37 16/41/39 19/38/38
f 19/38/38 16/41/39 20/42/40
f 17/36/36 18/35/34 21/40/41
f 21/40/41 18/35/34 22/39/42
f 18/35/34 19/38/38 22/39/42
f 22/39/42 19/38/38 23/43/43
f 19/38/38 20/42/40 23/43/43
f 23/43/43 20/42/40 24/46/44
f 21/40/41 22/39/42 25/45/45
f 25/45/45 22/39/42 26/44/46
f 22/39/42 23/43/43 26/44/46
f 26/44/46 23/43/43 27/47/47
f 24/46/44 28/48/48 23/43/43
f 23/43/43 28/48/48 27/47/47
s 10
f 161/253/49 162/254/50 29/84/51
f 29/84/51 162/254/50 30/83/52
s 11
f 129/201/53 130/202/54 132/204/55
f 132/204/55 130/202/54 131/203/56
s 12
f 165/263/57 166/264/58 31/86/59
f 31/86/59 166/264/58 32/90/60
s 13
f 89/137/61 90/138/62 92/140/63
f 92/140/63 90/138/62 91/139/64
f 90/138/62 93/141/65 91/139/64
f 91/139/64 93/141/65 94/142/66
f 93/141/65 95/143/67 94/142/66
f 94/142/66 95/143/67 96/144/68
s 14
f 33/88/69 34/87/70 37/93/71
f 37/93/71 34/87/70 38/92/72
s 15
f 133/205/73 134/206/74 136/208/75
f 136/208/75 134/206/74 135/207/76
s 16
f 35/91/77 36/94/78 39/95/79
f 39/95/79 36/94/78 40/96/80
s 17
f 38/50/81 42/51/82 37/49/83
f 37/49/83 42/51/82 41/52/84
f 38/50/81 39/53/85 42/51/82
f 42/51/82 39/53/85 43/54/86
f 39/53/85 40/57/87 43/54/86
f 43/54/86 40/57/87 44/58/88
f 41/52/84 42/51/82 45/56/89
f 45/56/89 42/51/82 46/55/90
f 42/51/82 43/54/86 46/55/90
f 46/55/90 43/54/86 47/59/91
f 43/54/86 44/58/88 47/59/91
f 47/59/91 44/58/88 48/62/92
f 45/56/89 46/55/90 1/61/93
f 1/61/93 46/55/90 2/60/94
f 46/55/90 47/59/91 2/60/94
f 2/60/94 47/59/91 3/63/95
f 48/62/92 4/64/96 47/59/91
f 47/59/91 4/64/96 3/63/95
s 18
f 44/1/97 40/2/98 49/4/99
f 49/4/99 40/2/98 36/3/100
f 48/7/101 44/1/97 50/8/102
f 50/8/102 44/1/97 49/4/99
f 4/12/103 48/7/101 8/13/104
f 8/13/104 48/7/101 50/8/102
s 19
f 97/145/105 96/146/106 98/148/107
f 98/148/107 96/146/106 95/147/108
f 99/149/109 97/145/105 100/150/110
f 100/150/110 97/145/105 98/148/107
f 87/151/111 99/149/109 88/152/112
f 88/152/112 99/149/109 100/150/110
s 20
f 51/6/113 32/5/114 167/266/115
f 167/266/115 32/5/114 166/265/116
f 52/11/117 51/6/113 168/267/118
f 168/267/118 51/6/113 167/266/115
f 12/15/119 52/11/117 169/269/120
f 169/269/120 52/11/117 168/267/118
s 21
f 37/17/121 41/18/122 33/20/123
f 33/20/123 41/18/122 53/19/124
f 41/18/122 45/21/125 53/19/124
f 53/19/124 45/21/125 54/22/126
f 45/21/125 1/25/127 54/22/126
f 54/22/126 1/25/127 5/26/128
s 22
f 92/153/129 101/154/130 89/156/131
f 89/156/131 101/154/130 102/155/132
f 101/154/130 103/157/133 102/155/132
f 102/155/132 103/157/133 104/158/134
f 103/157/133 81/159/135 104/158/134
f 104/158/134 81/159/135 84/160/136
s 23
f 29/24/137 55/23/138 161/252/139
f 161/252/139 55/23/138 160/251/140
f 55/23/138 56/27/141 160/251/140
f 160/251/140 56/27/141 159/250/142
f 56/27/141 9/30/143 159/250/142
f 159/250/142 9/30/143 158/248/144
s 24
f 57/97/145 5/68/146 58/98/147
f 5/68/146 6/67/148 58/98/147
s 25
f 59/99/149 10/71/150 60/100/151
f 10/71/150 9/72/152 60/100/151
s 26
f 58/98/153 6/67/154 61/101/155
f 6/67/154 7/70/156 61/101/155
s 27
f 62/102/157 11/75/158 59/99/159
f 11/75/158 10/71/160 59/99/159
s 28
f 61/101/161 7/70/162 63/103/163
f 7/70/162 8/74/164 63/103/163
s 29
f 64/104/165 12/78/166 62/102/167
f 12/78/166 11/75/168 62/102/167
s 30
f 65/105/169 29/84/170 66/106/171
f 29/84/170 30/83/172 66/106/171
s 31
f 67/107/173 34/87/174 68/108/175
f 34/87/174 33/88/176 68/108/175
s 32
f 66/106/177 30/83/178 69/109/179
f 30/83/178 31/86/180 69/109/179
s 33
f 70/110/181 35/91/182 67/107/183
f 35/91/182 34/87/184 67/107/183
s 34
f 69/109/185 31/86/186 71/111/187
f 31/86/186 32/90/188 71/111/187
s 35
f 72/112/189 36/94/190 70/110/191
f 36/94/190 35/91/192 70/110/191
s 36
f 73/113/193 49/4/194 72/114/195
f 49/4/194 36/3/196 72/114/195
s 37
f 71/115/197 32/5/198 74/116/199
f 32/5/198 51/6/200 74/116/199
s 38
f 75/117/201 50/8/202 73/113/203
f 50/8/202 49/4/204 73/113/203
s 39
f 74/116/205 51/6/206 76/118/207
f 51/6/206 52/11/208 76/118/207
s 40
f 63/119/209 8/13/210 75/117/211
f 8/13/210 50/8/212 75/117/211
s 41
f 76/118/213 52/11/214 64/120/215
f 52/11/214 12/15/216 64/120/215
s 42
f 68/121/217 33/20/218 77/122/219
f 33/20/218 53/19/220 77/122/219
s 43
f 78/123/221 55/23/222 65/124/223
f 55/23/222 29/24/224 65/124/223
s 44
f 77/122/225 53/19/226 79/125/227
f 53/19/226 54/22/228 79/125/227
s 45
f 80/126/229 56/27/230 78/123/231
f 56/27/230 55/23/232 78/123/231
s 46
f 140/212/233 137/209/234 139/211/235
f 137/209/234 138/210/236 139/211/235
s 47
f 60/128/237 9/30/238 80/126/239
f 9/30/238 56/27/240 80/126/239
s 48
f 58/98/241 82/130/242 57/97/243
f 57/97/243 82/130/242 81/129/244
s 49
f 59/99/245 60/100/246 83/131/247
f 83/131/247 60/100/246 84/132/248
s 48
f 61/101/249 85/133/250 58/98/241
f 58/98/241 85/133/250 82/130/242
s 49
f 62/102/251 59/99/245 86/134/252
f 86/134/252 59/99/245 83/131/247
s 48
f 61/101/249 63/103/253 85/133/250
f 85/133/250 63/103/253 87/135/254
s 49
f 62/102/251 86/134/252 64/104/255
f 64/104/255 86/134/252 88/136/256
f 66/106/257 90/138/258 65/105/259
f 65/105/259 90/138/258 89/137/260
s 48
f 67/107/261 68/108/262 91/139/263
f 91/139/263 68/108/262 92/140/264
s 49
f 66/106/257 69/109/265 90/138/258
f 90/138/258 69/109/265 93/141/266
s 48
f 70/110/267 67/107/261 94/142/268
f 94/142/268 67/107/261 91/139/263
s 49
f 69/109/265 71/111/269 93/141/266
f 93/141/266 71/111/269 95/143/270
s 48
f 70/110/267 94/142/268 72/112/271
f 72/112/271 94/142/268 96/144/272
f 72/114/271 96/146/272 73/113/273
f 73/113/273 96/146/272 97/145/274
s 49
f 71/115/269 74/116/275 95/147/270
f 95/147/270 74/116/275 98/148/276
s 48
f 75/117/277 73/113/273 99/149/278
f 99/149/278 73/113/273 97/145/274
s 49
f 74/116/275 76/118/279 98/148/276
f 98/148/276 76/118/279 100/150/280
s 48
f 63/119/253 75/117/277 87/151/254
f 87/151/254 75/117/277 99/149/278
s 49
f 64/120/255 88/152/256 76/118/279
f 76/118/279 88/152/256 100/150/280
s 48
f 68/121/262 77/122/281 92/153/264
f 92/153/264 77/122/281 101/154/282
s 49
f 65/124/259 89/156/260 78/123/283
f 78/123/283 89/156/260 102/155/284
s 48
f 77/122/281 79/125/285 101/154/282
f 101/154/282 79/125/285 103/157/286
s 49
f 80/126/287 78/123/283 104/158/288
f 104/158/288 78/123/283 102/155/284
s 48
f 57/127/243 81/159/244 79/125/285
f 79/125/285 81/159/244 103/157/286
s 49
f 60/128/246 80/126/287 84/160/248
f 84/160/248 80/126/287 104/158/288
s 53
f 2/161/289 6/162/290 105/164/291
f 105/164/291 6/162/290 106/163/292
s 54
f 3/165/293 7/166/294 107/168/295
f 107/168/295 7/166/294 108/167/296
s 55
f 109/172/297 10/169/298 110/171/299
f 110/171/299 10/169/298 14/170/300
s 56
f 10/169/298 157/246/301 14/170/300
s 57
f 111/176/302 11/173/303 171/273/304
f 11/173/303 170/270/305 171/273/304
s 58
f 113/180/306 26/177/307 163/258/308
f 26/177/307 162/255/309 163/258/308
s 59
f 116/183/310 164/259/311 31/182/312
f 165/260/313 31/182/312 164/259/311
s 60
f 34/185/314 38/186/315 117/188/316
f 117/188/316 38/186/315 118/187/317
s 61
f 35/189/318 39/190/319 119/192/320
f 119/192/320 39/190/319 120/191/321
s 62
f 2/66/322 3/69/323 121/193/324
f 121/193/324 3/69/323 122/194/325
s 63
f 122/194/326 3/69/327 123/195/328
f 3/69/327 7/70/329 123/195/328
s 64
f 123/195/330 7/70/331 124/196/332
f 7/70/331 6/67/333 124/196/332
s 65
f 6/67/334 2/66/335 124/196/336
f 124/196/336 2/66/335 121/193/337
s 66
f 125/197/338 10/71/339 126/198/340
f 10/71/339 11/75/341 126/198/340
s 67
f 126/198/342 11/75/343 127/199/344
f 127/199/344 11/75/343 15/79/345
f 11/75/343 170/271/346 15/79/345
s 68
f 127/199/347 15/79/348 128/200/349
f 15/79/348 14/76/350 128/200/349
s 56
f 128/200/351 14/76/352 125/197/353
f 125/197/353 14/76/352 10/71/354
s 55
f 14/76/352 157/247/355 10/71/354
s 69
f 26/82/356 27/85/357 129/201/358
f 129/201/358 27/85/357 130/202/359
s 70
f 130/202/360 27/85/361 131/203/362
f 131/203/362 27/85/361 31/86/363
s off
f 27/85/361 165/261/364 31/86/363
s 71
f 131/203/365 31/86/366 132/204/367
f 31/86/366 30/83/368 132/204/367
s 72
f 132/204/369 30/83/370 129/201/371
f 129/201/371 30/83/370 26/82/372
s 73
f 30/83/370 162/257/373 26/82/372
s 74
f 133/205/374 34/87/375 134/206/376
f 34/87/375 35/91/377 134/206/376
s 75
f 134/206/378 35/91/379 135/207/380
f 35/91/379 39/95/381 135/207/380
s 76
f 135/207/382 39/95/383 136/208/384
f 39/95/383 38/92/385 136/208/384
s 77
f 38/92/386 34/87/387 136/208/388
f 136/208/388 34/87/387 133/205/389
s 78
f 137/209/390 54/22/391 138/210/392
f 54/22/391 5/26/393 138/210/392
s 79
f 138/210/394 5/26/395 139/211/396
f 5/26/395 57/127/397 139/211/396
s 80
f 139/211/398 57/127/399 140/212/400
f 57/127/399 79/125/401 140/212/400
s 81
f 140/212/402 79/125/403 137/209/404
f 79/125/403 54/22/405 137/209/404
s 73
f 141/216/406 26/213/407 142/215/408
f 142/215/408 26/213/407 30/214/409
s 72
f 26/213/407 162/256/410 30/214/409
s 82
f 143/220/411 27/217/412 144/219/413
f 144/219/413 27/217/412 31/218/414
s 70
f 27/217/412 165/262/415 31/218/414
s 83
f 34/221/416 38/222/417 145/224/418
f 145/224/418 38/222/417 146/223/419
s 84
f 35/225/420 39/226/421 147/228/422
f 147/228/422 39/226/421 148/227/423
s 85
f 122/229/424 123/230/425 149/232/426
f 149/232/426 123/230/425 150/231/427
s 86
f 151/236/428 121/233/429 152/235/430
f 121/233/429 124/234/431 152/235/430
s 87
f 153/240/432 126/237/433 154/239/434
f 126/237/433 127/238/435 154/239/434
s 88
f 155/244/436 125/241/437 156/243/438
f 125/241/437 128/242/439 156/243/438
s 5
f 158/249/23 157/245/24 13/77/440
f 13/77/440 157/245/24 14/76/441
s 23
f 159/250/142 158/248/144 17/31/442
f 17/31/442 158/248/144 13/32/443
f 160/251/140 159/250/142 21/28/444
f 21/28/444 159/250/142 17/31/442
f 160/251/140 21/28/444 161/252/139
f 161/252/139 21/28/444 25/29/445
s 10
f 26/82/446 162/254/50 25/81/447
f 25/81/447 162/254/50 161/253/49
s 89
f 114/179/448 163/258/449 30/178/450
f 163/258/449 162/255/451 30/178/450
s 90
f 115/184/452 27/181/453 164/259/454
f 27/181/453 165/260/455 164/259/454
s 12
f 27/85/456 28/89/457 165/263/57
f 165/263/57 28/89/457 166/264/58
s 20
f 167/266/115 166/265/116 24/10/458
f 24/10/458 166/265/116 28/9/459
f 168/267/118 167/266/115 20/14/460
f 20/14/460 167/266/115 24/10/458
f 168/267/118 20/14/460 169/269/120
f 169/269/120 20/14/460 16/16/461
s 7
f 169/268/30 16/80/462 170/272/32
f 170/272/32 16/80/462 15/79/463
s 91
f 112/175/464 171/273/465 15/174/466
f 171/273/465 170/270/467 15/174/466
g default
v -0.107794 -0.223972 1.441908
v 0.107794 -0.223972 1.441908
v -0.107794 0.240102 1.441908
v 0.107794 0.240102 1.441908
v -0.173247 0.380992 1.292457
v 0.173247 0.380992 1.292457
v -0.173247 -0.364862 1.292457
v 0.173247 -0.364862 1.292457
v 0.173247 0.380992 1.333006
v -0.173247 0.380992 1.333006
v -0.173247 -0.364862 1.333006
v 0.173247 -0.364862 1.333006
v -0.063628 0.240102 1.441908
v -0.102264 0.380992 1.333006
v -0.102264 0.380992 1.292457
v -0.102264 -0.364862 1.292457
v -0.102264 -0.364862 1.333006
v -0.063628 -0.223972 1.441908
v 0.058031 0.240102 1.441908
v 0.093267 0.380992 1.333006
v 0.093267 0.380992 1.292457
v 0.093267 -0.364862 1.292457
v 0.093267 -0.364862 1.333006
v 0.058031 -0.223972 1.441908
v -0.102264 0.016016 1.292457
v -0.173247 0.016016 1.292457
v -0.173247 0.016016 1.333006
v -0.107794 0.013013 1.441908
v -0.063628 0.013013 1.441908
v 0.058031 0.013013 1.441908
v 0.107794 0.013013 1.441908
v 0.173247 0.016016 1.333006
v 0.173247 0.016016 1.292457
v 0.093267 0.016016 1.292457
v -0.173247 -0.090671 1.333006
v -0.107794 -0.053368 1.441908
v -0.063628 -0.053368 1.441908
v 0.058031 -0.053368 1.441908
v 0.107794 -0.053368 1.441908
v 0.173247 -0.090671 1.333006
v 0.173247 -0.090671 1.292457
v 0.093267 -0.090671 1.292457
v -0.102264 -0.090671 1.292457
v -0.173247 -0.090671 1.292457
v -0.089385 -0.078236 1.342274
v -0.089385 0.015015 1.342274
v 0.081521 0.015015 1.342274
v 0.081521 -0.078236 1.342274
v -0.076507 -0.065803 1.392091
v -0.076507 0.014014 1.392091
v 0.069776 0.014014 1.392091
v 0.069776 -0.065803 1.392091
v -0.173247 0.380992 1.192458
v -0.102264 0.380992 1.192458
v -0.102264 0.016016 1.192458
v -0.173247 0.016016 1.192458
v 0.093267 0.016016 1.192458
v 0.093267 0.380992 1.192458
v 0.173247 0.380992 1.192458
v 0.173247 0.016016 1.192458
v 0.093267 -0.090671 1.192458
v 0.093267 -0.364862 1.192458
v 0.173247 -0.090671 1.192458
v 0.173247 -0.364862 1.192458
v -0.102264 -0.090671 1.192458
v -0.102264 -0.364862 1.192458
v -0.173247 -0.090671 1.192458
v -0.173247 -0.364862 1.192458
v 0.093267 -0.403131 1.284845
v 0.093267 -0.435572 1.263168
v 0.093267 -0.457250 1.230726
v 0.093267 -0.464862 1.192457
v 0.173247 -0.403131 1.284845
v 0.173247 -0.435572 1.263168
v 0.173247 -0.457250 1.230726
v 0.173247 -0.464862 1.192457
v -0.102264 -0.403131 1.284845
v -0.102264 -0.435572 1.263168
v -0.102264 -0.457250 1.230726
v -0.102264 -0.464862 1.192457
v -0.173247 -0.403131 1.284845
v -0.173247 -0.435572 1.263168
v -0.173247 -0.457250 1.230726
v -0.173247 -0.464862 1.192457
v -0.173247 0.419261 1.284845
v -0.173247 0.451703 1.263168
v -0.173247 0.473380 1.230726
v -0.173247 0.480993 1.192458
v -0.102264 0.419261 1.284845
v -0.102264 0.451703 1.263168
v -0.102264 0.473380 1.230726
v -0.102264 0.480993 1.192458
v 0.093267 0.419261 1.284845
v 0.093267 0.451703 1.263168
v 0.093267 0.473380 1.230726
v 0.093267 0.480993 1.192458
v 0.173247 0.419261 1.284845
v 0.173247 0.451703 1.263168
v 0.173247 0.473380 1.230726
v 0.173247 0.480993 1.192458
v -0.273247 0.380992 1.292457
v -0.273247 0.016016 1.292457
v -0.273247 0.380992 1.192458
v -0.273247 0.016016 1.192458
v 0.273247 0.380992 1.292457
v 0.273247 0.016016 1.292457
v 0.273247 0.016016 1.192458
v 0.273247 0.380992 1.192458
v 0.273247 -0.090671 1.292457
v 0.273247 -0.364862 1.292457
v 0.273247 -0.364862 1.192458
v 0.273247 -0.090671 1.192458
v -0.273247 -0.090671 1.292457
v -0.273247 -0.364862 1.292457
v -0.273247 -0.090671 1.192458
v -0.273247 -0.364862 1.192458
vt 0.375000 0.000000
vt 0.625000 0.000000
vt 0.375000 0.250000
vt 0.625000 0.250000
vt 0.375000 0.500000
vt 0.625000 0.500000
vt 0.375000 0.750000
vt 0.625000 0.750000
vt 0.375000 1.000000
vt 0.625000 1.000000
vt 0.875000 0.000000
vt 0.875000 0.250000
vt 0.125000 0.000000
vt 0.125000 0.250000
vt 0.625000 0.455516
vt 0.830516 0.250000
vt 0.169484 0.250000
vt 0.375000 0.455516
vt 0.169484 0.000000
vt 0.375000 0.794484
vt 0.625000 0.794484
vt 0.830516 0.000000
vt 0.426215 0.250000
vt 0.426215 0.455516
vt 0.426215 0.500000
vt 0.426215 0.750000
vt 0.426215 0.794484
vt 0.426215 0.000000
vt 0.426215 1.000000
vt 0.567293 0.250000
vt 0.567293 0.455516
vt 0.567293 0.500000
vt 0.567293 0.750000
vt 0.567293 0.794484
vt 0.567293 0.000000
vt 0.567293 1.000000
vt 0.426215 0.622335
vt 0.125000 0.127665
vt 0.375000 0.622335
vt 0.169484 0.127665
vt 0.375000 0.127665
vt 0.426215 0.127665
vt 0.567293 0.127665
vt 0.625000 0.127665
vt 0.830516 0.127665
vt 0.625000 0.622335
vt 0.875000 0.127665
vt 0.567293 0.622335
vt 0.169484 0.091905
vt 0.375000 0.091905
vt 0.426215 0.091905
vt 0.567293 0.091905
vt 0.625000 0.091905
vt 0.830516 0.091905
vt 0.625000 0.658095
vt 0.875000 0.091905
vt 0.567293 0.658095
vt 0.426215 0.658095
vt 0.125000 0.091905
vt 0.375000 0.658095
vt 0.426215 0.469365
vt 0.426215 0.457445
vt 0.567293 0.457445
vt 0.567293 0.469365
vt 0.426215 0.280635
vt 0.426215 0.292555
vt 0.567293 0.292555
vt 0.567293 0.280635
vt 0.375000 0.500000
vt 0.426215 0.500000
vt 0.426215 0.622335
vt 0.375000 0.622335
vt 0.567293 0.622335
vt 0.567293 0.500000
vt 0.625000 0.500000
vt 0.625000 0.622335
vt 0.567293 0.658095
vt 0.625000 0.658095
vt 0.625000 0.750000
vt 0.567293 0.750000
vt 0.426215 0.658095
vt 0.426215 0.750000
vt 0.375000 0.658095
vt 0.375000 0.750000
vt 0.625000 0.750000
vt 0.625000 0.750000
vt 0.625000 0.750000
vt 0.625000 0.750000
vt 0.567293 0.750000
vt 0.567293 0.750000
vt 0.567293 0.750000
vt 0.567293 0.750000
vt 0.426215 0.750000
vt 0.426215 0.750000
vt 0.426215 0.750000
vt 0.426215 0.750000
vt 0.375000 0.750000
vt 0.375000 0.750000
vt 0.375000 0.750000
vt 0.375000 0.750000
vt 0.375000 0.500000
vt 0.375000 0.500000
vt 0.375000 0.500000
vt 0.375000 0.500000
vt 0.426215 0.500000
vt 0.426215 0.500000
vt 0.426215 0.500000
vt 0.426215 0.500000
vt 0.567293 0.500000
vt 0.567293 0.500000
vt 0.567293 0.500000
vt 0.567293 0.500000
vt 0.625000 0.500000
vt 0.625000 0.500000
vt 0.625000 0.500000
vt 0.625000 0.500000
vt 0.375000 0.622335
vt 0.375000 0.500000
vt 0.375000 0.500000
vt 0.375000 0.622335
vt 0.625000 0.500000
vt 0.625000 0.622335
vt 0.625000 0.622335
vt 0.625000 0.500000
vt 0.625000 0.658095
vt 0.625000 0.750000
vt 0.625000 0.750000
vt 0.625000 0.658095
vt 0.375000 0.750000
vt 0.375000 0.658095
vt 0.375000 0.658095
vt 0.375000 0.750000
vn 0.000000 0.000000 1.000000
vn 0.000000 0.000000 1.000000
vn 0.000000 0.000000 1.000000
vn 0.000000 0.000000 1.000000
vn 0.000000 0.611558 0.791199
vn 0.000000 0.735487 0.677539
vn 0.000000 0.611558 0.791199
vn 0.000000 0.752892 0.658145
vn 0.000000 0.000000 -1.000000
vn 0.000000 0.000000 -1.000000
vn 0.000000 0.000000 -1.000000
vn 0.000000 0.000000 -1.000000
vn 0.000000 -0.752892 0.658145
vn 0.000000 -0.735487 0.677539
vn 0.000000 -0.611558 0.791199
vn 0.000000 -0.611558 0.791199
vn 0.857105 0.000000 0.515141
vn 0.920585 0.000000 0.390543
vn 0.857105 0.000000 0.515141
vn 0.926515 0.000000 0.376258
vn -0.857105 0.000000 0.515141
vn -0.857105 0.000000 0.515141
vn -0.920585 0.000000 0.390543
vn -0.926515 0.000000 0.376258
vn 0.000000 1.000000 0.000000
vn 0.000000 1.000000 0.000000
vn -1.000000 0.000000 0.000000
vn -1.000000 0.000000 0.000000
vn 0.000000 -1.000000 0.000000
vn 0.000000 -1.000000 0.000000
vn 1.000000 0.000000 0.000000
vn 1.000000 0.000000 0.000000
vn 0.000000 0.611559 0.791199
vn 0.000000 0.744801 0.667287
vn 0.000000 1.000000 0.000000
vn 0.000000 0.000000 -1.000000
vn 0.000000 0.000000 -1.000000
vn 0.000000 -0.744801 0.667287
vn 0.000000 -1.000000 0.000000
vn 0.000000 -0.611559 0.791199
vn 0.000000 0.000000 1.000000
vn 0.000000 0.000000 1.000000
vn 0.000000 0.611558 0.791199
vn 0.000000 0.752892 0.658145
vn 0.000000 1.000000 0.000000
vn 0.000000 0.000000 -1.000000
vn 0.000000 0.000000 -1.000000
vn 0.000000 -0.752891 0.658145
vn 0.000000 -1.000000 0.000000
vn 0.000000 -0.611558 0.791199
vn 0.000000 0.000000 1.000000
vn 0.000000 0.000000 1.000000
vn 0.000000 0.000000 -1.000000
vn 0.000000 0.000000 -1.000000
vn 0.000000 0.000000 -1.000000
vn 0.000000 0.000000 -1.000000
vn -1.000000 0.000000 0.000000
vn -0.917969 0.000000 0.396651
vn -0.857105 0.000000 0.515141
vn 0.000000 0.000000 1.000000
vn 0.000000 0.000000 1.000000
vn 0.000000 0.000000 1.000000
vn 0.000000 0.000000 1.000000
vn 0.917969 0.000000 0.396651
vn 0.857105 0.000000 0.515141
vn 1.000000 0.000000 0.000000
vn 0.000000 0.000000 -1.000000
vn 0.000000 0.000000 -1.000000
vn 0.000000 0.000000 -1.000000
vn 0.000000 0.000000 -1.000000
vn -0.926515 0.000000 0.376258
vn -0.857105 0.000000 0.515141
vn 0.000000 0.000000 1.000000
vn 0.000000 0.000000 1.000000
vn 0.000000 0.000000 1.000000
vn 0.000000 0.000000 1.000000
vn 0.926515 0.000000 0.376258
vn 0.857105 0.000000 0.515141
vn 1.000000 0.000000 0.000000
vn 0.000000 0.000000 -1.000000
vn 0.000000 0.000000 -1.000000
vn 0.000000 0.000000 -1.000000
vn 0.000000 0.000000 -1.000000
vn 0.000000 0.000000 -1.000000
vn 0.000000 0.000000 -1.000000
vn 0.000000 0.000000 -1.000000
vn 0.000000 0.000000 -1.000000
vn -1.000000 0.000000 0.000000
vn 0.968172 0.000000 -0.250286
vn 0.968172 0.000000 -0.250286
vn 0.968172 0.000000 -0.250286
vn 0.968172 0.000000 -0.250285
vn 0.000000 -0.999798 -0.020089
vn 0.000000 -0.999798 -0.020089
vn 0.000000 -0.999798 -0.020092
vn 0.000000 -0.999798 -0.020092
vn -0.973314 0.000000 -0.229479
vn -0.973314 0.000000 -0.229479
vn -0.973314 0.000000 -0.229479
vn -0.973314 0.000000 -0.229479
vn 0.000000 0.970235 -0.242164
vn 0.000000 0.970230 -0.242187
vn 0.000000 0.970235 -0.242164
vn 0.000000 0.970230 -0.242187
vn 0.968172 0.000000 -0.250286
vn 0.968172 0.000000 -0.250286
vn 0.968172 0.000000 -0.250286
vn 0.968172 0.000000 -0.250286
vn 0.000000 -0.999988 -0.004943
vn 0.000000 -0.999990 -0.004515
vn 0.000000 -0.999798 -0.020087
vn 0.000000 -0.999798 -0.020087
vn -0.973314 0.000000 -0.229479
vn -0.973313 0.000000 -0.229480
vn -0.973314 0.000000 -0.229479
vn -0.973313 0.000000 -0.229480
vn 0.000000 0.998119 -0.061310
vn 0.000000 0.970235 -0.242166
vn 0.000000 0.998429 -0.056029
vn 0.000000 0.970235 -0.242166
vn 0.000000 0.000002 -1.000000
vn 0.000000 0.000002 -1.000000
vn 0.000000 0.000002 -1.000000
vn 0.000000 0.000002 -1.000000
vn 0.000000 -1.000000 0.000000
vn 0.000000 -1.000000 0.000000
vn 0.000000 -1.000000 0.000000
vn -1.000000 0.000000 0.000000
vn -1.000000 0.000000 0.000000
vn -1.000000 0.000000 0.000000
vn -1.000000 0.000000 0.000000
vn 0.000000 -1.000000 0.000000
vn 0.000000 0.000002 -1.000000
vn 0.000000 0.000002 -1.000000
vn 0.000000 0.000002 -1.000000
vn 0.000000 0.000002 -1.000000
vn 1.000000 0.000000 0.000000
vn 1.000000 0.000000 0.000000
vn 1.000000 0.000000 0.000000
vn 1.000000 0.000000 0.000000
vn 0.000000 -1.000000 0.000000
vn 0.000000 -1.000000 0.000000
vn 0.000000 1.000000 0.000000
vn 0.000000 1.000000 0.000000
vn 0.000000 1.000000 0.000000
vn 1.000000 0.000000 0.000000
vn 1.000000 0.000000 0.000000
vn 1.000000 0.000000 0.000000
vn 1.000000 0.000000 0.000000
vn 0.000000 0.000001 -1.000000
vn 0.000000 0.000001 -1.000000
vn 0.000000 0.000001 -1.000000
vn 0.000000 0.000001 -1.000000
vn 0.000000 1.000000 0.000000
vn 0.000000 0.000001 -1.000000
vn 0.000000 0.000001 -1.000000
vn 0.000000 1.000000 0.000000
vn 0.000000 1.000000 0.000000
vn 0.000000 0.000001 -1.000000
vn 0.000000 0.000001 -1.000000
vn -1.000000 0.000000 0.000000
vn -1.000000 0.000000 0.000000
vn -1.000000 0.000000 0.000000
vn -1.000000 0.000000 0.000000
vn 0.000000 -0.195091 0.980785
vn 0.000000 -0.195091 0.980785
vn 0.000000 -0.382687 0.923878
vn 0.000000 -0.382687 0.923878
vn 0.000000 -0.707112 0.707102
vn 0.000000 -0.707112 0.707102
vn 0.000000 -0.923879 0.382684
vn 0.000000 -0.923879 0.382684
vn 0.000000 -0.980785 0.195091
vn 0.000000 -0.980785 0.195090
vn 1.000000 -0.000000 0.000000
vn 1.000000 0.000000 0.000000
vn 1.000000 0.000000 0.000000
vn 1.000000 -0.000000 0.000000
vn 1.000000 -0.000000 0.000000
vn 1.000000 -0.000000 0.000000
vn 0.000000 -0.195091 0.980785
vn 0.000000 -0.382687 0.923878
vn 0.000000 -0.707111 0.707102
vn 0.000000 -0.923879 0.382684
vn 0.000000 -0.980785 0.195090
vn 0.000000 -0.195091 0.980785
vn 0.000000 -0.382687 0.923878
vn 0.000000 -0.707111 0.707102
vn 0.000000 -0.923879 0.382684
vn 0.000000 -0.980785 0.195091
vn -1.000000 0.000000 0.000000
vn -1.000000 0.000000 0.000000
vn -1.000000 0.000000 0.000000
vn -1.000000 0.000000 0.000000
vn -1.000000 -0.000000 0.000000
vn -1.000000 0.000000 0.000000
vn 0.000000 0.195089 0.980785
vn 0.000000 0.195089 0.980785
vn 0.000000 0.382681 0.923880
vn 0.000000 0.382681 0.923880
vn 0.000000 0.707107 0.707106
vn 0.000000 0.707107 0.707106
vn 0.000000 0.923877 0.382688
vn 0.000000 0.923877 0.382689
vn 0.000000 0.980783 0.195101
vn 0.000000 0.980783 0.195102
vn -1.000000 0.000000 0.000000
vn -1.000000 -0.000001 0.000000
vn -1.000000 -0.000001 0.000000
vn -1.000000 0.000000 0.000000
vn -1.000000 0.000000 0.000000
vn -1.000000 0.000000 0.000000
vn 0.000000 0.195089 0.980786
vn 0.000000 0.382681 0.923880
vn 0.000000 0.707107 0.707106
vn 0.000000 0.923877 0.382688
vn 0.000000 0.980783 0.195101
vn 0.000000 0.195089 0.980786
vn 0.000000 0.382681 0.923880
vn 0.000000 0.707107 0.707106
vn 0.000000 0.923877 0.382689
vn 0.000000 0.980783 0.195102
vn 1.000000 -0.000001 0.000000
vn 1.000000 0.000000 0.000000
vn 1.000000 -0.000000 0.000000
vn 1.000000 0.000000 0.000000
vn 1.000000 0.000000 0.000000
vn 1.000000 0.000000 0.000000
vn 0.000000 0.000000 1.000000
vn 0.000000 0.000000 1.000000
vn 0.000000 0.000000 1.000000
vn 0.000000 0.000000 1.000000
vn 0.000000 1.000000 0.000000
vn 0.000000 1.000000 0.000000
vn 0.000000 1.000000 0.000000
vn 0.000000 1.000000 0.000000
vn 0.000000 0.000000 -1.000000
vn 0.000000 0.000000 -1.000000
vn 0.000000 -1.000000 0.000000
vn 0.000000 -1.000000 0.000000
vn 0.000000 0.000000 1.000000
vn 0.000000 0.000000 1.000000
vn 0.000000 0.000000 1.000000
vn 0.000000 0.000000 1.000000
vn 0.000000 -1.000000 0.000000
vn 0.000000 -1.000000 0.000000
vn 0.000000 0.000000 -1.000000
vn 0.000000 0.000000 -1.000000
vn 0.000000 1.000000 0.000000
vn 0.000000 1.000000 0.000000
vn 0.000000 1.000000 0.000000
vn 0.000000 1.000000 0.000000
vn 0.000000 0.000000 1.000000
vn 0.000000 0.000000 1.000000
vn 0.000000 0.000000 1.000000
vn 0.000000 0.000000 1.000000
vn 0.000000 -1.000000 0.000000
vn 0.000000 -1.000000 0.000000
vn 0.000000 -1.000000 0.000000
vn 0.000000 -1.000000 0.000000
vn 0.000000 0.000000 -1.000000
vn 0.000000 0.000000 -1.000000
vn 0.000000 1.000000 0.000000
vn 0.000000 1.000000 0.000000
vn 0.000000 0.000000 1.000000
vn 0.000000 0.000000 1.000000
vn 0.000000 0.000000 1.000000
vn 0.000000 0.000000 1.000000
vn 0.000000 1.000000 0.000000
vn 0.000000 1.000000 0.000000
vn 0.000000 0.000000 -1.000000
vn 0.000000 0.000000 -1.000000
vn 0.000000 -1.000000 0.000000
vn 0.000000 -1.000000 0.000000
vn 0.000000 -1.000000 0.000000
vn 0.000000 -1.000000 0.000000
s 1
g pCube2
usemtl lambert4SG
f 199/314/468 200/315/469 174/276/470
f 174/276/470 200/315/469 184/296/471
s 2
f 184/296/472 185/297/473 174/276/474
f 174/276/474 185/297/473 181/291/475
s 3
f 224/342/476 225/343/477 227/345/478
f 227/345/478 225/343/477 226/344/479
s 4
f 182/293/480 188/300/481 172/282/482
f 172/282/482 188/300/481 189/302/483
s 5
f 202/317/484 203/318/485 175/277/486
f 175/277/486 203/318/485 180/289/487
s 6
f 199/314/488 174/276/489 198/313/490
f 198/313/490 174/276/489 181/290/491
s 2
f 181/291/475 185/297/473 176/278/492
f 176/278/492 185/297/473 186/298/493
s 6
f 197/311/494 198/313/490 176/287/495
f 176/287/495 198/313/490 181/290/491
s 4
f 178/280/496 187/299/497 182/293/480
f 182/293/480 187/299/497 188/300/481
s 5
f 180/289/487 203/318/485 177/285/498
f 177/285/498 203/318/485 204/320/499
s 2
f 190/303/500 191/304/501 184/296/472
f 184/296/472 191/304/501 185/297/473
f 186/298/493 185/297/473 192/305/502
f 192/305/502 185/297/473 191/304/501
s 3
f 228/346/503 226/344/479 229/347/504
f 229/347/504 226/344/479 225/343/477
s 4
f 188/300/481 187/299/497 194/307/505
f 194/307/505 187/299/497 193/306/506
f 188/300/481 194/307/505 189/302/483
f 189/302/483 194/307/505 195/309/507
s 1
f 184/296/471 200/315/469 190/303/508
f 190/303/508 200/315/469 201/316/509
s 2
f 190/303/500 175/277/510 191/304/501
f 191/304/501 175/277/510 180/288/511
f 192/305/502 191/304/501 177/279/512
f 177/279/512 191/304/501 180/288/511
s 3
f 228/346/503 229/347/504 231/349/513
f 231/349/513 229/347/504 230/348/514
s 4
f 194/307/505 193/306/506 183/294/515
f 183/294/515 193/306/506 179/281/516
f 195/309/507 194/307/505 173/283/517
f 173/283/517 194/307/505 183/294/515
s 1
f 190/303/508 201/316/509 175/277/518
f 175/277/518 201/316/509 202/317/519
s 9
f 197/312/520 196/310/521 215/333/522
f 215/333/522 196/310/521 214/331/523
s 6
f 215/332/524 206/322/525 197/311/494
f 197/311/494 206/322/525 198/313/490
f 206/322/525 207/323/526 198/313/490
f 198/313/490 207/323/526 199/314/488
s 1
f 207/323/527 208/324/528 199/314/468
f 199/314/468 208/324/528 200/315/469
f 202/317/519 201/316/509 210/326/529
f 210/326/529 201/316/509 209/325/530
s 5
f 211/327/531 203/318/485 210/326/532
f 210/326/532 203/318/485 202/317/484
f 204/320/499 203/318/485 212/329/533
f 212/329/533 203/318/485 211/327/531
s 13
f 213/330/534 205/321/535 212/328/536
f 212/328/536 205/321/535 204/319/537
s 6
f 182/292/538 172/274/539 206/322/525
f 206/322/525 172/274/539 207/323/526
s 1
f 172/274/540 189/301/541 207/323/527
f 207/323/527 189/301/541 208/324/528
f 209/325/530 208/324/528 195/308/542
f 195/308/542 208/324/528 189/301/541
f 210/326/529 209/325/530 173/275/543
f 173/275/543 209/325/530 195/308/542
s 5
f 183/295/544 211/327/531 173/275/545
f 173/275/545 211/327/531 210/326/532
f 212/329/533 211/327/531 179/284/546
f 179/284/546 211/327/531 183/295/544
s 15
f 233/353/547 232/350/548 235/352/549
f 235/352/549 232/350/548 234/351/550
f 237/355/551 236/354/552 233/353/547
f 233/353/547 236/354/552 232/350/548
f 238/356/553 236/354/552 239/357/554
f 239/357/554 236/354/552 237/355/551
s 6
f 178/286/555 182/292/538 215/332/524
f 215/332/524 182/292/538 206/322/525
s 17
f 220/338/556 221/339/557 208/324/558
f 208/324/558 221/339/557 200/315/559
s 18
f 221/339/560 222/340/561 200/315/562
f 200/315/562 222/340/561 201/316/563
s 19
f 223/341/564 209/325/565 222/340/566
f 222/340/566 209/325/565 201/316/567
s 20
f 220/338/568 208/324/569 223/341/570
f 223/341/570 208/324/569 209/325/571
s 17
f 214/331/572 196/310/573 216/334/574
f 216/334/574 196/310/573 217/335/575
s 18
f 196/310/576 205/321/577 217/335/578
f 217/335/578 205/321/577 218/336/579
s 19
f 213/330/580 219/337/581 205/321/582
f 205/321/582 219/337/581 218/336/583
s 20
f 214/331/584 216/334/585 213/330/586
f 213/330/586 216/334/585 219/337/587
s 17
f 216/334/574 217/335/575 220/338/556
f 220/338/556 217/335/575 221/339/557
s 18
f 217/335/578 218/336/579 221/339/560
f 221/339/560 218/336/579 222/340/561
s 19
f 219/337/581 223/341/564 218/336/583
f 218/336/583 223/341/564 222/340/566
s 20
f 216/334/585 220/338/568 219/337/587
f 219/337/587 220/338/568 223/341/570
s 25
f 259/377/588 263/381/589 224/342/590
f 224/342/590 263/381/589 225/343/591
s 18
f 196/310/576 197/312/592 226/344/593
f 226/344/593 197/312/592 227/345/594
s 27
f 273/390/595 272/391/596 275/393/597
f 275/393/597 272/391/596 274/392/598
s 18
f 205/321/577 196/310/576 228/346/599
f 228/346/599 196/310/576 226/344/593
s 25
f 263/381/589 267/385/600 225/343/591
f 225/343/591 267/385/600 229/347/601
f 267/385/600 271/389/602 229/347/601
f 229/347/601 271/389/602 230/348/603
s 28
f 276/394/604 277/395/605 279/397/606
f 279/397/606 277/395/605 278/396/607
s 18
f 204/319/608 205/321/577 231/349/609
f 231/349/609 205/321/577 228/346/599
s 20
f 213/330/586 212/328/610 232/350/611
f 232/350/611 212/328/610 234/351/612
s 30
f 280/398/613 281/399/614 283/401/615
f 283/401/615 281/399/614 282/400/616
s 31
f 247/361/617 243/365/618 235/352/619
f 235/352/619 243/365/618 233/353/620
s 20
f 214/331/584 213/330/586 236/354/621
f 236/354/621 213/330/586 232/350/611
s 31
f 243/365/618 251/369/622 233/353/620
f 233/353/620 251/369/622 237/355/623
s 20
f 215/333/624 214/331/584 238/356/625
f 238/356/625 214/331/584 236/354/621
s 31
f 251/369/622 255/373/626 237/355/623
f 237/355/623 255/373/626 239/357/627
s 32
f 285/402/628 284/403/629 287/405/630
f 287/405/630 284/403/629 286/404/631
s 33
f 179/281/632 193/306/633 244/358/634
f 244/358/634 193/306/633 240/362/635
f 244/358/634 240/362/635 245/359/636
f 245/359/636 240/362/635 241/363/637
f 245/359/636 241/363/637 246/360/638
f 246/360/638 241/363/637 242/364/639
f 246/360/638 242/364/639 247/361/640
f 247/361/640 242/364/639 243/365/641
s 34
f 235/352/642 179/281/643 244/358/644
f 235/352/642 244/358/644 245/359/645
f 235/352/642 245/359/645 246/360/646
f 235/352/642 246/360/646 247/361/647
s 33
f 193/306/633 187/299/648 240/362/635
f 240/362/635 187/299/648 248/366/649
f 240/362/635 248/366/649 241/363/637
f 241/363/637 248/366/649 249/367/650
f 241/363/637 249/367/650 242/364/639
f 242/364/639 249/367/650 250/368/651
f 242/364/639 250/368/651 243/365/641
f 243/365/641 250/368/651 251/369/652
f 187/299/648 178/280/653 248/366/649
f 248/366/649 178/280/653 252/370/654
f 248/366/649 252/370/654 249/367/650
f 249/367/650 252/370/654 253/371/655
f 249/367/650 253/371/655 250/368/651
f 250/368/651 253/371/655 254/372/656
f 250/368/651 254/372/656 251/369/652
f 251/369/652 254/372/656 255/373/657
s 35
f 178/280/658 239/357/659 252/370/660
f 252/370/660 239/357/659 253/371/661
f 253/371/661 239/357/659 254/372/662
f 254/372/662 239/357/659 255/373/663
s 36
f 176/278/664 186/298/665 256/374/666
f 256/374/666 186/298/665 260/378/667
f 256/374/666 260/378/667 257/375/668
f 257/375/668 260/378/667 261/379/669
f 257/375/668 261/379/669 258/376/670
f 258/376/670 261/379/669 262/380/671
f 258/376/670 262/380/671 259/377/672
f 259/377/672 262/380/671 263/381/673
s 37
f 224/342/674 176/278/675 256/374/676
f 224/342/674 256/374/676 257/375/677
f 224/342/674 257/375/677 258/376/678
f 224/342/674 258/376/678 259/377/679
s 36
f 186/298/665 192/305/680 260/378/667
f 260/378/667 192/305/680 264/382/681
f 260/378/667 264/382/681 261/379/669
f 261/379/669 264/382/681 265/383/682
f 261/379/669 265/383/682 262/380/671
f 262/380/671 265/383/682 266/384/683
f 262/380/671 266/384/683 263/381/673
f 263/381/673 266/384/683 267/385/684
f 192/305/680 177/279/685 264/382/681
f 264/382/681 177/279/685 268/386/686
f 264/382/681 268/386/686 265/383/682
f 265/383/682 268/386/686 269/387/687
f 265/383/682 269/387/687 266/384/683
f 266/384/683 269/387/687 270/388/688
f 266/384/683 270/388/688 267/385/684
f 267/385/684 270/388/688 271/389/689
s 38
f 177/279/690 230/348/691 268/386/692
f 268/386/692 230/348/691 269/387/693
f 269/387/693 230/348/691 270/388/694
f 270/388/694 230/348/691 271/389/695
s 39
f 197/312/696 176/278/697 273/390/698
f 273/390/698 176/278/697 272/391/699
s 40
f 176/278/700 224/342/701 272/391/702
f 272/391/702 224/342/701 274/392/703
s 3
f 224/342/476 227/345/478 274/392/704
f 274/392/704 227/345/478 275/393/705
s 18
f 227/345/594 197/312/592 275/393/706
f 275/393/706 197/312/592 273/390/707
s 41
f 177/279/708 204/319/709 276/394/710
f 276/394/710 204/319/709 277/395/711
s 18
f 204/319/608 231/349/609 277/395/712
f 277/395/712 231/349/609 278/396/713
s 3
f 231/349/513 230/348/514 278/396/714
f 278/396/714 230/348/514 279/397/715
s 42
f 230/348/716 177/279/717 279/397/718
f 279/397/718 177/279/717 276/394/719
s 43
f 212/328/720 179/281/721 280/398/722
f 280/398/722 179/281/721 281/399/723
s 44
f 179/281/724 235/352/725 281/399/726
f 281/399/726 235/352/725 282/400/727
s 15
f 235/352/549 234/351/550 282/400/728
f 282/400/728 234/351/550 283/401/729
s 20
f 234/351/612 212/328/610 283/401/730
f 283/401/730 212/328/610 280/398/731
s 45
f 178/280/732 215/333/733 285/402/734
f 285/402/734 215/333/733 284/403/735
s 20
f 215/333/624 238/356/625 284/403/736
f 284/403/736 238/356/625 286/404/737
s 15
f 238/356/553 239/357/554 286/404/738
f 286/404/738 239/357/554 287/405/739
s 46
f 239/357/740 178/280/741 287/405/742
f 287/405/742 178/280/741 285/402/743
g default
v 1.287211 0.177587 1.618872
v 1.614287 0.141833 1.397121
v 1.242243 0.550949 1.492346
v 1.569319 0.515195 1.270596
v 1.022175 0.421518 1.188622
v 1.349251 0.385764 0.966871
v 1.067143 0.048155 1.315148
v 1.394219 0.012401 1.093397
v 1.242243 0.550949 1.492346
v 1.569319 0.515195 1.270596
v 1.349251 0.385764 0.966871
v 1.022175 0.421518 1.188622
v 1.067143 0.048155 1.315148
v 1.394219 0.012401 1.093397
v 1.614287 0.141833 1.397121
v 1.287211 0.177587 1.618872
v 1.197275 0.924312 1.365821
v 1.524351 0.888558 1.144070
v 1.304283 0.759127 0.840346
v 0.977207 0.794881 1.062097
v 1.721295 -0.023352 0.871646
v 1.941363 0.106079 1.175370
v 1.676327 0.350010 0.745121
v 1.896395 0.479442 1.048845
v 0.740068 0.083909 1.536899
v 0.960135 0.213340 1.840623
v 0.915167 0.586703 1.714097
v 0.695099 0.457272 1.410373
v 1.112112 -0.325207 1.441673
v 1.439187 -0.360961 1.219922
v 1.659255 -0.231530 1.523646
v 1.332179 -0.195776 1.745397
vt 0.375000 0.000000
vt 0.625000 0.000000
vt 0.375000 0.250000
vt 0.625000 0.250000
vt 0.375000 0.500000
vt 0.625000 0.500000
vt 0.375000 0.750000
vt 0.625000 0.750000
vt 0.375000 1.000000
vt 0.625000 1.000000
vt 0.875000 0.000000
vt 0.875000 0.250000
vt 0.125000 0.000000
vt 0.125000 0.250000
vt 0.375000 0.250000
vt 0.625000 0.250000
vt 0.625000 0.500000
vt 0.375000 0.500000
vt 0.375000 0.750000
vt 0.625000 0.750000
vt 0.625000 1.000000
vt 0.375000 1.000000
vt 0.875000 0.000000
vt 0.875000 0.250000
vt 0.625000 0.000000
vt 0.375000 0.000000
vt 0.125000 0.250000
vt 0.125000 0.000000
vt 0.375000 0.250000
vt 0.625000 0.250000
vt 0.625000 0.500000
vt 0.375000 0.500000
vt 0.625000 0.000000
vt 0.875000 0.000000
vt 0.875000 0.250000
vt 0.625000 0.250000
vt 0.125000 0.000000
vt 0.375000 0.000000
vt 0.375000 0.250000
vt 0.125000 0.250000
vt 0.375000 0.750000
vt 0.625000 0.750000
vt 0.625000 1.000000
vt 0.375000 1.000000
vn 0.554640 0.326208 0.765482
vn 0.554640 0.326208 0.765482
vn 0.554640 0.326208 0.765482
vn 0.554640 0.326208 0.765482
vn -0.113334 0.940993 -0.318884
vn -0.113334 0.940993 -0.318884
vn -0.113334 0.940993 -0.318884
vn -0.113334 0.940993 -0.318884
vn -0.554640 -0.326208 -0.765482
vn -0.554640 -0.326208 -0.765482
vn -0.554640 -0.326208 -0.765482
vn -0.554640 -0.326208 -0.765482
vn 0.113334 -0.940993 0.318884
vn 0.113334 -0.940993 0.318884
vn 0.113334 -0.940993 0.318884
vn 0.113334 -0.940993 0.318884
vn 0.824336 -0.090111 -0.558883
vn 0.824336 -0.090111 -0.558883
vn 0.824336 -0.090111 -0.558883
vn 0.824336 -0.090111 -0.558883
vn -0.824336 0.090111 0.558883
vn -0.824336 0.090111 0.558883
vn -0.824336 0.090111 0.558883
vn -0.824336 0.090111 0.558883
vn 0.000000 0.000000 0.000000
vn 0.000000 0.000000 0.000000
vn 0.000000 0.000000 0.000000
vn 0.000000 0.000000 0.000000
vn 0.000000 0.000000 0.000000
vn 0.000000 0.000000 0.000000
vn 0.000000 0.000000 0.000000
vn 0.000000 0.000000 0.000000
vn 0.000000 0.000000 0.000000
vn 0.000000 0.000000 0.000000
vn 0.000000 0.000000 0.000000
vn 0.000000 0.000000 0.000000
vn 0.000000 0.000000 0.000000
vn 0.000000 0.000000 0.000000
vn 0.000000 0.000000 0.000000
vn 0.000000 0.000000 0.000000
vn 0.000000 0.000000 0.000000
vn 0.000000 0.000000 0.000000
vn 0.000000 0.000000 0.000000
vn 0.000000 0.000000 0.000000
vn 0.000000 0.000000 0.000000
vn 0.000000 0.000000 0.000000
vn 0.000000 0.000000 0.000000
vn 0.000000 0.000000 0.000000
vn 0.000000 0.000000 0.000000
vn 0.000000 0.000000 0.000000
vn 0.000000 0.000000 0.000000
vn 0.000000 0.000000 0.000000
vn 0.000000 0.000000 0.000000
vn 0.000000 0.000000 0.000000
vn 0.000000 0.000000 0.000000
vn 0.000000 0.000000 0.000000
vn 0.554640 0.326208 0.765482
vn 0.554640 0.326208 0.765482
vn 0.554640 0.326208 0.765482
vn 0.554640 0.326208 0.765482
vn 0.824336 -0.090111 -0.558883
vn 0.824336 -0.090111 -0.558883
vn 0.824336 -0.090111 -0.558883
vn 0.824336 -0.090111 -0.558883
vn -0.554640 -0.326208 -0.765482
vn -0.554640 -0.326208 -0.765482
vn -0.554640 -0.326208 -0.765482
vn -0.554640 -0.326208 -0.765482
vn -0.824336 0.090111 0.558883
vn -0.824336 0.090111 0.558883
vn -0.824336 0.090111 0.558883
vn -0.824336 0.090111 0.558883
vn 0.113334 -0.940993 0.318884
vn 0.113334 -0.940993 0.318884
vn 0.113334 -0.940993 0.318884
vn 0.113334 -0.940993 0.318884
vn -0.554640 -0.326208 -0.765482
vn -0.554640 -0.326208 -0.765482
vn -0.554640 -0.326208 -0.765482
vn -0.554640 -0.326208 -0.765482
vn -0.113334 0.940993 -0.318884
vn -0.113334 0.940993 -0.318884
vn -0.113334 0.940993 -0.318884
vn -0.113334 0.940993 -0.318884
vn 0.554640 0.326208 0.765482
vn 0.554640 0.326208 0.765482
vn 0.554640 0.326208 0.765482
vn 0.554640 0.326208 0.765482
vn 0.113334 -0.940993 0.318884
vn 0.113334 -0.940993 0.318884
vn 0.113334 -0.940993 0.318884
vn 0.113334 -0.940993 0.318884
vn 0.554640 0.326208 0.765482
vn 0.554640 0.326208 0.765482
vn 0.554640 0.326208 0.765482
vn 0.554640 0.326208 0.765482
vn -0.113334 0.940993 -0.318884
vn -0.113334 0.940993 -0.318884
vn -0.113334 0.940993 -0.318884
vn -0.113334 0.940993 -0.318884
vn -0.554640 -0.326208 -0.765482
vn -0.554640 -0.326208 -0.765482
vn -0.554640 -0.326208 -0.765482
vn -0.554640 -0.326208 -0.765482
vn -0.554640 -0.326208 -0.765482
vn -0.554640 -0.326208 -0.765482
vn -0.554640 -0.326208 -0.765482
vn -0.554640 -0.326208 -0.765482
vn 0.824336 -0.090111 -0.558883
vn 0.824336 -0.090111 -0.558883
vn 0.824336 -0.090111 -0.558883
vn 0.824336 -0.090111 -0.558883
vn 0.554640 0.326208 0.765482
vn 0.554640 0.326208 0.765482
vn 0.554640 0.326208 0.765482
vn 0.554640 0.326208 0.765482
vn -0.824336 0.090111 0.558883
vn -0.824336 0.090111 0.558883
vn -0.824336 0.090111 0.558883
vn -0.824336 0.090111 0.558883
s 1
g pCube3
usemtl lambert6SG
f 288/406/744 289/407/745 290/408/746
f 290/408/746 289/407/745 291/409/747
s 2
f 304/434/748 305/435/749 307/437/750
f 307/437/750 305/435/749 306/436/751
s 3
f 292/410/752 293/411/753 294/412/754
f 294/412/754 293/411/753 295/413/755
s 4
f 316/446/756 317/447/757 319/449/758
f 319/449/758 317/447/757 318/448/759
s 5
f 309/438/760 308/439/761 311/441/762
f 311/441/762 308/439/761 310/440/763
s 6
f 312/442/764 313/443/765 315/445/766
f 315/445/766 313/443/765 314/444/767
s 7
f 296/420/768 290/408/769 297/421/770
f 290/408/769 291/409/771 297/421/770
s 8
f 298/422/772 293/411/773 299/423/774
f 293/411/773 292/410/775 299/423/774
s 9
f 300/424/776 294/412/777 301/425/778
f 294/412/777 295/413/779 301/425/778
s 10
f 302/426/780 289/415/781 303/427/782
f 289/415/781 288/414/783 303/427/782
s 11
f 301/428/784 295/416/785 298/429/786
f 295/416/785 293/417/787 298/429/786
s 12
f 297/421/788 291/409/789 302/430/790
f 291/409/789 289/407/791 302/430/790
s 13
f 303/431/792 288/406/793 296/420/794
f 288/406/793 290/408/795 296/420/794
s 14
f 299/432/796 292/419/797 300/433/798
f 292/419/797 294/418/799 300/433/798
s 15
f 296/420/800 297/421/801 304/434/802
f 304/434/802 297/421/801 305/435/803
s 16
f 297/421/804 298/422/805 305/435/806
f 305/435/806 298/422/805 306/436/807
s 17
f 298/422/808 299/423/809 306/436/810
f 306/436/810 299/423/809 307/437/811
s 18
f 299/423/812 296/420/813 307/437/814
f 307/437/814 296/420/813 304/434/815
s 19
f 302/430/816 301/428/817 309/438/818
f 309/438/818 301/428/817 308/439/819
s 20
f 301/428/820 298/429/821 308/439/822
f 308/439/822 298/429/821 310/440/823
s 21
f 298/429/824 297/421/825 310/440/826
f 310/440/826 297/421/825 311/441/827
s 22
f 297/421/828 302/430/829 311/441/830
f 311/441/830 302/430/829 309/438/831
s 23
f 300/433/832 303/431/833 312/442/834
f 312/442/834 303/431/833 313/443/835
s 24
f 303/431/836 296/420/837 313/443/838
f 313/443/838 296/420/837 314/444/839
s 25
f 296/420/840 299/432/841 314/444/842
f 314/444/842 299/432/841 315/445/843
s 26
f 299/432/844 300/433/845 315/445/846
f 315/445/846 300/433/845 312/442/847
s 27
f 300/424/848 301/425/849 316/446/850
f 316/446/850 301/425/849 317/447/851
s 28
f 301/425/852 302/426/853 317/447/854
f 317/447/854 302/426/853 318/448/855
s 29
f 302/426/856 303/427/857 318/448/858
f 318/448/858 303/427/857 319/449/859
s 30
f 303/427/860 300/424/861 319/449/862
f 319/449/862 300/424/861 316/446/863
g default
v 0.715414 1.410707 1.437402
v 0.964857 1.462502 1.501590
v 0.738127 1.564127 1.225339
v 0.987570 1.615922 1.289527
v 0.817418 1.357236 1.084153
v 1.066860 1.409031 1.148341
v 0.794705 1.203816 1.296217
v 1.044148 1.255611 1.360405
v 0.738127 1.564127 1.225339
v 0.987570 1.615922 1.289527
v 1.066860 1.409031 1.148341
v 0.817418 1.357236 1.084153
v 0.794705 1.203816 1.296217
v 1.044148 1.255611 1.360405
v 0.964857 1.462502 1.501590
v 0.715414 1.410707 1.437402
v 0.760840 1.717547 1.013275
v 1.010283 1.769342 1.077463
v 1.089573 1.562451 0.936277
v 0.840130 1.510656 0.872089
v 1.293590 1.307406 1.424593
v 1.214300 1.514298 1.565778
v 1.316303 1.460826 1.212529
v 1.237013 1.667718 1.353715
v 0.545262 1.152021 1.232028
v 0.465972 1.358912 1.373214
v 0.488684 1.512332 1.161151
v 0.567975 1.305440 1.019965
v 0.771992 1.050396 1.508280
v 1.021435 1.102191 1.572468
v 0.942144 1.309083 1.713654
v 0.692702 1.257287 1.649466
vt 0.375000 0.000000
vt 0.625000 0.000000
vt 0.375000 0.250000
vt 0.625000 0.250000
vt 0.375000 0.500000
vt 0.625000 0.500000
vt 0.375000 0.750000
vt 0.625000 0.750000
vt 0.375000 1.000000
vt 0.625000 1.000000
vt 0.875000 0.000000
vt 0.875000 0.250000
vt 0.125000 0.000000
vt 0.125000 0.250000
vt 0.375000 0.250000
vt 0.625000 0.250000
vt 0.625000 0.500000
vt 0.375000 0.500000
vt 0.375000 0.750000
vt 0.625000 0.750000
vt 0.625000 1.000000
vt 0.375000 1.000000
vt 0.875000 0.000000
vt 0.875000 0.250000
vt 0.625000 0.000000
vt 0.375000 0.000000
vt 0.125000 0.250000
vt 0.125000 0.000000
vt 0.375000 0.250000
vt 0.625000 0.250000
vt 0.625000 0.500000
vt 0.375000 0.500000
vt 0.625000 0.000000
vt 0.875000 0.000000
vt 0.875000 0.250000
vt 0.625000 0.250000
vt 0.125000 0.000000
vt 0.375000 0.000000
vt 0.375000 0.250000
vt 0.125000 0.250000
vt 0.375000 0.750000
vt 0.625000 0.750000
vt 0.625000 1.000000
vt 0.375000 1.000000
vn -0.301800 0.787483 0.537390
vn -0.301800 0.787483 0.537390
vn -0.301800 0.787483 0.537390
vn -0.301800 0.787483 0.537390
vn 0.086451 0.583956 -0.807169
vn 0.086451 0.583956 -0.807169
vn 0.086451 0.583956 -0.807169
vn 0.086451 0.583956 -0.807169
vn 0.301800 -0.787483 -0.537390
vn 0.301800 -0.787483 -0.537390
vn 0.301800 -0.787483 -0.537390
vn 0.301800 -0.787483 -0.537390
vn -0.086451 -0.583956 0.807169
vn -0.086451 -0.583956 0.807169
vn -0.086451 -0.583956 0.807169
vn -0.086451 -0.583956 0.807169
vn 0.949444 0.197146 0.244316
vn 0.949444 0.197146 0.244316
vn 0.949444 0.197146 0.244316
vn 0.949444 0.197146 0.244316
vn -0.949444 -0.197146 -0.244316
vn -0.949444 -0.197146 -0.244316
vn -0.949444 -0.197146 -0.244316
vn -0.949444 -0.197146 -0.244316
vn 0.000000 0.000000 0.000000
vn 0.000000 0.000000 0.000000
vn 0.000000 0.000000 0.000000
vn 0.000000 0.000000 0.000000
vn 0.000000 0.000000 0.000000
vn 0.000000 0.000000 0.000000
vn 0.000000 0.000000 0.000000
vn 0.000000 0.000000 0.000000
vn 0.000000 0.000000 0.000000
vn 0.000000 0.000000 0.000000
vn 0.000000 0.000000 0.000000
vn 0.000000 0.000000 0.000000
vn 0.000000 0.000000 0.000000
vn 0.000000 0.000000 0.000000
vn 0.000000 0.000000 0.000000
vn 0.000000 0.000000 0.000000
vn 0.000000 0.000000 0.000000
vn 0.000000 0.000000 0.000000
vn 0.000000 0.000000 0.000000
vn 0.000000 0.000000 0.000000
vn 0.000000 0.000000 0.000000
vn 0.000000 0.000000 0.000000
vn 0.000000 0.000000 0.000000
vn 0.000000 0.000000 0.000000
vn 0.000000 0.000000 0.000000
vn 0.000000 0.000000 0.000000
vn 0.000000 0.000000 0.000000
vn 0.000000 0.000000 0.000000
vn 0.000000 0.000000 0.000000
vn 0.000000 0.000000 0.000000
vn 0.000000 0.000000 0.000000
vn 0.000000 0.000000 0.000000
vn -0.301800 0.787483 0.537390
vn -0.301800 0.787483 0.537390
vn -0.301800 0.787483 0.537390
vn -0.301800 0.787483 0.537390
vn 0.949444 0.197146 0.244316
vn 0.949444 0.197146 0.244316
vn 0.949444 0.197146 0.244316
vn 0.949444 0.197146 0.244316
vn 0.301800 -0.787483 -0.537390
vn 0.301800 -0.787483 -0.537390
vn 0.301800 -0.787483 -0.537390
vn 0.301800 -0.787483 -0.537390
vn -0.949444 -0.197146 -0.244316
vn -0.949444 -0.197146 -0.244316
vn -0.949444 -0.197146 -0.244316
vn -0.949444 -0.197146 -0.244316
vn -0.086451 -0.583956 0.807169
vn -0.086451 -0.583956 0.807169
vn -0.086451 -0.583956 0.807169
vn -0.086451 -0.583956 0.807169
vn 0.301800 -0.787483 -0.537390
vn 0.301800 -0.787483 -0.537390
vn 0.301800 -0.787483 -0.537390
vn 0.301800 -0.787483 -0.537390
vn 0.086451 0.583956 -0.807169
vn 0.086451 0.583956 -0.807169
vn 0.086451 0.583956 -0.807169
vn 0.086451 0.583956 -0.807169
vn -0.301800 0.787483 0.537390
vn -0.301800 0.787483 0.537390
vn -0.301800 0.787483 0.537390
vn -0.301800 0.787483 0.537390
vn -0.086451 -0.583956 0.807169
vn -0.086451 -0.583956 0.807169
vn -0.086451 -0.583956 0.807169
vn -0.086451 -0.583956 0.807169
vn -0.301800 0.787483 0.537390
vn -0.301800 0.787483 0.537390
vn -0.301800 0.787483 0.537390
vn -0.301800 0.787483 0.537390
vn 0.086451 0.583956 -0.807169
vn 0.086451 0.583956 -0.807169
vn 0.086451 0.583956 -0.807169
vn 0.086451 0.583956 -0.807169
vn 0.301800 -0.787483 -0.537390
vn 0.301800 -0.787483 -0.537390
vn 0.301800 -0.787483 -0.537390
vn 0.301800 -0.787483 -0.537390
vn 0.301800 -0.787483 -0.537390
vn 0.301800 -0.787483 -0.537390
vn 0.301800 -0.787483 -0.537390
vn 0.301800 -0.787483 -0.537390
vn 0.949444 0.197146 0.244316
vn 0.949444 0.197146 0.244316
vn 0.949444 0.197146 0.244316
vn 0.949444 0.197146 0.244316
vn -0.301800 0.787483 0.537390
vn -0.301800 0.787483 0.537390
vn -0.301800 0.787483 0.537390
vn -0.301800 0.787483 0.537390
vn -0.949444 -0.197146 -0.244316
vn -0.949444 -0.197146 -0.244316
vn -0.949444 -0.197146 -0.244316
vn -0.949444 -0.197146 -0.244316
s 1
g pCube4
usemtl lambert6SG
f 320/450/864 321/451/865 322/452/866
f 322/452/866 321/451/865 323/453/867
s 2
f 336/478/868 337/479/869 339/481/870
f 339/481/870 337/479/869 338/480/871
s 3
f 324/454/872 325/455/873 326/456/874
f 326/456/874 325/455/873 327/457/875
s 4
f 348/490/876 349/491/877 351/493/878
f 351/493/878 349/491/877 350/492/879
s 5
f 341/482/880 340/483/881 343/485/882
f 343/485/882 340/483/881 342/484/883
s 6
f 344/486/884 345/487/885 347/489/886
f 347/489/886 345/487/885 346/488/887
s 7
f 328/464/888 322/452/889 329/465/890
f 322/452/889 323/453/891 329/465/890
s 8
f 330/466/892 325/455/893 331/467/894
f 325/455/893 324/454/895 331/467/894
s 9
f 332/468/896 326/456/897 333/469/898
f 326/456/897 327/457/899 333/469/898
s 10
f 334/470/900 321/459/901 335/471/902
f 321/459/901 320/458/903 335/471/902
s 11
f 333/472/904 327/460/905 330/473/906
f 327/460/905 325/461/907 330/473/906
s 12
f 329/465/908 323/453/909 334/474/910
f 323/453/909 321/451/911 334/474/910
s 13
f 335/475/912 320/450/913 328/464/914
f 320/450/913 322/452/915 328/464/914
s 14
f 331/476/916 324/463/917 332/477/918
f 324/463/917 326/462/919 332/477/918
s 15
f 328/464/920 329/465/921 336/478/922
f 336/478/922 329/465/921 337/479/923
s 16
f 329/465/924 330/466/925 337/479/926
f 337/479/926 330/466/925 338/480/927
s 17
f 330/466/928 331/467/929 338/480/930
f 338/480/930 331/467/929 339/481/931
s 18
f 331/467/932 328/464/933 339/481/934
f 339/481/934 328/464/933 336/478/935
s 19
f 334/474/936 333/472/937 341/482/938
f 341/482/938 333/472/937 340/483/939
s 20
f 333/472/940 330/473/941 340/483/942
f 340/483/942 330/473/941 342/484/943
s 21
f 330/473/944 329/465/945 342/484/946
f 342/484/946 329/465/945 343/485/947
s 22
f 329/465/948 334/474/949 343/485/950
f 343/485/950 334/474/949 341/482/951
s 23
f 332/477/952 335/475/953 344/486/954
f 344/486/954 335/475/953 345/487/955
s 24
f 335/475/956 328/464/957 345/487/958
f 345/487/958 328/464/957 346/488/959
s 25
f 328/464/960 331/476/961 346/488/962
f 346/488/962 331/476/961 347/489/963
s 26
f 331/476/964 332/477/965 347/489/966
f 347/489/966 332/477/965 344/486/967
s 27
f 332/468/968 333/469/969 348/490/970
f 348/490/970 333/469/969 349/491/971
s 28
f 333/469/972 334/470/973 349/491/974
f 349/491/974 334/470/973 350/492/975
s 29
f 334/470/976 335/471/977 350/492/978
f 350/492/978 335/471/977 351/493/979
s 30
f 335/471/980 332/468/981 351/493/982
f 351/493/982 332/468/981 348/490/983
g default
v 1.367772 1.982185 1.085089
v 1.657098 1.966862 1.135370
v 1.393430 2.268857 1.024808
v 1.682756 2.253533 1.075089
v 1.439306 2.205159 0.741417
v 1.728632 2.189836 0.791698
v 1.413648 1.918488 0.801698
v 1.702974 1.903165 0.851978
v 1.393430 2.268857 1.024808
v 1.682756 2.253533 1.075089
v 1.728632 2.189836 0.791698
v 1.439306 2.205159 0.741417
v 1.413648 1.918488 0.801698
v 1.702974 1.903165 0.851978
v 1.657098 1.966862 1.135370
v 1.367772 1.982185 1.085089
v 1.419089 2.555528 0.964527
v 1.708415 2.540205 1.014808
v 1.754291 2.476508 0.731417
v 1.464965 2.491831 0.681136
v 1.992300 1.887842 0.902259
v 1.946424 1.951539 1.185651
v 2.017959 2.174513 0.841979
v 1.972082 2.238210 1.125370
v 1.124322 1.933811 0.751417
v 1.078445 1.997508 1.034808
v 1.104104 2.284180 0.974527
v 1.149980 2.220483 0.691136
v 1.387989 1.631817 0.861978
v 1.677315 1.616494 0.912259
v 1.631439 1.680191 1.195651
v 1.342113 1.695514 1.145370
vt 0.375000 0.000000
vt 0.625000 0.000000
vt 0.375000 0.250000
vt 0.625000 0.250000
vt 0.375000 0.500000
vt 0.625000 0.500000
vt 0.375000 0.750000
vt 0.625000 0.750000
vt 0.375000 1.000000
vt 0.625000 1.000000
vt 0.875000 0.000000
vt 0.875000 0.250000
vt 0.125000 0.000000
vt 0.125000 0.250000
vt 0.375000 0.250000
vt 0.625000 0.250000
vt 0.625000 0.500000
vt 0.375000 0.500000
vt 0.375000 0.750000
vt 0.625000 0.750000
vt 0.625000 1.000000
vt 0.375000 1.000000
vt 0.875000 0.000000
vt 0.875000 0.250000
vt 0.625000 0.000000
vt 0.375000 0.000000
vt 0.125000 0.250000
vt 0.125000 0.000000
vt 0.375000 0.250000
vt 0.625000 0.250000
vt 0.625000 0.500000
vt 0.375000 0.500000
vt 0.625000 0.000000
vt 0.875000 0.000000
vt 0.875000 0.250000
vt 0.625000 0.250000
vt 0.125000 0.000000
vt 0.375000 0.000000
vt 0.375000 0.250000
vt 0.125000 0.250000
vt 0.375000 0.750000
vt 0.625000 0.750000
vt 0.625000 1.000000
vt 0.375000 1.000000
vn -0.156008 0.216611 0.963712
vn -0.156008 0.216611 0.963712
vn -0.156008 0.216611 0.963712
vn -0.156008 0.216611 0.963712
vn 0.087255 0.974866 -0.204993
vn 0.087255 0.974866 -0.204993
vn 0.087255 0.974866 -0.204993
vn 0.087255 0.974866 -0.204993
vn 0.156008 -0.216611 -0.963712
vn 0.156008 -0.216611 -0.963712
vn 0.156008 -0.216611 -0.963712
vn 0.156008 -0.216611 -0.963712
vn -0.087255 -0.974866 0.204993
vn -0.087255 -0.974866 0.204993
vn -0.087255 -0.974866 0.204993
vn -0.087255 -0.974866 0.204993
vn 0.983894 -0.052109 0.170987
vn 0.983894 -0.052109 0.170987
vn 0.983894 -0.052109 0.170987
vn 0.983894 -0.052109 0.170987
vn -0.983894 0.052109 -0.170987
vn -0.983894 0.052109 -0.170987
vn -0.983894 0.052109 -0.170987
vn -0.983894 0.052109 -0.170987
vn 0.000000 0.000000 0.000000
vn 0.000000 0.000000 0.000000
vn 0.000000 0.000000 0.000000
vn 0.000000 0.000000 0.000000
vn 0.000000 0.000000 0.000000
vn 0.000000 0.000000 0.000000
vn 0.000000 0.000000 0.000000
vn 0.000000 0.000000 0.000000
vn 0.000000 0.000000 0.000000
vn 0.000000 0.000000 0.000000
vn 0.000000 0.000000 0.000000
vn 0.000000 0.000000 0.000000
vn 0.000000 0.000000 0.000000
vn 0.000000 0.000000 0.000000
vn 0.000000 0.000000 0.000000
vn 0.000000 0.000000 0.000000
vn 0.000000 0.000000 0.000000
vn 0.000000 0.000000 0.000000
vn 0.000000 0.000000 0.000000
vn 0.000000 0.000000 0.000000
vn 0.000000 0.000000 0.000000
vn 0.000000 0.000000 0.000000
vn 0.000000 0.000000 0.000000
vn 0.000000 0.000000 0.000000
vn 0.000000 0.000000 0.000000
vn 0.000000 0.000000 0.000000
vn 0.000000 0.000000 0.000000
vn 0.000000 0.000000 0.000000
vn 0.000000 0.000000 0.000000
vn 0.000000 0.000000 0.000000
vn 0.000000 0.000000 0.000000
vn 0.000000 0.000000 0.000000
vn -0.156008 0.216611 0.963712
vn -0.156008 0.216611 0.963712
vn -0.156008 0.216611 0.963712
vn -0.156008 0.216611 0.963712
vn 0.983894 -0.052109 0.170987
vn 0.983894 -0.052109 0.170987
vn 0.983894 -0.052109 0.170987
vn 0.983894 -0.052109 0.170987
vn 0.156008 -0.216611 -0.963712
vn 0.156008 -0.216611 -0.963712
vn 0.156008 -0.216611 -0.963712
vn 0.156008 -0.216611 -0.963712
vn -0.983894 0.052109 -0.170987
vn -0.983894 0.052109 -0.170987
vn -0.983894 0.052109 -0.170987
vn -0.983894 0.052109 -0.170987
vn -0.087255 -0.974866 0.204993
vn -0.087255 -0.974866 0.204993
vn -0.087255 -0.974866 0.204993
vn -0.087255 -0.974866 0.204993
vn 0.156008 -0.216611 -0.963712
vn 0.156008 -0.216611 -0.963712
vn 0.156008 -0.216611 -0.963712
vn 0.156008 -0.216611 -0.963712
vn 0.087255 0.974866 -0.204993
vn 0.087255 0.974866 -0.204993
vn 0.087255 0.974866 -0.204993
vn 0.087255 0.974866 -0.204993
vn -0.156008 0.216611 0.963712
vn -0.156008 0.216611 0.963712
vn -0.156008 0.216611 0.963712
vn -0.156008 0.216611 0.963712
vn -0.087255 -0.974866 0.204993
vn -0.087255 -0.974866 0.204993
vn -0.087255 -0.974866 0.204993
vn -0.087255 -0.974866 0.204993
vn -0.156008 0.216611 0.963712
vn -0.156008 0.216611 0.963712
vn -0.156008 0.216611 0.963712
vn -0.156008 0.216611 0.963712
vn 0.087255 0.974866 -0.204993
vn 0.087255 0.974866 -0.204993
vn 0.087255 0.974866 -0.204993
vn 0.087255 0.974866 -0.204993
vn 0.156008 -0.216611 -0.963712
vn 0.156008 -0.216611 -0.963712
vn 0.156008 -0.216611 -0.963712
vn 0.156008 -0.216611 -0.963712
vn 0.156008 -0.216611 -0.963712
vn 0.156008 -0.216611 -0.963712
vn 0.156008 -0.216611 -0.963712
vn 0.156008 -0.216611 -0.963712
vn 0.983894 -0.052109 0.170987
vn 0.983894 -0.052109 0.170987
vn 0.983894 -0.052109 0.170987
vn 0.983894 -0.052109 0.170987
vn -0.156008 0.216611 0.963712
vn -0.156008 0.216611 0.963712
vn -0.156008 0.216611 0.963712
vn -0.156008 0.216611 0.963712
vn -0.983894 0.052109 -0.170987
vn -0.983894 0.052109 -0.170987
vn -0.983894 0.052109 -0.170987
vn -0.983894 0.052109 -0.170987
s 1
g pCube5
usemtl lambert6SG
f 352/494/984 353/495/985 354/496/986
f 354/496/986 353/495/985 355/497/987
s 2
f 368/522/988 369/523/989 371/525/990
f 371/525/990 369/523/989 370/524/991
s 3
f 356/498/992 357/499/993 358/500/994
f 358/500/994 357/499/993 359/501/995
s 4
f 380/534/996 381/535/997 383/537/998
f 383/537/998 381/535/997 382/536/999
s 5
f 373/526/1000 372/527/1001 375/529/1002
f 375/529/1002 372/527/1001 374/528/1003
s 6
f 376/530/1004 377/531/1005 379/533/1006
f 379/533/1006 377/531/1005 378/532/1007
s 7
f 360/508/1008 354/496/1009 361/509/1010
f 354/496/1009 355/497/1011 361/509/1010
s 8
f 362/510/1012 357/499/1013 363/511/1014
f 357/499/1013 356/498/1015 363/511/1014
s 9
f 364/512/1016 358/500/1017 365/513/1018
f 358/500/1017 359/501/1019 365/513/1018
s 10
f 366/514/1020 353/503/1021 367/515/1022
f 353/503/1021 352/502/1023 367/515/1022
s 11
f 365/516/1024 359/504/1025 362/517/1026
f 359/504/1025 357/505/1027 362/517/1026
s 12
f 361/509/1028 355/497/1029 366/518/1030
f 355/497/1029 353/495/1031 366/518/1030
s 13
f 367/519/1032 352/494/1033 360/508/1034
f 352/494/1033 354/496/1035 360/508/1034
s 14
f 363/520/1036 356/507/1037 364/521/1038
f 356/507/1037 358/506/1039 364/521/1038
s 15
f 360/508/1040 361/509/1041 368/522/1042
f 368/522/1042 361/509/1041 369/523/1043
s 16
f 361/509/1044 362/510/1045 369/523/1046
f 369/523/1046 362/510/1045 370/524/1047
s 17
f 362/510/1048 363/511/1049 370/524/1050
f 370/524/1050 363/511/1049 371/525/1051
s 18
f 363/511/1052 360/508/1053 371/525/1054
f 371/525/1054 360/508/1053 368/522/1055
s 19
f 366/518/1056 365/516/1057 373/526/1058
f 373/526/1058 365/516/1057 372/527/1059
s 20
f 365/516/1060 362/517/1061 372/527/1062
f 372/527/1062 362/517/1061 374/528/1063
s 21
f 362/517/1064 361/509/1065 374/528/1066
f 374/528/1066 361/509/1065 375/529/1067
s 22
f 361/509/1068 366/518/1069 375/529/1070
f 375/529/1070 366/518/1069 373/526/1071
s 23
f 364/521/1072 367/519/1073 376/530/1074
f 376/530/1074 367/519/1073 377/531/1075
s 24
f 367/519/1076 360/508/1077 377/531/1078
f 377/531/1078 360/508/1077 378/532/1079
s 25
f 360/508/1080 363/520/1081 378/532/1082
f 378/532/1082 363/520/1081 379/533/1083
s 26
f 363/520/1084 364/521/1085 379/533/1086
f 379/533/1086 364/521/1085 376/530/1087
s 27
f 364/512/1088 365/513/1089 380/534/1090
f 380/534/1090 365/513/1089 381/535/1091
s 28
f 365/513/1092 366/514/1093 381/535/1094
f 381/535/1094 366/514/1093 382/536/1095
s 29
f 366/514/1096 367/515/1097 382/536/1098
f 382/536/1098 367/515/1097 383/537/1099
s 30
f 367/515/1100 364/512/1101 383/537/1102
f 383/537/1102 364/512/1101 380/534/1103
