# This file uses centimeters as units for non-parametric coordinates.

mtllib item_boomerang.mtl
g default
v 0.041087 0.006499 0.029804
v 0.010125 0.002668 -0.067026
v 0.115257 0.014404 -0.170962
v 0.149770 0.019244 -0.074552
v 0.289031 0.026864 -0.306105
v 0.325852 0.031584 -0.212148
v -0.004919 0.014343 -0.127899
v 0.093859 0.026951 -0.233102
v 0.261827 0.040928 -0.369269
v 0.201955 0.035682 0.065538
v 0.098562 0.019244 0.172690
v 0.287603 0.051302 0.272396
v 0.195042 0.031584 0.375465
v 0.371025 0.051302 -0.081871
v 0.427490 0.086083 0.116230
v 0.033214 0.014404 0.249407
v -0.020709 0.002668 0.106100
v -0.005390 0.026951 0.300657
v -0.052744 0.014343 0.157201
v 0.128660 0.026864 0.450002
v 0.084250 0.040928 0.500229
v -0.044344 0.000260 0.009891
v -0.052581 0.011512 -0.048141
v -0.068927 0.011512 0.059580
v -0.067071 0.018424 0.003617
v 0.041087 0.270357 0.029804
v 0.149770 0.289553 -0.074552
v 0.115257 0.261101 -0.170962
v 0.010125 0.241534 -0.067026
v 0.093859 0.220784 -0.233102
v -0.004919 0.201936 -0.127899
v 0.325852 0.299382 -0.212148
v 0.289031 0.273561 -0.306105
v 0.261827 0.234761 -0.369269
v -0.044344 0.215630 0.009891
v -0.020709 0.241534 0.106100
v -0.020709 0.241534 0.106100
v -0.044344 0.215630 0.009891
v -0.068927 0.180382 0.059580
v -0.052744 0.201936 0.157201
v 0.010125 0.241534 -0.067026
v -0.004919 0.201936 -0.127899
v -0.052581 0.180382 -0.048141
v -0.067071 0.162004 0.003617
v 0.033214 0.261101 0.249407
v 0.098562 0.289553 0.172690
v 0.128660 0.273561 0.450002
v 0.195041 0.299382 0.375465
v -0.052744 0.201936 0.157201
v -0.005390 0.220784 0.300657
v 0.084250 0.234761 0.500229
v 0.201955 0.306344 0.065538
v 0.371025 0.311919 -0.081871
v 0.287603 0.311919 0.272396
v 0.427490 0.307688 0.116230
v 1.592434 0.143784 -0.968431
v 1.545759 0.095713 -0.942559
v 1.458110 0.097049 -0.993456
v 1.498213 0.142015 -1.023919
v 1.292810 0.100074 -0.982560
v 1.321145 0.141814 -1.012830
v 1.406418 0.058554 -0.865320
v 1.332360 0.061479 -0.914306
v 1.235113 0.072824 -0.921482
v 1.592434 0.143784 -0.968431
v 1.498213 0.142015 -1.023919
v 1.458110 0.189071 -0.993456
v 1.545759 0.194587 -0.942558
v 1.545759 0.194587 -0.942558
v 1.458110 0.189071 -0.993456
v 1.332360 0.230349 -0.914306
v 1.406418 0.239905 -0.865320
v 1.498213 0.142015 -1.023919
v 1.321145 0.141814 -1.012830
v 1.292810 0.185243 -0.982560
v 1.235113 0.216404 -0.921482
v 1.545547 0.195823 -0.842959
v 1.593305 0.148285 -0.861198
v 1.450012 0.200435 -0.709271
v 1.491690 0.156645 -0.717811
v 1.410461 0.239030 -0.777525
v 1.545547 0.195823 -0.842959
v 1.365851 0.231838 -0.691716
v 1.450012 0.200435 -0.709271
v 1.593305 0.148285 -0.861198
v 1.545547 0.103801 -0.842959
v 1.410461 0.070160 -0.777525
v 1.491690 0.156645 -0.717811
v 1.450012 0.115266 -0.709271
v 1.365851 0.088258 -0.691716
v 0.514057 0.034652 0.952520
v 0.447462 0.034559 1.003331
v 0.276862 0.031447 0.718075
v 0.343017 0.034203 0.651962
v 0.392774 0.052980 1.043118
v 0.227288 0.047867 0.766195
v 0.422508 0.053686 0.569111
v 0.578338 0.051935 0.888440
v 0.499632 0.089235 0.500800
v 0.634265 0.084845 0.834521
v 0.726760 0.055149 1.163142
v 0.679728 0.040484 1.227478
v 0.850793 0.070160 1.371844
v 0.815685 0.058553 1.446158
v 0.764514 0.083905 1.106720
v 0.846830 0.088257 1.276109
v 0.610104 0.042609 1.255475
v 0.549757 0.061478 1.275558
v 0.739427 0.061478 1.454284
v 0.660014 0.072824 1.415912
v -0.078688 0.096104 0.194773
v -0.072146 0.048117 0.185970
v -0.028552 0.062673 0.331407
v -0.036273 0.112760 0.341657
v 0.057604 0.077560 0.530364
v 0.048722 0.127950 0.540410
v -0.052744 0.014343 0.157201
v -0.005390 0.026951 0.300657
v -0.028552 0.062673 0.331407
v 0.057604 0.077560 0.530364
v -0.028552 0.168400 0.331407
v -0.072146 0.150418 0.185971
v -0.005390 0.220784 0.300657
v 0.057604 0.183287 0.530364
v 0.084250 0.234761 0.500229
v -0.084397 0.132778 0.081833
v -0.089854 0.082881 0.086100
v -0.076665 0.124043 0.000402
v -0.081173 0.077128 -0.001205
v -0.084397 0.040756 0.081833
v -0.068927 0.011512 0.059580
v -0.076665 0.038874 0.000402
v -0.067071 0.018424 0.003617
v -0.018174 0.096104 -0.173952
v -0.014642 0.150418 -0.162911
v 0.081020 0.168400 -0.270387
v 0.076740 0.112760 -0.282815
v 0.245504 0.183287 -0.407167
v 0.240064 0.127950 -0.419800
v 0.093859 0.220784 -0.233102
v 0.081020 0.168400 -0.270387
v 0.245504 0.183287 -0.407167
v 0.081020 0.062673 -0.270387
v -0.014642 0.048117 -0.162911
v -0.014642 0.048117 -0.162911
v 0.081020 0.062673 -0.270387
v 0.245505 0.077560 -0.407167
v 0.245505 0.077560 -0.407167
v -0.060309 0.040756 -0.076914
v -0.064046 0.082881 -0.083986
v -0.004919 0.014343 -0.127899
v -0.052581 0.011512 -0.048141
v -0.060309 0.132778 -0.076914
v 1.011429 0.184793 -0.359716
v 1.278460 0.169988 -0.553860
v 1.251691 0.216080 -0.556110
v 0.995193 0.235705 -0.369957
v 0.995193 0.235705 -0.369957
v 1.251691 0.216080 -0.556110
v 1.211060 0.252775 -0.582877
v 0.962317 0.274816 -0.408790
v 0.725125 0.252260 -0.137297
v 0.748416 0.197535 -0.125750
v 0.545089 0.259770 0.144561
v 0.576735 0.203391 0.152255
v 0.678904 0.292584 -0.184359
v 0.725125 0.252260 -0.137297
v 0.545089 0.259770 0.144561
v 1.011429 0.184793 -0.359716
v 0.748416 0.197535 -0.125750
v 0.725125 0.140189 -0.137297
v 0.995193 0.131818 -0.369957
v 0.678904 0.089235 -0.184359
v 0.962317 0.084845 -0.408790
v 0.576735 0.203391 0.152255
v 0.545089 0.144527 0.144561
v 1.251692 0.124058 -0.556110
v 1.278460 0.169988 -0.553860
v 1.211060 0.083906 -0.582877
v 0.890130 0.291046 -0.573005
v 1.175098 0.271519 -0.737097
v 1.115521 0.257980 -0.798707
v 0.842805 0.273425 -0.651280
v 1.062259 0.230349 -0.848703
v 0.802793 0.240573 -0.714056
v 0.549428 0.278144 -0.476645
v 0.589843 0.300107 -0.388161
v 0.517060 0.241701 -0.541915
v 0.633406 0.306727 -0.279356
v 0.928631 0.292387 -0.484324
v 1.196236 0.270519 -0.654180
v 0.890130 0.034653 -0.573006
v 1.175098 0.040485 -0.737097
v 1.196236 0.055149 -0.654180
v 0.928631 0.051935 -0.484324
v 0.633406 0.053686 -0.279356
v 0.589843 0.034203 -0.388161
v 0.549428 0.031447 -0.476645
v 0.842805 0.034559 -0.651280
v 0.517060 0.047867 -0.541915
v 0.802793 0.052980 -0.714056
v 1.115521 0.042609 -0.798708
v 1.062259 0.061479 -0.848703
v 0.925015 0.143783 1.622011
v 0.897582 0.095712 1.577885
v 0.933451 0.103801 1.493174
v 0.964436 0.148285 1.531996
v 0.906689 0.115266 1.332376
v 0.936373 0.156644 1.360272
v 0.925015 0.143783 1.622011
v 0.964436 0.148285 1.531996
v 0.933451 0.195823 1.493174
v 0.897581 0.194587 1.577885
v 0.897581 0.194587 1.577885
v 0.933451 0.195823 1.493174
v 0.850793 0.239030 1.371844
v 0.815685 0.239905 1.446158
v 0.936373 0.156644 1.360272
v 0.906689 0.200435 1.332376
v 0.846830 0.231837 1.276109
v 0.850793 0.239030 1.371844
v 0.925015 0.143783 1.622011
v 0.810073 0.189071 1.579537
v 0.830727 0.142015 1.623774
v 0.683531 0.185242 1.493751
v 0.694996 0.141814 1.532043
v 0.739427 0.230348 1.454284
v 0.660014 0.216404 1.415912
v 0.830727 0.142015 1.623774
v 0.810073 0.097049 1.579537
v 0.694996 0.141814 1.532043
v 0.683531 0.100073 1.493751
v 0.692972 0.184792 0.812426
v 0.675802 0.131818 0.814193
v 0.558689 0.140189 0.478308
v 0.583701 0.197535 0.478516
v 0.583701 0.197535 0.478516
v 0.558689 0.140189 0.478308
v 0.675802 0.131818 0.814193
v 0.558689 0.252260 0.478308
v 0.675802 0.235705 0.814193
v 0.499632 0.292584 0.500800
v 0.634265 0.274816 0.834521
v 0.558689 0.252260 0.478308
v 0.499632 0.292584 0.500800
v 0.806304 0.216079 1.102466
v 0.828207 0.169988 1.113380
v 0.764514 0.252775 1.106720
v 0.806304 0.124057 1.102466
v 0.806304 0.124057 1.102466
v 0.906689 0.115266 1.332376
v 0.514057 0.291046 0.952520
v 0.578338 0.292386 0.888440
v 0.422508 0.306727 0.569111
v 0.343017 0.300107 0.651962
v 0.634265 0.274816 0.834521
v 0.276862 0.278144 0.718075
v 0.447462 0.273424 1.003331
v 0.227288 0.241700 0.766195
v 0.392774 0.240572 1.043118
v 0.610103 0.257979 1.255475
v 0.679728 0.271518 1.227478
v 0.549757 0.230348 1.275558
v 0.726760 0.270519 1.163142
v 0.764514 0.252775 1.106720
v 0.846830 0.231837 1.276109
v 0.356465 0.140906 1.087435
v 0.364214 0.193541 1.074126
v 0.197544 0.191640 0.795067
v 0.187629 0.136774 0.804691
v 0.364214 0.193541 1.074126
v 0.197544 0.191640 0.795067
v 0.227288 0.241700 0.766195
v 0.197544 0.085913 0.795067
v 0.364214 0.091240 1.074126
v 0.364214 0.091240 1.074126
v 0.197544 0.085913 0.795067
v 0.530560 0.097049 1.316151
v 0.531249 0.142015 1.341575
v 0.683531 0.100073 1.493751
v 0.694996 0.141814 1.532043
v 0.530560 0.097049 1.316151
v 0.530560 0.189071 1.316151
v 0.530560 0.189071 1.316151
v 0.683531 0.185242 1.493751
v 0.783804 0.140906 -0.772185
v 1.071736 0.142015 -0.920335
v 1.060066 0.097049 -0.896778
v 0.786226 0.091241 -0.756241
v 0.786226 0.091241 -0.756241
v 1.060066 0.097049 -0.896778
v 1.321145 0.141814 -1.012830
v 1.292810 0.100074 -0.982560
v 0.497639 0.085913 -0.581078
v 0.491166 0.136775 -0.594132
v 0.497639 0.085913 -0.581078
v 0.497639 0.191641 -0.581078
v 0.786226 0.193542 -0.756241
v 0.786226 0.193542 -0.756241
v 0.497639 0.191641 -0.581078
v 1.060066 0.189071 -0.896778
v 1.292810 0.185243 -0.982560
v 1.060066 0.189071 -0.896778
vt 0.016130 0.745160
vt 0.008300 0.760850
vt 0.019210 0.784120
vt 0.027540 0.768670
vt 0.038470 0.816150
vt 0.047020 0.801240
vt 0.004220 0.770850
vt 0.014230 0.794050
vt 0.032680 0.825970
vt 0.040080 0.746260
vt 0.029430 0.722520
vt 0.059630 0.713630
vt 0.050270 0.691130
vt 0.058290 0.780230
vt 0.073830 0.747670
vt 0.023130 0.705900
vt 0.010320 0.728770
vt 0.019880 0.694950
vt 0.007950 0.718160
vt 0.043750 0.674850
vt 0.039690 0.663800
vt 0.003540 0.744690
vt 0.000490 0.754510
vt 0.002140 0.734680
vt 0.000490 0.744630
vt 0.214520 0.752700
vt 0.226140 0.729320
vt 0.217620 0.713700
vt 0.206470 0.736850
vt 0.211970 0.703540
vt 0.201750 0.726630
vt 0.245820 0.696960
vt 0.237100 0.681890
vt 0.230630 0.671820
vt 0.201300 0.752900
vt 0.208280 0.768960
vt 0.425700 0.760160
vt 0.421990 0.743290
vt 0.416780 0.752870
vt 0.419830 0.770180
vt 0.426030 0.727980
vt 0.420350 0.717260
vt 0.416970 0.732920
vt 0.414220 0.742640
vt 0.221030 0.792000
vt 0.227730 0.775500
vt 0.241450 0.823310
vt 0.248340 0.807140
vt 0.205150 0.779380
vt 0.216980 0.802740
vt 0.236580 0.834130
vt 0.238500 0.751850
vt 0.256810 0.718060
vt 0.257700 0.784700
vt 0.271530 0.750650
vt 0.196010 0.994130
vt 0.189700 0.987590
vt 0.175810 0.992460
vt 0.180990 0.999510
vt 0.153480 0.982730
vt 0.157000 0.989210
vt 0.172670 0.967550
vt 0.160750 0.972720
vt 0.147290 0.969350
vt 0.502290 0.552020
vt 0.493610 0.540590
vt 0.485530 0.547410
vt 0.493150 0.558090
vt 0.387800 0.511930
vt 0.373810 0.506850
vt 0.359690 0.526680
vt 0.371780 0.532040
vt 0.377710 0.499510
vt 0.353570 0.509490
vt 0.351250 0.516250
vt 0.345790 0.529770
vt 0.495120 0.575760
vt 0.504140 0.571210
vt 0.489650 0.598060
vt 0.497950 0.595300
vt 0.375420 0.547440
vt 0.391290 0.529610
vt 0.372160 0.564660
vt 0.382810 0.557670
vt 0.200080 0.975170
vt 0.193410 0.969920
vt 0.176600 0.952150
vt 0.191420 0.944980
vt 0.185290 0.941720
vt 0.173870 0.934780
vt 0.115150 0.604070
vt 0.107810 0.591940
vt 0.073940 0.634380
vt 0.080710 0.649180
vt 0.102030 0.582230
vt 0.069130 0.623450
vt 0.088990 0.667480
vt 0.121980 0.618340
vt 0.097740 0.683020
vt 0.128290 0.630350
vt 0.152420 0.576720
vt 0.148020 0.563200
vt 0.177310 0.545570
vt 0.174970 0.530830
vt 0.156060 0.588340
vt 0.173600 0.562230
vt 0.139480 0.554960
vt 0.132210 0.548470
vt 0.164810 0.525790
vt 0.152670 0.528780
vt 0.404500 0.777440
vt 0.397660 0.775560
vt 0.399770 0.800800
vt 0.406900 0.802970
vt 0.402040 0.834620
vt 0.409220 0.836790
vt 0.392930 0.769760
vt 0.394780 0.794540
vt 0.018410 0.688240
vt 0.037730 0.657030
vt 0.414920 0.801040
vt 0.412330 0.775790
vt 0.422570 0.794970
vt 0.417200 0.834860
vt 0.424720 0.828810
vt 0.409860 0.757200
vt 0.402680 0.758010
vt 0.408740 0.742220
vt 0.401990 0.741940
vt 0.396670 0.757000
vt 0.392570 0.752490
vt 0.396530 0.742030
vt 0.393630 0.742320
vt 0.405180 0.709020
vt 0.412970 0.711050
vt 0.416070 0.689100
vt 0.408090 0.686840
vt 0.419060 0.660020
vt 0.411120 0.657750
vt 0.423600 0.695630
vt 0.208230 0.697380
vt 0.226390 0.665710
vt 0.400920 0.688860
vt 0.398300 0.710830
vt 0.002190 0.776410
vt 0.011720 0.799860
vt 0.403910 0.659780
vt 0.029680 0.831730
vt 0.396960 0.727600
vt 0.402990 0.726510
vt 0.393460 0.716840
vt 0.392760 0.732540
vt 0.410150 0.727800
vt 0.463140 0.652070
vt 0.482500 0.621420
vt 0.474930 0.622620
vt 0.455690 0.652250
vt 0.332180 0.638530
vt 0.360920 0.593850
vt 0.354810 0.591030
vt 0.326750 0.633220
vt 0.436710 0.689750
vt 0.445200 0.689750
vt 0.427180 0.737020
vt 0.436460 0.736400
vt 0.295600 0.685910
vt 0.303160 0.692070
vt 0.288220 0.750240
vt 0.138710 0.858870
vt 0.111170 0.805030
vt 0.106570 0.806260
vt 0.135200 0.860180
vt 0.097630 0.812670
vt 0.128470 0.865740
vt 0.097680 0.747730
vt 0.092050 0.747900
vt 0.163660 0.905240
vt 0.168210 0.905870
vt 0.156420 0.908260
vt 0.311190 0.607390
vt 0.344650 0.565340
vt 0.334060 0.557070
vt 0.301660 0.595600
vt 0.324590 0.550530
vt 0.293510 0.586190
vt 0.267230 0.639860
vt 0.276200 0.653790
vt 0.260000 0.629660
vt 0.286140 0.671140
vt 0.319650 0.621390
vt 0.350470 0.579090
vt 0.111730 0.891640
vt 0.145140 0.934070
vt 0.151310 0.920320
vt 0.120540 0.877680
vt 0.087330 0.827510
vt 0.077060 0.844800
vt 0.068240 0.858560
vt 0.102380 0.903260
vt 0.061700 0.868500
vt 0.094910 0.912390
vt 0.134740 0.942150
vt 0.125920 0.948390
vt 0.197840 0.504440
vt 0.191640 0.511200
vt 0.193660 0.527830
vt 0.200080 0.522200
vt 0.184340 0.554960
vt 0.190150 0.551210
vt 0.503380 0.999510
vt 0.504140 0.984430
vt 0.495270 0.979160
vt 0.494300 0.993510
vt 0.386570 0.988470
vt 0.388580 0.971820
vt 0.373410 0.954140
vt 0.371170 0.968920
vt 0.497200 0.953950
vt 0.489100 0.950470
vt 0.479360 0.940930
vt 0.480900 0.958250
vt 0.391290 0.994940
vt 0.374440 0.992710
vt 0.378270 0.999510
vt 0.353860 0.983200
vt 0.356250 0.989370
vt 0.360770 0.973780
vt 0.348250 0.970530
vt 0.184880 0.499700
vt 0.179670 0.506780
vt 0.162860 0.509530
vt 0.159190 0.515980
vt 0.462290 0.854290
vt 0.467060 0.851970
vt 0.449310 0.791000
vt 0.444710 0.793980
vt 0.110350 0.690380
vt 0.105930 0.689520
vt 0.134070 0.635670
vt 0.436320 0.795960
vt 0.455020 0.856570
vt 0.427310 0.800760
vt 0.447530 0.861220
vt 0.301730 0.808830
vt 0.294840 0.815590
vt 0.474150 0.908840
vt 0.481510 0.909090
vt 0.466570 0.910540
vt 0.484810 0.904770
vt 0.162350 0.590860
vt 0.498970 0.946700
vt 0.312690 0.895090
vt 0.319360 0.880820
vt 0.286740 0.831240
vt 0.278560 0.849520
vt 0.324990 0.868680
vt 0.271440 0.864180
vt 0.305030 0.907070
vt 0.265820 0.874880
vt 0.298450 0.916530
vt 0.336220 0.944420
vt 0.345050 0.936340
vt 0.328230 0.950650
vt 0.349290 0.922790
vt 0.352320 0.911030
vt 0.369410 0.937310
vt 0.411760 0.927850
vt 0.419350 0.925350
vt 0.418690 0.879160
vt 0.410770 0.881040
vt 0.295000 0.923210
vt 0.262090 0.881220
vt 0.426030 0.873260
vt 0.403530 0.878930
vt 0.404690 0.925120
vt 0.099870 0.575210
vt 0.066730 0.616750
vt 0.405950 0.964620
vt 0.412370 0.969310
vt 0.406840 0.992780
vt 0.412830 0.999510
vt 0.131640 0.540200
vt 0.419150 0.964820
vt 0.326480 0.958620
vt 0.419050 0.992970
vt 0.415690 0.579610
vt 0.417250 0.545180
vt 0.410720 0.549660
vt 0.408570 0.582320
vt 0.091750 0.918880
vt 0.124480 0.956610
vt 0.418380 0.521860
vt 0.412240 0.528000
vt 0.406380 0.621650
vt 0.413650 0.619570
vt 0.058250 0.874320
vt 0.421530 0.621880
vt 0.423230 0.582550
vt 0.289150 0.579340
vt 0.255310 0.623460
vt 0.423920 0.549870
vt 0.424450 0.528190
vt 0.322080 0.542000
vn 0.117588 -0.992801 0.022802
vn -0.028140 -0.996286 -0.081376
vn 0.013536 -0.996163 -0.086463
vn 0.117588 -0.992801 0.022802
vn 0.013536 -0.996163 -0.086463
vn 0.129577 -0.990939 0.035360
vn 0.129577 -0.990939 0.035360
vn 0.013536 -0.996163 -0.086463
vn -0.016220 -0.996402 -0.083183
vn 0.129577 -0.990939 0.035360
vn -0.016220 -0.996402 -0.083183
vn 0.089544 -0.993953 0.063563
vn -0.028140 -0.996286 -0.081376
vn -0.387650 -0.856670 -0.340358
vn -0.274955 -0.882054 -0.382598
vn -0.028140 -0.996286 -0.081376
vn -0.274955 -0.882054 -0.382598
vn 0.013536 -0.996163 -0.086463
vn 0.013536 -0.996163 -0.086463
vn -0.274955 -0.882054 -0.382598
vn -0.245375 -0.887802 -0.389358
vn 0.013536 -0.996163 -0.086463
vn -0.245375 -0.887802 -0.389358
vn -0.016220 -0.996402 -0.083183
vn 0.117588 -0.992801 0.022802
vn 0.129577 -0.990939 0.035360
vn 0.177084 -0.983396 0.039671
vn 0.117588 -0.992801 0.022802
vn 0.177084 -0.983396 0.039671
vn 0.138860 -0.990112 0.019909
vn 0.138860 -0.990112 0.019909
vn 0.177084 -0.983396 0.039671
vn 0.197972 -0.979825 -0.027392
vn 0.138860 -0.990112 0.019909
vn 0.197972 -0.979825 -0.027392
vn 0.116571 -0.993004 -0.018811
vn 0.129577 -0.990939 0.035360
vn 0.089544 -0.993953 0.063563
vn 0.157100 -0.981272 0.111465
vn 0.129577 -0.990939 0.035360
vn 0.157100 -0.981272 0.111465
vn 0.177084 -0.983396 0.039671
vn 0.177084 -0.983396 0.039671
vn 0.157100 -0.981272 0.111465
vn 0.313530 -0.946215 0.079852
vn 0.177084 -0.983396 0.039671
vn 0.313530 -0.946215 0.079852
vn 0.197972 -0.979825 -0.027392
vn 0.117588 -0.992801 0.022802
vn 0.138860 -0.990112 0.019909
vn -0.025927 -0.996319 0.081703
vn 0.117588 -0.992801 0.022802
vn -0.025927 -0.996319 0.081703
vn -0.066572 -0.995693 0.064532
vn -0.066572 -0.995693 0.064532
vn -0.025927 -0.996319 0.081703
vn -0.438161 -0.869038 0.229755
vn -0.066572 -0.995693 0.064532
vn -0.438161 -0.869038 0.229755
vn -0.516406 -0.839937 0.166824
vn 0.138860 -0.990112 0.019909
vn 0.116571 -0.993004 -0.018811
vn -0.053556 -0.996333 0.066727
vn 0.138860 -0.990112 0.019909
vn -0.053556 -0.996333 0.066727
vn -0.025927 -0.996319 0.081703
vn -0.025927 -0.996319 0.081703
vn -0.053556 -0.996333 0.066727
vn -0.416725 -0.876152 0.242276
vn -0.025927 -0.996319 0.081703
vn -0.416725 -0.876152 0.242276
vn -0.438161 -0.869038 0.229755
vn 0.117588 -0.992801 0.022802
vn -0.066572 -0.995693 0.064532
vn -0.278083 -0.959571 -0.043518
vn 0.117588 -0.992801 0.022802
vn -0.278083 -0.959571 -0.043518
vn -0.028140 -0.996286 -0.081376
vn -0.028140 -0.996286 -0.081376
vn -0.278083 -0.959571 -0.043518
vn -0.592983 -0.773269 -0.224557
vn -0.028140 -0.996286 -0.081376
vn -0.592983 -0.773269 -0.224557
vn -0.387650 -0.856670 -0.340358
vn -0.066572 -0.995693 0.064532
vn -0.516406 -0.839937 0.166824
vn -0.648286 -0.761039 0.023348
vn -0.066572 -0.995693 0.064532
vn -0.648286 -0.761039 0.023348
vn -0.278083 -0.959571 -0.043518
vn -0.278083 -0.959571 -0.043518
vn -0.648286 -0.761039 0.023348
vn -0.786243 -0.606476 -0.118357
vn -0.278083 -0.959571 -0.043518
vn -0.786243 -0.606476 -0.118357
vn -0.592983 -0.773269 -0.224557
vn -0.368147 0.927093 -0.070468
vn -0.216122 0.968942 -0.120177
vn -0.363446 0.887983 -0.281767
vn -0.368147 0.927093 -0.070468
vn -0.363446 0.887983 -0.281767
vn -0.531072 0.816266 -0.227313
vn -0.531072 0.816266 -0.227313
vn -0.363446 0.887983 -0.281767
vn -0.535550 0.695339 -0.479260
vn -0.531072 0.816266 -0.227313
vn -0.535550 0.695339 -0.479260
vn -0.693715 0.602125 -0.395228
vn -0.216122 0.968942 -0.120177
vn -0.124417 0.983270 -0.133040
vn -0.254145 0.920828 -0.295779
vn -0.216122 0.968942 -0.120177
vn -0.254145 0.920828 -0.295779
vn -0.363446 0.887983 -0.281767
vn -0.363446 0.887983 -0.281767
vn -0.254145 0.920828 -0.295779
vn -0.418896 0.749982 -0.511912
vn -0.363446 0.887983 -0.281767
vn -0.418896 0.749982 -0.511912
vn -0.535550 0.695339 -0.479260
vn -0.368147 0.927093 -0.070468
vn -0.531072 0.816266 -0.227313
vn -0.743474 0.657255 -0.123540
vn -0.368147 0.927093 -0.070468
vn -0.743474 0.657255 -0.123540
vn -0.602369 0.797957 0.020411
vn -0.602456 0.797890 0.020442
vn -0.743522 0.657202 -0.123537
vn -0.900928 0.432482 -0.035880
vn -0.602456 0.797890 0.020442
vn -0.900928 0.432482 -0.035880
vn -0.817470 0.565361 0.110047
vn -0.531128 0.816227 -0.227323
vn -0.693758 0.602066 -0.395241
vn -0.855088 0.453068 -0.252100
vn -0.531128 0.816227 -0.227323
vn -0.855088 0.453068 -0.252100
vn -0.743522 0.657202 -0.123537
vn -0.743522 0.657202 -0.123537
vn -0.855088 0.453068 -0.252100
vn -0.938943 0.313270 -0.142296
vn -0.743522 0.657202 -0.123537
vn -0.938943 0.313270 -0.142296
vn -0.900928 0.432482 -0.035880
vn -0.368147 0.927093 -0.070468
vn -0.602369 0.797957 0.020411
vn -0.478498 0.870872 0.112348
vn -0.368147 0.927093 -0.070468
vn -0.478498 0.870872 0.112348
vn -0.257564 0.966003 0.022326
vn -0.257564 0.966003 0.022326
vn -0.478498 0.870872 0.112348
vn -0.384959 0.909171 0.158791
vn -0.257564 0.966003 0.022326
vn -0.384959 0.909171 0.158791
vn -0.180790 0.981321 0.065766
vn -0.602369 0.797957 0.020411
vn -0.817413 0.565443 0.110049
vn -0.718697 0.661094 0.215473
vn -0.602369 0.797957 0.020411
vn -0.718697 0.661094 0.215473
vn -0.478498 0.870872 0.112348
vn -0.478498 0.870872 0.112348
vn -0.718697 0.661094 0.215473
vn -0.631856 0.723499 0.278042
vn -0.478498 0.870872 0.112348
vn -0.631856 0.723499 0.278042
vn -0.384959 0.909171 0.158791
vn -0.368147 0.927093 -0.070468
vn -0.257564 0.966003 0.022326
vn -0.112317 0.993373 -0.024375
vn -0.368147 0.927093 -0.070468
vn -0.112317 0.993373 -0.024375
vn -0.216122 0.968942 -0.120177
vn -0.216122 0.968942 -0.120177
vn -0.112317 0.993373 -0.024375
vn -0.017558 0.999553 -0.024213
vn -0.216122 0.968942 -0.120177
vn -0.017558 0.999553 -0.024213
vn -0.124417 0.983270 -0.133040
vn -0.257564 0.966003 0.022326
vn -0.180790 0.981321 0.065766
vn -0.026705 0.999538 0.014549
vn -0.257564 0.966003 0.022326
vn -0.026705 0.999538 0.014549
vn -0.112317 0.993373 -0.024375
vn -0.112317 0.993373 -0.024375
vn -0.026705 0.999538 0.014549
vn 0.175318 0.983481 0.045051
vn -0.112317 0.993373 -0.024375
vn 0.175318 0.983481 0.045051
vn -0.017558 0.999553 -0.024213
vn 0.868094 -0.016721 -0.496118
vn 0.450882 -0.862607 -0.229378
vn 0.096612 -0.797942 -0.594941
vn 0.868094 -0.016721 -0.496118
vn 0.096612 -0.797942 -0.594941
vn 0.298073 -0.017601 -0.954381
vn 0.298073 -0.017601 -0.954381
vn 0.096612 -0.797942 -0.594941
vn -0.172138 -0.672227 -0.720055
vn 0.298073 -0.017601 -0.954381
vn -0.172138 -0.672227 -0.720055
vn -0.158641 -0.009642 -0.987289
vn 0.450882 -0.862607 -0.229378
vn 0.168809 -0.984802 -0.040853
vn 0.006088 -0.957396 -0.288715
vn 0.450882 -0.862607 -0.229378
vn 0.006088 -0.957396 -0.288715
vn 0.096612 -0.797942 -0.594941
vn 0.096612 -0.797942 -0.594941
vn 0.006088 -0.957396 -0.288715
vn -0.122032 -0.887715 -0.443926
vn 0.096612 -0.797942 -0.594941
vn -0.122032 -0.887715 -0.443926
vn -0.172138 -0.672227 -0.720055
vn 0.868155 -0.016808 -0.496009
vn 0.298049 -0.017713 -0.954386
vn 0.090123 0.766177 -0.636279
vn 0.868155 -0.016808 -0.496009
vn 0.090123 0.766177 -0.636279
vn 0.450812 0.843063 -0.293281
vn 0.450715 0.843127 -0.293244
vn 0.090080 0.766190 -0.636270
vn -0.009208 0.925608 -0.378371
vn 0.450715 0.843127 -0.293244
vn -0.009208 0.925608 -0.378371
vn 0.163133 0.975157 -0.149857
vn 0.298096 -0.017721 -0.954371
vn -0.158695 -0.009676 -0.987280
vn -0.176840 0.642198 -0.745861
vn 0.298096 -0.017721 -0.954371
vn -0.176840 0.642198 -0.745861
vn 0.090080 0.766190 -0.636270
vn 0.090080 0.766190 -0.636270
vn -0.176840 0.642198 -0.745861
vn -0.139337 0.845822 -0.514946
vn 0.090080 0.766190 -0.636270
vn -0.139337 0.845822 -0.514946
vn -0.009208 0.925608 -0.378371
vn 0.868155 -0.016808 -0.496009
vn 0.450812 0.843063 -0.293281
vn 0.579656 0.789382 0.202177
vn 0.868155 -0.016808 -0.496009
vn 0.579656 0.789382 0.202177
vn 0.972314 -0.000439 0.233677
vn 0.972314 -0.000439 0.233677
vn 0.579656 0.789382 0.202177
vn 0.542912 0.669696 0.506708
vn 0.972314 -0.000439 0.233677
vn 0.542912 0.669696 0.506708
vn 0.755543 0.006334 0.655069
vn 0.450715 0.843127 -0.293244
vn 0.163133 0.975157 -0.149857
vn 0.285754 0.950862 0.119191
vn 0.450715 0.843127 -0.293244
vn 0.285754 0.950862 0.119191
vn 0.579590 0.789435 0.202160
vn 0.579590 0.789435 0.202160
vn 0.285754 0.950862 0.119191
vn 0.347452 0.883715 0.313568
vn 0.579590 0.789435 0.202160
vn 0.347452 0.883715 0.313568
vn 0.542875 0.669785 0.506631
vn 0.868094 -0.016721 -0.496118
vn 0.972326 -0.000349 0.233627
vn 0.559111 -0.782999 0.272595
vn 0.868094 -0.016721 -0.496118
vn 0.559111 -0.782999 0.272595
vn 0.450882 -0.862607 -0.229378
vn 0.450882 -0.862607 -0.229378
vn 0.559111 -0.782999 0.272595
vn 0.274372 -0.933811 0.229601
vn 0.450882 -0.862607 -0.229378
vn 0.274372 -0.933811 0.229601
vn 0.168809 -0.984802 -0.040853
vn 0.972326 -0.000349 0.233627
vn 0.755515 0.006308 0.655101
vn 0.511356 -0.650279 0.561829
vn 0.972326 -0.000349 0.233627
vn 0.511356 -0.650279 0.561829
vn 0.559111 -0.782999 0.272595
vn 0.559111 -0.782999 0.272595
vn 0.511356 -0.650279 0.561829
vn 0.324710 -0.851037 0.412674
vn 0.559111 -0.782999 0.272595
vn 0.324710 -0.851037 0.412674
vn 0.274372 -0.933811 0.229601
vn 0.090947 -0.995111 -0.038515
vn -0.104211 -0.990851 0.085760
vn -0.085336 -0.994394 0.062432
vn 0.090947 -0.995111 -0.038515
vn -0.085336 -0.994394 0.062432
vn 0.095543 -0.994473 -0.043522
vn 0.095543 -0.994473 -0.043522
vn -0.085336 -0.994394 0.062432
vn -0.053556 -0.996333 0.066727
vn 0.095543 -0.994473 -0.043522
vn -0.053556 -0.996333 0.066727
vn 0.116571 -0.993004 -0.018811
vn -0.104211 -0.990851 0.085760
vn -0.404136 -0.871844 0.276698
vn -0.412104 -0.875954 0.250748
vn -0.104211 -0.990851 0.085760
vn -0.412104 -0.875954 0.250748
vn -0.085336 -0.994394 0.062432
vn -0.085336 -0.994394 0.062432
vn -0.412104 -0.875954 0.250748
vn -0.416725 -0.876152 0.242276
vn -0.085336 -0.994394 0.062432
vn -0.416725 -0.876152 0.242276
vn -0.053556 -0.996333 0.066727
vn 0.090947 -0.995111 -0.038515
vn 0.095543 -0.994473 -0.043522
vn 0.226953 -0.969019 -0.097438
vn 0.090947 -0.995111 -0.038515
vn 0.226953 -0.969019 -0.097438
vn 0.264337 -0.955428 -0.131464
vn 0.264337 -0.955428 -0.131464
vn 0.226953 -0.969019 -0.097438
vn 0.427343 -0.894537 -0.131076
vn 0.264337 -0.955428 -0.131464
vn 0.427343 -0.894537 -0.131076
vn 0.496830 -0.837596 -0.227141
vn 0.095543 -0.994473 -0.043522
vn 0.116571 -0.993004 -0.018811
vn 0.197972 -0.979825 -0.027392
vn 0.095543 -0.994473 -0.043522
vn 0.197972 -0.979825 -0.027392
vn 0.226953 -0.969019 -0.097438
vn 0.226953 -0.969019 -0.097438
vn 0.197972 -0.979825 -0.027392
vn 0.313530 -0.946215 0.079852
vn 0.226953 -0.969019 -0.097438
vn 0.313530 -0.946215 0.079852
vn 0.427343 -0.894537 -0.131076
vn 0.090947 -0.995111 -0.038515
vn 0.264337 -0.955428 -0.131464
vn 0.298440 -0.945544 -0.129927
vn 0.090947 -0.995111 -0.038515
vn 0.298440 -0.945544 -0.129927
vn 0.098688 -0.995117 -0.001505
vn 0.098688 -0.995117 -0.001505
vn 0.298440 -0.945544 -0.129927
vn 0.393481 -0.914598 -0.093187
vn 0.098688 -0.995117 -0.001505
vn 0.393481 -0.914598 -0.093187
vn 0.149392 -0.982421 0.111940
vn 0.264337 -0.955428 -0.131464
vn 0.496830 -0.837596 -0.227141
vn 0.519590 -0.817707 -0.247755
vn 0.264337 -0.955428 -0.131464
vn 0.519590 -0.817707 -0.247755
vn 0.298440 -0.945544 -0.129927
vn 0.298440 -0.945544 -0.129927
vn 0.519590 -0.817707 -0.247755
vn 0.530903 -0.815855 -0.229180
vn 0.298440 -0.945544 -0.129927
vn 0.530903 -0.815855 -0.229180
vn 0.393481 -0.914598 -0.093187
vn 0.090947 -0.995111 -0.038515
vn 0.098688 -0.995117 -0.001505
vn -0.117621 -0.983278 0.139033
vn 0.090947 -0.995111 -0.038515
vn -0.117621 -0.983278 0.139033
vn -0.104211 -0.990851 0.085760
vn -0.104211 -0.990851 0.085760
vn -0.117621 -0.983278 0.139033
vn -0.383372 -0.868143 0.315204
vn -0.104211 -0.990851 0.085760
vn -0.383372 -0.868143 0.315204
vn -0.404136 -0.871844 0.276698
vn 0.098688 -0.995117 -0.001505
vn 0.149392 -0.982421 0.111940
vn -0.149643 -0.950640 0.271830
vn 0.098688 -0.995117 -0.001505
vn -0.149643 -0.950640 0.271830
vn -0.117621 -0.983278 0.139033
vn -0.117621 -0.983278 0.139033
vn -0.149643 -0.950640 0.271830
vn -0.352499 -0.866379 0.353739
vn -0.117621 -0.983278 0.139033
vn -0.352499 -0.866379 0.353739
vn -0.383372 -0.868143 0.315204
vn -0.978966 -0.013376 0.203586
vn -0.881951 -0.413625 0.226003
vn -0.818481 -0.463052 0.340104
vn -0.978966 -0.013376 0.203586
vn -0.818481 -0.463052 0.340104
vn -0.938856 -0.010959 0.344137
vn -0.938856 -0.010959 0.344137
vn -0.818481 -0.463052 0.340104
vn -0.775345 -0.490592 0.397694
vn -0.938856 -0.010959 0.344137
vn -0.775345 -0.490592 0.397694
vn -0.901123 -0.008509 0.433480
vn -0.881951 -0.413625 0.226003
vn -0.516499 -0.839882 0.166813
vn -0.438241 -0.868993 0.229773
vn -0.881951 -0.413625 0.226003
vn -0.438241 -0.868993 0.229773
vn -0.818481 -0.463052 0.340104
vn -0.818454 -0.463113 0.340087
vn -0.438161 -0.869038 0.229755
vn -0.416725 -0.876152 0.242276
vn -0.818454 -0.463113 0.340087
vn -0.416725 -0.876152 0.242276
vn -0.775314 -0.490666 0.397661
vn -0.978966 -0.013376 0.203586
vn -0.938856 -0.010959 0.344137
vn -0.885757 0.358227 0.295140
vn -0.978966 -0.013376 0.203586
vn -0.885757 0.358227 0.295140
vn -0.942726 0.290124 0.164607
vn -0.942726 0.290124 0.164607
vn -0.885757 0.358227 0.295140
vn -0.718763 0.661022 0.215477
vn -0.942726 0.290124 0.164607
vn -0.718763 0.661022 0.215477
vn -0.817470 0.565361 0.110047
vn -0.938856 -0.010959 0.344137
vn -0.901123 -0.008509 0.433480
vn -0.830044 0.407155 0.381119
vn -0.938856 -0.010959 0.344137
vn -0.830044 0.407155 0.381119
vn -0.885757 0.358227 0.295140
vn -0.885757 0.358227 0.295140
vn -0.830044 0.407155 0.381119
vn -0.631911 0.723452 0.278039
vn -0.885757 0.358227 0.295140
vn -0.631911 0.723452 0.278039
vn -0.718763 0.661022 0.215477
vn -0.978966 -0.013376 0.203586
vn -0.942726 0.290124 0.164607
vn -0.976888 0.213621 -0.007502
vn -0.978966 -0.013376 0.203586
vn -0.976888 0.213621 -0.007502
vn -0.999839 -0.014137 0.011031
vn -0.999839 -0.014137 0.011031
vn -0.976888 0.213621 -0.007502
vn -0.973700 0.172868 -0.148409
vn -0.999839 -0.014137 0.011031
vn -0.973700 0.172868 -0.148409
vn -0.988306 -0.015492 -0.151696
vn -0.942726 0.290124 0.164607
vn -0.817470 0.565361 0.110047
vn -0.900928 0.432482 -0.035880
vn -0.942726 0.290124 0.164607
vn -0.900928 0.432482 -0.035880
vn -0.976888 0.213621 -0.007502
vn -0.976888 0.213621 -0.007502
vn -0.900928 0.432482 -0.035880
vn -0.938943 0.313270 -0.142296
vn -0.976888 0.213621 -0.007502
vn -0.938943 0.313270 -0.142296
vn -0.973700 0.172868 -0.148409
vn -0.978966 -0.013376 0.203586
vn -0.999839 -0.014137 0.011031
vn -0.940625 -0.336768 0.042562
vn -0.978966 -0.013376 0.203586
vn -0.940625 -0.336768 0.042562
vn -0.881951 -0.413625 0.226003
vn -0.881951 -0.413625 0.226003
vn -0.940625 -0.336768 0.042562
vn -0.648336 -0.760998 0.023295
vn -0.881951 -0.413625 0.226003
vn -0.648336 -0.760998 0.023295
vn -0.516499 -0.839882 0.166813
vn -0.999839 -0.014137 0.011031
vn -0.988306 -0.015492 -0.151696
vn -0.949022 -0.279355 -0.146008
vn -0.999839 -0.014137 0.011031
vn -0.949022 -0.279355 -0.146008
vn -0.940625 -0.336768 0.042562
vn -0.940625 -0.336768 0.042562
vn -0.949022 -0.279355 -0.146008
vn -0.786298 -0.606403 -0.118368
vn -0.940625 -0.336768 0.042562
vn -0.786298 -0.606403 -0.118368
vn -0.648336 -0.760998 0.023295
vn -0.819414 -0.014868 -0.573009
vn -0.798032 0.318435 -0.511609
vn -0.662624 0.388008 -0.640608
vn -0.819414 -0.014868 -0.573009
vn -0.662624 0.388008 -0.640608
vn -0.694066 -0.011145 -0.719825
vn -0.694066 -0.011145 -0.719825
vn -0.662624 0.388008 -0.640608
vn -0.558355 0.433486 -0.707340
vn -0.694066 -0.011145 -0.719825
vn -0.558355 0.433486 -0.707340
vn -0.604135 -0.008610 -0.796836
vn -0.798032 0.318435 -0.511609
vn -0.693758 0.602066 -0.395241
vn -0.535576 0.695312 -0.479270
vn -0.798032 0.318435 -0.511609
vn -0.535576 0.695312 -0.479270
vn -0.662624 0.388008 -0.640608
vn -0.662596 0.388083 -0.640592
vn -0.535550 0.695339 -0.479260
vn -0.418896 0.749982 -0.511912
vn -0.662596 0.388083 -0.640592
vn -0.418896 0.749982 -0.511912
vn -0.558334 0.433560 -0.707311
vn -0.819414 -0.014868 -0.573009
vn -0.694066 -0.011145 -0.719825
vn -0.575476 -0.489702 -0.654996
vn -0.819414 -0.014868 -0.573009
vn -0.575476 -0.489702 -0.654996
vn -0.708061 -0.444339 -0.548828
vn -0.708034 -0.444414 -0.548802
vn -0.575429 -0.489789 -0.654972
vn -0.274955 -0.882054 -0.382598
vn -0.708034 -0.444414 -0.548802
vn -0.274955 -0.882054 -0.382598
vn -0.387650 -0.856670 -0.340358
vn -0.694066 -0.011145 -0.719825
vn -0.604135 -0.008610 -0.796836
vn -0.498668 -0.514339 -0.697701
vn -0.694066 -0.011145 -0.719825
vn -0.498668 -0.514339 -0.697701
vn -0.575476 -0.489702 -0.654996
vn -0.575429 -0.489789 -0.654972
vn -0.498643 -0.514401 -0.697672
vn -0.245375 -0.887802 -0.389358
vn -0.575429 -0.489789 -0.654972
vn -0.245375 -0.887802 -0.389358
vn -0.274955 -0.882054 -0.382598
vn -0.819414 -0.014868 -0.573009
vn -0.708061 -0.444339 -0.548828
vn -0.863270 -0.360838 -0.352932
vn -0.819414 -0.014868 -0.573009
vn -0.863270 -0.360838 -0.352932
vn -0.938721 -0.016206 -0.344298
vn -0.938721 -0.016206 -0.344298
vn -0.863270 -0.360838 -0.352932
vn -0.949022 -0.279355 -0.146008
vn -0.938721 -0.016206 -0.344298
vn -0.949022 -0.279355 -0.146008
vn -0.988306 -0.015492 -0.151696
vn -0.708061 -0.444339 -0.548828
vn -0.387698 -0.856645 -0.340366
vn -0.593055 -0.773209 -0.224574
vn -0.708061 -0.444339 -0.548828
vn -0.593055 -0.773209 -0.224574
vn -0.863270 -0.360838 -0.352932
vn -0.863270 -0.360838 -0.352932
vn -0.593055 -0.773209 -0.224574
vn -0.786298 -0.606403 -0.118368
vn -0.863270 -0.360838 -0.352932
vn -0.786298 -0.606403 -0.118368
vn -0.949022 -0.279355 -0.146008
vn -0.819414 -0.014868 -0.573009
vn -0.938721 -0.016206 -0.344298
vn -0.921771 0.227998 -0.313617
vn -0.819414 -0.014868 -0.573009
vn -0.921771 0.227998 -0.313617
vn -0.798032 0.318435 -0.511609
vn -0.798032 0.318435 -0.511609
vn -0.921771 0.227998 -0.313617
vn -0.855088 0.453068 -0.252100
vn -0.798032 0.318435 -0.511609
vn -0.855088 0.453068 -0.252100
vn -0.693758 0.602066 -0.395241
vn -0.938721 -0.016206 -0.344298
vn -0.988306 -0.015492 -0.151696
vn -0.973700 0.172868 -0.148409
vn -0.938721 -0.016206 -0.344298
vn -0.973700 0.172868 -0.148409
vn -0.921771 0.227998 -0.313617
vn -0.921771 0.227998 -0.313617
vn -0.973700 0.172868 -0.148409
vn -0.938943 0.313270 -0.142296
vn -0.921771 0.227998 -0.313617
vn -0.938943 0.313270 -0.142296
vn -0.855088 0.453068 -0.252100
vn 0.623613 0.008739 0.781685
vn 0.604432 0.007813 0.796619
vn 0.506771 0.602442 0.616642
vn 0.623613 0.008739 0.781685
vn 0.506771 0.602442 0.616642
vn 0.514382 0.614367 0.598301
vn 0.514328 0.614453 0.598259
vn 0.506767 0.602515 0.616574
vn 0.315251 0.892589 0.322337
vn 0.514328 0.614453 0.598259
vn 0.315251 0.892589 0.322337
vn 0.282470 0.914104 0.290903
vn 0.604432 0.007813 0.796619
vn 0.755543 0.006334 0.655069
vn 0.542912 0.669696 0.506708
vn 0.604432 0.007813 0.796619
vn 0.542912 0.669696 0.506708
vn 0.506771 0.602442 0.616642
vn 0.506767 0.602515 0.616574
vn 0.542875 0.669785 0.506631
vn 0.347452 0.883715 0.313568
vn 0.506767 0.602515 0.616574
vn 0.347452 0.883715 0.313568
vn 0.315251 0.892589 0.322337
vn 0.623613 0.008739 0.781685
vn 0.514382 0.614367 0.598301
vn 0.557377 0.690937 0.460366
vn 0.623613 0.008739 0.781685
vn 0.557377 0.690937 0.460366
vn 0.754425 0.011454 0.656286
vn 0.754425 0.011454 0.656286
vn 0.557377 0.690937 0.460366
vn 0.630715 0.757372 0.169076
vn 0.754425 0.011454 0.656286
vn 0.630715 0.757372 0.169076
vn 0.964452 0.015602 0.263799
vn 0.514328 0.614453 0.598259
vn 0.282470 0.914104 0.290903
vn 0.237698 0.952059 0.192570
vn 0.514328 0.614453 0.598259
vn 0.237698 0.952059 0.192570
vn 0.557335 0.690986 0.460344
vn 0.557335 0.690986 0.460344
vn 0.237698 0.952059 0.192570
vn 0.175318 0.983481 0.045051
vn 0.557335 0.690986 0.460344
vn 0.175318 0.983481 0.045051
vn 0.630653 0.757431 0.169040
vn 0.623619 0.008674 0.781680
vn 0.754449 0.011397 0.656260
vn 0.566315 -0.643131 0.515432
vn 0.623619 0.008674 0.781680
vn 0.566315 -0.643131 0.515432
vn 0.498629 -0.570202 0.652870
vn 0.498629 -0.570202 0.652870
vn 0.566315 -0.643131 0.515432
vn 0.297782 -0.901632 0.313666
vn 0.498629 -0.570202 0.652870
vn 0.297782 -0.901632 0.313666
vn 0.301910 -0.856914 0.417792
vn 0.754449 0.011397 0.656260
vn 0.964455 0.015605 0.263787
vn 0.674507 -0.715658 0.181311
vn 0.754449 0.011397 0.656260
vn 0.674507 -0.715658 0.181311
vn 0.566315 -0.643131 0.515432
vn 0.566315 -0.643131 0.515432
vn 0.674507 -0.715658 0.181311
vn 0.313530 -0.946215 0.079852
vn 0.566315 -0.643131 0.515432
vn 0.313530 -0.946215 0.079852
vn 0.297782 -0.901632 0.313666
vn 0.623619 0.008674 0.781680
vn 0.498629 -0.570202 0.652870
vn 0.478388 -0.569940 0.668067
vn 0.623619 0.008674 0.781680
vn 0.478388 -0.569940 0.668067
vn 0.604425 0.007757 0.796624
vn 0.604425 0.007757 0.796624
vn 0.478388 -0.569940 0.668067
vn 0.511356 -0.650279 0.561829
vn 0.604425 0.007757 0.796624
vn 0.511356 -0.650279 0.561829
vn 0.755515 0.006308 0.655101
vn 0.498629 -0.570202 0.652870
vn 0.301910 -0.856914 0.417792
vn 0.307387 -0.846865 0.433973
vn 0.498629 -0.570202 0.652870
vn 0.307387 -0.846865 0.433973
vn 0.478388 -0.569940 0.668067
vn 0.478388 -0.569940 0.668067
vn 0.307387 -0.846865 0.433973
vn 0.324710 -0.851037 0.412674
vn 0.478388 -0.569940 0.668067
vn 0.324710 -0.851037 0.412674
vn 0.511356 -0.650279 0.561829
vn -0.014680 0.993775 -0.110430
vn 0.046364 0.992795 -0.110494
vn -0.070243 0.952747 -0.295533
vn -0.014680 0.993775 -0.110430
vn -0.070243 0.952747 -0.295533
vn -0.124875 0.951871 -0.279908
vn -0.124875 0.951871 -0.279908
vn -0.070243 0.952747 -0.295533
vn -0.202341 0.834603 -0.512344
vn -0.124875 0.951871 -0.279908
vn -0.202341 0.834603 -0.512344
vn -0.271086 0.815210 -0.511806
vn 0.046364 0.992795 -0.110494
vn 0.163133 0.975157 -0.149857
vn -0.009208 0.925608 -0.378371
vn 0.046364 0.992795 -0.110494
vn -0.009208 0.925608 -0.378371
vn -0.070243 0.952747 -0.295533
vn -0.070243 0.952747 -0.295533
vn -0.009208 0.925608 -0.378371
vn -0.139337 0.845822 -0.514946
vn -0.070243 0.952747 -0.295533
vn -0.139337 0.845822 -0.514946
vn -0.202341 0.834603 -0.512344
vn -0.014680 0.993775 -0.110430
vn -0.124875 0.951871 -0.279908
vn -0.181484 0.940435 -0.287480
vn -0.014680 0.993775 -0.110430
vn -0.181484 0.940435 -0.287480
vn -0.064564 0.990242 -0.123502
vn -0.064564 0.990242 -0.123502
vn -0.181484 0.940435 -0.287480
vn -0.254145 0.920828 -0.295779
vn -0.064564 0.990242 -0.123502
vn -0.254145 0.920828 -0.295779
vn -0.124417 0.983270 -0.133040
vn -0.124875 0.951871 -0.279908
vn -0.271086 0.815210 -0.511806
vn -0.337470 0.787662 -0.515464
vn -0.124875 0.951871 -0.279908
vn -0.337470 0.787662 -0.515464
vn -0.181484 0.940435 -0.287480
vn -0.181484 0.940435 -0.287480
vn -0.337470 0.787662 -0.515464
vn -0.418896 0.749982 -0.511912
vn -0.181484 0.940435 -0.287480
vn -0.418896 0.749982 -0.511912
vn -0.254145 0.920828 -0.295779
vn -0.014680 0.993775 -0.110430
vn -0.064564 0.990242 -0.123502
vn 0.046491 0.998853 0.011480
vn -0.014680 0.993775 -0.110430
vn 0.046491 0.998853 0.011480
vn 0.101285 0.993378 0.054227
vn 0.101285 0.993378 0.054227
vn 0.046491 0.998853 0.011480
vn 0.237698 0.952059 0.192570
vn 0.101285 0.993378 0.054227
vn 0.237698 0.952059 0.192570
vn 0.282470 0.914104 0.290903
vn -0.064564 0.990242 -0.123502
vn -0.124417 0.983270 -0.133040
vn -0.017558 0.999553 -0.024213
vn -0.064564 0.990242 -0.123502
vn -0.017558 0.999553 -0.024213
vn 0.046491 0.998853 0.011480
vn 0.046491 0.998853 0.011480
vn -0.017558 0.999553 -0.024213
vn 0.175318 0.983481 0.045051
vn 0.046491 0.998853 0.011480
vn 0.175318 0.983481 0.045051
vn 0.237698 0.952059 0.192570
vn -0.014680 0.993775 -0.110430
vn 0.101285 0.993378 0.054227
vn 0.162513 0.983145 0.083764
vn -0.014680 0.993775 -0.110430
vn 0.162513 0.983145 0.083764
vn 0.046364 0.992795 -0.110494
vn 0.046364 0.992795 -0.110494
vn 0.162513 0.983145 0.083764
vn 0.285754 0.950862 0.119191
vn 0.046364 0.992795 -0.110494
vn 0.285754 0.950862 0.119191
vn 0.163133 0.975157 -0.149857
vn 0.101285 0.993378 0.054227
vn 0.282470 0.914104 0.290903
vn 0.315251 0.892589 0.322337
vn 0.101285 0.993378 0.054227
vn 0.315251 0.892589 0.322337
vn 0.162513 0.983145 0.083764
vn 0.162513 0.983145 0.083764
vn 0.315251 0.892589 0.322337
vn 0.347452 0.883715 0.313568
vn 0.162513 0.983145 0.083764
vn 0.347452 0.883715 0.313568
vn 0.285754 0.950862 0.119191
vn 0.055436 -0.996062 0.069199
vn 0.076900 -0.996315 0.037991
vn 0.178702 -0.956872 0.229046
vn 0.055436 -0.996062 0.069199
vn 0.178702 -0.956872 0.229046
vn 0.153248 -0.962510 0.223806
vn 0.153248 -0.962510 0.223806
vn 0.178702 -0.956872 0.229046
vn 0.307387 -0.846865 0.433973
vn 0.153248 -0.962510 0.223806
vn 0.307387 -0.846865 0.433973
vn 0.301910 -0.856914 0.417792
vn 0.076900 -0.996315 0.037991
vn 0.168809 -0.984802 -0.040853
vn 0.274372 -0.933811 0.229601
vn 0.076900 -0.996315 0.037991
vn 0.274372 -0.933811 0.229601
vn 0.178702 -0.956872 0.229046
vn 0.178702 -0.956872 0.229046
vn 0.274372 -0.933811 0.229601
vn 0.324710 -0.851037 0.412674
vn 0.178702 -0.956872 0.229046
vn 0.324710 -0.851037 0.412674
vn 0.307387 -0.846865 0.433973
vn 0.055436 -0.996062 0.069199
vn 0.153248 -0.962510 0.223806
vn 0.142831 -0.972560 0.183647
vn 0.055436 -0.996062 0.069199
vn 0.142831 -0.972560 0.183647
vn 0.058855 -0.995237 0.077708
vn 0.058855 -0.995237 0.077708
vn 0.142831 -0.972560 0.183647
vn 0.157100 -0.981272 0.111465
vn 0.058855 -0.995237 0.077708
vn 0.157100 -0.981272 0.111465
vn 0.089544 -0.993953 0.063563
vn 0.153248 -0.962510 0.223806
vn 0.301910 -0.856914 0.417792
vn 0.297782 -0.901632 0.313666
vn 0.153248 -0.962510 0.223806
vn 0.297782 -0.901632 0.313666
vn 0.142831 -0.972560 0.183647
vn 0.142831 -0.972560 0.183647
vn 0.297782 -0.901632 0.313666
vn 0.313530 -0.946215 0.079852
vn 0.142831 -0.972560 0.183647
vn 0.313530 -0.946215 0.079852
vn 0.157100 -0.981272 0.111465
vn 0.055436 -0.996062 0.069199
vn 0.058855 -0.995237 0.077708
vn -0.042740 -0.995050 -0.089716
vn 0.055436 -0.996062 0.069199
vn -0.042740 -0.995050 -0.089716
vn -0.046221 -0.992139 -0.116296
vn -0.046221 -0.992139 -0.116296
vn -0.042740 -0.995050 -0.089716
vn -0.233628 -0.889315 -0.393112
vn -0.046221 -0.992139 -0.116296
vn -0.233628 -0.889315 -0.393112
vn -0.210200 -0.888281 -0.408379
vn 0.058855 -0.995237 0.077708
vn 0.089544 -0.993953 0.063563
vn -0.016220 -0.996402 -0.083183
vn 0.058855 -0.995237 0.077708
vn -0.016220 -0.996402 -0.083183
vn -0.042740 -0.995050 -0.089716
vn -0.042740 -0.995050 -0.089716
vn -0.016220 -0.996402 -0.083183
vn -0.245375 -0.887802 -0.389358
vn -0.042740 -0.995050 -0.089716
vn -0.245375 -0.887802 -0.389358
vn -0.233628 -0.889315 -0.393112
vn 0.055436 -0.996062 0.069199
vn -0.046221 -0.992139 -0.116296
vn -0.030910 -0.985645 -0.165980
vn 0.055436 -0.996062 0.069199
vn -0.030910 -0.985645 -0.165980
vn 0.076900 -0.996315 0.037991
vn 0.076900 -0.996315 0.037991
vn -0.030910 -0.985645 -0.165980
vn 0.006088 -0.957396 -0.288715
vn 0.076900 -0.996315 0.037991
vn 0.006088 -0.957396 -0.288715
vn 0.168809 -0.984802 -0.040853
vn -0.046221 -0.992139 -0.116296
vn -0.210200 -0.888281 -0.408379
vn -0.169744 -0.887785 -0.427815
vn -0.046221 -0.992139 -0.116296
vn -0.169744 -0.887785 -0.427815
vn -0.030910 -0.985645 -0.165980
vn -0.030910 -0.985645 -0.165980
vn -0.169744 -0.887785 -0.427815
vn -0.122032 -0.887715 -0.443926
vn -0.030910 -0.985645 -0.165980
vn -0.122032 -0.887715 -0.443926
vn 0.006088 -0.957396 -0.288715
vn 0.551202 -0.015807 0.834222
vn 0.319896 -0.852920 0.412546
vn 0.662898 -0.748636 -0.010487
vn 0.551202 -0.015807 0.834222
vn 0.662898 -0.748636 -0.010487
vn 0.980624 0.002642 0.195883
vn 0.980624 0.002642 0.195883
vn 0.662898 -0.748636 -0.010487
vn 0.750977 -0.603533 -0.267920
vn 0.980624 0.002642 0.195883
vn 0.750977 -0.603533 -0.267920
vn 0.970819 0.006168 -0.239735
vn 0.319896 -0.852920 0.412546
vn 0.149392 -0.982421 0.111940
vn 0.393481 -0.914598 -0.093187
vn 0.319896 -0.852920 0.412546
vn 0.393481 -0.914598 -0.093187
vn 0.662898 -0.748636 -0.010487
vn 0.662898 -0.748636 -0.010487
vn 0.393481 -0.914598 -0.093187
vn 0.530903 -0.815855 -0.229180
vn 0.662898 -0.748636 -0.010487
vn 0.530903 -0.815855 -0.229180
vn 0.750977 -0.603533 -0.267920
vn 0.551163 -0.015889 0.834246
vn 0.980628 0.002581 0.195861
vn 0.647183 0.759877 0.061165
vn 0.551163 -0.015889 0.834246
vn 0.647183 0.759877 0.061165
vn 0.286462 0.834574 0.470559
vn 0.286407 0.834555 0.470625
vn 0.647124 0.759926 0.061178
vn 0.347016 0.937792 0.011213
vn 0.286407 0.834555 0.470625
vn 0.347016 0.937792 0.011213
vn 0.085468 0.974013 0.209747
vn 0.980628 0.002581 0.195861
vn 0.970814 0.006193 -0.239754
vn 0.752591 0.624691 -0.208250
vn 0.980628 0.002581 0.195861
vn 0.752591 0.624691 -0.208250
vn 0.647183 0.759877 0.061165
vn 0.647183 0.759877 0.061165
vn 0.752591 0.624691 -0.208250
vn 0.503465 0.853570 -0.133942
vn 0.647183 0.759877 0.061165
vn 0.503465 0.853570 -0.133942
vn 0.347088 0.937766 0.011188
vn 0.551155 -0.015885 0.834252
vn 0.286407 0.834555 0.470625
vn -0.249797 0.746258 0.617009
vn 0.551155 -0.015885 0.834252
vn -0.249797 0.746258 0.617009
vn -0.212858 -0.018741 0.976903
vn -0.212858 -0.018741 0.976903
vn -0.249797 0.746258 0.617009
vn -0.540365 0.606835 0.582887
vn -0.212858 -0.018741 0.976903
vn -0.540365 0.606835 0.582887
vn -0.629440 -0.009250 0.776994
vn 0.286407 0.834555 0.470625
vn 0.085468 0.974013 0.209747
vn -0.211583 0.914032 0.346091
vn 0.286407 0.834555 0.470625
vn -0.211583 0.914032 0.346091
vn -0.249797 0.746258 0.617009
vn -0.249797 0.746258 0.617009
vn -0.211583 0.914032 0.346091
vn -0.403723 0.818721 0.408294
vn -0.249797 0.746258 0.617009
vn -0.403723 0.818721 0.408294
vn -0.540365 0.606835 0.582887
vn 0.551202 -0.015807 0.834222
vn -0.212897 -0.018632 0.976897
vn -0.221545 -0.781221 0.583619
vn 0.551202 -0.015807 0.834222
vn -0.221545 -0.781221 0.583619
vn 0.319896 -0.852920 0.412546
vn 0.319896 -0.852920 0.412546
vn -0.221545 -0.781221 0.583619
vn -0.149643 -0.950640 0.271830
vn 0.319896 -0.852920 0.412546
vn -0.149643 -0.950640 0.271830
vn 0.149392 -0.982421 0.111940
vn -0.212897 -0.018632 0.976897
vn -0.629454 -0.009238 0.776983
vn -0.523799 -0.638978 0.563332
vn -0.212897 -0.018632 0.976897
vn -0.523799 -0.638978 0.563332
vn -0.221545 -0.781221 0.583619
vn -0.221545 -0.781221 0.583619
vn -0.523799 -0.638978 0.563332
vn -0.352499 -0.866379 0.353739
vn -0.221545 -0.781221 0.583619
vn -0.352499 -0.866379 0.353739
vn -0.149643 -0.950640 0.271830
vn 0.930539 0.007629 -0.366114
vn 0.774338 -0.543124 -0.324679
vn 0.755734 -0.633997 -0.164054
vn 0.930539 0.007629 -0.366114
vn 0.755734 -0.633997 -0.164054
vn 0.982648 0.010850 -0.185162
vn 0.982657 0.010778 -0.185118
vn 0.755697 -0.634046 -0.164037
vn 0.674507 -0.715658 0.181311
vn 0.982657 0.010778 -0.185118
vn 0.674507 -0.715658 0.181311
vn 0.964455 0.015605 0.263787
vn 0.774276 -0.543224 -0.324661
vn 0.496830 -0.837596 -0.227141
vn 0.427343 -0.894537 -0.131076
vn 0.774276 -0.543224 -0.324661
vn 0.427343 -0.894537 -0.131076
vn 0.755697 -0.634046 -0.164037
vn 0.755697 -0.634046 -0.164037
vn 0.427343 -0.894537 -0.131076
vn 0.313530 -0.946215 0.079852
vn 0.755697 -0.634046 -0.164037
vn 0.313530 -0.946215 0.079852
vn 0.674507 -0.715658 0.181311
vn 0.930539 0.007629 -0.366114
vn 0.982648 0.010850 -0.185162
vn 0.721577 0.681498 -0.122011
vn 0.930539 0.007629 -0.366114
vn 0.721577 0.681498 -0.122011
vn 0.762469 0.586853 -0.272479
vn 0.762469 0.586853 -0.272479
vn 0.721577 0.681498 -0.122011
vn 0.314818 0.947539 -0.055320
vn 0.762469 0.586853 -0.272479
vn 0.314818 0.947539 -0.055320
vn 0.417425 0.899764 -0.127206
vn 0.982648 0.010850 -0.185162
vn 0.964452 0.015602 0.263799
vn 0.630715 0.757372 0.169076
vn 0.982648 0.010850 -0.185162
vn 0.630715 0.757372 0.169076
vn 0.721577 0.681498 -0.122011
vn 0.721515 0.681567 -0.121992
vn 0.630653 0.757431 0.169040
vn 0.175318 0.983481 0.045051
vn 0.721515 0.681567 -0.121992
vn 0.175318 0.983481 0.045051
vn 0.314783 0.947551 -0.055304
vn 0.930539 0.007629 -0.366114
vn 0.762469 0.586853 -0.272479
vn 0.770438 0.559661 -0.305296
vn 0.930539 0.007629 -0.366114
vn 0.770438 0.559661 -0.305296
vn 0.915615 0.006463 -0.402004
vn 0.915615 0.006463 -0.402004
vn 0.770438 0.559661 -0.305296
vn 0.752591 0.624691 -0.208250
vn 0.915615 0.006463 -0.402004
vn 0.752591 0.624691 -0.208250
vn 0.970814 0.006193 -0.239754
vn 0.762469 0.586853 -0.272479
vn 0.417425 0.899764 -0.127206
vn 0.472140 0.868947 -0.148374
vn 0.762469 0.586853 -0.272479
vn 0.472140 0.868947 -0.148374
vn 0.770438 0.559661 -0.305296
vn 0.770438 0.559661 -0.305296
vn 0.472140 0.868947 -0.148374
vn 0.503465 0.853570 -0.133942
vn 0.770438 0.559661 -0.305296
vn 0.503465 0.853570 -0.133942
vn 0.752591 0.624691 -0.208250
vn 0.930539 0.007629 -0.366114
vn 0.915615 0.006463 -0.402004
vn 0.769643 -0.527652 -0.359491
vn 0.930539 0.007629 -0.366114
vn 0.769643 -0.527652 -0.359491
vn 0.774338 -0.543124 -0.324679
vn 0.774276 -0.543224 -0.324661
vn 0.769605 -0.527713 -0.359482
vn 0.519590 -0.817707 -0.247755
vn 0.774276 -0.543224 -0.324661
vn 0.519590 -0.817707 -0.247755
vn 0.496830 -0.837596 -0.227141
vn 0.915615 0.006463 -0.402004
vn 0.970814 0.006193 -0.239754
vn 0.751009 -0.603487 -0.267934
vn 0.915615 0.006463 -0.402004
vn 0.751009 -0.603487 -0.267934
vn 0.769643 -0.527652 -0.359491
vn 0.769605 -0.527713 -0.359482
vn 0.750977 -0.603533 -0.267920
vn 0.530903 -0.815855 -0.229180
vn 0.769605 -0.527713 -0.359482
vn 0.530903 -0.815855 -0.229180
vn 0.519590 -0.817707 -0.247755
vn -0.068517 0.993370 0.092316
vn 0.129892 0.991516 -0.004846
vn 0.052782 0.998554 0.010232
vn -0.068517 0.993370 0.092316
vn 0.052782 0.998554 0.010232
vn -0.121653 0.989207 0.081668
vn -0.121653 0.989207 0.081668
vn 0.052782 0.998554 0.010232
vn -0.026705 0.999538 0.014549
vn -0.121653 0.989207 0.081668
vn -0.026705 0.999538 0.014549
vn -0.180790 0.981321 0.065766
vn 0.129892 0.991516 -0.004846
vn 0.417353 0.899800 -0.127185
vn 0.314783 0.947551 -0.055304
vn 0.129892 0.991516 -0.004846
vn 0.314783 0.947551 -0.055304
vn 0.052782 0.998554 0.010232
vn 0.052782 0.998554 0.010232
vn 0.314783 0.947551 -0.055304
vn 0.175318 0.983481 0.045051
vn 0.052782 0.998554 0.010232
vn 0.175318 0.983481 0.045051
vn -0.026705 0.999538 0.014549
vn -0.068517 0.993370 0.092316
vn -0.121653 0.989207 0.081668
vn -0.315564 0.931700 0.179872
vn -0.068517 0.993370 0.092316
vn -0.315564 0.931700 0.179872
vn -0.262473 0.944226 0.198859
vn -0.262473 0.944226 0.198859
vn -0.315564 0.931700 0.179872
vn -0.564050 0.764288 0.312588
vn -0.262473 0.944226 0.198859
vn -0.564050 0.764288 0.312588
vn -0.508672 0.790905 0.340180
vn -0.121653 0.989207 0.081668
vn -0.180790 0.981321 0.065766
vn -0.384959 0.909171 0.158791
vn -0.121653 0.989207 0.081668
vn -0.384959 0.909171 0.158791
vn -0.315564 0.931700 0.179872
vn -0.315564 0.931700 0.179872
vn -0.384959 0.909171 0.158791
vn -0.631856 0.723499 0.278042
vn -0.315564 0.931700 0.179872
vn -0.631856 0.723499 0.278042
vn -0.564050 0.764288 0.312588
vn -0.068517 0.993370 0.092316
vn -0.262473 0.944226 0.198859
vn -0.222435 0.945046 0.239606
vn -0.068517 0.993370 0.092316
vn -0.222435 0.945046 0.239606
vn -0.008897 0.992721 0.120104
vn -0.008897 0.992721 0.120104
vn -0.222435 0.945046 0.239606
vn -0.211583 0.914032 0.346091
vn -0.008897 0.992721 0.120104
vn -0.211583 0.914032 0.346091
vn 0.085468 0.974013 0.209747
vn -0.262473 0.944226 0.198859
vn -0.508672 0.790905 0.340180
vn -0.454166 0.808277 0.374728
vn -0.262473 0.944226 0.198859
vn -0.454166 0.808277 0.374728
vn -0.222435 0.945046 0.239606
vn -0.222435 0.945046 0.239606
vn -0.454166 0.808277 0.374728
vn -0.403723 0.818721 0.408294
vn -0.222435 0.945046 0.239606
vn -0.403723 0.818721 0.408294
vn -0.211583 0.914032 0.346091
vn -0.068517 0.993370 0.092316
vn -0.008897 0.992721 0.120104
vn 0.208261 0.978047 -0.007160
vn -0.068517 0.993370 0.092316
vn 0.208261 0.978047 -0.007160
vn 0.129892 0.991516 -0.004846
vn 0.129892 0.991516 -0.004846
vn 0.208261 0.978047 -0.007160
vn 0.472041 0.869007 -0.148338
vn 0.129892 0.991516 -0.004846
vn 0.472041 0.869007 -0.148338
vn 0.417353 0.899800 -0.127185
vn -0.008897 0.992721 0.120104
vn 0.085468 0.974013 0.209747
vn 0.347016 0.937792 0.011213
vn -0.008897 0.992721 0.120104
vn 0.347016 0.937792 0.011213
vn 0.208261 0.978047 -0.007160
vn 0.208261 0.978047 -0.007160
vn 0.347016 0.937792 0.011213
vn 0.503407 0.853606 -0.133934
vn 0.208261 0.978047 -0.007160
vn 0.503407 0.853606 -0.133934
vn 0.472041 0.869007 -0.148338
vn -0.839416 -0.007026 0.543444
vn -0.741804 0.468568 0.479762
vn -0.785389 0.439658 0.435735
vn -0.839416 -0.007026 0.543444
vn -0.785389 0.439658 0.435735
vn -0.871063 -0.008120 0.491105
vn -0.871063 -0.008120 0.491105
vn -0.785389 0.439658 0.435735
vn -0.830044 0.407155 0.381119
vn -0.871063 -0.008120 0.491105
vn -0.830044 0.407155 0.381119
vn -0.901123 -0.008509 0.433480
vn -0.741743 0.468678 0.479749
vn -0.508672 0.790905 0.340180
vn -0.564050 0.764288 0.312588
vn -0.741743 0.468678 0.479749
vn -0.564050 0.764288 0.312588
vn -0.785354 0.439716 0.435740
vn -0.785389 0.439658 0.435735
vn -0.564097 0.764249 0.312599
vn -0.631911 0.723452 0.278039
vn -0.785389 0.439658 0.435735
vn -0.631911 0.723452 0.278039
vn -0.830044 0.407155 0.381119
vn -0.839416 -0.007026 0.543444
vn -0.871063 -0.008120 0.491105
vn -0.746042 -0.506461 0.432341
vn -0.839416 -0.007026 0.543444
vn -0.746042 -0.506461 0.432341
vn -0.714630 -0.519182 0.468778
vn -0.714587 -0.519259 0.468760
vn -0.745985 -0.506560 0.432323
vn -0.412104 -0.875954 0.250748
vn -0.714587 -0.519259 0.468760
vn -0.412104 -0.875954 0.250748
vn -0.404136 -0.871844 0.276698
vn -0.871063 -0.008120 0.491105
vn -0.901123 -0.008509 0.433480
vn -0.775345 -0.490592 0.397694
vn -0.871063 -0.008120 0.491105
vn -0.775345 -0.490592 0.397694
vn -0.746042 -0.506461 0.432341
vn -0.745985 -0.506560 0.432323
vn -0.775314 -0.490666 0.397661
vn -0.416725 -0.876152 0.242276
vn -0.745985 -0.506560 0.432323
vn -0.416725 -0.876152 0.242276
vn -0.412104 -0.875954 0.250748
vn -0.839416 -0.007026 0.543444
vn -0.714630 -0.519182 0.468778
vn -0.658437 -0.549692 0.514101
vn -0.839416 -0.007026 0.543444
vn -0.658437 -0.549692 0.514101
vn -0.782312 -0.006522 0.622852
vn -0.782312 -0.006522 0.622852
vn -0.658437 -0.549692 0.514101
vn -0.523876 -0.638890 0.563359
vn -0.782312 -0.006522 0.622852
vn -0.523876 -0.638890 0.563359
vn -0.629468 -0.009217 0.776972
vn -0.714587 -0.519259 0.468760
vn -0.404136 -0.871844 0.276698
vn -0.383372 -0.868143 0.315204
vn -0.714587 -0.519259 0.468760
vn -0.383372 -0.868143 0.315204
vn -0.658371 -0.549776 0.514095
vn -0.658371 -0.549776 0.514095
vn -0.383372 -0.868143 0.315204
vn -0.352499 -0.866379 0.353739
vn -0.658371 -0.549776 0.514095
vn -0.352499 -0.866379 0.353739
vn -0.523799 -0.638978 0.563332
vn -0.839416 -0.007026 0.543444
vn -0.782312 -0.006522 0.622852
vn -0.676621 0.512405 0.528796
vn -0.839416 -0.007026 0.543444
vn -0.676621 0.512405 0.528796
vn -0.741804 0.468568 0.479762
vn -0.741743 0.468678 0.479749
vn -0.676560 0.512509 0.528774
vn -0.454166 0.808277 0.374728
vn -0.741743 0.468678 0.479749
vn -0.454166 0.808277 0.374728
vn -0.508672 0.790905 0.340180
vn -0.782312 -0.006522 0.622852
vn -0.629468 -0.009217 0.776972
vn -0.540410 0.606789 0.582893
vn -0.782312 -0.006522 0.622852
vn -0.540410 0.606789 0.582893
vn -0.676621 0.512405 0.528796
vn -0.676560 0.512509 0.528774
vn -0.540365 0.606835 0.582887
vn -0.403723 0.818721 0.408294
vn -0.676560 0.512509 0.528774
vn -0.403723 0.818721 0.408294
vn -0.454166 0.808277 0.374728
vn -0.484939 -0.007589 -0.874515
vn -0.386985 -0.007132 -0.922058
vn -0.322202 -0.585309 -0.744043
vn -0.484939 -0.007589 -0.874515
vn -0.322202 -0.585309 -0.744043
vn -0.400118 -0.549760 -0.733260
vn -0.400085 -0.549866 -0.733198
vn -0.322172 -0.585356 -0.744019
vn -0.169744 -0.887785 -0.427815
vn -0.400085 -0.549866 -0.733198
vn -0.169744 -0.887785 -0.427815
vn -0.210200 -0.888281 -0.408379
vn -0.386985 -0.007132 -0.922058
vn -0.158692 -0.009681 -0.987281
vn -0.172197 -0.672153 -0.720110
vn -0.386985 -0.007132 -0.922058
vn -0.172197 -0.672153 -0.720110
vn -0.322202 -0.585309 -0.744043
vn -0.322172 -0.585356 -0.744019
vn -0.172138 -0.672227 -0.720055
vn -0.122032 -0.887715 -0.443926
vn -0.322172 -0.585356 -0.744019
vn -0.122032 -0.887715 -0.443926
vn -0.169744 -0.887785 -0.427815
vn -0.484939 -0.007589 -0.874515
vn -0.400118 -0.549760 -0.733260
vn -0.450745 -0.531981 -0.716816
vn -0.484939 -0.007589 -0.874515
vn -0.450745 -0.531981 -0.716816
vn -0.543556 -0.008510 -0.839330
vn -0.543556 -0.008510 -0.839330
vn -0.450745 -0.531981 -0.716816
vn -0.498668 -0.514339 -0.697701
vn -0.543556 -0.008510 -0.839330
vn -0.498668 -0.514339 -0.697701
vn -0.604135 -0.008610 -0.796836
vn -0.400085 -0.549866 -0.733198
vn -0.210200 -0.888281 -0.408379
vn -0.233628 -0.889315 -0.393112
vn -0.400085 -0.549866 -0.733198
vn -0.233628 -0.889315 -0.393112
vn -0.450712 -0.532091 -0.716755
vn -0.450712 -0.532091 -0.716755
vn -0.233628 -0.889315 -0.393112
vn -0.245375 -0.887802 -0.389358
vn -0.450712 -0.532091 -0.716755
vn -0.245375 -0.887802 -0.389358
vn -0.498643 -0.514401 -0.697672
vn -0.484939 -0.007589 -0.874515
vn -0.543556 -0.008510 -0.839330
vn -0.485646 0.466306 -0.739396
vn -0.484939 -0.007589 -0.874515
vn -0.485646 0.466306 -0.739396
vn -0.420036 0.499841 -0.757449
vn -0.420005 0.499902 -0.757425
vn -0.485617 0.466385 -0.739366
vn -0.337470 0.787662 -0.515464
vn -0.420005 0.499902 -0.757425
vn -0.337470 0.787662 -0.515464
vn -0.271086 0.815210 -0.511806
vn -0.543556 -0.008510 -0.839330
vn -0.604135 -0.008610 -0.796836
vn -0.558355 0.433486 -0.707340
vn -0.543556 -0.008510 -0.839330
vn -0.558355 0.433486 -0.707340
vn -0.485646 0.466306 -0.739396
vn -0.485617 0.466385 -0.739366
vn -0.558334 0.433560 -0.707311
vn -0.418896 0.749982 -0.511912
vn -0.485617 0.466385 -0.739366
vn -0.418896 0.749982 -0.511912
vn -0.337470 0.787662 -0.515464
vn -0.484939 -0.007589 -0.874515
vn -0.420036 0.499841 -0.757449
vn -0.331767 0.548865 -0.767254
vn -0.484939 -0.007589 -0.874515
vn -0.331767 0.548865 -0.767254
vn -0.386985 -0.007132 -0.922058
vn -0.386985 -0.007132 -0.922058
vn -0.331767 0.548865 -0.767254
vn -0.176877 0.642135 -0.745907
vn -0.386985 -0.007132 -0.922058
vn -0.176877 0.642135 -0.745907
vn -0.158692 -0.009681 -0.987281
vn -0.420005 0.499902 -0.757425
vn -0.271086 0.815210 -0.511806
vn -0.202341 0.834603 -0.512344
vn -0.420005 0.499902 -0.757425
vn -0.202341 0.834603 -0.512344
vn -0.331741 0.548944 -0.767209
vn -0.331741 0.548944 -0.767209
vn -0.202341 0.834603 -0.512344
vn -0.139337 0.845822 -0.514946
vn -0.331741 0.548944 -0.767209
vn -0.139337 0.845822 -0.514946
vn -0.176840 0.642198 -0.745861
s off
g boomerang1:node_053c038d_d9a3_4144_a21b_a95657c0656e_mesh0
usemtl boomerang1:node_053c038d_d9a3_4144_a21b_a95657c0656e_mesh0SG
f 1/1/1 2/2/2 3/3/3
f 1/1/4 3/3/5 4/4/6
f 4/4/7 3/3/8 5/5/9
f 4/4/10 5/5/11 6/6/12
f 2/2/13 7/7/14 8/8/15
f 2/2/16 8/8/17 3/3/18
f 3/3/19 8/8/20 9/9/21
f 3/3/22 9/9/23 5/5/24
f 1/1/25 4/4/26 10/10/27
f 1/1/28 10/10/29 11/11/30
f 11/11/31 10/10/32 12/12/33
f 11/11/34 12/12/35 13/13/36
f 4/4/37 6/6/38 14/14/39
f 4/4/40 14/14/41 10/10/42
f 10/10/43 14/14/44 15/15/45
f 10/10/46 15/15/47 12/12/48
f 1/1/49 11/11/50 16/16/51
f 1/1/52 16/16/53 17/17/54
f 17/17/55 16/16/56 18/18/57
f 17/17/58 18/18/59 19/19/60
f 11/11/61 13/13/62 20/20/63
f 11/11/64 20/20/65 16/16/66
f 16/16/67 20/20/68 21/21/69
f 16/16/70 21/21/71 18/18/72
f 1/1/73 17/17/74 22/22/75
f 1/1/76 22/22/77 2/2/78
f 2/2/79 22/22/80 23/23/81
f 2/2/82 23/23/83 7/7/84
f 17/17/85 19/19/86 24/24/87
f 17/17/88 24/24/89 22/22/90
f 22/22/91 24/24/92 25/25/93
f 22/22/94 25/25/95 23/23/96
f 26/26/97 27/27/98 28/28/99
f 26/26/100 28/28/101 29/29/102
f 29/29/103 28/28/104 30/30/105
f 29/29/106 30/30/107 31/31/108
f 27/27/109 32/32/110 33/33/111
f 27/27/112 33/33/113 28/28/114
f 28/28/115 33/33/116 34/34/117
f 28/28/118 34/34/119 30/30/120
f 26/26/121 29/29/122 35/35/123
f 26/26/124 35/35/125 36/36/126
f 37/37/127 38/38/128 39/39/129
f 37/37/130 39/39/131 40/40/132
f 41/41/133 42/42/134 43/43/135
f 41/41/136 43/43/137 38/38/138
f 38/38/139 43/43/140 44/44/141
f 38/38/142 44/44/143 39/39/144
f 26/26/145 36/36/146 45/45/147
f 26/26/148 45/45/149 46/46/150
f 46/46/151 45/45/152 47/47/153
f 46/46/154 47/47/155 48/48/156
f 36/36/157 49/49/158 50/50/159
f 36/36/160 50/50/161 45/45/162
f 45/45/163 50/50/164 51/51/165
f 45/45/166 51/51/167 47/47/168
f 26/26/169 46/46/170 52/52/171
f 26/26/172 52/52/173 27/27/174
f 27/27/175 52/52/176 53/53/177
f 27/27/178 53/53/179 32/32/180
f 46/46/181 48/48/182 54/54/183
f 46/46/184 54/54/185 52/52/186
f 52/52/187 54/54/188 55/55/189
f 52/52/190 55/55/191 53/53/192
f 56/56/193 57/57/194 58/58/195
f 56/56/196 58/58/197 59/59/198
f 59/59/199 58/58/200 60/60/201
f 59/59/202 60/60/203 61/61/204
f 57/57/205 62/62/206 63/63/207
f 57/57/208 63/63/209 58/58/210
f 58/58/211 63/63/212 64/64/213
f 58/58/214 64/64/215 60/60/216
f 65/65/217 66/66/218 67/67/219
f 65/65/220 67/67/221 68/68/222
f 69/69/223 70/70/224 71/71/225
f 69/69/226 71/71/227 72/72/228
f 73/73/229 74/74/230 75/75/231
f 73/73/232 75/75/233 70/70/234
f 70/70/235 75/75/236 76/76/237
f 70/70/238 76/76/239 71/71/240
f 65/65/241 68/68/242 77/77/243
f 65/65/244 77/77/245 78/78/246
f 78/78/247 77/77/248 79/79/249
f 78/78/250 79/79/251 80/80/252
f 69/69/253 72/72/254 81/81/255
f 69/69/256 81/81/257 82/82/258
f 82/82/259 81/81/260 83/83/261
f 82/82/262 83/83/263 84/84/264
f 56/56/265 85/85/266 86/86/267
f 56/56/268 86/86/269 57/57/270
f 57/57/271 86/86/272 87/87/273
f 57/57/274 87/87/275 62/62/276
f 85/85/277 88/88/278 89/89/279
f 85/85/280 89/89/281 86/86/282
f 86/86/283 89/89/284 90/90/285
f 86/86/286 90/90/287 87/87/288
f 91/91/289 92/92/290 93/93/291
f 91/91/292 93/93/293 94/94/294
f 94/94/295 93/93/296 20/20/297
f 94/94/298 20/20/299 13/13/300
f 92/92/301 95/95/302 96/96/303
f 92/92/304 96/96/305 93/93/306
f 93/93/307 96/96/308 21/21/309
f 93/93/310 21/21/311 20/20/312
f 91/91/313 94/94/314 97/97/315
f 91/91/316 97/97/317 98/98/318
f 98/98/319 97/97/320 99/99/321
f 98/98/322 99/99/323 100/100/324
f 94/94/325 13/13/326 12/12/327
f 94/94/328 12/12/329 97/97/330
f 97/97/331 12/12/332 15/15/333
f 97/97/334 15/15/335 99/99/336
f 91/91/337 98/98/338 101/101/339
f 91/91/340 101/101/341 102/102/342
f 102/102/343 101/101/344 103/103/345
f 102/102/346 103/103/347 104/104/348
f 98/98/349 100/100/350 105/105/351
f 98/98/352 105/105/353 101/101/354
f 101/101/355 105/105/356 106/106/357
f 101/101/358 106/106/359 103/103/360
f 91/91/361 102/102/362 107/107/363
f 91/91/364 107/107/365 92/92/366
f 92/92/367 107/107/368 108/108/369
f 92/92/370 108/108/371 95/95/372
f 102/102/373 104/104/374 109/109/375
f 102/102/376 109/109/377 107/107/378
f 107/107/379 109/109/380 110/110/381
f 107/107/382 110/110/383 108/108/384
f 111/111/385 112/112/386 113/113/387
f 111/111/388 113/113/389 114/114/390
f 114/114/391 113/113/392 115/115/393
f 114/114/394 115/115/395 116/116/396
f 112/112/397 117/117/398 118/118/399
f 112/112/400 118/118/401 113/113/402
f 119/119/403 18/18/404 21/21/405
f 119/119/406 21/21/407 120/120/408
f 111/111/409 114/114/410 121/121/411
f 111/111/412 121/121/413 122/122/414
f 122/122/415 121/121/416 123/123/417
f 122/122/418 123/123/419 40/40/420
f 114/114/421 116/116/422 124/124/423
f 114/114/424 124/124/425 121/121/426
f 121/121/427 124/124/428 125/125/429
f 121/121/430 125/125/431 123/123/432
f 111/111/433 122/122/434 126/126/435
f 111/111/436 126/126/437 127/127/438
f 127/127/439 126/126/440 128/128/441
f 127/127/442 128/128/443 129/129/444
f 122/122/445 40/40/446 39/39/447
f 122/122/448 39/39/449 126/126/450
f 126/126/451 39/39/452 44/44/453
f 126/126/454 44/44/455 128/128/456
f 111/111/457 127/127/458 130/130/459
f 111/111/460 130/130/461 112/112/462
f 112/112/463 130/130/464 131/131/465
f 112/112/466 131/131/467 117/117/468
f 127/127/469 129/129/470 132/132/471
f 127/127/472 132/132/473 130/130/474
f 130/130/475 132/132/476 133/133/477
f 130/130/478 133/133/479 131/131/480
f 134/134/481 135/135/482 136/136/483
f 134/134/484 136/136/485 137/137/486
f 137/137/487 136/136/488 138/138/489
f 137/137/490 138/138/491 139/139/492
f 135/135/493 42/42/494 140/140/495
f 135/135/496 140/140/497 136/136/498
f 141/141/499 30/30/500 34/34/501
f 141/141/502 34/34/503 142/142/504
f 134/134/505 137/137/506 143/143/507
f 134/134/508 143/143/509 144/144/510
f 145/145/511 146/146/512 8/8/513
f 145/145/514 8/8/515 7/7/516
f 137/137/517 139/139/518 147/147/519
f 137/137/520 147/147/521 143/143/522
f 146/146/523 148/148/524 9/9/525
f 146/146/526 9/9/527 8/8/528
f 134/134/529 144/144/530 149/149/531
f 134/134/532 149/149/533 150/150/534
f 150/150/535 149/149/536 132/132/537
f 150/150/538 132/132/539 129/129/540
f 144/144/541 151/151/542 152/152/543
f 144/144/544 152/152/545 149/149/546
f 149/149/547 152/152/548 133/133/549
f 149/149/550 133/133/551 132/132/552
f 134/134/553 150/150/554 153/153/555
f 134/134/556 153/153/557 135/135/558
f 135/135/559 153/153/560 43/43/561
f 135/135/562 43/43/563 42/42/564
f 150/150/565 129/129/566 128/128/567
f 150/150/568 128/128/569 153/153/570
f 153/153/571 128/128/572 44/44/573
f 153/153/574 44/44/575 43/43/576
f 154/154/577 155/155/578 156/156/579
f 154/154/580 156/156/581 157/157/582
f 158/158/583 159/159/584 160/160/585
f 158/158/586 160/160/587 161/161/588
f 155/155/589 80/80/590 79/79/591
f 155/155/592 79/79/593 156/156/594
f 159/159/595 84/84/596 83/83/597
f 159/159/598 83/83/599 160/160/600
f 154/154/601 157/157/602 162/162/603
f 154/154/604 162/162/605 163/163/606
f 163/163/607 162/162/608 164/164/609
f 163/163/610 164/164/611 165/165/612
f 158/158/613 161/161/614 166/166/615
f 158/158/616 166/166/617 167/167/618
f 167/167/619 166/166/620 55/55/621
f 167/167/622 55/55/623 168/168/624
f 169/169/625 170/170/626 171/171/627
f 169/169/628 171/171/629 172/172/630
f 172/172/631 171/171/632 173/173/633
f 172/172/634 173/173/635 174/174/636
f 170/170/637 175/175/638 176/176/639
f 170/170/640 176/176/641 171/171/642
f 171/171/643 176/176/644 15/15/645
f 171/171/646 15/15/647 173/173/648
f 169/169/649 172/172/650 177/177/651
f 169/169/652 177/177/653 178/178/654
f 178/178/655 177/177/656 89/89/657
f 178/178/658 89/89/659 88/88/660
f 172/172/661 174/174/662 179/179/663
f 172/172/664 179/179/665 177/177/666
f 177/177/667 179/179/668 90/90/669
f 177/177/670 90/90/671 89/89/672
f 180/180/673 181/181/674 182/182/675
f 180/180/676 182/182/677 183/183/678
f 183/183/679 182/182/680 184/184/681
f 183/183/682 184/184/683 185/185/684
f 181/181/685 72/72/686 71/71/687
f 181/181/688 71/71/689 182/182/690
f 182/182/691 71/71/692 76/76/693
f 182/182/694 76/76/695 184/184/696
f 180/180/697 183/183/698 186/186/699
f 180/180/700 186/186/701 187/187/702
f 187/187/703 186/186/704 33/33/705
f 187/187/706 33/33/707 32/32/708
f 183/183/709 185/185/710 188/188/711
f 183/183/712 188/188/713 186/186/714
f 186/186/715 188/188/716 34/34/717
f 186/186/718 34/34/719 33/33/720
f 180/180/721 187/187/722 189/189/723
f 180/180/724 189/189/725 190/190/726
f 190/190/727 189/189/728 166/166/729
f 190/190/730 166/166/731 161/161/732
f 187/187/733 32/32/734 53/53/735
f 187/187/736 53/53/737 189/189/738
f 189/189/739 53/53/740 55/55/741
f 189/189/742 55/55/743 166/166/744
f 180/180/745 190/190/746 191/191/747
f 180/180/748 191/191/749 181/181/750
f 181/181/751 191/191/752 81/81/753
f 181/181/754 81/81/755 72/72/756
f 190/190/757 161/161/758 160/160/759
f 190/190/760 160/160/761 191/191/762
f 191/191/763 160/160/764 83/83/765
f 191/191/766 83/83/767 81/81/768
f 192/192/769 193/193/770 194/194/771
f 192/192/772 194/194/773 195/195/774
f 195/195/775 194/194/776 179/179/777
f 195/195/778 179/179/779 174/174/780
f 193/193/781 62/62/782 87/87/783
f 193/193/784 87/87/785 194/194/786
f 194/194/787 87/87/788 90/90/789
f 194/194/790 90/90/791 179/179/792
f 192/192/793 195/195/794 196/196/795
f 192/192/796 196/196/797 197/197/798
f 197/197/799 196/196/800 14/14/801
f 197/197/802 14/14/803 6/6/804
f 195/195/805 174/174/806 173/173/807
f 195/195/808 173/173/809 196/196/810
f 196/196/811 173/173/812 15/15/813
f 196/196/814 15/15/815 14/14/816
f 192/192/817 197/197/818 198/198/819
f 192/192/820 198/198/821 199/199/822
f 199/199/823 198/198/824 200/200/825
f 199/199/826 200/200/827 201/201/828
f 197/197/829 6/6/830 5/5/831
f 197/197/832 5/5/833 198/198/834
f 198/198/835 5/5/836 9/9/837
f 198/198/838 9/9/839 200/200/840
f 192/192/841 199/199/842 202/202/843
f 192/192/844 202/202/845 193/193/846
f 193/193/847 202/202/848 63/63/849
f 193/193/850 63/63/851 62/62/852
f 199/199/853 201/201/854 203/203/855
f 199/199/856 203/203/857 202/202/858
f 202/202/859 203/203/860 64/64/861
f 202/202/862 64/64/863 63/63/864
f 204/204/865 205/205/866 206/206/867
f 204/204/868 206/206/869 207/207/870
f 207/207/871 206/206/872 208/208/873
f 207/207/874 208/208/875 209/209/876
f 205/205/877 104/104/878 103/103/879
f 205/205/880 103/103/881 206/206/882
f 206/206/883 103/103/884 106/106/885
f 206/206/886 106/106/887 208/208/888
f 210/210/889 211/211/890 212/212/891
f 210/210/892 212/212/893 213/213/894
f 214/214/895 215/215/896 216/216/897
f 214/214/898 216/216/899 217/217/900
f 211/211/901 218/218/902 219/219/903
f 211/211/904 219/219/905 212/212/906
f 212/212/907 219/219/908 220/220/909
f 212/212/910 220/220/911 221/221/912
f 222/222/913 214/214/914 223/223/915
f 222/222/916 223/223/917 224/224/918
f 224/224/919 223/223/920 225/225/921
f 224/224/922 225/225/923 226/226/924
f 214/214/925 217/217/926 227/227/927
f 214/214/928 227/227/929 223/223/930
f 223/223/931 227/227/932 228/228/933
f 223/223/934 228/228/935 225/225/936
f 204/204/937 229/229/938 230/230/939
f 204/204/940 230/230/941 205/205/942
f 205/205/943 230/230/944 109/109/945
f 205/205/946 109/109/947 104/104/948
f 229/229/949 231/231/950 232/232/951
f 229/229/952 232/232/953 230/230/954
f 230/230/955 232/232/956 110/110/957
f 230/230/958 110/110/959 109/109/960
f 233/233/961 234/234/962 235/235/963
f 233/233/964 235/235/965 236/236/966
f 237/237/967 238/238/968 176/176/969
f 237/237/970 176/176/971 175/175/972
f 239/239/973 100/100/974 99/99/975
f 239/239/976 99/99/977 238/238/978
f 238/238/979 99/99/980 15/15/981
f 238/238/982 15/15/983 176/176/984
f 233/233/985 236/236/986 240/240/987
f 233/233/988 240/240/989 241/241/990
f 241/241/991 240/240/992 242/242/993
f 241/241/994 242/242/995 243/243/996
f 236/236/997 165/165/998 164/164/999
f 236/236/1000 164/164/1001 240/240/1002
f 244/244/1003 168/168/1004 55/55/1005
f 244/244/1006 55/55/1007 245/245/1008
f 233/233/1009 241/241/1010 246/246/1011
f 233/233/1012 246/246/1013 247/247/1014
f 247/247/1015 246/246/1016 219/219/1017
f 247/247/1018 219/219/1019 218/218/1020
f 241/241/1021 243/243/1022 248/248/1023
f 241/241/1024 248/248/1025 246/246/1026
f 246/246/1027 248/248/1028 220/220/1029
f 246/246/1030 220/220/1031 219/219/1032
f 233/233/1033 247/247/1034 249/249/1035
f 233/233/1036 249/249/1037 234/234/1038
f 239/239/1039 250/250/1040 105/105/1041
f 239/239/1042 105/105/1043 100/100/1044
f 247/247/1045 218/218/1046 251/251/1047
f 247/247/1048 251/251/1049 249/249/1050
f 250/250/1051 208/208/1052 106/106/1053
f 250/250/1054 106/106/1055 105/105/1056
f 252/252/1057 253/253/1058 254/254/1059
f 252/252/1060 254/254/1061 255/255/1062
f 255/255/1063 254/254/1064 54/54/1065
f 255/255/1066 54/54/1067 48/48/1068
f 253/253/1069 256/256/1070 245/245/1071
f 253/253/1072 245/245/1073 254/254/1074
f 254/254/1075 245/245/1076 55/55/1077
f 254/254/1078 55/55/1079 54/54/1080
f 252/252/1081 255/255/1082 257/257/1083
f 252/252/1084 257/257/1085 258/258/1086
f 258/258/1087 257/257/1088 259/259/1089
f 258/258/1090 259/259/1091 260/260/1092
f 255/255/1093 48/48/1094 47/47/1095
f 255/255/1096 47/47/1097 257/257/1098
f 257/257/1099 47/47/1100 51/51/1101
f 257/257/1102 51/51/1103 259/259/1104
f 252/252/1105 258/258/1106 261/261/1107
f 252/252/1108 261/261/1109 262/262/1110
f 262/262/1111 261/261/1112 227/227/1113
f 262/262/1114 227/227/1115 217/217/1116
f 258/258/1117 260/260/1118 263/263/1119
f 258/258/1120 263/263/1121 261/261/1122
f 261/261/1123 263/263/1124 228/228/1125
f 261/261/1126 228/228/1127 227/227/1128
f 252/252/1129 262/262/1130 264/264/1131
f 252/252/1132 264/264/1133 253/253/1134
f 253/253/1135 264/264/1136 265/265/1137
f 253/253/1138 265/265/1139 256/256/1140
f 262/262/1141 217/217/1142 216/216/1143
f 262/262/1144 216/216/1145 264/264/1146
f 264/264/1147 216/216/1148 266/266/1149
f 264/264/1150 266/266/1151 265/265/1152
f 267/267/1153 268/268/1154 269/269/1155
f 267/267/1156 269/269/1157 270/270/1158
f 270/270/1159 269/269/1160 124/124/1161
f 270/270/1162 124/124/1163 116/116/1164
f 271/271/1165 260/260/1166 259/259/1167
f 271/271/1168 259/259/1169 272/272/1170
f 269/269/1171 273/273/1172 125/125/1173
f 269/269/1174 125/125/1175 124/124/1176
f 267/267/1177 270/270/1178 274/274/1179
f 267/267/1180 274/274/1181 275/275/1182
f 276/276/1183 277/277/1184 96/96/1185
f 276/276/1186 96/96/1187 95/95/1188
f 270/270/1189 116/116/1190 115/115/1191
f 270/270/1192 115/115/1193 274/274/1194
f 277/277/1195 120/120/1196 21/21/1197
f 277/277/1198 21/21/1199 96/96/1200
f 267/267/1201 275/275/1202 278/278/1203
f 267/267/1204 278/278/1205 279/279/1206
f 279/279/1207 278/278/1208 280/280/1209
f 279/279/1210 280/280/1211 281/281/1212
f 276/276/1213 95/95/1214 108/108/1215
f 276/276/1216 108/108/1217 282/282/1218
f 282/282/1219 108/108/1220 110/110/1221
f 282/282/1222 110/110/1223 232/232/1224
f 267/267/1225 279/279/1226 283/283/1227
f 267/267/1228 283/283/1229 268/268/1230
f 271/271/1231 284/284/1232 263/263/1233
f 271/271/1234 263/263/1235 260/260/1236
f 279/279/1237 281/281/1238 285/285/1239
f 279/279/1240 285/285/1241 283/283/1242
f 284/284/1243 225/225/1244 228/228/1245
f 284/284/1246 228/228/1247 263/263/1248
f 286/286/1249 287/287/1250 288/288/1251
f 286/286/1252 288/288/1253 289/289/1254
f 290/290/1255 291/291/1256 203/203/1257
f 290/290/1258 203/203/1259 201/201/1260
f 287/287/1261 292/292/1262 293/293/1263
f 287/287/1264 293/293/1265 288/288/1266
f 291/291/1267 60/60/1268 64/64/1269
f 291/291/1270 64/64/1271 203/203/1272
f 286/286/1273 289/289/1274 294/294/1275
f 286/286/1276 294/294/1277 295/295/1278
f 295/295/1279 294/294/1280 147/147/1281
f 295/295/1282 147/147/1283 139/139/1284
f 290/290/1285 201/201/1286 200/200/1287
f 290/290/1288 200/200/1289 296/296/1290
f 296/296/1291 200/200/1292 9/9/1293
f 296/296/1294 9/9/1295 148/148/1296
f 286/286/1297 295/295/1298 297/297/1299
f 286/286/1300 297/297/1301 298/298/1302
f 299/299/1303 300/300/1304 188/188/1305
f 299/299/1306 188/188/1307 185/185/1308
f 295/295/1309 139/139/1310 138/138/1311
f 295/295/1312 138/138/1313 297/297/1314
f 300/300/1315 142/142/1316 34/34/1317
f 300/300/1318 34/34/1319 188/188/1320
f 286/286/1321 298/298/1322 301/301/1323
f 286/286/1324 301/301/1325 287/287/1326
f 287/287/1327 301/301/1328 302/302/1329
f 287/287/1330 302/302/1331 292/292/1332
f 299/299/1333 185/185/1334 184/184/1335
f 299/299/1336 184/184/1337 303/303/1338
f 303/303/1339 184/184/1340 76/76/1341
f 303/303/1342 76/76/1343 75/75/1344
