# This file uses centimeters as units for non-parametric coordinates.

mtllib cha_fox_tail.mtl
g default
v 0.197166 0.144604 -0.250766
v 0.192222 0.144450 -0.251756
v 0.187785 0.143311 -0.253870
v 0.184290 0.141299 -0.256901
v 0.185503 0.140896 -0.256762
v 0.185112 0.141848 -0.255991
v 0.182474 0.139764 -0.259752
v 0.181269 0.137136 -0.263886
v 0.181615 0.134219 -0.267988
v 0.183480 0.131300 -0.271657
v 0.186679 0.128665 -0.274532
v 0.190900 0.126571 -0.276334
v 0.195731 0.125223 -0.276885
v 0.200697 0.124754 -0.276131
v 0.209025 0.127687 -0.270036
v 0.213447 0.133268 -0.262010
v 0.212587 0.136480 -0.258216
v 0.210242 0.139487 -0.254913
v 0.206640 0.141995 -0.252426
v 0.202134 0.143758 -0.250996
v 0.199184 0.150038 -0.236786
v 0.189426 0.149881 -0.238805
v 0.180653 0.147744 -0.243022
v 0.173723 0.143837 -0.249024
v 0.175738 0.142831 -0.249112
v 0.174656 0.144460 -0.247991
v 0.169472 0.140278 -0.255404
v 0.167117 0.134983 -0.263512
v 0.167821 0.129095 -0.271521
v 0.171515 0.123188 -0.278647
v 0.177838 0.117842 -0.284193
v 0.186171 0.113580 -0.287615
v 0.195698 0.110818 -0.288579
v 0.205486 0.109828 -0.286991
v 0.222118 0.115741 -0.274655
v 0.231112 0.126941 -0.258610
v 0.229470 0.133371 -0.251176
v 0.224894 0.139438 -0.244729
v 0.217831 0.144548 -0.239901
v 0.208971 0.148201 -0.237164
v 0.202601 0.152321 -0.222325
v 0.188296 0.152437 -0.225443
v 0.175392 0.149566 -0.231737
v 0.165154 0.143989 -0.240593
v 0.167487 0.142198 -0.241280
v 0.165436 0.144177 -0.240280
v 0.157885 0.137875 -0.251126
v 0.154480 0.129856 -0.262893
v 0.155554 0.120904 -0.274429
v 0.161002 0.111897 -0.284605
v 0.170291 0.103716 -0.292425
v 0.182511 0.097161 -0.297123
v 0.196466 0.092875 -0.298240
v 0.210790 0.091276 -0.295666
v 0.235364 0.100057 -0.277158
v 0.248908 0.116731 -0.253450
v 0.246638 0.126379 -0.242674
v 0.240059 0.135591 -0.233389
v 0.229814 0.143464 -0.226503
v 0.216907 0.149229 -0.222691
v 0.207093 0.151535 -0.207683
v 0.188648 0.152282 -0.211990
v 0.171934 0.149028 -0.220319
v 0.158586 0.142092 -0.231855
v 0.160734 0.139380 -0.233482
v 0.157489 0.141359 -0.233070
v 0.147820 0.132926 -0.247025
v 0.143497 0.122131 -0.261995
v 0.144941 0.110031 -0.276515
v 0.152012 0.097812 -0.289164
v 0.164018 0.086668 -0.298704
v 0.179782 0.077691 -0.304201
v 0.197763 0.071759 -0.305117
v 0.216200 0.069454 -0.301362
v 0.248016 0.080835 -0.276992
v 0.265896 0.102640 -0.246323
v 0.263216 0.115468 -0.232627
v 0.254969 0.127899 -0.220932
v 0.241959 0.138716 -0.212384
v 0.225463 0.146860 -0.207818
v 0.212184 0.147818 -0.193094
v 0.190147 0.149576 -0.198688
v 0.170059 0.146334 -0.208983
v 0.153887 0.138409 -0.222972
v 0.155373 0.134697 -0.225819
v 0.150785 0.136337 -0.226408
v 0.139300 0.125793 -0.243049
v 0.134201 0.112216 -0.260647
v 0.135989 0.096936 -0.277480
v 0.144488 0.081449 -0.291900
v 0.158866 0.067269 -0.302495
v 0.177715 0.055786 -0.308227
v 0.199191 0.048124 -0.308537
v 0.221191 0.045032 -0.303394
v 0.259236 0.058615 -0.273726
v 0.281041 0.084998 -0.237110
v 0.278222 0.100899 -0.221010
v 0.268732 0.116566 -0.207426
v 0.253499 0.130463 -0.197688
v 0.234014 0.141232 -0.192750
v 0.217303 0.141377 -0.178757
v 0.192349 0.144485 -0.185713
v 0.169439 0.141641 -0.197868
v 0.150815 0.133123 -0.214033
v 0.151240 0.128407 -0.218294
v 0.145245 0.129403 -0.220202
v 0.132277 0.116824 -0.239026
v 0.126546 0.100542 -0.258590
v 0.128613 0.082152 -0.276981
v 0.138276 0.063452 -0.292398
v 0.154588 0.046274 -0.303332
v 0.175953 0.032300 -0.308712
v 0.200281 0.022897 -0.308013
v 0.225188 0.018985 -0.301302
v 0.268193 0.034273 -0.267135
v 0.293329 0.064488 -0.225835
v 0.290669 0.083257 -0.207908
v 0.280428 0.102066 -0.193007
v 0.263608 0.119077 -0.182592
v 0.241857 0.132622 -0.177681
v 0.221845 0.132501 -0.164851
v 0.194755 0.137200 -0.173201
v 0.169673 0.135084 -0.187061
v 0.149055 0.126361 -0.205075
v 0.148131 0.120709 -0.210845
v 0.140756 0.120820 -0.214266
v 0.126655 0.106358 -0.234703
v 0.120422 0.087561 -0.255525
v 0.122666 0.066271 -0.274692
v 0.133168 0.044571 -0.290328
v 0.150899 0.024585 -0.300903
v 0.174125 0.008269 -0.305382
v 0.200571 -0.002779 -0.303325
v 0.227649 -0.007478 -0.294936
v 0.274167 0.008962 -0.257267
v 0.301897 0.042104 -0.212706
v 0.299688 0.063410 -0.193552
v 0.289216 0.085125 -0.177917
v 0.271506 0.105124 -0.167330
v 0.248292 0.121449 -0.162828
v 0.225249 0.121556 -0.151566
v 0.196865 0.127947 -0.161274
v 0.170334 0.126798 -0.176621
v 0.148253 0.118220 -0.196104
v 0.145827 0.111764 -0.203371
v 0.137187 0.110831 -0.208359
v 0.122309 0.094727 -0.229808
v 0.115691 0.073741 -0.251174
v 0.117982 0.049925 -0.270365
v 0.128955 0.025611 -0.285502
v 0.147539 0.003180 -0.295105
v 0.171913 -0.015174 -0.298232
v 0.199691 -0.027653 -0.294579
v 0.228155 -0.033037 -0.284501
v 0.276662 -0.016010 -0.244463
v 0.306149 0.019046 -0.198123
v 0.304648 0.042435 -0.178338
v 0.294450 0.066654 -0.162522
v 0.276552 0.089333 -0.152222
v 0.252707 0.108251 -0.148447
v 0.227058 0.108963 -0.139115
v 0.198240 0.116988 -0.150056
v 0.171020 0.116927 -0.166599
v 0.148062 0.108785 -0.187123
v 0.144120 0.101711 -0.195768
v 0.134411 0.099669 -0.202241
v 0.119109 0.082261 -0.224091
v 0.112217 0.059543 -0.245327
v 0.114411 0.033739 -0.263872
v 0.125475 0.007373 -0.277909
v 0.144326 -0.016972 -0.286066
v 0.169120 -0.036913 -0.287542
v 0.197429 -0.050500 -0.282195
v 0.226483 -0.056401 -0.270547
v 0.275473 -0.039323 -0.229333
v 0.305839 -0.003408 -0.182660
v 0.305233 0.021490 -0.162803
v 0.295751 0.047649 -0.147298
v 0.278322 0.072509 -0.137665
v 0.254652 0.093636 -0.134845
v 0.226969 0.095159 -0.127733
v 0.198545 0.104604 -0.139688
v 0.171664 0.105978 -0.157513
v 0.148636 0.098789 -0.178957
v 0.143267 0.091243 -0.188686
v 0.132783 0.088202 -0.196514
v 0.117212 0.069616 -0.217819
v 0.109889 0.045401 -0.237875
v 0.111854 0.018287 -0.255224
v 0.122642 -0.009419 -0.267717
v 0.141199 -0.035003 -0.274130
v 0.165708 -0.055962 -0.273835
v 0.193769 -0.070245 -0.266862
v 0.222636 -0.076452 -0.253893
v 0.270712 -0.059801 -0.212686
v 0.301088 -0.024063 -0.167007
v 0.301471 0.001677 -0.147582
v 0.293051 0.029076 -0.132801
v 0.276654 0.055452 -0.124113
v 0.253884 0.078222 -0.122367
v 0.224392 0.076761 -0.114710
v 0.197998 0.088201 -0.128525
v 0.172546 0.091518 -0.147768
v 0.150048 0.085632 -0.169669
v 0.143163 0.077814 -0.180496
v 0.132015 0.073591 -0.189640
v 0.116584 0.054148 -0.209747
v 0.108697 0.028567 -0.227426
v 0.109606 0.000108 -0.241836
v 0.119562 -0.028417 -0.251889
v 0.137114 -0.054695 -0.255882
v 0.160475 -0.076198 -0.253334
v 0.187356 -0.090822 -0.244495
v 0.215127 -0.097134 -0.230228
v 0.260523 -0.081526 -0.190387
v 0.289920 -0.047188 -0.147394
v 0.291602 -0.021208 -0.129042
v 0.284856 0.006862 -0.115582
v 0.270343 0.034273 -0.108331
v 0.249484 0.058344 -0.107999
v 0.218688 0.051412 -0.098207
v 0.196008 0.065453 -0.114546
v 0.173038 0.071233 -0.135147
v 0.151750 0.067287 -0.157201
v 0.143064 0.059502 -0.169365
v 0.131277 0.053616 -0.179875
v 0.116384 0.033400 -0.197892
v 0.107978 0.006668 -0.212039
v 0.107160 -0.023064 -0.221724
v 0.114283 -0.052543 -0.226452
v 0.129289 -0.079107 -0.226203
v 0.150279 -0.100678 -0.220298
v 0.174720 -0.115232 -0.208830
v 0.200221 -0.121345 -0.192922
v 0.240326 -0.107707 -0.156364
v 0.267349 -0.076519 -0.118577
v 0.271062 -0.050897 -0.102132
v 0.267143 -0.022638 -0.090871
v 0.255976 0.005492 -0.085897
v 0.239130 0.030829 -0.088183
v 0.207180 0.022840 -0.078773
v 0.189115 0.039369 -0.097196
v 0.169365 0.047665 -0.118545
v 0.150043 0.046186 -0.140451
v 0.139726 0.039065 -0.154028
v 0.127511 0.031139 -0.165405
v 0.113478 0.010344 -0.180440
v 0.104899 -0.016869 -0.190465
v 0.102436 -0.047106 -0.194777
v 0.106312 -0.076786 -0.193315
v 0.116492 -0.102919 -0.186581
v 0.132100 -0.123349 -0.175102
v 0.151809 -0.136630 -0.159850
v 0.173648 -0.141824 -0.142060
v 0.205725 -0.131028 -0.111061
v 0.228742 -0.105034 -0.081044
v 0.235395 -0.080812 -0.067279
v 0.236439 -0.053673 -0.059546
v 0.231816 -0.025907 -0.058860
v 0.221775 0.000319 -0.065439
v 0.183761 -0.000059 -0.056027
v 0.170307 0.018286 -0.075401
v 0.154440 0.028759 -0.096921
v 0.137841 0.029838 -0.118295
v 0.126371 0.023884 -0.132815
v 0.114238 0.014076 -0.144413
v 0.101248 -0.006762 -0.155831
v 0.092639 -0.033580 -0.161419
v 0.089135 -0.063249 -0.160826
v 0.090967 -0.092397 -0.154292
v 0.097950 -0.117955 -0.142581
v 0.109392 -0.137506 -0.126781
v 0.124222 -0.149446 -0.108296
v 0.141095 -0.153043 -0.088768
v 0.163520 -0.145092 -0.064472
v 0.181987 -0.125736 -0.043480
v 0.192129 -0.104099 -0.033089
v 0.197751 -0.078501 -0.028923
v 0.198196 -0.051012 -0.031557
v 0.193373 -0.024012 -0.040877
v 0.142098 -0.004184 -0.030077
v 0.133074 0.014472 -0.049449
v 0.121231 0.025819 -0.070176
v 0.107744 0.028629 -0.090173
v 0.095903 0.023862 -0.105292
v 0.083968 0.012750 -0.116500
v 0.072194 -0.006927 -0.124484
v 0.063666 -0.031877 -0.126319
v 0.059204 -0.059539 -0.121882
v 0.059229 -0.087090 -0.111664
v 0.063726 -0.111759 -0.096696
v 0.072255 -0.131138 -0.078443
v 0.083990 -0.143408 -0.058649
v 0.097799 -0.147497 -0.039192
v 0.113373 -0.142452 -0.020784
v 0.127232 -0.127843 -0.006595
v 0.137840 -0.107448 0.000989
v 0.145160 -0.082453 0.002299
v 0.148459 -0.055177 -0.002856
v 0.147403 -0.028208 -0.014011
v 0.083271 0.010751 -0.001331
v 0.077742 0.026985 -0.018914
v 0.069348 0.037150 -0.037316
v 0.058911 0.040253 -0.054737
v 0.047707 0.036159 -0.069188
v 0.036502 0.025289 -0.079554
v 0.026241 0.008364 -0.085057
v 0.018181 -0.012789 -0.084878
v 0.013112 -0.036100 -0.079032
v 0.011530 -0.059287 -0.068094
v 0.013590 -0.080080 -0.053133
v 0.019090 -0.096444 -0.035613
v 0.027492 -0.106777 -0.017251
v 0.037973 -0.110068 0.000157
v 0.049504 -0.105996 0.014903
v 0.060859 -0.094785 0.025503
v 0.071005 -0.077720 0.030940
v 0.078946 -0.056473 0.030677
v 0.083904 -0.033125 0.024741
v 0.085395 -0.009961 0.013712
v 0.023751 0.021498 0.026977
v 0.019647 0.033346 0.013727
v 0.013296 0.040675 -0.000239
v 0.005306 0.042769 -0.013543
v -0.003540 0.039414 -0.024880
v -0.012385 0.030954 -0.033137
v -0.020356 0.018204 -0.037508
v -0.026670 0.002416 -0.037569
v -0.030698 -0.014862 -0.033326
v -0.032080 -0.031906 -0.025182
v -0.030646 -0.047068 -0.013952
v -0.026550 -0.058858 -0.000731
v -0.020190 -0.066128 0.013192
v -0.012191 -0.068174 0.026458
v -0.003335 -0.064805 0.037776
v 0.005501 -0.056360 0.046052
v 0.013461 -0.043656 0.050460
v 0.019767 -0.027929 0.050565
v 0.023802 -0.010709 0.046350
v 0.025171 0.006325 0.038224
v -0.018626 0.022865 0.043438
v -0.021458 0.030032 0.034995
v -0.025816 0.034314 0.025946
v -0.031271 0.035284 0.017180
v -0.037292 0.032841 0.009560
v -0.043313 0.027242 0.003843
v -0.048721 0.019018 0.000578
v -0.052985 0.008979 0.000080
v -0.055688 -0.001884 0.002392
v -0.056566 -0.012500 0.007284
v -0.055532 -0.021826 0.014276
v -0.052689 -0.028950 0.022682
v -0.048314 -0.033181 0.031685
v -0.042835 -0.034113 0.040407
v -0.036789 -0.031663 0.048000
v -0.030793 -0.026072 0.053744
v -0.025409 -0.017885 0.057052
v -0.021163 -0.007897 0.057598
v -0.018471 0.002923 0.055321
v -0.017597 0.013523 0.050442
v -0.044727 0.018147 0.047771
v -0.046203 0.021454 0.043729
v -0.048441 0.023366 0.039330
v -0.051191 0.023676 0.034991
v -0.054267 0.022395 0.031186
v -0.057315 0.019620 0.028256
v -0.060064 0.015638 0.026505
v -0.062163 0.010797 0.026053
v -0.063489 0.005618 0.026992
v -0.063888 0.000600 0.029214
v -0.063318 -0.003768 0.032497
v -0.061823 -0.007061 0.036514
v -0.059561 -0.008957 0.040879
v -0.056757 -0.009271 0.045172
v -0.053669 -0.007981 0.048962
v -0.050660 -0.005200 0.051924
v -0.047965 -0.001213 0.053721
v -0.045864 0.003596 0.054190
v -0.044556 0.008761 0.053276
v -0.044161 0.013773 0.051062
v 0.196681 0.135977 -0.263889
v -0.058742 0.009035 0.043282
vt 0.000000 0.050000
vt 0.050000 0.050000
vt 0.100000 0.050000
vt 0.150000 0.050000
vt 0.200000 0.050000
vt 0.250000 0.050000
vt 0.300000 0.050000
vt 0.350000 0.050000
vt 0.400000 0.050000
vt 0.450000 0.050000
vt 0.500000 0.050000
vt 0.550000 0.050000
vt 0.600000 0.050000
vt 0.650000 0.050000
vt 0.700000 0.050000
vt 0.750000 0.050000
vt 0.800000 0.050000
vt 0.850000 0.050000
vt 0.900000 0.050000
vt 0.950000 0.050000
vt 1.000000 0.050000
vt 0.000000 0.100000
vt 0.050000 0.100000
vt 0.100000 0.100000
vt 0.150000 0.100000
vt 0.200000 0.100000
vt 0.250000 0.100000
vt 0.300000 0.100000
vt 0.350000 0.100000
vt 0.400000 0.100000
vt 0.450000 0.100000
vt 0.500000 0.100000
vt 0.550000 0.100000
vt 0.600000 0.100000
vt 0.650000 0.100000
vt 0.700000 0.100000
vt 0.750000 0.100000
vt 0.800000 0.100000
vt 0.850000 0.100000
vt 0.900000 0.100000
vt 0.950000 0.100000
vt 1.000000 0.100000
vt 0.000000 0.150000
vt 0.050000 0.150000
vt 0.100000 0.150000
vt 0.150000 0.150000
vt 0.200000 0.150000
vt 0.250000 0.150000
vt 0.300000 0.150000
vt 0.350000 0.150000
vt 0.400000 0.150000
vt 0.450000 0.150000
vt 0.500000 0.150000
vt 0.550000 0.150000
vt 0.600000 0.150000
vt 0.650000 0.150000
vt 0.700000 0.150000
vt 0.750000 0.150000
vt 0.800000 0.150000
vt 0.850000 0.150000
vt 0.900000 0.150000
vt 0.950000 0.150000
vt 1.000000 0.150000
vt 0.000000 0.200000
vt 0.050000 0.200000
vt 0.100000 0.200000
vt 0.150000 0.200000
vt 0.200000 0.200000
vt 0.250000 0.200000
vt 0.300000 0.200000
vt 0.350000 0.200000
vt 0.400000 0.200000
vt 0.450000 0.200000
vt 0.500000 0.200000
vt 0.550000 0.200000
vt 0.600000 0.200000
vt 0.650000 0.200000
vt 0.700000 0.200000
vt 0.750000 0.200000
vt 0.800000 0.200000
vt 0.850000 0.200000
vt 0.900000 0.200000
vt 0.950000 0.200000
vt 1.000000 0.200000
vt 0.000000 0.250000
vt 0.050000 0.250000
vt 0.100000 0.250000
vt 0.150000 0.250000
vt 0.200000 0.250000
vt 0.250000 0.250000
vt 0.300000 0.250000
vt 0.350000 0.250000
vt 0.400000 0.250000
vt 0.450000 0.250000
vt 0.500000 0.250000
vt 0.550000 0.250000
vt 0.600000 0.250000
vt 0.650000 0.250000
vt 0.700000 0.250000
vt 0.750000 0.250000
vt 0.800000 0.250000
vt 0.850000 0.250000
vt 0.900000 0.250000
vt 0.950000 0.250000
vt 1.000000 0.250000
vt 0.000000 0.300000
vt 0.050000 0.300000
vt 0.100000 0.300000
vt 0.150000 0.300000
vt 0.200000 0.300000
vt 0.250000 0.300000
vt 0.300000 0.300000
vt 0.350000 0.300000
vt 0.400000 0.300000
vt 0.450000 0.300000
vt 0.500000 0.300000
vt 0.550000 0.300000
vt 0.600000 0.300000
vt 0.650000 0.300000
vt 0.700000 0.300000
vt 0.750000 0.300000
vt 0.800000 0.300000
vt 0.850000 0.300000
vt 0.900000 0.300000
vt 0.950000 0.300000
vt 1.000000 0.300000
vt 0.000000 0.350000
vt 0.050000 0.350000
vt 0.100000 0.350000
vt 0.150000 0.350000
vt 0.200000 0.350000
vt 0.250000 0.350000
vt 0.300000 0.350000
vt 0.350000 0.350000
vt 0.400000 0.350000
vt 0.450000 0.350000
vt 0.500000 0.350000
vt 0.550000 0.350000
vt 0.600000 0.350000
vt 0.650000 0.350000
vt 0.700000 0.350000
vt 0.750000 0.350000
vt 0.800000 0.350000
vt 0.850000 0.350000
vt 0.900000 0.350000
vt 0.950000 0.350000
vt 1.000000 0.350000
vt 0.000000 0.400000
vt 0.050000 0.400000
vt 0.100000 0.400000
vt 0.150000 0.400000
vt 0.200000 0.400000
vt 0.250000 0.400000
vt 0.300000 0.400000
vt 0.350000 0.400000
vt 0.400000 0.400000
vt 0.450000 0.400000
vt 0.500000 0.400000
vt 0.550000 0.400000
vt 0.600000 0.400000
vt 0.650000 0.400000
vt 0.700000 0.400000
vt 0.750000 0.400000
vt 0.800000 0.400000
vt 0.850000 0.400000
vt 0.900000 0.400000
vt 0.950000 0.400000
vt 1.000000 0.400000
vt 0.000000 0.450000
vt 0.050000 0.450000
vt 0.100000 0.450000
vt 0.150000 0.450000
vt 0.200000 0.450000
vt 0.250000 0.450000
vt 0.300000 0.450000
vt 0.350000 0.450000
vt 0.400000 0.450000
vt 0.450000 0.450000
vt 0.500000 0.450000
vt 0.550000 0.450000
vt 0.600000 0.450000
vt 0.650000 0.450000
vt 0.700000 0.450000
vt 0.750000 0.450000
vt 0.800000 0.450000
vt 0.850000 0.450000
vt 0.900000 0.450000
vt 0.950000 0.450000
vt 1.000000 0.450000
vt 0.000000 0.500000
vt 0.050000 0.500000
vt 0.100000 0.500000
vt 0.150000 0.500000
vt 0.200000 0.500000
vt 0.250000 0.500000
vt 0.300000 0.500000
vt 0.350000 0.500000
vt 0.400000 0.500000
vt 0.450000 0.500000
vt 0.500000 0.500000
vt 0.550000 0.500000
vt 0.600000 0.500000
vt 0.650000 0.500000
vt 0.700000 0.500000
vt 0.750000 0.500000
vt 0.800000 0.500000
vt 0.850000 0.500000
vt 0.900000 0.500000
vt 0.950000 0.500000
vt 1.000000 0.500000
vt 0.000000 0.550000
vt 0.050000 0.550000
vt 0.100000 0.550000
vt 0.150000 0.550000
vt 0.200000 0.550000
vt 0.250000 0.550000
vt 0.300000 0.550000
vt 0.350000 0.550000
vt 0.400000 0.550000
vt 0.450000 0.550000
vt 0.500000 0.550000
vt 0.550000 0.550000
vt 0.600000 0.550000
vt 0.650000 0.550000
vt 0.700000 0.550000
vt 0.750000 0.550000
vt 0.800000 0.550000
vt 0.850000 0.550000
vt 0.900000 0.550000
vt 0.950000 0.550000
vt 1.000000 0.550000
vt 0.000000 0.600000
vt 0.050000 0.600000
vt 0.100000 0.600000
vt 0.150000 0.600000
vt 0.200000 0.600000
vt 0.250000 0.600000
vt 0.300000 0.600000
vt 0.350000 0.600000
vt 0.400000 0.600000
vt 0.450000 0.600000
vt 0.500000 0.600000
vt 0.550000 0.600000
vt 0.600000 0.600000
vt 0.650000 0.600000
vt 0.700000 0.600000
vt 0.750000 0.600000
vt 0.800000 0.600000
vt 0.850000 0.600000
vt 0.900000 0.600000
vt 0.950000 0.600000
vt 1.000000 0.600000
vt 0.000000 0.650000
vt 0.050000 0.650000
vt 0.100000 0.650000
vt 0.150000 0.650000
vt 0.200000 0.650000
vt 0.250000 0.650000
vt 0.300000 0.650000
vt 0.350000 0.650000
vt 0.400000 0.650000
vt 0.450000 0.650000
vt 0.500000 0.650000
vt 0.550000 0.650000
vt 0.600000 0.650000
vt 0.650000 0.650000
vt 0.700000 0.650000
vt 0.750000 0.650000
vt 0.800000 0.650000
vt 0.850000 0.650000
vt 0.900000 0.650000
vt 0.950000 0.650000
vt 1.000000 0.650000
vt 0.000000 0.700000
vt 0.050000 0.700000
vt 0.100000 0.700000
vt 0.150000 0.700000
vt 0.200000 0.700000
vt 0.250000 0.700000
vt 0.300000 0.700000
vt 0.350000 0.700000
vt 0.400000 0.700000
vt 0.450000 0.700000
vt 0.500000 0.700000
vt 0.550000 0.700000
vt 0.600000 0.700000
vt 0.650000 0.700000
vt 0.700000 0.700000
vt 0.750000 0.700000
vt 0.800000 0.700000
vt 0.850000 0.700000
vt 0.900000 0.700000
vt 0.950000 0.700000
vt 1.000000 0.700000
vt 0.000000 0.750000
vt 0.050000 0.750000
vt 0.100000 0.750000
vt 0.150000 0.750000
vt 0.200000 0.750000
vt 0.250000 0.750000
vt 0.300000 0.750000
vt 0.350000 0.750000
vt 0.400000 0.750000
vt 0.450000 0.750000
vt 0.500000 0.750000
vt 0.550000 0.750000
vt 0.600000 0.750000
vt 0.650000 0.750000
vt 0.700000 0.750000
vt 0.750000 0.750000
vt 0.800000 0.750000
vt 0.850000 0.750000
vt 0.900000 0.750000
vt 0.950000 0.750000
vt 1.000000 0.750000
vt 0.000000 0.800000
vt 0.050000 0.800000
vt 0.100000 0.800000
vt 0.150000 0.800000
vt 0.200000 0.800000
vt 0.250000 0.800000
vt 0.300000 0.800000
vt 0.350000 0.800000
vt 0.400000 0.800000
vt 0.450000 0.800000
vt 0.500000 0.800000
vt 0.550000 0.800000
vt 0.600000 0.800000
vt 0.650000 0.800000
vt 0.700000 0.800000
vt 0.750000 0.800000
vt 0.800000 0.800000
vt 0.850000 0.800000
vt 0.900000 0.800000
vt 0.950000 0.800000
vt 1.000000 0.800000
vt 0.000000 0.850000
vt 0.050000 0.850000
vt 0.100000 0.850000
vt 0.150000 0.850000
vt 0.200000 0.850000
vt 0.250000 0.850000
vt 0.300000 0.850000
vt 0.350000 0.850000
vt 0.400000 0.850000
vt 0.450000 0.850000
vt 0.500000 0.850000
vt 0.550000 0.850000
vt 0.600000 0.850000
vt 0.650000 0.850000
vt 0.700000 0.850000
vt 0.750000 0.850000
vt 0.800000 0.850000
vt 0.850000 0.850000
vt 0.900000 0.850000
vt 0.950000 0.850000
vt 1.000000 0.850000
vt 0.000000 0.900000
vt 0.050000 0.900000
vt 0.100000 0.900000
vt 0.150000 0.900000
vt 0.200000 0.900000
vt 0.250000 0.900000
vt 0.300000 0.900000
vt 0.350000 0.900000
vt 0.400000 0.900000
vt 0.450000 0.900000
vt 0.500000 0.900000
vt 0.550000 0.900000
vt 0.600000 0.900000
vt 0.650000 0.900000
vt 0.700000 0.900000
vt 0.750000 0.900000
vt 0.800000 0.900000
vt 0.850000 0.900000
vt 0.900000 0.900000
vt 0.950000 0.900000
vt 1.000000 0.900000
vt 0.000000 0.950000
vt 0.050000 0.950000
vt 0.100000 0.950000
vt 0.150000 0.950000
vt 0.200000 0.950000
vt 0.250000 0.950000
vt 0.300000 0.950000
vt 0.350000 0.950000
vt 0.400000 0.950000
vt 0.450000 0.950000
vt 0.500000 0.950000
vt 0.550000 0.950000
vt 0.600000 0.950000
vt 0.650000 0.950000
vt 0.700000 0.950000
vt 0.750000 0.950000
vt 0.800000 0.950000
vt 0.850000 0.950000
vt 0.900000 0.950000
vt 0.950000 0.950000
vt 1.000000 0.950000
vt 0.025000 0.000000
vt 0.075000 0.000000
vt 0.125000 0.000000
vt 0.175000 0.000000
vt 0.225000 0.000000
vt 0.275000 0.000000
vt 0.325000 0.000000
vt 0.375000 0.000000
vt 0.425000 0.000000
vt 0.475000 0.000000
vt 0.525000 0.000000
vt 0.575000 0.000000
vt 0.625000 0.000000
vt 0.675000 0.000000
vt 0.725000 0.000000
vt 0.775000 0.000000
vt 0.825000 0.000000
vt 0.875000 0.000000
vt 0.925000 0.000000
vt 0.975000 0.000000
vt 0.025000 1.000000
vt 0.075000 1.000000
vt 0.125000 1.000000
vt 0.175000 1.000000
vt 0.225000 1.000000
vt 0.275000 1.000000
vt 0.325000 1.000000
vt 0.375000 1.000000
vt 0.425000 1.000000
vt 0.475000 1.000000
vt 0.525000 1.000000
vt 0.575000 1.000000
vt 0.625000 1.000000
vt 0.675000 1.000000
vt 0.725000 1.000000
vt 0.775000 1.000000
vt 0.825000 1.000000
vt 0.875000 1.000000
vt 0.925000 1.000000
vt 0.975000 1.000000
vn 0.027023 0.886164 -0.462584
vn -0.032170 0.960184 -0.277510
vn 0.093369 0.887800 -0.450658
vn 0.099578 0.959627 -0.263058
vn -0.033012 0.870763 -0.490593
vn -0.155044 0.932203 -0.327047
vn -0.109592 0.798242 -0.592283
vn -0.284720 0.839193 -0.463346
vn 0.007821 -0.859453 0.511155
vn 0.166951 -0.903755 0.394151
vn 0.064397 0.914430 -0.399587
vn -0.107003 0.957870 -0.266525
vn -0.036857 0.868196 -0.494850
vn -0.233817 0.879598 -0.414291
vn -0.052659 0.832954 -0.550831
vn -0.257937 0.809420 -0.527549
vn -0.046666 0.794289 -0.605746
vn -0.236485 0.735210 -0.635248
vn -0.020405 0.756409 -0.653781
vn -0.176645 0.665719 -0.724993
vn 0.022569 0.723035 -0.690442
vn -0.088811 0.607315 -0.789482
vn 0.077480 0.697130 -0.712746
vn 0.016388 0.564113 -0.825535
vn 0.138946 0.680796 -0.719173
vn 0.129085 0.538562 -0.832639
vn 0.250434 0.661664 -0.706741
vn 0.325377 0.525852 -0.785881
vn 0.282840 0.686834 -0.669522
vn 0.421084 0.556847 -0.715968
vn 0.318112 0.706859 -0.631787
vn 0.470436 0.622719 -0.625229
vn 0.290801 0.782203 -0.550993
vn 0.453443 0.755163 -0.473412
vn 0.261845 0.820242 -0.508566
vn 0.406428 0.824574 -0.393566
vn 0.216592 0.852602 -0.475560
vn 0.328484 0.885977 -0.327326
vn 0.158714 0.876024 -0.455403
vn 0.223744 0.933094 -0.281558
vn -0.084097 0.993657 -0.074657
vn 0.111080 0.991571 -0.066688
vn -0.270626 0.952809 -0.137537
vn -0.445989 0.843462 -0.299441
vn 0.183301 -0.906286 0.380850
vn -0.285560 0.950594 -0.121767
vn -0.430267 0.846203 -0.314342
vn -0.455860 0.745399 -0.486387
vn -0.412312 0.642058 -0.646343
vn -0.315361 0.548015 -0.774743
vn -0.183401 0.470966 -0.862876
vn -0.032327 0.415379 -0.909074
vn 0.124891 0.383773 -0.914943
vn 0.392524 0.380076 -0.837536
vn 0.531772 0.421704 -0.734427
vn 0.602995 0.520625 -0.604440
vn 0.597955 0.699679 -0.391022
vn 0.537734 0.796058 -0.277730
vn 0.433651 0.883023 -0.179490
vn 0.288893 0.951527 -0.105532
vn -0.126652 0.983637 0.128131
vn 0.123984 0.984558 0.123584
vn -0.369370 0.927246 0.061491
vn -0.581324 0.805621 -0.114183
vn -0.648487 0.749397 0.133675
vn -0.454246 0.890481 0.026551
vn -0.607299 0.768360 -0.202016
vn -0.629635 0.647753 -0.428925
vn -0.563258 0.525629 -0.637538
vn -0.431790 0.414750 -0.800962
vn -0.260736 0.324014 -0.909413
vn -0.070306 0.258815 -0.963365
vn 0.124308 0.222359 -0.967008
vn 0.440191 0.232985 -0.867150
vn 0.623025 0.278975 -0.730762
vn 0.713042 0.415190 -0.564967
vn 0.721629 0.621238 -0.305474
vn 0.651419 0.740770 -0.164053
vn 0.526199 0.849517 -0.037878
vn 0.347927 0.935431 0.062575
vn -0.160002 0.936753 0.311277
vn 0.133651 0.946018 0.295275
vn -0.443103 0.862092 0.245881
vn -0.677962 0.731886 0.068633
vn -0.689998 0.694366 0.204350
vn -0.593243 0.788459 0.162465
vn -0.746121 0.659740 -0.089704
vn -0.766392 0.531817 -0.360298
vn -0.683866 0.400094 -0.610125
vn -0.525920 0.277374 -0.804035
vn -0.323558 0.175010 -0.929883
vn -0.101022 0.100648 -0.989780
vn 0.124271 0.058999 -0.990493
vn 0.484859 0.072700 -0.871565
vn 0.691867 0.138998 -0.708520
vn 0.808043 0.288517 -0.513638
vn 0.822721 0.525414 -0.216956
vn 0.744625 0.665358 -0.053223
vn 0.601821 0.792964 0.094976
vn 0.395440 0.892643 0.216371
vn -0.186589 0.867160 0.461755
vn 0.136242 0.886720 0.441775
vn -0.491263 0.775844 0.395887
vn -0.733600 0.641226 0.225078
vn -0.737937 0.603243 0.302568
vn -0.691601 0.669272 0.271596
vn -0.839461 0.543323 0.010257
vn -0.863021 0.415449 -0.287396
vn -0.775001 0.278207 -0.567428
vn -0.601198 0.144697 -0.785890
vn -0.376282 0.030044 -0.926018
vn -0.128702 -0.054728 -0.990172
vn 0.121352 -0.102846 -0.987267
vn 0.519662 -0.082694 -0.850361
vn 0.743945 -0.005832 -0.668215
vn 0.876884 0.155851 -0.454736
vn 0.900195 0.417253 -0.124695
vn 0.815633 0.575883 0.055682
vn 0.657797 0.720585 0.219227
vn 0.427763 0.831820 0.353687
vn -0.209705 0.789783 0.576426
vn 0.129386 0.816833 0.562177
vn -0.520065 0.688721 0.505170
vn -0.760125 0.549331 0.347052
vn -0.773049 0.490497 0.402254
vn -0.753443 0.553796 0.354450
vn -0.893744 0.439185 0.091318
vn -0.925210 0.311980 -0.215998
vn -0.841591 0.168431 -0.513182
vn -0.662449 0.022333 -0.748774
vn -0.423604 -0.106867 -0.899521
vn -0.157546 -0.204172 -0.966174
vn 0.112134 -0.260451 -0.958953
vn 0.539661 -0.237057 -0.807818
vn 0.777198 -0.150551 -0.610980
vn 0.923798 0.019464 -0.382385
vn 0.953171 0.301180 -0.027503
vn 0.863169 0.477446 0.164271
vn 0.692349 0.638349 0.336399
vn 0.442739 0.760358 0.475224
vn -0.232143 0.715032 0.659423
vn 0.112008 0.743678 0.659088
vn -0.537350 0.613429 0.578757
vn -0.765746 0.485126 0.422241
vn -0.778908 0.460686 0.425523
vn -0.785088 0.472209 0.400818
vn -0.921458 0.356927 0.153357
vn -0.962289 0.227452 -0.149216
vn -0.889726 0.074736 -0.450335
vn -0.714246 -0.086598 -0.694517
vn -0.469596 -0.232936 -0.851599
vn -0.191267 -0.345064 -0.918884
vn 0.093430 -0.411269 -0.906713
vn 0.542731 -0.388477 -0.744667
vn 0.790821 -0.293546 -0.537060
vn 0.947901 -0.117909 -0.295940
vn 0.980537 0.181127 0.075760
vn 0.885898 0.374251 0.274081
vn 0.704058 0.550812 0.448228
vn 0.439174 0.683636 0.582897
vn -0.257249 0.646670 0.718082
vn 0.083854 0.671412 0.736325
vn -0.552258 0.545236 0.630657
vn -0.766733 0.422553 0.483290
vn -0.786864 0.402538 0.467769
vn -0.804666 0.397223 0.441280
vn -0.934146 0.290216 0.207717
vn -0.983060 0.161984 -0.085756
vn -0.924712 -0.002092 -0.380663
vn -0.760006 -0.180437 -0.624366
vn -0.517192 -0.345795 -0.782904
vn -0.232765 -0.474666 -0.848830
vn 0.062450 -0.552441 -0.831210
vn 0.526638 -0.534400 -0.661112
vn 0.783279 -0.432759 -0.446311
vn 0.947524 -0.253340 -0.194978
vn 0.980713 0.060760 0.185770
vn 0.882162 0.269864 0.385957
vn 0.691547 0.461381 0.555779
vn 0.416412 0.605155 0.678519
vn -0.299375 0.573265 0.762720
vn 0.037257 0.601745 0.797819
vn -0.576608 0.467384 0.670131
vn -0.768961 0.349848 0.535075
vn -0.790921 0.333335 0.513159
vn -0.811812 0.321232 0.487617
vn -0.934083 0.228667 0.274226
vn -0.993974 0.109423 -0.006551
vn -0.952588 -0.059258 -0.298437
vn -0.804004 -0.255272 -0.537041
vn -0.571093 -0.442022 -0.691715
vn -0.287653 -0.591050 -0.753602
vn 0.013054 -0.683985 -0.729380
vn 0.484515 -0.678110 -0.552642
vn 0.750051 -0.571708 -0.332526
vn 0.918841 -0.388073 -0.071623
vn 0.949623 -0.058558 0.307874
vn 0.847586 0.167045 0.503680
vn 0.650494 0.373734 0.661196
vn 0.370363 0.528951 0.763572
vn -0.342605 0.524419 0.779491
vn -0.008032 0.557559 0.830099
vn -0.598548 0.420361 0.681936
vn -0.768298 0.315350 0.557022
vn -0.791043 0.306777 0.529282
vn -0.812595 0.285770 0.507962
vn -0.925889 0.201769 0.319404
vn -0.994342 0.089200 0.057690
vn -0.968656 -0.083930 -0.233796
vn -0.828436 -0.297081 -0.474802
vn -0.603008 -0.504964 -0.617570
vn -0.327662 -0.674008 -0.662081
vn -0.031260 -0.782661 -0.621663
vn 0.428106 -0.792558 -0.434255
vn 0.694957 -0.686628 -0.213487
vn 0.863721 -0.501660 0.048190
vn 0.898508 -0.161776 0.408058
vn 0.803123 0.081113 0.590266
vn 0.612466 0.306710 0.728570
vn 0.333524 0.478856 0.812071
vn -0.349246 0.553462 0.756113
vn -0.027865 0.563994 0.825309
vn -0.591073 0.475907 0.651264
vn -0.751770 0.393264 0.529326
vn -0.787659 0.394119 0.473564
vn -0.824418 0.344752 0.448867
vn -0.926346 0.252017 0.279949
vn -0.991151 0.124809 0.045202
vn -0.972893 -0.067080 -0.221312
vn -0.840779 -0.309398 -0.444256
vn -0.616581 -0.548236 -0.565036
vn -0.348862 -0.738497 -0.576990
vn -0.067756 -0.862197 -0.502021
vn 0.353483 -0.887292 -0.296247
vn 0.611085 -0.787838 -0.076731
vn 0.777903 -0.603871 0.173799
vn 0.829912 -0.262749 0.492148
vn 0.759492 0.001644 0.650515
vn 0.587134 0.255585 0.768082
vn 0.311256 0.459912 0.831625
vn -0.230868 0.690821 0.685176
vn 0.037575 0.624768 0.779906
vn -0.470080 0.686183 0.555137
vn -0.657460 0.635357 0.405053
vn -0.734242 0.611923 0.294005
vn -0.818660 0.527748 0.226448
vn -0.921308 0.384872 0.055363
vn -0.971213 0.196431 -0.134757
vn -0.949167 -0.034162 -0.312913
vn -0.838347 -0.305223 -0.451679
vn -0.637600 -0.576557 -0.510928
vn -0.378152 -0.793711 -0.476469
vn -0.105958 -0.923776 -0.367983
vn 0.260991 -0.952823 -0.154961
vn 0.505547 -0.860540 0.062399
vn 0.670277 -0.679508 0.298325
vn 0.739979 -0.358872 0.568895
vn 0.696401 -0.076141 0.713602
vn 0.551153 0.217273 0.805619
vn 0.315934 0.465586 0.826689
vn 0.088693 0.827694 0.554126
vn 0.243909 0.669416 0.701706
vn -0.097912 0.931149 0.351246
vn -0.299287 0.947454 0.112954
vn -0.469128 0.876839 -0.105229
vn -0.642336 0.718357 -0.267148
vn -0.781116 0.474932 -0.405337
vn -0.850584 0.200458 -0.486130
vn -0.854744 -0.064247 -0.515058
vn -0.797041 -0.326732 -0.507910
vn -0.667903 -0.584762 -0.460390
vn -0.464745 -0.809660 -0.358418
vn -0.211730 -0.956387 -0.201231
vn 0.110223 -0.993738 0.018319
vn 0.344218 -0.908490 0.236981
vn 0.509169 -0.727328 0.460152
vn 0.591454 -0.420033 0.688298
vn 0.584739 -0.108832 0.803888
vn 0.505741 0.198979 0.839424
vn 0.383681 0.461734 0.799744
vn 0.339827 0.824518 0.452424
vn 0.409541 0.652067 0.638032
vn 0.222584 0.952842 0.206273
vn 0.047173 0.995060 -0.087356
vn -0.183526 0.906251 -0.380823
vn -0.412947 0.687767 -0.597036
vn -0.591119 0.409479 -0.694914
vn -0.701512 0.129128 -0.700862
vn -0.751622 -0.123340 -0.647960
vn -0.752315 -0.350231 -0.557997
vn -0.704306 -0.560259 -0.435962
vn -0.601322 -0.750531 -0.274071
vn -0.437549 -0.897079 -0.061648
vn -0.198795 -0.957994 0.206709
vn 0.044455 -0.872766 0.486111
vn 0.257407 -0.653349 0.711952
vn 0.389302 -0.344921 0.854092
vn 0.450914 -0.047865 0.891283
vn 0.464089 0.219976 0.858039
vn 0.448192 0.451448 0.771569
vn 0.442779 0.646373 0.621409
vn 0.383658 0.811756 0.440293
vn 0.264667 0.941837 0.207108
vn 0.074734 0.993761 -0.082783
vn -0.173232 0.904751 -0.389122
vn -0.409199 0.670595 -0.618756
vn -0.575734 0.380632 -0.723637
vn -0.674051 0.105435 -0.731122
vn -0.726636 -0.134543 -0.673720
vn -0.746034 -0.342060 -0.571339
vn -0.735800 -0.525049 -0.427693
vn -0.689599 -0.684404 -0.236738
vn -0.591796 -0.805996 0.012165
vn -0.423226 -0.849446 0.315153
vn -0.185851 -0.758197 0.624977
vn 0.056806 -0.528891 0.846787
vn 0.243793 -0.248004 0.937581
vn 0.364712 0.019648 0.930913
vn 0.431715 0.254599 0.865333
vn 0.456748 0.461137 0.760746
vn 0.289802 0.828962 0.478368
vn 0.366233 0.665123 0.650757
vn 0.149321 0.954676 0.257483
vn -0.052357 0.998593 -0.008461
vn -0.290845 0.912516 -0.287616
vn -0.505205 0.696187 -0.509992
vn -0.652923 0.418955 -0.631006
vn -0.737824 0.142729 -0.659731
vn -0.779591 -0.100040 -0.618247
vn -0.791316 -0.313211 -0.525089
vn -0.781917 -0.495886 -0.377761
vn -0.743452 -0.645520 -0.174879
vn -0.660986 -0.745517 0.085452
vn -0.516050 -0.764276 0.386748
vn -0.305061 -0.668334 0.678430
vn -0.068456 -0.465380 0.882460
vn 0.135417 -0.213692 0.967470
vn 0.280458 0.038231 0.959105
vn 0.364152 0.269440 0.891513
vn 0.392603 0.477391 0.786105
vn 0.103950 0.843655 0.526726
vn 0.192796 0.686871 0.700741
vn -0.042073 0.946695 0.319371
vn -0.230240 0.969047 0.089097
vn -0.434381 0.889154 -0.143935
vn -0.615973 0.711429 -0.338299
vn -0.748270 0.475021 -0.463083
vn -0.831966 0.218595 -0.509951
vn -0.875530 -0.026540 -0.482434
vn -0.889304 -0.239101 -0.389833
vn -0.874225 -0.419429 -0.244561
vn -0.829002 -0.557895 -0.038850
vn -0.743640 -0.634703 0.210125
vn -0.611205 -0.633145 0.474928
vn -0.432089 -0.544823 0.718656
vn -0.231017 -0.379261 0.895987
vn -0.044092 -0.167556 0.984876
vn 0.102399 0.064079 0.992677
vn 0.192318 0.292792 0.936636
vn 0.218808 0.500877 0.837404
vn -0.250101 0.759968 0.599915
vn -0.184146 0.643179 0.743243
vn -0.356829 0.827369 0.433745
vn -0.484777 0.833531 0.264987
vn -0.621168 0.777880 0.095142
vn -0.756695 0.652755 -0.036382
vn -0.863836 0.487601 -0.126620
vn -0.940608 0.297040 -0.164388
vn -0.983775 0.109200 -0.142348
vn -0.997321 -0.049282 -0.054050
vn -0.979065 -0.198500 0.045048
vn -0.930397 -0.304092 0.204671
vn -0.851483 -0.355517 0.385466
vn -0.745972 -0.348891 0.567276
vn -0.614379 -0.294170 0.732121
vn -0.483521 -0.173627 0.857940
vn -0.356083 -0.024724 0.934127
vn -0.251804 0.149066 0.956229
vn -0.184495 0.332123 0.925017
vn -0.181536 0.495487 0.849433
vn 0.139184 0.787440 -0.600471
vn -0.790833 0.298439 0.534339
s 1
g pSphere10 tail group2
usemtl cha_bird_body:lambert5SG
f 2/2/1 22/23/2 1/1/3
f 1/1/3 22/23/2 21/22/4
f 3/3/5 23/24/6 2/2/1
f 2/2/1 23/24/6 22/23/2
f 4/4/7 24/25/8 3/3/5
f 3/3/5 24/25/8 23/24/6
f 5/5/9 25/26/10 4/4/7
f 4/4/7 25/26/10 24/25/8
f 5/5/9 6/6/11 25/26/10
f 25/26/10 6/6/11 26/27/12
f 6/6/11 7/7/13 26/27/12
f 26/27/12 7/7/13 27/28/14
f 7/7/13 8/8/15 27/28/14
f 27/28/14 8/8/15 28/29/16
f 8/8/15 9/9/17 28/29/16
f 28/29/16 9/9/17 29/30/18
f 9/9/17 10/10/19 29/30/18
f 29/30/18 10/10/19 30/31/20
f 10/10/19 11/11/21 30/31/20
f 30/31/20 11/11/21 31/32/22
f 11/11/21 12/12/23 31/32/22
f 31/32/22 12/12/23 32/33/24
f 12/12/23 13/13/25 32/33/24
f 32/33/24 13/13/25 33/34/26
f 13/13/25 14/14/27 33/34/26
f 33/34/26 14/14/27 34/35/28
f 15/15/29 35/36/30 14/14/27
f 14/14/27 35/36/30 34/35/28
f 15/15/29 16/16/31 35/36/30
f 35/36/30 16/16/31 36/37/32
f 17/17/33 37/38/34 16/16/31
f 16/16/31 37/38/34 36/37/32
f 18/18/35 38/39/36 17/17/33
f 17/17/33 38/39/36 37/38/34
f 19/19/37 39/40/38 18/18/35
f 18/18/35 39/40/38 38/39/36
f 20/20/39 40/41/40 19/19/37
f 19/19/37 40/41/40 39/40/38
f 1/21/3 21/42/4 20/20/39
f 20/20/39 21/42/4 40/41/40
f 22/23/2 42/44/41 21/22/4
f 21/22/4 42/44/41 41/43/42
f 23/24/6 43/45/43 22/23/2
f 22/23/2 43/45/43 42/44/41
f 24/25/8 44/46/44 23/24/6
f 23/24/6 44/46/44 43/45/43
f 25/26/10 45/47/45 24/25/8
f 24/25/8 45/47/45 44/46/44
f 25/26/10 26/27/12 45/47/45
f 45/47/45 26/27/12 46/48/46
f 26/27/12 27/28/14 46/48/46
f 46/48/46 27/28/14 47/49/47
f 27/28/14 28/29/16 47/49/47
f 47/49/47 28/29/16 48/50/48
f 28/29/16 29/30/18 48/50/48
f 48/50/48 29/30/18 49/51/49
f 29/30/18 30/31/20 49/51/49
f 49/51/49 30/31/20 50/52/50
f 30/31/20 31/32/22 50/52/50
f 50/52/50 31/32/22 51/53/51
f 31/32/22 32/33/24 51/53/51
f 51/53/51 32/33/24 52/54/52
f 32/33/24 33/34/26 52/54/52
f 52/54/52 33/34/26 53/55/53
f 33/34/26 34/35/28 53/55/53
f 53/55/53 34/35/28 54/56/54
f 35/36/30 55/57/55 34/35/28
f 34/35/28 55/57/55 54/56/54
f 35/36/30 36/37/32 55/57/55
f 55/57/55 36/37/32 56/58/56
f 37/38/34 57/59/57 36/37/32
f 36/37/32 57/59/57 56/58/56
f 38/39/36 58/60/58 37/38/34
f 37/38/34 58/60/58 57/59/57
f 39/40/38 59/61/59 38/39/36
f 38/39/36 59/61/59 58/60/58
f 40/41/40 60/62/60 39/40/38
f 39/40/38 60/62/60 59/61/59
f 21/42/4 41/63/42 40/41/40
f 40/41/40 41/63/42 60/62/60
f 42/44/41 62/65/61 41/43/42
f 41/43/42 62/65/61 61/64/62
f 43/45/43 63/66/63 42/44/41
f 42/44/41 63/66/63 62/65/61
f 44/46/44 64/67/64 43/45/43
f 43/45/43 64/67/64 63/66/63
f 45/47/45 65/68/65 44/46/44
f 44/46/44 65/68/65 64/67/64
f 45/47/45 46/48/46 65/68/65
f 65/68/65 46/48/46 66/69/66
f 46/48/46 47/49/47 66/69/66
f 66/69/66 47/49/47 67/70/67
f 47/49/47 48/50/48 67/70/67
f 67/70/67 48/50/48 68/71/68
f 48/50/48 49/51/49 68/71/68
f 68/71/68 49/51/49 69/72/69
f 49/51/49 50/52/50 69/72/69
f 69/72/69 50/52/50 70/73/70
f 50/52/50 51/53/51 70/73/70
f 70/73/70 51/53/51 71/74/71
f 51/53/51 52/54/52 71/74/71
f 71/74/71 52/54/52 72/75/72
f 52/54/52 53/55/53 72/75/72
f 72/75/72 53/55/53 73/76/73
f 53/55/53 54/56/54 73/76/73
f 73/76/73 54/56/54 74/77/74
f 55/57/55 75/78/75 54/56/54
f 54/56/54 75/78/75 74/77/74
f 55/57/55 56/58/56 75/78/75
f 75/78/75 56/58/56 76/79/76
f 57/59/57 77/80/77 56/58/56
f 56/58/56 77/80/77 76/79/76
f 58/60/58 78/81/78 57/59/57
f 57/59/57 78/81/78 77/80/77
f 59/61/59 79/82/79 58/60/58
f 58/60/58 79/82/79 78/81/78
f 60/62/60 80/83/80 59/61/59
f 59/61/59 80/83/80 79/82/79
f 41/63/42 61/84/62 60/62/60
f 60/62/60 61/84/62 80/83/80
f 62/65/61 82/86/81 61/64/62
f 61/64/62 82/86/81 81/85/82
f 63/66/63 83/87/83 62/65/61
f 62/65/61 83/87/83 82/86/81
f 64/67/64 84/88/84 63/66/63
f 63/66/63 84/88/84 83/87/83
f 65/68/65 85/89/85 64/67/64
f 64/67/64 85/89/85 84/88/84
f 65/68/65 66/69/66 85/89/85
f 85/89/85 66/69/66 86/90/86
f 66/69/66 67/70/67 86/90/86
f 86/90/86 67/70/67 87/91/87
f 67/70/67 68/71/68 87/91/87
f 87/91/87 68/71/68 88/92/88
f 68/71/68 69/72/69 88/92/88
f 88/92/88 69/72/69 89/93/89
f 69/72/69 70/73/70 89/93/89
f 89/93/89 70/73/70 90/94/90
f 70/73/70 71/74/71 90/94/90
f 90/94/90 71/74/71 91/95/91
f 71/74/71 72/75/72 91/95/91
f 91/95/91 72/75/72 92/96/92
f 72/75/72 73/76/73 92/96/92
f 92/96/92 73/76/73 93/97/93
f 73/76/73 74/77/74 93/97/93
f 93/97/93 74/77/74 94/98/94
f 74/77/74 75/78/75 94/98/94
f 94/98/94 75/78/75 95/99/95
f 76/79/76 96/100/96 75/78/75
f 75/78/75 96/100/96 95/99/95
f 77/80/77 97/101/97 76/79/76
f 76/79/76 97/101/97 96/100/96
f 78/81/78 98/102/98 77/80/77
f 77/80/77 98/102/98 97/101/97
f 79/82/79 99/103/99 78/81/78
f 78/81/78 99/103/99 98/102/98
f 80/83/80 100/104/100 79/82/79
f 79/82/79 100/104/100 99/103/99
f 61/84/62 81/105/82 80/83/80
f 80/83/80 81/105/82 100/104/100
f 82/86/81 102/107/101 81/85/82
f 81/85/82 102/107/101 101/106/102
f 83/87/83 103/108/103 82/86/81
f 82/86/81 103/108/103 102/107/101
f 84/88/84 104/109/104 83/87/83
f 83/87/83 104/109/104 103/108/103
f 85/89/85 105/110/105 84/88/84
f 84/88/84 105/110/105 104/109/104
f 85/89/85 86/90/86 105/110/105
f 105/110/105 86/90/86 106/111/106
f 86/90/86 87/91/87 106/111/106
f 106/111/106 87/91/87 107/112/107
f 87/91/87 88/92/88 107/112/107
f 107/112/107 88/92/88 108/113/108
f 88/92/88 89/93/89 108/113/108
f 108/113/108 89/93/89 109/114/109
f 89/93/89 90/94/90 109/114/109
f 109/114/109 90/94/90 110/115/110
f 90/94/90 91/95/91 110/115/110
f 110/115/110 91/95/91 111/116/111
f 91/95/91 92/96/92 111/116/111
f 111/116/111 92/96/92 112/117/112
f 92/96/92 93/97/93 112/117/112
f 112/117/112 93/97/93 113/118/113
f 93/97/93 94/98/94 113/118/113
f 113/118/113 94/98/94 114/119/114
f 94/98/94 95/99/95 114/119/114
f 114/119/114 95/99/95 115/120/115
f 96/100/96 116/121/116 95/99/95
f 95/99/95 116/121/116 115/120/115
f 97/101/97 117/122/117 96/100/96
f 96/100/96 117/122/117 116/121/116
f 98/102/98 118/123/118 97/101/97
f 97/101/97 118/123/118 117/122/117
f 99/103/99 119/124/119 98/102/98
f 98/102/98 119/124/119 118/123/118
f 100/104/100 120/125/120 99/103/99
f 99/103/99 120/125/120 119/124/119
f 81/105/82 101/126/102 100/104/100
f 100/104/100 101/126/102 120/125/120
f 102/107/101 122/128/121 101/106/102
f 101/106/102 122/128/121 121/127/122
f 103/108/103 123/129/123 102/107/101
f 102/107/101 123/129/123 122/128/121
f 104/109/104 124/130/124 103/108/103
f 103/108/103 124/130/124 123/129/123
f 105/110/105 125/131/125 104/109/104
f 104/109/104 125/131/125 124/130/124
f 105/110/105 106/111/106 125/131/125
f 125/131/125 106/111/106 126/132/126
f 106/111/106 107/112/107 126/132/126
f 126/132/126 107/112/107 127/133/127
f 107/112/107 108/113/108 127/133/127
f 127/133/127 108/113/108 128/134/128
f 108/113/108 109/114/109 128/134/128
f 128/134/128 109/114/109 129/135/129
f 109/114/109 110/115/110 129/135/129
f 129/135/129 110/115/110 130/136/130
f 110/115/110 111/116/111 130/136/130
f 130/136/130 111/116/111 131/137/131
f 111/116/111 112/117/112 131/137/131
f 131/137/131 112/117/112 132/138/132
f 112/117/112 113/118/113 132/138/132
f 132/138/132 113/118/113 133/139/133
f 113/118/113 114/119/114 133/139/133
f 133/139/133 114/119/114 134/140/134
f 114/119/114 115/120/115 134/140/134
f 134/140/134 115/120/115 135/141/135
f 116/121/116 136/142/136 115/120/115
f 115/120/115 136/142/136 135/141/135
f 117/122/117 137/143/137 116/121/116
f 116/121/116 137/143/137 136/142/136
f 118/123/118 138/144/138 117/122/117
f 117/122/117 138/144/138 137/143/137
f 119/124/119 139/145/139 118/123/118
f 118/123/118 139/145/139 138/144/138
f 120/125/120 140/146/140 119/124/119
f 119/124/119 140/146/140 139/145/139
f 101/126/102 121/147/122 120/125/120
f 120/125/120 121/147/122 140/146/140
f 122/128/121 142/149/141 121/127/122
f 121/127/122 142/149/141 141/148/142
f 123/129/123 143/150/143 122/128/121
f 122/128/121 143/150/143 142/149/141
f 124/130/124 144/151/144 123/129/123
f 123/129/123 144/151/144 143/150/143
f 124/130/124 125/131/125 144/151/144
f 144/151/144 125/131/125 145/152/145
f 126/132/126 146/153/146 125/131/125
f 125/131/125 146/153/146 145/152/145
f 126/132/126 127/133/127 146/153/146
f 146/153/146 127/133/127 147/154/147
f 127/133/127 128/134/128 147/154/147
f 147/154/147 128/134/128 148/155/148
f 128/134/128 129/135/129 148/155/148
f 148/155/148 129/135/129 149/156/149
f 129/135/129 130/136/130 149/156/149
f 149/156/149 130/136/130 150/157/150
f 130/136/130 131/137/131 150/157/150
f 150/157/150 131/137/131 151/158/151
f 131/137/131 132/138/132 151/158/151
f 151/158/151 132/138/132 152/159/152
f 132/138/132 133/139/133 152/159/152
f 152/159/152 133/139/133 153/160/153
f 133/139/133 134/140/134 153/160/153
f 153/160/153 134/140/134 154/161/154
f 134/140/134 135/141/135 154/161/154
f 154/161/154 135/141/135 155/162/155
f 136/142/136 156/163/156 135/141/135
f 135/141/135 156/163/156 155/162/155
f 137/143/137 157/164/157 136/142/136
f 136/142/136 157/164/157 156/163/156
f 138/144/138 158/165/158 137/143/137
f 137/143/137 158/165/158 157/164/157
f 139/145/139 159/166/159 138/144/138
f 138/144/138 159/166/159 158/165/158
f 140/146/140 160/167/160 139/145/139
f 139/145/139 160/167/160 159/166/159
f 121/147/122 141/168/142 140/146/140
f 140/146/140 141/168/142 160/167/160
f 142/149/141 162/170/161 141/148/142
f 141/148/142 162/170/161 161/169/162
f 143/150/143 163/171/163 142/149/141
f 142/149/141 163/171/163 162/170/161
f 144/151/144 164/172/164 143/150/143
f 143/150/143 164/172/164 163/171/163
f 144/151/144 145/152/145 164/172/164
f 164/172/164 145/152/145 165/173/165
f 146/153/146 166/174/166 145/152/145
f 145/152/145 166/174/166 165/173/165
f 146/153/146 147/154/147 166/174/166
f 166/174/166 147/154/147 167/175/167
f 147/154/147 148/155/148 167/175/167
f 167/175/167 148/155/148 168/176/168
f 148/155/148 149/156/149 168/176/168
f 168/176/168 149/156/149 169/177/169
f 149/156/149 150/157/150 169/177/169
f 169/177/169 150/157/150 170/178/170
f 150/157/150 151/158/151 170/178/170
f 170/178/170 151/158/151 171/179/171
f 151/158/151 152/159/152 171/179/171
f 171/179/171 152/159/152 172/180/172
f 152/159/152 153/160/153 172/180/172
f 172/180/172 153/160/153 173/181/173
f 153/160/153 154/161/154 173/181/173
f 173/181/173 154/161/154 174/182/174
f 154/161/154 155/162/155 174/182/174
f 174/182/174 155/162/155 175/183/175
f 156/163/156 176/184/176 155/162/155
f 155/162/155 176/184/176 175/183/175
f 157/164/157 177/185/177 156/163/156
f 156/163/156 177/185/177 176/184/176
f 158/165/158 178/186/178 157/164/157
f 157/164/157 178/186/178 177/185/177
f 159/166/159 179/187/179 158/165/158
f 158/165/158 179/187/179 178/186/178
f 160/167/160 180/188/180 159/166/159
f 159/166/159 180/188/180 179/187/179
f 141/168/142 161/189/162 160/167/160
f 160/167/160 161/189/162 180/188/180
f 162/170/161 182/191/181 161/169/162
f 161/169/162 182/191/181 181/190/182
f 163/171/163 183/192/183 162/170/161
f 162/170/161 183/192/183 182/191/181
f 164/172/164 184/193/184 163/171/163
f 163/171/163 184/193/184 183/192/183
f 164/172/164 165/173/165 184/193/184
f 184/193/184 165/173/165 185/194/185
f 166/174/166 186/195/186 165/173/165
f 165/173/165 186/195/186 185/194/185
f 166/174/166 167/175/167 186/195/186
f 186/195/186 167/175/167 187/196/187
f 167/175/167 168/176/168 187/196/187
f 187/196/187 168/176/168 188/197/188
f 168/176/168 169/177/169 188/197/188
f 188/197/188 169/177/169 189/198/189
f 169/177/169 170/178/170 189/198/189
f 189/198/189 170/178/170 190/199/190
f 170/178/170 171/179/171 190/199/190
f 190/199/190 171/179/171 191/200/191
f 171/179/171 172/180/172 191/200/191
f 191/200/191 172/180/172 192/201/192
f 172/180/172 173/181/173 192/201/192
f 192/201/192 173/181/173 193/202/193
f 173/181/173 174/182/174 193/202/193
f 193/202/193 174/182/174 194/203/194
f 174/182/174 175/183/175 194/203/194
f 194/203/194 175/183/175 195/204/195
f 176/184/176 196/205/196 175/183/175
f 175/183/175 196/205/196 195/204/195
f 177/185/177 197/206/197 176/184/176
f 176/184/176 197/206/197 196/205/196
f 178/186/178 198/207/198 177/185/177
f 177/185/177 198/207/198 197/206/197
f 179/187/179 199/208/199 178/186/178
f 178/186/178 199/208/199 198/207/198
f 180/188/180 200/209/200 179/187/179
f 179/187/179 200/209/200 199/208/199
f 161/189/162 181/210/182 180/188/180
f 180/188/180 181/210/182 200/209/200
f 182/191/181 202/212/201 181/190/182
f 181/190/182 202/212/201 201/211/202
f 183/192/183 203/213/203 182/191/181
f 182/191/181 203/213/203 202/212/201
f 184/193/184 204/214/204 183/192/183
f 183/192/183 204/214/204 203/213/203
f 184/193/184 185/194/185 204/214/204
f 204/214/204 185/194/185 205/215/205
f 186/195/186 206/216/206 185/194/185
f 185/194/185 206/216/206 205/215/205
f 186/195/186 187/196/187 206/216/206
f 206/216/206 187/196/187 207/217/207
f 187/196/187 188/197/188 207/217/207
f 207/217/207 188/197/188 208/218/208
f 188/197/188 189/198/189 208/218/208
f 208/218/208 189/198/189 209/219/209
f 189/198/189 190/199/190 209/219/209
f 209/219/209 190/199/190 210/220/210
f 190/199/190 191/200/191 210/220/210
f 210/220/210 191/200/191 211/221/211
f 191/200/191 192/201/192 211/221/211
f 211/221/211 192/201/192 212/222/212
f 192/201/192 193/202/193 212/222/212
f 212/222/212 193/202/193 213/223/213
f 193/202/193 194/203/194 213/223/213
f 213/223/213 194/203/194 214/224/214
f 194/203/194 195/204/195 214/224/214
f 214/224/214 195/204/195 215/225/215
f 196/205/196 216/226/216 195/204/195
f 195/204/195 216/226/216 215/225/215
f 197/206/197 217/227/217 196/205/196
f 196/205/196 217/227/217 216/226/216
f 198/207/198 218/228/218 197/206/197
f 197/206/197 218/228/218 217/227/217
f 199/208/199 219/229/219 198/207/198
f 198/207/198 219/229/219 218/228/218
f 200/209/200 220/230/220 199/208/199
f 199/208/199 220/230/220 219/229/219
f 181/210/182 201/231/202 200/209/200
f 200/209/200 201/231/202 220/230/220
f 202/212/201 222/233/221 201/211/202
f 201/211/202 222/233/221 221/232/222
f 203/213/203 223/234/223 202/212/201
f 202/212/201 223/234/223 222/233/221
f 204/214/204 224/235/224 203/213/203
f 203/213/203 224/235/224 223/234/223
f 204/214/204 205/215/205 224/235/224
f 224/235/224 205/215/205 225/236/225
f 206/216/206 226/237/226 205/215/205
f 205/215/205 226/237/226 225/236/225
f 206/216/206 207/217/207 226/237/226
f 226/237/226 207/217/207 227/238/227
f 207/217/207 208/218/208 227/238/227
f 227/238/227 208/218/208 228/239/228
f 208/218/208 209/219/209 228/239/228
f 228/239/228 209/219/209 229/240/229
f 209/219/209 210/220/210 229/240/229
f 229/240/229 210/220/210 230/241/230
f 210/220/210 211/221/211 230/241/230
f 230/241/230 211/221/211 231/242/231
f 211/221/211 212/222/212 231/242/231
f 231/242/231 212/222/212 232/243/232
f 212/222/212 213/223/213 232/243/232
f 232/243/232 213/223/213 233/244/233
f 213/223/213 214/224/214 233/244/233
f 233/244/233 214/224/214 234/245/234
f 214/224/214 215/225/215 234/245/234
f 234/245/234 215/225/215 235/246/235
f 216/226/216 236/247/236 215/225/215
f 215/225/215 236/247/236 235/246/235
f 217/227/217 237/248/237 216/226/216
f 216/226/216 237/248/237 236/247/236
f 218/228/218 238/249/238 217/227/217
f 217/227/217 238/249/238 237/248/237
f 219/229/219 239/250/239 218/228/218
f 218/228/218 239/250/239 238/249/238
f 220/230/220 240/251/240 219/229/219
f 219/229/219 240/251/240 239/250/239
f 201/231/202 221/252/222 220/230/220
f 220/230/220 221/252/222 240/251/240
f 222/233/221 242/254/241 221/232/222
f 221/232/222 242/254/241 241/253/242
f 223/234/223 243/255/243 222/233/221
f 222/233/221 243/255/243 242/254/241
f 224/235/224 244/256/244 223/234/223
f 223/234/223 244/256/244 243/255/243
f 225/236/225 245/257/245 224/235/224
f 224/235/224 245/257/245 244/256/244
f 225/236/225 226/237/226 245/257/245
f 245/257/245 226/237/226 246/258/246
f 226/237/226 227/238/227 246/258/246
f 246/258/246 227/238/227 247/259/247
f 227/238/227 228/239/228 247/259/247
f 247/259/247 228/239/228 248/260/248
f 228/239/228 229/240/229 248/260/248
f 248/260/248 229/240/229 249/261/249
f 229/240/229 230/241/230 249/261/249
f 249/261/249 230/241/230 250/262/250
f 230/241/230 231/242/231 250/262/250
f 250/262/250 231/242/231 251/263/251
f 231/242/231 232/243/232 251/263/251
f 251/263/251 232/243/232 252/264/252
f 232/243/232 233/244/233 252/264/252
f 252/264/252 233/244/233 253/265/253
f 233/244/233 234/245/234 253/265/253
f 253/265/253 234/245/234 254/266/254
f 234/245/234 235/246/235 254/266/254
f 254/266/254 235/246/235 255/267/255
f 236/247/236 256/268/256 235/246/235
f 235/246/235 256/268/256 255/267/255
f 237/248/237 257/269/257 236/247/236
f 236/247/236 257/269/257 256/268/256
f 238/249/238 258/270/258 237/248/237
f 237/248/237 258/270/258 257/269/257
f 239/250/239 259/271/259 238/249/238
f 238/249/238 259/271/259 258/270/258
f 240/251/240 260/272/260 239/250/239
f 239/250/239 260/272/260 259/271/259
f 221/252/222 241/273/242 240/251/240
f 240/251/240 241/273/242 260/272/260
f 242/254/241 262/275/261 241/253/242
f 241/253/242 262/275/261 261/274/262
f 243/255/243 263/276/263 242/254/241
f 242/254/241 263/276/263 262/275/261
f 244/256/244 264/277/264 243/255/243
f 243/255/243 264/277/264 263/276/263
f 245/257/245 265/278/265 244/256/244
f 244/256/244 265/278/265 264/277/264
f 245/257/245 246/258/246 265/278/265
f 265/278/265 246/258/246 266/279/266
f 246/258/246 247/259/247 266/279/266
f 266/279/266 247/259/247 267/280/267
f 247/259/247 248/260/248 267/280/267
f 267/280/267 248/260/248 268/281/268
f 248/260/248 249/261/249 268/281/268
f 268/281/268 249/261/249 269/282/269
f 249/261/249 250/262/250 269/282/269
f 269/282/269 250/262/250 270/283/270
f 250/262/250 251/263/251 270/283/270
f 270/283/270 251/263/251 271/284/271
f 251/263/251 252/264/252 271/284/271
f 271/284/271 252/264/252 272/285/272
f 252/264/252 253/265/253 272/285/272
f 272/285/272 253/265/253 273/286/273
f 253/265/253 254/266/254 273/286/273
f 273/286/273 254/266/254 274/287/274
f 254/266/254 255/267/255 274/287/274
f 274/287/274 255/267/255 275/288/275
f 256/268/256 276/289/276 255/267/255
f 255/267/255 276/289/276 275/288/275
f 257/269/257 277/290/277 256/268/256
f 256/268/256 277/290/277 276/289/276
f 258/270/258 278/291/278 257/269/257
f 257/269/257 278/291/278 277/290/277
f 259/271/259 279/292/279 258/270/258
f 258/270/258 279/292/279 278/291/278
f 260/272/260 280/293/280 259/271/259
f 259/271/259 280/293/280 279/292/279
f 241/273/242 261/294/262 260/272/260
f 260/272/260 261/294/262 280/293/280
f 262/275/261 282/296/281 261/274/262
f 261/274/262 282/296/281 281/295/282
f 263/276/263 283/297/283 262/275/261
f 262/275/261 283/297/283 282/296/281
f 264/277/264 284/298/284 263/276/263
f 263/276/263 284/298/284 283/297/283
f 265/278/265 285/299/285 264/277/264
f 264/277/264 285/299/285 284/298/284
f 265/278/265 266/279/266 285/299/285
f 285/299/285 266/279/266 286/300/286
f 266/279/266 267/280/267 286/300/286
f 286/300/286 267/280/267 287/301/287
f 267/280/267 268/281/268 287/301/287
f 287/301/287 268/281/268 288/302/288
f 268/281/268 269/282/269 288/302/288
f 288/302/288 269/282/269 289/303/289
f 269/282/269 270/283/270 289/303/289
f 289/303/289 270/283/270 290/304/290
f 270/283/270 271/284/271 290/304/290
f 290/304/290 271/284/271 291/305/291
f 271/284/271 272/285/272 291/305/291
f 291/305/291 272/285/272 292/306/292
f 272/285/272 273/286/273 292/306/292
f 292/306/292 273/286/273 293/307/293
f 273/286/273 274/287/274 293/307/293
f 293/307/293 274/287/274 294/308/294
f 274/287/274 275/288/275 294/308/294
f 294/308/294 275/288/275 295/309/295
f 276/289/276 296/310/296 275/288/275
f 275/288/275 296/310/296 295/309/295
f 277/290/277 297/311/297 276/289/276
f 276/289/276 297/311/297 296/310/296
f 278/291/278 298/312/298 277/290/277
f 277/290/277 298/312/298 297/311/297
f 279/292/279 299/313/299 278/291/278
f 278/291/278 299/313/299 298/312/298
f 280/293/280 300/314/300 279/292/279
f 279/292/279 300/314/300 299/313/299
f 261/294/262 281/315/282 280/293/280
f 280/293/280 281/315/282 300/314/300
f 281/295/282 282/296/281 301/316/301
f 301/316/301 282/296/281 302/317/302
f 282/296/281 283/297/283 302/317/302
f 302/317/302 283/297/283 303/318/303
f 284/298/284 304/319/304 283/297/283
f 283/297/283 304/319/304 303/318/303
f 285/299/285 305/320/305 284/298/284
f 284/298/284 305/320/305 304/319/304
f 285/299/285 286/300/286 305/320/305
f 305/320/305 286/300/286 306/321/306
f 286/300/286 287/301/287 306/321/306
f 306/321/306 287/301/287 307/322/307
f 288/302/288 308/323/308 287/301/287
f 287/301/287 308/323/308 307/322/307
f 289/303/289 309/324/309 288/302/288
f 288/302/288 309/324/309 308/323/308
f 290/304/290 310/325/310 289/303/289
f 289/303/289 310/325/310 309/324/309
f 291/305/291 311/326/311 290/304/290
f 290/304/290 311/326/311 310/325/310
f 292/306/292 312/327/312 291/305/291
f 291/305/291 312/327/312 311/326/311
f 293/307/293 313/328/313 292/306/292
f 292/306/292 313/328/313 312/327/312
f 294/308/294 314/329/314 293/307/293
f 293/307/293 314/329/314 313/328/313
f 295/309/295 315/330/315 294/308/294
f 294/308/294 315/330/315 314/329/314
f 295/309/295 296/310/296 315/330/315
f 315/330/315 296/310/296 316/331/316
f 296/310/296 297/311/297 316/331/316
f 316/331/316 297/311/297 317/332/317
f 297/311/297 298/312/298 317/332/317
f 317/332/317 298/312/298 318/333/318
f 298/312/298 299/313/299 318/333/318
f 318/333/318 299/313/299 319/334/319
f 299/313/299 300/314/300 319/334/319
f 319/334/319 300/314/300 320/335/320
f 300/314/300 281/315/282 320/335/320
f 320/335/320 281/315/282 301/336/301
f 302/317/302 322/338/321 301/316/301
f 301/316/301 322/338/321 321/337/322
f 303/318/303 323/339/323 302/317/302
f 302/317/302 323/339/323 322/338/321
f 304/319/304 324/340/324 303/318/303
f 303/318/303 324/340/324 323/339/323
f 305/320/305 325/341/325 304/319/304
f 304/319/304 325/341/325 324/340/324
f 305/320/305 306/321/306 325/341/325
f 325/341/325 306/321/306 326/342/326
f 306/321/306 307/322/307 326/342/326
f 326/342/326 307/322/307 327/343/327
f 307/322/307 308/323/308 327/343/327
f 327/343/327 308/323/308 328/344/328
f 308/323/308 309/324/309 328/344/328
f 328/344/328 309/324/309 329/345/329
f 310/325/310 330/346/330 309/324/309
f 309/324/309 330/346/330 329/345/329
f 311/326/311 331/347/331 310/325/310
f 310/325/310 331/347/331 330/346/330
f 312/327/312 332/348/332 311/326/311
f 311/326/311 332/348/332 331/347/331
f 313/328/313 333/349/333 312/327/312
f 312/327/312 333/349/333 332/348/332
f 314/329/314 334/350/334 313/328/313
f 313/328/313 334/350/334 333/349/333
f 315/330/315 335/351/335 314/329/314
f 314/329/314 335/351/335 334/350/334
f 315/330/315 316/331/316 335/351/335
f 335/351/335 316/331/316 336/352/336
f 316/331/316 317/332/317 336/352/336
f 336/352/336 317/332/317 337/353/337
f 317/332/317 318/333/318 337/353/337
f 337/353/337 318/333/318 338/354/338
f 318/333/318 319/334/319 338/354/338
f 338/354/338 319/334/319 339/355/339
f 319/334/319 320/335/320 339/355/339
f 339/355/339 320/335/320 340/356/340
f 320/335/320 301/336/301 340/356/340
f 340/356/340 301/336/301 321/357/322
f 322/338/321 342/359/341 321/337/322
f 321/337/322 342/359/341 341/358/342
f 323/339/323 343/360/343 322/338/321
f 322/338/321 343/360/343 342/359/341
f 324/340/324 344/361/344 323/339/323
f 323/339/323 344/361/344 343/360/343
f 325/341/325 345/362/345 324/340/324
f 324/340/324 345/362/345 344/361/344
f 325/341/325 326/342/326 345/362/345
f 345/362/345 326/342/326 346/363/346
f 326/342/326 327/343/327 346/363/346
f 346/363/346 327/343/327 347/364/347
f 327/343/327 328/344/328 347/364/347
f 347/364/347 328/344/328 348/365/348
f 328/344/328 329/345/329 348/365/348
f 348/365/348 329/345/329 349/366/349
f 329/345/329 330/346/330 349/366/349
f 349/366/349 330/346/330 350/367/350
f 331/347/331 351/368/351 330/346/330
f 330/346/330 351/368/351 350/367/350
f 332/348/332 352/369/352 331/347/331
f 331/347/331 352/369/352 351/368/351
f 333/349/333 353/370/353 332/348/332
f 332/348/332 353/370/353 352/369/352
f 334/350/334 354/371/354 333/349/333
f 333/349/333 354/371/354 353/370/353
f 335/351/335 355/372/355 334/350/334
f 334/350/334 355/372/355 354/371/354
f 335/351/335 336/352/336 355/372/355
f 355/372/355 336/352/336 356/373/356
f 336/352/336 337/353/337 356/373/356
f 356/373/356 337/353/337 357/374/357
f 337/353/337 338/354/338 357/374/357
f 357/374/357 338/354/338 358/375/358
f 338/354/338 339/355/339 358/375/358
f 358/375/358 339/355/339 359/376/359
f 339/355/339 340/356/340 359/376/359
f 359/376/359 340/356/340 360/377/360
f 321/357/322 341/378/342 340/356/340
f 340/356/340 341/378/342 360/377/360
f 342/359/341 362/380/361 341/358/342
f 341/358/342 362/380/361 361/379/362
f 343/360/343 363/381/363 342/359/341
f 342/359/341 363/381/363 362/380/361
f 344/361/344 364/382/364 343/360/343
f 343/360/343 364/382/364 363/381/363
f 345/362/345 365/383/365 344/361/344
f 344/361/344 365/383/365 364/382/364
f 345/362/345 346/363/346 365/383/365
f 365/383/365 346/363/346 366/384/366
f 346/363/346 347/364/347 366/384/366
f 366/384/366 347/364/347 367/385/367
f 347/364/347 348/365/348 367/385/367
f 367/385/367 348/365/348 368/386/368
f 348/365/348 349/366/349 368/386/368
f 368/386/368 349/366/349 369/387/369
f 349/366/349 350/367/350 369/387/369
f 369/387/369 350/367/350 370/388/370
f 351/368/351 371/389/371 350/367/350
f 350/367/350 371/389/371 370/388/370
f 352/369/352 372/390/372 351/368/351
f 351/368/351 372/390/372 371/389/371
f 353/370/353 373/391/373 352/369/352
f 352/369/352 373/391/373 372/390/372
f 354/371/354 374/392/374 353/370/353
f 353/370/353 374/392/374 373/391/373
f 355/372/355 375/393/375 354/371/354
f 354/371/354 375/393/375 374/392/374
f 355/372/355 356/373/356 375/393/375
f 375/393/375 356/373/356 376/394/376
f 356/373/356 357/374/357 376/394/376
f 376/394/376 357/374/357 377/395/377
f 357/374/357 358/375/358 377/395/377
f 377/395/377 358/375/358 378/396/378
f 358/375/358 359/376/359 378/396/378
f 378/396/378 359/376/359 379/397/379
f 359/376/359 360/377/360 379/397/379
f 379/397/379 360/377/360 380/398/380
f 341/378/342 361/399/362 360/377/360
f 360/377/360 361/399/362 380/398/380
f 2/2/1 1/1/3 381/400/381
f 3/3/5 2/2/1 381/401/381
f 4/4/7 3/3/5 381/402/381
f 5/5/9 4/4/7 381/403/381
f 6/6/11 5/5/9 381/404/381
f 7/7/13 6/6/11 381/405/381
f 8/8/15 7/7/13 381/406/381
f 9/9/17 8/8/15 381/407/381
f 10/10/19 9/9/17 381/408/381
f 11/11/21 10/10/19 381/409/381
f 12/12/23 11/11/21 381/410/381
f 13/13/25 12/12/23 381/411/381
f 14/14/27 13/13/25 381/412/381
f 15/15/29 14/14/27 381/413/381
f 16/16/31 15/15/29 381/414/381
f 17/17/33 16/16/31 381/415/381
f 18/18/35 17/17/33 381/416/381
f 19/19/37 18/18/35 381/417/381
f 20/20/39 19/19/37 381/418/381
f 1/21/3 20/20/39 381/419/381
f 361/379/362 362/380/361 382/420/382
f 362/380/361 363/381/363 382/421/382
f 363/381/363 364/382/364 382/422/382
f 364/382/364 365/383/365 382/423/382
f 365/383/365 366/384/366 382/424/382
f 366/384/366 367/385/367 382/425/382
f 367/385/367 368/386/368 382/426/382
f 368/386/368 369/387/369 382/427/382
f 369/387/369 370/388/370 382/428/382
f 370/388/370 371/389/371 382/429/382
f 371/389/371 372/390/372 382/430/382
f 372/390/372 373/391/373 382/431/382
f 373/391/373 374/392/374 382/432/382
f 374/392/374 375/393/375 382/433/382
f 375/393/375 376/394/376 382/434/382
f 376/394/376 377/395/377 382/435/382
f 377/395/377 378/396/378 382/436/382
f 378/396/378 379/397/379 382/437/382
f 379/397/379 380/398/380 382/438/382
f 380/398/380 361/399/362 382/439/382
g default
v 0.289539 0.041241 -0.130959
v 0.299101 0.054330 -0.170428
v 0.308735 0.002631 -0.170478
v 0.299574 0.000563 -0.209992
v 0.286140 -0.048545 -0.211713
v 0.264378 -0.034073 -0.255439
v 0.239313 -0.065687 -0.260120
v 0.206957 -0.036348 -0.289411
v 0.181705 -0.064877 -0.270202
v 0.147893 -0.025546 -0.282526
v 0.123267 -0.048529 -0.241530
v 0.109024 -0.003432 -0.238654
v 0.109484 -0.027676 -0.188545
v 0.113113 0.024015 -0.182566
v 0.129098 0.008987 -0.133941
v 0.148309 0.058651 -0.137118
v 0.178905 0.040641 -0.098902
v 0.201168 0.087246 -0.119671
v 0.234030 0.060472 -0.098504
v 0.261788 0.086539 -0.135455
v 0.294178 0.096324 -0.161287
v 0.306080 0.076371 -0.186751
v 0.322049 0.058244 -0.217660
v 0.310736 0.033231 -0.241287
v 0.304682 0.016132 -0.275363
v 0.273945 -0.002975 -0.288794
v 0.248712 -0.013926 -0.312358
v 0.209760 -0.018417 -0.311127
v 0.175517 -0.020449 -0.314512
v 0.143994 -0.010021 -0.298607
v 0.113055 -0.000945 -0.281004
v 0.100399 0.016657 -0.253165
v 0.085184 0.037135 -0.224632
v 0.098617 0.052640 -0.195400
v 0.102550 0.079247 -0.166928
v 0.135408 0.088845 -0.147893
v 0.158521 0.109305 -0.129934
v 0.196719 0.111445 -0.128789
v 0.231716 0.115828 -0.127779
v 0.263053 0.107143 -0.144869
v 0.295869 0.116892 -0.172558
v 0.315843 0.098776 -0.200022
v 0.324693 0.077509 -0.230858
v 0.321554 0.055174 -0.262047
v 0.306733 0.033956 -0.290536
v 0.281680 0.015934 -0.313536
v 0.248848 0.002870 -0.328796
v 0.211451 -0.003956 -0.334821
v 0.173149 -0.003876 -0.331024
v 0.137692 0.003102 -0.317774
v 0.108550 0.016295 -0.296369
v 0.088577 0.034412 -0.268905
v 0.079726 0.055678 -0.238069
v 0.082865 0.078014 -0.206880
v 0.097687 0.099231 -0.178391
v 0.122739 0.117253 -0.155391
v 0.155571 0.130317 -0.140131
v 0.192969 0.137143 -0.134105
v 0.231270 0.137063 -0.137903
v 0.266728 0.130085 -0.151153
v 0.293161 0.138598 -0.188785
v 0.312928 0.120668 -0.215966
v 0.321687 0.099621 -0.246484
v 0.318581 0.077516 -0.277351
v 0.303912 0.056518 -0.305545
v 0.279118 0.038681 -0.328308
v 0.246625 0.025752 -0.343411
v 0.209613 0.018997 -0.349374
v 0.171707 0.019076 -0.345616
v 0.136615 0.025982 -0.332503
v 0.107774 0.039039 -0.311319
v 0.088007 0.056968 -0.284137
v 0.079248 0.078016 -0.253620
v 0.082354 0.100120 -0.222753
v 0.097023 0.121119 -0.194558
v 0.121817 0.138955 -0.171795
v 0.154310 0.151884 -0.156693
v 0.191322 0.158640 -0.150729
v 0.229228 0.158561 -0.154488
v 0.264320 0.151655 -0.167601
v 0.285216 0.160510 -0.210128
v 0.303736 0.143713 -0.235593
v 0.311942 0.123994 -0.264184
v 0.309031 0.103285 -0.293102
v 0.295289 0.083613 -0.319517
v 0.272060 0.066902 -0.340842
v 0.241619 0.054790 -0.354991
v 0.206944 0.048461 -0.360578
v 0.171431 0.048535 -0.357057
v 0.138555 0.055005 -0.344772
v 0.111535 0.067237 -0.324925
v 0.093016 0.084035 -0.299460
v 0.084810 0.103753 -0.270869
v 0.087721 0.124462 -0.241951
v 0.101463 0.144135 -0.215537
v 0.124692 0.160845 -0.194211
v 0.155133 0.172958 -0.180063
v 0.189808 0.179286 -0.174475
v 0.225321 0.179212 -0.177997
v 0.258196 0.172743 -0.190282
v 0.274903 0.183019 -0.234036
v 0.291718 0.167767 -0.257158
v 0.299169 0.149864 -0.283118
v 0.296526 0.131060 -0.309375
v 0.284049 0.113198 -0.333359
v 0.262957 0.098025 -0.352722
v 0.235317 0.087027 -0.365569
v 0.203833 0.081281 -0.370642
v 0.171588 0.081348 -0.367445
v 0.141738 0.087222 -0.356290
v 0.117204 0.098329 -0.338270
v 0.100389 0.113581 -0.315148
v 0.092938 0.131485 -0.289188
v 0.095580 0.150288 -0.262931
v 0.108058 0.168151 -0.238947
v 0.129149 0.183323 -0.219584
v 0.156790 0.194321 -0.206737
v 0.188274 0.200068 -0.201664
v 0.220519 0.200001 -0.204861
v 0.250369 0.194126 -0.216016
v 0.262535 0.204999 -0.259531
v 0.277232 0.191668 -0.279740
v 0.283745 0.176020 -0.302430
v 0.281435 0.159585 -0.325380
v 0.270529 0.143973 -0.346343
v 0.252094 0.130711 -0.363267
v 0.227936 0.121099 -0.374495
v 0.200418 0.116076 -0.378929
v 0.172235 0.116135 -0.376135
v 0.146144 0.121269 -0.366385
v 0.124701 0.130977 -0.350635
v 0.110004 0.144308 -0.330426
v 0.103492 0.159956 -0.307736
v 0.105802 0.176391 -0.284786
v 0.116708 0.192003 -0.263824
v 0.135142 0.205265 -0.246900
v 0.159301 0.214877 -0.235671
v 0.186818 0.219900 -0.231237
v 0.215002 0.219841 -0.234032
v 0.241092 0.214707 -0.243781
v 0.248521 0.224944 -0.285331
v 0.260738 0.213863 -0.302130
v 0.266151 0.200855 -0.320991
v 0.264231 0.187193 -0.340068
v 0.255165 0.174216 -0.357493
v 0.239842 0.163192 -0.371561
v 0.219760 0.155201 -0.380895
v 0.196886 0.151026 -0.384581
v 0.173458 0.151075 -0.382258
v 0.151770 0.155343 -0.374153
v 0.133946 0.163413 -0.361061
v 0.121729 0.174494 -0.344262
v 0.116315 0.187502 -0.325401
v 0.118235 0.201163 -0.306324
v 0.127301 0.214141 -0.288899
v 0.142625 0.225165 -0.274831
v 0.162706 0.233155 -0.265497
v 0.185581 0.237330 -0.261811
v 0.209008 0.237281 -0.264134
v 0.230696 0.233013 -0.272238
v 0.233337 0.241119 -0.309954
v 0.242773 0.232560 -0.322929
v 0.246954 0.222513 -0.337497
v 0.245471 0.211961 -0.352231
v 0.238469 0.201937 -0.365690
v 0.226634 0.193423 -0.376556
v 0.211123 0.187251 -0.383765
v 0.193455 0.184027 -0.386612
v 0.175360 0.184064 -0.384818
v 0.158609 0.187361 -0.378558
v 0.144842 0.193594 -0.368446
v 0.135406 0.202153 -0.355471
v 0.131225 0.212200 -0.340903
v 0.132708 0.222751 -0.326169
v 0.139710 0.232775 -0.312710
v 0.151546 0.241289 -0.301844
v 0.167056 0.247461 -0.294635
v 0.184724 0.250686 -0.291788
v 0.202819 0.250648 -0.293582
v 0.219570 0.247351 -0.299842
v 0.217500 0.251792 -0.331888
v 0.223923 0.245966 -0.340720
v 0.226769 0.239127 -0.350636
v 0.225760 0.231945 -0.360665
v 0.220994 0.225122 -0.369826
v 0.212938 0.219327 -0.377222
v 0.202380 0.215126 -0.382129
v 0.190354 0.212931 -0.384067
v 0.178038 0.212957 -0.382846
v 0.166636 0.215201 -0.378585
v 0.157265 0.219443 -0.371702
v 0.150842 0.225269 -0.362870
v 0.147996 0.232107 -0.352954
v 0.149005 0.239290 -0.342925
v 0.153771 0.246112 -0.333764
v 0.161828 0.251908 -0.326368
v 0.172385 0.256109 -0.321461
v 0.184411 0.258304 -0.319523
v 0.196727 0.258278 -0.320744
v 0.208129 0.256034 -0.325005
v 0.201528 0.255509 -0.349784
v 0.204779 0.252559 -0.354254
v 0.206220 0.249098 -0.359274
v 0.205709 0.245462 -0.364351
v 0.203296 0.242008 -0.368989
v 0.199218 0.239074 -0.372733
v 0.193873 0.236947 -0.375217
v 0.187785 0.235836 -0.376198
v 0.181550 0.235849 -0.375580
v 0.175778 0.236985 -0.373423
v 0.171034 0.239133 -0.369939
v 0.167783 0.242082 -0.365468
v 0.166342 0.245544 -0.360448
v 0.166853 0.249180 -0.355371
v 0.169266 0.252634 -0.350733
v 0.173344 0.255567 -0.346989
v 0.178689 0.257694 -0.344505
v 0.184777 0.258805 -0.343524
v 0.191012 0.258792 -0.344142
v 0.196784 0.257656 -0.346299
v 0.185900 0.251352 -0.362639
vt 0.000000 0.450000
vt 0.050000 0.450000
vt 0.100000 0.450000
vt 0.150000 0.450000
vt 0.200000 0.450000
vt 0.250000 0.450000
vt 0.300000 0.450000
vt 0.350000 0.450000
vt 0.400000 0.450000
vt 0.450000 0.450000
vt 0.500000 0.450000
vt 0.550000 0.450000
vt 0.600000 0.450000
vt 0.650000 0.450000
vt 0.700000 0.450000
vt 0.750000 0.450000
vt 0.800000 0.450000
vt 0.850000 0.450000
vt 0.900000 0.450000
vt 0.950000 0.450000
vt 1.000000 0.450000
vt 0.000000 0.500000
vt 0.050000 0.500000
vt 0.100000 0.500000
vt 0.150000 0.500000
vt 0.200000 0.500000
vt 0.250000 0.500000
vt 0.300000 0.500000
vt 0.350000 0.500000
vt 0.400000 0.500000
vt 0.450000 0.500000
vt 0.500000 0.500000
vt 0.550000 0.500000
vt 0.600000 0.500000
vt 0.650000 0.500000
vt 0.700000 0.500000
vt 0.750000 0.500000
vt 0.800000 0.500000
vt 0.850000 0.500000
vt 0.900000 0.500000
vt 0.950000 0.500000
vt 1.000000 0.500000
vt 0.000000 0.550000
vt 0.050000 0.550000
vt 0.100000 0.550000
vt 0.150000 0.550000
vt 0.200000 0.550000
vt 0.250000 0.550000
vt 0.300000 0.550000
vt 0.350000 0.550000
vt 0.400000 0.550000
vt 0.450000 0.550000
vt 0.500000 0.550000
vt 0.550000 0.550000
vt 0.600000 0.550000
vt 0.650000 0.550000
vt 0.700000 0.550000
vt 0.750000 0.550000
vt 0.800000 0.550000
vt 0.850000 0.550000
vt 0.900000 0.550000
vt 0.950000 0.550000
vt 1.000000 0.550000
vt 0.000000 0.600000
vt 0.050000 0.600000
vt 0.100000 0.600000
vt 0.150000 0.600000
vt 0.200000 0.600000
vt 0.250000 0.600000
vt 0.300000 0.600000
vt 0.350000 0.600000
vt 0.400000 0.600000
vt 0.450000 0.600000
vt 0.500000 0.600000
vt 0.550000 0.600000
vt 0.600000 0.600000
vt 0.650000 0.600000
vt 0.700000 0.600000
vt 0.750000 0.600000
vt 0.800000 0.600000
vt 0.850000 0.600000
vt 0.900000 0.600000
vt 0.950000 0.600000
vt 1.000000 0.600000
vt 0.000000 0.650000
vt 0.050000 0.650000
vt 0.100000 0.650000
vt 0.150000 0.650000
vt 0.200000 0.650000
vt 0.250000 0.650000
vt 0.300000 0.650000
vt 0.350000 0.650000
vt 0.400000 0.650000
vt 0.450000 0.650000
vt 0.500000 0.650000
vt 0.550000 0.650000
vt 0.600000 0.650000
vt 0.650000 0.650000
vt 0.700000 0.650000
vt 0.750000 0.650000
vt 0.800000 0.650000
vt 0.850000 0.650000
vt 0.900000 0.650000
vt 0.950000 0.650000
vt 1.000000 0.650000
vt 0.000000 0.700000
vt 0.050000 0.700000
vt 0.100000 0.700000
vt 0.150000 0.700000
vt 0.200000 0.700000
vt 0.250000 0.700000
vt 0.300000 0.700000
vt 0.350000 0.700000
vt 0.400000 0.700000
vt 0.450000 0.700000
vt 0.500000 0.700000
vt 0.550000 0.700000
vt 0.600000 0.700000
vt 0.650000 0.700000
vt 0.700000 0.700000
vt 0.750000 0.700000
vt 0.800000 0.700000
vt 0.850000 0.700000
vt 0.900000 0.700000
vt 0.950000 0.700000
vt 1.000000 0.700000
vt 0.000000 0.750000
vt 0.050000 0.750000
vt 0.100000 0.750000
vt 0.150000 0.750000
vt 0.200000 0.750000
vt 0.250000 0.750000
vt 0.300000 0.750000
vt 0.350000 0.750000
vt 0.400000 0.750000
vt 0.450000 0.750000
vt 0.500000 0.750000
vt 0.550000 0.750000
vt 0.600000 0.750000
vt 0.650000 0.750000
vt 0.700000 0.750000
vt 0.750000 0.750000
vt 0.800000 0.750000
vt 0.850000 0.750000
vt 0.900000 0.750000
vt 0.950000 0.750000
vt 1.000000 0.750000
vt 0.000000 0.800000
vt 0.050000 0.800000
vt 0.100000 0.800000
vt 0.150000 0.800000
vt 0.200000 0.800000
vt 0.250000 0.800000
vt 0.300000 0.800000
vt 0.350000 0.800000
vt 0.400000 0.800000
vt 0.450000 0.800000
vt 0.500000 0.800000
vt 0.550000 0.800000
vt 0.600000 0.800000
vt 0.650000 0.800000
vt 0.700000 0.800000
vt 0.750000 0.800000
vt 0.800000 0.800000
vt 0.850000 0.800000
vt 0.900000 0.800000
vt 0.950000 0.800000
vt 1.000000 0.800000
vt 0.000000 0.850000
vt 0.050000 0.850000
vt 0.100000 0.850000
vt 0.150000 0.850000
vt 0.200000 0.850000
vt 0.250000 0.850000
vt 0.300000 0.850000
vt 0.350000 0.850000
vt 0.400000 0.850000
vt 0.450000 0.850000
vt 0.500000 0.850000
vt 0.550000 0.850000
vt 0.600000 0.850000
vt 0.650000 0.850000
vt 0.700000 0.850000
vt 0.750000 0.850000
vt 0.800000 0.850000
vt 0.850000 0.850000
vt 0.900000 0.850000
vt 0.950000 0.850000
vt 1.000000 0.850000
vt 0.000000 0.900000
vt 0.050000 0.900000
vt 0.100000 0.900000
vt 0.150000 0.900000
vt 0.200000 0.900000
vt 0.250000 0.900000
vt 0.300000 0.900000
vt 0.350000 0.900000
vt 0.400000 0.900000
vt 0.450000 0.900000
vt 0.500000 0.900000
vt 0.550000 0.900000
vt 0.600000 0.900000
vt 0.650000 0.900000
vt 0.700000 0.900000
vt 0.750000 0.900000
vt 0.800000 0.900000
vt 0.850000 0.900000
vt 0.900000 0.900000
vt 0.950000 0.900000
vt 1.000000 0.900000
vt 0.000000 0.950000
vt 0.050000 0.950000
vt 0.100000 0.950000
vt 0.150000 0.950000
vt 0.200000 0.950000
vt 0.250000 0.950000
vt 0.300000 0.950000
vt 0.350000 0.950000
vt 0.400000 0.950000
vt 0.450000 0.950000
vt 0.500000 0.950000
vt 0.550000 0.950000
vt 0.600000 0.950000
vt 0.650000 0.950000
vt 0.700000 0.950000
vt 0.750000 0.950000
vt 0.800000 0.950000
vt 0.850000 0.950000
vt 0.900000 0.950000
vt 0.950000 0.950000
vt 1.000000 0.950000
vt 0.025000 1.000000
vt 0.075000 1.000000
vt 0.125000 1.000000
vt 0.175000 1.000000
vt 0.225000 1.000000
vt 0.275000 1.000000
vt 0.325000 1.000000
vt 0.375000 1.000000
vt 0.425000 1.000000
vt 0.475000 1.000000
vt 0.525000 1.000000
vt 0.575000 1.000000
vt 0.625000 1.000000
vt 0.675000 1.000000
vt 0.725000 1.000000
vt 0.775000 1.000000
vt 0.825000 1.000000
vt 0.875000 1.000000
vt 0.925000 1.000000
vt 0.975000 1.000000
vn 0.773588 0.254402 0.580381
vn 0.919764 0.103142 0.378677
vn 0.756445 0.251464 0.603785
vn 0.883808 0.003733 0.467835
vn 0.983733 -0.139667 0.112969
vn 0.974597 -0.142975 0.172392
vn 0.946034 -0.318101 -0.061900
vn 0.928119 -0.372221 -0.006834
vn 0.827575 -0.495988 -0.262899
vn 0.825597 -0.502728 -0.256231
vn 0.641806 -0.617490 -0.454743
vn 0.623928 -0.671573 -0.399630
vn 0.437967 -0.676753 -0.591769
vn 0.393437 -0.714890 -0.578048
vn 0.089010 -0.714396 -0.694058
vn 0.063317 -0.803706 -0.591649
vn -0.201908 -0.705578 -0.679259
vn -0.224654 -0.714031 -0.663092
vn -0.500513 -0.640027 -0.582969
vn -0.489431 -0.718198 -0.494620
vn -0.757841 -0.505175 -0.412886
vn -0.742731 -0.536307 -0.400905
vn -0.903259 -0.398910 -0.158096
vn -0.850044 -0.516046 -0.105456
vn -0.948418 -0.240749 0.206262
vn -0.936822 -0.293147 0.190865
vn -0.903632 -0.152753 0.400145
vn -0.851312 -0.268332 0.450850
vn -0.787546 -0.008272 0.616200
vn -0.778609 -0.031176 0.626734
vn -0.608099 0.138079 0.781761
vn -0.558009 0.020306 0.829587
vn -0.442898 0.256730 0.859029
vn -0.398379 0.236730 0.886145
vn -0.078157 0.413066 0.907341
vn -0.028196 0.292728 0.955780
vn 0.225773 0.462792 0.857234
vn 0.240913 0.431691 0.869255
vn 0.535359 0.379369 0.754633
vn 0.519907 0.275085 0.808718
vn 0.763903 0.325673 0.557125
vn 0.911753 0.145172 0.384229
vn 0.997140 0.049230 0.057350
vn 0.967983 -0.209828 -0.137770
vn 0.851299 -0.303067 -0.428299
vn 0.646961 -0.525744 -0.552299
vn 0.381249 -0.556864 -0.737937
vn 0.058711 -0.694300 -0.717287
vn -0.228328 -0.650776 -0.724125
vn -0.508547 -0.640666 -0.575263
vn -0.752502 -0.488635 -0.441562
vn -0.894627 -0.397589 -0.203875
vn -0.990332 -0.138570 0.006359
vn -0.944624 -0.055472 0.323433
vn -0.844420 0.213301 0.491382
vn -0.624714 0.259349 0.736526
vn -0.375077 0.466899 0.800826
vn -0.042472 0.441011 0.896496
vn 0.239590 0.487676 0.839505
vn 0.526617 0.378032 0.761424
vn 0.902829 0.387477 0.186446
vn 0.742741 0.530221 0.408903
vn 0.973719 0.219008 -0.062500
vn 0.948642 0.041263 -0.313649
vn 0.829140 -0.128698 -0.544026
vn 0.627264 -0.275003 -0.728638
vn 0.363935 -0.381076 -0.849901
vn 0.064016 -0.437993 -0.896696
vn -0.243294 -0.440130 -0.864346
vn -0.527978 -0.387178 -0.755865
vn -0.762111 -0.284216 -0.581729
vn -0.922628 -0.141250 -0.358896
vn -0.993634 0.027738 -0.109187
vn -0.968033 0.206157 0.142868
vn -0.849177 0.375064 0.371786
vn -0.648617 0.520492 0.555323
vn -0.384517 0.627167 0.677354
vn -0.083721 0.684312 0.724367
vn 0.224169 0.686376 0.691835
vn 0.508937 0.633243 0.583083
vn 0.869043 0.482956 0.107322
vn 0.713667 0.621044 0.324013
vn 0.937819 0.319881 -0.134803
vn 0.913603 0.147690 -0.378837
vn 0.797276 -0.018502 -0.603331
vn 0.600190 -0.160737 -0.783541
vn 0.344535 -0.263966 -0.900898
vn 0.053331 -0.319780 -0.945990
vn -0.245242 -0.322613 -0.914209
vn -0.522089 -0.271988 -0.808360
vn -0.750002 -0.172646 -0.638506
vn -0.906372 -0.034160 -0.421097
vn -0.975519 0.129942 -0.177421
vn -0.950367 0.303500 0.068485
vn -0.834919 0.467663 0.290174
vn -0.640529 0.608409 0.468573
vn -0.383224 0.712815 0.587396
vn -0.090196 0.769032 0.632814
vn 0.209551 0.771643 0.600545
vn 0.486518 0.720576 0.494036
vn 0.846939 0.527385 0.067521
vn 0.694906 0.662302 0.280111
vn 0.914189 0.368016 -0.169774
vn 0.890521 0.199676 -0.408780
vn 0.776409 0.036603 -0.629166
vn 0.582932 -0.103020 -0.805963
vn 0.332687 -0.204237 -0.920656
vn 0.047607 -0.259233 -0.964641
vn -0.244833 -0.262491 -0.933357
vn -0.516183 -0.213427 -0.829460
vn -0.739739 -0.116557 -0.662722
vn -0.893219 0.018837 -0.449228
vn -0.961100 0.179543 -0.209884
vn -0.936327 0.349700 0.031636
vn -0.823258 0.510323 0.248631
vn -0.633047 0.648156 0.423255
vn -0.380529 0.750878 0.539795
vn -0.092986 0.806340 0.584097
vn 0.201007 0.809224 0.552044
vn 0.472462 0.759493 0.447159
vn 0.820037 0.571747 0.025399
vn 0.672130 0.702958 0.232573
vn 0.885433 0.416786 -0.205663
vn 0.862468 0.253099 -0.438280
vn 0.751191 0.093975 -0.653361
vn 0.562346 -0.042250 -0.825822
vn 0.318841 -0.140795 -0.937293
vn 0.041408 -0.194497 -0.980029
vn -0.243323 -0.197934 -0.949535
vn -0.507698 -0.150450 -0.848297
vn -0.725667 -0.056338 -0.685736
vn -0.875404 0.075437 -0.477470
vn -0.941635 0.232028 -0.243896
vn -0.917371 0.397949 -0.008181
vn -0.807307 0.554166 0.202866
vn -0.622355 0.688272 0.372767
vn -0.376025 0.788642 0.486465
vn -0.095549 0.842886 0.529540
vn 0.191087 0.845833 0.498049
vn 0.455568 0.797495 0.395551
vn 0.781740 0.623022 -0.026937
vn 0.639767 0.749072 0.172018
vn 0.844524 0.474259 -0.248713
vn 0.822606 0.317176 -0.471931
vn 0.715573 0.163871 -0.679045
vn 0.533627 0.032794 -0.845084
vn 0.299901 -0.061700 -0.951973
vn 0.033596 -0.113222 -0.993002
vn -0.239834 -0.116538 -0.963794
vn -0.493876 -0.070951 -0.866633
vn -0.703469 0.019485 -0.710459
vn -0.847529 0.146211 -0.510213
vn -0.911233 0.296885 -0.285506
vn -0.887748 0.456573 -0.058687
vn -0.782104 0.606388 0.143550
vn -0.604887 0.734934 0.306566
vn -0.367899 0.831576 0.416090
vn -0.098062 0.883756 0.457558
vn 0.177589 0.886528 0.427235
vn 0.431776 0.839977 0.328645
vn 0.718778 0.687925 -0.100583
vn 0.586689 0.805423 0.084200
vn 0.777274 0.549429 -0.306550
vn 0.757134 0.403308 -0.513897
vn 0.657493 0.259869 -0.707228
vn 0.487352 0.137818 -0.862261
vn 0.270034 0.050258 -0.961538
vn 0.022445 0.002669 -0.999744
vn -0.231842 -0.000088 -0.972753
vn -0.468215 0.042663 -0.882584
vn -0.663328 0.127183 -0.737442
vn -0.797464 0.245518 -0.551155
vn -0.856706 0.386157 -0.341961
vn -0.834596 0.535126 -0.130726
vn -0.736365 0.674227 0.056425
vn -0.572327 0.793224 0.207937
vn -0.351591 0.883237 0.310284
vn -0.100214 0.931677 0.349191
vn 0.156516 0.933985 0.321207
vn 0.393149 0.890326 0.229680
vn 0.602293 0.769547 -0.212227
vn 0.488854 0.870657 -0.054579
vn 0.652768 0.650571 -0.388139
vn 0.635971 0.525198 -0.565427
vn 0.551252 0.400348 -0.732013
vn 0.403458 0.296382 -0.865667
vn 0.217220 0.221948 -0.950555
vn 0.005152 0.181904 -0.983303
vn -0.212597 0.180361 -0.960350
vn -0.414971 0.217847 -0.883369
vn -0.581969 0.291109 -0.759321
vn -0.696669 0.393273 -0.599990
vn -0.747108 0.514401 -0.420977
vn -0.727730 0.642441 -0.240163
vn -0.642927 0.761479 -0.082429
vn -0.504602 0.862019 0.047955
vn -0.315578 0.939067 0.136249
vn -0.100161 0.980294 0.170269
vn 0.119924 0.981837 0.147018
vn 0.322830 0.943914 0.069339
vn 0.372672 0.847357 -0.378287
vn 0.296994 0.914317 -0.275354
vn 0.406939 0.768557 -0.493681
vn 0.396791 0.685537 -0.610407
vn 0.347812 0.596113 -0.723654
vn 0.241003 0.532224 -0.811576
vn 0.117713 0.483930 -0.867153
vn -0.022330 0.458642 -0.888340
vn -0.165736 0.458946 -0.872869
vn -0.298606 0.485020 -0.821943
vn -0.407819 0.534535 -0.740240
vn -0.482366 0.602802 -0.635573
vn -0.514555 0.683163 -0.518191
vn -0.500902 0.767638 -0.399786
vn -0.437060 0.845751 -0.306080
vn -0.356940 0.909310 -0.213891
vn -0.233250 0.959992 -0.154949
vn -0.091891 0.987067 -0.131358
vn 0.052951 0.987976 -0.145258
vn 0.186924 0.962829 -0.194984
vn -0.056203 0.814604 -0.577289
vn -0.497856 0.272837 0.823225
vn -0.273961 -0.952043 0.136232
vn 0.021637 -0.902267 0.430635
vn -0.956432 -0.178444 0.231075
vn -0.238054 -0.730610 0.639953
vn 0.298222 -0.337685 0.892767
vn -0.779548 -0.513211 -0.359054
vn 0.771990 -0.245325 0.586385
vn -0.252804 -0.906393 0.338440
vn 0.385891 -0.418552 0.822133
vn 0.124203 -0.882638 0.453347
vn 0.096110 -0.671492 0.734753
vn 0.004243 -0.720423 0.693522
vn 0.006385 -0.797716 0.603000
vn -0.200042 -0.917845 0.342846
vn 0.570744 -0.414289 0.708954
vn 0.316494 -0.725922 0.610630
vn -0.627840 -0.749315 -0.210578
vn -0.588558 -0.799748 -0.118332
vn 0.781908 0.209529 0.587126
s 1
g tail group2 pSphere11
usemtl cha_bird_body1:lambert7SG
f 383/440/383 384/441/384 403/461/385
f 403/461/385 384/441/384 404/462/386
f 385/442/387 405/463/388 384/441/384
f 384/441/384 405/463/388 404/462/386
f 385/442/387 386/443/389 405/463/388
f 405/463/388 386/443/389 406/464/390
f 387/444/391 407/465/392 386/443/389
f 386/443/389 407/465/392 406/464/390
f 387/444/391 388/445/393 407/465/392
f 407/465/392 388/445/393 408/466/394
f 389/446/395 409/467/396 388/445/393
f 388/445/393 409/467/396 408/466/394
f 389/446/395 390/447/397 409/467/396
f 409/467/396 390/447/397 410/468/398
f 391/448/399 411/469/400 390/447/397
f 390/447/397 411/469/400 410/468/398
f 391/448/399 392/449/401 411/469/400
f 411/469/400 392/449/401 412/470/402
f 393/450/403 413/471/404 392/449/401
f 392/449/401 413/471/404 412/470/402
f 393/450/403 394/451/405 413/471/404
f 413/471/404 394/451/405 414/472/406
f 395/452/407 415/473/408 394/451/405
f 394/451/405 415/473/408 414/472/406
f 395/452/407 396/453/409 415/473/408
f 415/473/408 396/453/409 416/474/410
f 397/454/411 417/475/412 396/453/409
f 396/453/409 417/475/412 416/474/410
f 397/454/411 398/455/413 417/475/412
f 417/475/412 398/455/413 418/476/414
f 399/456/415 419/477/416 398/455/413
f 398/455/413 419/477/416 418/476/414
f 399/456/415 400/457/417 419/477/416
f 419/477/416 400/457/417 420/478/418
f 401/458/419 421/479/420 400/457/417
f 400/457/417 421/479/420 420/478/418
f 401/458/419 402/459/421 421/479/420
f 421/479/420 402/459/421 422/480/422
f 383/460/383 403/481/385 402/459/421
f 402/459/421 403/481/385 422/480/422
f 403/461/385 404/462/386 423/482/423
f 423/482/423 404/462/386 424/483/424
f 404/462/386 405/463/388 424/483/424
f 424/483/424 405/463/388 425/484/425
f 406/464/390 426/485/426 405/463/388
f 405/463/388 426/485/426 425/484/425
f 406/464/390 407/465/392 426/485/426
f 426/485/426 407/465/392 427/486/427
f 408/466/394 428/487/428 407/465/392
f 407/465/392 428/487/428 427/486/427
f 408/466/394 409/467/396 428/487/428
f 428/487/428 409/467/396 429/488/429
f 410/468/398 430/489/430 409/467/396
f 409/467/396 430/489/430 429/488/429
f 411/469/400 431/490/431 410/468/398
f 410/468/398 431/490/431 430/489/430
f 411/469/400 412/470/402 431/490/431
f 431/490/431 412/470/402 432/491/432
f 413/471/404 433/492/433 412/470/402
f 412/470/402 433/492/433 432/491/432
f 413/471/404 414/472/406 433/492/433
f 433/492/433 414/472/406 434/493/434
f 414/472/406 415/473/408 434/493/434
f 434/493/434 415/473/408 435/494/435
f 416/474/410 436/495/436 415/473/408
f 415/473/408 436/495/436 435/494/435
f 416/474/410 417/475/412 436/495/436
f 436/495/436 417/475/412 437/496/437
f 418/476/414 438/497/438 417/475/412
f 417/475/412 438/497/438 437/496/437
f 418/476/414 419/477/416 438/497/438
f 438/497/438 419/477/416 439/498/439
f 420/478/418 440/499/440 419/477/416
f 419/477/416 440/499/440 439/498/439
f 421/479/420 441/500/441 420/478/418
f 420/478/418 441/500/441 440/499/440
f 421/479/420 422/480/422 441/500/441
f 441/500/441 422/480/422 442/501/442
f 403/481/385 423/502/423 422/480/422
f 422/480/422 423/502/423 442/501/442
f 424/483/424 444/504/443 423/482/423
f 423/482/423 444/504/443 443/503/444
f 425/484/425 445/505/445 424/483/424
f 424/483/424 445/505/445 444/504/443
f 426/485/426 446/506/446 425/484/425
f 425/484/425 446/506/446 445/505/445
f 427/486/427 447/507/447 426/485/426
f 426/485/426 447/507/447 446/506/446
f 427/486/427 428/487/428 447/507/447
f 447/507/447 428/487/428 448/508/448
f 428/487/428 429/488/429 448/508/448
f 448/508/448 429/488/429 449/509/449
f 429/488/429 430/489/430 449/509/449
f 449/509/449 430/489/430 450/510/450
f 430/489/430 431/490/431 450/510/450
f 450/510/450 431/490/431 451/511/451
f 431/490/431 432/491/432 451/511/451
f 451/511/451 432/491/432 452/512/452
f 432/491/432 433/492/433 452/512/452
f 452/512/452 433/492/433 453/513/453
f 433/492/433 434/493/434 453/513/453
f 453/513/453 434/493/434 454/514/454
f 434/493/434 435/494/435 454/514/454
f 454/514/454 435/494/435 455/515/455
f 435/494/435 436/495/436 455/515/455
f 455/515/455 436/495/436 456/516/456
f 436/495/436 437/496/437 456/516/456
f 456/516/456 437/496/437 457/517/457
f 438/497/438 458/518/458 437/496/437
f 437/496/437 458/518/458 457/517/457
f 439/498/439 459/519/459 438/497/438
f 438/497/438 459/519/459 458/518/458
f 440/499/440 460/520/460 439/498/439
f 439/498/439 460/520/460 459/519/459
f 441/500/441 461/521/461 440/499/440
f 440/499/440 461/521/461 460/520/460
f 442/501/442 462/522/462 441/500/441
f 441/500/441 462/522/462 461/521/461
f 423/502/423 443/523/444 442/501/442
f 442/501/442 443/523/444 462/522/462
f 444/504/443 464/525/463 443/503/444
f 443/503/444 464/525/463 463/524/464
f 445/505/445 465/526/465 444/504/443
f 444/504/443 465/526/465 464/525/463
f 446/506/446 466/527/466 445/505/445
f 445/505/445 466/527/466 465/526/465
f 447/507/447 467/528/467 446/506/446
f 446/506/446 467/528/467 466/527/466
f 447/507/447 448/508/448 467/528/467
f 467/528/467 448/508/448 468/529/468
f 448/508/448 449/509/449 468/529/468
f 468/529/468 449/509/449 469/530/469
f 449/509/449 450/510/450 469/530/469
f 469/530/469 450/510/450 470/531/470
f 450/510/450 451/511/451 470/531/470
f 470/531/470 451/511/451 471/532/471
f 451/511/451 452/512/452 471/532/471
f 471/532/471 452/512/452 472/533/472
f 452/512/452 453/513/453 472/533/472
f 472/533/472 453/513/453 473/534/473
f 453/513/453 454/514/454 473/534/473
f 473/534/473 454/514/454 474/535/474
f 454/514/454 455/515/455 474/535/474
f 474/535/474 455/515/455 475/536/475
f 455/515/455 456/516/456 475/536/475
f 475/536/475 456/516/456 476/537/476
f 456/516/456 457/517/457 476/537/476
f 476/537/476 457/517/457 477/538/477
f 458/518/458 478/539/478 457/517/457
f 457/517/457 478/539/478 477/538/477
f 459/519/459 479/540/479 458/518/458
f 458/518/458 479/540/479 478/539/478
f 460/520/460 480/541/480 459/519/459
f 459/519/459 480/541/480 479/540/479
f 461/521/461 481/542/481 460/520/460
f 460/520/460 481/542/481 480/541/480
f 462/522/462 482/543/482 461/521/461
f 461/521/461 482/543/482 481/542/481
f 443/523/444 463/544/464 462/522/462
f 462/522/462 463/544/464 482/543/482
f 464/525/463 484/546/483 463/524/464
f 463/524/464 484/546/483 483/545/484
f 465/526/465 485/547/485 464/525/463
f 464/525/463 485/547/485 484/546/483
f 466/527/466 486/548/486 465/526/465
f 465/526/465 486/548/486 485/547/485
f 467/528/467 487/549/487 466/527/466
f 466/527/466 487/549/487 486/548/486
f 467/528/467 468/529/468 487/549/487
f 487/549/487 468/529/468 488/550/488
f 468/529/468 469/530/469 488/550/488
f 488/550/488 469/530/469 489/551/489
f 469/530/469 470/531/470 489/551/489
f 489/551/489 470/531/470 490/552/490
f 470/531/470 471/532/471 490/552/490
f 490/552/490 471/532/471 491/553/491
f 471/532/471 472/533/472 491/553/491
f 491/553/491 472/533/472 492/554/492
f 472/533/472 473/534/473 492/554/492
f 492/554/492 473/534/473 493/555/493
f 473/534/473 474/535/474 493/555/493
f 493/555/493 474/535/474 494/556/494
f 474/535/474 475/536/475 494/556/494
f 494/556/494 475/536/475 495/557/495
f 475/536/475 476/537/476 495/557/495
f 495/557/495 476/537/476 496/558/496
f 476/537/476 477/538/477 496/558/496
f 496/558/496 477/538/477 497/559/497
f 478/539/478 498/560/498 477/538/477
f 477/538/477 498/560/498 497/559/497
f 479/540/479 499/561/499 478/539/478
f 478/539/478 499/561/499 498/560/498
f 480/541/480 500/562/500 479/540/479
f 479/540/479 500/562/500 499/561/499
f 481/542/481 501/563/501 480/541/480
f 480/541/480 501/563/501 500/562/500
f 482/543/482 502/564/502 481/542/481
f 481/542/481 502/564/502 501/563/501
f 463/544/464 483/565/484 482/543/482
f 482/543/482 483/565/484 502/564/502
f 484/546/483 504/567/503 483/545/484
f 483/545/484 504/567/503 503/566/504
f 485/547/485 505/568/505 484/546/483
f 484/546/483 505/568/505 504/567/503
f 486/548/486 506/569/506 485/547/485
f 485/547/485 506/569/506 505/568/505
f 487/549/487 507/570/507 486/548/486
f 486/548/486 507/570/507 506/569/506
f 487/549/487 488/550/488 507/570/507
f 507/570/507 488/550/488 508/571/508
f 488/550/488 489/551/489 508/571/508
f 508/571/508 489/551/489 509/572/509
f 489/551/489 490/552/490 509/572/509
f 509/572/509 490/552/490 510/573/510
f 490/552/490 491/553/491 510/573/510
f 510/573/510 491/553/491 511/574/511
f 491/553/491 492/554/492 511/574/511
f 511/574/511 492/554/492 512/575/512
f 492/554/492 493/555/493 512/575/512
f 512/575/512 493/555/493 513/576/513
f 493/555/493 494/556/494 513/576/513
f 513/576/513 494/556/494 514/577/514
f 494/556/494 495/557/495 514/577/514
f 514/577/514 495/557/495 515/578/515
f 495/557/495 496/558/496 515/578/515
f 515/578/515 496/558/496 516/579/516
f 496/558/496 497/559/497 516/579/516
f 516/579/516 497/559/497 517/580/517
f 498/560/498 518/581/518 497/559/497
f 497/559/497 518/581/518 517/580/517
f 499/561/499 519/582/519 498/560/498
f 498/560/498 519/582/519 518/581/518
f 500/562/500 520/583/520 499/561/499
f 499/561/499 520/583/520 519/582/519
f 501/563/501 521/584/521 500/562/500
f 500/562/500 521/584/521 520/583/520
f 502/564/502 522/585/522 501/563/501
f 501/563/501 522/585/522 521/584/521
f 483/565/484 503/586/504 502/564/502
f 502/564/502 503/586/504 522/585/522
f 504/567/503 524/588/523 503/566/504
f 503/566/504 524/588/523 523/587/524
f 505/568/505 525/589/525 504/567/503
f 504/567/503 525/589/525 524/588/523
f 506/569/506 526/590/526 505/568/505
f 505/568/505 526/590/526 525/589/525
f 507/570/507 527/591/527 506/569/506
f 506/569/506 527/591/527 526/590/526
f 507/570/507 508/571/508 527/591/527
f 527/591/527 508/571/508 528/592/528
f 508/571/508 509/572/509 528/592/528
f 528/592/528 509/572/509 529/593/529
f 509/572/509 510/573/510 529/593/529
f 529/593/529 510/573/510 530/594/530
f 510/573/510 511/574/511 530/594/530
f 530/594/530 511/574/511 531/595/531
f 511/574/511 512/575/512 531/595/531
f 531/595/531 512/575/512 532/596/532
f 512/575/512 513/576/513 532/596/532
f 532/596/532 513/576/513 533/597/533
f 513/576/513 514/577/514 533/597/533
f 533/597/533 514/577/514 534/598/534
f 514/577/514 515/578/515 534/598/534
f 534/598/534 515/578/515 535/599/535
f 515/578/515 516/579/516 535/599/535
f 535/599/535 516/579/516 536/600/536
f 516/579/516 517/580/517 536/600/536
f 536/600/536 517/580/517 537/601/537
f 518/581/518 538/602/538 517/580/517
f 517/580/517 538/602/538 537/601/537
f 519/582/519 539/603/539 518/581/518
f 518/581/518 539/603/539 538/602/538
f 520/583/520 540/604/540 519/582/519
f 519/582/519 540/604/540 539/603/539
f 521/584/521 541/605/541 520/583/520
f 520/583/520 541/605/541 540/604/540
f 522/585/522 542/606/542 521/584/521
f 521/584/521 542/606/542 541/605/541
f 503/586/504 523/607/524 522/585/522
f 522/585/522 523/607/524 542/606/542
f 524/588/523 544/609/543 523/587/524
f 523/587/524 544/609/543 543/608/544
f 525/589/525 545/610/545 524/588/523
f 524/588/523 545/610/545 544/609/543
f 526/590/526 546/611/546 525/589/525
f 525/589/525 546/611/546 545/610/545
f 527/591/527 547/612/547 526/590/526
f 526/590/526 547/612/547 546/611/546
f 527/591/527 528/592/528 547/612/547
f 547/612/547 528/592/528 548/613/548
f 528/592/528 529/593/529 548/613/548
f 548/613/548 529/593/529 549/614/549
f 529/593/529 530/594/530 549/614/549
f 549/614/549 530/594/530 550/615/550
f 530/594/530 531/595/531 550/615/550
f 550/615/550 531/595/531 551/616/551
f 531/595/531 532/596/532 551/616/551
f 551/616/551 532/596/532 552/617/552
f 532/596/532 533/597/533 552/617/552
f 552/617/552 533/597/533 553/618/553
f 533/597/533 534/598/534 553/618/553
f 553/618/553 534/598/534 554/619/554
f 534/598/534 535/599/535 554/619/554
f 554/619/554 535/599/535 555/620/555
f 535/599/535 536/600/536 555/620/555
f 555/620/555 536/600/536 556/621/556
f 536/600/536 537/601/537 556/621/556
f 556/621/556 537/601/537 557/622/557
f 538/602/538 558/623/558 537/601/537
f 537/601/537 558/623/558 557/622/557
f 539/603/539 559/624/559 538/602/538
f 538/602/538 559/624/559 558/623/558
f 540/604/540 560/625/560 539/603/539
f 539/603/539 560/625/560 559/624/559
f 541/605/541 561/626/561 540/604/540
f 540/604/540 561/626/561 560/625/560
f 542/606/542 562/627/562 541/605/541
f 541/605/541 562/627/562 561/626/561
f 523/607/524 543/628/544 542/606/542
f 542/606/542 543/628/544 562/627/562
f 544/609/543 564/630/563 543/608/544
f 543/608/544 564/630/563 563/629/564
f 545/610/545 565/631/565 544/609/543
f 544/609/543 565/631/565 564/630/563
f 546/611/546 566/632/566 545/610/545
f 545/610/545 566/632/566 565/631/565
f 547/612/547 567/633/567 546/611/546
f 546/611/546 567/633/567 566/632/566
f 547/612/547 548/613/548 567/633/567
f 567/633/567 548/613/548 568/634/568
f 548/613/548 549/614/549 568/634/568
f 568/634/568 549/614/549 569/635/569
f 549/614/549 550/615/550 569/635/569
f 569/635/569 550/615/550 570/636/570
f 550/615/550 551/616/551 570/636/570
f 570/636/570 551/616/551 571/637/571
f 551/616/551 552/617/552 571/637/571
f 571/637/571 552/617/552 572/638/572
f 552/617/552 553/618/553 572/638/572
f 572/638/572 553/618/553 573/639/573
f 553/618/553 554/619/554 573/639/573
f 573/639/573 554/619/554 574/640/574
f 554/619/554 555/620/555 574/640/574
f 574/640/574 555/620/555 575/641/575
f 555/620/555 556/621/556 575/641/575
f 575/641/575 556/621/556 576/642/576
f 556/621/556 557/622/557 576/642/576
f 576/642/576 557/622/557 577/643/577
f 558/623/558 578/644/578 557/622/557
f 557/622/557 578/644/578 577/643/577
f 559/624/559 579/645/579 558/623/558
f 558/623/558 579/645/579 578/644/578
f 560/625/560 580/646/580 559/624/559
f 559/624/559 580/646/580 579/645/579
f 561/626/561 581/647/581 560/625/560
f 560/625/560 581/647/581 580/646/580
f 562/627/562 582/648/582 561/626/561
f 561/626/561 582/648/582 581/647/581
f 543/628/544 563/649/564 562/627/562
f 562/627/562 563/649/564 582/648/582
f 564/630/563 584/651/583 563/629/564
f 563/629/564 584/651/583 583/650/584
f 565/631/565 585/652/585 564/630/563
f 564/630/563 585/652/585 584/651/583
f 566/632/566 586/653/586 565/631/565
f 565/631/565 586/653/586 585/652/585
f 567/633/567 587/654/587 566/632/566
f 566/632/566 587/654/587 586/653/586
f 567/633/567 568/634/568 587/654/587
f 587/654/587 568/634/568 588/655/588
f 568/634/568 569/635/569 588/655/588
f 588/655/588 569/635/569 589/656/589
f 569/635/569 570/636/570 589/656/589
f 589/656/589 570/636/570 590/657/590
f 570/636/570 571/637/571 590/657/590
f 590/657/590 571/637/571 591/658/591
f 571/637/571 572/638/572 591/658/591
f 591/658/591 572/638/572 592/659/592
f 572/638/572 573/639/573 592/659/592
f 592/659/592 573/639/573 593/660/593
f 573/639/573 574/640/574 593/660/593
f 593/660/593 574/640/574 594/661/594
f 574/640/574 575/641/575 594/661/594
f 594/661/594 575/641/575 595/662/595
f 575/641/575 576/642/576 595/662/595
f 595/662/595 576/642/576 596/663/596
f 576/642/576 577/643/577 596/663/596
f 596/663/596 577/643/577 597/664/597
f 578/644/578 598/665/598 577/643/577
f 577/643/577 598/665/598 597/664/597
f 579/645/579 599/666/599 578/644/578
f 578/644/578 599/666/599 598/665/598
f 580/646/580 600/667/600 579/645/579
f 579/645/579 600/667/600 599/666/599
f 581/647/581 601/668/601 580/646/580
f 580/646/580 601/668/601 600/667/600
f 582/648/582 602/669/602 581/647/581
f 581/647/581 602/669/602 601/668/601
f 563/649/564 583/670/584 582/648/582
f 582/648/582 583/670/584 602/669/602
f 583/650/584 584/651/583 603/671/603
f 584/651/583 585/652/585 603/672/603
f 585/652/585 586/653/586 603/673/603
f 586/653/586 587/654/587 603/674/603
f 587/654/587 588/655/588 603/675/603
f 588/655/588 589/656/589 603/676/603
f 589/656/589 590/657/590 603/677/603
f 590/657/590 591/658/591 603/678/603
f 591/658/591 592/659/592 603/679/603
f 592/659/592 593/660/593 603/680/603
f 593/660/593 594/661/594 603/681/603
f 594/661/594 595/662/595 603/682/603
f 595/662/595 596/663/596 603/683/603
f 596/663/596 597/664/597 603/684/603
f 597/664/597 598/665/598 603/685/603
f 598/665/598 599/666/599 603/686/603
f 599/666/599 600/667/600 603/687/603
f 600/667/600 601/668/601 603/688/603
f 601/668/601 602/669/602 603/689/603
f 602/669/602 583/670/584 603/690/603
s 11
f 389/446/604 388/445/605 390/447/606
f 385/442/607 384/441/608 386/443/609
f 383/460/610 402/459/611 384/441/608
f 384/441/608 402/459/611 386/443/609
f 402/459/611 401/458/612 386/443/609
f 401/458/612 400/457/613 386/443/609
f 400/457/613 399/456/614 386/443/609
f 399/456/614 398/455/615 386/443/609
f 398/455/615 397/454/616 386/443/609
f 386/443/609 397/454/616 387/444/617
f 387/444/617 397/454/616 388/445/605
f 388/445/605 397/454/616 390/447/606
f 397/454/616 396/453/618 390/447/606
f 396/453/618 395/452/619 390/447/606
f 390/447/606 395/452/619 391/448/620
f 391/448/620 395/452/619 392/449/621
f 395/452/619 394/451/622 392/449/621
f 394/451/622 393/450/623 392/449/621
