# This file uses centimeters as units for non-parametric coordinates.

mtllib cha_fox_leftleg.mtl
g default
v 0.126749 -0.192001 -0.047472
v 0.104928 -0.192001 -0.090296
v 0.070943 -0.192001 -0.124282
v 0.028118 -0.192001 -0.146103
v 0.001541 -0.192001 -0.153621
v -0.025036 -0.192001 -0.146103
v -0.067861 -0.192001 -0.124282
v -0.101847 -0.192001 -0.090296
v -0.123667 -0.192001 -0.047472
v -0.131186 -0.192001 0.000000
v -0.123667 -0.192001 0.047472
v -0.101847 -0.192001 0.090296
v -0.067861 -0.192001 0.124282
v -0.025036 -0.192001 0.146103
v 0.001541 -0.192001 0.153621
v 0.028118 -0.192001 0.146103
v 0.070942 -0.192001 0.124282
v 0.104928 -0.192001 0.090296
v 0.126749 -0.192001 0.047472
v 0.134267 -0.192001 0.000000
v 0.107900 0.031663 -0.034558
v 0.092015 0.031663 -0.065733
v 0.067274 0.031663 -0.090474
v 0.036099 0.031663 -0.106359
v 0.001541 0.031663 -0.111832
v -0.033017 0.031663 -0.106359
v -0.064193 0.031663 -0.090474
v -0.088934 0.031663 -0.065733
v -0.104818 0.031663 -0.034558
v -0.110292 0.031663 0.000000
v -0.104818 0.031663 0.034558
v -0.088934 0.031663 0.065733
v -0.064193 0.031663 0.090474
v -0.033017 0.031663 0.106359
v 0.001541 0.031663 0.111832
v 0.036099 0.031663 0.106359
v 0.067274 0.031663 0.090474
v 0.092015 0.031663 0.065733
v 0.107899 0.031663 0.034558
v 0.113373 0.031663 0.000000
v 0.001541 -0.192001 0.000000
v 0.001541 0.031663 0.000000
vt 0.648603 0.107966
vt 0.626409 0.064408
vt 0.591842 0.029841
vt 0.548284 0.007647
vt 0.500000 -0.000000
vt 0.451716 0.007647
vt 0.408159 0.029841
vt 0.373591 0.064409
vt 0.351397 0.107966
vt 0.343750 0.156250
vt 0.351397 0.204534
vt 0.373591 0.248091
vt 0.408159 0.282659
vt 0.451716 0.304853
vt 0.500000 0.312500
vt 0.548284 0.304853
vt 0.591841 0.282659
vt 0.626409 0.248091
vt 0.648603 0.204534
vt 0.656250 0.156250
vt 0.375000 0.312500
vt 0.387500 0.312500
vt 0.400000 0.312500
vt 0.412500 0.312500
vt 0.425000 0.312500
vt 0.437500 0.312500
vt 0.450000 0.312500
vt 0.462500 0.312500
vt 0.475000 0.312500
vt 0.487500 0.312500
vt 0.500000 0.312500
vt 0.512500 0.312500
vt 0.525000 0.312500
vt 0.537500 0.312500
vt 0.550000 0.312500
vt 0.562500 0.312500
vt 0.575000 0.312500
vt 0.587500 0.312500
vt 0.600000 0.312500
vt 0.612500 0.312500
vt 0.625000 0.312500
vt 0.375000 0.687500
vt 0.387500 0.687500
vt 0.400000 0.687500
vt 0.412500 0.687500
vt 0.425000 0.687500
vt 0.437500 0.687500
vt 0.450000 0.687500
vt 0.462500 0.687500
vt 0.475000 0.687500
vt 0.487500 0.687500
vt 0.500000 0.687500
vt 0.512500 0.687500
vt 0.525000 0.687500
vt 0.537500 0.687500
vt 0.550000 0.687500
vt 0.562500 0.687500
vt 0.575000 0.687500
vt 0.587500 0.687500
vt 0.600000 0.687500
vt 0.612500 0.687500
vt 0.625000 0.687500
vt 0.648603 0.795466
vt 0.626409 0.751908
vt 0.591842 0.717341
vt 0.548284 0.695147
vt 0.500000 0.687500
vt 0.451716 0.695147
vt 0.408159 0.717341
vt 0.373591 0.751909
vt 0.351397 0.795466
vt 0.343750 0.843750
vt 0.351397 0.892034
vt 0.373591 0.935591
vt 0.408159 0.970159
vt 0.451716 0.992353
vt 0.500000 1.000000
vt 0.548284 0.992353
vt 0.591841 0.970159
vt 0.626409 0.935591
vt 0.648603 0.892034
vt 0.656250 0.843750
vt 0.500000 0.156250
vt 0.500000 0.843750
vn 0.802054 0.110760 -0.586892
vn 0.809387 0.110082 -0.576866
vn 0.946288 0.097546 -0.308259
vn 0.948559 0.097333 -0.301267
vn 0.578304 0.131196 -0.805203
vn 0.591612 0.129974 -0.795677
vn 0.373414 0.155688 -0.914507
vn 0.316737 0.154977 -0.935767
vn 0.000000 0.183660 -0.982990
vn 0.000000 0.170391 -0.985376
vn -0.373414 0.155688 -0.914507
vn -0.316737 0.154977 -0.935767
vn -0.578305 0.131195 -0.805203
vn -0.591612 0.129974 -0.795677
vn -0.802054 0.110760 -0.586891
vn -0.809387 0.110082 -0.576866
vn -0.946288 0.097545 -0.308259
vn -0.948559 0.097333 -0.301268
vn -0.995665 0.093014 -0.000000
vn -0.995665 0.093014 0.000000
vn -0.946288 0.097546 0.308260
vn -0.948559 0.097333 0.301268
vn -0.802054 0.110760 0.586891
vn -0.809387 0.110082 0.576866
vn -0.578304 0.131196 0.805203
vn -0.591612 0.129974 0.795677
vn -0.373414 0.155688 0.914507
vn -0.316737 0.154977 0.935767
vn 0.000001 0.183660 0.982990
vn 0.000000 0.170391 0.985376
vn 0.373414 0.155688 0.914507
vn 0.316737 0.154977 0.935767
vn 0.578304 0.131195 0.805203
vn 0.591612 0.129974 0.795677
vn 0.802054 0.110760 0.586891
vn 0.809387 0.110082 0.576866
vn 0.946288 0.097545 0.308260
vn 0.948559 0.097333 0.301268
vn 0.995665 0.093014 0.000001
vn 0.995665 0.093014 0.000002
vn 0.000000 -1.000000 0.000000
vn 0.000000 -1.000000 0.000000
vn 0.000000 -1.000000 0.000000
vn 0.000000 -1.000000 0.000000
vn 0.000000 -1.000000 0.000000
vn 0.000000 -1.000000 0.000000
vn 0.000000 -1.000000 0.000000
vn 0.000000 -1.000000 0.000000
vn 0.000000 -1.000000 0.000000
vn 0.000000 -1.000000 0.000000
vn 0.000000 -1.000000 0.000000
vn 0.000000 -1.000000 0.000000
vn 0.000000 -1.000000 0.000000
vn 0.000000 -1.000000 0.000000
vn 0.000000 -1.000000 0.000000
vn 0.000000 -1.000000 0.000000
vn 0.000000 -1.000000 0.000000
vn 0.000000 -1.000000 0.000000
vn 0.000000 -1.000000 0.000000
vn 0.000000 -1.000000 0.000000
vn 0.000000 -1.000000 0.000000
vn 0.000000 1.000000 0.000000
vn 0.000000 1.000000 0.000000
vn 0.000000 1.000000 -0.000000
vn 0.000000 1.000000 0.000000
vn 0.000000 1.000000 -0.000000
vn 0.000000 1.000000 0.000000
vn 0.000000 1.000000 -0.000000
vn 0.000000 1.000000 0.000000
vn 0.000000 1.000000 0.000000
vn 0.000000 1.000000 0.000000
vn 0.000000 1.000000 0.000000
vn 0.000000 1.000000 0.000000
vn 0.000000 1.000000 -0.000000
vn 0.000000 1.000000 -0.000000
vn 0.000000 1.000000 0.000000
vn 0.000000 1.000000 0.000000
vn 0.000000 1.000000 0.000000
vn 0.000000 1.000000 -0.000000
vn 0.000000 1.000000 -0.000000
vn 0.000000 1.000000 0.000000
vn 0.000000 1.000000 0.000000
s 1
g pCylinder1 leftleg group2
usemtl cha_bird_leftleg:lambert3SG
f 2/22/1 22/43/2 1/21/3
f 1/21/3 22/43/2 21/42/4
f 3/23/5 23/44/6 2/22/1
f 2/22/1 23/44/6 22/43/2
f 4/24/7 24/45/8 3/23/5
f 3/23/5 24/45/8 23/44/6
f 5/25/9 25/46/10 4/24/7
f 4/24/7 25/46/10 24/45/8
f 5/25/9 6/26/11 25/46/10
f 25/46/10 6/26/11 26/47/12
f 6/26/11 7/27/13 26/47/12
f 26/47/12 7/27/13 27/48/14
f 7/27/13 8/28/15 27/48/14
f 27/48/14 8/28/15 28/49/16
f 8/28/15 9/29/17 28/49/16
f 28/49/16 9/29/17 29/50/18
f 9/29/17 10/30/19 29/50/18
f 29/50/18 10/30/19 30/51/20
f 11/31/21 31/52/22 10/30/19
f 10/30/19 31/52/22 30/51/20
f 12/32/23 32/53/24 11/31/21
f 11/31/21 32/53/24 31/52/22
f 13/33/25 33/54/26 12/32/23
f 12/32/23 33/54/26 32/53/24
f 14/34/27 34/55/28 13/33/25
f 13/33/25 34/55/28 33/54/26
f 15/35/29 35/56/30 14/34/27
f 14/34/27 35/56/30 34/55/28
f 15/35/29 16/36/31 35/56/30
f 35/56/30 16/36/31 36/57/32
f 16/36/31 17/37/33 36/57/32
f 36/57/32 17/37/33 37/58/34
f 17/37/33 18/38/35 37/58/34
f 37/58/34 18/38/35 38/59/36
f 18/38/35 19/39/37 38/59/36
f 38/59/36 19/39/37 39/60/38
f 19/39/37 20/40/39 39/60/38
f 39/60/38 20/40/39 40/61/40
f 1/41/3 21/62/4 20/40/39
f 20/40/39 21/62/4 40/61/40
s 10
f 2/2/41 1/1/42 41/83/43
f 3/3/44 2/2/41 41/83/43
f 4/4/45 3/3/44 41/83/43
f 5/5/46 4/4/45 41/83/43
f 6/6/47 5/5/46 41/83/43
f 7/7/48 6/6/47 41/83/43
f 8/8/49 7/7/48 41/83/43
f 9/9/50 8/8/49 41/83/43
f 10/10/51 9/9/50 41/83/43
f 11/11/52 10/10/51 41/83/43
f 12/12/53 11/11/52 41/83/43
f 13/13/54 12/12/53 41/83/43
f 14/14/55 13/13/54 41/83/43
f 15/15/56 14/14/55 41/83/43
f 16/16/57 15/15/56 41/83/43
f 17/17/58 16/16/57 41/83/43
f 18/18/59 17/17/58 41/83/43
f 19/19/60 18/18/59 41/83/43
f 20/20/61 19/19/60 41/83/43
f 1/1/42 20/20/61 41/83/43
s 11
f 21/81/62 22/80/63 42/84/64
f 22/80/63 23/79/65 42/84/64
f 23/79/65 24/78/66 42/84/64
f 24/78/66 25/77/67 42/84/64
f 25/77/67 26/76/68 42/84/64
f 26/76/68 27/75/69 42/84/64
f 27/75/69 28/74/70 42/84/64
f 28/74/70 29/73/71 42/84/64
f 29/73/71 30/72/72 42/84/64
f 30/72/72 31/71/73 42/84/64
f 31/71/73 32/70/74 42/84/64
f 32/70/74 33/69/75 42/84/64
f 33/69/75 34/68/76 42/84/64
f 34/68/76 35/67/77 42/84/64
f 35/67/77 36/66/78 42/84/64
f 36/66/78 37/65/79 42/84/64
f 37/65/79 38/64/80 42/84/64
f 38/64/80 39/63/81 42/84/64
f 39/63/81 40/82/82 42/84/64
f 40/82/82 21/81/62 42/84/64
g default
v 0.117135 -0.249463 -0.040131
v 0.098974 -0.249463 -0.075773
v 0.070688 -0.249463 -0.104059
v 0.035045 -0.249463 -0.122220
v 0.002526 -0.249463 -0.128478
v -0.029994 -0.249463 -0.122220
v -0.065637 -0.249463 -0.104059
v -0.093923 -0.249463 -0.075773
v -0.112083 -0.249463 -0.040131
v -0.118341 -0.249463 -0.000621
v -0.112083 -0.249463 0.038889
v -0.093923 -0.249463 0.074532
v -0.065636 -0.249463 0.102818
v -0.029994 -0.249463 0.120979
v 0.002526 -0.249463 0.127237
v 0.035045 -0.249463 0.120979
v 0.070688 -0.249463 0.102818
v 0.098974 -0.249463 0.074532
v 0.117134 -0.249463 0.038889
v 0.123392 -0.249463 -0.000621
v 0.126688 -0.186955 -0.046534
v 0.107720 -0.186955 -0.088513
v 0.078177 -0.186955 -0.121828
v 0.040950 -0.186955 -0.143217
v 0.002526 -0.186955 -0.150587
v -0.035899 -0.186955 -0.143217
v -0.073126 -0.186955 -0.121828
v -0.102669 -0.186955 -0.088513
v -0.121637 -0.186955 -0.046534
v -0.128173 -0.186955 0.000000
v -0.121637 -0.186955 0.046534
v -0.102669 -0.186955 0.088513
v -0.073126 -0.186955 0.121828
v -0.035899 -0.186955 0.143217
v 0.002526 -0.186955 0.150587
v 0.040950 -0.186955 0.143217
v 0.078177 -0.186955 0.121828
v 0.107720 -0.186955 0.088513
v 0.126688 -0.186955 0.046534
v 0.133224 -0.186955 0.000000
v 0.002526 -0.249463 0.000000
v 0.002526 -0.186955 0.000000
vt 0.648603 0.107966
vt 0.626409 0.064408
vt 0.591842 0.029841
vt 0.548284 0.007647
vt 0.500000 -0.000000
vt 0.451716 0.007647
vt 0.408159 0.029841
vt 0.373591 0.064409
vt 0.351397 0.107966
vt 0.343750 0.156250
vt 0.351397 0.204534
vt 0.373591 0.248091
vt 0.408159 0.282659
vt 0.451716 0.304853
vt 0.500000 0.312500
vt 0.548284 0.304853
vt 0.591841 0.282659
vt 0.626409 0.248091
vt 0.648603 0.204534
vt 0.656250 0.156250
vt 0.375000 0.312500
vt 0.387500 0.312500
vt 0.400000 0.312500
vt 0.412500 0.312500
vt 0.425000 0.312500
vt 0.437500 0.312500
vt 0.450000 0.312500
vt 0.462500 0.312500
vt 0.475000 0.312500
vt 0.487500 0.312500
vt 0.500000 0.312500
vt 0.512500 0.312500
vt 0.525000 0.312500
vt 0.537500 0.312500
vt 0.550000 0.312500
vt 0.562500 0.312500
vt 0.575000 0.312500
vt 0.587500 0.312500
vt 0.600000 0.312500
vt 0.612500 0.312500
vt 0.625000 0.312500
vt 0.375000 0.687500
vt 0.387500 0.687500
vt 0.400000 0.687500
vt 0.412500 0.687500
vt 0.425000 0.687500
vt 0.437500 0.687500
vt 0.450000 0.687500
vt 0.462500 0.687500
vt 0.475000 0.687500
vt 0.487500 0.687500
vt 0.500000 0.687500
vt 0.512500 0.687500
vt 0.525000 0.687500
vt 0.537500 0.687500
vt 0.550000 0.687500
vt 0.562500 0.687500
vt 0.575000 0.687500
vt 0.587500 0.687500
vt 0.600000 0.687500
vt 0.612500 0.687500
vt 0.625000 0.687500
vt 0.648603 0.795466
vt 0.626409 0.751908
vt 0.591842 0.717341
vt 0.548284 0.695147
vt 0.500000 0.687500
vt 0.451716 0.695147
vt 0.408159 0.717341
vt 0.373591 0.751909
vt 0.351397 0.795466
vt 0.343750 0.843750
vt 0.351397 0.892034
vt 0.373591 0.935591
vt 0.408159 0.970159
vt 0.451716 0.992353
vt 0.500000 1.000000
vt 0.548284 0.992353
vt 0.591841 0.970159
vt 0.626409 0.935591
vt 0.648603 0.892034
vt 0.656250 0.843750
vt 0.500000 0.156250
vt 0.500000 0.843750
vn 0.938662 -0.168475 -0.300881
vn 0.794271 -0.211952 -0.569394
vn 0.943544 -0.185793 -0.274235
vn 0.814135 -0.238830 -0.529287
vn 0.570804 -0.270152 -0.775371
vn 0.602284 -0.296830 -0.741043
vn 0.323793 -0.314178 -0.892441
vn 0.335976 -0.328166 -0.882852
vn -0.000000 -0.333748 -0.942662
vn 0.000000 -0.333464 -0.942763
vn -0.323793 -0.314178 -0.892441
vn -0.335977 -0.328166 -0.882852
vn -0.570804 -0.270152 -0.775371
vn -0.602285 -0.296831 -0.741043
vn -0.794271 -0.211952 -0.569394
vn -0.814135 -0.238830 -0.529286
vn -0.938662 -0.168475 -0.300882
vn -0.943544 -0.185792 -0.274236
vn -0.987856 -0.155375 -0.000238
vn -0.986235 -0.165349 0.000216
vn -0.937846 -0.174222 0.300152
vn -0.942447 -0.191113 0.274353
vn -0.792556 -0.222635 0.567705
vn -0.811829 -0.248786 0.528242
vn -0.568602 -0.284279 0.771931
vn -0.599361 -0.310213 0.737926
vn -0.322078 -0.329995 0.887338
vn -0.333851 -0.343676 0.877742
vn 0.000000 -0.350223 0.936667
vn -0.000000 -0.349944 0.936771
vn 0.322078 -0.329995 0.887338
vn 0.333851 -0.343677 0.877741
vn 0.568602 -0.284279 0.771931
vn 0.599361 -0.310213 0.737926
vn 0.792556 -0.222635 0.567705
vn 0.811829 -0.248786 0.528242
vn 0.937846 -0.174223 0.300152
vn 0.942447 -0.191113 0.274353
vn 0.987855 -0.155376 -0.000237
vn 0.986235 -0.165349 0.000216
vn 0.000000 -1.000000 0.000000
vn 0.000000 -1.000000 -0.000000
vn 0.000000 -1.000000 -0.000000
vn 0.000000 -1.000000 0.000000
vn 0.000000 -1.000000 0.000000
vn 0.000000 -1.000000 0.000000
vn 0.000000 -1.000000 0.000000
vn 0.000000 -1.000000 0.000000
vn 0.000000 -1.000000 0.000000
vn 0.000000 -1.000000 -0.000000
vn 0.000000 -1.000000 -0.000000
vn 0.000000 -1.000000 0.000000
vn 0.000000 -1.000000 0.000000
vn 0.000000 -1.000000 -0.000000
vn 0.000000 -1.000000 -0.000000
vn 0.000000 -1.000000 0.000000
vn 0.000000 -1.000000 0.000000
vn 0.000000 -1.000000 0.000000
vn 0.000000 -1.000000 0.000000
vn 0.000000 -1.000000 0.000000
vn 0.000000 -1.000000 -0.000000
vn 0.000000 1.000000 0.000000
vn 0.000000 1.000000 0.000000
vn 0.000000 1.000000 -0.000000
vn 0.000000 1.000000 0.000000
vn 0.000000 1.000000 0.000000
vn 0.000000 1.000000 0.000000
vn 0.000000 1.000000 0.000000
vn 0.000000 1.000000 0.000000
vn 0.000000 1.000000 -0.000000
vn 0.000000 1.000000 -0.000000
vn 0.000000 1.000000 0.000000
vn 0.000000 1.000000 0.000000
vn 0.000000 1.000000 0.000000
vn 0.000000 1.000000 0.000000
vn 0.000000 1.000000 0.000000
vn 0.000000 1.000000 0.000000
vn 0.000000 1.000000 -0.000000
vn 0.000000 1.000000 -0.000000
vn 0.000000 1.000000 0.000000
vn 0.000000 1.000000 0.000000
vn 0.000000 1.000000 -0.000000
s 1
g leftleg group2 pCylinder2
usemtl lambert5SG
f 43/105/83 44/106/84 63/126/85
f 63/126/85 44/106/84 64/127/86
f 44/106/84 45/107/87 64/127/86
f 64/127/86 45/107/87 65/128/88
f 45/107/87 46/108/89 65/128/88
f 65/128/88 46/108/89 66/129/90
f 46/108/89 47/109/91 66/129/90
f 66/129/90 47/109/91 67/130/92
f 48/110/93 68/131/94 47/109/91
f 47/109/91 68/131/94 67/130/92
f 49/111/95 69/132/96 48/110/93
f 48/110/93 69/132/96 68/131/94
f 50/112/97 70/133/98 49/111/95
f 49/111/95 70/133/98 69/132/96
f 51/113/99 71/134/100 50/112/97
f 50/112/97 71/134/100 70/133/98
f 52/114/101 72/135/102 51/113/99
f 51/113/99 72/135/102 71/134/100
f 52/114/101 53/115/103 72/135/102
f 72/135/102 53/115/103 73/136/104
f 53/115/103 54/116/105 73/136/104
f 73/136/104 54/116/105 74/137/106
f 54/116/105 55/117/107 74/137/106
f 74/137/106 55/117/107 75/138/108
f 55/117/107 56/118/109 75/138/108
f 75/138/108 56/118/109 76/139/110
f 56/118/109 57/119/111 76/139/110
f 76/139/110 57/119/111 77/140/112
f 58/120/113 78/141/114 57/119/111
f 57/119/111 78/141/114 77/140/112
f 59/121/115 79/142/116 58/120/113
f 58/120/113 79/142/116 78/141/114
f 60/122/117 80/143/118 59/121/115
f 59/121/115 80/143/118 79/142/116
f 61/123/119 81/144/120 60/122/117
f 60/122/117 81/144/120 80/143/118
f 62/124/121 82/145/122 61/123/119
f 61/123/119 82/145/122 81/144/120
f 62/124/121 43/125/83 82/145/122
f 82/145/122 43/125/83 63/146/85
s 12
f 44/86/123 43/85/124 83/167/125
f 45/87/126 44/86/123 83/167/125
f 46/88/127 45/87/126 83/167/125
f 47/89/128 46/88/127 83/167/125
f 48/90/129 47/89/128 83/167/125
f 49/91/130 48/90/129 83/167/125
f 50/92/131 49/91/130 83/167/125
f 51/93/132 50/92/131 83/167/125
f 52/94/133 51/93/132 83/167/125
f 53/95/134 52/94/133 83/167/125
f 54/96/135 53/95/134 83/167/125
f 55/97/136 54/96/135 83/167/125
f 56/98/137 55/97/136 83/167/125
f 57/99/138 56/98/137 83/167/125
f 58/100/139 57/99/138 83/167/125
f 59/101/140 58/100/139 83/167/125
f 60/102/141 59/101/140 83/167/125
f 61/103/142 60/102/141 83/167/125
f 62/104/143 61/103/142 83/167/125
f 43/85/124 62/104/143 83/167/125
s 13
f 63/165/144 64/164/145 84/168/146
f 64/164/145 65/163/147 84/168/146
f 65/163/147 66/162/148 84/168/146
f 66/162/148 67/161/149 84/168/146
f 67/161/149 68/160/150 84/168/146
f 68/160/150 69/159/151 84/168/146
f 69/159/151 70/158/152 84/168/146
f 70/158/152 71/157/153 84/168/146
f 71/157/153 72/156/154 84/168/146
f 72/156/154 73/155/155 84/168/146
f 73/155/155 74/154/156 84/168/146
f 74/154/156 75/153/157 84/168/146
f 75/153/157 76/152/158 84/168/146
f 76/152/158 77/151/159 84/168/146
f 77/151/159 78/150/160 84/168/146
f 78/150/160 79/149/161 84/168/146
f 79/149/161 80/148/162 84/168/146
f 80/148/162 81/147/163 84/168/146
f 81/147/163 82/166/164 84/168/146
f 82/166/164 63/165/144 84/168/146
