# This file uses centimeters as units for non-parametric coordinates.

mtllib bridge.mtl
g default
v -0.472992 -0.104298 0.757176
v 0.488905 -0.104298 0.757176
v -0.472992 -0.104298 -0.943769
v 0.488905 -0.104298 -0.943769
v -0.472992 -0.104298 -0.792592
v 0.488905 -0.104298 -0.797643
v -0.472992 -0.104298 0.594029
v 0.488905 -0.104298 0.619498
v -0.472992 0.264784 0.200235
v -0.472992 0.080261 0.599905
v 0.488905 0.264784 0.200235
v 0.488905 0.080261 0.599905
v -0.472992 0.264784 -0.386829
v -0.472992 0.080261 -0.786499
v 0.488905 0.264784 -0.386829
v 0.488905 0.080261 -0.786499
v -0.472992 0.028391 0.482634
v -0.472992 0.161055 0.198028
v 0.488905 0.161055 0.217448
v 0.488905 0.030453 0.503007
v -0.472992 0.161055 -0.373512
v -0.472992 0.028391 -0.672504
v 0.488905 0.030549 -0.672019
v 0.488905 0.161055 -0.372079
vt 0.625000 0.750000
vt 0.375000 1.000000
vt 0.625000 1.000000
vt 0.625000 0.788808
vt 0.625000 0.956899
vt 0.375000 0.000000
vt 0.625000 0.125013
vt 0.375000 0.125013
vt 0.625000 0.306541
vt 0.375000 0.624987
vt 0.375000 0.750000
vt 0.375000 0.306541
vt 0.625000 0.443459
vt 0.375000 0.443459
vt 0.625000 0.624987
vt 0.375000 0.935392
vt 0.375000 0.953155
vt 0.625000 0.903373
vt 0.625000 0.938365
vt 0.125000 0.000000
vt 0.164550 0.000000
vt 0.183446 0.000000
vt 0.219830 0.000000
vt 0.275699 0.000000
vt 0.310392 0.000000
vt 0.328155 0.000000
vt 0.318459 0.250000
vt 0.181541 0.250000
vt 0.125000 0.125011
vt 0.625000 0.000000
vt 0.668101 0.000000
vt 0.686635 0.000000
vt 0.721627 0.000000
vt 0.779775 0.000000
vt 0.816462 0.000000
vt 0.836192 0.000000
vt 0.875000 0.000000
vt 0.875000 0.125012
vt 0.818459 0.250000
vt 0.681541 0.250000
vt 0.375000 0.844830
vt 0.375000 0.900699
vt 0.375000 0.789550
vt 0.625000 0.808538
vt 0.375000 0.808446
vt 0.625000 0.845225
vn 0.000000 0.648592 0.761136
vn 0.000000 0.648593 0.761136
vn 0.000000 0.833574 0.552407
vn 0.000000 0.833574 0.552407
vn 0.000000 0.982960 0.183817
vn 0.000000 0.982960 0.183817
vn 0.000000 0.982960 -0.183817
vn 0.000000 0.982960 -0.183817
vn 0.000000 0.833574 -0.552407
vn 0.000000 0.833574 -0.552407
vn 0.000000 0.648592 -0.761136
vn 0.000000 0.648592 -0.761136
vn 0.000000 -1.000000 0.000000
vn 0.000000 -1.000000 0.000000
vn 0.002311 -0.897894 0.440206
vn 0.001065 -0.895820 0.444417
vn 1.000000 0.000000 0.000000
vn 1.000000 -0.000000 0.000000
vn 1.000000 -0.000000 0.000000
vn 1.000000 -0.000000 0.000000
vn 1.000000 0.000000 0.000000
vn 1.000000 0.000000 0.000000
vn 1.000000 0.000000 0.000000
vn 1.000000 0.000000 0.000000
vn 1.000000 0.000000 0.000000
vn 1.000000 0.000000 0.000000
vn 1.000000 0.000000 0.000000
vn 1.000000 0.000000 0.000000
vn -1.000000 0.000000 0.000000
vn -1.000000 -0.000000 0.000000
vn -1.000000 -0.000000 0.000000
vn -1.000000 -0.000000 0.000000
vn -1.000000 -0.000001 0.000000
vn -1.000000 -0.000001 0.000000
vn -1.000000 0.000000 0.000000
vn -1.000000 -0.000001 -0.000000
vn -1.000000 0.000000 -0.000000
vn -1.000000 -0.000000 -0.000000
vn -1.000000 -0.000000 -0.000000
vn -1.000000 -0.000000 -0.000000
vn 0.002397 -0.844788 0.535096
vn 0.000422 -0.848319 0.529485
vn 0.010398 -0.899283 -0.437244
vn 0.012284 -0.885785 -0.463934
vn 0.000000 -1.000000 0.000000
vn 0.000000 -1.000000 0.000000
vn 0.000469 -0.988668 0.150117
vn -0.000217 -0.989330 0.145691
vn 0.003057 -0.988462 -0.151438
vn 0.003654 -0.988799 -0.149212
vn 0.012370 -0.831177 -0.555871
vn 0.014209 -0.834360 -0.551037
s 1
g pCube5
usemtl lambert2SG
f 1/6/1 2/30/2 10/8/3
f 10/8/3 2/30/2 12/7/4
f 9/12/5 11/9/6 13/14/7
f 13/14/7 11/9/6 15/13/8
f 14/10/9 16/15/10 3/11/11
f 3/11/11 16/15/10 4/1/12
s 4
f 3/11/13 4/1/14 5/43/15
f 5/43/15 4/1/14 6/4/16
s 5
f 2/30/17 8/31/18 12/7/19
f 8/31/18 20/32/20 12/7/19
f 20/32/20 19/33/21 12/7/19
f 12/7/19 19/33/21 11/40/22
f 4/37/23 16/38/24 6/36/25
f 6/36/25 16/38/24 23/35/26
f 23/35/26 16/38/24 24/34/27
f 16/38/24 15/39/28 24/34/27
f 19/33/21 24/34/27 11/40/22
f 24/34/27 15/39/28 11/40/22
s 7
f 3/20/29 5/21/30 14/29/31
f 5/21/30 22/22/32 14/29/31
f 22/22/32 21/23/33 14/29/31
f 14/29/31 21/23/33 13/28/34
f 1/6/35 10/8/36 7/26/37
f 7/26/37 10/8/36 17/25/38
f 17/25/38 10/8/36 18/24/39
f 10/8/36 9/27/40 18/24/39
f 9/27/40 13/28/34 18/24/39
f 21/23/33 18/24/39 13/28/34
s 4
f 5/43/15 6/4/16 22/45/41
f 22/45/41 6/4/16 23/44/42
f 7/17/43 8/5/44 1/2/45
f 1/2/45 8/5/44 2/3/46
f 21/41/47 24/46/48 18/42/49
f 18/42/49 24/46/48 19/18/50
f 17/16/51 20/19/52 7/17/43
f 7/17/43 20/19/52 8/5/44
s 1
f 9/12/5 10/8/3 11/9/6
f 11/9/6 10/8/3 12/7/4
f 14/10/9 13/14/7 16/15/10
f 16/15/10 13/14/7 15/13/8
s 4
f 18/42/49 19/18/50 17/16/51
f 17/16/51 19/18/50 20/19/52
f 22/45/41 23/44/42 21/41/47
f 21/41/47 23/44/42 24/46/48
