# This file uses centimeters as units for non-parametric coordinates.

mtllib gate.mtl
g default
v 0.110461 0.970421 0.144901
v 0.160263 0.970421 0.144901
v 0.110461 1.042967 0.091972
v 0.160263 1.042967 0.091972
v 0.110461 0.990038 0.019426
v 0.160263 0.990038 0.019426
v 0.110461 0.917492 0.072355
v 0.160263 0.917492 0.072355
v -0.156061 0.970421 0.144901
v -0.106259 0.970421 0.144901
v -0.156061 1.042967 0.091972
v -0.106259 1.042967 0.091972
v -0.156061 0.990038 0.019426
v -0.106259 0.990038 0.019426
v -0.156061 0.917492 0.072355
v -0.106259 0.917492 0.072355
v -0.142860 0.968638 0.066866
v -0.172824 0.938674 0.096830
v -0.172824 0.864582 0.096830
v -0.142860 0.834618 0.066866
v 0.166327 0.938674 0.096830
v 0.136364 0.968638 0.066866
v 0.136364 0.834618 0.066866
v 0.166327 0.864582 0.096830
v -0.155572 0.884872 0.188423
v -0.114141 0.868120 0.221068
v -0.142860 0.834618 0.171170
v -0.172824 0.864582 0.171170
v 0.107644 0.868120 0.221068
v 0.149075 0.884872 0.188423
v 0.166327 0.864582 0.171170
v 0.136364 0.834618 0.171170
v -0.155267 0.918698 0.188727
v -0.114614 0.935136 0.221068
v -0.172824 0.938674 0.171170
v -0.142860 0.968638 0.171170
v 0.149075 0.918384 0.188423
v 0.107644 0.935136 0.221068
v 0.136364 0.968638 0.171170
v 0.166327 0.938674 0.171170
v 0.527285 0.468479 -0.010470
v 0.402804 0.654777 -0.010470
v 0.216506 0.779258 -0.010470
v -0.003248 0.822970 -0.010470
v -0.223002 0.779258 -0.010470
v -0.409301 0.654778 -0.010470
v -0.533781 0.468479 -0.010470
v -0.577493 0.248725 -0.010470
v -0.533782 0.028971 -0.010470
v -0.409301 -0.157327 -0.010470
v -0.223003 -0.281808 -0.010470
v -0.003248 -0.325520 -0.010470
v 0.216506 -0.281808 -0.010470
v 0.402804 -0.157328 -0.010470
v 0.527285 0.028971 -0.010470
v 0.570997 0.248725 -0.010470
v 0.566132 0.484570 0.091043
v 0.432537 0.684510 0.091043
v 0.232597 0.818105 0.091043
v -0.003248 0.865018 0.091043
v -0.239093 0.818106 0.091043
v -0.439033 0.684510 0.091043
v -0.572629 0.484570 0.091043
v -0.619541 0.248725 0.091043
v -0.572629 0.012880 0.091043
v -0.439033 -0.187060 0.091043
v -0.239094 -0.320655 0.091043
v -0.003248 -0.367568 0.091043
v 0.232597 -0.320656 0.091043
v 0.432537 -0.187060 0.091043
v 0.566132 0.012880 0.091043
v 0.613045 0.248725 0.091043
v 0.659918 0.523417 0.133091
v 0.504317 0.756290 0.133091
v 0.271444 0.911891 0.133091
v -0.003248 0.966531 0.133091
v -0.277941 0.911892 0.133091
v -0.510814 0.756291 0.133091
v -0.666415 0.523418 0.133091
v -0.721055 0.248725 0.133091
v -0.666415 -0.025967 0.133091
v -0.510814 -0.258840 0.133091
v -0.277941 -0.414441 0.133091
v -0.003248 -0.469081 0.133091
v 0.271444 -0.414441 0.133091
v 0.504317 -0.258841 0.133091
v 0.659918 -0.025968 0.133091
v 0.714558 0.248725 0.133091
v 0.753704 0.562264 0.091043
v 0.576098 0.828071 0.091043
v 0.310292 1.005677 0.091043
v -0.003248 1.068044 0.091043
v -0.316788 1.005677 0.091043
v -0.582594 0.828071 0.091043
v -0.760201 0.562265 0.091043
v -0.822568 0.248725 0.091043
v -0.760201 -0.064815 0.091043
v -0.582595 -0.330621 0.091043
v -0.316788 -0.508227 0.091043
v -0.003249 -0.570594 0.091043
v 0.310291 -0.508227 0.091043
v 0.576098 -0.330621 0.091043
v 0.753704 -0.064815 0.091043
v 0.816071 0.248725 0.091043
v 0.792551 0.578356 -0.010470
v 0.605831 0.857803 -0.010470
v 0.326383 1.044524 -0.010470
v -0.003248 1.110092 -0.010470
v -0.332879 1.044525 -0.010470
v -0.612327 0.857804 -0.010470
v -0.799048 0.578356 -0.010470
v -0.864616 0.248725 -0.010470
v -0.799048 -0.080906 -0.010470
v -0.612327 -0.360354 -0.010470
v -0.332880 -0.547075 -0.010470
v -0.003249 -0.612642 -0.010470
v 0.326383 -0.547075 -0.010470
v 0.605830 -0.360354 -0.010470
v 0.792551 -0.080906 -0.010470
v 0.858119 0.248725 -0.010470
v 0.753704 0.562264 -0.111983
v 0.576098 0.828071 -0.111983
v 0.310292 1.005677 -0.111983
v -0.003248 1.068044 -0.111983
v -0.316788 1.005677 -0.111983
v -0.582594 0.828071 -0.111983
v -0.760201 0.562265 -0.111983
v -0.822568 0.248725 -0.111983
v -0.760201 -0.064815 -0.111983
v -0.582595 -0.330621 -0.111983
v -0.316788 -0.508227 -0.111983
v -0.003249 -0.570594 -0.111983
v 0.310291 -0.508227 -0.111983
v 0.576098 -0.330621 -0.111983
v 0.753704 -0.064815 -0.111983
v 0.816071 0.248725 -0.111983
v 0.659918 0.523417 -0.154031
v 0.504317 0.756290 -0.154031
v 0.271444 0.911891 -0.154031
v -0.003248 0.966531 -0.154031
v -0.277941 0.911892 -0.154031
v -0.510814 0.756291 -0.154031
v -0.666415 0.523418 -0.154031
v -0.721055 0.248725 -0.154031
v -0.666415 -0.025967 -0.154031
v -0.510814 -0.258840 -0.154031
v -0.277941 -0.414441 -0.154031
v -0.003248 -0.469081 -0.154031
v 0.271444 -0.414441 -0.154031
v 0.504317 -0.258841 -0.154031
v 0.659918 -0.025968 -0.154031
v 0.714558 0.248725 -0.154031
v 0.566132 0.484570 -0.111983
v 0.432537 0.684510 -0.111983
v 0.232597 0.818105 -0.111983
v -0.003248 0.865018 -0.111983
v -0.239093 0.818106 -0.111983
v -0.439033 0.684510 -0.111983
v -0.572629 0.484570 -0.111983
v -0.619541 0.248725 -0.111983
v -0.572629 0.012880 -0.111983
v -0.439033 -0.187060 -0.111983
v -0.239094 -0.320656 -0.111983
v -0.003248 -0.367568 -0.111983
v 0.232597 -0.320656 -0.111983
v 0.432537 -0.187060 -0.111983
v 0.566132 0.012880 -0.111983
v 0.613045 0.248725 -0.111983
vt 0.375000 0.000000
vt 0.625000 0.000000
vt 0.375000 0.250000
vt 0.625000 0.250000
vt 0.375000 0.500000
vt 0.625000 0.500000
vt 0.375000 0.750000
vt 0.625000 0.750000
vt 0.375000 1.000000
vt 0.625000 1.000000
vt 0.875000 0.000000
vt 0.875000 0.250000
vt 0.125000 0.000000
vt 0.125000 0.250000
vt 0.375000 0.000000
vt 0.625000 0.000000
vt 0.375000 0.250000
vt 0.625000 0.250000
vt 0.375000 0.500000
vt 0.625000 0.500000
vt 0.375000 0.750000
vt 0.625000 0.750000
vt 0.375000 1.000000
vt 0.625000 1.000000
vt 0.875000 0.000000
vt 0.875000 0.250000
vt 0.125000 0.000000
vt 0.125000 0.250000
vt 0.397087 0.500000
vt 0.375000 0.445642
vt 0.397087 0.310777
vt 0.375000 0.310777
vt 0.375000 0.555894
vt 0.375000 0.694106
vt 0.397087 0.750000
vt 0.397087 0.939223
vt 0.375000 0.804358
vt 0.375000 0.939223
vt 0.602913 0.500000
vt 0.602913 0.310777
vt 0.625000 0.445642
vt 0.625000 0.310777
vt 0.625000 0.555894
vt 0.602913 0.750000
vt 0.625000 0.694106
vt 0.625000 0.804358
vt 0.602913 0.939223
vt 0.625000 0.939223
vt 0.418258 0.062494
vt 0.417909 0.187506
vt 0.373205 0.108709
vt 0.387942 0.185768
vt 0.347050 0.000000
vt 0.355984 0.030534
vt 0.581742 0.062494
vt 0.641761 0.093744
vt 0.581742 0.187506
vt 0.641761 0.156256
vt 0.652950 0.000000
vt 0.648196 0.027478
vt 0.379415 0.288740
vt 0.361412 0.241294
vt 0.675277 0.242323
vt 0.685777 0.194106
vt 0.327811 0.069482
vt 0.685777 0.055894
vt 0.402457 0.305407
vt 0.658320 0.255370
vt 0.820642 0.055894
vt 0.820642 0.194106
vt 0.179358 0.055894
vt 0.314223 0.055894
vt 0.179358 0.194106
vt 0.314223 0.194106
vt 0.062500 1.000000
vt 0.000000 1.000000
vt 0.062500 0.875000
vt 0.000000 0.875000
vt 0.125000 1.000000
vt 0.125000 0.875000
vt 0.187500 1.000000
vt 0.187500 0.875000
vt 0.250000 1.000000
vt 0.250000 0.875000
vt 0.312500 1.000000
vt 0.312500 0.875000
vt 0.375000 1.000000
vt 0.375000 0.875000
vt 0.437500 1.000000
vt 0.437500 0.875000
vt 0.500000 1.000000
vt 0.500000 0.875000
vt 0.562500 1.000000
vt 0.562500 0.875000
vt 0.625000 1.000000
vt 0.625000 0.875000
vt 0.687500 1.000000
vt 0.687500 0.875000
vt 0.750000 1.000000
vt 0.750000 0.875000
vt 0.812500 1.000000
vt 0.812500 0.875000
vt 0.875000 1.000000
vt 0.875000 0.875000
vt 0.937500 1.000000
vt 0.937500 0.875000
vt 1.000000 1.000000
vt 1.000000 0.875000
vt 0.062500 0.750000
vt 0.000000 0.750000
vt 0.125000 0.750000
vt 0.187500 0.750000
vt 0.250000 0.750000
vt 0.312500 0.750000
vt 0.375000 0.750000
vt 0.437500 0.750000
vt 0.500000 0.750000
vt 0.562500 0.750000
vt 0.625000 0.750000
vt 0.687500 0.750000
vt 0.750000 0.750000
vt 0.812500 0.750000
vt 0.875000 0.750000
vt 0.937500 0.750000
vt 1.000000 0.750000
vt 0.062500 0.625000
vt 0.000000 0.625000
vt 0.125000 0.625000
vt 0.187500 0.625000
vt 0.250000 0.625000
vt 0.312500 0.625000
vt 0.375000 0.625000
vt 0.437500 0.625000
vt 0.500000 0.625000
vt 0.562500 0.625000
vt 0.625000 0.625000
vt 0.687500 0.625000
vt 0.750000 0.625000
vt 0.812500 0.625000
vt 0.875000 0.625000
vt 0.937500 0.625000
vt 1.000000 0.625000
vt 0.062500 0.500000
vt 0.000000 0.500000
vt 0.125000 0.500000
vt 0.187500 0.500000
vt 0.250000 0.500000
vt 0.312500 0.500000
vt 0.375000 0.500000
vt 0.437500 0.500000
vt 0.500000 0.500000
vt 0.562500 0.500000
vt 0.625000 0.500000
vt 0.687500 0.500000
vt 0.750000 0.500000
vt 0.812500 0.500000
vt 0.875000 0.500000
vt 0.937500 0.500000
vt 1.000000 0.500000
vt 0.062500 0.375000
vt 0.000000 0.375000
vt 0.125000 0.375000
vt 0.187500 0.375000
vt 0.250000 0.375000
vt 0.312500 0.375000
vt 0.375000 0.375000
vt 0.437500 0.375000
vt 0.500000 0.375000
vt 0.562500 0.375000
vt 0.625000 0.375000
vt 0.687500 0.375000
vt 0.750000 0.375000
vt 0.812500 0.375000
vt 0.875000 0.375000
vt 0.937500 0.375000
vt 1.000000 0.375000
vt 0.062500 0.250000
vt 0.000000 0.250000
vt 0.125000 0.250000
vt 0.187500 0.250000
vt 0.250000 0.250000
vt 0.312500 0.250000
vt 0.375000 0.250000
vt 0.437500 0.250000
vt 0.500000 0.250000
vt 0.562500 0.250000
vt 0.625000 0.250000
vt 0.687500 0.250000
vt 0.750000 0.250000
vt 0.812500 0.250000
vt 0.875000 0.250000
vt 0.937500 0.250000
vt 1.000000 0.250000
vt 0.062500 0.125000
vt 0.000000 0.125000
vt 0.125000 0.125000
vt 0.187500 0.125000
vt 0.250000 0.125000
vt 0.312500 0.125000
vt 0.375000 0.125000
vt 0.437500 0.125000
vt 0.500000 0.125000
vt 0.562500 0.125000
vt 0.625000 0.125000
vt 0.687500 0.125000
vt 0.750000 0.125000
vt 0.812500 0.125000
vt 0.875000 0.125000
vt 0.937500 0.125000
vt 1.000000 0.125000
vt 0.062500 0.000000
vt 0.000000 0.000000
vt 0.125000 0.000000
vt 0.187500 0.000000
vt 0.250000 0.000000
vt 0.312500 0.000000
vt 0.375000 0.000000
vt 0.437500 0.000000
vt 0.500000 0.000000
vt 0.562500 0.000000
vt 0.625000 0.000000
vt 0.687500 0.000000
vt 0.750000 0.000000
vt 0.812500 0.000000
vt 0.875000 0.000000
vt 0.937500 0.000000
vt 1.000000 0.000000
vn 0.000000 0.589399 0.807842
vn 0.000000 0.589399 0.807842
vn 0.000000 0.589399 0.807842
vn 0.000000 0.589399 0.807842
vn 0.000000 0.589399 0.807842
vn 0.000000 0.589399 0.807842
vn 0.000000 0.807842 -0.589399
vn 0.000000 0.807842 -0.589399
vn 0.000000 0.807842 -0.589399
vn 0.000000 0.807842 -0.589399
vn 0.000000 0.807842 -0.589399
vn 0.000000 0.807842 -0.589399
vn 0.000000 -0.589399 -0.807842
vn 0.000000 -0.589399 -0.807842
vn 0.000000 -0.589399 -0.807842
vn 0.000000 -0.589399 -0.807842
vn 0.000000 -0.589399 -0.807842
vn 0.000000 -0.589399 -0.807842
vn 0.000000 -0.807842 0.589399
vn 0.000000 -0.807842 0.589399
vn 0.000000 -0.807842 0.589399
vn 0.000000 -0.807842 0.589399
vn 0.000000 -0.807842 0.589399
vn 0.000000 -0.807842 0.589399
vn 1.000000 0.000000 0.000000
vn 1.000000 0.000000 0.000000
vn 1.000000 0.000000 0.000000
vn 1.000000 0.000000 0.000000
vn 1.000000 0.000000 0.000000
vn 1.000000 0.000000 0.000000
vn -1.000000 0.000000 0.000000
vn -1.000000 0.000000 0.000000
vn -1.000000 0.000000 0.000000
vn -1.000000 0.000000 0.000000
vn -1.000000 0.000000 0.000000
vn -1.000000 0.000000 0.000000
vn 0.000000 0.589396 0.807844
vn 0.000000 0.589396 0.807844
vn 0.000000 0.589396 0.807844
vn 0.000000 0.589399 0.807842
vn 0.000000 0.589399 0.807842
vn 0.000000 0.589399 0.807842
vn 0.000000 0.807842 -0.589399
vn 0.000000 0.807842 -0.589399
vn 0.000000 0.807842 -0.589399
vn 0.000000 0.807842 -0.589399
vn 0.000000 0.807842 -0.589399
vn 0.000000 0.807842 -0.589399
vn 0.000000 -0.589399 -0.807842
vn 0.000000 -0.589399 -0.807842
vn 0.000000 -0.589399 -0.807842
vn 0.000000 -0.589399 -0.807842
vn 0.000000 -0.589399 -0.807842
vn 0.000000 -0.589399 -0.807842
vn 0.000000 -0.807842 0.589399
vn 0.000000 -0.807842 0.589399
vn 0.000000 -0.807842 0.589399
vn 0.000000 -0.807842 0.589399
vn 0.000000 -0.807842 0.589399
vn 0.000000 -0.807842 0.589399
vn 1.000000 0.000000 0.000000
vn 1.000000 0.000000 0.000000
vn 1.000000 0.000000 0.000000
vn 1.000000 0.000000 0.000000
vn 1.000000 0.000000 0.000000
vn 1.000000 0.000000 0.000000
vn -1.000000 0.000000 0.000000
vn -1.000000 0.000000 0.000000
vn -1.000000 0.000000 0.000000
vn -1.000000 0.000000 0.000000
vn -1.000000 0.000000 0.000000
vn -1.000000 0.000000 0.000000
vn -0.707107 0.707106 0.000000
vn -0.707107 0.707106 0.000000
vn -0.707107 0.707106 0.000000
vn -0.707108 0.707106 0.000000
vn -0.707108 0.707105 0.000000
vn -0.707108 0.707106 0.000000
vn -0.707106 0.000000 -0.707108
vn -0.707106 0.000000 -0.707108
vn -0.707106 0.000000 -0.707108
vn -0.707106 0.000000 -0.707108
vn -0.707106 0.000000 -0.707108
vn -0.707106 0.000000 -0.707108
vn -0.707108 -0.707105 0.000000
vn -0.707108 -0.707105 0.000000
vn -0.707108 -0.707105 0.000000
vn -0.707108 -0.707105 0.000000
vn -0.707108 -0.707105 0.000000
vn -0.707108 -0.707106 0.000000
vn 0.707108 0.707105 0.000000
vn 0.707108 0.707105 0.000000
vn 0.707108 0.707105 0.000000
vn 0.707108 0.707105 0.000000
vn 0.707108 0.707105 0.000000
vn 0.707108 0.707106 0.000000
vn 0.707106 0.000000 -0.707108
vn 0.707106 0.000000 -0.707108
vn 0.707106 0.000000 -0.707108
vn 0.707106 0.000000 -0.707108
vn 0.707106 0.000000 -0.707108
vn 0.707106 0.000000 -0.707108
vn 0.707108 -0.707105 0.000000
vn 0.707108 -0.707105 0.000000
vn 0.707108 -0.707106 0.000000
vn 0.707108 -0.707106 0.000000
vn 0.707108 -0.707105 0.000000
vn 0.707108 -0.707106 0.000000
vn -0.156142 -0.041904 0.986845
vn -0.140107 0.041586 0.989263
vn -0.658409 -0.127883 0.741716
vn -0.658409 -0.127883 0.741716
vn -0.140107 0.041586 0.989263
vn -0.655874 0.182145 0.732565
vn -0.156142 -0.041904 0.986845
vn -0.658409 -0.127883 0.741716
vn -0.608237 -0.390994 0.690775
vn -0.608237 -0.390994 0.690775
vn -0.658409 -0.127883 0.741716
vn -0.498600 -0.275020 0.822047
vn 0.156551 -0.041382 0.986803
vn 0.648346 -0.146965 0.747027
vn 0.140798 0.042515 0.989125
vn 0.140798 0.042515 0.989125
vn 0.648346 -0.146965 0.747027
vn 0.664211 0.151692 0.731993
vn 0.156551 -0.041382 0.986803
vn 0.608237 -0.390994 0.690775
vn 0.648346 -0.146965 0.747027
vn 0.648346 -0.146965 0.747027
vn 0.608237 -0.390994 0.690775
vn 0.472794 -0.301892 0.827845
vn -0.140107 0.041586 0.989263
vn -0.609050 0.393419 0.688679
vn -0.655874 0.182145 0.732565
vn -0.655874 0.182145 0.732565
vn -0.609050 0.393419 0.688679
vn -0.478506 0.303586 0.823934
vn 0.140798 0.042515 0.989125
vn 0.664211 0.151692 0.731993
vn 0.608237 0.390994 0.690776
vn 0.608237 0.390994 0.690776
vn 0.664211 0.151692 0.731993
vn 0.498600 0.275020 0.822047
vn 0.000000 0.000000 -1.000000
vn 0.000000 0.000000 -1.000000
vn 0.000000 0.000000 -1.000000
vn 0.000000 0.000000 -1.000000
vn 0.000000 0.000000 -1.000000
vn 0.000000 0.000000 -1.000000
vn 0.000000 -0.830229 0.557423
vn 0.000000 -0.830229 0.557423
vn 0.000000 -0.830229 0.557423
vn 0.000000 -0.830229 0.557423
vn 0.000000 -0.830229 0.557423
vn 0.000000 -0.830229 0.557423
vn -0.498600 -0.275020 0.822047
vn -0.658409 -0.127883 0.741716
vn -0.478506 0.303586 0.823934
vn -0.478506 0.303586 0.823934
vn -0.658409 -0.127883 0.741716
vn -0.655874 0.182145 0.732565
vn 0.648346 -0.146965 0.747027
vn 0.472794 -0.301892 0.827845
vn 0.664211 0.151692 0.731993
vn 0.664211 0.151692 0.731993
vn 0.472794 -0.301892 0.827845
vn 0.498600 0.275020 0.822047
vn 0.000000 0.830229 0.557423
vn 0.000000 0.830229 0.557423
vn 0.000000 0.830229 0.557423
vn 0.000000 0.830229 0.557423
vn 0.000000 0.830229 0.557423
vn 0.000000 0.830229 0.557423
vn 0.156551 -0.041382 0.986803
vn 0.140798 0.042515 0.989125
vn -0.156142 -0.041904 0.986845
vn -0.156142 -0.041904 0.986845
vn 0.140798 0.042515 0.989125
vn -0.140107 0.041586 0.989263
vn 0.000000 1.000000 0.000000
vn 0.000000 1.000000 0.000000
vn 0.000000 1.000000 0.000000
vn 0.000000 1.000000 0.000000
vn 0.000000 1.000000 0.000000
vn 0.000000 1.000000 0.000000
vn 0.000000 -1.000000 0.000000
vn 0.000000 -1.000000 0.000000
vn 0.000000 -1.000000 0.000000
vn 0.000000 -1.000000 0.000000
vn 0.000000 -1.000000 0.000000
vn 0.000000 -1.000000 0.000000
vn 1.000000 0.000000 0.000000
vn 1.000000 0.000000 0.000000
vn 1.000000 0.000000 0.000000
vn 1.000000 0.000000 0.000000
vn 1.000000 0.000000 0.000000
vn 1.000000 0.000000 0.000000
vn -1.000000 0.000000 0.000000
vn -1.000000 0.000000 0.000000
vn -1.000000 0.000000 0.000000
vn -1.000000 0.000000 0.000000
vn -1.000000 0.000000 0.000000
vn -1.000000 0.000000 0.000000
vn -0.770324 -0.514717 0.376386
vn -0.770325 -0.514717 0.376387
vn -0.770324 -0.514717 0.376386
vn -0.650071 -0.656478 0.382679
vn -0.851708 -0.357981 0.382679
vn -0.851811 -0.357736 0.382679
vn -0.349118 -0.855379 0.382679
vn -0.649882 -0.656666 0.382679
vn -0.349364 -0.855279 0.382679
vn -0.349364 -0.855279 0.382679
vn -0.649882 -0.656666 0.382679
vn -0.650071 -0.656478 0.382679
vn 0.004797 -0.923869 0.382679
vn -0.349118 -0.855379 0.382679
vn 0.004531 -0.923870 0.382679
vn 0.004531 -0.923870 0.382679
vn -0.349118 -0.855379 0.382679
vn -0.349364 -0.855279 0.382679
vn 0.357981 -0.851708 0.382679
vn 0.004797 -0.923869 0.382679
vn 0.357735 -0.851811 0.382679
vn 0.357735 -0.851811 0.382679
vn 0.004797 -0.923869 0.382679
vn 0.004531 -0.923870 0.382679
vn 0.656666 -0.649882 0.382679
vn 0.357981 -0.851708 0.382679
vn 0.656479 -0.650071 0.382679
vn 0.656479 -0.650071 0.382679
vn 0.357981 -0.851708 0.382679
vn 0.357735 -0.851811 0.382679
vn 0.855379 -0.349118 0.382679
vn 0.656666 -0.649882 0.382679
vn 0.855278 -0.349364 0.382680
vn 0.855278 -0.349364 0.382680
vn 0.656666 -0.649882 0.382679
vn 0.656479 -0.650071 0.382679
vn 0.923869 0.004797 0.382679
vn 0.855379 -0.349118 0.382679
vn 0.923870 0.004531 0.382679
vn 0.923870 0.004531 0.382679
vn 0.855379 -0.349118 0.382679
vn 0.855278 -0.349364 0.382680
vn 0.851708 0.357981 0.382679
vn 0.923869 0.004797 0.382679
vn 0.851811 0.357736 0.382679
vn 0.851811 0.357736 0.382679
vn 0.923869 0.004797 0.382679
vn 0.923870 0.004531 0.382679
vn 0.649882 0.656666 0.382679
vn 0.851708 0.357981 0.382679
vn 0.650071 0.656479 0.382680
vn 0.650071 0.656479 0.382680
vn 0.851708 0.357981 0.382679
vn 0.851811 0.357736 0.382679
vn 0.349118 0.855379 0.382679
vn 0.649882 0.656666 0.382679
vn 0.349364 0.855279 0.382679
vn 0.349364 0.855279 0.382679
vn 0.649882 0.656666 0.382679
vn 0.650071 0.656479 0.382680
vn -0.004797 0.923869 0.382679
vn 0.349118 0.855379 0.382679
vn -0.004531 0.923870 0.382679
vn -0.004531 0.923870 0.382679
vn 0.349118 0.855379 0.382679
vn 0.349364 0.855279 0.382679
vn -0.357981 0.851708 0.382679
vn -0.004797 0.923869 0.382679
vn -0.357736 0.851811 0.382679
vn -0.357736 0.851811 0.382679
vn -0.004797 0.923869 0.382679
vn -0.004531 0.923870 0.382679
vn -0.656666 0.649882 0.382678
vn -0.357981 0.851708 0.382679
vn -0.656479 0.650071 0.382679
vn -0.656479 0.650071 0.382679
vn -0.357981 0.851708 0.382679
vn -0.357736 0.851811 0.382679
vn -0.855379 0.349117 0.382679
vn -0.656666 0.649882 0.382678
vn -0.855279 0.349364 0.382679
vn -0.855279 0.349364 0.382679
vn -0.656666 0.649882 0.382678
vn -0.656479 0.650071 0.382679
vn -0.923869 -0.004797 0.382679
vn -0.855379 0.349117 0.382679
vn -0.923870 -0.004531 0.382679
vn -0.923870 -0.004531 0.382679
vn -0.855379 0.349117 0.382679
vn -0.855279 0.349364 0.382679
vn -0.851708 -0.357981 0.382679
vn -0.923869 -0.004797 0.382679
vn -0.851811 -0.357736 0.382679
vn -0.851811 -0.357736 0.382679
vn -0.923869 -0.004797 0.382679
vn -0.923870 -0.004531 0.382679
vn -0.267364 -0.273826 0.923870
vn -0.351801 -0.150666 0.923870
vn -0.267722 -0.273469 0.923872
vn -0.267722 -0.273469 0.923872
vn -0.351801 -0.150666 0.923870
vn -0.351995 -0.150200 0.923872
vn -0.142224 -0.355298 0.923870
vn -0.267364 -0.273826 0.923870
vn -0.142691 -0.355105 0.923872
vn -0.142691 -0.355105 0.923872
vn -0.267364 -0.273826 0.923870
vn -0.267722 -0.273469 0.923872
vn 0.004569 -0.382679 0.923870
vn -0.142224 -0.355298 0.923870
vn 0.004064 -0.382680 0.923872
vn 0.004064 -0.382680 0.923872
vn -0.142224 -0.355298 0.923870
vn -0.142691 -0.355105 0.923872
vn 0.150666 -0.351801 0.923870
vn 0.004569 -0.382679 0.923870
vn 0.150200 -0.351995 0.923872
vn 0.150200 -0.351995 0.923872
vn 0.004569 -0.382679 0.923870
vn 0.004064 -0.382680 0.923872
vn 0.273826 -0.267364 0.923870
vn 0.150666 -0.351801 0.923870
vn 0.273469 -0.267722 0.923872
vn 0.273469 -0.267722 0.923872
vn 0.150666 -0.351801 0.923870
vn 0.150200 -0.351995 0.923872
vn 0.355298 -0.142224 0.923870
vn 0.273826 -0.267364 0.923870
vn 0.355105 -0.142691 0.923872
vn 0.355105 -0.142691 0.923872
vn 0.273826 -0.267364 0.923870
vn 0.273469 -0.267722 0.923872
vn 0.382679 0.004569 0.923870
vn 0.355298 -0.142224 0.923870
vn 0.382680 0.004064 0.923872
vn 0.382680 0.004064 0.923872
vn 0.355298 -0.142224 0.923870
vn 0.355105 -0.142691 0.923872
vn 0.351801 0.150666 0.923870
vn 0.382679 0.004569 0.923870
vn 0.351995 0.150200 0.923872
vn 0.351995 0.150200 0.923872
vn 0.382679 0.004569 0.923870
vn 0.382680 0.004064 0.923872
vn 0.267365 0.273826 0.923870
vn 0.351801 0.150666 0.923870
vn 0.267722 0.273469 0.923872
vn 0.267722 0.273469 0.923872
vn 0.351801 0.150666 0.923870
vn 0.351995 0.150200 0.923872
vn 0.142224 0.355298 0.923870
vn 0.267365 0.273826 0.923870
vn 0.142691 0.355105 0.923872
vn 0.142691 0.355105 0.923872
vn 0.267365 0.273826 0.923870
vn 0.267722 0.273469 0.923872
vn -0.004569 0.382679 0.923870
vn 0.142224 0.355298 0.923870
vn -0.004064 0.382680 0.923872
vn -0.004064 0.382680 0.923872
vn 0.142224 0.355298 0.923870
vn 0.142691 0.355105 0.923872
vn -0.150666 0.351801 0.923870
vn -0.004569 0.382679 0.923870
vn -0.150200 0.351995 0.923872
vn -0.150200 0.351995 0.923872
vn -0.004569 0.382679 0.923870
vn -0.004064 0.382680 0.923872
vn -0.273826 0.267364 0.923870
vn -0.150666 0.351801 0.923870
vn -0.273469 0.267722 0.923872
vn -0.273469 0.267722 0.923872
vn -0.150666 0.351801 0.923870
vn -0.150200 0.351995 0.923872
vn -0.355298 0.142224 0.923870
vn -0.273826 0.267364 0.923870
vn -0.355105 0.142691 0.923872
vn -0.355105 0.142691 0.923872
vn -0.273826 0.267364 0.923870
vn -0.273469 0.267722 0.923872
vn -0.382679 -0.004569 0.923870
vn -0.355298 0.142224 0.923870
vn -0.382680 -0.004064 0.923872
vn -0.382680 -0.004064 0.923872
vn -0.355298 0.142224 0.923870
vn -0.355105 0.142691 0.923872
vn -0.351801 -0.150666 0.923870
vn -0.382679 -0.004569 0.923870
vn -0.351995 -0.150200 0.923872
vn -0.351995 -0.150200 0.923872
vn -0.382679 -0.004569 0.923870
vn -0.382680 -0.004064 0.923872
vn 0.267706 0.273486 0.923872
vn 0.351986 0.150222 0.923872
vn 0.267970 0.273223 0.923873
vn 0.267970 0.273223 0.923873
vn 0.351986 0.150222 0.923872
vn 0.352130 0.149877 0.923873
vn 0.142669 0.355115 0.923872
vn 0.267706 0.273486 0.923872
vn 0.143014 0.354973 0.923873
vn 0.143014 0.354973 0.923873
vn 0.267706 0.273486 0.923872
vn 0.267970 0.273223 0.923873
vn -0.004088 0.382680 0.923872
vn 0.142669 0.355115 0.923872
vn -0.003714 0.382681 0.923873
vn -0.003714 0.382681 0.923873
vn 0.142669 0.355115 0.923872
vn 0.143014 0.354973 0.923873
vn -0.150222 0.351986 0.923872
vn -0.004088 0.382680 0.923872
vn -0.149877 0.352130 0.923873
vn -0.149877 0.352130 0.923873
vn -0.004088 0.382680 0.923872
vn -0.003714 0.382681 0.923873
vn -0.273486 0.267705 0.923872
vn -0.150222 0.351986 0.923872
vn -0.273223 0.267970 0.923873
vn -0.273223 0.267970 0.923873
vn -0.150222 0.351986 0.923872
vn -0.149877 0.352130 0.923873
vn -0.355115 0.142669 0.923872
vn -0.273486 0.267705 0.923872
vn -0.354972 0.143014 0.923873
vn -0.354972 0.143014 0.923873
vn -0.273486 0.267705 0.923872
vn -0.273223 0.267970 0.923873
vn -0.382680 -0.004088 0.923872
vn -0.355115 0.142669 0.923872
vn -0.382681 -0.003714 0.923873
vn -0.382681 -0.003714 0.923873
vn -0.355115 0.142669 0.923872
vn -0.354972 0.143014 0.923873
vn -0.351986 -0.150222 0.923872
vn -0.382680 -0.004088 0.923872
vn -0.352130 -0.149877 0.923873
vn -0.352130 -0.149877 0.923873
vn -0.382680 -0.004088 0.923872
vn -0.382681 -0.003714 0.923873
vn -0.267705 -0.273486 0.923872
vn -0.351986 -0.150222 0.923872
vn -0.267970 -0.273223 0.923873
vn -0.267970 -0.273223 0.923873
vn -0.351986 -0.150222 0.923872
vn -0.352130 -0.149877 0.923873
vn -0.142669 -0.355115 0.923872
vn -0.267705 -0.273486 0.923872
vn -0.143014 -0.354972 0.923873
vn -0.143014 -0.354972 0.923873
vn -0.267705 -0.273486 0.923872
vn -0.267970 -0.273223 0.923873
vn 0.004088 -0.382680 0.923872
vn -0.142669 -0.355115 0.923872
vn 0.003714 -0.382681 0.923873
vn 0.003714 -0.382681 0.923873
vn -0.142669 -0.355115 0.923872
vn -0.143014 -0.354972 0.923873
vn 0.150222 -0.351986 0.923872
vn 0.004088 -0.382680 0.923872
vn 0.149877 -0.352129 0.923873
vn 0.149877 -0.352129 0.923873
vn 0.004088 -0.382680 0.923872
vn 0.003714 -0.382681 0.923873
vn 0.273486 -0.267705 0.923872
vn 0.150222 -0.351986 0.923872
vn 0.273223 -0.267970 0.923873
vn 0.273223 -0.267970 0.923873
vn 0.150222 -0.351986 0.923872
vn 0.149877 -0.352129 0.923873
vn 0.355115 -0.142669 0.923872
vn 0.273486 -0.267705 0.923872
vn 0.354973 -0.143014 0.923873
vn 0.354973 -0.143014 0.923873
vn 0.273486 -0.267705 0.923872
vn 0.273223 -0.267970 0.923873
vn 0.382680 0.004088 0.923872
vn 0.355115 -0.142669 0.923872
vn 0.382681 0.003714 0.923873
vn 0.382681 0.003714 0.923873
vn 0.355115 -0.142669 0.923872
vn 0.354973 -0.143014 0.923873
vn 0.351986 0.150222 0.923872
vn 0.382680 0.004088 0.923872
vn 0.352130 0.149877 0.923873
vn 0.352130 0.149877 0.923873
vn 0.382680 0.004088 0.923872
vn 0.382681 0.003714 0.923873
vn 0.650651 0.655903 0.382681
vn 0.852126 0.356983 0.382680
vn 0.650741 0.655813 0.382681
vn 0.650741 0.655813 0.382681
vn 0.852126 0.356983 0.382680
vn 0.852175 0.356865 0.382681
vn 0.350119 0.854969 0.382681
vn 0.650651 0.655903 0.382681
vn 0.350237 0.854921 0.382681
vn 0.350237 0.854921 0.382681
vn 0.650651 0.655903 0.382681
vn 0.650741 0.655813 0.382681
vn -0.003714 0.923873 0.382681
vn 0.350119 0.854969 0.382681
vn -0.003586 0.923874 0.382681
vn -0.003586 0.923874 0.382681
vn 0.350119 0.854969 0.382681
vn 0.350237 0.854921 0.382681
vn -0.356982 0.852126 0.382681
vn -0.003714 0.923873 0.382681
vn -0.356865 0.852175 0.382681
vn -0.356865 0.852175 0.382681
vn -0.003714 0.923873 0.382681
vn -0.003586 0.923874 0.382681
vn -0.655903 0.650651 0.382681
vn -0.356982 0.852126 0.382681
vn -0.655814 0.650741 0.382681
vn -0.655814 0.650741 0.382681
vn -0.356982 0.852126 0.382681
vn -0.356865 0.852175 0.382681
vn -0.854969 0.350119 0.382681
vn -0.655903 0.650651 0.382681
vn -0.854920 0.350237 0.382681
vn -0.854920 0.350237 0.382681
vn -0.655903 0.650651 0.382681
vn -0.655814 0.650741 0.382681
vn -0.923873 -0.003714 0.382681
vn -0.854969 0.350119 0.382681
vn -0.923874 -0.003587 0.382681
vn -0.923874 -0.003587 0.382681
vn -0.854969 0.350119 0.382681
vn -0.854920 0.350237 0.382681
vn -0.852126 -0.356983 0.382680
vn -0.923873 -0.003714 0.382681
vn -0.852176 -0.356865 0.382680
vn -0.852176 -0.356865 0.382680
vn -0.923873 -0.003714 0.382681
vn -0.923874 -0.003587 0.382681
vn -0.650651 -0.655904 0.382680
vn -0.852126 -0.356983 0.382680
vn -0.650741 -0.655814 0.382680
vn -0.650741 -0.655814 0.382680
vn -0.852126 -0.356983 0.382680
vn -0.852176 -0.356865 0.382680
vn -0.350119 -0.854969 0.382680
vn -0.650651 -0.655904 0.382680
vn -0.350237 -0.854921 0.382680
vn -0.350237 -0.854921 0.382680
vn -0.650651 -0.655904 0.382680
vn -0.650741 -0.655814 0.382680
vn 0.003714 -0.923873 0.382681
vn -0.350119 -0.854969 0.382680
vn 0.003587 -0.923874 0.382681
vn 0.003587 -0.923874 0.382681
vn -0.350119 -0.854969 0.382680
vn -0.350237 -0.854921 0.382680
vn 0.356983 -0.852126 0.382681
vn 0.003714 -0.923873 0.382681
vn 0.356865 -0.852175 0.382681
vn 0.356865 -0.852175 0.382681
vn 0.003714 -0.923873 0.382681
vn 0.003587 -0.923874 0.382681
vn 0.655904 -0.650650 0.382681
vn 0.356983 -0.852126 0.382681
vn 0.655814 -0.650741 0.382681
vn 0.655814 -0.650741 0.382681
vn 0.356983 -0.852126 0.382681
vn 0.356865 -0.852175 0.382681
vn 0.854969 -0.350119 0.382680
vn 0.655904 -0.650650 0.382681
vn 0.854921 -0.350237 0.382681
vn 0.854921 -0.350237 0.382681
vn 0.655904 -0.650650 0.382681
vn 0.655814 -0.650741 0.382681
vn 0.923873 0.003715 0.382681
vn 0.854969 -0.350119 0.382680
vn 0.923874 0.003587 0.382681
vn 0.923874 0.003587 0.382681
vn 0.854969 -0.350119 0.382680
vn 0.854921 -0.350237 0.382681
vn 0.852126 0.356983 0.382680
vn 0.923873 0.003715 0.382681
vn 0.852175 0.356865 0.382681
vn 0.852175 0.356865 0.382681
vn 0.923873 0.003715 0.382681
vn 0.923874 0.003587 0.382681
vn 0.655814 0.650740 -0.382681
vn 0.854921 0.350237 -0.382681
vn 0.655904 0.650650 -0.382681
vn 0.655904 0.650650 -0.382681
vn 0.854921 0.350237 -0.382681
vn 0.854969 0.350119 -0.382681
vn 0.356866 0.852175 -0.382681
vn 0.655814 0.650740 -0.382681
vn 0.356983 0.852126 -0.382681
vn 0.356983 0.852126 -0.382681
vn 0.655814 0.650740 -0.382681
vn 0.655904 0.650650 -0.382681
vn 0.003588 0.923874 -0.382681
vn 0.356866 0.852175 -0.382681
vn 0.003715 0.923873 -0.382681
vn 0.003715 0.923873 -0.382681
vn 0.356866 0.852175 -0.382681
vn 0.356983 0.852126 -0.382681
vn -0.350236 0.854921 -0.382681
vn 0.003588 0.923874 -0.382681
vn -0.350118 0.854969 -0.382681
vn -0.350118 0.854969 -0.382681
vn 0.003588 0.923874 -0.382681
vn 0.003715 0.923873 -0.382681
vn -0.650740 0.655814 -0.382681
vn -0.350236 0.854921 -0.382681
vn -0.650650 0.655904 -0.382681
vn -0.650650 0.655904 -0.382681
vn -0.350236 0.854921 -0.382681
vn -0.350118 0.854969 -0.382681
vn -0.852175 0.356865 -0.382681
vn -0.650740 0.655814 -0.382681
vn -0.852126 0.356983 -0.382681
vn -0.852126 0.356983 -0.382681
vn -0.650740 0.655814 -0.382681
vn -0.650650 0.655904 -0.382681
vn -0.923874 0.003587 -0.382681
vn -0.852175 0.356865 -0.382681
vn -0.923873 0.003715 -0.382680
vn -0.923873 0.003715 -0.382680
vn -0.852175 0.356865 -0.382681
vn -0.852126 0.356983 -0.382681
vn -0.854921 -0.350237 -0.382681
vn -0.923874 0.003587 -0.382681
vn -0.854969 -0.350119 -0.382680
vn -0.854969 -0.350119 -0.382680
vn -0.923874 0.003587 -0.382681
vn -0.923873 0.003715 -0.382680
vn -0.655814 -0.650741 -0.382680
vn -0.854921 -0.350237 -0.382681
vn -0.655904 -0.650650 -0.382680
vn -0.655904 -0.650650 -0.382680
vn -0.854921 -0.350237 -0.382681
vn -0.854969 -0.350119 -0.382680
vn -0.356866 -0.852175 -0.382680
vn -0.655814 -0.650741 -0.382680
vn -0.356983 -0.852126 -0.382680
vn -0.356983 -0.852126 -0.382680
vn -0.655814 -0.650741 -0.382680
vn -0.655904 -0.650650 -0.382680
vn -0.003587 -0.923874 -0.382681
vn -0.356866 -0.852175 -0.382680
vn -0.003715 -0.923873 -0.382681
vn -0.003715 -0.923873 -0.382681
vn -0.356866 -0.852175 -0.382680
vn -0.356983 -0.852126 -0.382680
vn 0.350237 -0.854921 -0.382681
vn -0.003587 -0.923874 -0.382681
vn 0.350119 -0.854969 -0.382681
vn 0.350119 -0.854969 -0.382681
vn -0.003587 -0.923874 -0.382681
vn -0.003715 -0.923873 -0.382681
vn 0.650741 -0.655814 -0.382681
vn 0.350237 -0.854921 -0.382681
vn 0.650650 -0.655904 -0.382681
vn 0.650650 -0.655904 -0.382681
vn 0.350237 -0.854921 -0.382681
vn 0.350119 -0.854969 -0.382681
vn 0.852175 -0.356865 -0.382681
vn 0.650741 -0.655814 -0.382681
vn 0.852126 -0.356983 -0.382680
vn 0.852126 -0.356983 -0.382680
vn 0.650741 -0.655814 -0.382681
vn 0.650650 -0.655904 -0.382681
vn 0.923874 -0.003587 -0.382681
vn 0.852175 -0.356865 -0.382681
vn 0.923873 -0.003715 -0.382680
vn 0.923873 -0.003715 -0.382680
vn 0.852175 -0.356865 -0.382681
vn 0.852126 -0.356983 -0.382680
vn 0.854921 0.350237 -0.382681
vn 0.923874 -0.003587 -0.382681
vn 0.854969 0.350119 -0.382681
vn 0.854969 0.350119 -0.382681
vn 0.923874 -0.003587 -0.382681
vn 0.923873 -0.003715 -0.382680
vn 0.273223 0.267970 -0.923873
vn 0.354972 0.143014 -0.923873
vn 0.273487 0.267705 -0.923872
vn 0.273487 0.267705 -0.923872
vn 0.354972 0.143014 -0.923873
vn 0.355115 0.142669 -0.923872
vn 0.149878 0.352129 -0.923873
vn 0.273223 0.267970 -0.923873
vn 0.150222 0.351986 -0.923872
vn 0.150222 0.351986 -0.923872
vn 0.273223 0.267970 -0.923873
vn 0.273487 0.267705 -0.923872
vn 0.003715 0.382681 -0.923873
vn 0.149878 0.352129 -0.923873
vn 0.004088 0.382680 -0.923872
vn 0.004088 0.382680 -0.923872
vn 0.149878 0.352129 -0.923873
vn 0.150222 0.351986 -0.923872
vn -0.143014 0.354972 -0.923873
vn 0.003715 0.382681 -0.923873
vn -0.142669 0.355115 -0.923872
vn -0.142669 0.355115 -0.923872
vn 0.003715 0.382681 -0.923873
vn 0.004088 0.382680 -0.923872
vn -0.267970 0.273223 -0.923873
vn -0.143014 0.354972 -0.923873
vn -0.267705 0.273486 -0.923872
vn -0.267705 0.273486 -0.923872
vn -0.143014 0.354972 -0.923873
vn -0.142669 0.355115 -0.923872
vn -0.352129 0.149877 -0.923873
vn -0.267970 0.273223 -0.923873
vn -0.351986 0.150222 -0.923872
vn -0.351986 0.150222 -0.923872
vn -0.267970 0.273223 -0.923873
vn -0.267705 0.273486 -0.923872
vn -0.382681 0.003715 -0.923873
vn -0.352129 0.149877 -0.923873
vn -0.382680 0.004088 -0.923872
vn -0.382680 0.004088 -0.923872
vn -0.352129 0.149877 -0.923873
vn -0.351986 0.150222 -0.923872
vn -0.354973 -0.143014 -0.923873
vn -0.382681 0.003715 -0.923873
vn -0.355115 -0.142669 -0.923872
vn -0.355115 -0.142669 -0.923872
vn -0.382681 0.003715 -0.923873
vn -0.382680 0.004088 -0.923872
vn -0.273223 -0.267969 -0.923873
vn -0.354973 -0.143014 -0.923873
vn -0.273486 -0.267705 -0.923872
vn -0.273486 -0.267705 -0.923872
vn -0.354973 -0.143014 -0.923873
vn -0.355115 -0.142669 -0.923872
vn -0.149877 -0.352129 -0.923873
vn -0.273223 -0.267969 -0.923873
vn -0.150222 -0.351986 -0.923872
vn -0.150222 -0.351986 -0.923872
vn -0.273223 -0.267969 -0.923873
vn -0.273486 -0.267705 -0.923872
vn -0.003715 -0.382681 -0.923873
vn -0.149877 -0.352129 -0.923873
vn -0.004088 -0.382680 -0.923872
vn -0.004088 -0.382680 -0.923872
vn -0.149877 -0.352129 -0.923873
vn -0.150222 -0.351986 -0.923872
vn 0.143014 -0.354972 -0.923873
vn -0.003715 -0.382681 -0.923873
vn 0.142669 -0.355115 -0.923872
vn 0.142669 -0.355115 -0.923872
vn -0.003715 -0.382681 -0.923873
vn -0.004088 -0.382680 -0.923872
vn 0.267970 -0.273223 -0.923873
vn 0.143014 -0.354972 -0.923873
vn 0.267705 -0.273486 -0.923872
vn 0.267705 -0.273486 -0.923872
vn 0.143014 -0.354972 -0.923873
vn 0.142669 -0.355115 -0.923872
vn 0.352129 -0.149877 -0.923873
vn 0.267970 -0.273223 -0.923873
vn 0.351986 -0.150222 -0.923872
vn 0.351986 -0.150222 -0.923872
vn 0.267970 -0.273223 -0.923873
vn 0.267705 -0.273486 -0.923872
vn 0.382681 -0.003715 -0.923873
vn 0.352129 -0.149877 -0.923873
vn 0.382680 -0.004088 -0.923872
vn 0.382680 -0.004088 -0.923872
vn 0.352129 -0.149877 -0.923873
vn 0.351986 -0.150222 -0.923872
vn 0.354972 0.143014 -0.923873
vn 0.382681 -0.003715 -0.923873
vn 0.355115 0.142669 -0.923872
vn 0.355115 0.142669 -0.923872
vn 0.382681 -0.003715 -0.923873
vn 0.382680 -0.004088 -0.923872
vn -0.273470 -0.267722 -0.923872
vn -0.355106 -0.142691 -0.923872
vn -0.273826 -0.267364 -0.923870
vn -0.273826 -0.267364 -0.923870
vn -0.355106 -0.142691 -0.923872
vn -0.355298 -0.142224 -0.923870
vn -0.150200 -0.351995 -0.923872
vn -0.273470 -0.267722 -0.923872
vn -0.150666 -0.351801 -0.923870
vn -0.150666 -0.351801 -0.923870
vn -0.273470 -0.267722 -0.923872
vn -0.273826 -0.267364 -0.923870
vn -0.004064 -0.382680 -0.923872
vn -0.150200 -0.351995 -0.923872
vn -0.004569 -0.382679 -0.923870
vn -0.004569 -0.382679 -0.923870
vn -0.150200 -0.351995 -0.923872
vn -0.150666 -0.351801 -0.923870
vn 0.142691 -0.355106 -0.923872
vn -0.004064 -0.382680 -0.923872
vn 0.142224 -0.355298 -0.923870
vn 0.142224 -0.355298 -0.923870
vn -0.004064 -0.382680 -0.923872
vn -0.004569 -0.382679 -0.923870
vn 0.267722 -0.273470 -0.923872
vn 0.142691 -0.355106 -0.923872
vn 0.267364 -0.273826 -0.923870
vn 0.267364 -0.273826 -0.923870
vn 0.142691 -0.355106 -0.923872
vn 0.142224 -0.355298 -0.923870
vn 0.351995 -0.150200 -0.923872
vn 0.267722 -0.273470 -0.923872
vn 0.351801 -0.150666 -0.923870
vn 0.351801 -0.150666 -0.923870
vn 0.267722 -0.273470 -0.923872
vn 0.267364 -0.273826 -0.923870
vn 0.382680 -0.004064 -0.923872
vn 0.351995 -0.150200 -0.923872
vn 0.382679 -0.004569 -0.923870
vn 0.382679 -0.004569 -0.923870
vn 0.351995 -0.150200 -0.923872
vn 0.351801 -0.150666 -0.923870
vn 0.355106 0.142691 -0.923872
vn 0.382680 -0.004064 -0.923872
vn 0.355298 0.142224 -0.923870
vn 0.355298 0.142224 -0.923870
vn 0.382680 -0.004064 -0.923872
vn 0.382679 -0.004569 -0.923870
vn 0.273469 0.267722 -0.923872
vn 0.355106 0.142691 -0.923872
vn 0.273826 0.267364 -0.923870
vn 0.273826 0.267364 -0.923870
vn 0.355106 0.142691 -0.923872
vn 0.355298 0.142224 -0.923870
vn 0.150200 0.351995 -0.923872
vn 0.273469 0.267722 -0.923872
vn 0.150666 0.351801 -0.923870
vn 0.150666 0.351801 -0.923870
vn 0.273469 0.267722 -0.923872
vn 0.273826 0.267364 -0.923870
vn 0.004064 0.382680 -0.923872
vn 0.150200 0.351995 -0.923872
vn 0.004569 0.382679 -0.923870
vn 0.004569 0.382679 -0.923870
vn 0.150200 0.351995 -0.923872
vn 0.150666 0.351801 -0.923870
vn -0.142691 0.355106 -0.923872
vn 0.004064 0.382680 -0.923872
vn -0.142224 0.355298 -0.923870
vn -0.142224 0.355298 -0.923870
vn 0.004064 0.382680 -0.923872
vn 0.004569 0.382679 -0.923870
vn -0.267722 0.273470 -0.923872
vn -0.142691 0.355106 -0.923872
vn -0.267364 0.273826 -0.923870
vn -0.267364 0.273826 -0.923870
vn -0.142691 0.355106 -0.923872
vn -0.142224 0.355298 -0.923870
vn -0.351995 0.150200 -0.923872
vn -0.267722 0.273470 -0.923872
vn -0.351801 0.150666 -0.923870
vn -0.351801 0.150666 -0.923870
vn -0.267722 0.273470 -0.923872
vn -0.267364 0.273826 -0.923870
vn -0.382680 0.004064 -0.923872
vn -0.351995 0.150200 -0.923872
vn -0.382679 0.004569 -0.923870
vn -0.382679 0.004569 -0.923870
vn -0.351995 0.150200 -0.923872
vn -0.351801 0.150666 -0.923870
vn -0.355106 -0.142691 -0.923872
vn -0.382680 0.004064 -0.923872
vn -0.355298 -0.142224 -0.923870
vn -0.355298 -0.142224 -0.923870
vn -0.382680 0.004064 -0.923872
vn -0.382679 0.004569 -0.923870
vn -0.656479 -0.650070 -0.382680
vn -0.855279 -0.349364 -0.382679
vn -0.656667 -0.649881 -0.382679
vn -0.656667 -0.649881 -0.382679
vn -0.855279 -0.349364 -0.382679
vn -0.855379 -0.349117 -0.382679
vn -0.357736 -0.851811 -0.382679
vn -0.656479 -0.650070 -0.382680
vn -0.357982 -0.851708 -0.382679
vn -0.357982 -0.851708 -0.382679
vn -0.656479 -0.650070 -0.382680
vn -0.656667 -0.649881 -0.382679
vn -0.004532 -0.923870 -0.382680
vn -0.357736 -0.851811 -0.382679
vn -0.004798 -0.923869 -0.382679
vn -0.004798 -0.923869 -0.382679
vn -0.357736 -0.851811 -0.382679
vn -0.357982 -0.851708 -0.382679
vn 0.349363 -0.855279 -0.382680
vn -0.004532 -0.923870 -0.382680
vn 0.349117 -0.855379 -0.382679
vn 0.349117 -0.855379 -0.382679
vn -0.004532 -0.923870 -0.382680
vn -0.004798 -0.923869 -0.382679
vn 0.650071 -0.656479 -0.382679
vn 0.349363 -0.855279 -0.382680
vn 0.649882 -0.656666 -0.382679
vn 0.649882 -0.656666 -0.382679
vn 0.349363 -0.855279 -0.382680
vn 0.349117 -0.855379 -0.382679
vn 0.851810 -0.357736 -0.382680
vn 0.650071 -0.656479 -0.382679
vn 0.851708 -0.357982 -0.382679
vn 0.851708 -0.357982 -0.382679
vn 0.650071 -0.656479 -0.382679
vn 0.649882 -0.656666 -0.382679
vn 0.923870 -0.004531 -0.382680
vn 0.851810 -0.357736 -0.382680
vn 0.923869 -0.004798 -0.382680
vn 0.923869 -0.004798 -0.382680
vn 0.851810 -0.357736 -0.382680
vn 0.851708 -0.357982 -0.382679
vn 0.855279 0.349364 -0.382679
vn 0.923870 -0.004531 -0.382680
vn 0.855379 0.349117 -0.382679
vn 0.855379 0.349117 -0.382679
vn 0.923870 -0.004531 -0.382680
vn 0.923869 -0.004798 -0.382680
vn 0.656479 0.650071 -0.382680
vn 0.855279 0.349364 -0.382679
vn 0.656666 0.649882 -0.382679
vn 0.656666 0.649882 -0.382679
vn 0.855279 0.349364 -0.382679
vn 0.855379 0.349117 -0.382679
vn 0.357736 0.851810 -0.382680
vn 0.656479 0.650071 -0.382680
vn 0.357982 0.851708 -0.382679
vn 0.357982 0.851708 -0.382679
vn 0.656479 0.650071 -0.382680
vn 0.656666 0.649882 -0.382679
vn 0.004531 0.923870 -0.382680
vn 0.357736 0.851810 -0.382680
vn 0.004797 0.923869 -0.382679
vn 0.004797 0.923869 -0.382679
vn 0.357736 0.851810 -0.382680
vn 0.357982 0.851708 -0.382679
vn -0.349364 0.855278 -0.382680
vn 0.004531 0.923870 -0.382680
vn -0.349117 0.855379 -0.382679
vn -0.349117 0.855379 -0.382679
vn 0.004531 0.923870 -0.382680
vn 0.004797 0.923869 -0.382679
vn -0.650071 0.656479 -0.382680
vn -0.349364 0.855278 -0.382680
vn -0.649882 0.656666 -0.382679
vn -0.649882 0.656666 -0.382679
vn -0.349364 0.855278 -0.382680
vn -0.349117 0.855379 -0.382679
vn -0.851810 0.357736 -0.382680
vn -0.650071 0.656479 -0.382680
vn -0.851708 0.357981 -0.382680
vn -0.851708 0.357981 -0.382680
vn -0.650071 0.656479 -0.382680
vn -0.649882 0.656666 -0.382679
vn -0.923870 0.004531 -0.382679
vn -0.851810 0.357736 -0.382680
vn -0.923869 0.004797 -0.382679
vn -0.923869 0.004797 -0.382679
vn -0.851810 0.357736 -0.382680
vn -0.851708 0.357981 -0.382680
vn -0.855279 -0.349364 -0.382679
vn -0.923870 0.004531 -0.382679
vn -0.855379 -0.349117 -0.382679
vn -0.855379 -0.349117 -0.382679
vn -0.923870 0.004531 -0.382679
vn -0.923869 0.004797 -0.382679
s off
g gate:pasted__pCube8gate
usemtl gate:pasted__lambert5SG
f 1/1/1 2/2/2 3/3/3
f 3/3/4 2/2/5 4/4/6
f 3/3/7 4/4/8 5/5/9
f 5/5/10 4/4/11 6/6/12
f 5/5/13 6/6/14 7/7/15
f 7/7/16 6/6/17 8/8/18
f 7/7/19 8/8/20 1/9/21
f 1/9/22 8/8/23 2/10/24
f 2/2/25 8/11/26 4/4/27
f 4/4/28 8/11/29 6/12/30
f 7/13/31 1/1/32 5/14/33
f 5/14/34 1/1/35 3/3/36
usemtl gate:lambert5SG
f 9/15/37 10/16/38 11/17/39
f 11/17/40 10/16/41 12/18/42
f 11/17/43 12/18/44 13/19/45
f 13/19/46 12/18/47 14/20/48
f 13/19/49 14/20/50 15/21/51
f 15/21/52 14/20/53 16/22/54
f 15/21/55 16/22/56 9/23/57
f 9/23/58 16/22/59 10/24/60
f 10/16/61 16/25/62 12/18/63
f 12/18/64 16/25/65 14/26/66
f 15/27/67 9/15/68 13/28/69
f 13/28/70 9/15/71 11/17/72
usemtl gate:lambert4SG
f 17/29/73 18/30/74 36/31/75
f 36/31/76 18/30/77 35/32/78
f 18/33/79 17/29/80 19/34/81
f 19/34/82 17/29/83 20/35/84
f 20/35/85 27/36/86 19/37/87
f 19/37/88 27/36/89 28/38/90
f 22/39/91 39/40/92 21/41/93
f 21/41/94 39/40/95 40/42/96
f 22/39/97 21/43/98 23/44/99
f 23/44/100 21/43/101 24/45/102
f 23/44/103 24/46/104 32/47/105
f 32/47/106 24/46/107 31/48/108
f 26/49/109 34/50/110 25/51/111
f 25/51/112 34/50/113 33/52/114
f 26/49/115 25/51/116 27/53/117
f 27/53/118 25/51/119 28/54/120
f 29/55/121 30/56/122 38/57/123
f 38/57/124 30/56/125 37/58/126
f 29/55/127 32/59/128 30/56/129
f 30/56/130 32/59/131 31/60/132
f 34/50/133 36/61/134 33/52/135
f 33/52/136 36/61/137 35/62/138
f 38/57/139 37/58/140 39/63/141
f 39/63/142 37/58/143 40/64/144
f 17/29/145 22/39/146 20/35/147
f 20/35/148 22/39/149 23/44/150
f 26/49/151 27/53/152 29/55/153
f 29/55/154 27/53/155 32/59/156
f 28/65/157 25/51/158 35/62/159
f 35/62/160 25/51/161 33/52/162
f 30/56/163 31/66/164 37/58/165
f 37/58/166 31/66/167 40/64/168
f 34/50/169 38/57/170 36/67/171
f 36/67/172 38/57/173 39/68/174
f 29/55/175 38/57/176 26/49/177
f 26/49/178 38/57/179 34/50/180
f 36/31/181 39/40/182 17/29/183
f 17/29/184 39/40/185 22/39/186
f 20/35/187 23/44/188 27/36/189
f 27/36/190 23/44/191 32/47/192
f 31/66/193 24/69/194 40/64/195
f 40/64/196 24/69/197 21/70/198
f 19/71/199 28/72/200 18/73/201
f 18/73/202 28/72/203 35/74/204
usemtl gate:lambert2SG
f 42/75/205 41/76/206 58/77/207
f 58/77/208 41/76/209 57/78/210
f 43/79/211 42/75/212 59/80/213
f 59/80/214 42/75/215 58/77/216
f 44/81/217 43/79/218 60/82/219
f 60/82/220 43/79/221 59/80/222
f 45/83/223 44/81/224 61/84/225
f 61/84/226 44/81/227 60/82/228
f 46/85/229 45/83/230 62/86/231
f 62/86/232 45/83/233 61/84/234
f 47/87/235 46/85/236 63/88/237
f 63/88/238 46/85/239 62/86/240
f 48/89/241 47/87/242 64/90/243
f 64/90/244 47/87/245 63/88/246
f 49/91/247 48/89/248 65/92/249
f 65/92/250 48/89/251 64/90/252
f 50/93/253 49/91/254 66/94/255
f 66/94/256 49/91/257 65/92/258
f 51/95/259 50/93/260 67/96/261
f 67/96/262 50/93/263 66/94/264
f 52/97/265 51/95/266 68/98/267
f 68/98/268 51/95/269 67/96/270
f 53/99/271 52/97/272 69/100/273
f 69/100/274 52/97/275 68/98/276
f 54/101/277 53/99/278 70/102/279
f 70/102/280 53/99/281 69/100/282
f 55/103/283 54/101/284 71/104/285
f 71/104/286 54/101/287 70/102/288
f 56/105/289 55/103/290 72/106/291
f 72/106/292 55/103/293 71/104/294
f 41/107/295 56/105/296 57/108/297
f 57/108/298 56/105/299 72/106/300
f 58/77/301 57/78/302 74/109/303
f 74/109/304 57/78/305 73/110/306
f 59/80/307 58/77/308 75/111/309
f 75/111/310 58/77/311 74/109/312
f 60/82/313 59/80/314 76/112/315
f 76/112/316 59/80/317 75/111/318
f 61/84/319 60/82/320 77/113/321
f 77/113/322 60/82/323 76/112/324
f 62/86/325 61/84/326 78/114/327
f 78/114/328 61/84/329 77/113/330
f 63/88/331 62/86/332 79/115/333
f 79/115/334 62/86/335 78/114/336
f 64/90/337 63/88/338 80/116/339
f 80/116/340 63/88/341 79/115/342
f 65/92/343 64/90/344 81/117/345
f 81/117/346 64/90/347 80/116/348
f 66/94/349 65/92/350 82/118/351
f 82/118/352 65/92/353 81/117/354
f 67/96/355 66/94/356 83/119/357
f 83/119/358 66/94/359 82/118/360
f 68/98/361 67/96/362 84/120/363
f 84/120/364 67/96/365 83/119/366
f 69/100/367 68/98/368 85/121/369
f 85/121/370 68/98/371 84/120/372
f 70/102/373 69/100/374 86/122/375
f 86/122/376 69/100/377 85/121/378
f 71/104/379 70/102/380 87/123/381
f 87/123/382 70/102/383 86/122/384
f 72/106/385 71/104/386 88/124/387
f 88/124/388 71/104/389 87/123/390
f 57/108/391 72/106/392 73/125/393
f 73/125/394 72/106/395 88/124/396
f 74/109/397 73/110/398 90/126/399
f 90/126/400 73/110/401 89/127/402
f 75/111/403 74/109/404 91/128/405
f 91/128/406 74/109/407 90/126/408
f 76/112/409 75/111/410 92/129/411
f 92/129/412 75/111/413 91/128/414
f 77/113/415 76/112/416 93/130/417
f 93/130/418 76/112/419 92/129/420
f 78/114/421 77/113/422 94/131/423
f 94/131/424 77/113/425 93/130/426
f 79/115/427 78/114/428 95/132/429
f 95/132/430 78/114/431 94/131/432
f 80/116/433 79/115/434 96/133/435
f 96/133/436 79/115/437 95/132/438
f 81/117/439 80/116/440 97/134/441
f 97/134/442 80/116/443 96/133/444
f 82/118/445 81/117/446 98/135/447
f 98/135/448 81/117/449 97/134/450
f 83/119/451 82/118/452 99/136/453
f 99/136/454 82/118/455 98/135/456
f 84/120/457 83/119/458 100/137/459
f 100/137/460 83/119/461 99/136/462
f 85/121/463 84/120/464 101/138/465
f 101/138/466 84/120/467 100/137/468
f 86/122/469 85/121/470 102/139/471
f 102/139/472 85/121/473 101/138/474
f 87/123/475 86/122/476 103/140/477
f 103/140/478 86/122/479 102/139/480
f 88/124/481 87/123/482 104/141/483
f 104/141/484 87/123/485 103/140/486
f 73/125/487 88/124/488 89/142/489
f 89/142/490 88/124/491 104/141/492
f 90/126/493 89/127/494 106/143/495
f 106/143/496 89/127/497 105/144/498
f 91/128/499 90/126/500 107/145/501
f 107/145/502 90/126/503 106/143/504
f 92/129/505 91/128/506 108/146/507
f 108/146/508 91/128/509 107/145/510
f 93/130/511 92/129/512 109/147/513
f 109/147/514 92/129/515 108/146/516
f 94/131/517 93/130/518 110/148/519
f 110/148/520 93/130/521 109/147/522
f 95/132/523 94/131/524 111/149/525
f 111/149/526 94/131/527 110/148/528
f 96/133/529 95/132/530 112/150/531
f 112/150/532 95/132/533 111/149/534
f 97/134/535 96/133/536 113/151/537
f 113/151/538 96/133/539 112/150/540
f 98/135/541 97/134/542 114/152/543
f 114/152/544 97/134/545 113/151/546
f 99/136/547 98/135/548 115/153/549
f 115/153/550 98/135/551 114/152/552
f 100/137/553 99/136/554 116/154/555
f 116/154/556 99/136/557 115/153/558
f 101/138/559 100/137/560 117/155/561
f 117/155/562 100/137/563 116/154/564
f 102/139/565 101/138/566 118/156/567
f 118/156/568 101/138/569 117/155/570
f 103/140/571 102/139/572 119/157/573
f 119/157/574 102/139/575 118/156/576
f 104/141/577 103/140/578 120/158/579
f 120/158/580 103/140/581 119/157/582
f 89/142/583 104/141/584 105/159/585
f 105/159/586 104/141/587 120/158/588
f 106/143/589 105/144/590 122/160/591
f 122/160/592 105/144/593 121/161/594
f 107/145/595 106/143/596 123/162/597
f 123/162/598 106/143/599 122/160/600
f 108/146/601 107/145/602 124/163/603
f 124/163/604 107/145/605 123/162/606
f 109/147/607 108/146/608 125/164/609
f 125/164/610 108/146/611 124/163/612
f 110/148/613 109/147/614 126/165/615
f 126/165/616 109/147/617 125/164/618
f 111/149/619 110/148/620 127/166/621
f 127/166/622 110/148/623 126/165/624
f 112/150/625 111/149/626 128/167/627
f 128/167/628 111/149/629 127/166/630
f 113/151/631 112/150/632 129/168/633
f 129/168/634 112/150/635 128/167/636
f 114/152/637 113/151/638 130/169/639
f 130/169/640 113/151/641 129/168/642
f 115/153/643 114/152/644 131/170/645
f 131/170/646 114/152/647 130/169/648
f 116/154/649 115/153/650 132/171/651
f 132/171/652 115/153/653 131/170/654
f 117/155/655 116/154/656 133/172/657
f 133/172/658 116/154/659 132/171/660
f 118/156/661 117/155/662 134/173/663
f 134/173/664 117/155/665 133/172/666
f 119/157/667 118/156/668 135/174/669
f 135/174/670 118/156/671 134/173/672
f 120/158/673 119/157/674 136/175/675
f 136/175/676 119/157/677 135/174/678
f 105/159/679 120/158/680 121/176/681
f 121/176/682 120/158/683 136/175/684
f 122/160/685 121/161/686 138/177/687
f 138/177/688 121/161/689 137/178/690
f 123/162/691 122/160/692 139/179/693
f 139/179/694 122/160/695 138/177/696
f 124/163/697 123/162/698 140/180/699
f 140/180/700 123/162/701 139/179/702
f 125/164/703 124/163/704 141/181/705
f 141/181/706 124/163/707 140/180/708
f 126/165/709 125/164/710 142/182/711
f 142/182/712 125/164/713 141/181/714
f 127/166/715 126/165/716 143/183/717
f 143/183/718 126/165/719 142/182/720
f 128/167/721 127/166/722 144/184/723
f 144/184/724 127/166/725 143/183/726
f 129/168/727 128/167/728 145/185/729
f 145/185/730 128/167/731 144/184/732
f 130/169/733 129/168/734 146/186/735
f 146/186/736 129/168/737 145/185/738
f 131/170/739 130/169/740 147/187/741
f 147/187/742 130/169/743 146/186/744
f 132/171/745 131/170/746 148/188/747
f 148/188/748 131/170/749 147/187/750
f 133/172/751 132/171/752 149/189/753
f 149/189/754 132/171/755 148/188/756
f 134/173/757 133/172/758 150/190/759
f 150/190/760 133/172/761 149/189/762
f 135/174/763 134/173/764 151/191/765
f 151/191/766 134/173/767 150/190/768
f 136/175/769 135/174/770 152/192/771
f 152/192/772 135/174/773 151/191/774
f 121/176/775 136/175/776 137/193/777
f 137/193/778 136/175/779 152/192/780
f 138/177/781 137/178/782 154/194/783
f 154/194/784 137/178/785 153/195/786
f 139/179/787 138/177/788 155/196/789
f 155/196/790 138/177/791 154/194/792
f 140/180/793 139/179/794 156/197/795
f 156/197/796 139/179/797 155/196/798
f 141/181/799 140/180/800 157/198/801
f 157/198/802 140/180/803 156/197/804
f 142/182/805 141/181/806 158/199/807
f 158/199/808 141/181/809 157/198/810
f 143/183/811 142/182/812 159/200/813
f 159/200/814 142/182/815 158/199/816
f 144/184/817 143/183/818 160/201/819
f 160/201/820 143/183/821 159/200/822
f 145/185/823 144/184/824 161/202/825
f 161/202/826 144/184/827 160/201/828
f 146/186/829 145/185/830 162/203/831
f 162/203/832 145/185/833 161/202/834
f 147/187/835 146/186/836 163/204/837
f 163/204/838 146/186/839 162/203/840
f 148/188/841 147/187/842 164/205/843
f 164/205/844 147/187/845 163/204/846
f 149/189/847 148/188/848 165/206/849
f 165/206/850 148/188/851 164/205/852
f 150/190/853 149/189/854 166/207/855
f 166/207/856 149/189/857 165/206/858
f 151/191/859 150/190/860 167/208/861
f 167/208/862 150/190/863 166/207/864
f 152/192/865 151/191/866 168/209/867
f 168/209/868 151/191/869 167/208/870
f 137/193/871 152/192/872 153/210/873
f 153/210/874 152/192/875 168/209/876
f 154/194/877 153/195/878 42/211/879
f 42/211/880 153/195/881 41/212/882
f 155/196/883 154/194/884 43/213/885
f 43/213/886 154/194/887 42/211/888
f 156/197/889 155/196/890 44/214/891
f 44/214/892 155/196/893 43/213/894
f 157/198/895 156/197/896 45/215/897
f 45/215/898 156/197/899 44/214/900
f 158/199/901 157/198/902 46/216/903
f 46/216/904 157/198/905 45/215/906
f 159/200/907 158/199/908 47/217/909
f 47/217/910 158/199/911 46/216/912
f 160/201/913 159/200/914 48/218/915
f 48/218/916 159/200/917 47/217/918
f 161/202/919 160/201/920 49/219/921
f 49/219/922 160/201/923 48/218/924
f 162/203/925 161/202/926 50/220/927
f 50/220/928 161/202/929 49/219/930
f 163/204/931 162/203/932 51/221/933
f 51/221/934 162/203/935 50/220/936
f 164/205/937 163/204/938 52/222/939
f 52/222/940 163/204/941 51/221/942
f 165/206/943 164/205/944 53/223/945
f 53/223/946 164/205/947 52/222/948
f 166/207/949 165/206/950 54/224/951
f 54/224/952 165/206/953 53/223/954
f 167/208/955 166/207/956 55/225/957
f 55/225/958 166/207/959 54/224/960
f 168/209/961 167/208/962 56/226/963
f 56/226/964 167/208/965 55/225/966
f 153/210/967 168/209/968 41/227/969
f 41/227/970 168/209/971 56/226/972
