# This file uses centimeters as units for non-parametric coordinates.

mtllib grass_02.mtl
g default
v -1.128228 0.893092 4.380412
v -1.149322 0.614862 4.484455
v -1.082525 0.614862 4.475638
v -1.064946 0.336633 4.491509
v -1.159869 0.336633 4.503853
v -1.064946 0.077814 4.463294
v -1.166901 0.077814 4.475638
v -1.300496 0.686037 4.526778
v -1.251277 0.485453 4.588498
v -1.223151 0.485453 4.547939
v -1.209089 0.284869 4.547939
v -1.247761 0.284869 4.604369
v -1.223151 0.071344 4.532068
v -1.265339 0.071344 4.595552
v -0.854007 0.711919 4.415681
v -0.973539 0.543687 4.507380
v -0.913773 0.543687 4.542649
v -0.934867 0.336633 4.560283
v -1.019243 0.336633 4.521487
v -0.917289 0.071344 4.537358
v -1.012212 0.071344 4.493272
vt 0.178006 0.900579
vt 0.171739 0.893382
vt 0.173583 0.892417
vt 0.175011 0.888512
vt 0.169942 0.885177
vt 0.171970 0.882939
vt 0.176347 0.886800
vt 0.165426 0.880657
vt 0.167684 0.878156
vt 0.168836 0.896586
vt 0.166026 0.890530
vt 0.166993 0.890881
vt 0.166348 0.887897
vt 0.168836 0.886581
vt 0.162385 0.886274
vt 0.163768 0.886757
vt 0.181785 0.891540
vt 0.158238 0.882851
vt 0.159759 0.883422
vt 0.161556 0.883685
vt 0.164321 0.882237
vn 0.123097 0.339394 0.932555
vn 0.127636 0.203871 0.970642
vn 0.127636 0.203871 0.970642
vn -0.441461 0.018952 0.897080
vn -0.441461 0.018952 0.897080
vn -0.441398 0.406760 0.799821
vn -0.441398 0.406760 0.799821
vn -0.441461 0.018952 0.897080
vn -0.417111 -0.106387 0.902607
vn -0.441461 0.018952 0.897080
vn -0.417111 -0.106387 0.902607
vn 0.768933 0.352751 0.533206
vn 0.804573 0.208021 0.556228
vn 0.804573 0.208021 0.556228
vn 0.127636 0.203871 0.970642
vn 0.127218 -0.022563 0.991618
vn 0.127636 0.203871 0.970642
vn 0.127218 -0.022563 0.991618
vn 0.825991 -0.017378 0.563415
vn 0.825991 -0.017378 0.563415
vn 0.804573 0.208021 0.556228
vn 0.804573 0.208021 0.556228
vn -0.390964 0.638914 0.662522
vn -0.441398 0.406760 0.799821
vn -0.441398 0.406760 0.799821
vn 0.825991 -0.017378 0.563415
vn 0.825286 -0.093216 0.556968
vn 0.825991 -0.017378 0.563415
vn 0.825286 -0.093216 0.556968
vn 0.127218 -0.022563 0.991618
vn 0.123832 -0.109259 0.986270
vn 0.127218 -0.022563 0.991618
vn 0.123832 -0.109259 0.986270
s off
g grass_02 group1
usemtl samor_4024_03SG
f 1/1/1 2/2/2 3/3/3
s 1
f 19/5/4 18/6/5 16/4/6
f 16/4/6 18/6/5 17/7/7
s 2
f 19/5/8 21/8/9 18/6/10
f 18/6/10 21/8/9 20/9/11
s off
f 8/10/12 9/11/13 10/12/14
s 3
f 2/2/15 5/13/16 3/3/17
f 3/3/17 5/13/16 4/14/18
s 4
f 12/15/19 11/16/20 9/11/21
f 9/11/21 11/16/20 10/12/22
s off
f 15/17/23 16/4/24 17/7/25
s 5
f 12/15/26 14/18/27 11/16/28
f 11/16/28 14/18/27 13/19/29
s 6
f 5/13/30 7/20/31 4/14/32
f 4/14/32 7/20/31 6/21/33
