# This file uses centimeters as units for non-parametric coordinates.

mtllib grass_01.mtl
g default
v 0.275706 0.065622 4.113112
v 0.201186 0.158301 4.190660
v 0.302008 0.158301 4.190660
v 0.319542 0.188091 4.263360
v 0.179268 0.188091 4.263360
v 0.319542 0.171541 4.360294
v 0.174884 0.171541 4.360294
v 0.302008 0.113617 4.432994
v 0.179268 0.113617 4.432994
v 0.262556 -0.022092 4.481461
v 0.209953 -0.022092 4.481461
v -0.026761 0.030867 4.728643
v 0.087212 0.108652 4.709256
v 0.008308 0.111962 4.641402
v 0.043377 0.128512 4.568702
v 0.161733 0.121892 4.675329
v 0.109130 0.125202 4.496002
v 0.231871 0.118582 4.602629
v 0.170500 0.090447 4.466921
v 0.258172 0.085482 4.544469
v 0.227487 -0.012163 4.452381
v 0.258172 -0.013818 4.481461
v 0.529954 0.083827 4.670483
v 0.472968 0.148371 4.573549
v 0.433515 0.148371 4.641402
v 0.350227 0.161611 4.612322
v 0.402830 0.161611 4.515388
v 0.280090 0.148371 4.573549
v 0.337077 0.148371 4.476615
v 0.240638 0.092102 4.534775
v 0.288857 0.092102 4.452381
v 0.223103 -0.013818 4.491155
v 0.240638 -0.013818 4.452381
vt 0.267588 0.904214
vt 0.264011 0.901978
vt 0.267932 0.900999
vt 0.264830 0.891074
vt 0.263020 0.891400
vt 0.261943 0.890189
vt 0.262245 0.888232
vt 0.268665 0.887486
vt 0.266510 0.889723
vt 0.263494 0.886368
vt 0.265778 0.884318
vt 0.270776 0.884691
vt 0.268708 0.882361
vt 0.262503 0.899322
vt 0.267932 0.898017
vt 0.250137 0.883340
vt 0.254661 0.882967
vt 0.252334 0.886322
vt 0.262891 0.887813
vt 0.263408 0.890236
vt 0.262460 0.891587
vt 0.260176 0.891633
vt 0.257893 0.883666
vt 0.254230 0.888838
vt 0.272155 0.880404
vt 0.260780 0.892845
vt 0.261555 0.890655
vt 0.263623 0.890142
vt 0.265605 0.891680
vt 0.261254 0.885669
vt 0.257548 0.890935
vt 0.261297 0.895594
vt 0.267027 0.894196
vn 0.000000 0.641718 -0.766941
vn 0.000000 0.807157 -0.590337
vn 0.000000 0.807157 -0.590337
vn -0.836932 0.336045 -0.431994
vn -0.836932 0.336045 -0.431994
vn -0.746930 0.525012 -0.407992
vn -0.746930 0.525012 -0.407992
vn -0.405213 0.883238 -0.235993
vn -0.405213 0.883238 -0.235993
vn -0.008286 0.999954 -0.004870
vn -0.008286 0.999954 -0.004870
vn -0.008286 0.999954 -0.004870
vn -0.008286 0.999954 -0.004870
vn 0.309563 0.933941 0.178678
vn 0.309563 0.933941 0.178678
vn 0.000000 0.993968 -0.109674
vn 0.000000 0.993968 -0.109674
vn 0.000000 0.807157 -0.590337
vn 0.000000 0.807157 -0.590337
vn -0.418199 0.743001 0.522551
vn -0.269168 0.893846 0.358591
vn -0.269168 0.893846 0.358591
vn -0.746930 0.525012 -0.407992
vn -0.746930 0.525012 -0.407992
vn -0.405213 0.883238 -0.235993
vn -0.405213 0.883238 -0.235993
vn 0.506932 0.687669 -0.519742
vn 0.621901 0.431830 -0.653271
vn 0.506932 0.687669 -0.519742
vn 0.621901 0.431830 -0.653271
vn -0.024537 0.995944 0.086570
vn -0.024537 0.995944 0.086570
vn -0.269168 0.893846 0.358591
vn -0.269168 0.893846 0.358591
vn 0.475546 0.835108 0.276497
vn 0.309563 0.933941 0.178678
vn 0.309563 0.933941 0.178678
vn 0.000000 0.336333 0.941743
vn 0.000000 0.336333 0.941743
vn 0.000000 0.581465 0.813572
vn 0.000000 0.581465 0.813572
vn 0.203061 0.964101 -0.171099
vn 0.203061 0.964101 -0.171099
vn -0.024537 0.995944 0.086570
vn -0.024537 0.995944 0.086570
vn 0.000000 0.581465 0.813572
vn 0.000000 0.581465 0.813572
vn 0.000000 0.912709 0.408611
vn 0.000000 0.912709 0.408611
vn 0.506932 0.687669 -0.519742
vn 0.506932 0.687669 -0.519742
vn 0.203061 0.964101 -0.171099
vn 0.203061 0.964101 -0.171099
vn 0.000000 0.912709 0.408611
vn 0.000000 0.912709 0.408611
vn 0.000000 0.993968 -0.109674
vn 0.000000 0.993968 -0.109674
s off
g grass_01 group1
usemtl samor_4024_04SG
f 1/1/1 2/2/2 3/3/3
s 1
f 33/5/4 32/6/5 31/4/6
f 31/4/6 32/6/5 30/7/7
s 2
f 29/9/8 28/10/9 27/8/10
f 27/8/10 28/10/9 26/11/11
s 3
f 27/8/12 26/11/13 24/12/14
f 24/12/14 26/11/13 25/13/15
s 4
f 5/14/16 4/15/17 2/2/18
f 2/2/18 4/15/17 3/3/19
s off
f 12/16/20 13/17/21 14/18/22
s 5
f 31/4/23 30/7/24 29/9/25
f 29/9/25 30/7/24 28/10/26
s 6
f 20/19/27 22/20/28 19/22/29
f 19/22/29 22/20/28 21/21/30
s 7
f 16/23/31 15/24/32 13/17/33
f 13/17/33 15/24/32 14/18/34
s off
f 23/25/35 24/12/36 25/13/37
s 8
f 11/27/38 10/28/39 9/26/40
f 9/26/40 10/28/39 8/29/41
s 9
f 18/30/42 17/31/43 16/23/44
f 16/23/44 17/31/43 15/24/45
s 10
f 9/26/46 8/29/47 7/32/48
f 7/32/48 8/29/47 6/33/49
s 11
f 20/19/50 19/22/51 18/30/52
f 18/30/52 19/22/51 17/31/53
s 12
f 7/32/54 6/33/55 5/14/56
f 5/14/56 6/33/55 4/15/57
