# This file uses centimeters as units for non-parametric coordinates.

mtllib grass_03.mtl
g default
v -2.754351 0.115832 4.009840
v -2.641409 0.110012 4.118223
v -2.606658 0.110012 4.067644
v -2.884669 0.096433 4.400017
v -2.736975 0.104193 4.342213
v -2.728288 0.099343 4.421694
v -2.007197 0.023688 4.768518
v -2.059324 0.033387 4.624008
v -2.111451 0.033387 4.652910
v -1.781313 0.068305 4.378341
v -1.937694 0.068305 4.385566
v -1.929006 0.068305 4.327762
v -2.128827 0.054726 3.850879
v -2.198329 0.072185 3.988164
v -2.146202 0.075095 4.002615
v -2.667473 0.052786 4.761292
v -2.597970 0.078974 4.624008
v -2.537155 0.080914 4.681812
v -2.328647 -0.006380 4.363890
v -2.267832 -0.006380 4.262733
v -2.641409 0.110012 4.118223
v -2.606658 0.110012 4.067644
v -2.328647 -0.003470 4.407243
v -2.337335 -0.000560 4.298860
v -2.728288 0.099343 4.421694
v -2.736975 0.104193 4.342213
v -2.224393 0.010109 4.334988
v -2.328647 0.010109 4.385566
v -2.059324 0.033387 4.624008
v -2.111451 0.033387 4.652910
v -2.285208 -0.002500 4.241056
v -2.302583 -0.005410 4.356664
v -1.929006 0.068305 4.327762
v -1.937694 0.068305 4.385566
v -2.319959 -0.007350 4.327762
v -2.207017 -0.005410 4.363890
v -2.198329 0.072185 3.988164
v -2.146202 0.075095 4.002615
v -2.259144 -0.003470 4.385566
v -2.346023 -0.000560 4.313311
v -2.537155 0.080914 4.681812
v -2.597970 0.078974 4.624008
vt 0.666403 0.582788
vt 0.667629 0.581373
vt 0.668007 0.582033
vt 0.664988 0.577694
vt 0.666686 0.577411
vt 0.666592 0.578449
vt 0.674516 0.572883
vt 0.673950 0.574770
vt 0.673384 0.574392
vt 0.676968 0.577977
vt 0.675365 0.578637
vt 0.675270 0.577883
vt 0.673195 0.584863
vt 0.672440 0.583071
vt 0.673006 0.582882
vt 0.667346 0.572977
vt 0.668761 0.574015
vt 0.668101 0.574770
vt 0.671308 0.578260
vt 0.675270 0.577883
vt 0.675365 0.578637
vt 0.671497 0.579769
vt 0.670837 0.578826
vt 0.668101 0.574770
vt 0.668761 0.574015
vt 0.671780 0.577883
vt 0.672346 0.578166
vt 0.673006 0.582882
vt 0.672440 0.583071
vt 0.671120 0.578637
vt 0.671025 0.577883
vt 0.673384 0.574392
vt 0.673950 0.574770
vt 0.672157 0.578543
vt 0.671686 0.579486
vt 0.668007 0.582033
vt 0.667629 0.581373
vt 0.671025 0.578166
vt 0.670931 0.579015
vt 0.666592 0.578449
vt 0.666686 0.577411
vt 0.671025 0.577600
vn 0.031031 0.999291 0.021321
vn 0.031031 0.999291 0.021321
vn 0.031031 0.999291 0.021321
vn -0.027415 0.997582 0.063866
vn -0.027415 0.997582 0.063866
vn -0.027415 0.997582 0.063866
vn 0.030949 0.997961 0.055818
vn 0.030949 0.997961 0.055818
vn 0.030949 0.997961 0.055818
vn 0.000000 1.000000 0.000000
vn 0.000000 1.000000 0.000000
vn 0.000000 1.000000 0.000000
vn -0.017866 0.990680 -0.135032
vn -0.017866 0.990680 -0.135032
vn -0.017866 0.990680 -0.135032
vn -0.141517 0.983128 0.115895
vn -0.141517 0.983128 0.115895
vn -0.141517 0.983128 0.115895
vn -0.192960 0.981065 -0.016664
vn -0.192960 0.981065 -0.016664
vn -0.192960 0.981065 -0.016664
vn -0.192960 0.981065 -0.016664
vn 0.133943 0.979807 -0.148447
vn 0.133943 0.979807 -0.148447
vn 0.133943 0.979807 -0.148447
vn 0.133943 0.979807 -0.148447
vn -0.094551 0.975852 0.196909
vn -0.094551 0.975852 0.196909
vn -0.094551 0.975852 0.196909
vn -0.094551 0.975852 0.196909
vn -0.032031 0.997583 -0.061664
vn -0.032031 0.997583 -0.061664
vn -0.032031 0.997583 -0.061664
vn -0.032031 0.997583 -0.061664
vn 0.238262 0.959042 0.153201
vn 0.238262 0.959042 0.153201
vn 0.238262 0.959042 0.153201
vn 0.238262 0.959042 0.153201
vn 0.252130 0.967514 0.018654
vn 0.252130 0.967514 0.018654
vn 0.252130 0.967514 0.018654
vn 0.252130 0.967514 0.018654
s off
g grass_03 group1
usemtl samor_4024_12SG
f 1/1/1 2/2/2 3/3/3
f 4/4/4 6/5/5 5/6/6
f 7/7/7 8/8/8 9/9/9
f 10/10/10 12/11/11 11/12/12
f 13/13/13 14/14/14 15/15/15
f 16/16/16 18/17/17 17/18/18
s 1
f 34/20/19 33/21/20 32/19/21
f 32/19/21 33/21/20 31/22/22
s 2
f 40/23/23 42/24/24 39/26/25
f 39/26/25 42/24/24 41/25/26
s 3
f 36/27/27 38/28/28 35/30/29
f 35/30/29 38/28/28 37/29/30
s 4
f 28/31/31 30/32/32 27/34/33
f 27/34/33 30/32/32 29/33/34
s 5
f 22/36/35 21/37/36 20/35/37
f 20/35/37 21/37/36 19/38/38
s 6
f 26/40/39 25/41/40 24/39/41
f 24/39/41 25/41/40 23/42/42
