# This file uses centimeters as units for non-parametric coordinates.

mtllib grass_00.mtl
g default
v -0.313243 0.170172 -0.026915
v -0.149327 0.088469 0.005169
v -0.327293 0.200811 -0.091083
v -0.144643 0.108895 -0.058999
v -0.242993 0.119108 0.031906
v -0.139960 0.059873 0.069338
v -0.313243 0.170172 -0.026915
v -0.149327 0.088469 0.005169
v -0.139960 0.059873 0.069338
v -0.050977 0.004724 0.069338
v -0.149327 0.088469 0.005169
v 0.005223 -0.011617 0.031906
v -0.149327 0.088469 0.005169
v 0.005223 -0.011617 0.031906
v -0.144643 0.108895 -0.058999
v 0.033323 -0.005489 -0.021567
v -0.285143 0.178342 -0.149904
v -0.121227 0.096639 -0.117820
v -0.196160 0.133406 -0.181988
v -0.083760 0.074171 -0.176641
v -0.327293 0.200811 -0.091083
v -0.144643 0.108895 -0.058999
v -0.285143 0.178342 -0.149904
v -0.121227 0.096639 -0.117820
v -0.144643 0.108895 -0.058999
v 0.033323 -0.005489 -0.021567
v -0.121227 0.096639 -0.117820
v 0.033323 -0.005489 -0.091083
v -0.121227 0.096639 -0.117820
v 0.033323 -0.005489 -0.091083
v -0.083760 0.074171 -0.176641
v 0.000540 0.019022 -0.144557
v -0.055660 0.219194 -0.385188
v -0.097810 0.119108 -0.208725
v 0.019273 0.245747 -0.395882
v -0.027560 0.131363 -0.203378
v -0.125910 0.164044 -0.310325
v -0.172743 0.092554 -0.203378
v -0.055660 0.219194 -0.385188
v -0.097810 0.119108 -0.208725
v -0.172743 0.092554 -0.203378
v -0.177427 0.025149 -0.107125
v -0.097810 0.119108 -0.208725
v -0.139960 -0.003447 -0.048304
v -0.097810 0.119108 -0.208725
v -0.139960 -0.003447 -0.048304
v -0.027560 0.131363 -0.203378
v -0.074394 -0.005489 -0.021567
v 0.080156 0.208981 -0.358451
v 0.038006 0.108895 -0.181988
v 0.108256 0.147704 -0.262199
v 0.098889 0.074171 -0.149904
v 0.019273 0.245747 -0.395882
v -0.027560 0.131363 -0.203378
v 0.080156 0.208981 -0.358451
v 0.038006 0.108895 -0.181988
v -0.027560 0.131363 -0.203378
v -0.074394 -0.005489 -0.021567
v 0.038006 0.108895 -0.181988
v -0.004144 -0.013659 -0.021567
v 0.038006 0.108895 -0.181988
v -0.004144 -0.013659 -0.021567
v 0.098889 0.074171 -0.149904
v 0.056740 0.008809 -0.058999
v 0.220656 0.137491 -0.176641
v 0.061423 0.076214 -0.139209
v 0.267489 0.155874 -0.128515
v 0.084840 0.086427 -0.080388
v 0.131673 0.102767 -0.198030
v 0.023956 0.057831 -0.187336
v 0.220656 0.137491 -0.176641
v 0.061423 0.076214 -0.139209
v 0.023956 0.057831 -0.187336
v -0.060344 0.014937 -0.155251
v 0.061423 0.076214 -0.139209
v -0.088444 -0.003447 -0.101778
v 0.061423 0.076214 -0.139209
v -0.088444 -0.003447 -0.101778
v 0.084840 0.086427 -0.080388
v -0.083760 -0.005489 -0.037610
v 0.253439 0.127278 -0.064346
v 0.094206 0.068043 -0.021567
v 0.187873 0.086427 -0.000178
v 0.089523 0.039447 0.037253
v 0.267489 0.155874 -0.128515
v 0.084840 0.086427 -0.080388
v 0.253439 0.127278 -0.064346
v 0.094206 0.068043 -0.021567
v 0.084840 0.086427 -0.080388
v -0.083760 -0.005489 -0.037610
v 0.094206 0.068043 -0.021567
v -0.055660 -0.013659 0.015864
v 0.094206 0.068043 -0.021567
v -0.055660 -0.013659 0.015864
v 0.089523 0.039447 0.037253
v -0.004144 -0.001404 0.047948
v 0.014590 0.112980 0.256495
v 0.005223 0.057831 0.133506
v -0.032244 0.135448 0.283232
v -0.041610 0.072129 0.138853
v 0.042690 0.076214 0.197674
v 0.047373 0.035362 0.112117
v 0.014590 0.112980 0.256495
v 0.005223 0.057831 0.133506
v 0.047373 0.035362 0.112117
v 0.028640 -0.001404 0.047948
v 0.005223 0.057831 0.133506
v -0.008827 -0.013659 0.015864
v 0.005223 0.057831 0.133506
v -0.008827 -0.013659 0.015864
v -0.041610 0.072129 0.138853
v -0.055660 -0.007532 0.010517
v -0.079077 0.119108 0.261843
v -0.088444 0.063958 0.138853
v -0.121227 0.086427 0.203022
v -0.135277 0.047618 0.122811
v -0.032244 0.135448 0.283232
v -0.041610 0.072129 0.138853
v -0.079077 0.119108 0.261843
v -0.088444 0.063958 0.138853
v -0.041610 0.072129 0.138853
v -0.055660 -0.007532 0.010517
v -0.088444 0.063958 0.138853
v -0.097810 -0.007532 0.021211
v -0.088444 0.063958 0.138853
v -0.097810 -0.007532 0.021211
v -0.135277 0.047618 0.122811
v -0.130593 0.008809 0.053296
vt 0.102815 0.106604
vt 0.105143 0.105758
vt 0.101227 0.108054
vt 0.104931 0.107208
vt 0.105143 0.105758
vt 0.107154 0.105758
vt 0.104931 0.107208
vt 0.108423 0.106604
vt 0.106307 0.104308
vt 0.106519 0.101408
vt 0.107365 0.104187
vt 0.107577 0.101046
vt 0.101862 0.110833
vt 0.105566 0.110108
vt 0.103873 0.111437
vt 0.106413 0.111316
vt 0.104931 0.107208
vt 0.105143 0.108658
vt 0.101227 0.108054
vt 0.100910 0.109504
vt 0.108423 0.106604
vt 0.109058 0.107933
vt 0.104931 0.107208
vt 0.105143 0.108658
vt 0.105566 0.110108
vt 0.109058 0.109383
vt 0.106413 0.111316
vt 0.108318 0.110591
vt 0.109693 0.110471
vt 0.110328 0.109262
vt 0.113397 0.111437
vt 0.114350 0.110229
vt 0.105460 0.114458
vt 0.104402 0.111920
vt 0.107048 0.116029
vt 0.106095 0.112162
vt 0.104402 0.111920
vt 0.104296 0.109866
vt 0.106095 0.112162
vt 0.105249 0.108537
vt 0.106307 0.109625
vt 0.106413 0.108296
vt 0.109693 0.110471
vt 0.110328 0.109262
vt 0.110117 0.115424
vt 0.109164 0.111558
vt 0.110752 0.113370
vt 0.110540 0.110712
vt 0.106095 0.112162
vt 0.107683 0.112041
vt 0.107048 0.116029
vt 0.108741 0.116391
vt 0.105249 0.108537
vt 0.106730 0.107933
vt 0.106095 0.112162
vt 0.107683 0.112041
vt 0.109164 0.111558
vt 0.108318 0.107933
vt 0.110540 0.110712
vt 0.109693 0.108779
vt 0.110434 0.107812
vt 0.114032 0.108779
vt 0.110328 0.109262
vt 0.114350 0.110229
vt 0.111281 0.111920
vt 0.108847 0.111679
vt 0.113397 0.111437
vt 0.109693 0.110471
vt 0.108847 0.111679
vt 0.106942 0.110833
vt 0.109693 0.110471
vt 0.106307 0.109625
vt 0.109058 0.109383
vt 0.105566 0.110108
vt 0.109058 0.107933
vt 0.105143 0.108658
vt 0.114032 0.108779
vt 0.110434 0.107812
vt 0.112551 0.107450
vt 0.110328 0.106483
vt 0.105566 0.110108
vt 0.101862 0.110833
vt 0.105143 0.108658
vt 0.100910 0.109504
vt 0.108318 0.107933
vt 0.109164 0.111558
vt 0.106730 0.107933
vt 0.107683 0.112041
vt 0.110434 0.107812
vt 0.107048 0.107087
vt 0.110328 0.106483
vt 0.108212 0.106362
vt 0.109164 0.111558
vt 0.110117 0.115424
vt 0.107683 0.112041
vt 0.108741 0.116391
vt 0.109270 0.102979
vt 0.109376 0.104792
vt 0.108635 0.101529
vt 0.108423 0.104429
vt 0.109376 0.104792
vt 0.108953 0.106362
vt 0.108423 0.104429
vt 0.108212 0.107087
vt 0.106095 0.106966
vt 0.106307 0.104308
vt 0.107154 0.107208
vt 0.107365 0.104187
vt 0.106519 0.101408
vt 0.106307 0.104308
vt 0.105672 0.102858
vt 0.105249 0.104671
vt 0.108423 0.104429
vt 0.107365 0.104187
vt 0.108635 0.101529
vt 0.107577 0.101046
vt 0.107048 0.107087
vt 0.110434 0.107812
vt 0.106413 0.108296
vt 0.110328 0.109262
vt 0.106307 0.104308
vt 0.106095 0.106966
vt 0.105249 0.104671
vt 0.105355 0.106121
vt 0.108212 0.107087
vt 0.107154 0.107208
vt 0.108423 0.104429
vt 0.107365 0.104187
vn 0.400073 0.872719 0.279827
vn 0.383993 0.870909 0.306702
vn 0.383993 0.870909 0.306702
vn 0.383993 0.870909 0.306702
vn 0.367535 0.868243 0.333275
vn 0.383993 0.870909 0.306702
vn 0.504320 0.813716 0.289010
vn 0.485979 0.814174 0.317718
vn 0.485979 0.814174 0.317718
vn 0.485979 0.814174 0.317718
vn 0.467075 0.813687 0.346057
vn 0.485979 0.814174 0.317718
vn -0.146987 0.907983 -0.392379
vn -0.146987 0.907983 -0.392379
vn -0.146987 0.907983 -0.392379
vn -0.146987 0.907983 -0.392379
vn -0.146987 0.907983 -0.392379
vn -0.146987 0.907983 -0.392379
vn 0.447725 0.894109 -0.010541
vn 0.457605 0.888801 -0.025119
vn 0.457605 0.888801 -0.025119
vn 0.457605 0.888801 -0.025119
vn 0.467330 0.883192 -0.039689
vn 0.457605 0.888801 -0.025119
vn 0.376735 0.869959 0.318187
vn 0.376735 0.869959 0.318187
vn 0.376735 0.869959 0.318187
vn 0.376735 0.869959 0.318187
vn 0.376735 0.869959 0.318187
vn 0.376735 0.869959 0.318187
vn 0.470037 0.822854 0.319338
vn 0.470037 0.822854 0.319338
vn 0.470037 0.822854 0.319338
vn 0.470037 0.822854 0.319338
vn 0.470037 0.822854 0.319338
vn 0.470037 0.822854 0.319338
vn 0.547542 0.836264 0.029328
vn 0.538578 0.841304 0.046286
vn 0.538578 0.841304 0.046286
vn 0.538578 0.841304 0.046286
vn 0.529402 0.846012 0.063226
vn 0.538578 0.841304 0.046286
vn -0.360050 0.932840 -0.013151
vn -0.360050 0.932840 -0.013151
vn -0.360050 0.932840 -0.013151
vn -0.360050 0.932840 -0.013151
vn -0.360050 0.932840 -0.013151
vn -0.360050 0.932840 -0.013151
vn -0.115636 0.848438 0.516509
vn -0.196442 0.859382 0.472095
vn -0.196442 0.859382 0.472095
vn -0.196442 0.859382 0.472095
vn -0.275555 0.862916 0.423609
vn -0.196442 0.859382 0.472095
vn -0.244310 0.799843 0.548237
vn -0.245699 0.800039 0.547330
vn -0.245699 0.800039 0.547330
vn -0.245699 0.800039 0.547330
vn -0.247087 0.800232 0.546421
vn -0.245699 0.800039 0.547330
vn -0.464055 0.884496 0.048159
vn -0.464055 0.884496 0.048159
vn -0.464055 0.884496 0.048159
vn -0.464055 0.884496 0.048159
vn -0.464055 0.884496 0.048159
vn -0.464055 0.884496 0.048159
vn 0.111572 0.852728 0.510300
vn 0.144024 0.835449 0.530361
vn 0.144024 0.835449 0.530361
vn 0.144024 0.835449 0.530361
vn 0.176223 0.816703 0.549492
vn 0.144024 0.835449 0.530361
vn -0.213334 0.866385 0.451514
vn -0.213334 0.866385 0.451514
vn -0.213334 0.866385 0.451514
vn -0.213334 0.866385 0.451514
vn -0.213334 0.866385 0.451514
vn -0.213334 0.866385 0.451514
vn -0.193469 0.805343 0.560350
vn -0.193469 0.805343 0.560350
vn -0.193469 0.805343 0.560350
vn -0.193469 0.805343 0.560350
vn -0.193469 0.805343 0.560350
vn -0.193469 0.805343 0.560350
vn 0.114155 0.774754 0.621872
vn 0.097498 0.783098 0.614208
vn 0.097498 0.783098 0.614208
vn 0.097498 0.783098 0.614208
vn 0.080800 0.791124 0.606296
vn 0.097498 0.783098 0.614208
vn -0.251237 0.907050 0.337846
vn -0.251237 0.907050 0.337846
vn -0.251237 0.907050 0.337846
vn -0.251237 0.907050 0.337846
vn -0.251237 0.907050 0.337846
vn -0.251237 0.907050 0.337846
vn -0.377780 0.922995 0.073225
vn -0.375571 0.926783 0.004373
vn -0.375571 0.926783 0.004373
vn -0.375571 0.926783 0.004373
vn -0.371574 0.926160 -0.064500
vn -0.375571 0.926783 0.004373
vn -0.450527 0.892710 0.009743
vn -0.453174 0.890619 0.037823
vn -0.453174 0.890619 0.037823
vn -0.453174 0.890619 0.037823
vn -0.455459 0.887816 0.065873
vn -0.453174 0.890619 0.037823
vn 0.543288 0.839273 0.021427
vn 0.543288 0.839273 0.021427
vn 0.543288 0.839273 0.021427
vn 0.543288 0.839273 0.021427
vn 0.543288 0.839273 0.021427
vn 0.543288 0.839273 0.021427
vn -0.252686 0.912203 0.322544
vn -0.258718 0.894770 0.363940
vn -0.258718 0.894770 0.363940
vn -0.258718 0.894770 0.363940
vn -0.264218 0.875498 0.404589
vn -0.258718 0.894770 0.363940
vn 0.449764 0.893052 -0.013059
vn 0.449764 0.893052 -0.013059
vn 0.449764 0.893052 -0.013059
vn 0.449764 0.893052 -0.013059
vn 0.449764 0.893052 -0.013059
vn 0.449764 0.893052 -0.013059
vn 0.079360 0.784253 0.615345
vn 0.079360 0.784253 0.615345
vn 0.079360 0.784253 0.615345
vn 0.079360 0.784253 0.615345
vn 0.079360 0.784253 0.615345
vn 0.079360 0.784253 0.615345
vn -0.366581 0.847889 0.383017
vn -0.366606 0.876025 0.313337
vn -0.366606 0.876025 0.313337
vn -0.366606 0.876025 0.313337
vn -0.364562 0.899214 0.241887
vn -0.366606 0.876025 0.313337
vn 0.150989 0.838636 0.523346
vn 0.150989 0.838636 0.523346
vn 0.150989 0.838636 0.523346
vn 0.150989 0.838636 0.523346
vn 0.150989 0.838636 0.523346
vn 0.150989 0.838636 0.523346
vn 0.302333 0.866509 -0.397185
vn 0.279832 0.870662 -0.404527
vn 0.279832 0.870662 -0.404527
vn 0.279832 0.870662 -0.404527
vn 0.257169 0.874312 -0.411635
vn 0.279832 0.870662 -0.404527
vn 0.175422 0.831252 -0.527492
vn 0.177189 0.831204 -0.526976
vn 0.177189 0.831204 -0.526976
vn 0.177189 0.831204 -0.526976
vn 0.178954 0.831154 -0.526458
vn 0.177189 0.831204 -0.526976
vn -0.139207 0.849569 -0.508777
vn -0.139207 0.849569 -0.508777
vn -0.139207 0.849569 -0.508777
vn -0.139207 0.849569 -0.508777
vn -0.139207 0.849569 -0.508777
vn -0.139207 0.849569 -0.508777
vn -0.151677 0.906168 -0.394782
vn -0.163344 0.902138 -0.399332
vn -0.163344 0.902138 -0.399332
vn -0.163344 0.902138 -0.399332
vn -0.174984 0.897951 -0.403813
vn -0.163344 0.902138 -0.399332
vn 0.210014 0.888157 -0.408743
vn 0.210014 0.888157 -0.408743
vn 0.210014 0.888157 -0.408743
vn 0.210014 0.888157 -0.408743
vn 0.210014 0.888157 -0.408743
vn 0.210014 0.888157 -0.408743
vn -0.385665 0.860790 0.332119
vn -0.385665 0.860790 0.332119
vn -0.385665 0.860790 0.332119
vn -0.385665 0.860790 0.332119
vn -0.385665 0.860790 0.332119
vn -0.385665 0.860790 0.332119
vn -0.123339 0.852382 -0.508166
vn -0.084088 0.862429 -0.499144
vn -0.084088 0.862429 -0.499144
vn -0.084088 0.862429 -0.499144
vn -0.044691 0.870990 -0.489263
vn -0.084088 0.862429 -0.499144
vn 0.180027 0.828901 -0.529636
vn 0.180027 0.828901 -0.529636
vn 0.180027 0.828901 -0.529636
vn 0.180027 0.828901 -0.529636
vn 0.180027 0.828901 -0.529636
vn 0.180027 0.828901 -0.529636
s off
g grass_01
usemtl grass_00:samor_4024_468SG
f 5/1/1 6/2/2 7/3/3
f 6/2/4 8/4/5 7/3/6
f 9/5/7 10/6/8 11/7/9
f 10/6/10 12/8/11 11/7/12
f 120/9/13 119/10/14 118/11/15
f 118/11/16 119/10/17 117/12/18
f 17/13/19 18/14/20 19/15/21
f 18/14/22 20/16/23 19/15/24
f 2/17/25 4/18/26 1/19/27
f 1/19/28 4/18/29 3/20/30
f 14/21/31 16/22/32 13/23/33
f 13/23/34 16/22/35 15/24/36
f 29/25/37 30/26/38 31/27/39
f 30/26/40 32/28/41 31/27/42
f 66/29/43 68/30/44 65/31/45
f 65/31/46 68/30/47 67/32/48
f 37/33/49 38/34/50 39/35/51
f 38/34/52 40/36/53 39/35/54
f 41/37/55 42/38/56 43/39/57
f 42/38/58 44/40/59 43/39/60
f 78/41/61 80/42/62 77/43/63
f 77/43/64 80/42/65 79/44/66
f 49/45/67 50/46/68 51/47/69
f 50/46/70 52/48/71 51/47/72
f 34/49/73 36/50/74 33/51/75
f 33/51/76 36/50/77 35/52/78
f 46/53/79 48/54/80 45/55/81
f 45/55/82 48/54/83 47/56/84
f 61/57/85 62/58/86 63/59/87
f 62/58/88 64/60/89 63/59/90
f 88/61/91 87/62/92 86/63/93
f 86/63/94 87/62/95 85/64/96
f 69/65/97 70/66/98 71/67/99
f 70/66/100 72/68/101 71/67/102
f 73/69/103 74/70/104 75/71/105
f 74/70/106 76/72/107 75/71/108
f 28/73/109 27/74/110 26/75/111
f 26/75/112 27/74/113 25/76/114
f 81/77/115 82/78/116 83/79/117
f 82/78/118 84/80/119 83/79/120
f 24/81/121 23/82/122 22/83/123
f 22/83/124 23/82/125 21/84/126
f 60/85/127 59/86/128 58/87/129
f 58/87/130 59/86/131 57/88/132
f 93/89/133 94/90/134 95/91/135
f 94/90/136 96/92/137 95/91/138
f 56/93/139 55/94/140 54/95/141
f 54/95/142 55/94/143 53/96/144
f 101/97/145 102/98/146 103/99/147
f 102/98/148 104/100/149 103/99/150
f 105/101/151 106/102/152 107/103/153
f 106/102/154 108/104/155 107/103/156
f 124/105/157 123/106/158 122/107/159
f 122/107/160 123/106/161 121/108/162
f 113/109/163 114/110/164 115/111/165
f 114/110/166 116/112/167 115/111/168
f 98/113/169 100/114/170 97/115/171
f 97/115/172 100/114/173 99/116/174
f 92/117/175 91/118/176 90/119/177
f 90/119/178 91/118/179 89/120/180
f 125/121/181 126/122/182 127/123/183
f 126/122/184 128/124/185 127/123/186
f 110/125/187 112/126/188 109/127/189
f 109/127/190 112/126/191 111/128/192
