# This file uses centimeters as units for non-parametric coordinates.

mtllib lake_road.mtl
g default
v -0.480462 -0.168112 0.350495
v 0.519538 -0.168112 0.350495
v -0.480462 -0.168112 -0.649505
v 0.519538 -0.168112 -0.649505
v 0.465123 0.038135 0.350495
v 0.519538 -0.064978 0.350495
v 0.519538 -0.064978 -0.649505
v 0.465123 0.038135 -0.649505
v -0.480462 -0.064978 0.350495
v -0.426046 0.038135 0.350495
v -0.480462 -0.064978 -0.649505
v -0.426046 0.038135 -0.649505
vt 0.375000 0.000000
vt 0.625000 0.000000
vt 0.375000 0.125013
vt 0.625000 0.125013
vt 0.599222 0.250000
vt 0.400778 0.250000
vt 0.400778 0.500000
vt 0.599222 0.500000
vt 0.375000 0.750000
vt 0.625000 0.750000
vt 0.375000 1.000000
vt 0.625000 1.000000
vt 0.875000 0.000000
vt 0.875000 0.125013
vt 0.125000 0.000000
vt 0.125000 0.125013
vt 0.625000 0.624987
vt 0.375000 0.624987
vn 0.000000 0.000000 1.000000
vn 0.000000 0.000000 1.000000
vn 0.000000 0.000000 1.000000
vn 0.000000 0.000000 1.000000
vn 0.000000 0.000000 1.000000
vn 0.000000 0.000000 1.000000
vn 0.000000 0.000000 1.000000
vn 0.000000 0.000000 1.000000
vn 0.000000 0.000000 1.000000
vn 0.000000 0.000000 1.000000
vn 0.000000 0.000000 1.000000
vn 0.000000 0.000000 1.000000
vn 0.000000 1.000000 0.000000
vn 0.000000 1.000000 0.000000
vn 0.000000 1.000000 0.000000
vn 0.000000 1.000000 0.000000
vn 0.000000 1.000000 0.000000
vn 0.000000 1.000000 0.000000
vn 0.000000 -1.000000 0.000000
vn 0.000000 -1.000000 0.000000
vn 0.000000 -1.000000 0.000000
vn 0.000000 -1.000000 0.000000
vn 0.000000 -1.000000 0.000000
vn 0.000000 -1.000000 0.000000
vn 1.000000 0.000000 0.000000
vn 1.000000 0.000000 0.000000
vn 1.000000 0.000000 0.000000
vn 1.000000 0.000000 0.000000
vn 1.000000 0.000000 0.000000
vn 1.000000 0.000000 0.000000
vn -1.000000 0.000000 0.000000
vn -1.000000 0.000000 0.000000
vn -1.000000 0.000000 0.000000
vn -1.000000 0.000000 0.000000
vn -1.000000 0.000000 0.000000
vn -1.000000 0.000000 0.000000
vn 0.884403 0.466723 0.000000
vn 0.884403 0.466723 0.000000
vn 0.884403 0.466723 0.000000
vn 0.884403 0.466723 0.000000
vn 0.884403 0.466723 0.000000
vn 0.884403 0.466723 0.000000
vn 0.000000 0.000000 -1.000000
vn 0.000000 0.000000 -1.000000
vn 0.000000 0.000000 -1.000000
vn 0.000000 0.000000 -1.000000
vn 0.000000 0.000000 -1.000000
vn 0.000000 0.000000 -1.000000
vn 0.000000 0.000000 -1.000000
vn 0.000000 0.000000 -1.000000
vn 0.000000 0.000000 -1.000000
vn 0.000000 0.000000 -1.000000
vn 0.000000 0.000000 -1.000000
vn 0.000000 0.000000 -1.000000
vn -0.884403 0.466723 0.000000
vn -0.884403 0.466723 0.000000
vn -0.884403 0.466723 0.000000
vn -0.884403 0.466723 0.000000
vn -0.884403 0.466723 0.000000
vn -0.884403 0.466723 0.000000
s off
g lake_road:pCube6
usemtl lake_road:lambert2SG
f 1/1/1 2/2/2 9/3/3
f 2/2/4 6/4/5 9/3/6
f 6/4/7 5/5/8 9/3/9
f 5/5/10 10/6/11 9/3/12
f 12/7/13 10/6/14 8/8/15
f 8/8/16 10/6/17 5/5/18
f 3/9/19 4/10/20 1/11/21
f 1/11/22 4/10/23 2/12/24
f 2/2/25 4/13/26 6/4/27
f 6/4/28 4/13/29 7/14/30
f 3/15/31 1/1/32 11/16/33
f 11/16/34 1/1/35 9/3/36
f 5/5/37 6/4/38 8/8/39
f 8/8/40 6/4/41 7/17/42
f 4/10/43 3/9/44 7/17/45
f 3/9/46 11/18/47 7/17/48
f 11/18/49 12/7/50 7/17/51
f 12/7/52 8/8/53 7/17/54
f 9/3/55 10/6/56 11/18/57
f 11/18/58 10/6/59 12/7/60
