# This file uses centimeters as units for non-parametric coordinates.

mtllib land_01.mtl
g default
v -1.429034 -0.109861 0.681838
v 1.429034 -0.109861 0.861298
v -1.384302 -0.109861 -0.827033
v 1.429034 -0.109861 -0.827033
v -1.429034 0.000011 0.681838
v -1.364702 0.109861 0.617507
v 1.364702 0.109861 0.796966
v 1.429034 0.000011 0.861298
v -1.319971 0.109861 -0.762700
v -1.384302 0.000011 -0.827033
v 1.364702 0.109861 -0.762700
v 1.429034 0.000011 -0.827033
v 0.000000 -0.109861 -0.115405
v 0.000000 -0.109861 -0.959570
v 1.673933 -0.109861 0.017133
v 0.000000 -0.109861 0.728760
v -1.614156 -0.109861 0.017133
v -1.582827 0.053506 0.017133
v -1.396868 0.054936 0.649672
v -1.549824 0.109861 0.017133
v -1.352136 0.054936 -0.794866
v -1.614156 0.000011 0.017133
v 0.000000 0.054100 0.697084
v 0.000000 0.000011 0.728760
v 1.396868 0.054936 0.829132
v 0.000000 0.109861 0.664429
v 1.642604 0.053506 0.017133
v 1.673933 0.000011 0.017133
v 1.396868 0.054936 -0.794866
v 1.609601 0.109861 0.017133
v 0.000000 0.054100 -0.927893
v 0.000000 0.109861 -0.895237
v 0.000000 0.000011 -0.959570
v 0.000000 -0.054925 0.728760
v 1.429034 -0.054925 0.861298
v -1.429034 -0.054925 0.681838
v 0.000000 0.109861 -0.115404
v 0.000000 -0.054925 -0.959570
v 1.429034 -0.054925 -0.827033
v -1.384302 -0.054925 -0.827033
v 1.673933 -0.054925 0.017133
v -1.614156 -0.054925 0.017133
v 0.740484 0.109861 0.792408
v 0.683840 0.000011 -0.840082
v 0.632868 -0.109861 -0.844809
v 0.638763 -0.109861 0.844068
v 0.635815 -0.109861 -0.000370
v 0.689735 0.000011 0.848795
v 0.714921 0.054528 0.820731
v 0.735038 0.109861 -0.767787
v 0.709247 0.054525 -0.804286
v 0.664249 -0.054925 0.846432
v 0.737761 0.109861 0.012310
v 0.658354 -0.054925 -0.842446
v -1.171254 -0.109861 0.837390
v -1.305162 -0.109861 -0.838521
v -1.130516 0.000011 0.833611
v -1.218170 0.109861 -0.776931
v -1.238208 -0.109861 -0.000566
v -1.094509 0.109861 0.770725
v -1.112569 0.054766 0.802257
v -1.264425 0.000011 -0.842299
v -1.241337 0.054843 -0.809678
v -1.150885 -0.054925 0.835500
v -1.156340 0.109861 -0.003103
v -1.284794 -0.054925 -0.840410
vt 0.081443 0.857465
vt 0.081443 0.809164
vt 0.134878 0.857465
vt 0.116130 0.809164
vt 0.081443 0.179030
vt 0.090450 0.236875
vt 0.081443 0.394035
vt 0.090216 0.394035
vt 0.413772 0.294720
vt 0.235696 0.294720
vt 0.481605 0.235995
vt 0.170060 0.236696
vt 0.902657 0.394035
vt 0.902656 0.294720
vt 0.910726 0.394035
vt 0.910521 0.236875
vt 0.481605 0.609040
vt 0.127537 0.609040
vt 0.481605 0.552075
vt 0.134002 0.551293
vt 0.081443 0.071512
vt 0.153627 0.071512
vt 0.081443 0.125271
vt 0.159331 0.125271
vt 0.099457 0.394035
vt 0.099457 0.294720
vt 0.225636 0.394035
vt 0.081443 0.662799
vt 0.081443 0.609040
vt 0.121833 0.662799
vt 0.918386 0.125271
vt 0.918386 0.071512
vt 1.267788 0.125271
vt 1.267788 0.071512
vt -0.718880 0.125271
vt -0.718880 0.071512
vt -0.318719 0.125271
vt -0.318719 0.071512
vt 0.481605 0.809164
vt 0.723721 0.809164
vt 0.481605 0.857465
vt 0.724442 0.857465
vt 0.918386 0.857465
vt 0.918386 0.964972
vt 0.725162 0.964972
vt 0.153627 0.964972
vt 0.481605 0.964972
vt 0.099457 0.493350
vt 0.090450 0.551195
vt 0.165035 0.179030
vt 0.481605 0.179030
vt 0.737625 0.179030
vt 0.743783 0.236446
vt 0.750033 0.294720
vt 0.918386 0.179030
vt 0.918386 0.394035
vt 0.918386 0.609040
vt 0.910521 0.551195
vt 0.902657 0.493350
vt 0.140489 0.493350
vt 0.748702 0.493350
vt 0.742396 0.551628
vt 0.481605 0.493350
vt 0.736184 0.609040
vt 0.481605 0.071512
vt 0.725162 0.071512
vt 0.481605 0.125271
vt 0.731394 0.125271
vt 0.749367 0.394035
vt 0.413772 0.394035
vt 0.729952 0.662799
vt 0.481605 0.662799
vt 0.918386 0.662799
vt 0.918386 0.809164
vt 1.617191 0.071512
vt 1.617191 0.125271
vt 1.617191 0.179030
vt 1.267788 0.179030
vt -0.318719 0.179030
vt -0.718880 0.179030
vt 0.081443 0.964972
vn 0.000000 -1.000000 0.000000
vn 0.000000 -1.000000 0.000000
vn 0.000000 -1.000000 0.000000
vn 0.000000 -1.000000 0.000000
vn 0.000000 -1.000000 0.000000
vn 0.000000 -1.000000 0.000000
vn -0.781305 0.584992 0.217595
vn -0.799852 0.555818 0.226500
vn -0.815476 0.529306 0.234169
vn -0.815476 0.529306 0.234169
vn -0.799852 0.555818 0.226500
vn -0.836644 0.489972 0.244856
vn 0.083512 0.503585 0.859900
vn -0.028293 0.525308 0.850442
vn 0.083385 0.493046 0.865998
vn 0.083385 0.493046 0.865998
vn -0.028293 0.525308 0.850442
vn -0.028536 0.503542 0.863499
vn 0.832875 0.487758 0.261556
vn 0.791624 0.561238 0.241546
vn 0.814433 0.522451 0.252477
vn 0.814433 0.522451 0.252477
vn 0.791624 0.561238 0.241546
vn 0.773466 0.589443 0.233037
vn -0.079777 0.503743 -0.860162
vn -0.082220 0.526602 -0.846127
vn -0.079803 0.513807 -0.854186
vn -0.079803 0.513807 -0.854186
vn -0.082220 0.526602 -0.846127
vn -0.082372 0.534942 -0.840864
vn -0.516651 0.000000 0.856196
vn -0.035289 0.014743 0.999268
vn -0.487950 0.146724 0.860451
vn -0.487950 0.146724 0.860451
vn -0.035289 0.014743 0.999268
vn -0.028688 0.044977 0.998576
vn 0.000000 1.000000 0.000000
vn 0.000000 1.000000 0.000000
vn 0.000000 1.000000 0.000000
vn 0.000000 1.000000 0.000000
vn 0.000000 1.000000 0.000000
vn 0.000000 1.000000 0.000000
vn -0.133239 0.000000 -0.991084
vn -0.126849 0.011760 -0.991852
vn -0.095404 0.000123 -0.995439
vn -0.095404 0.000123 -0.995439
vn -0.126849 0.011760 -0.991852
vn -0.095181 0.001060 -0.995459
vn 0.960402 0.000000 0.278620
vn 0.960402 0.000000 0.278620
vn 0.960402 0.000000 0.278620
vn 0.960402 0.000000 0.278620
vn 0.960402 0.000000 0.278620
vn 0.960402 0.000000 0.278620
vn -0.964872 0.000000 -0.262720
vn -0.964872 0.000000 -0.262720
vn -0.964872 0.000000 -0.262720
vn -0.964872 0.000000 -0.262720
vn -0.964872 0.000000 -0.262720
vn -0.964872 0.000000 -0.262720
vn 0.000000 -1.000000 0.000000
vn 0.000000 -1.000000 0.000000
vn 0.000000 -1.000000 0.000000
vn 0.000000 -1.000000 0.000000
vn 0.000000 -1.000000 0.000000
vn 0.000000 -1.000000 0.000000
vn 0.000000 -1.000000 0.000000
vn 0.000000 -1.000000 0.000000
vn 0.000000 -1.000000 0.000000
vn 0.000000 -1.000000 0.000000
vn 0.000000 -1.000000 0.000000
vn 0.000000 -1.000000 0.000000
vn 0.000000 -1.000000 0.000000
vn 0.000000 -1.000000 0.000000
vn 0.000000 -1.000000 0.000000
vn 0.000000 -1.000000 0.000000
vn 0.000000 -1.000000 0.000000
vn 0.000000 -1.000000 0.000000
vn -0.776580 0.587711 0.226977
vn -0.798072 0.553572 0.237990
vn -0.811743 0.530064 0.245164
vn -0.811743 0.530064 0.245164
vn -0.798072 0.553572 0.237990
vn -0.833901 0.488359 0.257129
vn -0.836288 0.489758 -0.246493
vn -0.797108 0.559023 -0.228281
vn -0.818717 0.522456 -0.238208
vn -0.818717 0.522456 -0.238208
vn -0.797108 0.559023 -0.228281
vn -0.779843 0.585845 -0.220524
vn -0.783427 0.583728 -0.213315
vn -0.821216 0.522361 -0.229660
vn -0.798419 0.560581 -0.219719
vn -0.798419 0.560581 -0.219719
vn -0.821216 0.522361 -0.229660
vn -0.838266 0.490922 -0.237289
vn -0.370271 0.621277 0.690590
vn -0.376147 0.573454 0.727780
vn -0.029392 0.524863 0.850679
vn -0.029392 0.524863 0.850679
vn -0.376147 0.573454 0.727780
vn -0.028734 0.503800 0.863343
vn -0.148508 0.499747 0.853345
vn -0.082001 0.493854 0.865670
vn -0.147906 0.502754 0.851682
vn -0.147906 0.502754 0.851682
vn -0.082001 0.493854 0.865670
vn -0.081147 0.485567 0.870425
vn -0.010963 0.500533 0.865648
vn -0.008768 0.479781 0.877345
vn -0.084738 0.494233 0.865190
vn -0.084738 0.494233 0.865190
vn -0.008768 0.479781 0.877345
vn -0.083447 0.484335 0.870894
vn 0.777325 0.587292 0.225508
vn 0.817177 0.522429 0.243494
vn 0.793105 0.562947 0.232539
vn 0.793105 0.562947 0.232539
vn 0.817177 0.522429 0.243494
vn 0.835092 0.489066 0.251863
vn 0.777324 0.587294 -0.225508
vn 0.793105 0.562948 -0.232539
vn 0.817178 0.522427 -0.243494
vn 0.817178 0.522427 -0.243494
vn 0.793105 0.562948 -0.232539
vn 0.835095 0.489062 -0.251864
vn 0.773466 0.589443 -0.233037
vn 0.791623 0.561238 -0.241546
vn 0.814433 0.522451 -0.252477
vn 0.814433 0.522451 -0.252477
vn 0.791623 0.561238 -0.241546
vn 0.832875 0.487758 -0.261556
vn -0.110246 0.549558 -0.828150
vn -0.115564 0.544299 -0.830893
vn -0.082391 0.535674 -0.840396
vn -0.082391 0.535674 -0.840396
vn -0.115564 0.544299 -0.830893
vn -0.083704 0.525919 -0.846406
vn 0.080556 0.512854 -0.854688
vn 0.083539 0.522334 -0.848639
vn 0.148417 0.497569 -0.854633
vn 0.148417 0.497569 -0.854633
vn 0.083539 0.522334 -0.848639
vn 0.148423 0.499758 -0.853354
vn 0.011474 0.510316 -0.859910
vn 0.013198 0.528464 -0.848853
vn 0.078071 0.513008 -0.854826
vn 0.078071 0.513008 -0.854826
vn 0.013198 0.528464 -0.848853
vn 0.081120 0.521877 -0.849155
vn -0.177645 0.000000 0.984095
vn -0.094099 -0.008575 0.995526
vn -0.175903 0.020468 0.984195
vn -0.175903 0.020468 0.984195
vn -0.094099 -0.008575 0.995526
vn -0.090602 0.007748 0.995857
vn -0.016909 0.000000 0.999857
vn -0.090599 0.007960 0.995856
vn -0.018163 -0.016913 0.999692
vn -0.018163 -0.016913 0.999692
vn -0.090599 0.007960 0.995856
vn -0.094098 -0.008341 0.995528
vn 0.092350 0.000000 0.995727
vn -0.028690 0.044976 0.998576
vn 0.092350 -0.000001 0.995727
vn 0.092350 -0.000001 0.995727
vn -0.028690 0.044976 0.998576
vn -0.035280 0.015163 0.999263
vn 0.000000 1.000000 0.000000
vn 0.000000 1.000000 0.000000
vn 0.000000 1.000000 0.000000
vn 0.000000 1.000000 0.000000
vn 0.000000 1.000000 0.000000
vn 0.000000 1.000000 0.000000
vn 0.000000 1.000000 0.000000
vn 0.000000 1.000000 0.000000
vn 0.000000 1.000000 0.000000
vn 0.000000 1.000000 0.000000
vn 0.000000 1.000000 0.000000
vn 0.000000 1.000000 0.000000
vn 0.000000 1.000000 0.000000
vn 0.000000 1.000000 0.000000
vn 0.000000 1.000000 0.000000
vn 0.000000 1.000000 0.000000
vn 0.000000 1.000000 0.000000
vn 0.000000 1.000000 0.000000
vn 0.090600 -0.007905 -0.995856
vn 0.094098 0.008399 -0.995528
vn 0.173540 -0.019537 -0.984633
vn 0.173540 -0.019537 -0.984633
vn 0.094098 0.008399 -0.995528
vn 0.175154 0.000000 -0.984541
vn 0.019996 0.000000 -0.999800
vn 0.021119 0.015802 -0.999652
vn 0.090602 -0.007710 -0.995857
vn 0.090602 -0.007710 -0.995857
vn 0.021119 0.015802 -0.999652
vn 0.094099 0.008619 -0.995526
vn -0.095407 0.000096 -0.995438
vn -0.095179 0.001054 -0.995460
vn -0.092350 -0.000002 -0.995727
vn -0.092350 -0.000002 -0.995727
vn -0.095179 0.001054 -0.995460
vn -0.092350 0.000000 -0.995727
vn 0.960402 0.000000 -0.278620
vn 0.960402 0.000000 -0.278620
vn 0.960402 0.000000 -0.278620
vn 0.960402 0.000000 -0.278620
vn 0.960402 0.000000 -0.278620
vn 0.960402 0.000000 -0.278620
vn 0.960402 0.000000 -0.278620
vn 0.960402 0.000000 -0.278620
vn 0.960402 0.000000 -0.278620
vn 0.960402 0.000000 -0.278620
vn 0.960402 0.000000 -0.278620
vn 0.960402 0.000000 -0.278620
vn 0.960402 0.000000 0.278620
vn 0.960402 0.000000 0.278620
vn 0.960402 0.000000 0.278620
vn 0.960402 0.000000 0.278620
vn 0.960402 0.000000 0.278620
vn 0.960402 0.000000 0.278620
vn -0.963338 0.000000 0.268291
vn -0.963338 0.000000 0.268291
vn -0.963338 0.000000 0.268291
vn -0.963338 0.000000 0.268291
vn -0.963338 0.000000 0.268291
vn -0.963338 0.000000 0.268291
vn -0.963338 0.000000 0.268291
vn -0.963338 0.000000 0.268291
vn -0.963338 0.000000 0.268291
vn -0.963338 0.000000 0.268291
vn -0.963338 0.000000 0.268291
vn -0.963338 0.000000 0.268291
vn -0.964872 0.000000 -0.262720
vn -0.964872 0.000000 -0.262720
vn -0.964872 0.000000 -0.262720
vn -0.964872 0.000000 -0.262720
vn -0.964872 0.000000 -0.262720
vn -0.964872 0.000000 -0.262720
vn 0.000000 -1.000000 0.000000
vn 0.000000 -1.000000 0.000000
vn 0.000000 -1.000000 0.000000
vn 0.000000 -1.000000 0.000000
vn 0.000000 -1.000000 0.000000
vn 0.000000 -1.000000 0.000000
vn 0.000000 -1.000000 0.000000
vn 0.000000 -1.000000 0.000000
vn 0.000000 -1.000000 0.000000
vn 0.000000 -1.000000 0.000000
vn 0.000000 -1.000000 0.000000
vn 0.000000 -1.000000 0.000000
vn -0.081147 0.485567 0.870425
vn -0.082001 0.493854 0.865670
vn -0.013071 0.481934 0.876110
vn -0.013071 0.481934 0.876110
vn -0.082001 0.493854 0.865670
vn -0.014654 0.498893 0.866540
vn -0.083447 0.484335 0.870894
vn -0.147515 0.501739 0.852348
vn -0.084738 0.494233 0.865190
vn -0.084738 0.494233 0.865190
vn -0.147515 0.501739 0.852348
vn -0.147900 0.499793 0.853424
vn 0.083539 0.522334 -0.848639
vn 0.080556 0.512854 -0.854688
vn 0.009359 0.530630 -0.847552
vn 0.009359 0.530630 -0.847552
vn 0.080556 0.512854 -0.854688
vn 0.006957 0.508373 -0.861109
vn 0.078071 0.513008 -0.854826
vn 0.081120 0.521877 -0.849155
vn 0.149079 0.496438 -0.855176
vn 0.149079 0.496438 -0.855176
vn 0.081120 0.521877 -0.849155
vn 0.149092 0.499705 -0.853268
vn -0.094099 -0.008575 0.995526
vn -0.020581 -0.016008 0.999660
vn -0.090602 0.007748 0.995857
vn -0.090602 0.007748 0.995857
vn -0.020581 -0.016008 0.999660
vn -0.019434 0.000000 0.999811
vn -0.090599 0.007960 0.995856
vn -0.172855 0.019274 0.984759
vn -0.094098 -0.008341 0.995528
vn -0.094098 -0.008341 0.995528
vn -0.172855 0.019274 0.984759
vn -0.174434 0.000000 0.984669
vn 0.000000 1.000000 0.000000
vn -0.000000 1.000000 -0.000000
vn 0.000000 1.000000 0.000000
vn 0.000000 1.000000 0.000000
vn -0.000000 1.000000 -0.000000
vn 0.000000 1.000000 0.000000
vn 0.000000 1.000000 0.000000
vn 0.000000 1.000000 0.000000
vn 0.000000 1.000000 0.000000
vn 0.000000 1.000000 0.000000
vn 0.000000 1.000000 0.000000
vn 0.000000 1.000000 0.000000
vn 0.094098 0.008399 -0.995528
vn 0.090600 -0.007905 -0.995856
vn 0.018737 0.016701 -0.999685
vn 0.018737 0.016701 -0.999685
vn 0.090600 -0.007905 -0.995856
vn 0.017508 0.000000 -0.999847
vn 0.090602 -0.007710 -0.995857
vn 0.094099 0.008619 -0.995526
vn 0.176640 -0.020767 -0.984056
vn 0.176640 -0.020767 -0.984056
vn 0.094099 0.008619 -0.995526
vn 0.178424 0.000000 -0.983954
vn 0.000000 -1.000000 0.000000
vn 0.000000 -1.000000 0.000000
vn 0.000000 -1.000000 0.000000
vn 0.000000 -1.000000 0.000000
vn 0.000000 -1.000000 0.000000
vn 0.000000 -1.000000 0.000000
vn -0.028536 0.503542 0.863499
vn -0.028293 0.525308 0.850442
vn -0.392116 0.573710 0.719098
vn -0.392116 0.573710 0.719098
vn -0.028293 0.525308 0.850442
vn -0.385504 0.623889 0.679816
vn -0.082372 0.534942 -0.840864
vn -0.082220 0.526602 -0.846127
vn -0.110285 0.542865 -0.832547
vn -0.110285 0.542865 -0.832547
vn -0.082220 0.526602 -0.846127
vn -0.105684 0.547885 -0.829851
vn -0.035289 0.014743 0.999268
vn 0.092350 0.000001 0.995727
vn -0.028688 0.044977 0.998576
vn -0.028688 0.044977 0.998576
vn 0.092350 0.000001 0.995727
vn 0.092350 0.000000 0.995727
vn 0.000000 1.000000 0.000000
vn 0.000000 1.000000 0.000000
vn 0.000000 1.000000 0.000000
vn 0.000000 1.000000 0.000000
vn 0.000000 1.000000 0.000000
vn 0.000000 1.000000 0.000000
vn -0.095404 0.000123 -0.995439
vn -0.095181 0.001060 -0.995459
vn -0.092350 0.000000 -0.995727
vn -0.092350 0.000000 -0.995727
vn -0.095181 0.001060 -0.995459
vn -0.092350 0.000000 -0.995727
vn 0.000000 -1.000000 0.000000
vn 0.000000 -1.000000 0.000000
vn 0.000000 -1.000000 0.000000
vn 0.000000 -1.000000 0.000000
vn 0.000000 -1.000000 0.000000
vn 0.000000 -1.000000 0.000000
vn -0.028734 0.503800 0.863343
vn 0.081489 0.493406 0.865973
vn -0.029392 0.524863 0.850679
vn -0.029392 0.524863 0.850679
vn 0.081489 0.493406 0.865973
vn 0.081602 0.503666 0.860036
vn -0.082391 0.535674 -0.840396
vn -0.083704 0.525919 -0.846406
vn -0.082256 0.514231 -0.853698
vn -0.082256 0.514231 -0.853698
vn -0.083704 0.525919 -0.846406
vn -0.083512 0.503590 -0.859897
vn -0.028690 0.044976 0.998576
vn -0.457983 0.137681 0.878234
vn -0.035280 0.015163 0.999263
vn -0.035280 0.015163 0.999263
vn -0.457983 0.137681 0.878234
vn -0.483561 0.000000 0.875311
vn 0.000000 1.000000 0.000000
vn 0.000000 1.000000 0.000000
vn 0.000000 1.000000 0.000000
vn 0.000000 1.000000 0.000000
vn 0.000000 1.000000 0.000000
vn 0.000000 1.000000 0.000000
vn -0.095179 0.001054 -0.995460
vn -0.095407 0.000096 -0.995438
vn -0.133833 0.014418 -0.990899
vn -0.133833 0.014418 -0.990899
vn -0.095407 0.000096 -0.995438
vn -0.143658 0.000000 -0.989627
s off
g land_01:land_01
usemtl land_01:lambert1SG
f 17/1/1 3/2/2 59/3/3
f 59/3/4 3/2/5 56/4/6
f 5/5/7 19/6/8 22/7/9
f 22/7/10 19/6/11 18/8/12
f 26/9/13 60/10/14 23/11/15
f 23/11/16 60/10/17 61/12/18
f 30/13/19 7/14/20 27/15/21
f 27/15/22 7/14/23 25/16/24
f 33/17/25 62/18/26 31/19/27
f 31/19/28 62/18/29 63/20/30
f 1/21/31 55/22/32 36/23/33
f 36/23/34 55/22/35 64/24/36
f 20/25/37 6/26/38 65/27/39
f 65/27/40 6/26/41 60/10/42
f 40/28/43 10/29/44 66/30/45
f 66/30/46 10/29/47 62/18/48
f 35/31/49 2/32/50 41/33/51
f 41/33/52 2/32/53 15/34/54
f 40/35/55 3/36/56 42/37/57
f 42/37/58 3/36/59 17/38/60
f 14/39/61 45/40/62 13/41/63
f 13/41/64 45/40/65 47/42/66
f 15/43/67 2/44/68 47/42/69
f 47/42/70 2/44/71 46/45/72
f 55/46/73 59/3/74 16/47/75
f 16/47/76 59/3/77 13/41/78
f 19/6/79 6/26/80 18/8/81
f 18/8/82 6/26/83 20/25/84
f 20/25/85 9/48/86 18/8/87
f 18/8/88 9/48/89 21/49/90
f 10/29/91 22/7/92 21/49/93
f 21/49/94 22/7/95 18/8/96
f 19/6/97 5/5/98 61/12/99
f 61/12/100 5/5/101 57/50/102
f 24/51/103 48/52/104 23/11/105
f 23/11/106 48/52/107 49/53/108
f 25/16/109 7/14/110 49/53/111
f 49/53/112 7/14/113 43/54/114
f 8/55/115 28/56/116 25/16/117
f 25/16/118 28/56/119 27/15/120
f 12/57/121 29/58/122 28/56/123
f 28/56/124 29/58/125 27/15/126
f 29/58/127 11/59/128 27/15/129
f 27/15/130 11/59/131 30/13/132
f 21/49/133 9/48/134 63/20/135
f 63/20/136 9/48/137 58/60/138
f 50/61/139 51/62/140 32/63/141
f 32/63/142 51/62/143 31/19/144
f 29/58/145 12/57/146 51/62/147
f 51/62/148 12/57/149 44/64/150
f 16/65/151 46/66/152 34/67/153
f 34/67/154 46/66/155 52/68/156
f 8/55/157 48/52/158 35/31/159
f 35/31/160 48/52/161 52/68/162
f 24/51/163 57/50/164 34/67/165
f 34/67/166 57/50/167 64/24/168
f 43/54/169 53/69/170 26/9/171
f 26/9/172 53/69/173 37/70/174
f 30/13/175 11/59/176 53/69/177
f 53/69/178 11/59/179 50/61/180
f 32/63/181 58/60/182 37/70/183
f 37/70/184 58/60/185 65/27/186
f 44/64/187 54/71/188 33/17/189
f 33/17/190 54/71/191 38/72/192
f 39/73/193 4/74/194 54/71/195
f 54/71/196 4/74/197 45/40/198
f 56/4/199 66/30/200 14/39/201
f 14/39/202 66/30/203 38/72/204
f 15/34/205 4/75/206 41/33/207
f 41/33/208 4/75/209 39/76/210
f 39/76/211 12/77/212 41/33/213
f 41/33/214 12/77/215 28/78/216
f 28/78/217 8/55/218 41/33/219
f 41/33/220 8/55/221 35/31/222
f 17/38/223 1/21/224 42/37/225
f 42/37/226 1/21/227 36/23/228
f 36/23/229 5/5/230 42/37/231
f 42/37/232 5/5/233 22/79/234
f 22/79/235 10/80/236 42/37/237
f 42/37/238 10/80/239 40/35/240
f 45/40/241 4/74/242 47/42/243
f 47/42/244 4/74/245 15/43/246
f 46/45/247 16/47/248 47/42/249
f 47/42/250 16/47/251 13/41/252
f 49/53/253 48/52/254 25/16/255
f 25/16/256 48/52/257 8/55/258
f 43/54/259 26/9/260 49/53/261
f 49/53/262 26/9/263 23/11/264
f 51/62/265 50/61/266 29/58/267
f 29/58/268 50/61/269 11/59/270
f 51/62/271 44/64/272 31/19/273
f 31/19/274 44/64/275 33/17/276
f 46/66/277 2/32/278 52/68/279
f 52/68/280 2/32/281 35/31/282
f 48/52/283 24/51/284 52/68/285
f 52/68/286 24/51/287 34/67/288
f 43/54/289 7/14/290 53/69/291
f 53/69/292 7/14/293 30/13/294
f 53/69/295 50/61/296 37/70/297
f 37/70/298 50/61/299 32/63/300
f 54/71/301 44/64/302 39/73/303
f 39/73/304 44/64/305 12/57/306
f 54/71/307 45/40/308 38/72/309
f 38/72/310 45/40/311 14/39/312
f 59/3/313 56/4/314 13/41/315
f 13/41/316 56/4/317 14/39/318
f 61/12/319 60/10/320 19/6/321
f 19/6/322 60/10/323 6/26/324
f 63/20/325 62/18/326 21/49/327
f 21/49/328 62/18/329 10/29/330
f 55/22/331 16/65/332 64/24/333
f 64/24/334 16/65/335 34/67/336
f 60/10/337 26/9/338 65/27/339
f 65/27/340 26/9/341 37/70/342
f 66/30/343 62/18/344 38/72/345
f 38/72/346 62/18/347 33/17/348
f 55/46/349 1/81/350 59/3/351
f 59/3/352 1/81/353 17/1/354
f 57/50/355 24/51/356 61/12/357
f 61/12/358 24/51/359 23/11/360
f 63/20/361 58/60/362 31/19/363
f 31/19/364 58/60/365 32/63/366
f 57/50/367 5/5/368 64/24/369
f 64/24/370 5/5/371 36/23/372
f 58/60/373 9/48/374 65/27/375
f 65/27/376 9/48/377 20/25/378
f 66/30/379 56/4/380 40/28/381
f 40/28/382 56/4/383 3/2/384
