# This file uses centimeters as units for non-parametric coordinates.

mtllib leaf_00.mtl
g default
v 2.708254 0.005875 4.763469
v 2.708254 0.005875 4.549765
v 2.594159 0.005875 4.706972
v 2.574163 0.005875 4.549765
v 2.821173 0.005875 4.706972
v 2.841169 0.005875 4.549765
v 2.708254 0.005875 4.763469
v 2.708254 0.005875 4.549765
v 2.841169 0.005875 4.549765
v 2.790590 0.005875 4.392558
v 2.708254 0.005875 4.549765
v 2.708254 0.005875 4.336061
v 2.708254 0.005875 4.549765
v 2.708254 0.005875 4.336061
v 2.574163 0.005875 4.549765
v 2.625917 0.005875 4.392558
v 3.276376 0.005875 3.164375
v 3.122289 0.005875 3.199993
v 3.289315 0.005875 3.297019
v 3.076416 0.005875 3.317898
v 3.302253 0.005875 3.429663
v 3.143461 0.005875 3.424750
v 3.302253 0.005875 3.429663
v 3.452811 0.005875 3.363341
v 3.289315 0.005875 3.297019
v 3.502213 0.005875 3.276140
v 3.289315 0.005875 3.297019
v 3.502213 0.005875 3.276140
v 3.276376 0.005875 3.164375
v 3.437520 0.005875 3.199993
v 2.104845 0.005875 3.347375
v 2.096611 0.005875 3.561078
v 2.216587 0.005875 3.408784
v 2.229526 0.005875 3.567219
v 1.989574 0.005875 3.400186
v 1.963696 0.005875 3.556166
v 2.104845 0.005875 3.347375
v 2.096611 0.005875 3.561078
v 1.963696 0.005875 3.556166
v 2.008393 0.005875 3.714601
v 2.096611 0.005875 3.561078
v 2.087201 0.005875 3.774782
v 2.096611 0.005875 3.561078
v 2.087201 0.005875 3.774782
v 2.229526 0.005875 3.567219
v 2.171890 0.005875 3.721970
v 1.817843 0.005875 4.392558
v 1.606121 0.005875 4.360625
v 1.744917 0.005875 4.495725
v 1.586125 0.005875 4.493269
v 1.394398 0.005875 4.329920
v 1.462620 0.005875 4.256230
v 1.626117 0.005875 4.229210
v 1.777851 0.005875 4.272196
v 1.626117 0.005875 4.229210
v 1.817843 0.005875 4.392558
v 1.606121 0.005875 4.360625
v 1.606121 0.005875 4.360625
v 1.394398 0.005875 4.329920
v 1.586125 0.005875 4.493269
v 1.439095 0.005875 4.419578
v 3.802154 0.005875 4.114989
v 3.708055 0.005875 3.987258
v 3.759809 0.005875 4.234122
v 3.611603 0.005875 4.079371
v 3.638657 0.005875 4.270968
v 3.515152 0.005875 4.171485
v 3.464574 0.005875 3.924620
v 3.444578 0.005875 4.022875
v 3.563378 0.005875 3.909882
v 3.635128 0.005875 4.913307
v 3.691587 0.005875 5.026300
v 3.508095 0.005875 5.085253
v 3.615132 0.005875 5.165085
v 3.510447 0.005875 4.892428
v 3.635128 0.005875 4.913307
v 3.401057 0.005875 5.006649
v 3.508095 0.005875 5.085253
v 3.401057 0.005875 5.006649
v 3.508095 0.005875 5.085253
v 3.348126 0.005875 5.162628
v 3.381061 0.005875 5.257198
v 3.508095 0.005875 5.085253
v 3.615132 0.005875 5.165085
v 3.381061 0.005875 5.257198
v 3.481041 0.005875 5.260883
v 1.886065 0.005875 5.224037
v 2.013098 0.005875 5.238775
v 1.961344 0.005875 5.425459
v 2.086025 0.005875 5.378788
v 1.800200 0.005875 5.317379
v 1.886065 0.005875 5.224037
v 1.835487 0.005875 5.470902
v 1.961344 0.005875 5.425459
v 1.835487 0.005875 5.470902
v 1.961344 0.005875 5.425459
v 1.937819 0.005875 5.601089
v 2.035447 0.005875 5.625653
v 1.961344 0.005875 5.425459
v 2.086025 0.005875 5.378788
v 2.035447 0.005875 5.625653
v 2.091906 0.005875 5.543365
v 2.166009 0.005875 4.563275
v 2.265989 0.005875 4.574329
v 2.224821 0.005875 4.722939
v 2.324801 0.005875 4.686093
v 2.096611 0.005875 4.636966
v 2.166009 0.005875 4.563275
v 2.124841 0.005875 4.759784
v 2.224821 0.005875 4.722939
v 2.124841 0.005875 4.759784
v 2.224821 0.005875 4.722939
v 2.207177 0.005875 4.862952
v 2.283633 0.005875 4.883831
v 2.224821 0.005875 4.722939
v 2.324801 0.005875 4.686093
v 2.283633 0.005875 4.883831
v 2.329506 0.005875 4.817509
v 2.664733 0.005875 5.531083
v 2.731779 0.005875 5.456164
v 2.828230 0.005875 5.576526
v 2.856460 0.005875 5.473358
v 2.683553 0.005875 5.629337
v 2.664733 0.005875 5.531083
v 2.800000 0.005875 5.678465
v 2.828230 0.005875 5.576526
v 2.931739 0.005875 5.672324
v 2.992903 0.005875 5.621968
v 2.856460 0.005875 5.473358
v 2.967026 0.005875 5.545821
v 2.641208 0.005875 3.712145
v 2.805882 0.005875 3.757588
v 2.709430 0.005875 3.637226
v 2.834111 0.005875 3.655648
v 2.661204 0.005875 3.811628
v 2.777652 0.005875 3.859527
v 2.641208 0.005875 3.712145
v 2.805882 0.005875 3.757588
v 2.909390 0.005875 3.853386
v 2.970555 0.005875 3.803030
v 2.834111 0.005875 3.655648
v 2.943501 0.005875 3.728111
vt 0.140201 0.894055
vt 0.140330 0.894641
vt 0.139427 0.894901
vt 0.139556 0.894330
vt 0.263100 0.897164
vt 0.263487 0.896551
vt 0.264390 0.896522
vt 0.264325 0.897284
vt 0.261745 0.890094
vt 0.261487 0.890997
vt 0.260971 0.890094
vt 0.260971 0.891321
vt 0.260971 0.890094
vt 0.260971 0.891321
vt 0.260261 0.890094
vt 0.260519 0.890997
vt 0.206134 0.892794
vt 0.205553 0.892265
vt 0.206263 0.891694
vt 0.206973 0.891906
vt 0.146846 0.895768
vt 0.147620 0.895733
vt 0.147491 0.896642
vt 0.146846 0.896995
vt 0.264390 0.896522
vt 0.265293 0.896903
vt 0.264325 0.897284
vt 0.265551 0.897403
vt 0.264325 0.897284
vt 0.265551 0.897403
vt 0.264261 0.898045
vt 0.265164 0.897840
vt 0.140330 0.894641
vt 0.140523 0.895225
vt 0.139814 0.895331
vt 0.139427 0.894901
vt 0.135491 0.885069
vt 0.136201 0.885337
vt 0.135814 0.886140
vt 0.135104 0.886225
vt 0.146071 0.895796
vt 0.146330 0.894887
vt 0.146846 0.895768
vt 0.146781 0.894542
vt 0.146846 0.895768
vt 0.146781 0.894542
vt 0.147620 0.895733
vt 0.147233 0.894845
vt 0.264971 0.887472
vt 0.265616 0.887021
vt 0.266325 0.888008
vt 0.265616 0.888128
vt 0.253487 0.891356
vt 0.254648 0.891180
vt 0.253874 0.891779
vt 0.254777 0.891934
vt 0.263358 0.897840
vt 0.264261 0.898045
vt 0.254648 0.891180
vt 0.253487 0.891356
vt 0.254584 0.890419
vt 0.253745 0.890841
vt 0.198134 0.889101
vt 0.198715 0.889312
vt 0.198392 0.889953
vt 0.197812 0.890017
vt 0.254584 0.890419
vt 0.255487 0.890404
vt 0.255874 0.890997
vt 0.202586 0.883941
vt 0.201747 0.884794
vt 0.201618 0.884202
vt 0.202199 0.883652
vt 0.205231 0.893682
vt 0.205166 0.893118
vt 0.206650 0.893322
vt 0.205811 0.893767
vt 0.141297 0.894380
vt 0.140523 0.895225
vt 0.140975 0.894091
vt 0.134782 0.884808
vt 0.135491 0.885069
vt 0.135104 0.886225
vt 0.134588 0.885689
vt 0.264971 0.887472
vt 0.264648 0.886577
vt 0.265616 0.887021
vt 0.264842 0.886035
vt 0.265616 0.887021
vt 0.264842 0.886035
vt 0.266196 0.886563
vt 0.265422 0.886013
vt 0.254777 0.891934
vt 0.254648 0.891180
vt 0.255874 0.890997
vt 0.255681 0.891687
vt 0.265616 0.887021
vt 0.266196 0.886563
vt 0.266648 0.887360
vt 0.266325 0.888008
vt 0.134782 0.884808
vt 0.135362 0.884061
vt 0.135491 0.885069
vt 0.135943 0.883920
vt 0.135491 0.885069
vt 0.135943 0.883920
vt 0.136201 0.885337
vt 0.136265 0.884392
vt 0.146071 0.895796
vt 0.146846 0.895768
vt 0.146846 0.896995
vt 0.146201 0.896692
vt 0.261745 0.890094
vt 0.260971 0.890094
vt 0.260971 0.888868
vt 0.261680 0.889192
vt 0.197554 0.888889
vt 0.198070 0.888297
vt 0.198134 0.889101
vt 0.198457 0.888177
vt 0.198134 0.889101
vt 0.198457 0.888177
vt 0.198715 0.889312
vt 0.198779 0.888558
vt 0.207231 0.892589
vt 0.197554 0.888889
vt 0.198134 0.889101
vt 0.197812 0.890017
vt 0.197425 0.889594
vt 0.201424 0.883617
vt 0.202392 0.884378
vt 0.201618 0.884202
vt 0.201747 0.884794
vt 0.201037 0.884893
vt 0.200650 0.884463
vt 0.200650 0.884463
vt 0.200779 0.883899
vt 0.141168 0.894810
vt 0.260971 0.890094
vt 0.260261 0.890094
vt 0.260326 0.889192
vt 0.260971 0.888868
vn 0.000000 1.000000 0.000000
vn 0.000000 1.000000 0.000000
vn 0.000000 1.000000 0.000000
vn 0.000000 1.000000 0.000000
vn 0.000000 1.000000 0.000000
vn 0.000000 1.000000 0.000000
vn 0.000000 1.000000 0.000000
vn 0.000000 1.000000 0.000000
vn 0.000000 1.000000 0.000000
vn 0.000000 1.000000 0.000000
vn 0.000000 1.000000 0.000000
vn 0.000000 1.000000 0.000000
vn 0.000000 1.000000 0.000000
vn 0.000000 1.000000 0.000000
vn 0.000000 1.000000 0.000000
vn 0.000000 1.000000 0.000000
vn 0.000000 1.000000 0.000000
vn 0.000000 1.000000 0.000000
vn 0.000000 1.000000 0.000000
vn 0.000000 1.000000 0.000000
vn 0.000000 1.000000 0.000000
vn 0.000000 1.000000 0.000000
vn 0.000000 1.000000 0.000000
vn 0.000000 1.000000 0.000000
vn 0.000000 1.000000 0.000000
vn 0.000000 1.000000 0.000000
vn 0.000000 1.000000 0.000000
vn 0.000000 1.000000 0.000000
vn 0.000000 1.000000 0.000000
vn 0.000000 1.000000 0.000000
vn 0.000000 1.000000 0.000000
vn 0.000000 1.000000 0.000000
vn 0.000000 1.000000 0.000000
vn 0.000000 1.000000 0.000000
vn 0.000000 1.000000 0.000000
vn 0.000000 1.000000 0.000000
vn 0.000000 1.000000 0.000000
vn 0.000000 1.000000 0.000000
vn 0.000000 1.000000 0.000000
vn 0.000000 1.000000 0.000000
vn 0.000000 1.000000 0.000000
vn 0.000000 1.000000 0.000000
vn 0.000000 1.000000 0.000000
vn 0.000000 1.000000 0.000000
vn 0.000000 1.000000 0.000000
vn 0.000000 1.000000 0.000000
vn 0.000000 1.000000 0.000000
vn 0.000000 1.000000 0.000000
vn 0.000000 1.000000 0.000000
vn 0.000000 1.000000 0.000000
vn 0.000000 1.000000 0.000000
vn 0.000000 1.000000 0.000000
vn 0.000000 1.000000 0.000000
vn 0.000000 1.000000 0.000000
vn 0.000000 1.000000 0.000000
vn 0.000000 1.000000 0.000000
vn 0.000000 1.000000 0.000000
vn 0.000000 1.000000 0.000000
vn 0.000000 1.000000 0.000000
vn 0.000000 1.000000 0.000000
vn 0.000000 1.000000 0.000000
vn 0.000000 1.000000 0.000000
vn 0.000000 1.000000 0.000000
vn 0.000000 1.000000 0.000000
vn 0.000000 1.000000 0.000000
vn 0.000000 1.000000 0.000000
vn 0.000000 1.000000 0.000000
vn 0.000000 1.000000 0.000000
vn 0.000000 1.000000 0.000000
vn 0.000000 1.000000 0.000000
vn 0.000000 1.000000 0.000000
vn 0.000000 1.000000 0.000000
vn 0.000000 1.000000 0.000000
vn 0.000000 1.000000 0.000000
vn 0.000000 1.000000 0.000000
vn 0.000000 1.000000 0.000000
vn 0.000000 1.000000 0.000000
vn 0.000000 1.000000 0.000000
vn 0.000000 1.000000 0.000000
vn 0.000000 1.000000 0.000000
vn 0.000000 1.000000 0.000000
vn 0.000000 1.000000 0.000000
vn 0.000000 1.000000 0.000000
vn 0.000000 1.000000 0.000000
vn 0.000000 1.000000 0.000000
vn 0.000000 1.000000 0.000000
vn 0.000000 1.000000 0.000000
vn 0.000000 1.000000 0.000000
vn 0.000000 1.000000 0.000000
vn 0.000000 1.000000 0.000000
vn 0.000000 1.000000 0.000000
vn 0.000000 1.000000 0.000000
vn 0.000000 1.000000 0.000000
vn 0.000000 1.000000 0.000000
vn 0.000000 1.000000 0.000000
vn 0.000000 1.000000 0.000000
vn 0.000000 1.000000 0.000000
vn 0.000000 1.000000 0.000000
vn 0.000000 1.000000 0.000000
vn 0.000000 1.000000 0.000000
vn 0.000000 1.000000 0.000000
vn 0.000000 1.000000 0.000000
vn 0.000000 1.000000 0.000000
vn 0.000000 1.000000 0.000000
vn 0.000000 1.000000 0.000000
vn 0.000000 1.000000 0.000000
vn 0.000000 1.000000 0.000000
vn 0.000000 1.000000 0.000000
vn 0.000000 1.000000 0.000000
vn 0.000000 1.000000 0.000000
vn 0.000000 1.000000 0.000000
vn 0.000000 1.000000 0.000000
vn 0.000000 1.000000 0.000000
vn 0.000000 1.000000 0.000000
vn 0.000000 1.000000 0.000000
vn 0.000000 1.000000 0.000000
vn 0.000000 1.000000 0.000000
vn 0.000000 1.000000 0.000000
vn 0.000000 1.000000 0.000000
vn 0.000000 1.000000 0.000000
vn 0.000000 1.000000 0.000000
vn 0.000000 1.000000 0.000000
vn 0.000000 1.000000 0.000000
vn 0.000000 1.000000 0.000000
vn 0.000000 1.000000 0.000000
vn 0.000000 1.000000 0.000000
vn 0.000000 1.000000 0.000000
vn 0.000000 1.000000 0.000000
vn 0.000000 1.000000 0.000000
vn 0.000000 1.000000 0.000000
vn 0.000000 1.000000 0.000000
vn 0.000000 1.000000 0.000000
vn 0.000000 1.000000 0.000000
vn 0.000000 1.000000 0.000000
vn 0.000000 1.000000 0.000000
vn 0.000000 1.000000 0.000000
vn 0.000000 1.000000 0.000000
vn 0.000000 1.000000 0.000000
vn 0.000000 1.000000 0.000000
vn 0.000000 1.000000 0.000000
vn 0.000000 1.000000 0.000000
vn 0.000000 1.000000 0.000000
vn 0.000000 1.000000 0.000000
vn 0.000000 1.000000 0.000000
vn 0.000000 1.000000 0.000000
vn 0.000000 1.000000 0.000000
vn 0.000000 1.000000 0.000000
vn 0.000000 1.000000 0.000000
vn 0.000000 1.000000 0.000000
vn 0.000000 1.000000 0.000000
vn 0.000000 1.000000 0.000000
vn 0.000000 1.000000 0.000000
vn 0.000000 1.000000 0.000000
vn 0.000000 1.000000 0.000000
vn 0.000000 1.000000 0.000000
vn 0.000000 1.000000 0.000000
vn 0.000000 1.000000 0.000000
vn 0.000000 1.000000 0.000000
vn 0.000000 1.000000 0.000000
vn 0.000000 1.000000 0.000000
vn 0.000000 1.000000 0.000000
vn 0.000000 1.000000 0.000000
vn 0.000000 1.000000 0.000000
vn 0.000000 1.000000 0.000000
vn 0.000000 1.000000 0.000000
vn 0.000000 1.000000 0.000000
vn 0.000000 1.000000 0.000000
vn 0.000000 1.000000 0.000000
vn 0.000000 1.000000 0.000000
vn 0.000000 1.000000 0.000000
vn 0.000000 1.000000 0.000000
vn 0.000000 1.000000 0.000000
vn 0.000000 1.000000 0.000000
vn 0.000000 1.000000 0.000000
vn 0.000000 1.000000 0.000000
vn 0.000000 1.000000 0.000000
vn 0.000000 1.000000 0.000000
vn 0.000000 1.000000 0.000000
vn 0.000000 1.000000 0.000000
vn 0.000000 1.000000 0.000000
vn 0.000000 1.000000 0.000000
vn 0.000000 1.000000 0.000000
vn 0.000000 1.000000 0.000000
vn 0.000000 1.000000 0.000000
vn 0.000000 1.000000 0.000000
vn 0.000000 1.000000 0.000000
vn 0.000000 1.000000 0.000000
vn 0.000000 1.000000 0.000000
vn 0.000000 1.000000 0.000000
vn 0.000000 1.000000 0.000000
vn 0.000000 1.000000 0.000000
vn 0.000000 1.000000 0.000000
vn 0.000000 1.000000 0.000000
vn 0.000000 1.000000 0.000000
s 1
g leaf_00 group1
usemtl samor_4024_221SG
f 136/1/1 138/2/2 135/4/3
f 135/4/3 138/2/2 137/3/4
s 2
f 20/5/5 22/6/6 19/8/7
f 19/8/7 22/6/6 21/7/8
s off
f 9/9/9 10/10/10 11/11/11
f 10/10/12 12/12/13 11/11/14
f 13/13/15 14/14/16 15/15/17
f 14/14/18 16/16/19 15/15/20
s 3
f 67/18/21 66/19/22 65/17/23
f 65/17/23 66/19/22 64/20/24
s 4
f 34/22/25 33/23/26 32/21/27
f 32/21/27 33/23/26 31/24/28
s off
f 23/25/29 24/26/30 25/27/31
f 24/26/32 26/28/33 25/27/34
f 27/29/35 28/30/36 29/31/37
f 28/30/38 30/32/39 29/31/40
s 5
f 134/34/41 133/35/42 132/33/43
f 132/33/43 133/35/42 131/36/44
s 6
f 90/38/45 88/39/46 89/37/47
f 89/37/47 88/39/46 87/40/48
s off
f 39/41/49 40/42/50 41/43/51
f 40/42/52 42/44/53 41/43/54
f 43/45/55 44/46/56 45/47/57
f 44/46/58 46/48/59 45/47/60
s 7
f 77/49/61 78/50/62 75/52/63
f 75/52/63 78/50/62 76/51/64
s off
f 51/53/65 48/54/66 52/55/67
f 48/54/68 53/56/69 52/55/70
s 8
f 20/5/71 19/8/72 18/57/73
f 18/57/73 19/8/72 17/58/74
s off
f 58/59/75 59/60/76 60/61/77
f 59/60/78 61/62/79 60/61/80
s 9
f 106/64/81 104/65/82 105/63/83
f 105/63/83 104/65/82 103/66/84
s 10
f 50/67/85 49/68/86 48/54/87
f 48/54/87 49/68/86 47/69/88
s 11
f 129/71/89 126/72/90 128/70/91
f 128/70/91 126/72/90 127/73/92
s off
f 67/18/93 68/74/94 69/75/95
f 63/76/96 70/77/97 65/17/98
s 12
f 141/79/99 138/2/100 140/78/101
f 140/78/101 138/2/100 139/80/102
s 13
f 93/81/103 94/82/104 91/84/105
f 91/84/105 94/82/104 92/83/106
s off
f 79/85/107 81/86/108 80/87/109
f 80/87/110 81/86/111 82/88/112
f 83/89/113 85/90/114 84/91/115
f 84/91/116 85/90/117 86/92/118
s 14
f 55/93/119 57/94/120 54/96/121
f 54/96/121 57/94/120 56/95/122
s 15
f 74/98/123 72/99/124 73/97/125
f 73/97/125 72/99/124 71/100/126
s off
f 95/101/127 97/102/128 96/103/129
f 96/103/130 97/102/131 98/104/132
f 99/105/133 101/106/134 100/107/135
f 100/107/136 101/106/137 102/108/138
s 16
f 36/109/139 38/110/140 35/112/141
f 35/112/141 38/110/140 37/111/142
s 17
f 6/113/143 8/114/144 5/116/145
f 5/116/145 8/114/144 7/115/146
s off
f 111/117/147 113/118/148 112/119/149
f 112/119/150 113/118/151 114/120/152
f 115/121/153 117/122/154 116/123/155
f 116/123/156 117/122/157 118/124/158
s 18
f 63/76/159 65/17/160 62/125/161
f 62/125/161 65/17/160 64/20/162
s 19
f 109/126/163 110/127/164 107/129/165
f 107/129/165 110/127/164 108/128/166
s off
f 125/130/167 127/73/168 126/72/169
f 128/70/170 130/131/171 129/71/172
s 20
f 122/133/173 120/134/174 121/132/175
f 121/132/175 120/134/174 119/135/176
s 21
f 125/130/177 126/72/178 123/137/179
f 123/137/179 126/72/178 124/136/180
s off
f 136/1/181 139/80/182 138/2/183
s 22
f 70/77/184 68/74/185 65/17/186
f 65/17/186 68/74/185 67/18/187
s off
f 140/78/188 142/138/189 141/79/190
s 23
f 4/140/191 3/141/192 2/139/193
f 2/139/193 3/141/192 1/142/194
