# This file uses centimeters as units for non-parametric coordinates.

mtllib lotus_leaf.mtl
g default
v 0.370817 0.031065 -0.091599
v 0.288011 0.031065 -0.215527
v 0.164083 0.031065 -0.298333
v 0.017899 0.031065 -0.327411
v -0.128284 0.031065 -0.298333
v -0.252212 0.031065 -0.215527
v -0.335018 0.031065 -0.091599
v -0.364096 0.031065 0.054584
v -0.335018 0.031065 0.200767
v -0.252212 0.031065 0.324696
v -0.128284 0.031065 0.407502
v 0.017899 0.031065 0.068355
v 0.164082 0.031065 0.407502
v 0.288011 0.031065 0.324696
v 0.370817 0.031065 0.200768
v 0.399894 0.031065 0.054584
v 0.370817 0.093229 -0.091599
v 0.288011 0.093229 -0.215527
v 0.164083 0.093229 -0.298333
v 0.017899 0.093229 -0.327411
v -0.128284 0.093229 -0.298333
v -0.252212 0.093229 -0.215527
v -0.335018 0.093229 -0.091599
v -0.364096 0.093229 0.054584
v -0.335018 0.093229 0.200767
v -0.252212 0.093229 0.324696
v -0.128284 0.093229 0.407502
v 0.017899 0.093229 0.068355
v 0.164082 0.093229 0.407502
v 0.288011 0.093229 0.324696
v 0.370817 0.093229 0.200768
v 0.399894 0.093229 0.054584
v 0.017899 0.031065 0.054584
v 0.017899 0.093229 0.054584
vt 0.109318 0.005696
vt 0.157897 0.005696
vt 0.109318 0.043238
vt 0.157897 0.043238
vt 0.206476 0.005696
vt 0.206476 0.043238
vt 0.255053 0.005696
vt 0.255053 0.043238
vt 0.303632 0.005696
vt 0.303632 0.043238
vt 0.352211 0.005696
vt 0.352211 0.043238
vt 0.400788 0.005696
vt 0.400788 0.043238
vt 0.449367 0.005696
vt 0.449367 0.043238
vt 0.497946 0.005696
vt 0.497946 0.043238
vt 0.546524 0.005696
vt 0.546524 0.043238
vt 0.595102 0.005696
vt 0.595102 0.043238
vt 0.643681 0.005696
vt 0.643681 0.043238
vt 0.692259 0.005696
vt 0.692259 0.043238
vt 0.740837 0.005696
vt 0.740837 0.043238
vt 0.789415 0.005696
vt 0.789415 0.043238
vt 0.837994 0.005696
vt 0.837994 0.043238
vt 0.886573 0.005696
vt 0.886573 0.043238
vt 0.969123 0.077839
vt 0.984741 0.101213
vt 0.918177 0.128785
vt 0.945749 0.062221
vt 0.918177 0.056737
vt 0.890606 0.062221
vt 0.867232 0.077839
vt 0.851614 0.101213
vt 0.846130 0.128785
vt 0.851614 0.156356
vt 0.867232 0.179730
vt 0.890606 0.195348
vt 0.918177 0.200832
vt 0.945749 0.195348
vt 0.969123 0.179730
vt 0.984741 0.156356
vt 0.990225 0.128785
vt 0.043312 0.329960
vt 0.142955 0.173388
vt 0.486707 0.502143
vt 0.294931 0.066864
vt 0.476103 0.026608
vt 0.658890 0.058748
vt 0.815464 0.158392
vt 0.921986 0.310367
vt 0.962242 0.491540
vt 0.930102 0.674327
vt 0.830459 0.830900
vt 0.678483 0.937423
vt 0.497310 0.977678
vt 0.314524 0.945539
vt 0.157950 0.845895
vt 0.051428 0.693919
vt 0.011171 0.512747
vn 0.831469 0.000000 -0.555571
vn 0.831469 0.000000 -0.555571
vn 0.831469 0.000000 -0.555571
vn 0.923880 0.000000 -0.382683
vn 0.707107 0.000000 -0.707106
vn 0.707107 0.000000 -0.707106
vn 0.707107 0.000000 -0.707106
vn 0.382684 0.000000 -0.923879
vn 0.707107 0.000000 -0.707106
vn 0.707107 0.000000 -0.707106
vn 0.382684 0.000000 -0.923879
vn 0.382684 0.000000 -0.923879
vn 0.382684 0.000000 -0.923879
vn 0.000000 0.000000 -1.000000
vn 0.382684 0.000000 -0.923879
vn 0.382684 0.000000 -0.923879
vn 0.000000 0.000000 -1.000000
vn 0.000001 0.000000 -1.000000
vn 0.000000 0.000000 -1.000000
vn -0.382683 0.000000 -0.923880
vn 0.000001 0.000000 -1.000000
vn 0.000001 0.000000 -1.000000
vn -0.382683 0.000000 -0.923880
vn -0.382683 0.000000 -0.923880
vn -0.382683 0.000000 -0.923880
vn -0.707107 0.000000 -0.707107
vn -0.382683 0.000000 -0.923880
vn -0.382683 0.000000 -0.923880
vn -0.707107 0.000000 -0.707107
vn -0.707106 0.000000 -0.707107
vn -0.707107 0.000000 -0.707107
vn -0.923879 0.000000 -0.382684
vn -0.707106 0.000000 -0.707107
vn -0.707106 0.000000 -0.707107
vn -0.923879 0.000000 -0.382684
vn -0.923879 0.000000 -0.382684
vn -0.923879 0.000000 -0.382684
vn -1.000000 0.000000 -0.000000
vn -0.923879 0.000000 -0.382684
vn -0.923879 0.000000 -0.382684
vn -1.000000 0.000000 -0.000000
vn -1.000000 0.000000 -0.000000
vn -1.000000 0.000000 -0.000000
vn -0.923880 0.000000 0.382683
vn -1.000000 0.000000 -0.000000
vn -1.000000 0.000000 -0.000000
vn -0.923880 0.000000 0.382683
vn -0.923880 0.000000 0.382683
vn -0.923880 0.000000 0.382683
vn -0.707107 0.000000 0.707107
vn -0.923880 0.000000 0.382683
vn -0.923880 0.000000 0.382683
vn -0.707107 0.000000 0.707107
vn -0.707107 0.000000 0.707107
vn -0.707107 0.000000 0.707107
vn 0.688375 0.000000 0.725355
vn -0.707107 0.000000 0.707107
vn -0.707107 0.000000 0.707107
vn 0.688375 0.000000 0.725355
vn 0.688374 0.000000 0.725356
vn 0.688375 0.000000 0.725355
vn 0.000000 0.000000 1.000000
vn 0.688374 0.000000 0.725356
vn 0.688374 0.000000 0.725356
vn 0.000000 0.000000 1.000000
vn 0.000000 0.000000 1.000000
vn 0.000000 0.000000 1.000000
vn -0.688375 0.000000 0.725355
vn 0.000000 0.000000 1.000000
vn 0.000000 0.000000 1.000000
vn -0.688375 0.000000 0.725355
vn -0.688374 0.000000 0.725356
vn -0.688375 0.000000 0.725355
vn 0.707107 0.000000 0.707107
vn -0.688374 0.000000 0.725356
vn -0.688374 0.000000 0.725356
vn 0.707107 0.000000 0.707107
vn 0.707107 0.000000 0.707107
vn 0.707107 0.000000 0.707107
vn 0.923879 0.000000 0.382684
vn 0.707107 0.000000 0.707107
vn 0.707107 0.000000 0.707107
vn 0.923879 0.000000 0.382684
vn 0.923880 0.000000 0.382683
vn 0.923879 0.000000 0.382684
vn 1.000000 0.000000 0.000000
vn 0.923880 0.000000 0.382683
vn 0.923880 0.000000 0.382683
vn 1.000000 0.000000 0.000000
vn 1.000000 0.000000 0.000000
vn 1.000000 0.000000 0.000000
vn 0.923880 0.000000 -0.382683
vn 1.000000 0.000000 0.000000
vn 1.000000 0.000000 0.000000
vn 0.923880 0.000000 -0.382683
vn 0.923880 0.000000 -0.382683
vn 0.000000 -1.000000 0.000000
vn 0.000000 -1.000000 0.000000
vn 0.000000 -1.000000 0.000000
vn 0.000000 -1.000000 0.000000
vn 0.000000 -1.000000 0.000000
vn 0.000000 -1.000000 0.000000
vn 0.000000 -1.000000 0.000000
vn 0.000000 -1.000000 0.000000
vn 0.000000 -1.000000 0.000000
vn 0.000000 -1.000000 0.000000
vn 0.000000 -1.000000 0.000000
vn 0.000000 -1.000000 0.000000
vn 0.000000 -1.000000 0.000000
vn 0.000000 -1.000000 0.000000
vn 0.000000 -1.000000 0.000000
vn 0.000000 -1.000000 0.000000
vn 0.000000 -1.000000 0.000000
vn 0.000000 -1.000000 0.000000
vn 0.000000 -1.000000 0.000000
vn 0.000000 -1.000000 0.000000
vn 0.000000 -1.000000 0.000000
vn 0.000000 -1.000000 0.000000
vn 0.000000 -1.000000 0.000000
vn 0.000000 -1.000000 0.000000
vn 0.000000 -1.000000 0.000000
vn 0.000000 -1.000000 0.000000
vn 0.000000 -1.000000 0.000000
vn 0.000000 -1.000000 0.000000
vn 0.000000 -1.000000 0.000000
vn 0.000000 -1.000000 0.000000
vn 0.000000 -1.000000 -0.000002
vn 0.000000 -1.000000 0.000000
vn 0.000000 -1.000000 0.000000
vn 0.000000 -1.000000 0.000000
vn 0.000000 -1.000000 -0.000002
vn 0.000000 -1.000000 0.000000
vn 0.000000 -1.000000 0.000000
vn 0.000000 -1.000000 0.000000
vn 0.000000 -1.000000 0.000000
vn 0.000000 -1.000000 0.000000
vn 0.000000 -1.000000 0.000000
vn 0.000000 -1.000000 0.000000
vn 0.000000 -1.000000 0.000000
vn 0.000000 -1.000000 0.000000
vn 0.000000 -1.000000 0.000000
vn 0.000000 -1.000000 0.000000
vn 0.000000 -1.000000 0.000000
vn 0.000000 -1.000000 0.000000
vn 0.000000 1.000000 0.000000
vn 0.000000 1.000000 0.000000
vn 0.000000 1.000000 0.000000
vn 0.000000 1.000000 0.000000
vn 0.000000 1.000000 0.000000
vn 0.000000 1.000000 0.000000
vn 0.000000 1.000000 0.000000
vn 0.000000 1.000000 0.000000
vn 0.000000 1.000000 0.000000
vn 0.000000 1.000000 0.000000
vn 0.000000 1.000000 0.000000
vn 0.000000 1.000000 0.000000
vn 0.000000 1.000000 0.000000
vn 0.000000 1.000000 0.000000
vn 0.000000 1.000000 0.000000
vn 0.000000 1.000000 0.000000
vn 0.000000 1.000000 0.000000
vn 0.000000 1.000000 0.000000
vn 0.000000 1.000000 0.000000
vn 0.000000 1.000000 0.000000
vn 0.000000 1.000000 0.000000
vn 0.000000 1.000000 0.000000
vn 0.000000 1.000000 0.000000
vn 0.000000 1.000000 0.000000
vn 0.000000 1.000000 0.000000
vn 0.000000 1.000000 0.000000
vn 0.000000 1.000000 0.000000
vn 0.000000 1.000000 0.000000
vn 0.000000 1.000000 0.000000
vn 0.000000 1.000000 0.000000
vn 0.000000 1.000000 0.000000
vn 0.000000 1.000000 0.000002
vn 0.000000 1.000000 0.000000
vn 0.000000 1.000000 0.000002
vn 0.000000 1.000000 0.000000
vn 0.000000 1.000000 0.000000
vn 0.000000 1.000000 0.000000
vn 0.000000 1.000000 0.000000
vn 0.000000 1.000000 0.000000
vn 0.000000 1.000000 0.000000
vn 0.000000 1.000000 0.000000
vn 0.000000 1.000000 0.000000
vn 0.000000 1.000000 0.000000
vn 0.000000 1.000000 0.000000
vn 0.000000 1.000000 0.000000
vn 0.000000 1.000000 0.000000
vn 0.000000 1.000000 0.000000
vn 0.000000 1.000000 0.000000
s off
g lotus_leaf:pasted__pCylinder1group15
usemtl lotus_leaf:lambert6SG
f 1/1/1 2/2/2 17/3/3
f 17/3/4 2/2/5 18/4/6
f 2/2/7 3/5/8 18/4/9
f 18/4/10 3/5/11 19/6/12
f 3/5/13 4/7/14 19/6/15
f 19/6/16 4/7/17 20/8/18
f 4/7/19 5/9/20 20/8/21
f 20/8/22 5/9/23 21/10/24
f 5/9/25 6/11/26 21/10/27
f 21/10/28 6/11/29 22/12/30
f 6/11/31 7/13/32 22/12/33
f 22/12/34 7/13/35 23/14/36
f 7/13/37 8/15/38 23/14/39
f 23/14/40 8/15/41 24/16/42
f 8/15/43 9/17/44 24/16/45
f 24/16/46 9/17/47 25/18/48
f 9/17/49 10/19/50 25/18/51
f 25/18/52 10/19/53 26/20/54
f 10/19/55 11/21/56 26/20/57
f 26/20/58 11/21/59 27/22/60
f 11/21/61 12/23/62 27/22/63
f 27/22/64 12/23/65 28/24/66
f 12/23/67 13/25/68 28/24/69
f 28/24/70 13/25/71 29/26/72
f 13/25/73 14/27/74 29/26/75
f 29/26/76 14/27/77 30/28/78
f 14/27/79 15/29/80 30/28/81
f 30/28/82 15/29/83 31/30/84
f 15/29/85 16/31/86 31/30/87
f 31/30/88 16/31/89 32/32/90
f 16/31/91 1/33/92 32/32/93
f 32/32/94 1/33/95 17/34/96
f 2/35/97 1/36/98 33/37/99
f 3/38/100 2/35/101 33/37/102
f 4/39/103 3/38/104 33/37/105
f 5/40/106 4/39/107 33/37/108
f 6/41/109 5/40/110 33/37/111
f 7/42/112 6/41/113 33/37/114
f 8/43/115 7/42/116 33/37/117
f 9/44/118 8/43/119 33/37/120
f 10/45/121 9/44/122 33/37/123
f 11/46/124 10/45/125 33/37/126
f 12/47/127 11/46/128 33/37/129
f 13/48/130 12/47/131 33/37/132
f 14/49/133 13/48/134 33/37/135
f 15/50/136 14/49/137 33/37/138
f 16/51/139 15/50/140 33/37/141
f 1/36/142 16/51/143 33/37/144
f 17/52/145 18/53/146 34/54/147
f 18/53/148 19/55/149 34/54/150
f 19/55/151 20/56/152 34/54/153
f 20/56/154 21/57/155 34/54/156
f 21/57/157 22/58/158 34/54/159
f 22/58/160 23/59/161 34/54/162
f 23/59/163 24/60/164 34/54/165
f 24/60/166 25/61/167 34/54/168
f 25/61/169 26/62/170 34/54/171
f 26/62/172 27/63/173 34/54/174
f 27/63/175 28/64/176 34/54/177
f 28/64/178 29/65/179 34/54/180
f 29/65/181 30/66/182 34/54/183
f 30/66/184 31/67/185 34/54/186
f 31/67/187 32/68/188 34/54/189
f 32/68/190 17/52/191 34/54/192
