# This file uses centimeters as units for non-parametric coordinates.

mtllib Pillar.mtl
g default
v 0.179560 -0.013629 -0.128296
v 0.138451 -0.013629 -0.189822
v 0.076925 -0.013629 -0.230933
v 0.004349 -0.013629 -0.245369
v -0.068226 -0.013629 -0.230933
v -0.129751 -0.013629 -0.189822
v -0.170862 -0.013629 -0.128296
v -0.185298 -0.013629 -0.055722
v -0.170862 -0.013629 0.016853
v -0.129752 -0.013629 0.078379
v -0.068226 -0.013629 0.119490
v 0.004349 -0.013629 0.133926
v 0.076925 -0.013629 0.119490
v 0.138451 -0.013629 0.078379
v 0.179560 -0.013629 0.016853
v 0.193998 -0.013629 -0.055722
v 0.179560 0.093839 -0.128296
v 0.138451 0.092834 -0.189822
v 0.076925 0.096229 -0.230933
v 0.004349 0.091787 -0.245369
v -0.068226 0.094126 -0.230933
v -0.129751 0.094178 -0.189822
v -0.170862 0.097293 -0.128296
v -0.185298 0.099770 -0.055722
v -0.170862 0.099770 0.016853
v -0.129752 0.099770 0.078379
v -0.068226 0.099770 0.119490
v 0.004349 0.099770 0.133926
v 0.076925 0.099380 0.119490
v 0.138451 0.101025 0.078379
v 0.178737 0.100837 0.017210
v 0.193173 0.098852 -0.055365
v 0.141769 0.133584 -0.112642
v 0.109527 0.133584 -0.160898
v 0.061270 0.133584 -0.193141
v 0.004349 0.133584 -0.204464
v -0.052572 0.133584 -0.193141
v -0.100827 0.133584 -0.160898
v -0.133070 0.133584 -0.112643
v -0.144393 0.133584 -0.055722
v -0.133070 0.133584 0.001200
v -0.100827 0.133584 0.049455
v -0.052572 0.133584 0.081698
v 0.004349 0.133584 0.093021
v 0.061270 0.133584 0.081698
v 0.109527 0.133584 0.049455
v 0.140944 0.133584 0.001557
v 0.152268 0.133584 -0.055365
v 0.141769 0.510482 -0.112642
v 0.109527 0.510482 -0.160898
v 0.061270 0.510482 -0.193141
v 0.004349 0.510482 -0.204464
v -0.052572 0.510482 -0.193141
v -0.100827 0.510482 -0.160898
v -0.133070 0.510482 -0.112643
v -0.144393 0.510482 -0.055722
v -0.133070 0.510482 0.001200
v -0.100827 0.510482 0.049455
v -0.052572 0.510482 0.081698
v 0.004349 0.510482 0.093021
v 0.061270 0.510482 0.081698
v 0.109527 0.510482 0.049455
v 0.141769 0.510482 0.001200
v 0.153091 0.510482 -0.055722
v 0.004349 -0.013629 -0.055722
v 0.004349 0.623063 -0.055722
v 0.179560 0.578943 -0.128296
v 0.145813 0.623063 -0.114318
v 0.138451 0.578943 -0.189822
v 0.112621 0.623063 -0.163993
v 0.076925 0.578943 -0.230933
v 0.062945 0.623063 -0.197185
v 0.004349 0.578943 -0.245369
v 0.004349 0.623063 -0.208841
v -0.068226 0.578943 -0.230933
v -0.054247 0.623063 -0.197185
v -0.129751 0.578943 -0.189822
v -0.103923 0.623063 -0.163993
v -0.170862 0.578943 -0.128296
v -0.137114 0.623063 -0.114318
v -0.185298 0.578943 -0.055722
v -0.148769 0.623063 -0.055722
v -0.170862 0.578943 0.016853
v -0.137114 0.623063 0.002875
v -0.129752 0.578943 0.078379
v -0.103923 0.623063 0.052550
v -0.068226 0.578943 0.119490
v -0.054247 0.623063 0.085742
v 0.004349 0.578943 0.133926
v 0.004349 0.623063 0.097398
v 0.076925 0.578943 0.119490
v 0.062945 0.623063 0.085743
v 0.138451 0.578943 0.078379
v 0.112621 0.623063 0.052550
v 0.179560 0.578943 0.016853
v 0.145813 0.623063 0.002875
v 0.193998 0.578943 -0.055722
v 0.157470 0.623063 -0.055722
v 0.160667 0.515626 -0.120470
v 0.179560 0.541476 -0.128296
v 0.123990 0.515626 -0.175362
v 0.138451 0.541476 -0.189822
v 0.069098 0.515626 -0.212039
v 0.076925 0.541476 -0.230933
v 0.004349 0.515626 -0.224918
v 0.004349 0.541476 -0.245369
v -0.060399 0.515626 -0.212039
v -0.068226 0.541476 -0.230933
v -0.115290 0.515626 -0.175362
v -0.129751 0.541476 -0.189822
v -0.151967 0.515626 -0.120470
v -0.170862 0.541476 -0.128296
v -0.164847 0.515626 -0.055722
v -0.185298 0.541476 -0.055722
v -0.151967 0.515626 0.009027
v -0.170862 0.541476 0.016853
v -0.115290 0.515626 0.063919
v -0.129752 0.541476 0.078379
v -0.060400 0.515626 0.100596
v -0.068226 0.541476 0.119490
v 0.004349 0.515626 0.113475
v 0.004349 0.541476 0.133926
v 0.069098 0.515626 0.100596
v 0.076925 0.541476 0.119490
v 0.123990 0.515626 0.063919
v 0.138451 0.541476 0.078379
v 0.160667 0.515626 0.009027
v 0.179560 0.541476 0.016853
v 0.173546 0.515626 -0.055722
v 0.193998 0.541476 -0.055722
vt 0.390625 0.312500
vt 0.390625 0.387500
vt 0.375000 0.312500
vt 0.375000 0.387500
vt 0.406250 0.312500
vt 0.406250 0.387500
vt 0.421875 0.312500
vt 0.421875 0.387500
vt 0.437500 0.312500
vt 0.437500 0.387500
vt 0.453125 0.312500
vt 0.453125 0.387500
vt 0.468750 0.312500
vt 0.468750 0.387500
vt 0.484375 0.312500
vt 0.484375 0.387500
vt 0.500000 0.312500
vt 0.500000 0.387500
vt 0.515625 0.312500
vt 0.515625 0.387500
vt 0.531250 0.312500
vt 0.531250 0.387500
vt 0.546875 0.312500
vt 0.546875 0.387500
vt 0.562500 0.312500
vt 0.562500 0.387500
vt 0.578125 0.312500
vt 0.578125 0.387500
vt 0.593750 0.312500
vt 0.593750 0.387500
vt 0.609375 0.312500
vt 0.609375 0.387500
vt 0.625000 0.312500
vt 0.625000 0.387500
vt 0.390625 0.462500
vt 0.375000 0.462500
vt 0.406250 0.462500
vt 0.421875 0.462500
vt 0.437500 0.462500
vt 0.453125 0.462500
vt 0.468750 0.462500
vt 0.484375 0.462500
vt 0.500000 0.462500
vt 0.515625 0.462500
vt 0.531250 0.462500
vt 0.546875 0.462500
vt 0.562500 0.462500
vt 0.578125 0.462500
vt 0.593750 0.462500
vt 0.609375 0.462500
vt 0.625000 0.462500
vt 0.375000 0.537500
vt 0.390625 0.537500
vt 0.406250 0.537500
vt 0.421875 0.537500
vt 0.437500 0.537500
vt 0.453125 0.537500
vt 0.468750 0.537500
vt 0.484375 0.537500
vt 0.500000 0.537500
vt 0.515625 0.537500
vt 0.531250 0.537500
vt 0.546875 0.537500
vt 0.562500 0.537500
vt 0.578125 0.537500
vt 0.593750 0.537500
vt 0.609375 0.537500
vt 0.625000 0.537500
vt 0.610485 0.045765
vt 0.644356 0.096456
vt 0.500000 0.156250
vt 0.559794 0.011894
vt 0.500000 0.000000
vt 0.440206 0.011894
vt 0.389515 0.045765
vt 0.355644 0.096456
vt 0.343750 0.156250
vt 0.355644 0.216044
vt 0.389515 0.266735
vt 0.440206 0.300606
vt 0.500000 0.312500
vt 0.559794 0.300606
vt 0.610485 0.266735
vt 0.644356 0.216044
vt 0.656250 0.156250
vt 0.625000 0.650004
vt 0.623495 0.687500
vt 0.609375 0.650004
vt 0.610880 0.687500
vt 0.376505 0.687500
vt 0.375000 0.650004
vt 0.389120 0.687500
vt 0.390625 0.650004
vt 0.392130 0.687500
vt 0.404745 0.687500
vt 0.406250 0.650004
vt 0.407755 0.687500
vt 0.420370 0.687500
vt 0.421875 0.650004
vt 0.423380 0.687500
vt 0.435995 0.687500
vt 0.437500 0.650004
vt 0.439005 0.687500
vt 0.451620 0.687500
vt 0.453125 0.650004
vt 0.454630 0.687500
vt 0.467245 0.687500
vt 0.468750 0.650004
vt 0.470255 0.687500
vt 0.482870 0.687500
vt 0.484375 0.650004
vt 0.485880 0.687500
vt 0.498495 0.687500
vt 0.500000 0.650004
vt 0.501505 0.687500
vt 0.514120 0.687500
vt 0.515625 0.650004
vt 0.517130 0.687500
vt 0.529745 0.687500
vt 0.531250 0.650004
vt 0.532755 0.687500
vt 0.545370 0.687500
vt 0.546875 0.650004
vt 0.548380 0.687500
vt 0.560995 0.687500
vt 0.562500 0.650004
vt 0.564005 0.687500
vt 0.576620 0.687500
vt 0.578125 0.650004
vt 0.579630 0.687500
vt 0.592245 0.687500
vt 0.593750 0.650004
vt 0.595255 0.687500
vt 0.607870 0.687500
vt 0.616552 0.892027
vt 0.589205 0.932955
vt 0.500000 0.843750
vt 0.548277 0.960302
vt 0.500000 0.969905
vt 0.451723 0.960302
vt 0.410795 0.932955
vt 0.383448 0.892027
vt 0.373845 0.843750
vt 0.383448 0.795473
vt 0.410795 0.754545
vt 0.451723 0.727198
vt 0.500000 0.717595
vt 0.548277 0.727198
vt 0.589205 0.754545
vt 0.616552 0.795473
vt 0.626155 0.843750
vt 0.625000 0.575004
vt 0.625000 0.625849
vt 0.609375 0.575004
vt 0.609375 0.625849
vt 0.375000 0.625849
vt 0.375000 0.575004
vt 0.390625 0.625849
vt 0.390625 0.575004
vt 0.406250 0.625849
vt 0.406250 0.575004
vt 0.421875 0.625849
vt 0.421875 0.575004
vt 0.437500 0.625849
vt 0.437500 0.575004
vt 0.453125 0.625849
vt 0.453125 0.575004
vt 0.468750 0.625849
vt 0.468750 0.575004
vt 0.484375 0.625849
vt 0.484375 0.575004
vt 0.500000 0.625849
vt 0.500000 0.575004
vt 0.515625 0.625849
vt 0.515625 0.575004
vt 0.531250 0.625849
vt 0.531250 0.575004
vt 0.546875 0.625849
vt 0.546875 0.575004
vt 0.562500 0.625849
vt 0.562500 0.575004
vt 0.578125 0.625849
vt 0.578125 0.575004
vt 0.593750 0.625849
vt 0.593750 0.575004
vn 0.707107 0.000000 -0.707106
vn 0.687739 0.242959 -0.684095
vn 0.924035 0.000000 -0.382308
vn 0.924035 0.000000 -0.382308
vn 0.687739 0.242959 -0.684095
vn 0.898712 0.232302 -0.371958
vn 0.707107 0.000000 -0.707106
vn 0.383060 0.000000 -0.923724
vn 0.687739 0.242959 -0.684095
vn 0.687739 0.242959 -0.684095
vn 0.383060 0.000000 -0.923724
vn 0.371999 0.227122 -0.900018
vn 0.000000 0.000000 -1.000000
vn -0.002234 0.240902 -0.970547
vn 0.383060 0.000000 -0.923724
vn 0.383060 0.000000 -0.923724
vn -0.002234 0.240902 -0.970547
vn 0.371999 0.227122 -0.900018
vn 0.000000 0.000000 -1.000000
vn -0.383550 0.000000 -0.923520
vn -0.002234 0.240902 -0.970547
vn -0.002234 0.240902 -0.970547
vn -0.383550 0.000000 -0.923520
vn -0.372966 0.237086 -0.897043
vn -0.383550 0.000000 -0.923520
vn -0.707121 0.000000 -0.707092
vn -0.372966 0.237086 -0.897043
vn -0.372966 0.237086 -0.897043
vn -0.707121 0.000000 -0.707092
vn -0.687260 0.233005 -0.688028
vn -0.707121 0.000000 -0.707092
vn -0.924352 0.000000 -0.381542
vn -0.687260 0.233005 -0.688028
vn -0.687260 0.233005 -0.688028
vn -0.924352 0.000000 -0.381542
vn -0.897553 0.233639 -0.373914
vn -0.924352 0.000000 -0.381542
vn -1.000000 0.000000 0.000980
vn -0.897553 0.233639 -0.373914
vn -0.897553 0.233639 -0.373914
vn -1.000000 0.000000 0.000980
vn -0.972027 0.234865 0.001010
vn -1.000000 0.000000 0.000980
vn -0.923880 0.000000 0.382683
vn -0.972027 0.234865 0.001010
vn -0.972027 0.234865 0.001010
vn -0.923880 0.000000 0.382683
vn -0.897299 0.233802 0.374421
vn -0.923880 0.000000 0.382683
vn -0.707107 0.000000 0.707106
vn -0.897299 0.233802 0.374421
vn -0.897299 0.233802 0.374421
vn -0.707107 0.000000 0.707106
vn -0.685712 0.233802 0.689301
vn -0.707107 0.000000 0.707106
vn -0.382683 0.000000 0.923880
vn -0.685712 0.233802 0.689301
vn -0.685712 0.233802 0.689301
vn -0.382683 0.000000 0.923880
vn -0.369729 0.233802 0.899242
vn -0.382683 0.000000 0.923880
vn -0.000156 0.000000 1.000000
vn -0.369729 0.233802 0.899242
vn -0.369729 0.233802 0.899242
vn -0.000156 0.000000 1.000000
vn 0.000240 0.222067 0.975031
vn 0.382683 0.000000 0.923880
vn 0.369975 0.243326 0.896611
vn -0.000156 0.000000 1.000000
vn -0.000156 0.000000 1.000000
vn 0.369975 0.243326 0.896611
vn 0.000240 0.222067 0.975031
vn 0.382683 0.000000 0.923880
vn 0.708388 0.001008 0.705823
vn 0.369975 0.243326 0.896611
vn 0.369975 0.243326 0.896611
vn 0.708388 0.001008 0.705823
vn 0.690292 0.233634 0.684771
vn 0.924053 0.005491 0.382225
vn 0.901230 0.225002 0.370350
vn 0.708388 0.001008 0.705823
vn 0.708388 0.001008 0.705823
vn 0.901230 0.225002 0.370350
vn 0.690292 0.233634 0.684771
vn 0.999975 0.005630 0.004346
vn 0.970846 0.239685 0.002987
vn 0.924053 0.005491 0.382225
vn 0.924053 0.005491 0.382225
vn 0.970846 0.239685 0.002987
vn 0.901230 0.225002 0.370350
vn 0.924035 0.000000 -0.382308
vn 0.898712 0.232302 -0.371958
vn 0.999975 0.005630 0.004346
vn 0.999975 0.005630 0.004346
vn 0.898712 0.232302 -0.371958
vn 0.970846 0.239685 0.002987
vn 0.687739 0.242959 -0.684095
vn 0.702841 0.123632 -0.700521
vn 0.898712 0.232302 -0.371958
vn 0.898712 0.232302 -0.371958
vn 0.702841 0.123632 -0.700521
vn 0.919579 0.115613 -0.375509
vn 0.687739 0.242959 -0.684095
vn 0.371999 0.227122 -0.900018
vn 0.702841 0.123632 -0.700521
vn 0.702841 0.123632 -0.700521
vn 0.371999 0.227122 -0.900018
vn 0.380448 0.107967 -0.918478
vn -0.002234 0.240902 -0.970547
vn -0.001441 0.123324 -0.992365
vn 0.371999 0.227122 -0.900018
vn 0.371999 0.227122 -0.900018
vn -0.001441 0.123324 -0.992365
vn 0.380448 0.107967 -0.918478
vn -0.002234 0.240902 -0.970547
vn -0.372966 0.237086 -0.897043
vn -0.001441 0.123324 -0.992365
vn -0.001441 0.123324 -0.992365
vn -0.372966 0.237086 -0.897043
vn -0.381765 0.115676 -0.916992
vn -0.372966 0.237086 -0.897043
vn -0.687260 0.233005 -0.688028
vn -0.381765 0.115676 -0.916992
vn -0.381765 0.115676 -0.916992
vn -0.687260 0.233005 -0.688028
vn -0.702094 0.115929 -0.702584
vn -0.687260 0.233005 -0.688028
vn -0.897553 0.233639 -0.373914
vn -0.702094 0.115929 -0.702584
vn -0.702094 0.115929 -0.702584
vn -0.897553 0.233639 -0.373914
vn -0.917502 0.117157 -0.380086
vn -0.897553 0.233639 -0.373914
vn -0.972027 0.234865 0.001010
vn -0.917502 0.117157 -0.380086
vn -0.917502 0.117157 -0.380086
vn -0.972027 0.234865 0.001010
vn -0.993012 0.118000 0.001616
vn -0.972027 0.234865 0.001010
vn -0.897299 0.233802 0.374421
vn -0.993012 0.118000 0.001616
vn -0.993012 0.118000 0.001616
vn -0.897299 0.233802 0.374421
vn -0.916805 0.118000 0.381502
vn -0.897299 0.233802 0.374421
vn -0.685712 0.233802 0.689301
vn -0.916805 0.118000 0.381502
vn -0.916805 0.118000 0.381502
vn -0.685712 0.233802 0.689301
vn -0.701023 0.118001 0.703308
vn -0.685712 0.233802 0.689301
vn -0.369729 0.233802 0.899242
vn -0.701023 0.118001 0.703308
vn -0.701023 0.118001 0.703308
vn -0.369729 0.233802 0.899242
vn -0.378516 0.118001 0.918042
vn -0.369729 0.233802 0.899242
vn 0.000240 0.222067 0.975031
vn -0.378516 0.118001 0.918042
vn -0.378516 0.118001 0.918042
vn 0.000240 0.222067 0.975031
vn -0.000001 0.109174 0.994023
vn 0.369975 0.243326 0.896611
vn 0.378783 0.126620 0.916783
vn 0.000240 0.222067 0.975031
vn 0.000240 0.222067 0.975031
vn 0.378783 0.126620 0.916783
vn -0.000001 0.109174 0.994023
vn 0.369975 0.243326 0.896611
vn 0.690292 0.233634 0.684771
vn 0.378783 0.126620 0.916783
vn 0.378783 0.126620 0.916783
vn 0.690292 0.233634 0.684771
vn 0.705365 0.118845 0.698810
vn 0.690292 0.233634 0.684771
vn 0.901230 0.225002 0.370350
vn 0.705365 0.118845 0.698810
vn 0.705365 0.118845 0.698810
vn 0.901230 0.225002 0.370350
vn 0.920112 0.108196 0.376415
vn 0.970846 0.239685 0.002987
vn 0.993291 0.115391 0.007606
vn 0.901230 0.225002 0.370350
vn 0.901230 0.225002 0.370350
vn 0.993291 0.115391 0.007606
vn 0.920112 0.108196 0.376415
vn 0.898712 0.232302 -0.371958
vn 0.919579 0.115613 -0.375509
vn 0.970846 0.239685 0.002987
vn 0.970846 0.239685 0.002987
vn 0.919579 0.115613 -0.375509
vn 0.993291 0.115391 0.007606
vn 0.919579 0.115613 -0.375509
vn 0.702841 0.123632 -0.700521
vn 0.923879 0.000000 -0.382684
vn 0.923879 0.000000 -0.382684
vn 0.702841 0.123632 -0.700521
vn 0.707108 0.000000 -0.707106
vn 0.702841 0.123632 -0.700521
vn 0.380448 0.107967 -0.918478
vn 0.707108 0.000000 -0.707106
vn 0.707108 0.000000 -0.707106
vn 0.380448 0.107967 -0.918478
vn 0.382685 0.000000 -0.923879
vn 0.380448 0.107967 -0.918478
vn -0.001441 0.123324 -0.992365
vn 0.382685 0.000000 -0.923879
vn 0.382685 0.000000 -0.923879
vn -0.001441 0.123324 -0.992365
vn 0.000000 0.000000 -1.000000
vn -0.001441 0.123324 -0.992365
vn -0.381765 0.115676 -0.916992
vn 0.000000 0.000000 -1.000000
vn 0.000000 0.000000 -1.000000
vn -0.381765 0.115676 -0.916992
vn -0.382683 0.000000 -0.923880
vn -0.381765 0.115676 -0.916992
vn -0.702094 0.115929 -0.702584
vn -0.382683 0.000000 -0.923880
vn -0.382683 0.000000 -0.923880
vn -0.702094 0.115929 -0.702584
vn -0.707106 0.000000 -0.707107
vn -0.702094 0.115929 -0.702584
vn -0.917502 0.117157 -0.380086
vn -0.707106 0.000000 -0.707107
vn -0.707106 0.000000 -0.707107
vn -0.917502 0.117157 -0.380086
vn -0.923880 0.000000 -0.382683
vn -0.917502 0.117157 -0.380086
vn -0.993012 0.118000 0.001616
vn -0.923880 0.000000 -0.382683
vn -0.923880 0.000000 -0.382683
vn -0.993012 0.118000 0.001616
vn -1.000000 0.000000 0.000000
vn -0.993012 0.118000 0.001616
vn -0.916805 0.118000 0.381502
vn -1.000000 0.000000 0.000000
vn -1.000000 0.000000 0.000000
vn -0.916805 0.118000 0.381502
vn -0.923880 0.000000 0.382683
vn -0.916805 0.118000 0.381502
vn -0.701023 0.118001 0.703308
vn -0.923880 0.000000 0.382683
vn -0.923880 0.000000 0.382683
vn -0.701023 0.118001 0.703308
vn -0.707107 0.000000 0.707106
vn -0.701023 0.118001 0.703308
vn -0.378516 0.118001 0.918042
vn -0.707107 0.000000 0.707106
vn -0.707107 0.000000 0.707106
vn -0.378516 0.118001 0.918042
vn -0.382683 0.000000 0.923880
vn -0.378516 0.118001 0.918042
vn -0.000001 0.109174 0.994023
vn -0.382683 0.000000 0.923880
vn -0.382683 0.000000 0.923880
vn -0.000001 0.109174 0.994023
vn 0.000000 0.000000 1.000000
vn -0.000001 0.109174 0.994023
vn 0.378783 0.126620 0.916783
vn 0.000000 0.000000 1.000000
vn 0.000000 0.000000 1.000000
vn 0.378783 0.126620 0.916783
vn 0.382684 0.000000 0.923879
vn 0.378783 0.126620 0.916783
vn 0.705365 0.118845 0.698810
vn 0.382684 0.000000 0.923879
vn 0.382684 0.000000 0.923879
vn 0.705365 0.118845 0.698810
vn 0.707449 -0.000550 0.706764
vn 0.705365 0.118845 0.698810
vn 0.920112 0.108196 0.376415
vn 0.707449 -0.000550 0.706764
vn 0.707449 -0.000550 0.706764
vn 0.920112 0.108196 0.376415
vn 0.924022 -0.001660 0.382337
vn 0.920112 0.108196 0.376415
vn 0.993291 0.115391 0.007606
vn 0.924022 -0.001660 0.382337
vn 0.924022 -0.001660 0.382337
vn 0.993291 0.115391 0.007606
vn 0.999999 -0.001199 0.001016
vn 0.993291 0.115391 0.007606
vn 0.919579 0.115613 -0.375509
vn 0.999999 -0.001199 0.001016
vn 0.999999 -0.001199 0.001016
vn 0.919579 0.115613 -0.375509
vn 0.923879 0.000000 -0.382684
vn 0.000000 -1.000000 0.000000
vn 0.000000 -1.000000 0.000000
vn 0.000000 -1.000000 0.000000
vn 0.000000 -1.000000 0.000000
vn 0.000000 -1.000000 0.000000
vn 0.000000 -1.000000 0.000000
vn 0.000000 -1.000000 0.000000
vn 0.000000 -1.000000 0.000000
vn 0.000000 -1.000000 0.000000
vn 0.000000 -1.000000 0.000000
vn 0.000000 -1.000000 0.000000
vn 0.000000 -1.000000 0.000000
vn 0.000000 -1.000000 0.000000
vn 0.000000 -1.000000 0.000000
vn 0.000000 -1.000000 0.000000
vn 0.000000 -1.000000 0.000000
vn 0.000000 -1.000000 0.000000
vn 0.000000 -1.000000 0.000000
vn 0.000000 -1.000000 0.000000
vn 0.000000 -1.000000 0.000000
vn 0.000000 -1.000000 0.000000
vn 0.000000 -1.000000 0.000000
vn 0.000000 -1.000000 0.000000
vn 0.000000 -1.000000 0.000000
vn 0.000000 -1.000000 0.000000
vn 0.000000 -1.000000 0.000000
vn 0.000000 -1.000000 0.000000
vn 0.000000 -1.000000 0.000000
vn 0.000000 -1.000000 0.000000
vn 0.000000 -1.000000 0.000000
vn 0.000000 -1.000000 0.000000
vn 0.000000 -1.000000 0.000000
vn 0.000000 -1.000000 0.000000
vn 0.000000 -1.000000 0.000000
vn 0.000000 -1.000000 0.000000
vn 0.000000 -1.000000 0.000000
vn 0.000000 -1.000000 0.000000
vn 0.000000 -1.000000 0.000000
vn 0.000000 -1.000000 0.000000
vn 0.000000 -1.000000 0.000000
vn 0.000000 -1.000000 0.000000
vn 0.000000 -1.000000 0.000000
vn 0.000000 -1.000000 0.000000
vn 0.000000 -1.000000 0.000000
vn 0.000000 -1.000000 0.000000
vn 0.000000 -1.000000 0.000000
vn 0.000000 -1.000000 0.000000
vn 0.000000 -1.000000 0.000000
vn 0.715131 0.637694 -0.286243
vn 0.715903 0.637680 -0.284337
vn 0.770234 0.637694 0.009216
vn 0.770234 0.637694 0.009216
vn 0.715903 0.637680 -0.284337
vn 0.770218 0.637681 0.011272
vn 0.715903 0.637680 -0.284337
vn 0.715131 0.637694 -0.286243
vn 0.552596 0.637681 -0.536656
vn 0.552596 0.637681 -0.536656
vn 0.715131 0.637694 -0.286243
vn 0.551154 0.637695 -0.538121
vn 0.552596 0.637681 -0.536656
vn 0.551154 0.637695 -0.538121
vn 0.305164 0.637682 -0.707274
vn 0.305164 0.637682 -0.707274
vn 0.551154 0.637695 -0.538121
vn 0.303271 0.637695 -0.708076
vn 0.305164 0.637682 -0.707274
vn 0.303271 0.637695 -0.708076
vn 0.011272 0.637680 -0.770219
vn 0.011272 0.637680 -0.770219
vn 0.303271 0.637695 -0.708076
vn 0.009215 0.637693 -0.770235
vn 0.011272 0.637680 -0.770219
vn 0.009215 0.637693 -0.770235
vn -0.284336 0.637681 -0.715903
vn -0.284336 0.637681 -0.715903
vn 0.009215 0.637693 -0.770235
vn -0.286242 0.637694 -0.715131
vn -0.284336 0.637681 -0.715903
vn -0.286242 0.637694 -0.715131
vn -0.536657 0.637680 -0.552597
vn -0.536657 0.637680 -0.552597
vn -0.286242 0.637694 -0.715131
vn -0.538122 0.637693 -0.551155
vn -0.536657 0.637680 -0.552597
vn -0.538122 0.637693 -0.551155
vn -0.707276 0.637680 -0.305164
vn -0.707276 0.637680 -0.305164
vn -0.538122 0.637693 -0.551155
vn -0.708078 0.637694 -0.303271
vn -0.707276 0.637680 -0.305164
vn -0.708078 0.637694 -0.303271
vn -0.770219 0.637680 -0.011270
vn -0.770219 0.637680 -0.011270
vn -0.708078 0.637694 -0.303271
vn -0.770235 0.637694 -0.009215
vn -0.770219 0.637680 -0.011270
vn -0.770235 0.637694 -0.009215
vn -0.715902 0.637681 0.284335
vn -0.715902 0.637681 0.284335
vn -0.770235 0.637694 -0.009215
vn -0.715130 0.637695 0.286241
vn -0.715902 0.637681 0.284335
vn -0.715130 0.637695 0.286241
vn -0.552597 0.637681 0.536656
vn -0.552597 0.637681 0.536656
vn -0.715130 0.637695 0.286241
vn -0.551154 0.637695 0.538122
vn -0.552597 0.637681 0.536656
vn -0.551154 0.637695 0.538122
vn -0.305163 0.637682 0.707275
vn -0.305163 0.637682 0.707275
vn -0.551154 0.637695 0.538122
vn -0.303269 0.637695 0.708076
vn -0.305163 0.637682 0.707275
vn -0.303269 0.637695 0.708076
vn -0.011272 0.637681 0.770218
vn -0.011272 0.637681 0.770218
vn -0.303269 0.637695 0.708076
vn -0.009215 0.637694 0.770235
vn -0.011272 0.637681 0.770218
vn -0.009215 0.637694 0.770235
vn 0.284336 0.637681 0.715902
vn 0.284336 0.637681 0.715902
vn -0.009215 0.637694 0.770235
vn 0.286242 0.637694 0.715130
vn 0.284336 0.637681 0.715902
vn 0.286242 0.637694 0.715130
vn 0.536655 0.637681 0.552597
vn 0.536655 0.637681 0.552597
vn 0.286242 0.637694 0.715130
vn 0.538122 0.637694 0.551154
vn 0.536655 0.637681 0.552597
vn 0.538122 0.637694 0.551154
vn 0.707277 0.637678 0.305164
vn 0.707277 0.637678 0.305164
vn 0.538122 0.637694 0.551154
vn 0.708079 0.637692 0.303270
vn 0.707277 0.637678 0.305164
vn 0.708079 0.637692 0.303270
vn 0.770218 0.637681 0.011272
vn 0.770218 0.637681 0.011272
vn 0.708079 0.637692 0.303270
vn 0.770234 0.637694 0.009216
vn 0.000000 1.000000 0.000000
vn 0.000000 1.000000 0.000000
vn 0.000000 1.000000 0.000000
vn 0.000000 1.000000 0.000000
vn 0.000000 1.000000 0.000000
vn 0.000000 1.000000 0.000000
vn 0.000000 1.000000 0.000000
vn 0.000000 1.000000 0.000000
vn 0.000000 1.000000 0.000000
vn 0.000000 1.000000 0.000000
vn 0.000000 1.000000 0.000000
vn 0.000000 1.000000 0.000000
vn 0.000000 1.000000 0.000000
vn 0.000000 1.000000 0.000000
vn 0.000000 1.000000 0.000000
vn 0.000000 1.000000 0.000000
vn 0.000000 1.000000 0.000000
vn 0.000000 1.000000 0.000000
vn 0.000000 1.000000 0.000000
vn 0.000000 1.000000 0.000000
vn 0.000000 1.000000 0.000000
vn 0.000000 1.000000 0.000000
vn 0.000000 1.000000 0.000000
vn 0.000000 1.000000 0.000000
vn 0.000000 1.000000 0.000000
vn 0.000000 1.000000 0.000000
vn 0.000000 1.000000 0.000000
vn 0.000000 1.000000 0.000000
vn 0.000000 1.000000 0.000000
vn 0.000000 1.000000 0.000000
vn 0.000000 1.000000 0.000000
vn 0.000000 1.000000 0.000000
vn 0.000000 1.000000 0.000000
vn 0.000000 1.000000 0.000000
vn 0.000000 1.000000 0.000000
vn 0.000000 1.000000 0.000000
vn 0.000000 1.000000 0.000000
vn 0.000000 1.000000 0.000000
vn 0.000000 1.000000 0.000000
vn 0.000000 1.000000 0.000000
vn 0.000000 1.000000 0.000000
vn 0.000000 1.000000 0.000000
vn 0.000000 1.000000 0.000000
vn 0.000000 1.000000 0.000000
vn 0.000000 1.000000 0.000000
vn 0.000000 1.000000 0.000000
vn 0.000000 1.000000 0.000000
vn 0.000000 1.000000 0.000000
vn 0.721771 -0.620430 -0.306779
vn 0.721991 -0.620432 -0.306256
vn 0.784228 -0.620431 -0.007218
vn 0.784228 -0.620431 -0.007218
vn 0.721991 -0.620432 -0.306256
vn 0.784231 -0.620434 -0.006650
vn 0.721991 -0.620432 -0.306256
vn 0.721771 -0.620430 -0.306779
vn 0.549834 -0.620433 -0.559237
vn 0.549834 -0.620433 -0.559237
vn 0.721771 -0.620430 -0.306779
vn 0.549429 -0.620431 -0.559636
vn 0.549834 -0.620433 -0.559237
vn 0.549429 -0.620431 -0.559636
vn 0.293968 -0.620433 -0.727080
vn 0.293968 -0.620433 -0.727080
vn 0.549429 -0.620431 -0.559636
vn 0.293443 -0.620430 -0.727295
vn 0.293968 -0.620433 -0.727080
vn 0.293443 -0.620430 -0.727295
vn -0.006650 -0.620433 -0.784231
vn -0.006650 -0.620433 -0.784231
vn 0.293443 -0.620430 -0.727295
vn -0.007218 -0.620431 -0.784228
vn -0.006650 -0.620433 -0.784231
vn -0.007218 -0.620431 -0.784228
vn -0.306256 -0.620434 -0.721990
vn -0.306256 -0.620434 -0.721990
vn -0.007218 -0.620431 -0.784228
vn -0.306779 -0.620431 -0.721770
vn -0.306256 -0.620434 -0.721990
vn -0.306779 -0.620431 -0.721770
vn -0.559237 -0.620433 -0.549834
vn -0.559237 -0.620433 -0.549834
vn -0.306779 -0.620431 -0.721770
vn -0.559637 -0.620430 -0.549430
vn -0.559237 -0.620433 -0.549834
vn -0.559637 -0.620430 -0.549430
vn -0.727080 -0.620433 -0.293969
vn -0.727080 -0.620433 -0.293969
vn -0.559637 -0.620430 -0.549430
vn -0.727294 -0.620431 -0.293443
vn -0.727080 -0.620433 -0.293969
vn -0.727294 -0.620431 -0.293443
vn -0.784231 -0.620433 0.006650
vn -0.784231 -0.620433 0.006650
vn -0.727294 -0.620431 -0.293443
vn -0.784228 -0.620431 0.007218
vn -0.784231 -0.620433 0.006650
vn -0.784228 -0.620431 0.007218
vn -0.721991 -0.620433 0.306255
vn -0.721991 -0.620433 0.306255
vn -0.784228 -0.620431 0.007218
vn -0.721771 -0.620430 0.306779
vn -0.721991 -0.620433 0.306255
vn -0.721771 -0.620430 0.306779
vn -0.549833 -0.620434 0.559237
vn -0.549833 -0.620434 0.559237
vn -0.721771 -0.620430 0.306779
vn -0.549429 -0.620432 0.559636
vn -0.549833 -0.620434 0.559237
vn -0.549429 -0.620432 0.559636
vn -0.293968 -0.620435 0.727079
vn -0.293968 -0.620435 0.727079
vn -0.549429 -0.620432 0.559636
vn -0.293442 -0.620432 0.727293
vn -0.293968 -0.620435 0.727079
vn -0.293442 -0.620432 0.727293
vn 0.006649 -0.620432 0.784232
vn 0.006649 -0.620432 0.784232
vn -0.293442 -0.620432 0.727293
vn 0.007217 -0.620429 0.784229
vn 0.006649 -0.620432 0.784232
vn 0.007217 -0.620429 0.784229
vn 0.306256 -0.620432 0.721991
vn 0.306256 -0.620432 0.721991
vn 0.007217 -0.620429 0.784229
vn 0.306780 -0.620429 0.721771
vn 0.306256 -0.620432 0.721991
vn 0.306780 -0.620429 0.721771
vn 0.559239 -0.620431 0.549834
vn 0.559239 -0.620431 0.549834
vn 0.306780 -0.620429 0.721771
vn 0.559638 -0.620429 0.549430
vn 0.559239 -0.620431 0.549834
vn 0.559638 -0.620429 0.549430
vn 0.727081 -0.620432 0.293969
vn 0.727081 -0.620432 0.293969
vn 0.559638 -0.620429 0.549430
vn 0.727295 -0.620429 0.293443
vn 0.727081 -0.620432 0.293969
vn 0.727295 -0.620429 0.293443
vn 0.784231 -0.620434 -0.006650
vn 0.784231 -0.620434 -0.006650
vn 0.727295 -0.620429 0.293443
vn 0.784228 -0.620431 -0.007218
vn 0.226320 -0.969799 -0.090940
vn 0.174292 -0.969799 -0.170624
vn 0.226235 -0.969799 -0.091145
vn 0.226235 -0.969799 -0.091145
vn 0.174292 -0.969799 -0.170624
vn 0.174135 -0.969799 -0.170782
vn 0.174292 -0.969799 -0.170624
vn 0.095730 -0.969798 -0.224337
vn 0.174135 -0.969799 -0.170782
vn 0.174135 -0.969799 -0.170782
vn 0.095730 -0.969798 -0.224337
vn 0.095524 -0.969799 -0.224423
vn 0.095730 -0.969798 -0.224337
vn 0.002592 -0.969798 -0.243895
vn 0.095524 -0.969799 -0.224423
vn 0.095524 -0.969799 -0.224423
vn 0.002592 -0.969798 -0.243895
vn 0.002370 -0.969799 -0.243895
vn 0.002592 -0.969798 -0.243895
vn -0.090939 -0.969798 -0.226322
vn 0.002370 -0.969799 -0.243895
vn 0.002370 -0.969799 -0.243895
vn -0.090939 -0.969798 -0.226322
vn -0.091145 -0.969799 -0.226237
vn -0.090939 -0.969798 -0.226322
vn -0.170627 -0.969798 -0.174294
vn -0.091145 -0.969799 -0.226237
vn -0.091145 -0.969799 -0.226237
vn -0.170627 -0.969798 -0.174294
vn -0.170785 -0.969799 -0.174136
vn -0.170627 -0.969798 -0.174294
vn -0.224338 -0.969798 -0.095730
vn -0.170785 -0.969799 -0.174136
vn -0.170785 -0.969799 -0.174136
vn -0.224338 -0.969798 -0.095730
vn -0.224423 -0.969799 -0.095524
vn -0.224338 -0.969798 -0.095730
vn -0.243895 -0.969798 -0.002592
vn -0.224423 -0.969799 -0.095524
vn -0.224423 -0.969799 -0.095524
vn -0.243895 -0.969798 -0.002592
vn -0.243895 -0.969799 -0.002370
vn -0.243895 -0.969798 -0.002592
vn -0.226322 -0.969798 0.090939
vn -0.243895 -0.969799 -0.002370
vn -0.243895 -0.969799 -0.002370
vn -0.226322 -0.969798 0.090939
vn -0.226237 -0.969799 0.091145
vn -0.226322 -0.969798 0.090939
vn -0.174293 -0.969798 0.170627
vn -0.226237 -0.969799 0.091145
vn -0.226237 -0.969799 0.091145
vn -0.174293 -0.969798 0.170627
vn -0.174136 -0.969799 0.170785
vn -0.174293 -0.969798 0.170627
vn -0.095730 -0.969798 0.224338
vn -0.174136 -0.969799 0.170785
vn -0.174136 -0.969799 0.170785
vn -0.095730 -0.969798 0.224338
vn -0.095524 -0.969799 0.224423
vn -0.095730 -0.969798 0.224338
vn -0.002593 -0.969798 0.243894
vn -0.095524 -0.969799 0.224423
vn -0.095524 -0.969799 0.224423
vn -0.002593 -0.969798 0.243894
vn -0.002370 -0.969799 0.243894
vn -0.002593 -0.969798 0.243894
vn 0.090939 -0.969799 0.226320
vn -0.002370 -0.969799 0.243894
vn -0.002370 -0.969799 0.243894
vn 0.090939 -0.969799 0.226320
vn 0.091145 -0.969799 0.226235
vn 0.090939 -0.969799 0.226320
vn 0.170625 -0.969799 0.174292
vn 0.091145 -0.969799 0.226235
vn 0.091145 -0.969799 0.226235
vn 0.170625 -0.969799 0.174292
vn 0.170783 -0.969799 0.174134
vn 0.170625 -0.969799 0.174292
vn 0.224337 -0.969798 0.095729
vn 0.170783 -0.969799 0.174134
vn 0.170783 -0.969799 0.174134
vn 0.224337 -0.969798 0.095729
vn 0.224422 -0.969799 0.095524
vn 0.224337 -0.969798 0.095729
vn 0.243894 -0.969798 0.002593
vn 0.224422 -0.969799 0.095524
vn 0.224422 -0.969799 0.095524
vn 0.243894 -0.969798 0.002593
vn 0.243894 -0.969799 0.002370
vn 0.243894 -0.969798 0.002593
vn 0.226320 -0.969799 -0.090940
vn 0.243894 -0.969799 0.002370
vn 0.243894 -0.969799 0.002370
vn 0.226320 -0.969799 -0.090940
vn 0.226235 -0.969799 -0.091145
vn 0.923880 0.000000 -0.382683
vn 0.707107 0.000000 -0.707106
vn 0.923880 0.000000 -0.382683
vn 0.923880 0.000000 -0.382683
vn 0.707107 0.000000 -0.707106
vn 0.707107 0.000000 -0.707106
vn 0.707107 0.000000 -0.707106
vn 0.382684 0.000000 -0.923879
vn 0.707107 0.000000 -0.707106
vn 0.707107 0.000000 -0.707106
vn 0.382684 0.000000 -0.923879
vn 0.382684 0.000000 -0.923879
vn 0.382684 0.000000 -0.923879
vn 0.000000 0.000000 -1.000000
vn 0.382684 0.000000 -0.923879
vn 0.382684 0.000000 -0.923879
vn 0.000000 0.000000 -1.000000
vn 0.000000 0.000000 -1.000000
vn 0.000000 0.000000 -1.000000
vn -0.382683 0.000000 -0.923880
vn 0.000000 0.000000 -1.000000
vn 0.000000 0.000000 -1.000000
vn -0.382683 0.000000 -0.923880
vn -0.382683 0.000000 -0.923880
vn -0.382683 0.000000 -0.923880
vn -0.707106 0.000000 -0.707107
vn -0.382683 0.000000 -0.923880
vn -0.382683 0.000000 -0.923880
vn -0.707106 0.000000 -0.707107
vn -0.707106 0.000000 -0.707107
vn -0.707106 0.000000 -0.707107
vn -0.923879 0.000000 -0.382684
vn -0.707106 0.000000 -0.707107
vn -0.707106 0.000000 -0.707107
vn -0.923879 0.000000 -0.382684
vn -0.923879 0.000000 -0.382684
vn -0.923879 0.000000 -0.382684
vn -1.000000 0.000000 0.000000
vn -0.923879 0.000000 -0.382684
vn -0.923879 0.000000 -0.382684
vn -1.000000 0.000000 0.000000
vn -1.000000 0.000000 0.000000
vn -1.000000 0.000000 0.000000
vn -0.923880 0.000000 0.382683
vn -1.000000 0.000000 0.000000
vn -1.000000 0.000000 0.000000
vn -0.923880 0.000000 0.382683
vn -0.923880 0.000000 0.382683
vn -0.923880 0.000000 0.382683
vn -0.707108 0.000000 0.707106
vn -0.923880 0.000000 0.382683
vn -0.923880 0.000000 0.382683
vn -0.707108 0.000000 0.707106
vn -0.707108 0.000000 0.707106
vn -0.707108 0.000000 0.707106
vn -0.382683 0.000000 0.923880
vn -0.707108 0.000000 0.707106
vn -0.707108 0.000000 0.707106
vn -0.382683 0.000000 0.923880
vn -0.382683 0.000000 0.923880
vn -0.382683 0.000000 0.923880
vn 0.000000 0.000000 1.000000
vn -0.382683 0.000000 0.923880
vn -0.382683 0.000000 0.923880
vn 0.000000 0.000000 1.000000
vn 0.000000 0.000000 1.000000
vn 0.000000 0.000000 1.000000
vn 0.382683 0.000000 0.923880
vn 0.000000 0.000000 1.000000
vn 0.000000 0.000000 1.000000
vn 0.382683 0.000000 0.923880
vn 0.382683 0.000000 0.923880
vn 0.382683 0.000000 0.923880
vn 0.707107 0.000000 0.707106
vn 0.382683 0.000000 0.923880
vn 0.382683 0.000000 0.923880
vn 0.707107 0.000000 0.707106
vn 0.707107 0.000000 0.707107
vn 0.707107 0.000000 0.707106
vn 0.923879 0.000000 0.382684
vn 0.707107 0.000000 0.707107
vn 0.707107 0.000000 0.707107
vn 0.923879 0.000000 0.382684
vn 0.923879 0.000000 0.382684
vn 0.923879 0.000000 0.382684
vn 1.000000 0.000000 0.000000
vn 0.923879 0.000000 0.382684
vn 0.923879 0.000000 0.382684
vn 1.000000 0.000000 0.000000
vn 1.000000 0.000000 0.000000
vn 1.000000 0.000000 0.000000
vn 0.923880 0.000000 -0.382683
vn 1.000000 0.000000 0.000000
vn 1.000000 0.000000 0.000000
vn 0.923880 0.000000 -0.382683
vn 0.923880 0.000000 -0.382683
s off
g Pillar:pasted__pasted__pasted__pCylinder1pasted__pasted__group11pasted__group13group14
usemtl Pillar:pasted__pasted__lambert4SG1
f 2/1/1 18/2/2 1/3/3
f 1/3/4 18/2/5 17/4/6
f 2/1/7 3/5/8 18/2/9
f 18/2/10 3/5/11 19/6/12
f 4/7/13 20/8/14 3/5/15
f 3/5/16 20/8/17 19/6/18
f 4/7/19 5/9/20 20/8/21
f 20/8/22 5/9/23 21/10/24
f 5/9/25 6/11/26 21/10/27
f 21/10/28 6/11/29 22/12/30
f 6/11/31 7/13/32 22/12/33
f 22/12/34 7/13/35 23/14/36
f 7/13/37 8/15/38 23/14/39
f 23/14/40 8/15/41 24/16/42
f 8/15/43 9/17/44 24/16/45
f 24/16/46 9/17/47 25/18/48
f 9/17/49 10/19/50 25/18/51
f 25/18/52 10/19/53 26/20/54
f 10/19/55 11/21/56 26/20/57
f 26/20/58 11/21/59 27/22/60
f 11/21/61 12/23/62 27/22/63
f 27/22/64 12/23/65 28/24/66
f 13/25/67 29/26/68 12/23/69
f 12/23/70 29/26/71 28/24/72
f 13/25/73 14/27/74 29/26/75
f 29/26/76 14/27/77 30/28/78
f 15/29/79 31/30/80 14/27/81
f 14/27/82 31/30/83 30/28/84
f 16/31/85 32/32/86 15/29/87
f 15/29/88 32/32/89 31/30/90
f 1/33/91 17/34/92 16/31/93
f 16/31/94 17/34/95 32/32/96
f 18/2/97 34/35/98 17/4/99
f 17/4/100 34/35/101 33/36/102
f 18/2/103 19/6/104 34/35/105
f 34/35/106 19/6/107 35/37/108
f 20/8/109 36/38/110 19/6/111
f 19/6/112 36/38/113 35/37/114
f 20/8/115 21/10/116 36/38/117
f 36/38/118 21/10/119 37/39/120
f 21/10/121 22/12/122 37/39/123
f 37/39/124 22/12/125 38/40/126
f 22/12/127 23/14/128 38/40/129
f 38/40/130 23/14/131 39/41/132
f 23/14/133 24/16/134 39/41/135
f 39/41/136 24/16/137 40/42/138
f 24/16/139 25/18/140 40/42/141
f 40/42/142 25/18/143 41/43/144
f 25/18/145 26/20/146 41/43/147
f 41/43/148 26/20/149 42/44/150
f 26/20/151 27/22/152 42/44/153
f 42/44/154 27/22/155 43/45/156
f 27/22/157 28/24/158 43/45/159
f 43/45/160 28/24/161 44/46/162
f 29/26/163 45/47/164 28/24/165
f 28/24/166 45/47/167 44/46/168
f 29/26/169 30/28/170 45/47/171
f 45/47/172 30/28/173 46/48/174
f 30/28/175 31/30/176 46/48/177
f 46/48/178 31/30/179 47/49/180
f 32/32/181 48/50/182 31/30/183
f 31/30/184 48/50/185 47/49/186
f 17/34/187 33/51/188 32/32/189
f 32/32/190 33/51/191 48/50/192
usemtl Pillar:pasted__pasted__lambert2SG1
f 33/36/193 34/35/194 49/52/195
f 49/52/196 34/35/197 50/53/198
f 34/35/199 35/37/200 50/53/201
f 50/53/202 35/37/203 51/54/204
f 35/37/205 36/38/206 51/54/207
f 51/54/208 36/38/209 52/55/210
f 36/38/211 37/39/212 52/55/213
f 52/55/214 37/39/215 53/56/216
f 37/39/217 38/40/218 53/56/219
f 53/56/220 38/40/221 54/57/222
f 38/40/223 39/41/224 54/57/225
f 54/57/226 39/41/227 55/58/228
f 39/41/229 40/42/230 55/58/231
f 55/58/232 40/42/233 56/59/234
f 40/42/235 41/43/236 56/59/237
f 56/59/238 41/43/239 57/60/240
f 41/43/241 42/44/242 57/60/243
f 57/60/244 42/44/245 58/61/246
f 42/44/247 43/45/248 58/61/249
f 58/61/250 43/45/251 59/62/252
f 43/45/253 44/46/254 59/62/255
f 59/62/256 44/46/257 60/63/258
f 44/46/259 45/47/260 60/63/261
f 60/63/262 45/47/263 61/64/264
f 45/47/265 46/48/266 61/64/267
f 61/64/268 46/48/269 62/65/270
f 46/48/271 47/49/272 62/65/273
f 62/65/274 47/49/275 63/66/276
f 47/49/277 48/50/278 63/66/279
f 63/66/280 48/50/281 64/67/282
f 48/50/283 33/51/284 64/67/285
f 64/67/286 33/51/287 49/68/288
usemtl Pillar:pasted__pasted__lambert4SG1
f 2/69/289 1/70/290 65/71/291
f 3/72/292 2/69/293 65/71/294
f 4/73/295 3/72/296 65/71/297
f 5/74/298 4/73/299 65/71/300
f 6/75/301 5/74/302 65/71/303
f 7/76/304 6/75/305 65/71/306
f 8/77/307 7/76/308 65/71/309
f 9/78/310 8/77/311 65/71/312
f 10/79/313 9/78/314 65/71/315
f 11/80/316 10/79/317 65/71/318
f 12/81/319 11/80/320 65/71/321
f 13/82/322 12/81/323 65/71/324
f 14/83/325 13/82/326 65/71/327
f 15/84/328 14/83/329 65/71/330
f 16/85/331 15/84/332 65/71/333
f 1/70/334 16/85/335 65/71/336
f 67/86/337 68/87/338 97/88/339
f 97/88/340 68/87/341 98/89/342
f 68/90/343 67/91/344 70/92/345
f 70/92/346 67/91/347 69/93/348
f 70/94/349 69/93/350 72/95/351
f 72/95/352 69/93/353 71/96/354
f 72/97/355 71/96/356 74/98/357
f 74/98/358 71/96/359 73/99/360
f 74/100/361 73/99/362 76/101/363
f 76/101/364 73/99/365 75/102/366
f 76/103/367 75/102/368 78/104/369
f 78/104/370 75/102/371 77/105/372
f 78/106/373 77/105/374 80/107/375
f 80/107/376 77/105/377 79/108/378
f 80/109/379 79/108/380 82/110/381
f 82/110/382 79/108/383 81/111/384
f 82/112/385 81/111/386 84/113/387
f 84/113/388 81/111/389 83/114/390
f 84/115/391 83/114/392 86/116/393
f 86/116/394 83/114/395 85/117/396
f 86/118/397 85/117/398 88/119/399
f 88/119/400 85/117/401 87/120/402
f 88/121/403 87/120/404 90/122/405
f 90/122/406 87/120/407 89/123/408
f 90/124/409 89/123/410 92/125/411
f 92/125/412 89/123/413 91/126/414
f 92/127/415 91/126/416 94/128/417
f 94/128/418 91/126/419 93/129/420
f 94/130/421 93/129/422 96/131/423
f 96/131/424 93/129/425 95/132/426
f 96/133/427 95/132/428 98/134/429
f 98/134/430 95/132/431 97/88/432
f 68/135/433 70/136/434 66/137/435
f 70/136/436 72/138/437 66/137/438
f 72/138/439 74/139/440 66/137/441
f 74/139/442 76/140/443 66/137/444
f 76/140/445 78/141/446 66/137/447
f 78/141/448 80/142/449 66/137/450
f 80/142/451 82/143/452 66/137/453
f 82/143/454 84/144/455 66/137/456
f 84/144/457 86/145/458 66/137/459
f 86/145/460 88/146/461 66/137/462
f 88/146/463 90/147/464 66/137/465
f 90/147/466 92/148/467 66/137/468
f 92/148/469 94/149/470 66/137/471
f 94/149/472 96/150/473 66/137/474
f 96/150/475 98/151/476 66/137/477
f 98/151/478 68/135/479 66/137/480
f 99/152/481 100/153/482 129/154/483
f 129/154/484 100/153/485 130/155/486
f 100/156/487 99/157/488 102/158/489
f 102/158/490 99/157/491 101/159/492
f 102/158/493 101/159/494 104/160/495
f 104/160/496 101/159/497 103/161/498
f 104/160/499 103/161/500 106/162/501
f 106/162/502 103/161/503 105/163/504
f 106/162/505 105/163/506 108/164/507
f 108/164/508 105/163/509 107/165/510
f 108/164/511 107/165/512 110/166/513
f 110/166/514 107/165/515 109/167/516
f 110/166/517 109/167/518 112/168/519
f 112/168/520 109/167/521 111/169/522
f 112/168/523 111/169/524 114/170/525
f 114/170/526 111/169/527 113/171/528
f 114/170/529 113/171/530 116/172/531
f 116/172/532 113/171/533 115/173/534
f 116/172/535 115/173/536 118/174/537
f 118/174/538 115/173/539 117/175/540
f 118/174/541 117/175/542 120/176/543
f 120/176/544 117/175/545 119/177/546
f 120/176/547 119/177/548 122/178/549
f 122/178/550 119/177/551 121/179/552
f 122/178/553 121/179/554 124/180/555
f 124/180/556 121/179/557 123/181/558
f 124/180/559 123/181/560 126/182/561
f 126/182/562 123/181/563 125/183/564
f 126/182/565 125/183/566 128/184/567
f 128/184/568 125/183/569 127/185/570
f 128/184/571 127/185/572 130/155/573
f 130/155/574 127/185/575 129/154/576
f 49/52/577 50/53/578 99/157/579
f 99/157/580 50/53/581 101/159/582
f 50/53/583 51/54/584 101/159/585
f 101/159/586 51/54/587 103/161/588
f 51/54/589 52/55/590 103/161/591
f 103/161/592 52/55/593 105/163/594
f 52/55/595 53/56/596 105/163/597
f 105/163/598 53/56/599 107/165/600
f 53/56/601 54/57/602 107/165/603
f 107/165/604 54/57/605 109/167/606
f 54/57/607 55/58/608 109/167/609
f 109/167/610 55/58/611 111/169/612
f 55/58/613 56/59/614 111/169/615
f 111/169/616 56/59/617 113/171/618
f 56/59/619 57/60/620 113/171/621
f 113/171/622 57/60/623 115/173/624
f 57/60/625 58/61/626 115/173/627
f 115/173/628 58/61/629 117/175/630
f 58/61/631 59/62/632 117/175/633
f 117/175/634 59/62/635 119/177/636
f 59/62/637 60/63/638 119/177/639
f 119/177/640 60/63/641 121/179/642
f 60/63/643 61/64/644 121/179/645
f 121/179/646 61/64/647 123/181/648
f 61/64/649 62/65/650 123/181/651
f 123/181/652 62/65/653 125/183/654
f 62/65/655 63/66/656 125/183/657
f 125/183/658 63/66/659 127/185/660
f 63/66/661 64/67/662 127/185/663
f 127/185/664 64/67/665 129/154/666
f 64/67/667 49/68/668 129/154/669
f 129/154/670 49/68/671 99/152/672
f 100/156/673 102/158/674 67/91/675
f 67/91/676 102/158/677 69/93/678
f 102/158/679 104/160/680 69/93/681
f 69/93/682 104/160/683 71/96/684
f 104/160/685 106/162/686 71/96/687
f 71/96/688 106/162/689 73/99/690
f 106/162/691 108/164/692 73/99/693
f 73/99/694 108/164/695 75/102/696
f 108/164/697 110/166/698 75/102/699
f 75/102/700 110/166/701 77/105/702
f 110/166/703 112/168/704 77/105/705
f 77/105/706 112/168/707 79/108/708
f 112/168/709 114/170/710 79/108/711
f 79/108/712 114/170/713 81/111/714
f 114/170/715 116/172/716 81/111/717
f 81/111/718 116/172/719 83/114/720
f 116/172/721 118/174/722 83/114/723
f 83/114/724 118/174/725 85/117/726
f 118/174/727 120/176/728 85/117/729
f 85/117/730 120/176/731 87/120/732
f 120/176/733 122/178/734 87/120/735
f 87/120/736 122/178/737 89/123/738
f 122/178/739 124/180/740 89/123/741
f 89/123/742 124/180/743 91/126/744
f 124/180/745 126/182/746 91/126/747
f 91/126/748 126/182/749 93/129/750
f 126/182/751 128/184/752 93/129/753
f 93/129/754 128/184/755 95/132/756
f 128/184/757 130/155/758 95/132/759
f 95/132/760 130/155/761 97/88/762
f 130/155/763 100/153/764 97/88/765
f 97/88/766 100/153/767 67/86/768
