# This file uses centimeters as units for non-parametric coordinates.

mtllib road.mtl
g default
v -0.500000 -0.025000 0.107682
v 0.500000 -0.025000 0.107682
v -0.500000 0.025000 0.107682
v 0.500000 0.025000 0.107682
v -0.500000 0.025000 -0.107682
v 0.500000 0.025000 -0.107682
v -0.500000 -0.025000 -0.107682
v 0.500000 -0.025000 -0.107682
vt 0.207053 -0.945140
vt 0.805879 -0.945140
vt 0.207053 0.039428
vt 0.805879 0.039428
vt 0.207053 1.023996
vt 0.805879 1.023996
vt 0.207053 2.008564
vt 0.805879 2.008564
vt 0.207053 2.993131
vt 0.805879 2.993131
vt 1.404705 -0.945140
vt 1.404705 0.039428
vt -0.391773 -0.945140
vt -0.391773 0.039428
vn 0.000000 0.000000 1.000000
vn 0.000000 0.000000 1.000000
vn 0.000000 0.000000 1.000000
vn 0.000000 0.000000 1.000000
vn 0.000000 1.000000 0.000000
vn 0.000000 1.000000 0.000000
vn 0.000000 1.000000 0.000000
vn 0.000000 1.000000 0.000000
vn 0.000000 0.000000 -1.000000
vn 0.000000 0.000000 -1.000000
vn 0.000000 0.000000 -1.000000
vn 0.000000 0.000000 -1.000000
vn 0.000000 -1.000000 0.000000
vn 0.000000 -1.000000 0.000000
vn 0.000000 -1.000000 0.000000
vn 0.000000 -1.000000 0.000000
vn 1.000000 0.000000 0.000000
vn 1.000000 0.000000 0.000000
vn 1.000000 0.000000 0.000000
vn 1.000000 0.000000 0.000000
vn -1.000000 0.000000 0.000000
vn -1.000000 0.000000 0.000000
vn -1.000000 0.000000 0.000000
vn -1.000000 0.000000 0.000000
s 1
g pCube1
usemtl lambert1SG
f 1/1/1 2/2/2 3/3/3
f 3/3/3 2/2/2 4/4/4
s 2
f 3/3/5 4/4/6 5/5/7
f 5/5/7 4/4/6 6/6/8
s 3
f 5/5/9 6/6/10 7/7/11
f 7/7/11 6/6/10 8/8/12
s 4
f 7/7/13 8/8/14 1/9/15
f 1/9/15 8/8/14 2/10/16
s 5
f 2/2/17 8/11/18 4/4/19
f 4/4/19 8/11/18 6/12/20
s 6
f 7/13/21 1/1/22 5/14/23
f 5/14/23 1/1/22 3/3/24
