# This file uses centimeters as units for non-parametric coordinates.

mtllib shrub_00.mtl
g default
v -2.428526 0.639439 -0.458005
v -2.203134 0.578794 -0.475635
v -2.405987 0.442342 -0.634302
v -2.191864 0.442342 -0.590228
v -2.417256 0.214923 -0.660747
v -2.180595 0.222503 -0.599043
v -2.428526 0.055729 -0.572598
v -2.665187 0.199761 -0.625488
v -2.620109 0.381697 -0.599043
v -2.868040 0.343794 -0.466820
v -2.789153 0.449923 -0.405116
v -2.608839 0.540891 -0.413931
v -2.901849 0.192181 -0.493264
v -2.653918 0.055729 -0.554969
v -2.428526 -0.012497 -0.449190
v -2.191864 0.063310 -0.537339
v -1.943933 0.222503 -0.475635
v -1.955203 0.434762 -0.466820
v -2.011551 0.548471 -0.422746
v -2.214404 0.715246 -0.449190
v -2.451065 0.768310 -0.405116
v -2.417256 0.897181 -0.308152
v -2.563761 0.821375 -0.246448
v -2.405987 0.935084 -0.202374
v -2.563761 0.844117 -0.167114
v -2.620109 0.677342 -0.334597
v -2.665187 0.745568 -0.211189
v -2.653918 0.631858 -0.237633
v -2.868040 0.480245 -0.272893
v -3.025814 0.366536 -0.272893
v -3.070892 0.199761 -0.281708
v -2.879309 0.055729 -0.458005
v -2.653918 -0.012497 -0.440375
v -2.687726 -0.027658 -0.264078
v -2.901849 -0.004916 -0.246448
v -2.822961 0.002664 -0.396301
v -3.025814 0.063310 -0.264078
v -3.082162 0.063310 -0.043706
v -2.935657 -0.012497 -0.043706
v -2.710266 -0.020077 -0.043706
v -2.428526 -0.027658 -0.272893
v -2.158056 -0.027658 -0.264078
v -2.191864 -0.004916 -0.422746
v -1.966473 0.070890 -0.431560
v -1.774890 0.222503 -0.281708
v -1.797429 0.457503 -0.281708
v -1.921394 0.616697 -0.272893
v -2.022821 0.669762 -0.396301
v -2.259482 0.882020 -0.343412
v -2.248212 0.935084 -0.220004
v -2.124247 0.851697 -0.316967
v -1.943933 0.730407 -0.264078
v -1.876316 0.669762 -0.061336
v -1.741081 0.472665 -0.061336
v -1.707272 0.222503 -0.061336
v -1.819968 0.070890 -0.255263
v -2.022821 0.010245 -0.378671
v -1.943933 -0.004916 -0.246448
v -1.910125 -0.012497 -0.052521
v -2.146786 -0.027658 -0.061336
v -2.428526 -0.020077 -0.052521
v -1.763620 0.063310 -0.052521
v -1.819968 0.070890 0.141406
v -1.943933 -0.004916 0.132591
v -2.158056 -0.027658 0.141406
v -1.774890 0.222503 0.150221
v -1.797429 0.449923 0.132591
v -1.932664 0.631858 0.132591
v -1.910125 0.760730 -0.061336
v -2.067899 0.882020 -0.211189
v -2.214404 0.935084 -0.061336
v -2.383447 0.919923 -0.052521
v -2.552491 0.821375 -0.061336
v -2.665187 0.730407 -0.070151
v -2.676457 0.639439 -0.070151
v -2.901849 0.518149 -0.078966
v -3.070892 0.396858 -0.061336
v -3.138510 0.214923 -0.043706
v -3.070892 0.214923 0.176666
v -3.025814 0.070890 0.159036
v -2.901849 -0.004916 0.150221
v -2.676457 -0.020077 0.159036
v -2.417256 -0.027658 0.159036
v -2.191864 -0.004916 0.291259
v -2.022821 0.010245 0.247185
v -1.966473 0.070890 0.291259
v -1.932664 0.222503 0.317704
v -1.966473 0.396858 0.291259
v -2.011551 0.518149 0.247185
v -1.943933 0.730407 0.132591
v -2.034090 0.882020 -0.061336
v -2.214404 0.882020 0.097332
v -2.372178 0.874439 0.097332
v -2.529952 0.791052 0.053257
v -2.631378 0.700084 0.106147
v -2.653918 0.609117 0.132591
v -2.868040 0.495407 0.106147
v -3.014544 0.381697 0.141406
v -2.856770 0.336213 0.282444
v -2.789153 0.442342 0.220740
v -2.631378 0.510568 0.273629
v -2.608839 0.601536 0.238370
v -2.507413 0.730407 0.141406
v -2.372178 0.783472 0.203110
v -2.225673 0.783472 0.211925
v -2.405987 0.662181 0.300074
v -2.417256 0.556052 0.326518
v -2.631378 0.343794 0.361778
v -2.890579 0.199761 0.344148
v -2.868040 0.070890 0.326518
v -2.822961 0.010245 0.273629
v -2.642648 -0.004916 0.317704
v -2.417256 -0.012497 0.326518
v -2.417256 0.063310 0.432297
v -2.653918 0.063310 0.405852
v -2.653918 0.184600 0.423482
v -2.405987 0.366536 0.414667
v -2.417256 0.199761 0.458742
v -2.180595 0.070890 0.388223
v -2.169325 0.214923 0.423482
v -2.180595 0.366536 0.397037
v -2.203134 0.525729 0.300074
v -2.022821 0.631858 0.247185
v -2.045360 0.836536 0.088517
v -2.101708 0.775891 0.185481
v -2.203134 0.647020 0.291259
vt 0.101813 0.103901
vt 0.101398 0.103627
vt 0.101865 0.102875
vt 0.102227 0.103149
vt 0.097459 0.104652
vt 0.097096 0.103081
vt 0.098132 0.102944
vt 0.098340 0.104447
vt 0.097044 0.098707
vt 0.097873 0.098229
vt 0.097459 0.098912
vt 0.096733 0.099254
vt 0.097148 0.102807
vt 0.096577 0.102397
vt 0.096629 0.103969
vt 0.097148 0.104516
vt 0.100880 0.102124
vt 0.101398 0.101851
vt 0.101035 0.100621
vt 0.100569 0.100484
vt 0.098132 0.103627
vt 0.098081 0.102192
vt 0.097562 0.101714
vt 0.097614 0.103286
vt 0.100154 0.105951
vt 0.100569 0.105267
vt 0.100621 0.104721
vt 0.101087 0.104106
vt 0.102124 0.099595
vt 0.101554 0.099459
vt 0.100828 0.098844
vt 0.101450 0.098980
vt 0.102435 0.100210
vt 0.101709 0.099732
vt 0.098392 0.098365
vt 0.097510 0.098844
vt 0.098029 0.099595
vt 0.098910 0.099185
vt 0.098806 0.103764
vt 0.098754 0.105131
vt 0.099688 0.105131
vt 0.099843 0.103764
vt 0.099377 0.106292
vt 0.098962 0.106907
vt 0.099843 0.106429
vt 0.101813 0.100347
vt 0.102435 0.100689
vt 0.099325 0.102875
vt 0.100258 0.103286
vt 0.099688 0.104721
vt 0.099065 0.104106
vt 0.102798 0.101236
vt 0.099999 0.099185
vt 0.099325 0.099254
vt 0.100258 0.098844
vt 0.101035 0.103490
vt 0.099428 0.101440
vt 0.100102 0.101372
vt 0.099947 0.102739
vt 0.098495 0.106839
vt 0.099532 0.106361
vt 0.102279 0.103286
vt 0.101657 0.103969
vt 0.101191 0.104037
vt 0.101709 0.103081
vt 0.102331 0.103012
vt 0.096577 0.100894
vt 0.097096 0.101167
vt 0.099999 0.100142
vt 0.099273 0.100210
vt 0.102798 0.102466
vt 0.102746 0.101645
vt 0.102072 0.101782
vt 0.100932 0.098980
vt 0.099791 0.098297
vt 0.100206 0.099117
vt 0.101087 0.099732
vt 0.097666 0.104789
vt 0.097770 0.106019
vt 0.098132 0.104926
vt 0.098132 0.105814
vt 0.102538 0.100757
vt 0.101657 0.100552
vt 0.098132 0.101440
vt 0.097096 0.101509
vt 0.097199 0.100074
vt 0.098132 0.100074
vt 0.098547 0.098912
vt 0.100206 0.105267
vt 0.100465 0.105472
vt 0.101035 0.101236
vt 0.100932 0.100279
vt 0.101813 0.101372
vt 0.097096 0.099800
vt 0.097614 0.100415
vt 0.097251 0.105882
vt 0.097666 0.106634
vt 0.098184 0.106702
vt 0.098029 0.101099
vt 0.098495 0.100825
vt 0.098599 0.106156
vt 0.098962 0.105609
vt 0.100880 0.103764
vt 0.097199 0.105951
vt 0.097925 0.106019
vt 0.096681 0.099595
vt 0.096474 0.099732
vt 0.099169 0.098229
vt 0.096318 0.100689
vt 0.096474 0.100347
vt 0.096370 0.101714
vt 0.096215 0.101987
vt 0.101450 0.102466
vt 0.100828 0.102260
vt 0.102798 0.102192
vt 0.102331 0.101714
vt 0.096474 0.103149
vt 0.096785 0.104652
vt 0.096526 0.104516
vt 0.096318 0.103422
vt 0.098703 0.102329
vt 0.099377 0.100621
vt 0.099688 0.102260
vt 0.096785 0.105267
vt 0.100776 0.103081
vt 0.100932 0.099595
vn -0.899360 0.358714 -0.249952
vn -0.870342 0.469084 0.149886
vn -0.643848 0.755696 -0.119931
vn -0.559580 0.795217 0.233453
vn -0.504846 0.109146 0.856281
vn -0.247161 0.106822 0.963068
vn -0.415685 0.508435 0.754122
vn -0.284326 0.421413 0.861145
vn 0.852697 -0.067042 0.518086
vn 0.567197 -0.032523 0.822940
vn 0.688944 -0.593675 0.415819
vn 0.480077 -0.537083 0.693591
vn -0.007533 -0.998832 0.047738
vn -0.057017 -0.995229 0.079167
vn -0.010509 -0.999933 0.004945
vn -0.033545 -0.999393 0.009410
vn 0.185434 0.439353 -0.878967
vn 0.537712 0.388531 -0.748272
vn 0.305971 0.351652 -0.884716
vn 0.569607 0.313614 -0.759733
vn 0.021238 -0.951985 -0.305406
vn 0.126875 -0.943030 -0.307568
vn 0.001769 -0.999312 -0.037051
vn 0.053371 -0.995920 -0.072770
vn -0.565669 0.487125 -0.665378
vn -0.443606 0.715477 -0.539729
vn -0.393277 0.510392 -0.764744
vn -0.443606 0.715477 -0.539729
vn -0.653725 0.480953 -0.584233
vn -0.393277 0.510392 -0.764744
vn 0.507085 0.858462 0.076865
vn 0.403456 0.773904 0.488156
vn 0.865165 0.501098 0.019788
vn 0.755237 0.435950 0.489453
vn 0.507085 0.858462 0.076865
vn 0.865165 0.501098 0.019788
vn 0.483790 0.816280 -0.315649
vn 0.790655 0.459098 -0.405084
vn 0.763550 -0.645720 0.006094
vn 0.693828 -0.612833 -0.378203
vn 0.994487 -0.104415 0.009635
vn 0.872575 -0.117447 -0.474150
vn -0.194251 -0.667412 -0.718907
vn -0.308967 -0.112745 -0.944366
vn 0.045839 -0.687934 -0.724324
vn 0.041535 -0.174568 -0.983769
vn -0.891524 -0.024697 -0.452299
vn -0.729418 0.535312 -0.425901
vn -0.639457 -0.044003 -0.767567
vn -0.565669 0.487125 -0.665378
vn 0.403456 0.773904 0.488156
vn 0.507085 0.858462 0.076865
vn 0.098030 0.868246 0.486353
vn 0.115660 0.981209 0.154442
vn -0.476808 0.485500 0.732765
vn -0.698833 0.575484 0.424794
vn -0.414862 0.622865 0.663271
vn -0.489316 0.769514 0.410387
vn 0.507085 0.858462 0.076865
vn 0.483790 0.816280 -0.315649
vn 0.115660 0.981209 0.154442
vn 0.128759 0.971558 -0.198735
vn 0.755237 0.435950 0.489453
vn 0.446493 0.328017 0.832495
vn 0.791025 0.340383 0.508349
vn 0.485319 0.274642 0.830083
vn -0.061105 0.418891 -0.905978
vn 0.041535 -0.174568 -0.983769
vn -0.393277 0.510392 -0.764744
vn -0.308967 -0.112745 -0.944366
vn -0.476808 0.485500 0.732765
vn -0.098157 0.356292 0.929205
vn -0.560395 0.509035 0.653330
vn -0.177063 0.456241 0.872063
vn -0.999900 -0.003384 0.013699
vn -0.797515 0.603272 -0.005711
vn -0.891524 -0.024697 -0.452299
vn -0.729418 0.535312 -0.425901
vn -0.692358 0.640420 -0.332420
vn -0.694939 0.478247 -0.536972
vn -0.643848 0.755696 -0.119931
vn -0.643848 0.755696 -0.119931
vn -0.694939 0.478247 -0.536972
vn -0.899360 0.358714 -0.249952
vn -0.694939 0.478247 -0.536972
vn -0.653725 0.480953 -0.584233
vn -0.899360 0.358714 -0.249952
vn -0.899360 0.358714 -0.249952
vn -0.653725 0.480953 -0.584233
vn -0.843502 0.464572 -0.269587
vn -0.206371 0.509683 -0.835245
vn -0.061105 0.418891 -0.905978
vn -0.653725 0.480953 -0.584233
vn -0.393277 0.510392 -0.764744
vn -0.653725 0.480953 -0.584233
vn -0.694939 0.478247 -0.536972
vn -0.206371 0.509683 -0.835245
vn -0.299582 0.465648 -0.832720
vn -0.007533 -0.998832 0.047738
vn -0.010509 -0.999933 0.004945
vn 0.070344 -0.991922 0.105554
vn 0.036024 -0.999350 0.001146
vn 0.153679 0.322489 0.934015
vn 0.197529 0.295830 0.934595
vn 0.446493 0.328017 0.832495
vn 0.485319 0.274642 0.830083
vn -0.315844 0.780766 -0.539118
vn 0.129009 0.772482 -0.621795
vn -0.299582 0.465648 -0.832720
vn 0.122171 0.418081 -0.900157
vn 0.903411 0.428437 0.017033
vn 0.930405 0.366121 0.017385
vn 0.806402 0.404666 -0.431232
vn 0.815395 0.335555 -0.471735
vn -0.046234 -0.998043 -0.042106
vn -0.247603 -0.960205 -0.129222
vn -0.097853 -0.958333 -0.268369
vn -0.097853 -0.958333 -0.268369
vn -0.247603 -0.960205 -0.129222
vn -0.266849 -0.912267 -0.310741
vn 0.483790 0.816280 -0.315649
vn 0.790655 0.459098 -0.405084
vn 0.400227 0.697470 -0.594436
vn 0.523086 0.413636 -0.745176
vn 0.483790 0.816280 -0.315649
vn 0.400227 0.697470 -0.594436
vn 0.128759 0.971558 -0.198735
vn 0.129009 0.772482 -0.621795
vn -0.014191 0.039863 0.999104
vn 0.278349 -0.012404 0.960400
vn -0.065327 0.366065 0.928293
vn 0.234878 0.349661 0.906956
vn 0.122171 0.418081 -0.900157
vn 0.523086 0.413636 -0.745176
vn 0.185434 0.439353 -0.878967
vn 0.537712 0.388531 -0.748272
vn 0.481720 0.329948 0.811837
vn 0.234878 0.349661 0.906956
vn 0.567197 -0.032523 0.822940
vn 0.278349 -0.012404 0.960400
vn 0.485319 0.274642 0.830083
vn 0.197529 0.295830 0.934595
vn 0.481720 0.329948 0.811837
vn 0.234878 0.349661 0.906956
vn 0.790655 0.459098 -0.405084
vn 0.806402 0.404666 -0.431232
vn 0.523086 0.413636 -0.745176
vn 0.537712 0.388531 -0.748272
vn -0.797515 0.603272 -0.005711
vn -0.540718 0.841178 -0.006643
vn -0.729418 0.535312 -0.425901
vn -0.513885 0.783947 -0.348352
vn -0.255342 0.684823 0.682508
vn 0.105279 0.651673 0.751158
vn -0.288419 0.830397 0.476714
vn 0.098030 0.868246 0.486353
vn 0.291879 -0.956450 0.003248
vn 0.036024 -0.999350 0.001146
vn 0.266750 -0.945462 -0.186938
vn 0.053371 -0.995920 -0.072770
vn 0.129009 0.772482 -0.621795
vn 0.400227 0.697470 -0.594436
vn 0.122171 0.418081 -0.900157
vn 0.523086 0.413636 -0.745176
vn -0.415685 0.508435 0.754122
vn -0.284326 0.421413 0.861145
vn -0.414862 0.622865 0.663271
vn -0.476808 0.485500 0.732765
vn -0.247603 -0.960205 -0.129222
vn -0.273346 -0.961836 0.012365
vn -0.696945 -0.637402 -0.328612
vn -0.753645 -0.657042 0.017762
vn 0.693828 -0.612833 -0.378203
vn 0.266750 -0.945462 -0.186938
vn 0.497776 -0.594084 -0.631889
vn 0.294265 -0.877178 -0.379430
vn -0.266849 -0.912267 -0.310741
vn -0.493695 -0.632818 -0.596495
vn -0.097853 -0.958333 -0.268369
vn -0.194251 -0.667412 -0.718907
vn -0.414862 0.622865 0.663271
vn -0.489316 0.769514 0.410387
vn -0.415685 0.508435 0.754122
vn -0.646384 0.590922 0.482700
vn -0.540718 0.841178 -0.006643
vn -0.489316 0.769514 0.410387
vn -0.833102 0.551894 0.036799
vn -0.698833 0.575484 0.424794
vn 0.036024 -0.999350 0.001146
vn -0.010509 -0.999933 0.004945
vn 0.053371 -0.995920 -0.072770
vn 0.001769 -0.999312 -0.037051
vn -0.686617 -0.600398 0.409974
vn -0.842816 0.050528 0.535825
vn -0.753645 -0.657042 0.017762
vn -0.999900 -0.003384 0.013699
vn 0.688944 -0.593675 0.415819
vn 0.480077 -0.537083 0.693591
vn 0.293683 -0.932008 0.212397
vn 0.246334 -0.894806 0.372346
vn 0.294265 -0.877178 -0.379430
vn 0.266750 -0.945462 -0.186938
vn 0.126875 -0.943030 -0.307568
vn 0.126875 -0.943030 -0.307568
vn 0.266750 -0.945462 -0.186938
vn 0.053371 -0.995920 -0.072770
vn -0.639457 -0.044003 -0.767567
vn -0.565669 0.487125 -0.665378
vn -0.308967 -0.112745 -0.944366
vn -0.393277 0.510392 -0.764744
vn 0.930405 0.366121 0.017385
vn 0.903411 0.428437 0.017033
vn 0.766378 0.339006 0.545655
vn 0.791025 0.340383 0.508349
vn -0.247161 0.106822 0.963068
vn -0.014191 0.039863 0.999104
vn -0.284326 0.421413 0.861145
vn -0.065327 0.366065 0.928293
vn 0.537712 0.388531 -0.748272
vn 0.806402 0.404666 -0.431232
vn 0.569607 0.313614 -0.759733
vn 0.815395 0.335555 -0.471735
vn -0.177063 0.456241 0.872063
vn -0.098157 0.356292 0.929205
vn 0.153679 0.322489 0.934015
vn 0.197529 0.295830 0.934595
vn 0.001769 -0.999312 -0.037051
vn -0.010509 -0.999933 0.004945
vn -0.046234 -0.998043 -0.042106
vn -0.033545 -0.999393 0.009410
vn 0.140693 -0.908569 0.393328
vn 0.250681 -0.530183 0.809978
vn 0.017777 -0.930704 0.365341
vn 0.031461 -0.535367 0.844033
vn -0.284326 0.421413 0.861145
vn -0.065327 0.366065 0.928293
vn -0.476808 0.485500 0.732765
vn -0.098157 0.356292 0.929205
vn -0.646384 0.590922 0.482700
vn -0.489316 0.769514 0.410387
vn -0.797515 0.603272 -0.005711
vn -0.540718 0.841178 -0.006643
vn -0.513885 0.783947 -0.348352
vn -0.843502 0.464572 -0.269587
vn -0.443606 0.715477 -0.539729
vn -0.653725 0.480953 -0.584233
vn -0.098157 0.356292 0.929205
vn -0.065327 0.366065 0.928293
vn 0.197529 0.295830 0.934595
vn 0.234878 0.349661 0.906956
vn 0.865165 0.501098 0.019788
vn 0.755237 0.435950 0.489453
vn 0.903411 0.428437 0.017033
vn 0.791025 0.340383 0.508349
vn -0.255342 0.684823 0.682508
vn -0.288419 0.830397 0.476714
vn -0.456271 0.659207 0.597714
vn -0.491176 0.751131 0.441076
vn -0.280720 0.955387 -0.091828
vn -0.277388 0.934876 0.221500
vn 0.128759 0.971558 -0.198735
vn 0.115660 0.981209 0.154442
vn -0.504846 0.109146 0.856281
vn -0.415685 0.508435 0.754122
vn -0.842816 0.050528 0.535825
vn -0.646384 0.590922 0.482700
vn -0.464122 -0.525545 0.713017
vn -0.230227 -0.910575 0.343290
vn -0.200421 -0.507533 0.837998
vn -0.112854 -0.922073 0.370195
vn 0.070344 -0.991922 0.105554
vn 0.036024 -0.999350 0.001146
vn 0.293683 -0.932008 0.212397
vn 0.291879 -0.956450 0.003248
vn -0.643848 0.755696 -0.119931
vn -0.280720 0.955387 -0.091828
vn -0.692358 0.640420 -0.332420
vn -0.315844 0.780766 -0.539118
vn 0.126875 -0.943030 -0.307568
vn 0.021238 -0.951985 -0.305406
vn 0.253075 -0.639802 -0.725677
vn 0.045839 -0.687934 -0.724324
vn 0.497776 -0.594084 -0.631889
vn 0.253075 -0.639802 -0.725677
vn 0.613821 -0.131626 -0.778395
vn 0.338089 -0.161945 -0.927076
vn -0.200421 -0.507533 0.837998
vn 0.031461 -0.535367 0.844033
vn -0.247161 0.106822 0.963068
vn -0.014191 0.039863 0.999104
vn 0.763550 -0.645720 0.006094
vn 0.291879 -0.956450 0.003248
vn 0.693828 -0.612833 -0.378203
vn 0.266750 -0.945462 -0.186938
vn 0.305971 0.351652 -0.884716
vn -0.061105 0.418891 -0.905978
vn 0.185434 0.439353 -0.878967
vn -0.206371 0.509683 -0.835245
vn -0.504846 0.109146 0.856281
vn -0.464122 -0.525545 0.713017
vn -0.247161 0.106822 0.963068
vn -0.200421 -0.507533 0.837998
vn -0.843502 0.464572 -0.269587
vn -0.833102 0.551894 0.036799
vn -0.899360 0.358714 -0.249952
vn -0.870342 0.469084 0.149886
vn 0.140693 -0.908569 0.393328
vn 0.070344 -0.991922 0.105554
vn 0.246334 -0.894806 0.372346
vn 0.070344 -0.991922 0.105554
vn 0.293683 -0.932008 0.212397
vn 0.246334 -0.894806 0.372346
vn -0.696945 -0.637402 -0.328612
vn -0.493695 -0.632818 -0.596495
vn -0.247603 -0.960205 -0.129222
vn -0.266849 -0.912267 -0.310741
vn 0.693828 -0.612833 -0.378203
vn 0.497776 -0.594084 -0.631889
vn 0.872575 -0.117447 -0.474150
vn 0.613821 -0.131626 -0.778395
vn -0.279093 -0.939733 0.197507
vn -0.686617 -0.600398 0.409974
vn -0.273346 -0.961836 0.012365
vn -0.753645 -0.657042 0.017762
vn -0.694939 0.478247 -0.536972
vn -0.692358 0.640420 -0.332420
vn -0.299582 0.465648 -0.832720
vn -0.315844 0.780766 -0.539118
vn -0.456271 0.659207 0.597714
vn -0.645865 0.612473 0.455779
vn -0.560395 0.509035 0.653330
vn -0.698833 0.575484 0.424794
vn 0.865165 0.501098 0.019788
vn 0.903411 0.428437 0.017033
vn 0.790655 0.459098 -0.405084
vn 0.806402 0.404666 -0.431232
vn 0.613821 -0.131626 -0.778395
vn 0.569607 0.313614 -0.759733
vn 0.872575 -0.117447 -0.474150
vn 0.815395 0.335555 -0.471735
vn 0.930405 0.366121 0.017385
vn 0.994487 -0.104415 0.009635
vn 0.815395 0.335555 -0.471735
vn 0.872575 -0.117447 -0.474150
vn -0.559580 0.795217 0.233453
vn -0.277388 0.934876 0.221500
vn -0.643848 0.755696 -0.119931
vn -0.280720 0.955387 -0.091828
vn -0.177063 0.456241 0.872063
vn 0.153679 0.322489 0.934015
vn -0.255342 0.684823 0.682508
vn 0.105279 0.651673 0.751158
vn -0.230227 -0.910575 0.343290
vn -0.464122 -0.525545 0.713017
vn -0.279093 -0.939733 0.197507
vn -0.686617 -0.600398 0.409974
vn -0.513885 0.783947 -0.348352
vn -0.540718 0.841178 -0.006643
vn -0.843502 0.464572 -0.269587
vn -0.833102 0.551894 0.036799
vn 0.031461 -0.535367 0.844033
vn -0.200421 -0.507533 0.837998
vn 0.017777 -0.930704 0.365341
vn -0.112854 -0.922073 0.370195
vn 0.930405 0.366121 0.017385
vn 0.766378 0.339006 0.545655
vn 0.994487 -0.104415 0.009635
vn 0.852697 -0.067042 0.518086
vn -0.046234 -0.998043 -0.042106
vn -0.033545 -0.999393 0.009410
vn -0.247603 -0.960205 -0.129222
vn -0.273346 -0.961836 0.012365
vn 0.017777 -0.930704 0.365341
vn -0.007533 -0.998832 0.047738
vn 0.140693 -0.908569 0.393328
vn 0.070344 -0.991922 0.105554
vn 0.403456 0.773904 0.488156
vn 0.284231 0.622159 0.729473
vn 0.755237 0.435950 0.489453
vn 0.446493 0.328017 0.832495
vn 0.105279 0.651673 0.751158
vn 0.284231 0.622159 0.729473
vn 0.098030 0.868246 0.486353
vn 0.403456 0.773904 0.488156
vn -0.476808 0.485500 0.732765
vn -0.560395 0.509035 0.653330
vn -0.698833 0.575484 0.424794
vn -0.645865 0.612473 0.455779
vn -0.456271 0.659207 0.597714
vn -0.491176 0.751131 0.441076
vn -0.493695 -0.632818 -0.596495
vn -0.639457 -0.044003 -0.767567
vn -0.194251 -0.667412 -0.718907
vn -0.308967 -0.112745 -0.944366
vn 0.115660 0.981209 0.154442
vn -0.277388 0.934876 0.221500
vn 0.098030 0.868246 0.486353
vn -0.288419 0.830397 0.476714
vn 0.105279 0.651673 0.751158
vn 0.153679 0.322489 0.934015
vn 0.284231 0.622159 0.729473
vn 0.446493 0.328017 0.832495
vn 0.185434 0.439353 -0.878967
vn -0.206371 0.509683 -0.835245
vn 0.122171 0.418081 -0.900157
vn -0.299582 0.465648 -0.832720
vn 0.497776 -0.594084 -0.631889
vn 0.294265 -0.877178 -0.379430
vn 0.253075 -0.639802 -0.725677
vn 0.126875 -0.943030 -0.307568
vn 0.994487 -0.104415 0.009635
vn 0.852697 -0.067042 0.518086
vn 0.763550 -0.645720 0.006094
vn 0.688944 -0.593675 0.415819
vn 0.338089 -0.161945 -0.927076
vn 0.253075 -0.639802 -0.725677
vn 0.041535 -0.174568 -0.983769
vn 0.045839 -0.687934 -0.724324
vn -0.559580 0.795217 0.233453
vn -0.491176 0.751131 0.441076
vn -0.277388 0.934876 0.221500
vn -0.288419 0.830397 0.476714
vn 0.791025 0.340383 0.508349
vn 0.485319 0.274642 0.830083
vn 0.766378 0.339006 0.545655
vn 0.481720 0.329948 0.811837
vn -0.279093 -0.939733 0.197507
vn -0.057017 -0.995229 0.079167
vn -0.230227 -0.910575 0.343290
vn -0.230227 -0.910575 0.343290
vn -0.057017 -0.995229 0.079167
vn -0.112854 -0.922073 0.370195
vn 0.021238 -0.951985 -0.305406
vn 0.001769 -0.999312 -0.037051
vn -0.097853 -0.958333 -0.268369
vn -0.046234 -0.998043 -0.042106
vn 0.305971 0.351652 -0.884716
vn 0.338089 -0.161945 -0.927076
vn -0.061105 0.418891 -0.905978
vn 0.041535 -0.174568 -0.983769
vn -0.097853 -0.958333 -0.268369
vn -0.194251 -0.667412 -0.718907
vn 0.021238 -0.951985 -0.305406
vn 0.045839 -0.687934 -0.724324
vn -0.645865 0.612473 0.455779
vn -0.491176 0.751131 0.441076
vn -0.870342 0.469084 0.149886
vn -0.559580 0.795217 0.233453
vn -0.280720 0.955387 -0.091828
vn 0.128759 0.971558 -0.198735
vn -0.315844 0.780766 -0.539118
vn 0.129009 0.772482 -0.621795
vn 0.293683 -0.932008 0.212397
vn 0.291879 -0.956450 0.003248
vn 0.688944 -0.593675 0.415819
vn 0.763550 -0.645720 0.006094
vn 0.567197 -0.032523 0.822940
vn 0.278349 -0.012404 0.960400
vn 0.480077 -0.537083 0.693591
vn 0.250681 -0.530183 0.809978
vn -0.842816 0.050528 0.535825
vn -0.646384 0.590922 0.482700
vn -0.999900 -0.003384 0.013699
vn -0.797515 0.603272 -0.005711
vn -0.698833 0.575484 0.424794
vn -0.645865 0.612473 0.455779
vn -0.833102 0.551894 0.036799
vn -0.870342 0.469084 0.149886
vn -0.696945 -0.637402 -0.328612
vn -0.753645 -0.657042 0.017762
vn -0.891524 -0.024697 -0.452299
vn -0.999900 -0.003384 0.013699
vn 0.278349 -0.012404 0.960400
vn -0.014191 0.039863 0.999104
vn 0.250681 -0.530183 0.809978
vn 0.031461 -0.535367 0.844033
vn -0.057017 -0.995229 0.079167
vn -0.279093 -0.939733 0.197507
vn -0.033545 -0.999393 0.009410
vn -0.273346 -0.961836 0.012365
vn 0.017777 -0.930704 0.365341
vn -0.112854 -0.922073 0.370195
vn -0.007533 -0.998832 0.047738
vn -0.057017 -0.995229 0.079167
vn -0.255342 0.684823 0.682508
vn -0.456271 0.659207 0.597714
vn -0.177063 0.456241 0.872063
vn -0.560395 0.509035 0.653330
vn 0.480077 -0.537083 0.693591
vn 0.250681 -0.530183 0.809978
vn 0.246334 -0.894806 0.372346
vn 0.140693 -0.908569 0.393328
vn -0.729418 0.535312 -0.425901
vn -0.513885 0.783947 -0.348352
vn -0.565669 0.487125 -0.665378
vn -0.443606 0.715477 -0.539729
vn -0.464122 -0.525545 0.713017
vn -0.504846 0.109146 0.856281
vn -0.686617 -0.600398 0.409974
vn -0.842816 0.050528 0.535825
vn 0.766378 0.339006 0.545655
vn 0.481720 0.329948 0.811837
vn 0.852697 -0.067042 0.518086
vn 0.567197 -0.032523 0.822940
vn -0.891524 -0.024697 -0.452299
vn -0.639457 -0.044003 -0.767567
vn -0.696945 -0.637402 -0.328612
vn -0.493695 -0.632818 -0.596495
vn 0.305971 0.351652 -0.884716
vn 0.569607 0.313614 -0.759733
vn 0.338089 -0.161945 -0.927076
vn 0.613821 -0.131626 -0.778395
s 1
g shrub_00 group1
usemtl samor_4024_95SG
f 27/1/1 74/2/2 25/4/3
f 25/4/3 74/2/2 73/3/4
s 2
f 109/5/5 116/6/6 99/8/7
f 99/8/7 116/6/6 108/7/8
s 3
f 66/10/9 87/11/10 63/9/11
f 63/9/11 87/11/10 86/12/12
s 4
f 83/14/13 82/15/14 61/13/15
f 61/13/15 82/15/14 40/16/16
s 5
f 2/18/17 19/19/18 4/17/19
f 4/17/19 19/19/18 18/20/20
s 6
f 15/21/21 43/22/22 41/24/23
f 41/24/23 43/22/22 42/23/24
s off
f 10/25/25 11/26/26 9/27/27
f 11/26/28 12/28/29 9/27/30
s 7
f 91/29/31 124/30/32 69/32/33
f 69/32/33 124/30/32 90/31/34
s 8
f 91/29/35 69/32/36 70/33/37
f 70/33/37 69/32/36 52/34/38
s 9
f 62/36/39 56/37/40 55/35/41
f 55/35/41 56/37/40 45/38/42
s 10
f 14/40/43 8/41/44 7/39/45
f 7/39/45 8/41/44 5/42/46
s 11
f 31/44/47 30/45/48 13/43/49
f 13/43/49 30/45/48 10/25/50
s 12
f 124/30/51 91/29/52 92/46/53
f 92/46/53 91/29/52 71/47/54
s 13
f 101/48/55 96/49/56 100/51/57
f 100/51/57 96/49/56 97/50/58
s 14
f 91/29/59 70/33/60 71/47/61
f 71/47/61 70/33/60 50/52/62
s 15
f 90/31/63 123/53/64 68/55/65
f 68/55/65 123/53/64 89/54/66
s 16
f 3/56/67 5/42/68 9/27/69
f 9/27/69 5/42/68 8/41/70
s 17
f 101/48/71 107/57/72 102/59/73
f 102/59/73 107/57/72 106/58/74
s 18
f 78/60/75 77/61/76 31/44/77
f 31/44/77 77/61/76 30/45/78
s off
f 23/62/79 26/63/80 25/4/81
f 25/4/82 26/63/83 27/1/84
f 26/63/85 12/28/86 27/1/87
f 27/1/88 12/28/89 28/64/90
s 19
f 1/65/91 3/56/92 12/28/93
f 12/28/93 3/56/92 9/27/94
s 20
f 12/28/95 26/63/96 1/65/97
f 1/65/97 26/63/96 21/66/98
s 21
f 83/14/99 61/13/100 65/67/101
f 65/67/101 61/13/100 60/68/102
s 22
f 126/69/103 122/70/104 123/53/105
f 123/53/105 122/70/104 89/54/106
s 23
f 22/71/107 49/72/108 21/66/109
f 21/66/109 49/72/108 20/73/110
s 24
f 53/74/111 54/75/112 47/77/113
f 47/77/113 54/75/112 46/76/114
s off
f 34/78/115 35/79/116 33/80/117
f 33/80/118 35/79/119 36/81/120
s 25
f 70/33/121 52/34/122 51/82/123
f 51/82/123 52/34/122 48/83/124
s 26
f 70/33/125 51/82/126 50/52/127
f 50/52/127 51/82/126 49/72/128
s 27
f 118/85/129 120/86/130 117/84/131
f 117/84/131 120/86/130 121/87/132
s 28
f 20/73/133 48/83/134 2/18/135
f 2/18/135 48/83/134 19/19/136
s 29
f 88/88/137 121/87/138 87/11/139
f 87/11/139 121/87/138 120/86/140
s 30
f 89/54/141 122/70/142 88/88/143
f 88/88/143 122/70/142 121/87/144
s 31
f 52/34/145 47/77/146 48/83/147
f 48/83/147 47/77/146 19/19/148
s 32
f 77/61/149 76/89/150 30/45/151
f 30/45/151 76/89/150 29/90/152
s 33
f 104/91/153 105/92/154 93/93/155
f 93/93/155 105/92/154 92/46/156
s 34
f 59/94/157 60/68/158 58/95/159
f 58/95/159 60/68/158 42/23/160
s 35
f 49/72/161 51/82/162 20/73/163
f 20/73/163 51/82/162 48/83/164
s 36
f 99/8/165 108/7/166 100/51/167
f 100/51/167 108/7/166 101/48/168
s 37
f 35/79/169 39/96/170 37/98/171
f 37/98/171 39/96/170 38/97/172
s 38
f 56/37/173 58/95/174 44/100/175
f 44/100/175 58/95/174 57/99/176
s 39
f 36/81/177 32/101/178 33/80/179
f 33/80/179 32/101/178 14/40/180
s 40
f 100/51/181 97/50/182 99/8/183
f 99/8/183 97/50/182 98/102/184
s 41
f 76/89/185 97/50/186 75/103/187
f 75/103/187 97/50/186 96/49/188
s 42
f 60/68/189 61/13/190 42/23/191
f 42/23/191 61/13/190 41/24/192
s 43
f 80/104/193 79/105/194 38/97/195
f 38/97/195 79/105/194 78/60/196
s 44
f 63/9/197 86/12/198 64/106/199
f 64/106/199 86/12/198 85/107/200
s off
f 57/99/201 58/95/202 43/22/203
f 43/22/204 58/95/205 42/23/206
s 45
f 13/43/207 10/25/208 8/41/209
f 8/41/209 10/25/208 9/27/210
s 46
f 54/75/211 53/74/212 67/108/213
f 67/108/213 53/74/212 68/55/214
s 47
f 116/6/215 118/85/216 108/7/217
f 108/7/217 118/85/216 117/84/218
s 48
f 19/19/219 47/77/220 18/20/221
f 18/20/221 47/77/220 46/76/222
s 49
f 106/58/223 107/57/224 126/69/225
f 126/69/225 107/57/224 122/70/226
s 50
f 41/24/227 61/13/228 34/78/229
f 34/78/229 61/13/228 40/16/230
s 51
f 84/109/231 119/110/232 113/112/233
f 113/112/233 119/110/232 114/111/234
s 52
f 108/7/235 117/84/236 101/48/237
f 101/48/237 117/84/236 107/57/238
s 53
f 98/102/239 97/50/240 77/61/241
f 77/61/241 97/50/240 76/89/242
s 54
f 29/90/243 28/64/244 11/26/245
f 11/26/245 28/64/244 12/28/246
s 55
f 107/57/247 117/84/248 122/70/249
f 122/70/249 117/84/248 121/87/250
s 56
f 69/32/251 90/31/252 53/74/253
f 53/74/253 90/31/252 68/55/254
s 57
f 104/91/255 93/93/256 103/114/257
f 103/114/257 93/93/256 94/113/258
s 58
f 24/115/259 72/116/260 50/52/261
f 50/52/261 72/116/260 71/47/262
s 59
f 109/5/263 99/8/264 79/105/265
f 79/105/265 99/8/264 98/102/266
s 60
f 110/118/267 111/119/268 115/117/269
f 115/117/269 111/119/268 112/120/270
s 61
f 65/67/271 60/68/272 64/106/273
f 64/106/273 60/68/272 59/94/274
s 62
f 25/4/275 24/115/276 23/62/277
f 23/62/277 24/115/276 22/71/278
s 63
f 43/22/279 15/21/280 16/121/281
f 16/121/281 15/21/280 7/39/282
s 64
f 44/100/283 16/121/284 17/122/285
f 17/122/285 16/121/284 6/123/286
s 65
f 115/117/287 114/111/288 116/6/289
f 116/6/289 114/111/288 118/85/290
s 66
f 62/36/291 59/94/292 56/37/293
f 56/37/293 59/94/292 58/95/294
s 67
f 4/17/295 3/56/296 2/18/297
f 2/18/297 3/56/296 1/65/298
s 68
f 109/5/299 110/118/300 116/6/301
f 116/6/301 110/118/300 115/117/302
s 69
f 28/64/303 75/103/304 27/1/305
f 27/1/305 75/103/304 74/2/306
s off
f 84/109/307 65/67/308 85/107/309
f 65/67/310 64/106/311 85/107/312
s 70
f 37/98/313 32/101/314 35/79/315
f 35/79/315 32/101/314 36/81/316
s 71
f 56/37/317 44/100/318 45/38/319
f 45/38/319 44/100/318 17/122/320
s 72
f 81/124/321 80/104/322 39/96/323
f 39/96/323 80/104/322 38/97/324
s 73
f 26/63/325 23/62/326 21/66/327
f 21/66/327 23/62/326 22/71/328
s 74
f 103/114/329 95/125/330 102/59/331
f 102/59/331 95/125/330 96/49/332
s 75
f 69/32/333 53/74/334 52/34/335
f 52/34/335 53/74/334 47/77/336
s 76
f 17/122/337 18/20/338 45/38/339
f 45/38/339 18/20/338 46/76/340
s 77
f 54/75/341 55/35/342 46/76/343
f 46/76/343 55/35/342 45/38/344
s 78
f 73/3/345 72/116/346 25/4/347
f 25/4/347 72/116/346 24/115/348
s 79
f 106/58/349 126/69/350 104/91/351
f 104/91/351 126/69/350 105/92/352
s 80
f 111/119/353 110/118/354 81/124/355
f 81/124/355 110/118/354 80/104/356
s 81
f 29/90/357 76/89/358 28/64/359
f 28/64/359 76/89/358 75/103/360
s 82
f 114/111/361 115/117/362 113/112/363
f 113/112/363 115/117/362 112/120/364
s 83
f 54/75/365 67/108/366 55/35/367
f 55/35/367 67/108/366 66/10/368
s 84
f 34/78/369 40/16/370 35/79/371
f 35/79/371 40/16/370 39/96/372
s 85
f 113/112/373 83/14/374 84/109/375
f 84/109/375 83/14/374 65/67/376
s 86
f 124/30/377 125/126/378 90/31/379
f 90/31/379 125/126/378 123/53/380
s 87
f 105/92/381 125/126/382 92/46/383
f 92/46/383 125/126/382 124/30/384
s off
f 101/48/385 102/59/386 96/49/387
f 95/125/388 103/114/389 94/113/390
s 88
f 32/101/391 13/43/392 14/40/393
f 14/40/393 13/43/392 8/41/394
s 89
f 71/47/395 72/116/396 92/46/397
f 92/46/397 72/116/396 93/93/398
s 90
f 105/92/399 126/69/400 125/126/401
f 125/126/401 126/69/400 123/53/402
s 91
f 2/18/403 1/65/404 20/73/405
f 20/73/405 1/65/404 21/66/406
s 92
f 44/100/407 57/99/408 16/121/409
f 16/121/409 57/99/408 43/22/410
s 93
f 55/35/411 66/10/412 62/36/413
f 62/36/413 66/10/412 63/9/414
s 94
f 6/123/415 16/121/416 5/42/417
f 5/42/417 16/121/416 7/39/418
s 95
f 73/3/419 94/113/420 72/116/421
f 72/116/421 94/113/420 93/93/422
s 96
f 68/55/423 89/54/424 67/108/425
f 67/108/425 89/54/424 88/88/426
s off
f 81/124/427 82/15/428 111/119/429
f 111/119/430 82/15/431 112/120/432
s 97
f 15/21/433 41/24/434 33/80/435
f 33/80/435 41/24/434 34/78/436
s 98
f 4/17/437 6/123/438 3/56/439
f 3/56/439 6/123/438 5/42/440
s 99
f 33/80/441 14/40/442 15/21/443
f 15/21/443 14/40/442 7/39/444
s 100
f 95/125/445 94/113/446 74/2/447
f 74/2/447 94/113/446 73/3/448
s 101
f 24/115/449 50/52/450 22/71/451
f 22/71/451 50/52/450 49/72/452
s 102
f 64/106/453 59/94/454 63/9/455
f 63/9/455 59/94/454 62/36/456
s 103
f 87/11/457 120/86/458 86/12/459
f 86/12/459 120/86/458 119/110/460
s 104
f 79/105/461 98/102/462 78/60/463
f 78/60/463 98/102/462 77/61/464
s 105
f 96/49/465 95/125/466 75/103/467
f 75/103/467 95/125/466 74/2/468
s 106
f 37/98/469 38/97/470 31/44/471
f 31/44/471 38/97/470 78/60/472
s 107
f 120/86/473 118/85/474 119/110/475
f 119/110/475 118/85/474 114/111/476
s 108
f 82/15/477 81/124/478 40/16/479
f 40/16/479 81/124/478 39/96/480
s 109
f 113/112/481 112/120/482 83/14/483
f 83/14/483 112/120/482 82/15/484
s 110
f 104/91/485 103/114/486 106/58/487
f 106/58/487 103/114/486 102/59/488
s 111
f 86/12/489 119/110/490 85/107/491
f 85/107/491 119/110/490 84/109/492
s 112
f 30/45/493 29/90/494 10/25/495
f 10/25/495 29/90/494 11/26/496
s 113
f 110/118/497 109/5/498 80/104/499
f 80/104/499 109/5/498 79/105/500
s 114
f 67/108/501 88/88/502 66/10/503
f 66/10/503 88/88/502 87/11/504
s 115
f 31/44/505 13/43/506 37/98/507
f 37/98/507 13/43/506 32/101/508
s 116
f 4/17/509 18/20/510 6/123/511
f 6/123/511 18/20/510 17/122/512
