# This file uses centimeters as units for non-parametric coordinates.

mtllib stone_01.mtl
g default
v 0.097049 -0.022427 1.844075
v 0.082588 -0.022058 1.843731
v 0.082186 -0.016892 1.841668
v -0.261669 0.704204 1.953449
v -0.255643 0.686122 1.932124
v -0.248011 0.704573 1.945882
v 0.338068 -0.026487 1.895666
v 0.210328 -0.024272 1.856457
v 0.241661 -0.007297 1.857489
v 0.177389 -0.023903 2.533336
v 0.206311 0.064296 2.536087
v 0.250096 -0.025010 2.514075
v 0.109502 0.479462 2.480712
v 0.240456 0.319669 2.516139
v 0.220772 0.559542 2.394727
v 0.310351 0.420047 2.435312
v 0.347308 0.351037 1.894979
v 0.269780 0.305277 1.864712
v 0.224789 0.544043 1.936940
v -0.107818 0.559542 1.879157
v 0.482680 0.142901 2.101000
v 0.424836 -0.027963 2.070389
v 0.431263 0.220029 1.929717
v 0.354940 -0.026856 1.902201
v -0.258857 -0.016154 2.286729
v -0.184944 -0.017630 2.411580
v -0.293403 0.180912 2.303926
v -0.219490 0.129247 2.409516
v -0.273720 -0.016154 2.000913
v -0.258857 -0.016154 2.286729
v -0.337590 0.394583 2.195240
v -0.293403 0.180912 2.303926
v 0.057281 0.028869 1.832037
v -0.193380 0.246600 1.846483
v 0.201892 0.076105 1.840636
v 0.269780 0.305277 1.864712
v -0.234353 0.599767 1.879501
v -0.107818 0.559542 1.879157
v -0.303445 0.610838 1.960672
v -0.269301 0.105628 1.942443
v -0.254438 0.639254 1.901514
v -0.193380 0.246600 1.846483
v -0.234353 0.599767 1.879501
v -0.291394 0.704942 2.000569
v -0.261669 0.704204 1.953449
v -0.310274 0.636671 1.987499
v -0.303445 0.610838 1.960672
v -0.254438 0.639254 1.901514
v -0.255643 0.686122 1.932124
v -0.333171 0.645528 2.139178
v -0.125493 0.464331 2.444599
v -0.300634 0.707157 2.060071
v 0.110305 0.727454 2.131267
v 0.109502 0.479462 2.480712
v 0.220772 0.559542 2.394727
v 0.310351 0.420047 2.435312
v 0.220772 0.559542 2.394727
v 0.462595 0.179066 2.329034
v 0.110305 0.727454 2.131267
v 0.482680 0.142901 2.101000
v 0.111510 0.723394 2.031868
v 0.431263 0.220029 1.929717
v 0.224789 0.544043 1.936940
v 0.347308 0.351037 1.894979
v -0.273720 -0.016154 2.000913
v -0.273318 -0.016154 1.998161
v -0.258857 -0.016154 2.286729
v 0.082588 -0.022058 1.843731
v -0.184944 -0.017630 2.411580
v 0.177389 -0.023903 2.533336
v 0.097049 -0.022427 1.844075
v 0.210328 -0.024272 1.856457
v 0.250096 -0.025010 2.514075
v 0.338068 -0.026487 1.895666
v 0.371811 -0.027225 2.436344
v 0.354940 -0.026856 1.902201
v 0.424836 -0.027963 2.070389
v 0.371811 -0.027225 2.436344
v 0.250096 -0.025010 2.514075
v 0.401537 0.044737 2.412612
v 0.206311 0.064296 2.536087
v 0.243267 0.284242 2.519922
v 0.211131 0.214125 2.520954
v -0.337590 0.394583 2.195240
v -0.273720 -0.016154 2.000913
v -0.339598 0.622647 2.136426
v -0.310274 0.636671 1.987499
v -0.273318 -0.016154 1.998161
v -0.269301 0.105628 1.942443
v -0.303445 0.610838 1.960672
v 0.177389 -0.023903 2.533336
v 0.206311 0.064296 2.536087
v -0.184944 -0.017630 2.411580
v -0.219490 0.129247 2.409516
v 0.211131 0.214125 2.520954
v -0.142766 0.342918 2.452853
v 0.210328 -0.024272 1.856457
v 0.241661 -0.007297 1.857489
v 0.097049 -0.022427 1.844075
v 0.082186 -0.016892 1.841668
v 0.057281 0.028869 1.832037
v 0.201892 0.076105 1.840636
v 0.082588 -0.022058 1.843731
v 0.082186 -0.016892 1.841668
v -0.273318 -0.016154 1.998161
v 0.057281 0.028869 1.832037
v -0.269301 0.105628 1.942443
v -0.193380 0.246600 1.846483
v -0.333171 0.645528 2.139178
v -0.339598 0.622647 2.136426
v -0.300634 0.707157 2.060071
v -0.310274 0.636671 1.987499
v -0.291394 0.704942 2.000569
v -0.142766 0.342918 2.452853
v -0.125493 0.464331 2.444599
v -0.219490 0.129247 2.409516
v -0.333171 0.645528 2.139178
v -0.293403 0.180912 2.303926
v -0.337590 0.394583 2.195240
v -0.339598 0.622647 2.136426
v 0.211131 0.214125 2.520954
v 0.243267 0.284242 2.519922
v -0.142766 0.342918 2.452853
v 0.240456 0.319669 2.516139
v 0.109502 0.479462 2.480712
v -0.125493 0.464331 2.444599
v -0.300634 0.707157 2.060071
v -0.291394 0.704942 2.000569
v 0.110305 0.727454 2.131267
v -0.261669 0.704204 1.953449
v -0.248011 0.704573 1.945882
v 0.111510 0.723394 2.031868
v 0.371811 -0.027225 2.436344
v 0.424836 -0.027963 2.070389
v 0.401537 0.044737 2.412612
v 0.462595 0.179066 2.329034
v 0.482680 0.142901 2.101000
v 0.224789 0.544043 1.936940
v -0.107818 0.559542 1.879157
v 0.111510 0.723394 2.031868
v -0.234353 0.599767 1.879501
v -0.254438 0.639254 1.901514
v -0.255643 0.686122 1.932124
v -0.248011 0.704573 1.945882
v 0.354940 -0.026856 1.902201
v 0.431263 0.220029 1.929717
v 0.338068 -0.026487 1.895666
v 0.241661 -0.007297 1.857489
v 0.201892 0.076105 1.840636
v 0.269780 0.305277 1.864712
v 0.347308 0.351037 1.894979
v 0.401537 0.044737 2.412612
v 0.243267 0.284242 2.519922
v 0.462595 0.179066 2.329034
v 0.310351 0.420047 2.435312
v 0.240456 0.319669 2.516139
vt 0.321453 0.988081
vt 0.321453 0.988004
vt 0.321453 0.988004
vt 0.322037 0.986604
vt 0.322011 0.986682
vt 0.321960 0.986682
vt 0.321580 0.989092
vt 0.321453 0.988548
vt 0.321453 0.988703
vt 0.324296 0.988703
vt 0.324194 0.988937
vt 0.324296 0.988781
vt 0.322037 0.986604
vt 0.321834 0.986604
vt 0.322087 0.986449
vt 0.322214 0.986449
vt 0.321580 0.989170
vt 0.321478 0.988781
vt 0.321783 0.988626
vt 0.321681 0.987226
vt 0.324194 0.988937
vt 0.323839 0.989170
vt 0.323712 0.988781
vt 0.324093 0.988392
vt 0.323331 0.989792
vt 0.323839 0.989170
vt 0.324220 0.988937
vt 0.323712 0.989559
vt 0.322240 0.986604
vt 0.323433 0.986760
vt 0.323077 0.986371
vt 0.323509 0.986604
vt 0.321427 0.987926
vt 0.321580 0.986837
vt 0.321402 0.988548
vt 0.321580 0.989092
vt 0.323814 0.989403
vt 0.324194 0.988937
vt 0.321453 0.988548
vt 0.321478 0.988781
vt 0.321732 0.986682
vt 0.321681 0.987226
vt 0.322087 0.986449
vt 0.321834 0.986604
vt 0.322011 0.986604
vt 0.321580 0.986837
vt 0.321732 0.986682
vt 0.322240 0.986526
vt 0.323915 0.987148
vt 0.323915 0.986993
vt 0.323509 0.986604
vt 0.323433 0.986760
vt 0.321960 0.986682
vt 0.322849 0.986371
vt 0.324042 0.987382
vt 0.322494 0.986526
vt 0.321427 0.987926
vt 0.321402 0.988548
vt 0.321453 0.988703
vt 0.321453 0.988004
vt 0.322646 0.988237
vt 0.324093 0.988392
vt 0.323712 0.988781
vt 0.323839 0.989170
vt 0.323331 0.989792
vt 0.323712 0.988781
vt 0.322646 0.988237
vt 0.322214 0.986449
vt 0.322240 0.986604
vt 0.322240 0.986604
vt 0.322824 0.986371
vt 0.322392 0.989792
vt 0.321681 0.989481
vt 0.322240 0.988237
vt 0.321783 0.988626
vt 0.321580 0.989170
vt 0.322240 0.986604
vt 0.322240 0.986604
vt 0.323433 0.986760
vt 0.321453 0.988004
vt 0.323915 0.987148
vt 0.324296 0.988781
vt 0.324220 0.988781
vt 0.323915 0.986993
vt 0.323915 0.987148
vt 0.323712 0.989559
vt 0.324296 0.988781
vt 0.324194 0.988937
vt 0.323814 0.989403
vt 0.321605 0.989170
vt 0.322265 0.989559
vt 0.324220 0.988937
vt 0.324220 0.988781
vt 0.323077 0.986371
vt 0.324296 0.988703
vt 0.321453 0.988081
vt 0.322011 0.986604
vt 0.322087 0.986449
vt 0.324296 0.988703
vt 0.322265 0.989559
vt 0.321605 0.989170
vt 0.321681 0.989481
vt 0.322392 0.989792
vt 0.324068 0.987304
vt 0.321453 0.988548
vt 0.321453 0.988081
vt 0.322240 0.986604
vt 0.322011 0.986604
vt 0.321427 0.987926
vt 0.321453 0.988004
vt 0.321453 0.988004
vt 0.322265 0.989559
vt 0.322392 0.989792
vt 0.323331 0.989792
vt 0.323712 0.989559
vt 0.321580 0.986837
vt 0.322494 0.986526
vt 0.322240 0.986526
vt 0.322214 0.986449
vt 0.324068 0.987304
vt 0.324042 0.987382
vt 0.323915 0.986993
vt 0.322849 0.986371
vt 0.323509 0.986604
vt 0.323077 0.986371
vt 0.322824 0.986371
vt 0.324220 0.988781
vt 0.324220 0.988937
vt 0.324068 0.987304
vt 0.324194 0.988937
vt 0.324093 0.988392
vt 0.324042 0.987382
vt 0.322494 0.986526
vt 0.322646 0.988237
vt 0.322240 0.986526
vt 0.322037 0.986604
vt 0.322011 0.986682
vt 0.322240 0.988237
vt 0.323814 0.989403
vt 0.322824 0.986371
vt 0.322849 0.986371
vt 0.321783 0.988626
vt 0.321681 0.987226
vt 0.322240 0.988237
vt 0.321732 0.986682
vt 0.321834 0.986604
vt 0.321960 0.986682
vt 0.322011 0.986682
vt 0.321605 0.989170
vt 0.321580 0.989092
vt 0.321681 0.989481
vt 0.321453 0.988703
vt 0.321402 0.988548
vt 0.321478 0.988781
vt 0.321580 0.989170
vt 0.324194 0.988937
vn 0.012651 -0.370056 -0.928923
vn 0.012651 -0.370056 -0.928923
vn 0.012651 -0.370056 -0.928923
vn -0.382135 0.648747 -0.658103
vn -0.382135 0.648747 -0.658103
vn -0.382135 0.648747 -0.658103
vn 0.258863 -0.425073 -0.867354
vn 0.258863 -0.425073 -0.867354
vn 0.258863 -0.425073 -0.867354
vn 0.252831 -0.112885 0.960902
vn 0.252831 -0.112885 0.960902
vn 0.252831 -0.112885 0.960902
vn -0.808224 0.310253 -0.500517
vn -0.812550 0.306062 -0.496073
vn -0.799440 0.318373 -0.509445
vn -0.799441 0.318166 -0.509572
vn 0.177710 0.315465 -0.932149
vn 0.177192 0.315403 -0.932268
vn 0.177192 0.315403 -0.932268
vn 0.177192 0.315403 -0.932268
vn 0.176674 0.315342 -0.932387
vn 0.177192 0.315403 -0.932268
vn 0.321213 0.448529 0.834052
vn 0.321213 0.448529 0.834052
vn 0.321213 0.448529 0.834052
vn 0.321213 0.448529 0.834052
vn 0.674028 0.127110 0.727688
vn 0.674028 0.127110 0.727688
vn 0.684581 0.122869 0.718507
vn 0.684581 0.122869 0.718507
vn -0.982879 -0.177021 0.051111
vn -0.982874 -0.176927 0.051528
vn -0.982874 -0.176927 0.051528
vn -0.982874 -0.176927 0.051528
vn -0.982869 -0.176833 0.051945
vn -0.982874 -0.176927 0.051528
vn 0.027320 0.097457 -0.994865
vn 0.027139 0.096881 -0.994926
vn 0.027139 0.096881 -0.994926
vn -0.019795 -0.999804 -0.000078
vn -0.018311 -0.999832 -0.000120
vn -0.016759 -0.999860 -0.000201
vn -0.016759 -0.999860 -0.000201
vn 0.027932 0.097869 -0.994807
vn 0.027932 0.097869 -0.994807
vn 0.028906 0.099435 -0.994624
vn -0.763060 -0.028273 -0.645709
vn -0.763141 -0.028224 -0.645616
vn -0.763188 -0.028258 -0.645558
vn -0.763188 -0.028258 -0.645558
vn -0.763141 -0.028224 -0.645616
vn -0.763181 -0.028199 -0.645569
vn -0.763141 -0.028224 -0.645616
vn -0.763047 -0.028155 -0.645730
vn -0.763181 -0.028199 -0.645569
vn -0.799439 0.318580 -0.509317
vn -0.808224 0.310253 -0.500517
vn -0.799440 0.318373 -0.509445
vn -0.845578 -0.191792 0.498211
vn -0.845578 -0.191792 0.498211
vn -0.845578 -0.191792 0.498211
vn -0.845578 -0.191792 0.498211
vn -0.808224 0.310253 -0.500517
vn -0.825252 0.293804 -0.482326
vn -0.812550 0.306062 -0.496073
vn -0.137562 0.807999 0.572900
vn -0.138595 0.807714 0.573053
vn -0.138595 0.807714 0.573053
vn 0.106729 -0.148291 -0.983168
vn 0.106729 -0.148291 -0.983168
vn 0.106473 -0.145546 -0.983606
vn 0.106149 -0.141976 -0.984162
vn -0.139119 0.807608 0.573076
vn -0.139119 0.807608 0.573076
vn -0.138609 0.807787 0.572946
vn 0.842963 0.537838 -0.011970
vn 0.843052 0.537711 -0.011382
vn 0.843015 0.537769 -0.011385
vn 0.843015 0.537769 -0.011385
vn 0.843052 0.537711 -0.011382
vn 0.843096 0.537648 -0.011088
vn -0.980803 -0.061794 -0.184953
vn -0.980996 -0.062114 -0.183820
vn -0.980392 -0.060951 -0.187396
vn -0.980996 -0.062114 -0.183820
vn 0.843083 0.537669 -0.011153
vn 0.843136 0.537601 -0.010289
vn 0.843121 0.537621 -0.010558
vn 0.843121 0.537621 -0.010558
vn 0.843136 0.537601 -0.010289
vn 0.843185 0.537531 -0.009969
vn 0.843136 0.537601 -0.010289
vn 0.843174 0.537537 -0.010571
vn 0.843185 0.537531 -0.009969
vn 0.000000 -1.000000 -0.000000
vn -0.008118 -0.999967 0.000407
vn -0.011563 -0.999933 -0.000028
vn -0.008118 -0.999967 0.000407
vn -0.018676 -0.999825 -0.000745
vn -0.011563 -0.999933 -0.000028
vn -0.011563 -0.999933 -0.000028
vn -0.018676 -0.999825 -0.000745
vn -0.019897 -0.999801 -0.001524
vn -0.139119 0.807608 0.573076
vn -0.139119 0.807608 0.573076
vn -0.138595 0.807714 0.573053
vn -0.138595 0.807714 0.573053
vn -0.256095 -0.041745 0.965750
vn -0.256095 -0.041745 0.965750
vn -0.299832 0.052725 0.952534
vn -0.299832 0.052725 0.952534
vn 0.311242 0.047594 0.949138
vn 0.537887 0.055950 0.841158
vn 0.535602 0.014352 0.844348
vn 0.537887 0.055950 0.841158
vn -0.019795 -0.999804 -0.000078
vn -0.018605 -0.999827 -0.000103
vn -0.018311 -0.999832 -0.000120
vn -0.018311 -0.999832 -0.000120
vn -0.018605 -0.999827 -0.000103
vn -0.015341 -0.999882 -0.000206
vn 0.535602 0.014352 0.844348
vn 0.180799 0.041841 0.982630
vn 0.311242 0.047594 0.949138
vn 0.311242 0.047594 0.949138
vn 0.180799 0.041841 0.982630
vn -0.197367 0.104801 0.974712
vn -0.978729 -0.059270 -0.196407
vn -0.980996 -0.062114 -0.183820
vn -0.980996 -0.062114 -0.183820
vn -0.016759 -0.999860 -0.000201
vn -0.018568 -0.999827 -0.001200
vn -0.016759 -0.999860 -0.000201
vn -0.018568 -0.999827 -0.001200
vn -0.980803 -0.061794 -0.184953
vn -0.980392 -0.060951 -0.187396
vn -0.978936 -0.058946 -0.195474
vn -0.980392 -0.060951 -0.187396
vn -0.979550 -0.059265 -0.192276
vn -0.978936 -0.058946 -0.195474
vn -0.316494 0.074282 0.945682
vn -0.299832 0.052725 0.952534
vn -0.299832 0.052725 0.952534
vn 0.896635 -0.235946 -0.374666
vn 0.896635 -0.235946 -0.374666
vn 0.896635 -0.235946 -0.374666
vn 0.896635 -0.235946 -0.374666
vn -0.256095 -0.041745 0.965750
vn -0.256095 -0.041745 0.965750
vn -0.227699 -0.114363 0.966992
vn 0.105495 -0.134830 -0.985237
vn 0.105857 -0.138817 -0.984644
vn 0.106149 -0.141976 -0.984162
vn 0.105857 -0.138817 -0.984644
vn 0.106473 -0.145546 -0.983606
vn 0.106149 -0.141976 -0.984162
vn -0.374734 -0.377021 -0.847012
vn -0.374734 -0.377021 -0.847012
vn -0.374904 -0.373834 -0.848348
vn -0.374904 -0.373834 -0.848348
vn -0.375127 -0.368852 -0.850428
vn -0.374904 -0.373834 -0.848348
vn -0.374904 -0.373834 -0.848348
vn 0.930936 -0.339073 0.135600
vn 0.930936 -0.339073 0.135600
vn 0.930817 -0.339412 0.135569
vn 0.930817 -0.339412 0.135569
vn -0.374734 -0.377021 -0.847012
vn -0.374734 -0.377021 -0.847012
vn -0.374798 -0.375235 -0.847777
vn 0.027932 0.097869 -0.994807
vn 0.027932 0.097869 -0.994807
vn 0.027139 0.096881 -0.994926
vn 0.027139 0.096881 -0.994926
vn -0.943836 0.289989 -0.158366
vn -0.943667 0.291087 -0.157358
vn -0.943836 0.289989 -0.158366
vn -0.771595 0.151772 0.617743
vn -0.772260 0.152053 0.616843
vn -0.772569 0.152078 0.616450
vn -0.772260 0.152053 0.616843
vn -0.777067 0.150729 0.611104
vn -0.772569 0.152078 0.616450
vn -0.772569 0.152078 0.616450
vn -0.777067 0.150729 0.611104
vn -0.775107 0.151188 0.613474
vn -0.775107 0.151188 0.613474
vn -0.777067 0.150729 0.611104
vn -0.781047 0.149222 0.606381
vn -0.777067 0.150729 0.611104
vn -0.785041 0.148193 0.601457
vn -0.781047 0.149222 0.606381
vn -0.157713 0.086759 0.983666
vn -0.157240 0.089662 0.983482
vn -0.157095 0.089476 0.983522
vn -0.157240 0.089662 0.983482
vn -0.156883 0.090976 0.983418
vn -0.157095 0.089476 0.983522
vn -0.156883 0.090976 0.983418
vn -0.156950 0.089290 0.983562
vn -0.157095 0.089476 0.983522
vn -0.157095 0.089476 0.983522
vn -0.156950 0.089290 0.983562
vn -0.156899 0.089193 0.983579
vn -0.041743 0.998176 -0.043627
vn -0.043079 0.998256 -0.040371
vn -0.041968 0.998196 -0.042940
vn -0.041968 0.998196 -0.042940
vn -0.043079 0.998256 -0.040371
vn -0.044093 0.998294 -0.038288
vn -0.044093 0.998294 -0.038288
vn -0.043079 0.998256 -0.040371
vn -0.044189 0.998308 -0.037802
vn -0.043079 0.998256 -0.040371
vn -0.042385 0.998248 -0.041282
vn -0.044189 0.998308 -0.037802
vn 0.930698 -0.339751 0.135537
vn 0.930817 -0.339412 0.135569
vn 0.930817 -0.339412 0.135569
vn -0.943836 0.289989 -0.158366
vn -0.944004 0.288890 -0.159372
vn -0.943836 0.289989 -0.158366
vn -0.944004 0.288890 -0.159372
vn 0.168291 0.542062 -0.823315
vn 0.168978 0.541410 -0.823603
vn 0.168536 0.542438 -0.823017
vn 0.168978 0.541410 -0.823603
vn 0.168770 0.542266 -0.823082
vn 0.168536 0.542438 -0.823017
vn 0.168770 0.542266 -0.823082
vn 0.168251 0.542905 -0.822767
vn 0.168536 0.542438 -0.823017
vn 0.168251 0.542905 -0.822767
vn 0.168424 0.542798 -0.822802
vn 0.168536 0.542438 -0.823017
vn 0.168536 0.542438 -0.823017
vn 0.168424 0.542798 -0.822802
vn 0.168222 0.543558 -0.822342
vn 0.361032 -0.007681 -0.932522
vn 0.363738 -0.008851 -0.931459
vn 0.366619 -0.010258 -0.930314
vn 0.363738 -0.008851 -0.931459
vn 0.367510 -0.011050 -0.929954
vn 0.366619 -0.010258 -0.930314
vn 0.367510 -0.011050 -0.929954
vn 0.368398 -0.011745 -0.929594
vn 0.366619 -0.010258 -0.930314
vn 0.368398 -0.011745 -0.929594
vn 0.368517 -0.010754 -0.929559
vn 0.366619 -0.010258 -0.930314
vn 0.366619 -0.010258 -0.930314
vn 0.368517 -0.010754 -0.929559
vn 0.368818 -0.010100 -0.929447
vn -0.018568 -0.999827 -0.001200
vn -0.018568 -0.999827 -0.001200
vn -0.018676 -0.999825 -0.000745
vn -0.019897 -0.999801 -0.001524
vn 0.674028 0.127110 0.727688
vn 0.674028 0.127110 0.727688
vn 0.663331 0.131324 0.736713
vn 0.843121 0.537621 -0.010558
vn 0.843096 0.537648 -0.011088
vn 0.843083 0.537669 -0.011153
vn 0.843052 0.537711 -0.011382
s off
g stone_01 group1
usemtl initialShadingGroup
f 1/1/1 2/2/2 3/3/3
f 4/4/4 6/5/5 5/6/6
f 7/7/7 8/8/8 9/9/9
f 10/10/10 12/11/11 11/12/12
s 1
f 45/13/13 48/14/14 46/16/15
f 46/16/15 48/14/14 47/15/16
s off
f 17/17/17 18/18/18 19/19/19
usemtl lambert2SG
f 18/18/20 20/20/21 19/19/22
s 2
usemtl initialShadingGroup
f 14/21/23 16/22/24 13/24/25
usemtl lambert2SG
f 13/24/25 16/22/24 15/23/26
s 3
usemtl initialShadingGroup
f 155/26/27 153/27/28 154/25/29
usemtl lambert2SG
f 154/25/29 153/27/28 152/28/30
s off
usemtl initialShadingGroup
f 29/29/31 30/30/32 31/31/33
f 30/30/34 32/32/35 31/31/36
f 33/33/37 34/34/38 35/35/39
s 4
f 74/36/40 75/37/41 72/39/42
f 72/39/42 75/37/41 73/38/43
s off
f 36/40/44 37/41/45 38/42/46
usemtl pasted__lambert2SG
f 39/43/47 41/44/48 40/45/49
f 40/45/50 41/44/51 42/46/52
usemtl initialShadingGroup
f 41/44/53 43/47/54 42/46/55
f 44/48/56 45/13/57 46/16/58
s 5
f 26/49/59 28/50/60 25/52/61
f 25/52/61 28/50/60 27/51/62
s off
f 45/13/63 49/53/64 48/14/65
f 50/54/66 51/55/67 52/56/68
s 6
f 101/57/69 102/58/70 100/60/71
f 100/60/71 102/58/70 98/59/72
s off
f 53/61/73 54/62/74 55/63/75
f 56/64/76 58/65/77 57/66/78
f 57/66/79 58/65/80 59/67/81
s 7
f 88/69/82 85/70/83 87/68/84
f 87/68/84 85/70/83 86/71/85
s off
usemtl pasted__lambert2SG
f 60/72/86 62/73/87 61/74/88
usemtl initialShadingGroup
f 61/74/89 62/73/90 63/75/91
f 62/73/92 64/76/93 63/75/94
f 65/77/95 66/78/96 67/79/97
f 66/78/98 68/80/99 67/79/100
f 67/79/101 68/80/102 69/81/103
s 8
usemtl lambert2SG
f 54/62/104 53/61/105 51/55/106
f 51/55/106 53/61/105 52/56/107
s 9
usemtl pasted__lambert2SG
f 95/83/108 94/84/109 92/82/110
usemtl initialShadingGroup
f 92/82/110 94/84/109 93/85/111
s 10
f 81/87/112 79/88/113 80/86/114
f 80/86/114 79/88/113 78/89/115
s off
f 74/36/116 76/90/117 75/37/118
f 75/37/119 76/90/120 77/91/121
f 80/86/122 82/92/123 81/87/124
f 81/87/125 82/92/126 83/93/127
f 84/94/128 86/71/129 85/70/130
s 11
f 73/38/131 70/95/132 72/39/133
f 72/39/133 70/95/132 71/96/134
s off
usemtl pasted__lambert2SG
f 88/69/135 87/68/136 89/97/137
f 87/68/138 90/98/139 89/97/140
usemtl initialShadingGroup
f 91/99/141 92/82/142 93/85/143
s 12
f 24/101/144 23/102/145 22/100/146
f 22/100/146 23/102/145 21/103/147
s off
f 94/84/148 95/83/149 96/104/150
f 97/105/151 99/106/152 98/59/153
f 99/106/154 100/60/155 98/59/156
s 13
f 107/108/157 106/109/158 105/107/159
f 105/107/159 106/109/158 104/110/160
s off
f 103/111/161 105/107/162 104/110/163
s 14
f 137/113/164 136/114/165 134/112/166
usemtl pasted__lambert2SG
f 134/112/166 136/114/165 135/115/167
s off
usemtl initialShadingGroup
f 106/109/168 107/108/169 108/116/170
s 15
f 37/41/171 36/40/172 34/34/173
usemtl pasted__lambert2SG
f 34/34/173 36/40/172 35/35/174
s off
usemtl initialShadingGroup
f 111/117/175 113/118/176 112/119/177
f 114/120/178 115/121/179 116/122/180
usemtl lambert2SG
f 115/121/181 117/123/182 116/122/183
usemtl initialShadingGroup
f 116/122/184 117/123/185 118/124/186
f 118/124/187 117/123/188 119/125/189
f 117/123/190 120/126/191 119/125/192
f 121/127/193 122/128/194 123/129/195
f 122/128/196 124/130/197 123/129/198
f 124/130/199 125/131/200 123/129/201
f 123/129/202 125/131/203 126/132/204
f 127/133/205 129/134/206 128/135/207
f 128/135/208 129/134/209 130/136/210
f 130/136/211 129/134/212 131/137/213
f 129/134/214 132/138/215 131/137/216
f 133/139/217 134/112/218 135/115/219
s 16
f 112/119/220 110/140/221 111/117/222
f 111/117/222 110/140/221 109/141/223
s off
usemtl lambert2SG
f 138/142/224 139/143/225 140/144/226
usemtl initialShadingGroup
f 139/143/227 141/145/228 140/144/229
f 141/145/230 142/146/231 140/144/232
f 142/146/233 143/147/234 140/144/235
f 140/144/236 143/147/237 144/148/238
f 145/149/239 147/150/240 146/151/241
usemtl pasted__lambert2SG
f 147/150/242 148/152/243 146/151/244
f 148/152/245 149/153/246 146/151/247
usemtl initialShadingGroup
f 149/153/248 150/154/249 146/151/250
f 146/151/251 150/154/252 151/155/253
s 17
f 71/96/254 70/95/255 68/80/256
f 68/80/256 70/95/255 69/81/257
s off
f 153/27/258 155/26/259 156/156/260
s 18
usemtl lambert2SG
f 61/74/261 59/67/262 60/72/263
usemtl initialShadingGroup
f 60/72/263 59/67/262 58/65/264
