# This file uses centimeters as units for non-parametric coordinates.

mtllib stone_00.mtl
g default
v -1.089195 0.167499 2.042992
v -0.932495 0.167499 2.352811
v -0.939618 0.167499 1.826119
v -0.733058 0.167499 2.135938
v -0.761549 -0.008792 2.197902
v -0.939618 -0.008792 2.399284
v -0.953863 -0.008792 1.903574
v -1.089195 -0.008792 2.097210
v -0.647586 -0.008792 1.857101
v -0.626217 0.167499 1.826119
v -0.505131 -0.008792 2.159174
v -0.483763 0.167499 2.182411
v -1.245896 -0.008792 2.376047
v -1.310000 0.167499 2.422520
v -1.388350 -0.008792 2.128192
v -1.388350 0.167499 2.042992
v -0.946741 -0.008792 1.717682
v -0.932495 0.167499 1.616991
v -0.647586 -0.008792 1.857101
v -0.626217 0.167499 1.826119
v -0.968109 -0.008792 2.561939
v -0.968109 0.167499 2.600666
v -1.245896 -0.008792 2.376047
v -1.310000 0.167499 2.422520
v -1.260141 -0.008792 1.802882
v -1.260141 0.167499 1.702191
v -0.946741 -0.008792 1.717682
v -0.932495 0.167499 1.616991
v -0.626217 -0.008792 2.530957
v -0.604849 0.167499 2.569684
v -0.968109 -0.008792 2.561939
v -0.968109 0.167499 2.600666
v -0.505131 -0.008792 2.159174
v -0.483763 0.167499 2.182411
v -0.626217 -0.008792 2.530957
v -0.604849 0.167499 2.569684
v -1.388350 -0.008792 2.128192
v -1.388350 0.167499 2.042992
v -1.260141 -0.008792 1.802882
v -1.260141 0.167499 1.702191
v -0.968109 -0.008792 2.561939
v -0.939618 -0.008792 2.399284
v -0.626217 -0.008792 2.530957
v -0.761549 -0.008792 2.197902
v -0.505131 -0.008792 2.159174
v -0.953863 -0.008792 1.903574
v -0.761549 -0.008792 2.197902
v -0.946741 -0.008792 1.717682
v -0.647586 -0.008792 1.857101
v -0.505131 -0.008792 2.159174
v -1.388350 -0.008792 2.128192
v -1.245896 -0.008792 2.376047
v -1.089195 -0.008792 2.097210
v -0.968109 -0.008792 2.561939
v -0.939618 -0.008792 2.399284
v -1.388350 -0.008792 2.128192
v -1.260141 -0.008792 1.802882
v -1.089195 -0.008792 2.097210
v -0.946741 -0.008792 1.717682
v -0.953863 -0.008792 1.903574
v -0.939618 0.167499 1.826119
v -0.932495 0.167499 1.616991
v -0.733058 0.167499 2.135938
v -0.626217 0.167499 1.826119
v -0.483763 0.167499 2.182411
v -1.388350 0.167499 2.042992
v -1.089195 0.167499 2.042992
v -1.260141 0.167499 1.702191
v -0.932495 0.167499 1.616991
v -0.939618 0.167499 1.826119
v -0.968109 0.167499 2.600666
v -0.604849 0.167499 2.569684
v -0.932495 0.167499 2.352811
v -0.733058 0.167499 2.135938
v -0.483763 0.167499 2.182411
v -1.388350 0.167499 2.042992
v -1.310000 0.167499 2.422520
v -1.089195 0.167499 2.042992
v -0.968109 0.167499 2.600666
v -0.932495 0.167499 2.352811
vt 0.425947 0.985771
vt 0.424521 0.987168
vt 0.424823 0.988565
vt 0.426551 0.987323
vt 0.423960 0.984917
vt 0.426249 0.984607
vt 0.424392 0.987478
vt 0.422707 0.986780
vt 0.426249 0.984607
vt 0.423960 0.984917
vt 0.424219 0.985305
vt 0.426162 0.984840
vt 0.428193 0.985538
vt 0.428063 0.987944
vt 0.426551 0.987711
vt 0.425903 0.986082
vt 0.424348 0.990195
vt 0.426508 0.989651
vt 0.426422 0.989496
vt 0.424478 0.989574
vt 0.426508 0.989651
vt 0.428063 0.987944
vt 0.427890 0.988099
vt 0.426422 0.989496
vt 0.428063 0.987944
vt 0.428193 0.985538
vt 0.428020 0.985694
vt 0.427890 0.988099
vt 0.422707 0.989031
vt 0.424348 0.990195
vt 0.424478 0.989574
vt 0.422923 0.988487
vt 0.424392 0.987478
vt 0.424348 0.990195
vt 0.422707 0.989031
vt 0.422707 0.986780
vt 0.426162 0.984840
vt 0.425947 0.985771
vt 0.428020 0.985694
vt 0.426551 0.987323
vt 0.427890 0.988099
vt 0.424823 0.988565
vt 0.424478 0.989574
vt 0.426551 0.987323
vt 0.426422 0.989496
vt 0.427890 0.988099
vt 0.422880 0.986314
vt 0.424521 0.987168
vt 0.424219 0.985305
vt 0.426162 0.984840
vt 0.425947 0.985771
vt 0.423960 0.984917
vt 0.422707 0.986780
vt 0.422880 0.986314
vt 0.424219 0.985305
vt 0.424521 0.987168
vt 0.424478 0.989574
vt 0.424823 0.988565
vt 0.424737 0.988953
vt 0.426551 0.987711
vt 0.424348 0.990195
vt 0.426508 0.989651
vt 0.428063 0.987944
vt 0.422923 0.988487
vt 0.422880 0.986314
vt 0.424737 0.988953
vt 0.426249 0.984607
vt 0.425903 0.986082
vt 0.426551 0.987711
vt 0.424737 0.988953
vt 0.424392 0.987478
vt 0.422707 0.986780
vt 0.422707 0.989031
vt 0.422923 0.988487
vt 0.422880 0.986314
vt 0.425903 0.986082
vt 0.428193 0.985538
vt 0.426249 0.984607
vt 0.426162 0.984840
vt 0.428020 0.985694
vn 0.000000 -1.000000 -0.000000
vn 0.000000 -1.000000 -0.000000
vn 0.000000 -1.000000 -0.000000
vn 0.000000 -1.000000 -0.000000
vn 0.000000 1.000000 0.000000
vn 0.000000 1.000000 0.000000
vn 0.000000 1.000000 0.000000
vn 0.000000 1.000000 0.000000
vn -0.486289 -0.291692 0.823674
vn -0.486289 -0.291692 0.823674
vn -0.486289 -0.291692 0.823674
vn -0.486289 -0.291692 0.823674
vn 0.000000 1.000000 0.000000
vn 0.000000 1.000000 0.000000
vn 0.000000 1.000000 0.000000
vn 0.000000 1.000000 0.000000
vn 0.462661 -0.336752 -0.820087
vn 0.462661 -0.336752 -0.820087
vn 0.462661 -0.336752 -0.820087
vn 0.462661 -0.336752 -0.820087
vn 0.910807 -0.114457 -0.396648
vn 0.910807 -0.114457 -0.396648
vn 0.910807 -0.114457 -0.396648
vn 0.910807 -0.114457 -0.396648
vn 0.939320 -0.166754 0.299784
vn 0.939320 -0.166754 0.299784
vn 0.939320 -0.166754 0.299784
vn 0.939320 -0.166754 0.299784
vn -0.226038 -0.476052 -0.849871
vn -0.226038 -0.476052 -0.849871
vn -0.226038 -0.476052 -0.849871
vn -0.226038 -0.476052 -0.849871
vn 0.000000 1.000000 0.000000
vn 0.000000 1.000000 0.000000
vn 0.000000 1.000000 0.000000
vn 0.000000 1.000000 0.000000
vn 0.000000 -1.000000 -0.000000
vn 0.000000 -1.000000 -0.000000
vn 0.000000 -1.000000 -0.000000
vn 0.000000 -1.000000 -0.000000
vn 0.000000 -1.000000 -0.000000
vn 0.000000 -1.000000 -0.000000
vn 0.000000 -1.000000 -0.000000
vn 0.000000 -1.000000 -0.000000
vn 0.000000 -1.000000 -0.000000
vn 0.000000 -1.000000 -0.000000
vn 0.000000 -1.000000 -0.000000
vn 0.000000 -1.000000 -0.000000
vn 0.000000 -1.000000 -0.000000
vn 0.000000 -1.000000 -0.000000
vn 0.000000 -1.000000 -0.000000
vn 0.000000 -1.000000 -0.000000
vn 0.000000 -1.000000 -0.000000
vn 0.000000 -1.000000 -0.000000
vn 0.000000 -1.000000 -0.000000
vn 0.000000 -1.000000 -0.000000
vn 0.000000 -1.000000 -0.000000
vn 0.000000 -1.000000 -0.000000
vn 0.000000 -1.000000 -0.000000
vn 0.000000 -1.000000 -0.000000
vn 0.000000 -1.000000 -0.000000
vn 0.000000 -1.000000 -0.000000
vn 0.000000 -1.000000 -0.000000
vn -0.930790 -0.077027 0.357347
vn -0.930790 -0.077027 0.357347
vn -0.930790 -0.077027 0.357347
vn -0.930790 -0.077027 0.357347
vn 0.000000 -1.000000 -0.000000
vn 0.000000 -1.000000 -0.000000
vn 0.000000 -1.000000 -0.000000
vn 0.000000 1.000000 0.000000
vn 0.000000 1.000000 0.000000
vn 0.000000 1.000000 0.000000
vn 0.000000 1.000000 0.000000
vn 0.000000 1.000000 0.000000
vn 0.000000 1.000000 0.000000
vn 0.000000 1.000000 0.000000
vn 0.000000 1.000000 0.000000
vn 0.000000 1.000000 0.000000
vn 0.000000 -1.000000 -0.000000
vn 0.000000 -1.000000 -0.000000
vn 0.000000 -1.000000 -0.000000
vn 0.000000 -1.000000 -0.000000
vn 0.000000 1.000000 0.000000
vn 0.000000 1.000000 0.000000
vn 0.000000 1.000000 0.000000
vn 0.000000 1.000000 0.000000
vn 0.000000 1.000000 0.000000
vn 0.000000 1.000000 0.000000
vn 0.000000 1.000000 0.000000
vn 0.000000 1.000000 0.000000
vn 0.000000 1.000000 0.000000
vn 0.000000 1.000000 0.000000
vn -0.916838 -0.186409 -0.353072
vn -0.916838 -0.186409 -0.353072
vn -0.916838 -0.186409 -0.353072
vn -0.916838 -0.186409 -0.353072
vn 0.000000 1.000000 0.000000
vn 0.000000 1.000000 0.000000
vn 0.000000 1.000000 0.000000
vn 0.085500 -0.218564 0.972070
vn 0.085500 -0.218564 0.972070
vn 0.085500 -0.218564 0.972070
vn 0.085500 -0.218564 0.972070
s 1
g stone_00 group1
usemtl samor_4024_377SG
f 6/1/1 8/2/2 5/4/3
f 5/4/3 8/2/2 7/3/4
s 2
f 79/6/5 78/7/6 77/5/7
f 77/5/7 78/7/6 76/8/8
s 3
f 24/10/9 23/11/10 22/9/11
f 22/9/11 23/11/10 21/12/12
s 4
f 75/14/13 74/15/14 72/13/15
f 72/13/15 74/15/14 73/16/16
s 5
f 18/17/17 20/18/18 17/20/19
f 17/20/19 20/18/18 19/19/20
s 6
f 12/22/21 11/23/22 10/21/23
f 10/21/23 11/23/22 9/24/24
s 7
f 36/26/25 35/27/26 34/25/27
f 34/25/27 35/27/26 33/28/28
s 8
f 28/30/29 27/31/30 26/29/31
f 26/29/31 27/31/30 25/32/32
s 9
f 69/34/33 68/35/34 67/33/35
f 67/33/35 68/35/34 66/36/36
s off
f 41/37/37 42/38/38 43/39/39
f 42/38/40 44/40/41 43/39/42
f 43/39/43 44/40/44 45/41/45
f 46/42/46 48/43/47 47/44/48
f 48/43/49 49/45/50 47/44/51
f 47/44/52 49/45/53 50/46/54
f 51/47/55 53/48/56 52/49/57
f 52/49/58 53/48/59 54/50/60
f 53/48/61 55/51/62 54/50/63
s 10
f 16/53/64 15/54/65 14/52/66
f 14/52/66 15/54/65 13/55/67
s off
f 58/56/68 59/57/69 60/58/70
f 61/59/71 63/60/72 62/61/73
f 62/61/74 63/60/75 64/62/76
f 63/60/77 65/63/78 64/62/79
s 11
f 59/57/80 58/56/81 57/64/82
f 57/64/82 58/56/81 56/65/83
s off
f 67/33/84 70/66/85 69/34/86
f 71/67/87 72/13/88 73/16/89
s 12
f 2/68/90 4/69/91 1/71/92
f 1/71/92 4/69/91 3/70/93
s 13
f 40/73/94 39/74/95 38/72/96
f 38/72/96 39/74/95 37/75/97
s off
f 78/7/98 79/6/99 80/76/100
s 14
f 30/77/101 32/78/102 29/80/103
f 29/80/103 32/78/102 31/79/104
