# This file uses centimeters as units for non-parametric coordinates.

mtllib stump_00.mtl
g default
v -4.119495 0.199994 3.048148
v -4.083892 0.326755 3.322937
v -4.133000 0.276535 3.057690
v -3.625039 0.263223 3.218937
v -3.682741 0.281375 3.014754
v -3.671998 0.252030 3.011892
v -3.792006 -0.014803 2.301067
v -3.960201 -0.019341 2.306791
v -3.884084 -0.041728 1.925140
v -4.058724 0.023014 1.931819
v -3.960201 -0.019341 2.306791
v -4.100466 0.087453 2.310608
v -4.058724 0.023014 1.931819
v -4.162158 0.180330 1.936590
v -4.100466 0.087453 2.310608
v -4.166455 0.226012 2.298204
v -4.162158 0.180330 1.936590
v -4.154178 0.271392 1.937544
v -3.677523 0.278350 2.768589
v -3.681820 0.296804 2.769543
v -3.671998 0.252030 3.011892
v -3.682741 0.281375 3.014754
v -3.540020 0.177910 1.449985
v -3.538179 0.208465 1.450939
v -3.642840 0.170346 1.918461
v -3.640385 0.201204 1.919415
v -4.166455 0.226012 2.298204
v -4.159089 0.314049 2.293434
v -4.154178 0.271392 1.937544
v -4.144356 0.389379 1.939452
v -3.611227 0.394824 1.413728
v -3.609079 0.425683 1.414682
v -3.540020 0.177910 1.449985
v -3.538179 0.208465 1.450939
v -3.649286 0.257778 2.300112
v -3.671078 0.091991 2.298204
v -3.642840 0.170346 1.918461
v -3.719879 0.017871 1.920370
v -3.671078 0.091991 2.298204
v -3.792006 -0.014803 2.301067
v -3.719879 0.017871 1.920370
v -3.884084 -0.041728 1.925140
v -4.119495 0.199994 3.048148
v -4.133000 0.276535 3.057690
v -4.142822 0.190918 2.739011
v -4.154792 0.286821 2.746644
v -4.142822 0.190918 2.739011
v -4.154792 0.286821 2.746644
v -4.166455 0.226012 2.298204
v -4.159089 0.314049 2.293434
v -4.016062 0.476508 1.934682
v -4.014527 0.506761 1.935636
v -3.979537 0.546998 1.392737
v -3.977696 0.577553 1.393691
v -3.790165 -0.004819 3.090130
v -3.769294 0.007887 3.239928
v -3.930429 -0.035677 3.067231
v -3.909865 -0.020248 3.300992
v -4.072536 0.076864 3.061506
v -4.023735 0.036930 3.299084
v -4.119495 0.199994 3.048148
v -4.074991 0.124664 3.298130
v -3.930429 -0.035677 3.067231
v -3.909865 -0.020248 3.300992
v -4.072536 0.076864 3.061506
v -4.023735 0.036930 3.299084
v -3.693790 0.108327 2.976589
v -3.656652 0.114075 3.188405
v -3.790165 -0.004819 3.090130
v -3.769294 0.007887 3.239928
v -3.671998 0.252030 3.011892
v -3.625039 0.263223 3.218937
v -3.693790 0.108327 2.976589
v -3.656652 0.114075 3.188405
v -3.649286 0.257778 2.300112
v -3.677523 0.278350 2.768589
v -3.671078 0.091991 2.298204
v -3.707295 0.097134 2.786717
v -3.671078 0.091991 2.298204
v -3.707295 0.097134 2.786717
v -3.792006 -0.014803 2.301067
v -3.775125 -0.022971 2.785763
v -3.960201 -0.019341 2.306791
v -3.956211 -0.023576 2.785763
v -4.100466 0.087453 2.310608
v -4.099238 0.086243 2.785763
v -3.792006 -0.014803 2.301067
v -3.775125 -0.022971 2.785763
v -3.960201 -0.019341 2.306791
v -3.956211 -0.023576 2.785763
v -3.779115 0.539737 1.389875
v -3.777274 0.570292 1.390829
v -3.611227 0.394824 1.413728
v -3.609079 0.425683 1.414682
v -3.719879 0.017871 1.920370
v -3.884084 -0.041728 1.925140
v -3.644682 0.019988 1.395600
v -3.831906 -0.038400 1.381288
v -3.642840 0.170346 1.918461
v -3.719879 0.017871 1.920370
v -3.540020 0.177910 1.449985
v -3.644682 0.019988 1.395600
v -4.126862 0.416304 1.396554
v -4.124713 0.447162 1.397508
v -4.042764 0.490727 1.393691
v -4.040002 0.521887 1.394645
v -4.154178 0.271392 1.937544
v -4.144356 0.389379 1.939452
v -4.126862 0.416304 1.396554
v -4.124713 0.447162 1.397508
v -3.642840 0.170346 1.918461
v -3.640385 0.201204 1.919415
v -3.649286 0.257778 2.300112
v -3.658801 0.288031 2.301067
v -4.162158 0.180330 1.936590
v -4.154178 0.271392 1.937544
v -4.144356 0.216028 1.394645
v -4.126862 0.416304 1.396554
v -4.058724 0.023014 1.931819
v -4.162158 0.180330 1.936590
v -4.026190 0.037838 1.388921
v -4.144356 0.216028 1.394645
v -4.166455 0.226012 2.298204
v -4.100466 0.087453 2.310608
v -4.142822 0.190918 2.739011
v -4.099238 0.086243 2.785763
v -3.884084 -0.041728 1.925140
v -4.058724 0.023014 1.931819
v -3.831906 -0.038400 1.381288
v -4.026190 0.037838 1.388921
v -3.677523 0.278350 2.768589
v -3.671998 0.252030 3.011892
v -3.707295 0.097134 2.786717
v -3.693790 0.108327 2.976589
v -3.707295 0.097134 2.786717
v -3.693790 0.108327 2.976589
v -3.775125 -0.022971 2.785763
v -3.790165 -0.004819 3.090130
v -3.956211 -0.023576 2.785763
v -3.930429 -0.035677 3.067231
v -4.099238 0.086243 2.785763
v -4.072536 0.076864 3.061506
v -4.099238 0.086243 2.785763
v -4.072536 0.076864 3.061506
v -4.142822 0.190918 2.739011
v -4.119495 0.199994 3.048148
v -3.775125 -0.022971 2.785763
v -3.790165 -0.004819 3.090130
v -3.956211 -0.023576 2.785763
v -3.930429 -0.035677 3.067231
v -4.042764 0.490727 1.393691
v -4.040002 0.521887 1.394645
v -4.016062 0.476508 1.934682
v -4.014527 0.506761 1.935636
v -3.979537 0.546998 1.392737
v -3.977696 0.577553 1.393691
v -3.779115 0.539737 1.389875
v -3.777274 0.570292 1.390829
v -3.649286 0.257778 2.300112
v -3.658801 0.288031 2.301067
v -3.677523 0.278350 2.768589
v -3.681820 0.296804 2.769543
v -4.037853 0.051451 1.930865
v -3.952221 0.016660 2.305837
v -3.887767 -0.003912 1.925140
v -3.808273 0.021198 2.302021
v -4.126555 0.185473 1.934682
v -4.070694 0.106815 2.309654
v -4.037853 0.051451 1.930865
v -3.952221 0.016660 2.305837
v -4.112436 0.339159 1.935636
v -4.091872 0.230247 2.293434
v -4.126555 0.185473 1.934682
v -4.070694 0.106815 2.309654
v -4.000408 0.440204 1.931819
v -4.049823 0.379698 2.310608
v -4.112436 0.339159 1.935636
v -4.091872 0.230247 2.293434
v -3.846025 0.436271 1.927049
v -3.919073 0.428708 2.306791
v -4.000408 0.440204 1.931819
v -4.049823 0.379698 2.310608
v -3.729086 0.326452 1.920370
v -3.797531 0.385143 2.364993
v -3.846025 0.436271 1.927049
v -3.919073 0.428708 2.306791
v -3.680285 0.177304 1.919415
v -3.685196 0.251122 2.301067
v -3.729086 0.326452 1.920370
v -3.797531 0.385143 2.364993
v -3.660335 0.252332 3.213212
v -3.749037 0.366992 3.266644
v -3.708215 0.244466 3.006167
v -3.771442 0.354588 3.136882
v -3.745353 0.048426 1.921324
v -3.704532 0.112563 2.299158
v -3.680285 0.177304 1.919415
v -3.685196 0.251122 2.301067
v -3.887767 -0.003912 1.925140
v -3.808273 0.021198 2.302021
v -3.745353 0.048426 1.921324
v -3.704532 0.112563 2.299158
v -3.749037 0.366992 3.266644
v -3.893598 0.421447 3.298130
v -3.771442 0.354588 3.136882
v -3.912935 0.406926 3.124479
v -3.893598 0.421447 3.298130
v -4.020359 0.376067 3.334387
v -3.912935 0.406926 3.124479
v -4.037546 0.360941 3.101580
v -4.020359 0.376067 3.334387
v -4.050130 0.308906 3.326754
v -4.037546 0.360941 3.101580
v -4.084813 0.195456 3.051965
v -3.902192 0.013938 3.305763
v -3.786481 0.042376 3.241836
v -3.922142 -0.000281 3.072002
v -3.806125 0.031182 3.091084
v -4.043378 0.133740 3.303855
v -3.996111 0.053872 3.303855
v -4.084813 0.195456 3.051965
v -4.042764 0.095319 3.068185
v -3.996111 0.053872 3.303855
v -3.902192 0.013938 3.305763
v -4.042764 0.095319 3.068185
v -3.922142 -0.000281 3.072002
v -3.786481 0.042376 3.241836
v -3.692562 0.132227 3.185543
v -3.806125 0.031182 3.091084
v -3.729700 0.126479 2.972772
v -3.692562 0.132227 3.185543
v -3.660335 0.252332 3.213212
v -3.729700 0.126479 2.972772
v -3.708215 0.244466 3.006167
v -3.752413 0.100764 2.781947
v -3.720799 0.249912 2.763818
v -3.704532 0.112563 2.299158
v -3.685196 0.251122 2.301067
v -3.790471 0.010307 2.783855
v -3.752413 0.100764 2.781947
v -3.808273 0.021198 2.302021
v -3.704532 0.112563 2.299158
v -4.069774 0.103789 2.784809
v -3.948231 0.011517 2.784809
v -4.070694 0.106815 2.309654
v -3.952221 0.016660 2.305837
v -3.948231 0.011517 2.784809
v -3.790471 0.010307 2.783855
v -3.952221 0.016660 2.305837
v -3.808273 0.021198 2.302021
v -4.051358 0.376370 2.788626
v -4.108446 0.249004 2.744736
v -4.049823 0.379698 2.310608
v -4.091872 0.230247 2.293434
v -3.918766 0.428103 2.797213
v -4.051358 0.376370 2.788626
v -3.919073 0.428708 2.306791
v -4.049823 0.379698 2.310608
v -3.766224 0.354890 2.752369
v -3.918766 0.428103 2.797213
v -3.797531 0.385143 2.364993
v -3.919073 0.428708 2.306791
v -3.834669 -0.000584 1.381288
v -3.887767 -0.003912 1.925140
v -3.668622 0.051754 1.396554
v -3.745353 0.048426 1.921324
v -3.668622 0.051754 1.396554
v -3.745353 0.048426 1.921324
v -3.577465 0.185473 1.449985
v -3.680285 0.177304 1.919415
v -3.577465 0.185473 1.449985
v -3.680285 0.177304 1.919415
v -3.639771 0.373950 1.412774
v -3.729086 0.326452 1.920370
v -3.639771 0.373950 1.412774
v -3.729086 0.326452 1.920370
v -3.788323 0.503736 1.387966
v -3.846025 0.436271 1.927049
v -3.788323 0.503736 1.387966
v -3.846025 0.436271 1.927049
v -3.976468 0.508576 1.390829
v -4.000408 0.440204 1.931819
v -4.016675 0.460776 1.391783
v -4.000408 0.440204 1.931819
v -4.093100 0.396035 1.393691
v -4.112436 0.339159 1.935636
v -4.093100 0.396035 1.393691
v -4.112436 0.339159 1.935636
v -4.108446 0.221171 1.392737
v -4.126555 0.185473 1.934682
v -4.108446 0.221171 1.392737
v -4.126555 0.185473 1.934682
v -4.005012 0.066276 1.387966
v -4.037853 0.051451 1.930865
v -4.069774 0.103789 2.784809
v -4.070694 0.106815 2.309654
v -4.108446 0.249004 2.744736
v -4.091872 0.230247 2.293434
v -4.005012 0.066276 1.387966
v -4.037853 0.051451 1.930865
v -3.834669 -0.000584 1.381288
v -3.887767 -0.003912 1.925140
v -3.729700 0.126479 2.972772
v -3.708215 0.244466 3.006167
v -3.752413 0.100764 2.781947
v -3.720799 0.249912 2.763818
v -3.806125 0.031182 3.091084
v -3.729700 0.126479 2.972772
v -3.790471 0.010307 2.783855
v -3.752413 0.100764 2.781947
v -4.042764 0.095319 3.068185
v -3.922142 -0.000281 3.072002
v -4.069774 0.103789 2.784809
v -3.948231 0.011517 2.784809
v -4.084813 0.195456 3.051965
v -4.042764 0.095319 3.068185
v -4.108446 0.249004 2.744736
v -4.069774 0.103789 2.784809
v -3.922142 -0.000281 3.072002
v -3.806125 0.031182 3.091084
v -3.948231 0.011517 2.784809
v -3.790471 0.010307 2.783855
v -4.037546 0.360941 3.101580
v -4.084813 0.195456 3.051965
v -4.051358 0.376370 2.788626
v -4.108446 0.249004 2.744736
v -3.912935 0.406926 3.124479
v -4.037546 0.360941 3.101580
v -3.918766 0.428103 2.797213
v -4.051358 0.376370 2.788626
v -3.771442 0.354588 3.136882
v -3.912935 0.406926 3.124479
v -3.766224 0.354890 2.752369
v -3.918766 0.428103 2.797213
v -3.771442 0.354588 3.136882
v -3.766224 0.354890 2.752369
v -3.708215 0.244466 3.006167
v -3.720799 0.249912 2.763818
v -3.766224 0.354890 2.752369
v -3.797531 0.385143 2.364993
v -3.720799 0.249912 2.763818
v -3.685196 0.251122 2.301067
v -4.026190 0.037838 1.388921
v -4.005012 0.066276 1.387966
v -3.831906 -0.038400 1.381288
v -3.834669 -0.000584 1.381288
v -4.144356 0.216028 1.394645
v -4.108446 0.221171 1.392737
v -4.026190 0.037838 1.388921
v -4.005012 0.066276 1.387966
v -4.126862 0.416304 1.396554
v -4.093100 0.396035 1.393691
v -4.144356 0.216028 1.394645
v -4.108446 0.221171 1.392737
v -3.779115 0.539737 1.389875
v -3.788323 0.503736 1.387966
v -3.979537 0.546998 1.392737
v -3.976468 0.508576 1.390829
v -3.611227 0.394824 1.413728
v -3.639771 0.373950 1.412774
v -3.779115 0.539737 1.389875
v -3.788323 0.503736 1.387966
v -3.540020 0.177910 1.449985
v -3.577465 0.185473 1.449985
v -3.611227 0.394824 1.413728
v -3.639771 0.373950 1.412774
v -3.644682 0.019988 1.395600
v -3.668622 0.051754 1.396554
v -3.540020 0.177910 1.449985
v -3.577465 0.185473 1.449985
v -4.016062 0.476508 1.934682
v -4.000408 0.440204 1.931819
v -4.042764 0.490727 1.393691
v -4.016675 0.460776 1.391783
v -3.831906 -0.038400 1.381288
v -3.834669 -0.000584 1.381288
v -3.644682 0.019988 1.395600
v -3.668622 0.051754 1.396554
v -3.769294 0.007887 3.239928
v -3.786481 0.042376 3.241836
v -3.909865 -0.020248 3.300992
v -3.902192 0.013938 3.305763
v -3.909865 -0.020248 3.300992
v -3.902192 0.013938 3.305763
v -4.023735 0.036930 3.299084
v -3.996111 0.053872 3.303855
v -4.023735 0.036930 3.299084
v -3.996111 0.053872 3.303855
v -4.074991 0.124664 3.298130
v -4.043378 0.133740 3.303855
v -4.083892 0.326755 3.322937
v -4.050130 0.308906 3.326754
v -4.045526 0.406623 3.334387
v -4.020359 0.376067 3.334387
v -4.045526 0.406623 3.334387
v -4.020359 0.376067 3.334387
v -3.897895 0.459566 3.301946
v -3.893598 0.421447 3.298130
v -3.897895 0.459566 3.301946
v -3.893598 0.421447 3.298130
v -3.731235 0.397547 3.272368
v -3.749037 0.366992 3.266644
v -3.731235 0.397547 3.272368
v -3.749037 0.366992 3.266644
v -3.625039 0.263223 3.218937
v -3.660335 0.252332 3.213212
v -3.625039 0.263223 3.218937
v -3.660335 0.252332 3.213212
v -3.656652 0.114075 3.188405
v -3.692562 0.132227 3.185543
v -3.656652 0.114075 3.188405
v -3.692562 0.132227 3.185543
v -3.769294 0.007887 3.239928
v -3.786481 0.042376 3.241836
v -4.119495 0.199994 3.048148
v -4.084813 0.195456 3.051965
v -4.083892 0.326755 3.322937
v -4.050130 0.308906 3.326754
v -4.042764 0.490727 1.393691
v -4.016675 0.460776 1.391783
v -4.126862 0.416304 1.396554
v -4.093100 0.396035 1.393691
v -3.979537 0.546998 1.392737
v -3.976468 0.508576 1.390829
v -4.016062 0.476508 1.934682
v -4.000408 0.440204 1.931819
v -4.074991 0.124664 3.298130
v -4.043378 0.133740 3.303855
v -4.119495 0.199994 3.048148
v -4.084813 0.195456 3.051965
v -4.159089 0.314049 2.293434
v -4.086654 0.438994 2.312516
v -4.144356 0.389379 1.939452
v -4.014527 0.506761 1.935636
v -4.086654 0.438994 2.312516
v -3.931964 0.497382 2.308700
v -4.014527 0.506761 1.935636
v -3.834055 0.502526 1.929911
v -3.931964 0.497382 2.308700
v -3.787095 0.445650 2.365947
v -3.834055 0.502526 1.929911
v -3.697473 0.376370 1.922278
v -3.787095 0.445650 2.365947
v -3.658801 0.288031 2.301067
v -3.697473 0.376370 1.922278
v -3.640385 0.201204 1.919415
v -3.761927 0.413884 3.145469
v -3.731235 0.397547 3.272368
v -3.682741 0.281375 3.014754
v -3.625039 0.263223 3.218937
v -3.926132 0.475600 3.131158
v -3.897895 0.459566 3.301946
v -3.761927 0.413884 3.145469
v -3.731235 0.397547 3.272368
v -4.071922 0.422657 3.105396
v -4.045526 0.406623 3.334387
v -3.926132 0.475600 3.131158
v -3.897895 0.459566 3.301946
v -4.133000 0.276535 3.057690
v -4.083892 0.326755 3.322937
v -4.071922 0.422657 3.105396
v -4.045526 0.406623 3.334387
v -4.159089 0.314049 2.293434
v -4.154792 0.286821 2.746644
v -4.086654 0.438994 2.312516
v -4.086347 0.438994 2.790534
v -4.086654 0.438994 2.312516
v -4.086347 0.438994 2.790534
v -3.931964 0.497382 2.308700
v -3.931657 0.497685 2.798167
v -3.931964 0.497382 2.308700
v -3.931657 0.497685 2.798167
v -3.787095 0.445650 2.365947
v -3.756096 0.416304 2.755231
v -3.697473 0.376370 1.922278
v -3.640385 0.201204 1.919415
v -3.609079 0.425683 1.414682
v -3.538179 0.208465 1.450939
v -3.834055 0.502526 1.929911
v -3.697473 0.376370 1.922278
v -3.777274 0.570292 1.390829
v -3.609079 0.425683 1.414682
v -4.014527 0.506761 1.935636
v -3.834055 0.502526 1.929911
v -3.977696 0.577553 1.393691
v -3.777274 0.570292 1.390829
v -4.144356 0.389379 1.939452
v -4.014527 0.506761 1.935636
v -4.124713 0.447162 1.397508
v -4.040002 0.521887 1.394645
v -4.154792 0.286821 2.746644
v -4.133000 0.276535 3.057690
v -4.086347 0.438994 2.790534
v -4.071922 0.422657 3.105396
v -4.086347 0.438994 2.790534
v -4.071922 0.422657 3.105396
v -3.931657 0.497685 2.798167
v -3.926132 0.475600 3.131158
v -3.931657 0.497685 2.798167
v -3.926132 0.475600 3.131158
v -3.756096 0.416304 2.755231
v -3.761927 0.413884 3.145469
v -3.681820 0.296804 2.769543
v -3.756096 0.416304 2.755231
v -3.682741 0.281375 3.014754
v -3.761927 0.413884 3.145469
v -3.658801 0.288031 2.301067
v -3.787095 0.445650 2.365947
v -3.681820 0.296804 2.769543
v -3.756096 0.416304 2.755231
vt 0.669519 0.325295
vt 0.670266 0.323376
vt 0.669199 0.325188
vt 0.680075 0.324015
vt 0.679115 0.325508
vt 0.678902 0.325508
vt 0.678689 0.325721
vt 0.676556 0.324975
vt 0.676876 0.327107
vt 0.678369 0.327107
vt 0.676450 0.329986
vt 0.673784 0.330413
vt 0.675383 0.333078
vt 0.677836 0.333078
vt 0.670905 0.323376
vt 0.670266 0.325188
vt 0.671225 0.324868
vt 0.671652 0.323269
vt 0.675383 0.333078
vt 0.672078 0.332972
vt 0.672505 0.336703
vt 0.676556 0.336810
vt 0.673038 0.327107
vt 0.669946 0.327107
vt 0.669839 0.330413
vt 0.672931 0.330413
vt 0.673677 0.324655
vt 0.677196 0.324548
vt 0.677303 0.327321
vt 0.673464 0.327001
vt 0.680395 0.336597
vt 0.680501 0.336597
vt 0.681994 0.336383
vt 0.681994 0.336277
vt 0.671118 0.325082
vt 0.670585 0.327107
vt 0.669732 0.327321
vt 0.670266 0.325188
vt 0.676663 0.329986
vt 0.678582 0.333078
vt 0.675597 0.332972
vt 0.673464 0.330413
vt 0.670479 0.324868
vt 0.673677 0.324655
vt 0.673464 0.327001
vt 0.670159 0.327001
vt 0.671652 0.336703
vt 0.670052 0.336703
vt 0.669306 0.336703
vt 0.671118 0.336703
vt 0.675597 0.332972
vt 0.676876 0.336703
vt 0.672505 0.336703
vt 0.671758 0.332972
vt 0.677409 0.327107
vt 0.678369 0.330413
vt 0.676130 0.330413
vt 0.676556 0.327107
vt 0.669839 0.330413
vt 0.668560 0.332972
vt 0.670799 0.332972
vt 0.672931 0.330413
vt 0.669732 0.327321
vt 0.670052 0.330519
vt 0.671012 0.330413
vt 0.670905 0.327001
vt 0.671652 0.323269
vt 0.674317 0.323482
vt 0.674211 0.323482
vt 0.671012 0.323269
vt 0.670159 0.330306
vt 0.671758 0.332972
vt 0.668880 0.332972
vt 0.668560 0.330519
vt 0.671758 0.332972
vt 0.671225 0.336703
vt 0.669306 0.336703
vt 0.668880 0.332972
vt 0.672505 0.336703
vt 0.672078 0.332972
vt 0.671652 0.332972
vt 0.672505 0.336703
vt 0.673144 0.327107
vt 0.673038 0.330413
vt 0.670479 0.330413
vt 0.670585 0.327107
vt 0.670159 0.327001
vt 0.673464 0.327001
vt 0.673464 0.330413
vt 0.670159 0.330306
vt 0.673677 0.325082
vt 0.673144 0.327107
vt 0.670585 0.327107
vt 0.671118 0.325082
vt 0.671652 0.323269
vt 0.671225 0.324868
vt 0.673891 0.324762
vt 0.674317 0.323482
vt 0.669306 0.336703
vt 0.669306 0.336703
vt 0.671118 0.336703
vt 0.671225 0.336703
vt 0.668666 0.327321
vt 0.668560 0.330519
vt 0.668453 0.330413
vt 0.668986 0.327427
vt 0.670052 0.330519
vt 0.670479 0.330413
vt 0.669306 0.332972
vt 0.669626 0.332972
vt 0.674317 0.323482
vt 0.673891 0.324762
vt 0.676983 0.324655
vt 0.677409 0.323696
vt 0.669306 0.332972
vt 0.671225 0.332972
vt 0.671971 0.336810
vt 0.669732 0.336703
vt 0.675597 0.336810
vt 0.679222 0.336703
vt 0.679648 0.336703
vt 0.675703 0.336810
vt 0.671225 0.332972
vt 0.674424 0.333078
vt 0.675597 0.336810
vt 0.671971 0.336810
vt 0.674211 0.323482
vt 0.677836 0.323696
vt 0.677196 0.324548
vt 0.673677 0.324655
vt 0.671545 0.323482
vt 0.670372 0.323482
vt 0.669519 0.325295
vt 0.670479 0.325188
vt 0.679435 0.330413
vt 0.678902 0.327214
vt 0.679008 0.327214
vt 0.679648 0.330413
vt 0.670266 0.325188
vt 0.669732 0.327321
vt 0.670905 0.327001
vt 0.671225 0.324868
vt 0.670905 0.323376
vt 0.671652 0.323269
vt 0.671012 0.323269
vt 0.670266 0.323376
vt 0.676876 0.327107
vt 0.673038 0.327107
vt 0.672931 0.330413
vt 0.676556 0.330413
vt 0.668560 0.332972
vt 0.668880 0.336703
vt 0.671438 0.336810
vt 0.670799 0.332972
vt 0.678902 0.333078
vt 0.677836 0.333078
vt 0.679755 0.336597
vt 0.681141 0.336383
vt 0.670479 0.330413
vt 0.673038 0.330413
vt 0.671225 0.332972
vt 0.669306 0.332972
vt 0.679755 0.336597
vt 0.676556 0.336810
vt 0.676769 0.336703
vt 0.680395 0.336597
vt 0.678689 0.324335
vt 0.676663 0.323909
vt 0.676983 0.323909
vt 0.679435 0.324229
vt 0.671118 0.323482
vt 0.670266 0.325188
vt 0.669519 0.325295
vt 0.670372 0.323482
vt 0.676556 0.330413
vt 0.674530 0.333078
vt 0.678049 0.333078
vt 0.679115 0.330413
vt 0.679222 0.336703
vt 0.681141 0.336383
vt 0.681994 0.336383
vt 0.679648 0.336703
vt 0.679435 0.330413
vt 0.679755 0.333078
vt 0.678582 0.333078
vt 0.676663 0.329986
vt 0.679328 0.324122
vt 0.677409 0.323696
vt 0.678369 0.325508
vt 0.676983 0.324655
vt 0.679328 0.324122
vt 0.678369 0.325508
vt 0.677836 0.325721
vt 0.678689 0.324335
vt 0.676450 0.329986
vt 0.678795 0.330413
vt 0.678049 0.327214
vt 0.677089 0.327321
vt 0.676556 0.336810
vt 0.672505 0.336703
vt 0.672505 0.336703
vt 0.676769 0.336703
vt 0.670479 0.330413
vt 0.670052 0.330519
vt 0.669732 0.327321
vt 0.670585 0.327107
vt 0.678795 0.330413
vt 0.676450 0.329986
vt 0.677836 0.333078
vt 0.678902 0.333078
vt 0.674104 0.323482
vt 0.673677 0.325082
vt 0.671118 0.325082
vt 0.672078 0.323482
vt 0.672931 0.330413
vt 0.670799 0.332972
vt 0.674530 0.333078
vt 0.676556 0.330413
vt 0.680075 0.324015
vt 0.679435 0.324229
vt 0.678689 0.325721
vt 0.679115 0.325508
vt 0.668453 0.330413
vt 0.668666 0.332972
vt 0.668560 0.332972
vt 0.669839 0.330413
vt 0.676130 0.330413
vt 0.678369 0.330413
vt 0.677516 0.333078
vt 0.674424 0.333078
vt 0.674424 0.333078
vt 0.677516 0.333078
vt 0.679222 0.336703
vt 0.675597 0.336810
vt 0.673997 0.323482
vt 0.671545 0.323482
vt 0.670479 0.325188
vt 0.673571 0.325082
vt 0.672505 0.336703
vt 0.676876 0.336703
vt 0.676769 0.336703
vt 0.672505 0.336703
vt 0.670905 0.327001
vt 0.671012 0.330413
vt 0.673784 0.330413
vt 0.673784 0.327001
vt 0.677836 0.323696
vt 0.680075 0.324015
vt 0.678902 0.325508
vt 0.677196 0.324548
vt 0.679008 0.327214
vt 0.678369 0.327107
vt 0.679115 0.330413
vt 0.679648 0.330413
vt 0.674104 0.323482
vt 0.672078 0.323482
vt 0.671545 0.323482
vt 0.673997 0.323482
vt 0.677836 0.333078
vt 0.675383 0.333078
vt 0.676556 0.336810
vt 0.679755 0.336597
vt 0.670266 0.325188
vt 0.670905 0.323376
vt 0.670266 0.323376
vt 0.669519 0.325295
vt 0.671225 0.324868
vt 0.670905 0.327001
vt 0.673784 0.327001
vt 0.673891 0.324762
vt 0.670799 0.332972
vt 0.671438 0.336810
vt 0.675703 0.336810
vt 0.674530 0.333078
vt 0.678582 0.333078
vt 0.680501 0.336597
vt 0.676876 0.336703
vt 0.675597 0.332972
vt 0.678902 0.327214
vt 0.678902 0.325508
vt 0.679115 0.325508
vt 0.679008 0.327214
vt 0.672078 0.332972
vt 0.669626 0.332972
vt 0.670052 0.336703
vt 0.671652 0.336703
vt 0.671225 0.336703
vt 0.671758 0.332972
vt 0.671652 0.332972
vt 0.671118 0.336703
vt 0.668666 0.327321
vt 0.670159 0.327001
vt 0.670159 0.330306
vt 0.668560 0.330519
vt 0.679755 0.333078
vt 0.681994 0.336277
vt 0.680501 0.336597
vt 0.678582 0.333078
vt 0.677516 0.333078
vt 0.678902 0.333078
vt 0.681141 0.336383
vt 0.679222 0.336703
vt 0.676236 0.324975
vt 0.677836 0.325721
vt 0.676556 0.327107
vt 0.677409 0.327107
vt 0.673571 0.325082
vt 0.670479 0.325188
vt 0.669946 0.327107
vt 0.673038 0.327107
vt 0.673784 0.330413
vt 0.671012 0.330413
vt 0.672078 0.332972
vt 0.675383 0.333078
vt 0.670479 0.325188
vt 0.669519 0.325295
vt 0.668986 0.327427
vt 0.669946 0.327107
vt 0.676983 0.323909
vt 0.673997 0.323482
vt 0.673571 0.325082
vt 0.676556 0.324975
vt 0.672078 0.323482
vt 0.671118 0.323482
vt 0.670372 0.323482
vt 0.671545 0.323482
vt 0.678369 0.325508
vt 0.678049 0.327214
vt 0.677409 0.327107
vt 0.677836 0.325721
vt 0.676983 0.324655
vt 0.677089 0.327321
vt 0.678369 0.325508
vt 0.678049 0.327214
vt 0.679435 0.324229
vt 0.676983 0.323909
vt 0.676556 0.324975
vt 0.678689 0.325721
vt 0.670266 0.323376
vt 0.671012 0.323269
vt 0.670479 0.324868
vt 0.669199 0.325188
vt 0.673784 0.327001
vt 0.673784 0.330413
vt 0.676450 0.329986
vt 0.677089 0.327321
vt 0.671971 0.336810
vt 0.675597 0.336810
vt 0.675703 0.336810
vt 0.671438 0.336810
vt 0.672078 0.332972
vt 0.671652 0.336703
vt 0.671118 0.336703
vt 0.671652 0.332972
vt 0.669732 0.336703
vt 0.671971 0.336810
vt 0.671438 0.336810
vt 0.668880 0.336703
vt 0.678689 0.324335
vt 0.677836 0.325721
vt 0.676236 0.324975
vt 0.676663 0.323909
vt 0.679755 0.333078
vt 0.679435 0.330413
vt 0.679648 0.330413
vt 0.679755 0.333078
vt 0.668880 0.332972
vt 0.669306 0.336703
vt 0.669306 0.336703
vt 0.668666 0.332972
vt 0.676663 0.323909
vt 0.676236 0.324975
vt 0.673677 0.325082
vt 0.674104 0.323482
vt 0.671012 0.330413
vt 0.670052 0.330519
vt 0.669626 0.332972
vt 0.672078 0.332972
vt 0.679115 0.330413
vt 0.678049 0.333078
vt 0.679755 0.333078
vt 0.679648 0.330413
vt 0.668666 0.332972
vt 0.669306 0.336703
vt 0.668880 0.336703
vt 0.668560 0.332972
vt 0.676663 0.329986
vt 0.677303 0.327321
vt 0.678902 0.327214
vt 0.679435 0.330413
vt 0.674317 0.323482
vt 0.677409 0.323696
vt 0.677836 0.323696
vt 0.674211 0.323482
vt 0.673038 0.330413
vt 0.676130 0.330413
vt 0.674424 0.333078
vt 0.671225 0.332972
vt 0.673464 0.330413
vt 0.675597 0.332972
vt 0.671758 0.332972
vt 0.670159 0.330306
vt 0.672078 0.323482
vt 0.671118 0.325082
vt 0.670266 0.325188
vt 0.671118 0.323482
vt 0.677409 0.323696
vt 0.679328 0.324122
vt 0.680075 0.324015
vt 0.677836 0.323696
vt 0.676556 0.324975
vt 0.673571 0.325082
vt 0.673038 0.327107
vt 0.676876 0.327107
vt 0.679115 0.325508
vt 0.678689 0.325721
vt 0.678369 0.327107
vt 0.679008 0.327214
vt 0.671012 0.323269
vt 0.674211 0.323482
vt 0.673677 0.324655
vt 0.670479 0.324868
vt 0.681141 0.336383
vt 0.679755 0.336597
vt 0.680395 0.336597
vt 0.681994 0.336383
vt 0.673464 0.327001
vt 0.677303 0.327321
vt 0.676663 0.329986
vt 0.673464 0.330413
vt 0.676663 0.323909
vt 0.674104 0.323482
vt 0.673997 0.323482
vt 0.676983 0.323909
vt 0.679328 0.324122
vt 0.678689 0.324335
vt 0.679435 0.324229
vt 0.680075 0.324015
vt 0.676876 0.336703
vt 0.680501 0.336597
vt 0.680395 0.336597
vt 0.676769 0.336703
vt 0.669839 0.330413
vt 0.669946 0.327107
vt 0.668986 0.327427
vt 0.668453 0.330413
vt 0.668560 0.330519
vt 0.668880 0.332972
vt 0.668666 0.332972
vt 0.668453 0.330413
vt 0.678049 0.333078
vt 0.679648 0.336703
vt 0.681994 0.336383
vt 0.679755 0.333078
vt 0.678369 0.330413
vt 0.678795 0.330413
vt 0.678902 0.333078
vt 0.677516 0.333078
vt 0.673891 0.324762
vt 0.673784 0.327001
vt 0.677089 0.327321
vt 0.676983 0.324655
vt 0.676556 0.327107
vt 0.676130 0.330413
vt 0.673038 0.330413
vt 0.673144 0.327107
vt 0.670052 0.336703
vt 0.669732 0.336703
vt 0.668880 0.336703
vt 0.669306 0.336703
vt 0.669199 0.325188
vt 0.668666 0.327321
vt 0.668986 0.327427
vt 0.669519 0.325295
vt 0.671758 0.332972
vt 0.672505 0.336703
vt 0.672505 0.336703
vt 0.671652 0.332972
vt 0.678049 0.327214
vt 0.678795 0.330413
vt 0.678369 0.330413
vt 0.677409 0.327107
vt 0.669626 0.332972
vt 0.669306 0.332972
vt 0.669732 0.336703
vt 0.670052 0.336703
vt 0.676236 0.324975
vt 0.676556 0.327107
vt 0.673144 0.327107
vt 0.673677 0.325082
vt 0.674530 0.333078
vt 0.675703 0.336810
vt 0.679648 0.336703
vt 0.678049 0.333078
vt 0.678369 0.327107
vt 0.676876 0.327107
vt 0.676556 0.330413
vt 0.679115 0.330413
vt 0.678902 0.327214
vt 0.677303 0.327321
vt 0.678902 0.325508
vt 0.677196 0.324548
vt 0.669199 0.325188
vt 0.670479 0.324868
vt 0.670159 0.327001
vt 0.668666 0.327321
vt 0.681994 0.336277
vt 0.679755 0.333078
vt 0.679755 0.333078
vt 0.681994 0.336383
vn -0.957012 -0.195557 0.214207
vn -0.957012 -0.195557 0.214207
vn -0.957012 -0.195557 0.214207
vn 0.907686 0.354221 -0.225021
vn 0.907686 0.354221 -0.225021
vn 0.907686 0.354221 -0.225021
vn 0.815930 -0.577432 0.028822
vn 0.815930 -0.577432 0.028822
vn 0.815930 -0.577432 0.028822
vn 0.815930 -0.577432 0.028822
vn -0.536102 -0.843183 -0.040453
vn -0.536102 -0.843183 -0.040453
vn -0.536102 -0.843183 -0.040453
vn -0.536102 -0.843183 -0.040453
vn 0.941847 -0.336042 -0.000046
vn 0.941847 -0.336042 -0.000046
vn 0.941847 -0.336042 -0.000046
vn 0.941847 -0.336042 -0.000046
vn -0.028312 -0.991516 -0.126867
vn -0.028312 -0.991516 -0.126867
vn -0.028312 -0.991516 -0.126867
vn -0.028312 -0.991516 -0.126867
vn -0.607395 -0.794399 -0.001201
vn -0.607395 -0.794399 -0.001201
vn -0.607395 -0.794399 -0.001201
vn -0.607395 -0.794399 -0.001201
vn 0.385361 0.922133 0.034174
vn 0.385361 0.922133 0.034174
vn 0.385361 0.922133 0.034174
vn 0.385361 0.922133 0.034174
vn 0.445625 -0.003348 -0.895213
vn 0.450841 -0.001522 -0.892603
vn 0.450841 -0.001522 -0.892603
vn 0.450841 -0.001522 -0.892603
vn 0.456040 0.000304 -0.889959
vn 0.450841 -0.001522 -0.892603
vn 0.948181 0.313099 -0.054054
vn 0.948181 0.313099 -0.054054
vn 0.948181 0.313099 -0.054054
vn 0.948181 0.313099 -0.054054
vn 0.530561 0.845721 0.057111
vn 0.530561 0.845721 0.057111
vn 0.530561 0.845721 0.057111
vn 0.530561 0.845721 0.057111
vn -0.353763 0.932995 0.066128
vn -0.353763 0.932995 0.066128
vn -0.353763 0.932995 0.066128
vn -0.353763 0.932995 0.066128
vn -0.054736 0.029096 -0.998077
vn -0.054736 0.029096 -0.998077
vn -0.054736 0.029096 -0.998077
vn -0.054736 0.029096 -0.998077
vn 0.032542 0.991014 0.129736
vn 0.032542 0.991014 0.129736
vn 0.032542 0.991014 0.129736
vn 0.032542 0.991014 0.129736
vn -0.811711 0.583689 -0.020780
vn -0.811711 0.583689 -0.020780
vn -0.811711 0.583689 -0.020780
vn -0.811711 0.583689 -0.020780
vn -0.729733 -0.683088 0.029665
vn -0.729733 -0.683088 0.029665
vn -0.729733 -0.683088 0.029665
vn -0.729733 -0.683088 0.029665
vn 0.937037 -0.348252 0.026099
vn 0.937037 -0.348252 0.026099
vn 0.937037 -0.348252 0.026099
vn 0.937037 -0.348252 0.026099
vn 0.226927 0.052784 0.972480
vn 0.226927 0.052784 0.972480
vn 0.226927 0.052784 0.972480
vn 0.226927 0.052784 0.972480
vn -0.773248 0.633451 0.028764
vn -0.773248 0.633451 0.028764
vn -0.773248 0.633451 0.028764
vn -0.773248 0.633451 0.028764
vn -0.664169 0.745620 0.054133
vn -0.664169 0.745620 0.054133
vn -0.664169 0.745620 0.054133
vn -0.664169 0.745620 0.054133
vn -0.968475 -0.234536 -0.083957
vn -0.968475 -0.234536 -0.083957
vn -0.968475 -0.234536 -0.083957
vn -0.968475 -0.234536 -0.083957
vn 0.605155 0.796099 0.003704
vn 0.605155 0.796099 0.003704
vn 0.605155 0.796099 0.003704
vn 0.605155 0.796099 0.003704
vn -0.353944 0.935266 -0.000065
vn -0.353944 0.935266 -0.000065
vn -0.353944 0.935266 -0.000065
vn -0.353944 0.935266 -0.000065
vn 0.612914 0.789616 -0.029043
vn 0.612914 0.789616 -0.029043
vn 0.612914 0.789616 -0.029043
vn 0.612914 0.789616 -0.029043
vn 0.342554 -0.938725 0.038101
vn 0.342554 -0.938725 0.038101
vn 0.342554 -0.938725 0.038101
vn 0.342554 -0.938725 0.038101
vn -0.065249 0.035376 -0.997242
vn -0.065509 0.035869 -0.997207
vn -0.065509 0.035869 -0.997207
vn -0.065509 0.035869 -0.997207
vn -0.065770 0.036362 -0.997172
vn -0.065509 0.035869 -0.997207
vn -0.999333 -0.018882 0.031265
vn -0.999333 -0.018882 0.031265
vn -0.999333 -0.018882 0.031265
vn -0.999333 -0.018882 0.031265
vn 0.995471 0.040064 -0.086210
vn 0.995471 0.040064 -0.086210
vn 0.995471 0.040064 -0.086210
vn 0.995471 0.040064 -0.086210
vn -0.341430 -0.930559 0.132231
vn -0.341430 -0.930559 0.132231
vn -0.341430 -0.930559 0.132231
vn -0.341430 -0.930559 0.132231
vn 0.831906 0.551133 0.064690
vn 0.831906 0.551133 0.064690
vn 0.831906 0.551133 0.064690
vn 0.831906 0.551133 0.064690
vn 0.071849 0.038637 -0.996667
vn 0.071849 0.038637 -0.996667
vn 0.071849 0.038637 -0.996667
vn 0.071849 0.038637 -0.996667
vn 0.356882 0.933111 0.044026
vn 0.356882 0.933111 0.044026
vn 0.356882 0.933111 0.044026
vn 0.356882 0.933111 0.044026
vn 0.351010 0.935797 0.032794
vn 0.351010 0.935797 0.032794
vn 0.351010 0.935797 0.032794
vn 0.351010 0.935797 0.032794
vn -0.900827 -0.427301 0.076971
vn -0.900827 -0.427301 0.076971
vn -0.900827 -0.427301 0.076971
vn -0.900827 -0.427301 0.076971
vn 0.964140 0.261539 0.045077
vn 0.964140 0.261539 0.045077
vn 0.964140 0.261539 0.045077
vn 0.964140 0.261539 0.045077
vn 0.944358 -0.316862 -0.088236
vn 0.944358 -0.316862 -0.088236
vn 0.944358 -0.316862 -0.088236
vn 0.944358 -0.316862 -0.088236
vn -0.123813 -0.070299 0.989812
vn -0.123813 -0.070299 0.989812
vn -0.123813 -0.070299 0.989812
vn -0.123813 -0.070299 0.989812
vn 0.015002 -0.999803 -0.013015
vn 0.015002 -0.999803 -0.013015
vn 0.015002 -0.999803 -0.013015
vn 0.015002 -0.999803 -0.013015
vn -0.833689 -0.548491 -0.064181
vn -0.833689 -0.548491 -0.064181
vn -0.833689 -0.548491 -0.064181
vn -0.833689 -0.548491 -0.064181
vn -0.924847 -0.322629 -0.201414
vn -0.924847 -0.322629 -0.201414
vn -0.924847 -0.322629 -0.201414
vn -0.924847 -0.322629 -0.201414
vn 0.728804 0.684011 -0.031215
vn 0.728804 0.684011 -0.031215
vn 0.728804 0.684011 -0.031215
vn 0.728804 0.684011 -0.031215
vn 0.122999 -0.034594 -0.991804
vn 0.122999 -0.034594 -0.991804
vn 0.122999 -0.034594 -0.991804
vn 0.122999 -0.034594 -0.991804
vn 0.236298 0.268117 0.933957
vn 0.236298 0.268117 0.933957
vn 0.236298 0.268117 0.933957
vn 0.236298 0.268117 0.933957
vn -0.110073 0.954034 0.278753
vn -0.110073 0.954034 0.278753
vn -0.110073 0.954034 0.278753
vn -0.110073 0.954034 0.278753
vn 0.511578 -0.859091 0.015835
vn 0.511578 -0.859091 0.015835
vn 0.511578 -0.859091 0.015835
vn 0.511578 -0.859091 0.015835
vn 0.151897 0.252365 -0.955636
vn 0.151897 0.252365 -0.955636
vn 0.151897 0.252365 -0.955636
vn 0.151897 0.252365 -0.955636
vn 0.869429 0.493820 0.015323
vn 0.869429 0.493820 0.015323
vn 0.869429 0.493820 0.015323
vn 0.869429 0.493820 0.015323
vn -0.730204 -0.655181 0.193754
vn -0.733896 -0.651698 0.191537
vn -0.733896 -0.651698 0.191537
vn -0.733896 -0.651698 0.191537
vn -0.737566 -0.648194 0.189314
vn -0.733896 -0.651698 0.191537
vn -0.967075 0.169092 0.190195
vn -0.967075 0.169092 0.190195
vn -0.967075 0.169092 0.190195
vn -0.967075 0.169092 0.190195
vn -0.847497 -0.529933 -0.030315
vn -0.847497 -0.529933 -0.030315
vn -0.847497 -0.529933 -0.030315
vn -0.847497 -0.529933 -0.030315
vn -0.013120 0.052518 -0.998534
vn -0.013120 0.052518 -0.998534
vn -0.013120 0.052518 -0.998534
vn -0.013120 0.052518 -0.998534
vn 0.976199 0.216552 0.011828
vn 0.976199 0.216552 0.011828
vn 0.976199 0.216552 0.011828
vn 0.976199 0.216552 0.011828
vn -0.863508 -0.504271 0.008000
vn -0.863508 -0.504271 0.008000
vn -0.863508 -0.504271 0.008000
vn -0.863508 -0.504271 0.008000
vn 0.511221 0.858633 -0.037451
vn 0.511221 0.858633 -0.037451
vn 0.511221 0.858633 -0.037451
vn 0.511221 0.858633 -0.037451
vn -0.162186 -0.986629 0.016106
vn -0.162186 -0.986629 0.016106
vn -0.162186 -0.986629 0.016106
vn -0.162186 -0.986629 0.016106
vn 0.972639 -0.134331 -0.189548
vn 0.972639 -0.134331 -0.189548
vn 0.972639 -0.134331 -0.189548
vn 0.972639 -0.134331 -0.189548
vn -0.981704 -0.183492 0.050870
vn -0.981704 -0.183492 0.050870
vn -0.981704 -0.183492 0.050870
vn -0.981704 -0.183492 0.050870
vn -0.512383 0.858601 -0.016360
vn -0.512383 0.858601 -0.016360
vn -0.512383 0.858601 -0.016360
vn -0.512383 0.858601 -0.016360
vn -0.321484 0.946350 -0.032715
vn -0.321484 0.946350 -0.032715
vn -0.321484 0.946350 -0.032715
vn -0.321484 0.946350 -0.032715
vn -0.537771 -0.841769 0.047193
vn -0.537771 -0.841769 0.047193
vn -0.537771 -0.841769 0.047193
vn -0.537771 -0.841769 0.047193
vn -0.013114 0.031998 -0.999402
vn -0.013114 0.031998 -0.999402
vn -0.013114 0.031998 -0.999402
vn -0.013114 0.031998 -0.999402
vn 0.357373 -0.933956 -0.003346
vn 0.357373 -0.933956 -0.003346
vn 0.357373 -0.933956 -0.003346
vn 0.357373 -0.933956 -0.003346
vn 0.764810 0.630632 -0.131792
vn 0.764810 0.630632 -0.131792
vn 0.764810 0.630632 -0.131792
vn 0.764810 0.630632 -0.131792
vn 0.987202 -0.143066 0.070455
vn 0.987202 -0.143066 0.070455
vn 0.987202 -0.143066 0.070455
vn 0.987202 -0.143066 0.070455
vn -0.078897 -0.129973 0.988373
vn -0.078897 -0.129973 0.988373
vn -0.078897 -0.129973 0.988373
vn -0.078897 -0.129973 0.988373
vn -0.656341 -0.734060 -0.174275
vn -0.656341 -0.734060 -0.174275
vn -0.656341 -0.734060 -0.174275
vn -0.656341 -0.734060 -0.174275
vn -0.315436 -0.854556 0.412594
vn -0.315436 -0.854556 0.412594
vn -0.315436 -0.854556 0.412594
vn -0.315436 -0.854556 0.412594
vn 0.360963 -0.930372 -0.064128
vn 0.360963 -0.930372 -0.064128
vn 0.360963 -0.930372 -0.064128
vn 0.360963 -0.930372 -0.064128
vn -0.357596 -0.932856 -0.043651
vn -0.357596 -0.932856 -0.043651
vn -0.357596 -0.932856 -0.043651
vn -0.357596 -0.932856 -0.043651
vn 0.651469 0.738372 0.174343
vn 0.651469 0.738372 0.174343
vn 0.651469 0.738372 0.174343
vn 0.651469 0.738372 0.174343
vn 0.958487 0.284639 0.016818
vn 0.958487 0.284639 0.016818
vn 0.958487 0.284639 0.016818
vn 0.958487 0.284639 0.016818
vn 0.656371 -0.752594 -0.052724
vn 0.656371 -0.752594 -0.052724
vn 0.656371 -0.752594 -0.052724
vn 0.656371 -0.752594 -0.052724
vn 0.996445 -0.067864 -0.049910
vn 0.996445 -0.067864 -0.049910
vn 0.996445 -0.067864 -0.049910
vn 0.996445 -0.067864 -0.049910
vn -0.891587 0.452541 0.016722
vn -0.891587 0.452541 0.016722
vn -0.891587 0.452541 0.016722
vn -0.891587 0.452541 0.016722
vn 0.927070 0.316787 0.200465
vn 0.927070 0.316787 0.200465
vn 0.927070 0.316787 0.200465
vn 0.927070 0.316787 0.200465
vn -0.838936 0.524643 -0.144692
vn -0.838936 0.524643 -0.144692
vn -0.838936 0.524643 -0.144692
vn -0.838936 0.524643 -0.144692
vn -0.823795 0.561201 -0.080103
vn -0.878186 0.478180 -0.011554
vn -0.878186 0.478180 -0.011554
vn -0.878186 0.478180 -0.011554
vn -0.919800 0.388202 0.057163
vn -0.878186 0.478180 -0.011554
vn -0.614997 -0.788046 0.027607
vn -0.614997 -0.788046 0.027607
vn -0.614997 -0.788046 0.027607
vn -0.614997 -0.788046 0.027607
vn 0.164876 -0.984630 -0.057624
vn 0.164876 -0.984630 -0.057624
vn 0.164876 -0.984630 -0.057624
vn 0.164876 -0.984630 -0.057624
vn -0.933360 -0.349989 0.079672
vn -0.933360 -0.349989 0.079672
vn -0.933360 -0.349989 0.079672
vn -0.933360 -0.349989 0.079672
vn 0.212612 -0.975893 0.049287
vn 0.212612 -0.975893 0.049287
vn 0.212612 -0.975893 0.049287
vn 0.212612 -0.975893 0.049287
vn -0.140358 -0.077121 0.987093
vn -0.140358 -0.077121 0.987093
vn -0.140358 -0.077121 0.987093
vn -0.140358 -0.077121 0.987093
vn -0.979170 0.190329 0.070721
vn -0.979170 0.190329 0.070721
vn -0.979170 0.190329 0.070721
vn -0.979170 0.190329 0.070721
vn -0.873360 -0.486921 -0.012234
vn -0.897493 -0.440827 0.013336
vn -0.897493 -0.440827 0.013336
vn -0.897493 -0.440827 0.013336
vn -0.918609 -0.393251 0.038862
vn -0.897493 -0.440827 0.013336
vn 0.699615 -0.711023 -0.070601
vn 0.699615 -0.711023 -0.070601
vn 0.699615 -0.711023 -0.070601
vn 0.699615 -0.711023 -0.070601
vn -0.916935 0.383727 0.109467
vn -0.916935 0.383727 0.109467
vn -0.916935 0.383727 0.109467
vn -0.916935 0.383727 0.109467
vn -0.375485 -0.926500 -0.024686
vn -0.375485 -0.926500 -0.024686
vn -0.375485 -0.926500 -0.024686
vn -0.375485 -0.926500 -0.024686
vn -0.040455 -0.003158 -0.999176
vn -0.040455 -0.003158 -0.999176
vn -0.040455 -0.003158 -0.999176
vn -0.040455 -0.003158 -0.999176
vn 0.845671 0.533453 -0.016414
vn 0.845671 0.533453 -0.016414
vn 0.845671 0.533453 -0.016414
vn 0.845671 0.533453 -0.016414
vn -0.049528 -0.001541 -0.998772
vn -0.049528 -0.001541 -0.998772
vn -0.049528 -0.001541 -0.998772
vn -0.049528 -0.001541 -0.998772
vn -0.705032 0.705536 0.071751
vn -0.705032 0.705536 0.071751
vn -0.705032 0.705536 0.071751
vn -0.705032 0.705536 0.071751
vn 0.993654 0.112263 0.006919
vn 0.993654 0.112263 0.006919
vn 0.993654 0.112263 0.006919
vn 0.993654 0.112263 0.006919
vn -0.996608 0.076878 -0.029353
vn -0.996608 0.076878 -0.029353
vn -0.996608 0.076878 -0.029353
vn -0.996608 0.076878 -0.029353
vn -0.257077 0.965664 -0.037473
vn -0.257077 0.965664 -0.037473
vn -0.257077 0.965664 -0.037473
vn -0.257077 0.965664 -0.037473
vn 0.844127 -0.528005 -0.093058
vn 0.844127 -0.528005 -0.093058
vn 0.844127 -0.528005 -0.093058
vn 0.844127 -0.528005 -0.093058
vn 0.955933 -0.293483 0.007707
vn 0.955933 -0.293483 0.007707
vn 0.955933 -0.293483 0.007707
vn 0.955933 -0.293483 0.007707
vn -0.995811 0.087396 -0.026897
vn -0.995811 0.087396 -0.026897
vn -0.995811 0.087396 -0.026897
vn -0.995811 0.087396 -0.026897
vn 0.811825 0.583831 0.009021
vn 0.811825 0.583831 0.009021
vn 0.811825 0.583831 0.009021
vn 0.811825 0.583831 0.009021
vn 0.135618 -0.155091 0.978547
vn 0.135618 -0.155091 0.978547
vn 0.135618 -0.155091 0.978547
vn 0.135618 -0.155091 0.978547
vn 0.158756 0.987159 -0.017735
vn 0.158756 0.987159 -0.017735
vn 0.158756 0.987159 -0.017735
vn 0.158756 0.987159 -0.017735
vn -0.167042 0.984514 0.053196
vn -0.167042 0.984514 0.053196
vn -0.167042 0.984514 0.053196
vn -0.167042 0.984514 0.053196
vn 0.893195 0.444173 -0.070088
vn 0.893195 0.444173 -0.070088
vn 0.893195 0.444173 -0.070088
vn 0.893195 0.444173 -0.070088
vn 0.082381 -0.341223 0.936365
vn 0.082381 -0.341223 0.936365
vn 0.082381 -0.341223 0.936365
vn 0.082381 -0.341223 0.936365
vn 0.104218 -0.994475 0.012610
vn 0.104218 -0.994475 0.012610
vn 0.104218 -0.994475 0.012610
vn 0.104218 -0.994475 0.012610
vn 0.986822 -0.154244 -0.048905
vn 0.986822 -0.154244 -0.048905
vn 0.986822 -0.154244 -0.048905
vn 0.986822 -0.154244 -0.048905
vn -0.338258 0.932804 0.124331
vn -0.338258 0.932804 0.124331
vn -0.338258 0.932804 0.124331
vn -0.338258 0.932804 0.124331
vn 0.041086 -0.166108 -0.985251
vn 0.041086 -0.166108 -0.985251
vn 0.041086 -0.166108 -0.985251
vn 0.041086 -0.166108 -0.985251
vn 0.370749 0.928459 0.022563
vn 0.370749 0.928459 0.022563
vn 0.370749 0.928459 0.022563
vn 0.370749 0.928459 0.022563
vn 0.442924 -0.023272 0.896257
vn 0.442924 -0.023272 0.896257
vn 0.442924 -0.023272 0.896257
vn 0.442924 -0.023272 0.896257
vn -0.129021 -0.181997 0.974798
vn -0.129021 -0.181997 0.974798
vn -0.129021 -0.181997 0.974798
vn -0.129021 -0.181997 0.974798
vn 0.157743 0.020434 -0.987269
vn 0.157743 0.020434 -0.987269
vn 0.157743 0.020434 -0.987269
vn 0.157743 0.020434 -0.987269
vn -0.914904 -0.403536 0.010450
vn -0.914904 -0.403536 0.010450
vn -0.914904 -0.403536 0.010450
vn -0.914904 -0.403536 0.010450
vn -0.996293 0.082687 -0.023716
vn -0.996293 0.082687 -0.023716
vn -0.996293 0.082687 -0.023716
vn -0.996293 0.082687 -0.023716
vn 0.843621 -0.516809 0.145646
vn 0.843621 -0.516809 0.145646
vn 0.843621 -0.516809 0.145646
vn 0.843621 -0.516809 0.145646
vn -0.954786 0.297202 -0.007384
vn -0.954786 0.297202 -0.007384
vn -0.954786 0.297202 -0.007384
vn -0.954786 0.297202 -0.007384
vn -0.388820 -0.920804 -0.030649
vn -0.388820 -0.920804 -0.030649
vn -0.388820 -0.920804 -0.030649
vn -0.388820 -0.920804 -0.030649
vn -0.011709 0.999793 0.016654
vn -0.011709 0.999793 0.016654
vn -0.011709 0.999793 0.016654
vn -0.011709 0.999793 0.016654
vn -0.066151 0.013271 -0.997721
vn -0.066151 0.013271 -0.997721
vn -0.066151 0.013271 -0.997721
vn -0.066151 0.013271 -0.997721
vn -0.985331 -0.155362 0.070610
vn -0.985331 -0.155362 0.070610
vn -0.985331 -0.155362 0.070610
vn -0.985331 -0.155362 0.070610
vn -0.996559 0.057188 -0.059992
vn -0.996559 0.057188 -0.059992
vn -0.996559 0.057188 -0.059992
vn -0.996559 0.057188 -0.059992
vn -0.982057 0.168559 -0.084567
vn -0.982057 0.168559 -0.084567
vn -0.982057 0.168559 -0.084567
vn -0.982057 0.168559 -0.084567
vn 0.995622 -0.089576 0.026705
vn 0.995622 -0.089576 0.026705
vn 0.995622 -0.089576 0.026705
vn 0.995622 -0.089576 0.026705
vn -0.121749 0.992376 -0.019167
vn -0.121749 0.992376 -0.019167
vn -0.121749 0.992376 -0.019167
vn -0.121749 0.992376 -0.019167
vn 0.318388 -0.947396 0.032727
vn 0.318388 -0.947396 0.032727
vn 0.318388 -0.947396 0.032727
vn 0.318388 -0.947396 0.032727
vn 0.776542 -0.629831 0.017210
vn 0.776542 -0.629831 0.017210
vn 0.776542 -0.629831 0.017210
vn 0.776542 -0.629831 0.017210
vn 0.846772 0.530697 0.036572
vn 0.856150 0.516057 0.026310
vn 0.856150 0.516057 0.026310
vn 0.856150 0.516057 0.026310
vn 0.865179 0.501207 0.016037
vn 0.856150 0.516057 0.026310
vn -0.922871 0.378736 0.069775
vn -0.922871 0.378736 0.069775
vn -0.922871 0.378736 0.069775
vn -0.922871 0.378736 0.069775
vn 0.974402 -0.074710 0.212035
vn 0.974402 -0.074710 0.212035
vn 0.974402 -0.074710 0.212035
vn 0.974402 -0.074710 0.212035
s off
g stump_00 group1
usemtl samor_4024_116SG
f 1/1/1 2/2/2 3/3/3
f 4/4/4 6/5/5 5/6/6
s 1
f 138/8/7 137/9/8 136/7/9
f 136/7/9 137/9/8 135/10/10
s 2
f 184/11/11 186/12/12 183/14/13
f 183/14/13 186/12/12 185/13/14
s 3
f 214/16/15 213/17/16 212/15/17
f 212/15/17 213/17/16 211/18/18
s 4
f 282/20/19 281/21/20 280/19/21
f 280/19/21 281/21/20 279/22/22
s 5
f 86/24/23 85/25/24 84/23/25
f 84/23/25 85/25/24 83/26/26
s 6
f 500/27/27 502/28/28 499/30/29
f 499/30/29 502/28/28 501/29/30
s off
f 31/31/31 32/32/32 33/33/33
f 32/32/34 34/34/35 33/33/36
s 7
f 316/35/37 318/36/38 315/38/39
f 315/38/39 318/36/38 317/37/40
s 8
f 442/40/41 441/41/42 440/39/43
f 440/39/43 441/41/42 439/42/44
s 9
f 498/44/45 497/45/46 496/43/47
f 496/43/47 497/45/46 495/46/48
s 10
f 420/47/49 422/48/50 419/50/51
f 419/50/51 422/48/50 421/49/52
s 11
f 486/52/53 485/53/54 484/51/55
f 484/51/55 485/53/54 483/54/56
s 12
f 242/56/57 241/57/58 240/55/59
f 240/55/59 241/57/58 239/58/60
s 13
f 14/60/61 13/61/62 12/59/63
f 12/59/63 13/61/62 11/62/64
s 14
f 254/64/65 253/65/66 252/63/67
f 252/63/67 253/65/66 251/66/68
s 15
f 398/68/69 397/69/70 396/67/71
f 396/67/71 397/69/70 395/70/72
s 16
f 434/72/73 433/73/74 432/71/75
f 432/71/75 433/73/74 431/74/76
s 17
f 490/76/77 489/77/78 488/75/79
f 488/75/79 489/77/78 487/78/80
s 18
f 426/80/81 425/81/82 424/79/83
f 424/79/83 425/81/82 423/82/84
s 19
f 246/84/85 245/85/86 244/83/87
f 244/83/87 245/85/86 243/86/88
s 20
f 470/88/89 469/89/90 468/87/91
f 468/87/91 469/89/90 467/90/92
s 21
f 312/91/93 314/92/94 311/94/95
f 311/94/95 314/92/94 313/93/96
s 22
f 210/96/97 209/97/98 208/95/99
f 208/95/99 209/97/98 207/98/100
s off
f 103/99/101 104/100/102 105/101/103
f 104/100/104 106/102/105 105/101/106
s 23
f 50/104/107 49/105/108 48/103/109
f 48/103/109 49/105/108 47/106/110
s 24
f 174/108/111 173/109/112 172/107/113
f 172/107/113 173/109/112 171/110/114
s 25
f 206/112/115 205/113/116 204/111/117
f 204/111/117 205/113/116 203/114/118
s 26
f 292/115/119 294/116/120 291/118/121
f 291/118/121 294/116/120 293/117/122
s 27
f 376/119/123 378/120/124 375/122/125
f 375/122/125 378/120/124 377/121/126
s 28
f 300/123/127 302/124/128 299/126/129
f 299/126/129 302/124/128 301/125/130
s 29
f 454/128/131 453/129/132 452/127/133
f 452/127/133 453/129/132 451/130/134
s 30
f 60/131/135 62/132/136 59/134/137
f 59/134/137 62/132/136 61/133/138
s 31
f 162/136/139 161/137/140 160/135/141
f 160/135/141 161/137/140 159/138/142
s 32
f 326/140/143 325/141/144 324/139/145
f 324/139/145 325/141/144 323/142/146
s 33
f 392/143/147 394/144/148 391/146/149
f 391/146/149 394/144/148 393/145/150
s 34
f 88/147/151 90/148/152 87/150/153
f 87/150/153 90/148/152 89/149/154
s 35
f 120/151/155 122/152/156 119/154/157
f 119/154/157 122/152/156 121/153/158
s 36
f 272/155/159 274/156/160 271/158/161
f 271/158/161 274/156/160 273/157/162
s 37
f 170/160/163 169/161/164 168/159/165
f 168/159/165 169/161/164 167/162/166
s 38
f 360/163/167 362/164/168 359/166/169
f 359/166/169 362/164/168 361/165/170
s 39
f 414/168/171 413/169/172 412/167/173
f 412/167/173 413/169/172 411/170/174
s 40
f 428/171/175 430/172/176 427/174/177
f 427/174/177 430/172/176 429/173/178
s 41
f 42/176/179 41/177/180 40/175/181
f 40/175/181 41/177/180 39/178/182
s 42
f 368/179/183 370/180/184 367/182/185
f 367/182/185 370/180/184 369/181/186
s 43
f 446/184/187 445/185/188 444/183/189
f 444/183/189 445/185/188 443/186/190
s off
f 191/187/191 192/188/192 193/189/193
f 192/188/194 194/190/195 193/189/196
s 44
f 232/191/197 234/192/198 231/194/199
f 231/194/199 234/192/198 233/193/200
s 45
f 342/196/201 341/197/202 340/195/203
f 340/195/203 341/197/202 339/198/204
s 46
f 358/200/205 357/201/206 356/199/207
f 356/199/207 357/201/206 355/202/208
s 47
f 298/204/209 297/205/210 296/203/211
f 296/203/211 297/205/210 295/206/212
s 48
f 190/208/213 189/209/214 188/207/215
f 188/207/215 189/209/214 187/210/216
s 49
f 224/211/217 226/212/218 223/214/219
f 223/214/219 226/212/218 225/213/220
s 50
f 10/216/221 9/217/222 8/215/223
f 8/215/223 9/217/222 7/218/224
s 51
f 72/219/225 74/220/226 71/222/227
f 71/222/227 74/220/226 73/221/228
s 52
f 18/224/229 17/225/230 16/223/231
f 16/223/231 17/225/230 15/226/232
s 53
f 202/228/233 201/229/234 200/227/235
f 200/227/235 201/229/234 199/230/236
s 54
f 264/231/237 266/232/238 263/234/239
f 263/234/239 266/232/238 265/233/240
s 55
f 64/235/241 66/236/242 63/238/243
f 63/238/243 66/236/242 65/237/244
s 56
f 158/240/245 157/241/246 156/239/247
f 156/239/247 157/241/246 155/242/248
s 57
f 258/244/249 257/245/250 256/243/251
f 256/243/251 257/245/250 255/246/252
s 58
f 448/247/253 450/248/254 447/250/255
f 447/250/255 450/248/254 449/249/256
s 59
f 78/252/257 77/253/258 76/251/259
f 76/251/259 77/253/258 75/254/260
s 60
f 384/255/261 386/256/262 383/258/263
f 383/258/263 386/256/262 385/257/264
s 61
f 276/259/265 278/260/266 275/262/267
f 275/262/267 278/260/266 277/261/268
s 62
f 418/264/269 417/265/270 416/263/271
f 416/263/271 417/265/270 415/266/272
s 63
f 330/268/273 329/269/274 328/267/275
f 328/267/275 329/269/274 327/270/276
s 64
f 128/271/277 130/272/278 127/274/279
f 127/274/279 130/272/278 129/273/280
s 65
f 480/275/281 482/276/282 479/278/283
f 479/278/283 482/276/282 481/277/284
s 66
f 20/279/285 22/280/286 19/282/287
f 19/282/287 22/280/286 21/281/288
s 67
f 286/284/289 285/285/290 284/283/291
f 284/283/291 285/285/290 283/286/292
s 68
f 154/288/293 153/289/294 152/287/295
f 152/287/295 153/289/294 151/290/296
s 69
f 466/292/297 465/293/298 464/291/299
f 464/291/299 465/293/298 463/294/300
s 70
f 476/295/301 478/296/302 475/298/303
f 475/298/303 478/296/302 477/297/304
s 71
f 270/300/305 269/301/306 268/299/307
f 268/299/307 269/301/306 267/302/308
s off
f 307/303/309 308/304/310 309/305/311
f 308/304/312 310/306/313 309/305/314
s 72
f 140/307/315 142/308/316 139/310/317
f 139/310/317 142/308/316 141/309/318
s 73
f 182/312/319 181/313/320 180/311/321
f 180/311/321 181/313/320 179/314/322
s 74
f 144/315/323 146/316/324 143/318/325
f 143/318/325 146/316/324 145/317/326
s 75
f 58/320/327 57/321/328 56/319/329
f 56/319/329 57/321/328 55/322/330
s 76
f 388/323/331 390/324/332 387/326/333
f 387/326/333 390/324/332 389/325/334
s 77
f 304/327/335 306/328/336 303/330/337
f 303/330/337 306/328/336 305/329/338
s off
f 335/331/339 336/332/340 337/333/341
f 336/332/342 338/334/343 337/333/344
s 78
f 70/336/345 69/337/346 68/335/347
f 68/335/347 69/337/346 67/338/348
s 79
f 462/340/349 461/341/350 460/339/351
f 460/339/351 461/341/350 459/342/352
s 80
f 262/344/353 261/345/354 260/343/355
f 260/343/355 261/345/354 259/346/356
s 81
f 344/347/357 346/348/358 343/350/359
f 343/350/359 346/348/358 345/349/360
s 82
f 374/352/361 373/353/362 372/351/363
f 372/351/363 373/353/362 371/354/364
s 83
f 350/356/365 349/357/366 348/355/367
f 348/355/367 349/357/366 347/358/368
s 84
f 230/360/369 229/361/370 228/359/371
f 228/359/371 229/361/370 227/362/372
s 85
f 114/364/373 113/365/374 112/363/375
f 112/363/375 113/365/374 111/366/376
s 86
f 110/368/377 109/369/378 108/367/379
f 108/367/379 109/369/378 107/370/380
s 87
f 218/372/381 217/373/382 216/371/383
f 216/371/383 217/373/382 215/374/384
s 88
f 178/376/385 177/377/386 176/375/387
f 176/375/387 177/377/386 175/378/388
s 89
f 38/380/389 37/381/390 36/379/391
f 36/379/391 37/381/390 35/382/392
s 90
f 118/384/393 117/385/394 116/383/395
f 116/383/395 117/385/394 115/386/396
s 91
f 510/388/397 509/389/398 508/387/399
f 508/387/399 509/389/398 507/390/400
s 92
f 402/392/401 401/393/402 400/391/403
f 400/391/403 401/393/402 399/394/404
s 93
f 166/396/405 165/397/406 164/395/407
f 164/395/407 165/397/406 163/398/408
s 94
f 438/400/409 437/401/410 436/399/411
f 436/399/411 437/401/410 435/402/412
s 95
f 220/403/413 222/404/414 219/406/415
f 219/406/415 222/404/414 221/405/416
s 96
f 406/408/417 405/409/418 404/407/419
f 404/407/419 405/409/418 403/410/420
s 97
f 148/411/421 150/412/422 147/414/423
f 147/414/423 150/412/422 149/413/424
s 98
f 132/415/425 134/416/426 131/418/427
f 131/418/427 134/416/426 133/417/428
s 99
f 458/420/429 457/421/430 456/419/431
f 456/419/431 457/421/430 455/422/432
s 100
f 366/424/433 365/425/434 364/423/435
f 364/423/435 365/425/434 363/426/436
s 101
f 474/428/437 473/429/438 472/427/439
f 472/427/439 473/429/438 471/430/440
s 102
f 380/431/441 382/432/442 379/434/443
f 379/434/443 382/432/442 381/433/444
s 103
f 410/436/445 409/437/446 408/435/447
f 408/435/447 409/437/446 407/438/448
s 104
f 92/439/449 94/440/450 91/442/451
f 91/442/451 94/440/450 93/441/452
s 105
f 126/444/453 125/445/454 124/443/455
f 124/443/455 125/445/454 123/446/456
s 106
f 30/448/457 29/449/458 28/447/459
f 28/447/459 29/449/458 27/450/460
s 107
f 102/452/461 101/453/462 100/451/463
f 100/451/463 101/453/462 99/454/464
s 108
f 198/456/465 197/457/466 196/455/467
f 196/455/467 197/457/466 195/458/468
s 109
f 332/459/469 334/460/470 331/462/471
f 331/462/471 334/460/470 333/461/472
s 110
f 248/463/473 250/464/474 247/466/475
f 247/466/475 250/464/474 249/465/476
s 111
f 354/468/477 353/469/478 352/467/479
f 352/467/479 353/469/478 351/470/480
s 112
f 44/471/481 46/472/482 43/474/483
f 43/474/483 46/472/482 45/473/484
s 113
f 54/476/485 53/477/486 52/475/487
f 52/475/487 53/477/486 51/478/488
s 114
f 238/480/489 237/481/490 236/479/491
f 236/479/491 237/481/490 235/482/492
s 115
f 290/484/493 289/485/494 288/483/495
f 288/483/495 289/485/494 287/486/496
s 116
f 320/487/497 322/488/498 319/490/499
f 319/490/499 322/488/498 321/489/500
s 117
f 96/491/501 98/492/502 95/494/503
f 95/494/503 98/492/502 97/493/504
s 118
f 82/496/505 81/497/506 80/495/507
f 80/495/507 81/497/506 79/498/508
s off
f 503/499/509 504/500/510 505/501/511
f 504/500/512 506/502/513 505/501/514
s 119
f 494/504/515 493/505/516 492/503/517
f 492/503/517 493/505/516 491/506/518
s 120
f 24/507/519 26/508/520 23/510/521
f 23/510/521 26/508/520 25/509/522
