# This file uses centimeters as units for non-parametric coordinates.

mtllib tree_03.mtl
g default
v -0.120728 -0.000617 0.131346
v 0.141963 -0.000617 0.131346
v -0.046856 1.261572 0.057474
v 0.068091 1.261572 0.057474
v -0.046856 1.261572 -0.057474
v 0.068091 1.261572 -0.057474
v -0.120728 -0.000617 -0.131346
v 0.141963 -0.000617 -0.131346
vt 0.375000 0.000000
vt 0.625000 0.000000
vt 0.375000 0.250000
vt 0.625000 0.250000
vt 0.375000 0.500000
vt 0.625000 0.500000
vt 0.375000 0.750000
vt 0.625000 0.750000
vt 0.375000 1.000000
vt 0.625000 1.000000
vt 0.875000 0.000000
vt 0.875000 0.250000
vt 0.125000 0.000000
vt 0.125000 0.250000
vn 0.000000 0.058427 0.998292
vn 0.000000 0.058427 0.998292
vn 0.000000 0.058427 0.998292
vn 0.000000 0.058427 0.998292
vn 0.000000 1.000000 0.000000
vn 0.000000 1.000000 0.000000
vn 0.000000 1.000000 0.000000
vn 0.000000 1.000000 0.000000
vn 0.000000 0.058427 -0.998292
vn 0.000000 0.058427 -0.998292
vn 0.000000 0.058427 -0.998292
vn 0.000000 0.058427 -0.998292
vn 0.000000 -1.000000 0.000000
vn 0.000000 -1.000000 0.000000
vn 0.000000 -1.000000 0.000000
vn 0.000000 -1.000000 0.000000
vn 0.998292 0.058427 0.000000
vn 0.998292 0.058427 0.000000
vn 0.998292 0.058427 0.000000
vn 0.998292 0.058427 0.000000
vn -0.998292 0.058427 0.000000
vn -0.998292 0.058427 0.000000
vn -0.998292 0.058427 0.000000
vn -0.998292 0.058427 0.000000
s 1
g pCube1
usemtl tree_03:samor_4024_216SG
f 1/1/1 2/2/2 3/3/3
f 3/3/3 2/2/2 4/4/4
s 2
f 3/3/5 4/4/6 5/5/7
f 5/5/7 4/4/6 6/6/8
s 3
f 5/5/9 6/6/10 7/7/11
f 7/7/11 6/6/10 8/8/12
s 4
f 7/7/13 8/8/14 1/9/15
f 1/9/15 8/8/14 2/10/16
s 5
f 2/2/17 8/11/18 4/4/19
f 4/4/19 8/11/18 6/12/20
s 6
f 7/13/21 1/1/22 5/14/23
f 5/14/23 1/1/22 3/3/24
g default
v -0.567397 0.942750 0.056121
v -0.352822 0.872688 -0.463200
v -0.284548 0.896042 0.546049
v 0.671283 0.931073 0.242294
v 0.261641 0.966104 0.624437
v 0.632269 0.931073 -0.316223
v 0.183614 0.790949 -0.619977
v 0.671283 0.931073 0.242294
v -0.001701 1.678399 -0.051662
v 0.632269 0.931073 -0.316223
v 0.632269 0.931073 -0.316223
v 0.183614 0.790949 -0.619977
v -0.001701 1.678399 -0.051662
v 0.183614 0.790949 -0.619977
v -0.001701 1.678399 -0.051662
v -0.352822 0.872688 -0.463200
v -0.352822 0.872688 -0.463200
v -0.567397 0.942750 0.056121
v -0.001701 1.678399 -0.051662
v -0.567397 0.942750 0.056121
v -0.001701 1.678399 -0.051662
v -0.284548 0.896042 0.546049
v -0.284548 0.896042 0.546049
v 0.261641 0.966104 0.624437
v -0.001701 1.678399 -0.051662
v 0.261641 0.966104 0.624437
v -0.001701 1.678399 -0.051662
v 0.671283 0.931073 0.242294
v -0.391835 1.246351 -0.277029
v -0.030960 1.199643 -0.531789
v -0.421096 1.187966 0.173705
v 0.349422 1.211320 0.389271
v -0.089481 1.234674 0.457861
v 0.563995 1.222997 -0.002669
v 0.398187 1.129581 -0.404409
v 0.349422 1.211320 0.389271
v 0.037314 1.853553 -0.071259
v 0.563995 1.222997 -0.002669
v 0.563995 1.222997 -0.002669
v 0.398187 1.129581 -0.404409
v 0.037314 1.853553 -0.071259
v 0.398187 1.129581 -0.404409
v 0.037314 1.853553 -0.071259
v -0.030960 1.199643 -0.531789
v -0.030960 1.199643 -0.531789
v -0.391835 1.246351 -0.277029
v 0.037314 1.853553 -0.071259
v -0.391835 1.246351 -0.277029
v 0.037314 1.853553 -0.071259
v -0.421096 1.187966 0.173705
v -0.421096 1.187966 0.173705
v -0.089481 1.234674 0.457861
v 0.037314 1.853553 -0.071259
v -0.089481 1.234674 0.457861
v 0.037314 1.853553 -0.071259
v 0.349422 1.211320 0.389271
v -0.187014 1.479890 -0.384812
v 0.183614 1.468213 -0.443603
v -0.372328 1.421505 -0.061460
v 0.125094 1.468213 0.399070
v -0.235782 1.468213 0.291287
v 0.427449 1.503244 0.183503
v 0.466462 1.421505 -0.188841
v 0.125094 1.468213 0.399070
v 0.017807 2.052061 -0.051662
v 0.427449 1.503244 0.183503
v 0.427449 1.503244 0.183503
v 0.466462 1.421505 -0.188841
v 0.017807 2.052061 -0.051662
v 0.466462 1.421505 -0.188841
v 0.017807 2.052061 -0.051662
v 0.183614 1.468213 -0.443603
v 0.183614 1.468213 -0.443603
v -0.187014 1.479890 -0.384812
v 0.017807 2.052061 -0.051662
v -0.187014 1.479890 -0.384812
v 0.017807 2.052061 -0.051662
v -0.372328 1.421505 -0.061460
v -0.372328 1.421505 -0.061460
v -0.235782 1.468213 0.291287
v 0.017807 2.052061 -0.051662
v -0.235782 1.468213 0.291287
v 0.017807 2.052061 -0.051662
v 0.125094 1.468213 0.399070
v -0.245535 1.783491 -0.188841
v -0.021207 1.736783 -0.365214
v -0.255289 1.736783 0.105114
v 0.251887 1.748460 0.242294
v -0.030960 1.771814 0.291287
v 0.388434 1.748460 -0.022266
v 0.261641 1.666722 -0.286827
v 0.251887 1.748460 0.242294
v 0.076326 2.273924 -0.041863
v 0.388434 1.748460 -0.022266
v 0.388434 1.748460 -0.022266
v 0.261641 1.666722 -0.286827
v 0.076326 2.273924 -0.041863
v 0.261641 1.666722 -0.286827
v 0.076326 2.273924 -0.041863
v -0.021207 1.736783 -0.365214
v -0.021207 1.736783 -0.365214
v -0.245535 1.783491 -0.188841
v 0.076326 2.273924 -0.041863
v -0.245535 1.783491 -0.188841
v 0.076326 2.273924 -0.041863
v -0.255289 1.736783 0.105114
v -0.255289 1.736783 0.105114
v -0.030960 1.771814 0.291287
v 0.076326 2.273924 -0.041863
v -0.030960 1.771814 0.291287
v 0.076326 2.273924 -0.041863
v 0.251887 1.748460 0.242294
vt 0.701302 0.569959
vt 0.700638 0.570693
vt 0.706711 0.568681
vt 0.713449 0.570917
vt 0.712215 0.569927
vt 0.709843 0.572035
vt 0.704434 0.570885
vt 0.713449 0.570917
vt 0.709843 0.572035
vt 0.706047 0.578583
vt 0.709843 0.572035
vt 0.704434 0.570885
vt 0.706047 0.578583
vt 0.704434 0.570885
vt 0.700638 0.570693
vt 0.706047 0.578583
vt 0.700638 0.570693
vt 0.701302 0.569959
vt 0.706047 0.578583
vt 0.701302 0.569959
vt 0.706711 0.568681
vt 0.706047 0.578583
vt 0.706711 0.568681
vt 0.712215 0.569927
vt 0.706047 0.578583
vt 0.712215 0.569927
vt 0.713449 0.570917
vt 0.706047 0.578583
vt 0.664956 0.574047
vt 0.666854 0.574399
vt 0.667139 0.572514
vt 0.705478 0.577177
vt 0.711266 0.576698
vt 0.702536 0.575421
vt 0.709748 0.575580
vt 0.675395 0.573089
vt 0.671884 0.572738
vt 0.674920 0.574239
vt 0.671219 0.573887
vt 0.675395 0.573089
vt 0.674920 0.574239
vt 0.670081 0.580499
vt 0.674920 0.574239
vt 0.671219 0.573887
vt 0.670081 0.580499
vt 0.671219 0.573887
vt 0.666854 0.574399
vt 0.670081 0.580499
vt 0.666854 0.574399
vt 0.664956 0.574047
vt 0.670081 0.580499
vt 0.664956 0.574047
vt 0.667139 0.572514
vt 0.670081 0.580499
vt 0.667139 0.572514
vt 0.671884 0.572738
vt 0.670081 0.580499
vt 0.671884 0.572738
vt 0.675395 0.573089
vt 0.670081 0.580499
vt 0.702441 0.576890
vt 0.705762 0.575389
vt 0.709274 0.576571
vt 0.709748 0.575580
vt 0.711266 0.576698
vt 0.706332 0.582544
vt 0.711266 0.576698
vt 0.709274 0.576571
vt 0.706332 0.582544
vt 0.709274 0.576571
vt 0.705478 0.577177
vt 0.706332 0.582544
vt 0.705478 0.577177
vt 0.702441 0.576890
vt 0.706332 0.582544
vt 0.702441 0.576890
vt 0.702536 0.575421
vt 0.706332 0.582544
vt 0.702536 0.575421
vt 0.705762 0.575389
vt 0.706332 0.582544
vt 0.705762 0.575389
vt 0.709748 0.575580
vt 0.706332 0.582544
vt 0.666759 0.579605
vt 0.667993 0.579573
vt 0.668277 0.578711
vt 0.673782 0.578998
vt 0.671504 0.578966
vt 0.673402 0.579573
vt 0.670840 0.579030
vt 0.673782 0.578998
vt 0.673402 0.579573
vt 0.670650 0.585003
vt 0.673402 0.579573
vt 0.670840 0.579030
vt 0.670650 0.585003
vt 0.670840 0.579030
vt 0.667993 0.579573
vt 0.670650 0.585003
vt 0.667993 0.579573
vt 0.666759 0.579605
vt 0.670650 0.585003
vt 0.666759 0.579605
vt 0.668277 0.578711
vt 0.670650 0.585003
vt 0.668277 0.578711
vt 0.671504 0.578966
vt 0.670650 0.585003
vt 0.671504 0.578966
vt 0.673782 0.578998
vt 0.670650 0.585003
vn -0.226254 -0.973334 0.037828
vn -0.065501 -0.984303 0.163884
vn -0.027979 -0.996310 0.081136
vn -0.027979 -0.996310 0.081136
vn 0.072067 -0.992210 0.101619
vn 0.097392 -0.976178 0.193886
vn 0.017940 -0.974001 0.225834
vn -0.065501 -0.984303 0.163884
vn -0.011056 -0.901673 0.432277
vn 0.752265 0.656762 -0.052547
vn 0.752265 0.656762 -0.052547
vn 0.752265 0.656762 -0.052547
vn 0.339574 0.556506 -0.758282
vn 0.339574 0.556506 -0.758282
vn 0.339574 0.556506 -0.758282
vn -0.170029 0.506011 -0.845602
vn -0.170029 0.506011 -0.845602
vn -0.170029 0.506011 -0.845602
vn -0.758192 0.526721 -0.384331
vn -0.758192 0.526721 -0.384331
vn -0.758192 0.526721 -0.384331
vn -0.676546 0.585655 0.446423
vn -0.676546 0.585655 0.446423
vn -0.676546 0.585655 0.446423
vn -0.188976 0.638380 0.746163
vn -0.188976 0.638380 0.746163
vn -0.188976 0.638380 0.746163
vn 0.531453 0.678216 0.507524
vn 0.531453 0.678216 0.507524
vn 0.531453 0.678216 0.507524
vn -0.223316 -0.964718 -0.139460
vn -0.147808 -0.987295 0.058328
vn -0.071548 -0.997323 0.015104
vn -0.093755 -0.995511 -0.012954
vn -0.107265 -0.990158 0.089894
vn -0.002621 -0.999772 -0.021169
vn -0.002621 -0.999772 -0.021169
vn -0.107265 -0.990158 0.089894
vn 0.028526 -0.996731 0.075587
vn -0.071548 -0.997323 0.015104
vn 0.006015 -0.995694 0.092508
vn -0.022856 -0.981890 0.188069
vn -0.106565 -0.981580 0.158568
vn -0.147808 -0.987295 0.058328
vn -0.242973 -0.917902 0.313719
vn 0.684285 0.614301 0.392924
vn 0.684285 0.614301 0.392924
vn 0.684285 0.614301 0.392924
vn 0.717094 0.552789 -0.424500
vn 0.717094 0.552789 -0.424500
vn 0.717094 0.552789 -0.424500
vn 0.319882 0.522998 -0.790031
vn 0.319882 0.522998 -0.790031
vn 0.319882 0.522998 -0.790031
vn -0.433600 0.548684 -0.714798
vn -0.433600 0.548684 -0.714798
vn -0.433600 0.548684 -0.714798
vn -0.819777 0.572301 0.020915
vn -0.819777 0.572301 0.020915
vn -0.819777 0.572301 0.020915
vn -0.568028 0.598956 0.564443
vn -0.568028 0.598956 0.564443
vn -0.568028 0.598956 0.564443
vn 0.152966 0.623898 0.766390
vn 0.152966 0.623898 0.766390
vn 0.152966 0.623898 0.766390
vn -0.064503 -0.974921 -0.213000
vn -0.093755 -0.995511 -0.012954
vn -0.002621 -0.999772 -0.021169
vn 0.017940 -0.974001 0.225834
vn 0.072067 -0.992210 0.101619
vn -0.065501 -0.984303 0.163884
vn -0.065501 -0.984303 0.163884
vn 0.072067 -0.992210 0.101619
vn -0.027979 -0.996310 0.081136
vn -0.002621 -0.999772 -0.021169
vn 0.028526 -0.996731 0.075587
vn -0.044182 -0.988011 0.147927
vn -0.107265 -0.990158 0.089894
vn -0.093755 -0.995511 -0.012954
vn -0.309988 -0.934913 0.172756
vn 0.415933 0.602379 0.681277
vn 0.415933 0.602379 0.681277
vn 0.415933 0.602379 0.681277
vn 0.809501 0.585489 -0.043711
vn 0.809501 0.585489 -0.043711
vn 0.809501 0.585489 -0.043711
vn 0.605477 0.554923 -0.570489
vn 0.605477 0.554923 -0.570489
vn 0.605477 0.554923 -0.570489
vn -0.116468 0.530559 -0.839608
vn -0.116468 0.530559 -0.839608
vn -0.116468 0.530559 -0.839608
vn -0.789731 0.494266 -0.363353
vn -0.789731 0.494266 -0.363353
vn -0.789731 0.494266 -0.363353
vn -0.824655 0.506309 0.252180
vn -0.824655 0.506309 0.252180
vn -0.824655 0.506309 0.252180
vn -0.235867 0.566319 0.789715
vn -0.235867 0.566319 0.789715
vn -0.235867 0.566319 0.789715
vn -0.319534 -0.934135 -0.159031
vn -0.218337 -0.971331 0.094051
vn -0.116017 -0.992847 0.028193
vn -0.106565 -0.981580 0.158568
vn 0.006015 -0.995694 0.092508
vn -0.147808 -0.987295 0.058328
vn -0.147808 -0.987295 0.058328
vn 0.006015 -0.995694 0.092508
vn -0.071548 -0.997323 0.015104
vn -0.116017 -0.992847 0.028193
vn -0.010084 -0.992530 0.121587
vn -0.040190 -0.972045 0.231331
vn -0.159154 -0.961742 0.222984
vn -0.218337 -0.971331 0.094051
vn -0.325913 -0.847892 0.418163
vn 0.780292 0.478488 0.402732
vn 0.780292 0.478488 0.402732
vn 0.780292 0.478488 0.402732
vn 0.755134 0.430072 -0.494783
vn 0.755134 0.430072 -0.494783
vn 0.755134 0.430072 -0.494783
vn 0.339323 0.439158 -0.831866
vn 0.339323 0.439158 -0.831866
vn 0.339323 0.439158 -0.831866
vn -0.459520 0.517828 -0.721592
vn -0.459520 0.517828 -0.721592
vn -0.459520 0.517828 -0.721592
vn -0.842442 0.535744 0.057175
vn -0.842442 0.535744 0.057175
vn -0.842442 0.535744 0.057175
vn -0.588901 0.530427 0.609788
vn -0.588901 0.530427 0.609788
vn -0.588901 0.530427 0.609788
vn 0.187407 0.514960 0.836478
vn 0.187407 0.514960 0.836478
vn 0.187407 0.514960 0.836478
vn -0.218337 -0.971331 0.094051
vn -0.159154 -0.961742 0.222984
vn -0.116017 -0.992847 0.028193
vn -0.116017 -0.992847 0.028193
vn -0.159154 -0.961742 0.222984
vn -0.010084 -0.992530 0.121587
s off
g tree_03:samor_4024_217tree_03group1 group1
usemtl tree_03:samor_4024_217SG
f 9/15/25 10/16/26 11/17/27
f 11/17/28 12/18/29 13/19/30
f 14/20/31 10/16/32 15/21/33
f 16/22/34 18/23/35 17/24/36
f 19/25/37 20/26/38 21/27/39
f 22/28/40 24/29/41 23/30/42
f 25/31/43 26/32/44 27/33/45
f 28/34/46 30/35/47 29/36/48
f 31/37/49 32/38/50 33/39/51
f 34/40/52 36/41/53 35/42/54
f 37/43/55 38/44/56 39/45/57
f 66/46/58 70/47/59 67/48/60
f 67/48/61 70/47/62 68/49/63
f 39/45/64 40/50/65 41/51/66
f 42/52/67 38/44/68 43/53/69
f 44/54/70 46/55/71 45/56/72
f 47/57/73 48/58/74 49/59/75
f 50/60/76 52/61/77 51/62/78
f 53/63/79 54/64/80 55/65/81
f 56/66/82 58/67/83 57/68/84
f 59/69/85 60/70/86 61/71/87
f 62/72/88 64/73/89 63/74/90
f 65/75/91 66/46/92 67/48/93
f 14/20/94 12/18/95 10/16/96
f 10/16/97 12/18/98 11/17/99
f 67/48/100 68/49/101 69/76/102
f 70/47/103 66/46/104 71/77/105
f 72/78/106 74/79/107 73/80/108
f 75/81/109 76/82/110 77/83/111
f 78/84/112 80/85/113 79/86/114
f 81/87/115 82/88/116 83/89/117
f 84/90/118 86/91/119 85/92/120
f 87/93/121 88/94/122 89/95/123
f 90/96/124 92/97/125 91/98/126
f 93/99/127 94/100/128 95/101/129
f 42/52/130 40/50/131 38/44/132
f 38/44/133 40/50/134 39/45/135
f 95/101/136 96/102/137 97/103/138
f 98/104/139 94/100/140 99/105/141
f 100/106/142 102/107/143 101/108/144
f 103/109/145 104/110/146 105/111/147
f 106/112/148 108/113/149 107/114/150
f 109/115/151 110/116/152 111/117/153
f 112/118/154 114/119/155 113/120/156
f 115/121/157 116/122/158 117/123/159
f 118/124/160 120/125/161 119/126/162
f 94/100/163 98/104/164 95/101/165
f 95/101/166 98/104/167 96/102/168
