# This file uses centimeters as units for non-parametric coordinates.

mtllib tree_02.mtl
g default
v -2.219226 1.579827 -8.982397
v -1.874694 1.558605 -8.982397
v -2.051725 1.990117 -9.149898
v -1.874694 1.558605 -9.317400
v -2.051725 1.990117 -9.149898
v -2.219226 1.579827 -9.317400
v -1.874694 1.558605 -8.982397
v -1.874694 1.558605 -9.317400
v -2.051725 1.990117 -9.149898
v -2.219226 1.579827 -9.317400
v -2.051725 1.990117 -9.149898
v -2.219226 1.579827 -8.982397
v -2.074171 0.390693 -9.127452
v -2.074171 0.390693 -9.172133
v -2.078830 -0.001913 -9.122793
v -2.078830 -0.001913 -9.177003
v -2.074171 0.390693 -9.172133
v -2.029490 0.390693 -9.172133
v -2.078830 -0.001913 -9.177003
v -2.024620 -0.001913 -9.177003
v -2.029490 0.390693 -9.172133
v -2.029490 0.390693 -9.127452
v -2.024620 -0.001913 -9.177003
v -2.024620 -0.001913 -9.122793
v -2.029490 0.390693 -9.127452
v -2.074171 0.390693 -9.127452
v -2.024620 -0.001913 -9.122793
v -2.078830 -0.001913 -9.122793
v -2.435856 0.390693 -9.534029
v -2.392869 0.837060 -9.491042
v -1.667593 0.390693 -9.534029
v -1.710581 0.780468 -9.491042
v -1.667593 0.390693 -8.765767
v -1.710581 0.780468 -8.808754
v -2.435856 0.390693 -8.765767
v -2.392869 0.837060 -8.808754
v -2.435856 0.390693 -8.765767
v -2.392869 0.837060 -8.808754
v -2.435856 0.390693 -9.534029
v -2.392869 0.837060 -9.491042
v -1.667593 0.390693 -9.534029
v -1.710581 0.780468 -9.491042
v -1.667593 0.390693 -8.765767
v -1.710581 0.780468 -8.808754
v -2.029490 0.390693 -9.172133
v -2.074171 0.390693 -9.172133
v -2.435856 0.390693 -9.534029
v -2.435856 0.390693 -8.765767
v -2.074171 0.390693 -9.127452
v -1.667593 0.390693 -8.765767
v -2.029490 0.390693 -9.127452
v -1.667593 0.390693 -9.534029
v -1.959186 0.851208 -9.242437
v -1.959186 0.851208 -9.057359
v -1.755050 0.953073 -9.446573
v -1.755685 0.881626 -8.853223
v -2.144264 0.851208 -9.242437
v -2.144264 0.851208 -9.057359
v -2.392869 0.837060 -9.491042
v -2.392869 0.837060 -8.808754
v -1.959186 0.851208 -9.242437
v -2.144264 0.851208 -9.242437
v -1.710581 0.780468 -9.491042
v -2.392869 0.837060 -9.491042
v -1.959186 0.851208 -9.057359
v -1.959186 0.851208 -9.242437
v -1.710581 0.780468 -8.808754
v -1.710581 0.780468 -9.491042
v -2.144264 0.851208 -9.057359
v -1.959186 0.851208 -9.057359
v -2.392869 0.837060 -8.808754
v -1.710581 0.780468 -8.808754
v -1.755685 0.881626 -8.853223
v -2.347764 0.916996 -8.853223
v -1.856271 1.412174 -8.954444
v -2.247178 1.470887 -8.954444
v -2.144264 0.851208 -9.057359
v -2.144264 0.851208 -9.242437
v -2.347764 0.916996 -8.853223
v -2.348399 0.910629 -9.446573
v -1.959186 0.851208 -9.057359
v -2.144264 0.851208 -9.057359
v -1.755685 0.881626 -8.853223
v -2.347764 0.916996 -8.853223
v -2.144264 0.851208 -9.242437
v -1.959186 0.851208 -9.242437
v -2.348399 0.910629 -9.446573
v -1.755050 0.953073 -9.446573
v -2.247178 1.470887 -9.345352
v -1.856271 1.444714 -9.345352
v -2.156546 1.519698 -9.254719
v -1.946904 1.519698 -9.254719
v -2.348399 0.910629 -9.446573
v -1.755050 0.953073 -9.446573
v -2.247178 1.470887 -9.345352
v -1.856271 1.444714 -9.345352
v -1.755050 0.953073 -9.446573
v -1.755685 0.881626 -8.853223
v -1.856271 1.444714 -9.345352
v -1.856271 1.412174 -8.954444
v -2.347764 0.916996 -8.853223
v -2.348399 0.910629 -9.446573
v -2.247178 1.470887 -8.954444
v -2.247178 1.470887 -9.345352
v -1.946904 1.519698 -9.254719
v -1.946904 1.519698 -9.045077
v -1.874694 1.558605 -9.317400
v -1.874694 1.558605 -8.982397
v -1.856271 1.444714 -9.345352
v -1.856271 1.412174 -8.954444
v -1.946904 1.519698 -9.254719
v -1.946904 1.519698 -9.045077
v -2.247178 1.470887 -8.954444
v -2.247178 1.470887 -9.345352
v -2.156546 1.519698 -9.045077
v -2.156546 1.519698 -9.254719
v -1.856271 1.412174 -8.954444
v -2.247178 1.470887 -8.954444
v -1.946904 1.519698 -9.045077
v -2.156546 1.519698 -9.045077
v -2.156546 1.519698 -9.045077
v -2.156546 1.519698 -9.254719
v -2.219226 1.579827 -8.982397
v -2.219226 1.579827 -9.317400
v -1.946904 1.519698 -9.045077
v -2.156546 1.519698 -9.045077
v -1.874694 1.558605 -8.982397
v -2.219226 1.579827 -8.982397
v -2.156546 1.519698 -9.254719
v -1.946904 1.519698 -9.254719
v -2.219226 1.579827 -9.317400
v -1.874694 1.558605 -9.317400
vt 0.143520 0.116498
vt 0.146495 0.113246
vt 0.148962 0.119078
vt 0.147220 0.114153
vt 0.144318 0.117298
vt 0.148962 0.119078
vt 0.146495 0.113246
vt 0.147220 0.114153
vt 0.148962 0.119078
vt 0.144318 0.117298
vt 0.143520 0.116498
vt 0.148962 0.119078
vt 0.135248 0.111052
vt 0.137352 0.112978
vt 0.133797 0.109901
vt 0.131112 0.107507
vt 0.699909 0.140302
vt 0.696934 0.137177
vt 0.697152 0.137381
vt 0.700054 0.140453
vt 0.699546 0.140672
vt 0.696499 0.137620
vt 0.696934 0.137177
vt 0.699909 0.140302
vt 0.699691 0.140824
vt 0.696644 0.137820
vt 0.696499 0.137620
vt 0.699546 0.140672
vt 0.140980 0.104601
vt 0.135248 0.111052
vt 0.131112 0.107507
vt 0.138078 0.100886
vt 0.111521 0.115708
vt 0.112537 0.116664
vt 0.107457 0.113095
vt 0.105716 0.111476
vt 0.142722 0.106961
vt 0.140980 0.104601
vt 0.138078 0.100886
vt 0.140182 0.103777
vt 0.137352 0.112978
vt 0.142722 0.106961
vt 0.140182 0.103777
vt 0.133797 0.109901
vt 0.136119 0.105455
vt 0.135756 0.105825
vt 0.133797 0.109901
vt 0.131112 0.107507
vt 0.135611 0.105669
vt 0.138078 0.100886
vt 0.135973 0.105299
vt 0.140182 0.103777
vt 0.109779 0.108785
vt 0.112827 0.108541
vt 0.109271 0.108195
vt 0.110795 0.106001
vt 0.138876 0.110335
vt 0.137352 0.112978
vt 0.138368 0.109775
vt 0.135248 0.111052
vt 0.140545 0.108785
vt 0.142722 0.106961
vt 0.138876 0.110335
vt 0.137352 0.112978
vt 0.140037 0.108195
vt 0.140980 0.104601
vt 0.140545 0.108785
vt 0.142722 0.106961
vt 0.138368 0.109775
vt 0.135248 0.111052
vt 0.140037 0.108195
vt 0.140980 0.104601
vt 0.115729 0.113110
vt 0.114641 0.111720
vt 0.110795 0.106001
vt 0.112827 0.108541
vt 0.107675 0.109775
vt 0.105716 0.111476
vt 0.108183 0.110335
vt 0.107457 0.113095
vt 0.109271 0.108195
vt 0.110795 0.106001
vt 0.107675 0.109775
vt 0.105716 0.111476
vt 0.108183 0.110335
vt 0.107457 0.113095
vt 0.109779 0.108785
vt 0.112827 0.108541
vt 0.112537 0.116664
vt 0.113480 0.116089
vt 0.115729 0.113110
vt 0.115366 0.114280
vt 0.143520 0.116498
vt 0.144318 0.117298
vt 0.144245 0.116089
vt 0.143737 0.115567
vt 0.112537 0.116664
vt 0.115729 0.113110
vt 0.112827 0.108541
vt 0.107457 0.113095
vt 0.114641 0.111720
vt 0.111521 0.115708
vt 0.105716 0.111476
vt 0.110795 0.106001
vt 0.115366 0.114280
vt 0.114931 0.113714
vt 0.114641 0.111720
vt 0.115729 0.113110
vt 0.111521 0.115708
vt 0.113045 0.115567
vt 0.112537 0.116664
vt 0.113480 0.116089
vt 0.114641 0.111720
vt 0.114931 0.113714
vt 0.111521 0.115708
vt 0.113045 0.115567
vt 0.147220 0.114153
vt 0.146495 0.113246
vt 0.145624 0.113714
vt 0.146132 0.114280
vt 0.145624 0.113714
vt 0.146495 0.113246
vt 0.143737 0.115567
vt 0.143520 0.116498
vt 0.144245 0.116089
vt 0.144318 0.117298
vt 0.146132 0.114280
vt 0.147220 0.114153
vt 0.700054 0.140453
vt 0.697152 0.137381
vt 0.696644 0.137820
vt 0.699691 0.140824
vn 0.022783 0.369882 0.928799
vn 0.022783 0.369882 0.928799
vn 0.022783 0.369882 0.928799
vn 0.022783 0.369882 -0.928799
vn 0.022783 0.369882 -0.928799
vn 0.022783 0.369882 -0.928799
vn 0.925168 0.379557 0.000000
vn 0.925168 0.379557 0.000000
vn 0.925168 0.379557 0.000000
vn -0.925819 0.377967 0.000000
vn -0.925819 0.377967 0.000000
vn -0.925819 0.377967 0.000000
vn -0.995395 0.095861 0.000000
vn -0.995395 0.095861 0.000000
vn -0.995395 0.095861 0.000000
vn -0.995395 0.095861 0.000000
vn 0.999923 0.012405 0.000000
vn 0.999923 0.012405 0.000000
vn 0.999923 0.012405 0.000000
vn 0.999923 0.012405 0.000000
vn 0.000000 0.011865 0.999930
vn 0.000000 0.011865 0.999930
vn 0.000000 0.011865 0.999930
vn 0.000000 0.011865 0.999930
vn -0.999930 0.011865 0.000000
vn -0.999930 0.011865 0.000000
vn -0.999930 0.011865 0.000000
vn -0.999930 0.011865 0.000000
vn 0.004588 0.103243 0.994646
vn 0.004588 0.103243 0.994646
vn 0.004588 0.103243 0.994646
vn 0.004588 0.103243 0.994646
vn -0.983975 0.178308 -0.000428
vn -0.983975 0.178308 -0.000428
vn -0.983975 0.178308 -0.000428
vn -0.983975 0.178308 -0.000428
vn 0.993973 0.109622 0.000000
vn 0.993973 0.109622 0.000000
vn 0.993973 0.109622 0.000000
vn 0.993973 0.109622 0.000000
vn 0.003944 0.102367 -0.994739
vn 0.003944 0.102367 -0.994739
vn 0.003944 0.102367 -0.994739
vn 0.003944 0.102367 -0.994739
vn 0.000000 -1.000000 -0.000000
vn 0.000000 -1.000000 -0.000000
vn 0.000000 -1.000000 -0.000000
vn 0.000000 -1.000000 -0.000000
vn 0.000000 -1.000000 -0.000000
vn 0.000000 -1.000000 -0.000000
vn 0.000000 -1.000000 -0.000000
vn 0.000000 -1.000000 -0.000000
vn 0.000000 -1.000000 -0.000000
vn 0.000000 -1.000000 -0.000000
vn 0.000000 -1.000000 -0.000000
vn 0.000000 -1.000000 -0.000000
vn 0.000000 -1.000000 -0.000000
vn 0.000000 -1.000000 -0.000000
vn 0.000000 -1.000000 -0.000000
vn 0.000000 -1.000000 -0.000000
vn 0.000000 -1.000000 -0.000000
vn 0.000000 -1.000000 -0.000000
vn 0.000000 -1.000000 -0.000000
vn 0.000000 -1.000000 -0.000000
vn 0.000000 -1.000000 -0.000000
vn 0.000000 -1.000000 -0.000000
vn 0.000000 -1.000000 -0.000000
vn 0.000000 -1.000000 -0.000000
vn 0.446502 -0.894782 -0.000000
vn 0.355046 -0.933049 -0.057982
vn 0.355046 -0.933049 -0.057982
vn 0.355046 -0.933049 -0.057982
vn 0.355046 -0.933049 -0.057982
vn 0.258907 -0.959008 -0.115200
vn -0.056817 0.998385 0.000000
vn -0.056817 0.998385 0.000000
vn -0.056817 0.998385 0.000000
vn -0.056817 0.998385 0.000000
vn -0.056817 0.998385 0.000000
vn -0.056817 0.998385 0.000000
vn 0.000000 0.961820 -0.273682
vn 0.041067 0.977579 -0.206527
vn 0.041067 0.977579 -0.206527
vn 0.041067 0.977579 -0.206527
vn 0.041067 0.977579 -0.206527
vn 0.081869 0.987037 -0.138040
vn 0.273682 0.961820 0.000000
vn 0.273682 0.961820 0.000000
vn 0.273682 0.961820 0.000000
vn 0.273682 0.961820 0.000000
vn 0.273682 0.961820 0.000000
vn 0.273682 0.961820 0.000000
vn 0.000000 0.998385 0.056817
vn 0.040656 0.991028 0.127322
vn 0.040656 0.991028 0.127322
vn 0.040656 0.991028 0.127322
vn 0.040656 0.991028 0.127322
vn 0.081041 0.977053 0.196976
vn 0.980693 0.194503 0.020259
vn 0.980693 0.194503 0.020259
vn 0.980693 0.194503 0.020259
vn 0.980693 0.194503 0.020259
vn -0.307606 -0.951514 -0.000000
vn -0.298427 -0.954418 0.005290
vn -0.298427 -0.954418 0.005290
vn -0.298427 -0.954418 0.005290
vn -0.298427 -0.954418 0.005290
vn -0.289211 -0.957207 0.010580
vn 0.000000 -0.989080 0.147382
vn -0.028896 -0.979183 0.200911
vn -0.028896 -0.979183 0.200911
vn -0.028896 -0.979183 0.200911
vn -0.028896 -0.979183 0.200911
vn -0.057681 -0.965568 0.253676
vn 0.000000 -0.960149 -0.279487
vn 0.032894 -0.941056 -0.336647
vn 0.032894 -0.941056 -0.336647
vn 0.032894 -0.941056 -0.336647
vn 0.032894 -0.941056 -0.336647
vn 0.065633 -0.917527 -0.392219
vn 0.057181 0.854008 -0.517108
vn 0.028679 0.814771 -0.579074
vn 0.028679 0.814771 -0.579074
vn 0.028679 0.814771 -0.579074
vn 0.028679 0.814771 -0.579074
vn 0.000000 0.770488 -0.637454
vn -0.692263 -0.721645 -0.000000
vn -0.692263 -0.721645 -0.000000
vn -0.692263 -0.721645 -0.000000
vn -0.692263 -0.721645 -0.000000
vn -0.001229 0.187300 -0.982302
vn -0.001229 0.187300 -0.982302
vn -0.001229 0.187300 -0.982302
vn -0.001229 0.187300 -0.982302
vn 0.019780 0.185266 0.982489
vn 0.019780 0.185266 0.982489
vn 0.019780 0.185266 0.982489
vn 0.019780 0.185266 0.982489
vn 0.690631 0.722665 0.027993
vn 0.690631 0.722665 0.027993
vn 0.690631 0.722665 0.027993
vn 0.690631 0.722665 0.027993
vn -0.474161 0.880438 0.000000
vn -0.474161 0.880438 0.000000
vn -0.474161 0.880438 0.000000
vn -0.474161 0.880438 0.000000
vn -0.474161 0.880438 0.000000
vn -0.474161 0.880438 0.000000
vn 0.103741 0.690689 0.715673
vn 0.052566 0.796091 0.602889
vn 0.052566 0.796091 0.602889
vn 0.052566 0.796091 0.602889
vn 0.052566 0.796091 0.602889
vn 0.000000 0.880438 0.474161
vn 0.474333 -0.880346 -0.000000
vn 0.474333 -0.880346 -0.000000
vn 0.474333 -0.880346 -0.000000
vn 0.474333 -0.880346 -0.000000
vn 0.000000 -0.849630 0.527379
vn -0.022989 -0.799802 0.599823
vn -0.022989 -0.799802 0.599823
vn -0.022989 -0.799802 0.599823
vn -0.022989 -0.799802 0.599823
vn -0.045789 -0.743368 0.667314
vn 0.000000 -0.721645 -0.692264
vn -0.025386 -0.774220 -0.632408
vn -0.025386 -0.774220 -0.632408
vn -0.025386 -0.774220 -0.632408
vn -0.025386 -0.774220 -0.632408
vn -0.050594 -0.821382 -0.568130
vn 0.000000 0.012405 -0.999923
vn 0.000000 0.012405 -0.999923
vn 0.000000 0.012405 -0.999923
vn 0.000000 0.012405 -0.999923
s off
g tree_02 group1
usemtl samor_4024_113SG
f 1/1/1 2/2/2 3/3/3
f 4/4/4 6/5/5 5/6/6
f 7/7/7 8/8/8 9/9/9
f 10/10/10 12/11/11 11/12/12
f 38/13/13 40/14/14 39/15/15 37/16/16
f 22/17/17 24/18/18 23/19/19 21/20/20
f 26/21/21 28/22/22 27/23/23 25/24/24
f 14/25/25 16/26/26 15/27/27 13/28/28
f 34/29/29 36/30/30 35/31/31 33/32/32
f 103/33/33 104/34/34 102/35/35 101/36/36
f 42/37/37 44/38/38 43/39/39 41/40/40
f 30/41/41 32/42/42 31/43/43 29/44/44
f 45/45/45 46/46/46 47/47/47
f 47/47/48 46/46/49 48/48/50
f 46/46/51 49/49/52 48/48/53
f 48/48/54 49/49/55 50/50/56
f 49/49/57 51/51/58 50/50/59
f 50/50/60 51/51/61 52/52/62
f 51/51/63 45/45/64 52/52/65
f 52/52/66 45/45/67 47/47/68
f 53/53/69 55/54/70 54/55/71
f 54/55/72 55/54/73 56/56/74
f 57/57/75 59/58/76 58/59/77
f 58/59/78 59/58/79 60/60/80
f 61/61/81 63/62/82 62/63/83
f 62/63/84 63/62/85 64/64/86
f 65/65/87 67/66/88 66/67/89
f 66/67/90 67/66/91 68/68/92
f 69/69/93 71/70/94 70/71/95
f 70/71/96 71/70/97 72/72/98
f 99/73/99 100/74/100 98/75/101 97/76/102
f 77/77/103 79/78/104 78/79/105
f 78/79/106 79/78/107 80/80/108
f 81/81/109 83/82/110 82/83/111
f 82/83/112 83/82/113 84/84/114
f 85/85/115 87/86/116 86/87/117
f 86/87/118 87/86/119 88/88/120
f 89/89/121 91/90/122 90/91/123
f 90/91/124 91/90/125 92/92/126
f 123/93/127 124/94/128 122/95/129 121/96/130
f 95/97/131 96/98/132 94/99/133 93/100/134
f 75/101/135 76/102/136 74/103/137 73/104/138
f 111/105/139 112/106/140 110/107/141 109/108/142
f 113/109/143 115/110/144 114/111/145
f 114/111/146 115/110/147 116/112/148
f 117/113/149 119/114/150 118/115/151
f 118/115/152 119/114/153 120/116/154
f 107/117/155 108/118/156 106/119/157 105/120/158
f 125/121/159 127/122/160 126/123/161
f 126/123/162 127/122/163 128/124/164
f 129/125/165 131/126/166 130/127/167
f 130/127/168 131/126/169 132/128/170
f 18/129/171 20/130/172 19/131/173 17/132/174
