# This file uses centimeters as units for non-parametric coordinates.

mtllib tree_01.mtl
g default
v 0.353556 0.475767 -0.351967
v -0.357656 0.475767 -0.351967
v -0.002050 2.083115 0.003639
v 0.353556 0.475767 0.359244
v -0.002050 2.083115 0.003639
v 0.353556 0.475767 -0.351967
v -0.357656 0.475767 -0.351967
v -0.357656 0.475767 0.359244
v -0.002050 2.083115 0.003639
v -0.357656 0.475767 0.359244
v -0.002050 2.083115 0.003639
v 0.353556 0.475767 0.359244
v -0.029266 0.475767 0.030855
v -0.029266 0.475767 -0.023320
v -0.034915 -0.000261 0.036504
v -0.034915 -0.000261 -0.029226
v -0.029266 0.475767 -0.023320
v 0.024909 0.475767 -0.023320
v -0.034915 -0.000261 -0.029226
v 0.030814 -0.000261 -0.029226
v 0.024909 0.475767 -0.023320
v 0.024909 0.475767 0.030855
v 0.030814 -0.000261 -0.029226
v 0.030814 -0.000261 0.036504
v 0.024909 0.475767 0.030855
v -0.029266 0.475767 0.030855
v 0.030814 -0.000261 0.036504
v -0.034915 -0.000261 0.036504
v -0.029266 0.475767 -0.023320
v -0.357656 0.475767 -0.351967
v 0.024909 0.475767 -0.023320
v 0.353556 0.475767 -0.351967
v 0.024909 0.475767 0.030855
v 0.353556 0.475767 0.359244
v -0.029266 0.475767 0.030855
v -0.357656 0.475767 0.359244
v -0.029266 0.475767 0.030855
v -0.357656 0.475767 0.359244
v -0.029266 0.475767 -0.023320
v -0.357656 0.475767 -0.351967
v 0.024909 0.475767 -0.023320
v 0.353556 0.475767 -0.351967
v 0.024909 0.475767 0.030855
v 0.353556 0.475767 0.359244
vt 0.139124 0.103828
vt 0.134527 0.109715
vt 0.149803 0.120781
vt 0.135800 0.103378
vt 0.139124 0.103828
vt 0.149803 0.120781
vt 0.134527 0.109715
vt 0.130567 0.110294
vt 0.149803 0.120781
vt 0.130567 0.110294
vt 0.135800 0.103378
vt 0.149803 0.120781
vt 0.709832 0.362045
vt 0.693567 0.347923
vt 0.709691 0.362785
vt 0.694062 0.349435
vt 0.705660 0.366195
vt 0.688404 0.352845
vt 0.709832 0.362045
vt 0.693567 0.347923
vt 0.705589 0.366870
vt 0.688970 0.354292
vt 0.705660 0.366195
vt 0.688404 0.352845
vt 0.135022 0.107110
vt 0.134527 0.109715
vt 0.135447 0.106627
vt 0.139124 0.103828
vt 0.135164 0.106627
vt 0.135800 0.103378
vt 0.134739 0.107110
vt 0.130567 0.110294
vt 0.134739 0.107110
vt 0.130567 0.110294
vt 0.135022 0.107110
vt 0.134527 0.109715
vt 0.135447 0.106627
vt 0.139124 0.103828
vt 0.135164 0.106627
vt 0.135800 0.103378
vt 0.709691 0.362785
vt 0.694062 0.349435
vt 0.705589 0.366870
vt 0.688970 0.354292
vn 0.000000 0.216014 -0.976390
vn 0.000000 0.216014 -0.976390
vn 0.000000 0.216014 -0.976390
vn 0.976390 0.216014 0.000000
vn 0.976390 0.216014 0.000000
vn 0.976390 0.216014 0.000000
vn -0.976390 0.216014 0.000000
vn -0.976390 0.216014 0.000000
vn -0.976390 0.216014 0.000000
vn 0.000000 0.216014 0.976390
vn 0.000000 0.216014 0.976390
vn 0.000000 0.216014 0.976390
vn 0.999923 0.012405 0.000000
vn 0.999923 0.012405 0.000000
vn 0.999923 0.012405 0.000000
vn 0.999923 0.012405 0.000000
vn 0.999923 0.012405 0.000000
vn 0.999923 0.012405 0.000000
vn 0.000000 0.011865 0.999930
vn 0.000000 0.011865 0.999930
vn 0.000000 0.011865 0.999930
vn 0.000000 0.011865 0.999930
vn 0.000000 0.011865 0.999930
vn 0.000000 0.011865 0.999930
vn -0.999930 0.011865 0.000000
vn -0.999930 0.011865 0.000000
vn -0.999930 0.011865 0.000000
vn -0.999930 0.011865 0.000000
vn -0.999930 0.011865 0.000000
vn -0.999930 0.011865 0.000000
vn 0.000000 -1.000000 0.000000
vn 0.000000 -1.000000 0.000000
vn 0.000000 -1.000000 0.000000
vn 0.000000 -1.000000 0.000000
vn 0.000000 -1.000000 0.000000
vn 0.000000 -1.000000 0.000000
vn 0.000000 -1.000000 0.000000
vn 0.000000 -1.000000 0.000000
vn 0.000000 -1.000000 0.000000
vn 0.000000 -1.000000 0.000000
vn 0.000000 -1.000000 0.000000
vn 0.000000 -1.000000 0.000000
vn 0.000000 -1.000000 0.000000
vn 0.000000 -1.000000 0.000000
vn 0.000000 -1.000000 0.000000
vn 0.000000 -1.000000 0.000000
vn 0.000000 -1.000000 0.000000
vn 0.000000 -1.000000 0.000000
vn 0.000000 -1.000000 0.000000
vn 0.000000 -1.000000 0.000000
vn 0.000000 -1.000000 0.000000
vn 0.000000 -1.000000 0.000000
vn 0.000000 -1.000000 0.000000
vn 0.000000 -1.000000 0.000000
vn 0.000000 0.012405 -0.999923
vn 0.000000 0.012405 -0.999923
vn 0.000000 0.012405 -0.999923
vn 0.000000 0.012405 -0.999923
vn 0.000000 0.012405 -0.999923
vn 0.000000 0.012405 -0.999923
s off
g tree_00
usemtl tree_01:samor_4024_110SG
f 1/1/1 2/2/2 3/3/3
f 4/4/4 6/5/5 5/6/6
f 7/7/7 8/8/8 9/9/9
f 10/10/10 12/11/11 11/12/12
f 22/13/13 24/14/14 21/15/15
f 21/15/16 24/14/17 23/16/18
f 26/17/19 28/18/20 25/19/21
f 25/19/22 28/18/23 27/20/24
f 14/21/25 16/22/26 13/23/27
f 13/23/28 16/22/29 15/24/30
f 29/25/31 30/26/32 31/27/33
f 30/26/34 32/28/35 31/27/36
f 33/29/37 34/30/38 35/31/39
f 34/30/40 36/32/41 35/31/42
f 37/33/43 38/34/44 39/35/45
f 38/34/46 40/36/47 39/35/48
f 41/37/49 42/38/50 43/39/51
f 42/38/52 44/40/53 43/39/54
f 18/41/55 20/42/56 17/43/57
f 17/43/58 20/42/59 19/44/60
