# This file uses centimeters as units for non-parametric coordinates.

mtllib cha_cat_leftleg.mtl
g default
v -0.071244 -0.197617 0.026857
v -0.058899 -0.197617 0.051086
v -0.039672 -0.197617 0.070313
v -0.015443 -0.197617 0.082658
v 0.011414 -0.197617 0.086912
v 0.038271 -0.197617 0.082658
v 0.062499 -0.197617 0.070313
v 0.081727 -0.197617 0.051086
v 0.094072 -0.197617 0.026857
v 0.098326 -0.197617 0.000000
v 0.094072 -0.197617 -0.026857
v 0.081727 -0.197617 -0.051086
v 0.062499 -0.197617 -0.070313
v 0.038271 -0.197617 -0.082658
v 0.011414 -0.197617 -0.086912
v -0.015443 -0.197617 -0.082658
v -0.039672 -0.197617 -0.070313
v -0.058899 -0.197617 -0.051085
v -0.071244 -0.197617 -0.026857
v -0.075498 -0.197617 0.000000
v -0.078013 -0.166873 0.028501
v -0.064913 -0.166873 0.054212
v -0.044508 -0.166873 0.074617
v -0.018797 -0.166873 0.087717
v 0.009704 -0.166873 0.092231
v 0.038205 -0.166873 0.087717
v 0.063916 -0.166873 0.074617
v 0.084321 -0.166873 0.054212
v 0.097421 -0.166873 0.028501
v 0.101935 -0.166873 0.000000
v 0.097421 -0.166873 -0.028501
v 0.084321 -0.166873 -0.054212
v 0.063916 -0.166873 -0.074617
v 0.038205 -0.166873 -0.087717
v 0.009704 -0.166873 -0.092231
v -0.018797 -0.166873 -0.087717
v -0.044508 -0.166873 -0.074617
v -0.064913 -0.166873 -0.054212
v -0.078013 -0.166873 -0.028501
v -0.082527 -0.166873 0.000000
v -0.094063 -0.127721 0.032399
v -0.079171 -0.127721 0.061626
v -0.055976 -0.127721 0.084821
v -0.026749 -0.127721 0.099713
v 0.005650 -0.127721 0.104844
v 0.038049 -0.127721 0.099713
v 0.067276 -0.127721 0.084821
v 0.090471 -0.127721 0.061626
v 0.105363 -0.127721 0.032399
v 0.110495 -0.127721 0.000000
v 0.105363 -0.127721 -0.032399
v 0.090471 -0.127721 -0.061626
v 0.067276 -0.127721 -0.084821
v 0.038049 -0.127721 -0.099713
v 0.005650 -0.127721 -0.104844
v -0.026749 -0.127721 -0.099713
v -0.055976 -0.127721 -0.084821
v -0.079171 -0.127721 -0.061626
v -0.094063 -0.127721 -0.032399
v -0.099194 -0.127721 0.000000
v -0.109299 -0.080798 0.036099
v -0.092707 -0.080798 0.068664
v -0.066863 -0.080798 0.094508
v -0.034297 -0.080798 0.111101
v 0.001802 -0.080798 0.116818
v 0.037900 -0.080798 0.111101
v 0.070466 -0.080798 0.094508
v 0.096310 -0.080798 0.068664
v 0.112903 -0.080798 0.036099
v 0.118620 -0.080798 0.000000
v 0.112903 -0.080798 -0.036099
v 0.096310 -0.080798 -0.068664
v 0.070466 -0.080798 -0.094508
v 0.037900 -0.080798 -0.111101
v 0.001802 -0.080798 -0.116818
v -0.034297 -0.080798 -0.111101
v -0.066863 -0.080798 -0.094508
v -0.092707 -0.080798 -0.068664
v -0.109299 -0.080798 -0.036099
v -0.115017 -0.080798 0.000000
v -0.114296 -0.036623 0.037312
v -0.097145 -0.036623 0.070972
v -0.070433 -0.036623 0.097685
v -0.036773 -0.036623 0.114835
v 0.000540 -0.036623 0.120745
v 0.037852 -0.036623 0.114835
v 0.071512 -0.036623 0.097685
v 0.098224 -0.036623 0.070972
v 0.115375 -0.036623 0.037312
v 0.121284 -0.036623 0.000000
v 0.115375 -0.036623 -0.037312
v 0.098224 -0.036623 -0.070972
v 0.071512 -0.036623 -0.097685
v 0.037852 -0.036623 -0.114835
v 0.000540 -0.036623 -0.120745
v -0.036773 -0.036623 -0.114835
v -0.070433 -0.036623 -0.097685
v -0.097145 -0.036623 -0.070972
v -0.114296 -0.036623 -0.037312
v -0.120205 -0.036623 -0.000000
v -0.114296 0.003625 0.037312
v -0.097145 0.003625 0.070972
v -0.070433 0.003625 0.097685
v -0.036773 0.003625 0.114835
v 0.000540 0.003625 0.120745
v 0.037852 0.003625 0.114835
v 0.071512 0.003625 0.097685
v 0.098224 0.003625 0.070972
v 0.115375 0.003625 0.037312
v 0.121284 0.003625 0.000000
v 0.115375 0.003625 -0.037312
v 0.098224 0.003625 -0.070972
v 0.071512 0.003625 -0.097685
v 0.037852 0.003625 -0.114835
v 0.000540 0.003625 -0.120745
v -0.036773 0.003625 -0.114835
v -0.070433 0.003625 -0.097685
v -0.097145 0.003625 -0.070972
v -0.114296 0.003625 -0.037312
v -0.120205 0.003625 -0.000000
v -0.114296 0.043873 0.037312
v -0.097145 0.043873 0.070972
v -0.070433 0.043873 0.097685
v -0.036773 0.043873 0.114835
v 0.000540 0.043873 0.120745
v 0.037852 0.043873 0.114835
v 0.071512 0.043873 0.097685
v 0.098224 0.043873 0.070972
v 0.115375 0.043873 0.037312
v 0.121284 0.043873 0.000000
v 0.115375 0.043873 -0.037312
v 0.098224 0.043873 -0.070972
v 0.071512 0.043873 -0.097685
v 0.037852 0.043873 -0.114835
v 0.000540 0.043873 -0.120745
v -0.036773 0.043873 -0.114835
v -0.070433 0.043873 -0.097685
v -0.097145 0.043873 -0.070972
v -0.114296 0.043873 -0.037312
v -0.120205 0.043873 -0.000000
v 0.001802 -0.197617 0.000000
v 0.000540 0.043873 0.000000
vt 0.648603 0.107966
vt 0.626409 0.064408
vt 0.591842 0.029841
vt 0.548284 0.007647
vt 0.500000 -0.000000
vt 0.451716 0.007647
vt 0.408159 0.029841
vt 0.373591 0.064409
vt 0.351397 0.107966
vt 0.343750 0.156250
vt 0.351397 0.204534
vt 0.373591 0.248091
vt 0.408159 0.282659
vt 0.451716 0.304853
vt 0.500000 0.312500
vt 0.548284 0.304853
vt 0.591841 0.282659
vt 0.626409 0.248091
vt 0.648603 0.204534
vt 0.656250 0.156250
vt 0.375000 0.312500
vt 0.387500 0.312500
vt 0.400000 0.312500
vt 0.412500 0.312500
vt 0.425000 0.312500
vt 0.437500 0.312500
vt 0.450000 0.312500
vt 0.462500 0.312500
vt 0.475000 0.312500
vt 0.487500 0.312500
vt 0.500000 0.312500
vt 0.512500 0.312500
vt 0.525000 0.312500
vt 0.537500 0.312500
vt 0.550000 0.312500
vt 0.562500 0.312500
vt 0.575000 0.312500
vt 0.587500 0.312500
vt 0.600000 0.312500
vt 0.612500 0.312500
vt 0.625000 0.312500
vt 0.375000 0.375000
vt 0.387500 0.375000
vt 0.400000 0.375000
vt 0.412500 0.375000
vt 0.425000 0.375000
vt 0.437500 0.375000
vt 0.450000 0.375000
vt 0.462500 0.375000
vt 0.475000 0.375000
vt 0.487500 0.375000
vt 0.500000 0.375000
vt 0.512500 0.375000
vt 0.525000 0.375000
vt 0.537500 0.375000
vt 0.550000 0.375000
vt 0.562500 0.375000
vt 0.575000 0.375000
vt 0.587500 0.375000
vt 0.600000 0.375000
vt 0.612500 0.375000
vt 0.625000 0.375000
vt 0.375000 0.437500
vt 0.387500 0.437500
vt 0.400000 0.437500
vt 0.412500 0.437500
vt 0.425000 0.437500
vt 0.437500 0.437500
vt 0.450000 0.437500
vt 0.462500 0.437500
vt 0.475000 0.437500
vt 0.487500 0.437500
vt 0.500000 0.437500
vt 0.512500 0.437500
vt 0.525000 0.437500
vt 0.537500 0.437500
vt 0.550000 0.437500
vt 0.562500 0.437500
vt 0.575000 0.437500
vt 0.587500 0.437500
vt 0.600000 0.437500
vt 0.612500 0.437500
vt 0.625000 0.437500
vt 0.375000 0.500000
vt 0.387500 0.500000
vt 0.400000 0.500000
vt 0.412500 0.500000
vt 0.425000 0.500000
vt 0.437500 0.500000
vt 0.450000 0.500000
vt 0.462500 0.500000
vt 0.475000 0.500000
vt 0.487500 0.500000
vt 0.500000 0.500000
vt 0.512500 0.500000
vt 0.525000 0.500000
vt 0.537500 0.500000
vt 0.550000 0.500000
vt 0.562500 0.500000
vt 0.575000 0.500000
vt 0.587500 0.500000
vt 0.600000 0.500000
vt 0.612500 0.500000
vt 0.625000 0.500000
vt 0.375000 0.562500
vt 0.387500 0.562500
vt 0.400000 0.562500
vt 0.412500 0.562500
vt 0.425000 0.562500
vt 0.437500 0.562500
vt 0.450000 0.562500
vt 0.462500 0.562500
vt 0.475000 0.562500
vt 0.487500 0.562500
vt 0.500000 0.562500
vt 0.512500 0.562500
vt 0.525000 0.562500
vt 0.537500 0.562500
vt 0.550000 0.562500
vt 0.562500 0.562500
vt 0.575000 0.562500
vt 0.587500 0.562500
vt 0.600000 0.562500
vt 0.612500 0.562500
vt 0.625000 0.562500
vt 0.375000 0.625000
vt 0.387500 0.625000
vt 0.400000 0.625000
vt 0.412500 0.625000
vt 0.425000 0.625000
vt 0.437500 0.625000
vt 0.450000 0.625000
vt 0.462500 0.625000
vt 0.475000 0.625000
vt 0.487500 0.625000
vt 0.500000 0.625000
vt 0.512500 0.625000
vt 0.525000 0.625000
vt 0.537500 0.625000
vt 0.550000 0.625000
vt 0.562500 0.625000
vt 0.575000 0.625000
vt 0.587500 0.625000
vt 0.600000 0.625000
vt 0.612500 0.625000
vt 0.625000 0.625000
vt 0.375000 0.687500
vt 0.387500 0.687500
vt 0.400000 0.687500
vt 0.412500 0.687500
vt 0.425000 0.687500
vt 0.437500 0.687500
vt 0.450000 0.687500
vt 0.462500 0.687500
vt 0.475000 0.687500
vt 0.487500 0.687500
vt 0.500000 0.687500
vt 0.512500 0.687500
vt 0.525000 0.687500
vt 0.537500 0.687500
vt 0.550000 0.687500
vt 0.562500 0.687500
vt 0.575000 0.687500
vt 0.587500 0.687500
vt 0.600000 0.687500
vt 0.612500 0.687500
vt 0.625000 0.687500
vt 0.648603 0.795466
vt 0.626409 0.751908
vt 0.591842 0.717341
vt 0.548284 0.695147
vt 0.500000 0.687500
vt 0.451716 0.695147
vt 0.408159 0.717341
vt 0.373591 0.751909
vt 0.351397 0.795466
vt 0.343750 0.843750
vt 0.351397 0.892034
vt 0.373591 0.935591
vt 0.408159 0.970159
vt 0.451716 0.992353
vt 0.500000 1.000000
vt 0.548284 0.992353
vt 0.591841 0.970159
vt 0.626409 0.935591
vt 0.648603 0.892034
vt 0.656250 0.843750
vt 0.500000 0.156250
vt 0.500000 0.843750
vn -0.787385 -0.212849 0.578551
vn -0.765879 -0.311289 0.562608
vn -0.926512 -0.220303 0.305027
vn -0.899227 -0.321648 0.296535
vn -0.570556 -0.201215 0.796228
vn -0.557005 -0.295010 0.776347
vn -0.296735 -0.186489 0.936574
vn -0.291258 -0.274222 0.916500
vn 0.007512 -0.170083 0.985401
vn 0.006464 -0.250836 0.968008
vn 0.312285 -0.153602 0.937488
vn 0.307033 -0.227127 0.924199
vn 0.587417 -0.138683 0.797313
vn 0.580120 -0.205502 0.788182
vn 0.805658 -0.126823 0.578646
vn 0.797712 -0.188217 0.572913
vn 0.945482 -0.119211 0.303073
vn 0.937406 -0.177092 0.299846
vn 0.993178 -0.116613 -0.000000
vn 0.984934 -0.172932 0.000000
vn 0.945482 -0.119211 -0.303073
vn 0.937406 -0.177093 -0.299846
vn 0.805658 -0.126823 -0.578646
vn 0.797712 -0.188217 -0.572913
vn 0.587416 -0.138684 -0.797314
vn 0.580119 -0.205502 -0.788182
vn 0.312284 -0.153602 -0.937489
vn 0.307033 -0.227127 -0.924199
vn 0.007512 -0.170083 -0.985401
vn 0.006464 -0.250836 -0.968008
vn -0.296735 -0.186489 -0.936574
vn -0.291258 -0.274222 -0.916500
vn -0.570556 -0.201215 -0.796228
vn -0.557005 -0.295010 -0.776347
vn -0.787385 -0.212848 -0.578550
vn -0.765879 -0.311289 -0.562608
vn -0.926512 -0.220302 -0.305028
vn -0.899227 -0.321648 -0.296536
vn -0.974844 -0.222890 -0.000001
vn -0.945436 -0.325809 -0.000001
vn -0.759793 -0.336511 0.556304
vn -0.890794 -0.347294 0.293039
vn -0.554136 -0.319509 0.768666
vn -0.291635 -0.297666 0.909035
vn 0.003583 -0.272907 0.962034
vn 0.302833 -0.247599 0.920319
vn 0.575751 -0.224331 0.786248
vn 0.793886 -0.205605 0.572252
vn 0.934216 -0.193499 0.299664
vn 0.981906 -0.189367 0.000000
vn 0.934216 -0.193499 -0.299664
vn 0.793885 -0.205605 -0.572253
vn 0.575751 -0.224330 -0.786249
vn 0.302833 -0.247599 -0.920319
vn 0.003583 -0.272907 -0.962034
vn -0.291635 -0.297666 -0.909034
vn -0.554136 -0.319509 -0.768666
vn -0.759793 -0.336511 -0.556304
vn -0.890794 -0.347294 -0.293040
vn -0.936352 -0.351064 -0.000001
vn -0.790379 -0.211419 0.574981
vn -0.927645 -0.218631 0.302780
vn -0.575872 -0.200125 0.792667
vn -0.303971 -0.185752 0.934397
vn -0.000490 -0.169628 0.985508
vn 0.305010 -0.153307 0.939929
vn 0.582125 -0.138423 0.801230
vn 0.802862 -0.126515 0.582586
vn 0.944730 -0.118841 0.305551
vn 0.993264 -0.115871 -0.000000
vn 0.944730 -0.118841 -0.305551
vn 0.802862 -0.126515 -0.582586
vn 0.582125 -0.138423 -0.801230
vn 0.305009 -0.153307 -0.939929
vn -0.000490 -0.169628 -0.985508
vn -0.303971 -0.185752 -0.934397
vn -0.575873 -0.200125 -0.792667
vn -0.790379 -0.211419 -0.574981
vn -0.927644 -0.218632 -0.302781
vn -0.975103 -0.221752 -0.000001
vn -0.807821 -0.057997 0.586568
vn -0.949299 -0.060075 0.308582
vn -0.587396 -0.054760 0.807445
vn -0.309400 -0.050672 0.949581
vn -0.000893 -0.046128 0.998935
vn 0.307970 -0.041572 0.950487
vn 0.586880 -0.037451 0.808807
vn 0.808379 -0.034174 0.587669
vn 0.950609 -0.032069 0.308731
vn 0.999512 -0.031238 -0.000000
vn 0.950609 -0.032069 -0.308731
vn 0.808379 -0.034174 -0.587669
vn 0.586879 -0.037451 -0.808808
vn 0.307969 -0.041572 -0.950488
vn -0.000893 -0.046128 -0.998935
vn -0.309400 -0.050672 -0.949581
vn -0.587396 -0.054760 -0.807445
vn -0.807821 -0.057997 -0.586568
vn -0.949298 -0.060075 -0.308583
vn -0.998138 -0.061003 -0.000001
vn -0.951057 0.000000 0.309016
vn -0.809017 0.000000 0.587785
vn -0.587785 0.000000 0.809017
vn -0.309017 0.000000 0.951057
vn 0.000000 0.000000 1.000000
vn 0.309017 0.000000 0.951057
vn 0.587785 0.000000 0.809017
vn 0.809017 0.000000 0.587785
vn 0.951057 0.000000 0.309017
vn 1.000000 0.000000 0.000000
vn 0.951056 0.000000 -0.309017
vn 0.809017 0.000000 -0.587785
vn 0.587785 0.000000 -0.809017
vn 0.309017 0.000000 -0.951057
vn -0.000000 0.000000 -1.000000
vn -0.309017 0.000000 -0.951056
vn -0.587785 0.000000 -0.809017
vn -0.809017 0.000000 -0.587785
vn -0.951057 0.000000 -0.309017
vn -1.000000 -0.000000 -0.000001
vn -0.951057 0.000000 0.309016
vn -0.809017 0.000000 0.587785
vn -0.587785 0.000000 0.809017
vn -0.309017 0.000000 0.951057
vn -0.000000 0.000000 1.000000
vn 0.309017 0.000000 0.951057
vn 0.587785 0.000000 0.809017
vn 0.809017 0.000000 0.587785
vn 0.951057 0.000000 0.309017
vn 1.000000 0.000000 0.000000
vn 0.951057 0.000000 -0.309017
vn 0.809017 0.000000 -0.587785
vn 0.587785 0.000000 -0.809017
vn 0.309017 0.000000 -0.951057
vn 0.000000 0.000000 -1.000000
vn -0.309017 0.000000 -0.951057
vn -0.587785 0.000000 -0.809017
vn -0.809017 0.000000 -0.587785
vn -0.951057 0.000000 -0.309017
vn -1.000000 0.000000 -0.000001
vn 0.000000 -1.000000 -0.000000
vn 0.000000 -1.000000 -0.000000
vn -0.000000 -1.000000 0.000000
vn 0.000000 -1.000000 -0.000000
vn -0.000000 -1.000000 0.000000
vn -0.000000 -1.000000 0.000000
vn -0.000000 -1.000000 0.000000
vn -0.000000 -1.000000 0.000000
vn 0.000000 -1.000000 -0.000000
vn 0.000000 -1.000000 -0.000000
vn 0.000000 -1.000000 -0.000000
vn 0.000000 -1.000000 -0.000000
vn 0.000000 -1.000000 -0.000000
vn 0.000000 -1.000000 -0.000000
vn 0.000000 -1.000000 -0.000000
vn 0.000000 -1.000000 -0.000000
vn 0.000000 -1.000000 -0.000000
vn 0.000000 -1.000000 -0.000000
vn 0.000000 -1.000000 -0.000000
vn 0.000000 -1.000000 -0.000000
vn 0.000000 -1.000000 -0.000000
vn 0.000000 1.000000 0.000000
vn 0.000000 1.000000 0.000000
vn 0.000000 1.000000 0.000000
vn 0.000000 1.000000 0.000000
vn 0.000000 1.000000 0.000000
vn 0.000000 1.000000 0.000000
vn 0.000000 1.000000 0.000000
vn 0.000000 1.000000 0.000000
vn 0.000000 1.000000 0.000000
vn 0.000000 1.000000 0.000000
vn 0.000000 1.000000 0.000000
vn 0.000000 1.000000 0.000000
vn 0.000000 1.000000 0.000000
vn 0.000000 1.000000 0.000000
vn 0.000000 1.000000 0.000000
vn 0.000000 1.000000 0.000000
vn 0.000000 1.000000 0.000000
vn 0.000000 1.000000 0.000000
vn 0.000000 1.000000 0.000000
vn 0.000000 1.000000 0.000000
vn 0.000000 1.000000 0.000000
s 1
g leftleg
usemtl lambert7SG
f 2/22/1 22/43/2 1/21/3
f 1/21/3 22/43/2 21/42/4
f 3/23/5 23/44/6 2/22/1
f 2/22/1 23/44/6 22/43/2
f 4/24/7 24/45/8 3/23/5
f 3/23/5 24/45/8 23/44/6
f 5/25/9 25/46/10 4/24/7
f 4/24/7 25/46/10 24/45/8
f 6/26/11 26/47/12 5/25/9
f 5/25/9 26/47/12 25/46/10
f 7/27/13 27/48/14 6/26/11
f 6/26/11 27/48/14 26/47/12
f 8/28/15 28/49/16 7/27/13
f 7/27/13 28/49/16 27/48/14
f 9/29/17 29/50/18 8/28/15
f 8/28/15 29/50/18 28/49/16
f 10/30/19 30/51/20 9/29/17
f 9/29/17 30/51/20 29/50/18
f 10/30/19 11/31/21 30/51/20
f 30/51/20 11/31/21 31/52/22
f 11/31/21 12/32/23 31/52/22
f 31/52/22 12/32/23 32/53/24
f 12/32/23 13/33/25 32/53/24
f 32/53/24 13/33/25 33/54/26
f 13/33/25 14/34/27 33/54/26
f 33/54/26 14/34/27 34/55/28
f 14/34/27 15/35/29 34/55/28
f 34/55/28 15/35/29 35/56/30
f 15/35/29 16/36/31 35/56/30
f 35/56/30 16/36/31 36/57/32
f 16/36/31 17/37/33 36/57/32
f 36/57/32 17/37/33 37/58/34
f 17/37/33 18/38/35 37/58/34
f 37/58/34 18/38/35 38/59/36
f 18/38/35 19/39/37 38/59/36
f 38/59/36 19/39/37 39/60/38
f 19/39/37 20/40/39 39/60/38
f 39/60/38 20/40/39 40/61/40
f 1/41/3 21/62/4 20/40/39
f 20/40/39 21/62/4 40/61/40
f 22/43/2 42/64/41 21/42/4
f 21/42/4 42/64/41 41/63/42
f 23/44/6 43/65/43 22/43/2
f 22/43/2 43/65/43 42/64/41
f 24/45/8 44/66/44 23/44/6
f 23/44/6 44/66/44 43/65/43
f 25/46/10 45/67/45 24/45/8
f 24/45/8 45/67/45 44/66/44
f 26/47/12 46/68/46 25/46/10
f 25/46/10 46/68/46 45/67/45
f 27/48/14 47/69/47 26/47/12
f 26/47/12 47/69/47 46/68/46
f 28/49/16 48/70/48 27/48/14
f 27/48/14 48/70/48 47/69/47
f 29/50/18 49/71/49 28/49/16
f 28/49/16 49/71/49 48/70/48
f 30/51/20 50/72/50 29/50/18
f 29/50/18 50/72/50 49/71/49
f 30/51/20 31/52/22 50/72/50
f 50/72/50 31/52/22 51/73/51
f 31/52/22 32/53/24 51/73/51
f 51/73/51 32/53/24 52/74/52
f 32/53/24 33/54/26 52/74/52
f 52/74/52 33/54/26 53/75/53
f 33/54/26 34/55/28 53/75/53
f 53/75/53 34/55/28 54/76/54
f 34/55/28 35/56/30 54/76/54
f 54/76/54 35/56/30 55/77/55
f 35/56/30 36/57/32 55/77/55
f 55/77/55 36/57/32 56/78/56
f 36/57/32 37/58/34 56/78/56
f 56/78/56 37/58/34 57/79/57
f 37/58/34 38/59/36 57/79/57
f 57/79/57 38/59/36 58/80/58
f 38/59/36 39/60/38 58/80/58
f 58/80/58 39/60/38 59/81/59
f 39/60/38 40/61/40 59/81/59
f 59/81/59 40/61/40 60/82/60
f 21/62/4 41/83/42 40/61/40
f 40/61/40 41/83/42 60/82/60
f 42/64/41 62/85/61 41/63/42
f 41/63/42 62/85/61 61/84/62
f 43/65/43 63/86/63 42/64/41
f 42/64/41 63/86/63 62/85/61
f 44/66/44 64/87/64 43/65/43
f 43/65/43 64/87/64 63/86/63
f 45/67/45 65/88/65 44/66/44
f 44/66/44 65/88/65 64/87/64
f 46/68/46 66/89/66 45/67/45
f 45/67/45 66/89/66 65/88/65
f 47/69/47 67/90/67 46/68/46
f 46/68/46 67/90/67 66/89/66
f 48/70/48 68/91/68 47/69/47
f 47/69/47 68/91/68 67/90/67
f 49/71/49 69/92/69 48/70/48
f 48/70/48 69/92/69 68/91/68
f 50/72/50 70/93/70 49/71/49
f 49/71/49 70/93/70 69/92/69
f 50/72/50 51/73/51 70/93/70
f 70/93/70 51/73/51 71/94/71
f 51/73/51 52/74/52 71/94/71
f 71/94/71 52/74/52 72/95/72
f 52/74/52 53/75/53 72/95/72
f 72/95/72 53/75/53 73/96/73
f 53/75/53 54/76/54 73/96/73
f 73/96/73 54/76/54 74/97/74
f 54/76/54 55/77/55 74/97/74
f 74/97/74 55/77/55 75/98/75
f 55/77/55 56/78/56 75/98/75
f 75/98/75 56/78/56 76/99/76
f 56/78/56 57/79/57 76/99/76
f 76/99/76 57/79/57 77/100/77
f 57/79/57 58/80/58 77/100/77
f 77/100/77 58/80/58 78/101/78
f 58/80/58 59/81/59 78/101/78
f 78/101/78 59/81/59 79/102/79
f 59/81/59 60/82/60 79/102/79
f 79/102/79 60/82/60 80/103/80
f 41/83/42 61/104/62 60/82/60
f 60/82/60 61/104/62 80/103/80
f 62/85/61 82/106/81 61/84/62
f 61/84/62 82/106/81 81/105/82
f 63/86/63 83/107/83 62/85/61
f 62/85/61 83/107/83 82/106/81
f 64/87/64 84/108/84 63/86/63
f 63/86/63 84/108/84 83/107/83
f 65/88/65 85/109/85 64/87/64
f 64/87/64 85/109/85 84/108/84
f 66/89/66 86/110/86 65/88/65
f 65/88/65 86/110/86 85/109/85
f 67/90/67 87/111/87 66/89/66
f 66/89/66 87/111/87 86/110/86
f 68/91/68 88/112/88 67/90/67
f 67/90/67 88/112/88 87/111/87
f 69/92/69 89/113/89 68/91/68
f 68/91/68 89/113/89 88/112/88
f 70/93/70 90/114/90 69/92/69
f 69/92/69 90/114/90 89/113/89
f 70/93/70 71/94/71 90/114/90
f 90/114/90 71/94/71 91/115/91
f 71/94/71 72/95/72 91/115/91
f 91/115/91 72/95/72 92/116/92
f 72/95/72 73/96/73 92/116/92
f 92/116/92 73/96/73 93/117/93
f 73/96/73 74/97/74 93/117/93
f 93/117/93 74/97/74 94/118/94
f 74/97/74 75/98/75 94/118/94
f 94/118/94 75/98/75 95/119/95
f 75/98/75 76/99/76 95/119/95
f 95/119/95 76/99/76 96/120/96
f 76/99/76 77/100/77 96/120/96
f 96/120/96 77/100/77 97/121/97
f 77/100/77 78/101/78 97/121/97
f 97/121/97 78/101/78 98/122/98
f 78/101/78 79/102/79 98/122/98
f 98/122/98 79/102/79 99/123/99
f 79/102/79 80/103/80 99/123/99
f 99/123/99 80/103/80 100/124/100
f 61/104/62 81/125/82 80/103/80
f 80/103/80 81/125/82 100/124/100
f 81/105/82 82/106/81 101/126/101
f 101/126/101 82/106/81 102/127/102
f 82/106/81 83/107/83 102/127/102
f 102/127/102 83/107/83 103/128/103
f 83/107/83 84/108/84 103/128/103
f 103/128/103 84/108/84 104/129/104
f 84/108/84 85/109/85 104/129/104
f 104/129/104 85/109/85 105/130/105
f 85/109/85 86/110/86 105/130/105
f 105/130/105 86/110/86 106/131/106
f 86/110/86 87/111/87 106/131/106
f 106/131/106 87/111/87 107/132/107
f 87/111/87 88/112/88 107/132/107
f 107/132/107 88/112/88 108/133/108
f 88/112/88 89/113/89 108/133/108
f 108/133/108 89/113/89 109/134/109
f 89/113/89 90/114/90 109/134/109
f 109/134/109 90/114/90 110/135/110
f 90/114/90 91/115/91 110/135/110
f 110/135/110 91/115/91 111/136/111
f 91/115/91 92/116/92 111/136/111
f 111/136/111 92/116/92 112/137/112
f 92/116/92 93/117/93 112/137/112
f 112/137/112 93/117/93 113/138/113
f 93/117/93 94/118/94 113/138/113
f 113/138/113 94/118/94 114/139/114
f 94/118/94 95/119/95 114/139/114
f 114/139/114 95/119/95 115/140/115
f 95/119/95 96/120/96 115/140/115
f 115/140/115 96/120/96 116/141/116
f 96/120/96 97/121/97 116/141/116
f 116/141/116 97/121/97 117/142/117
f 97/121/97 98/122/98 117/142/117
f 117/142/117 98/122/98 118/143/118
f 98/122/98 99/123/99 118/143/118
f 118/143/118 99/123/99 119/144/119
f 99/123/99 100/124/100 119/144/119
f 119/144/119 100/124/100 120/145/120
f 100/124/100 81/125/82 120/145/120
f 120/145/120 81/125/82 101/146/101
f 101/126/101 102/127/102 121/147/121
f 121/147/121 102/127/102 122/148/122
f 102/127/102 103/128/103 122/148/122
f 122/148/122 103/128/103 123/149/123
f 103/128/103 104/129/104 123/149/123
f 123/149/123 104/129/104 124/150/124
f 104/129/104 105/130/105 124/150/124
f 124/150/124 105/130/105 125/151/125
f 105/130/105 106/131/106 125/151/125
f 125/151/125 106/131/106 126/152/126
f 106/131/106 107/132/107 126/152/126
f 126/152/126 107/132/107 127/153/127
f 107/132/107 108/133/108 127/153/127
f 127/153/127 108/133/108 128/154/128
f 108/133/108 109/134/109 128/154/128
f 128/154/128 109/134/109 129/155/129
f 109/134/109 110/135/110 129/155/129
f 129/155/129 110/135/110 130/156/130
f 110/135/110 111/136/111 130/156/130
f 130/156/130 111/136/111 131/157/131
f 111/136/111 112/137/112 131/157/131
f 131/157/131 112/137/112 132/158/132
f 112/137/112 113/138/113 132/158/132
f 132/158/132 113/138/113 133/159/133
f 113/138/113 114/139/114 133/159/133
f 133/159/133 114/139/114 134/160/134
f 114/139/114 115/140/115 134/160/134
f 134/160/134 115/140/115 135/161/135
f 115/140/115 116/141/116 135/161/135
f 135/161/135 116/141/116 136/162/136
f 116/141/116 117/142/117 136/162/136
f 136/162/136 117/142/117 137/163/137
f 117/142/117 118/143/118 137/163/137
f 137/163/137 118/143/118 138/164/138
f 118/143/118 119/144/119 138/164/138
f 138/164/138 119/144/119 139/165/139
f 119/144/119 120/145/120 139/165/139
f 139/165/139 120/145/120 140/166/140
f 120/145/120 101/146/101 140/166/140
f 140/166/140 101/146/101 121/167/121
s 10
f 2/2/141 1/1/142 141/188/143
f 3/3/144 2/2/141 141/188/143
f 4/4/145 3/3/144 141/188/143
f 5/5/146 4/4/145 141/188/143
f 6/6/147 5/5/146 141/188/143
f 7/7/148 6/6/147 141/188/143
f 8/8/149 7/7/148 141/188/143
f 9/9/150 8/8/149 141/188/143
f 10/10/151 9/9/150 141/188/143
f 11/11/152 10/10/151 141/188/143
f 12/12/153 11/11/152 141/188/143
f 13/13/154 12/12/153 141/188/143
f 14/14/155 13/13/154 141/188/143
f 15/15/156 14/14/155 141/188/143
f 16/16/157 15/15/156 141/188/143
f 17/17/158 16/16/157 141/188/143
f 18/18/159 17/17/158 141/188/143
f 19/19/160 18/18/159 141/188/143
f 20/20/161 19/19/160 141/188/143
f 1/1/142 20/20/161 141/188/143
s 11
f 121/186/162 122/185/163 142/189/164
f 122/185/163 123/184/165 142/189/164
f 123/184/165 124/183/166 142/189/164
f 124/183/166 125/182/167 142/189/164
f 125/182/167 126/181/168 142/189/164
f 126/181/168 127/180/169 142/189/164
f 127/180/169 128/179/170 142/189/164
f 128/179/170 129/178/171 142/189/164
f 129/178/171 130/177/172 142/189/164
f 130/177/172 131/176/173 142/189/164
f 131/176/173 132/175/174 142/189/164
f 132/175/174 133/174/175 142/189/164
f 133/174/175 134/173/176 142/189/164
f 134/173/176 135/172/177 142/189/164
f 135/172/177 136/171/178 142/189/164
f 136/171/178 137/170/179 142/189/164
f 137/170/179 138/169/180 142/189/164
f 138/169/180 139/168/181 142/189/164
f 139/168/181 140/187/182 142/189/164
f 140/187/182 121/186/162 142/189/164
