# This file uses centimeters as units for non-parametric coordinates.

mtllib cha_cat_tail.mtl
g default
v 0.007766 -0.030079 0.059627
v 0.006155 -0.032629 0.058326
v 0.003713 -0.034539 0.057351
v 0.000768 -0.035550 0.056839
v -0.002279 -0.035176 0.057026
v -0.005019 -0.033680 0.057789
v -0.007081 -0.031422 0.058941
v -0.008187 -0.028653 0.060356
v -0.008187 -0.025759 0.061834
v -0.007081 -0.023086 0.063200
v -0.005019 -0.020978 0.064278
v -0.002279 -0.019725 0.064918
v 0.000768 -0.019474 0.065047
v 0.003713 -0.020258 0.064646
v 0.006155 -0.021936 0.063788
v 0.007766 -0.024389 0.062534
v 0.008329 -0.027196 0.061100
v 0.015533 -0.032223 0.058547
v 0.012310 -0.037044 0.056096
v 0.007425 -0.040525 0.054330
v 0.001537 -0.042126 0.053517
v -0.004559 -0.041575 0.053797
v -0.010039 -0.038989 0.055108
v -0.014163 -0.034751 0.057262
v -0.016374 -0.029470 0.059947
v -0.016374 -0.023845 0.062807
v -0.014163 -0.018640 0.065453
v -0.010039 -0.014560 0.067527
v -0.004559 -0.012050 0.068804
v 0.001537 -0.011528 0.069068
v 0.007425 -0.013040 0.068300
v 0.012310 -0.016406 0.066589
v 0.015533 -0.021143 0.064180
v 0.016658 -0.026652 0.061380
v 0.023299 -0.034384 0.057464
v 0.018465 -0.041524 0.053847
v 0.011138 -0.046606 0.051272
v 0.002305 -0.048873 0.050124
v -0.006838 -0.048092 0.050520
v -0.015058 -0.044361 0.052409
v -0.021244 -0.038144 0.055559
v -0.024561 -0.030377 0.059494
v -0.024561 -0.022079 0.063698
v -0.021244 -0.014384 0.067597
v -0.015058 -0.008269 0.070694
v -0.006838 -0.004561 0.072573
v 0.002305 -0.003805 0.072956
v 0.011138 -0.006104 0.071791
v 0.018465 -0.011101 0.069260
v 0.023299 -0.018123 0.065702
v 0.024987 -0.026223 0.061598
v 0.031066 -0.036799 0.056256
v 0.024621 -0.046208 0.051502
v 0.014850 -0.052809 0.048167
v 0.003074 -0.055800 0.046656
v -0.009117 -0.054791 0.047166
v -0.020077 -0.049905 0.049634
v -0.028326 -0.041772 0.053743
v -0.032748 -0.031464 0.058951
v -0.032748 -0.020510 0.064485
v -0.028326 -0.010288 0.069649
v -0.020077 -0.002165 0.073753
v -0.009117 0.002735 0.076229
v 0.003074 0.003743 0.076738
v 0.014850 0.000724 0.075213
v 0.024621 -0.005909 0.071861
v 0.031066 -0.015232 0.067151
v 0.033316 -0.026000 0.061712
v 0.038832 -0.039370 0.054957
v 0.030776 -0.050984 0.049089
v 0.018563 -0.059216 0.044930
v 0.003842 -0.062954 0.043042
v -0.011397 -0.061694 0.043678
v -0.025096 -0.055605 0.046755
v -0.035407 -0.045510 0.051855
v -0.040936 -0.032772 0.058290
v -0.040936 -0.019112 0.065191
v -0.035407 -0.006375 0.071626
v -0.025097 0.003720 0.076726
v -0.011397 0.009809 0.079803
v 0.003842 0.011069 0.080439
v 0.018563 0.007331 0.078551
v 0.030776 -0.000901 0.074392
v 0.038832 -0.012515 0.068524
v 0.041645 -0.025942 0.061740
v 0.038832 -0.024623 0.031256
v 0.030776 -0.036218 0.025351
v 0.018563 -0.044437 0.021165
v 0.003842 -0.048169 0.019265
v -0.011397 -0.046911 0.019905
v -0.025096 -0.040832 0.023001
v -0.035407 -0.030753 0.028134
v -0.040936 -0.018037 0.034610
v -0.040936 -0.004399 0.041556
v -0.035407 0.008317 0.048032
v -0.025097 0.018396 0.053165
v -0.011397 0.024475 0.056261
v 0.003842 0.025733 0.056902
v 0.018563 0.022001 0.055001
v 0.030776 0.013782 0.050816
v 0.038832 0.002187 0.044910
v 0.041645 -0.011218 0.038083
v 0.038832 -0.015314 0.004663
v 0.030776 -0.026852 -0.001352
v 0.018563 -0.035031 -0.005616
v 0.003842 -0.038744 -0.007552
v -0.011397 -0.037492 -0.006899
v -0.025096 -0.031443 -0.003746
v -0.035407 -0.021414 0.001483
v -0.040936 -0.008760 0.008080
v -0.040936 0.004811 0.015154
v -0.035407 0.017466 0.021751
v -0.025097 0.027495 0.026980
v -0.011397 0.033544 0.030133
v 0.003842 0.034796 0.030786
v 0.018563 0.031082 0.028850
v 0.030776 0.022904 0.024586
v 0.038832 0.011366 0.018571
v 0.041645 -0.001974 0.011617
v 0.035627 -0.010641 -0.024683
v 0.026814 -0.022074 -0.030881
v 0.014186 -0.030146 -0.035274
v -0.000686 -0.033829 -0.037269
v -0.015925 -0.032587 -0.036597
v -0.029281 -0.026589 -0.033346
v -0.038973 -0.016646 -0.027957
v -0.043632 -0.004122 -0.021160
v -0.042789 0.009390 -0.013842
v -0.036592 0.021870 -0.007088
v -0.025823 0.031821 -0.001697
v -0.011867 0.037843 0.001576
v 0.003372 0.039085 0.002248
v 0.017970 0.035403 0.000253
v 0.029889 0.027278 -0.004158
v 0.037347 0.015890 -0.010324
v 0.039336 0.002660 -0.017485
v 0.021923 -0.008658 -0.056173
v 0.012690 -0.020069 -0.062722
v 0.000020 -0.028106 -0.067388
v -0.014700 -0.031596 -0.069471
v -0.029939 -0.030249 -0.068774
v -0.043639 -0.024286 -0.065351
v -0.053062 -0.014291 -0.059594
v -0.057063 -0.001890 -0.052420
v -0.055102 0.011357 -0.044824
v -0.047957 0.023562 -0.037859
v -0.036334 0.033197 -0.032383
v -0.021715 0.038987 -0.029079
v -0.006476 0.040321 -0.028293
v 0.007804 0.036903 -0.030243
v 0.019073 0.028979 -0.034781
v 0.025415 0.017664 -0.041220
v 0.026394 0.004532 -0.048676
v -0.001196 -0.007271 -0.089708
v -0.009884 -0.018220 -0.096579
v -0.021458 -0.025975 -0.101601
v -0.034734 -0.029108 -0.103825
v -0.050591 -0.027535 -0.103091
v -0.065363 -0.021364 -0.099342
v -0.075470 -0.011469 -0.093179
v -0.080013 0.000566 -0.085538
v -0.078017 0.013427 -0.077457
v -0.070348 0.025095 -0.070206
v -0.058701 0.034040 -0.064720
v -0.044012 0.039080 -0.061663
v -0.028912 0.040021 -0.061100
v -0.014595 0.037291 -0.062764
v -0.003677 0.029868 -0.067249
v 0.002435 0.018799 -0.073901
v 0.003425 0.005728 -0.081760
v -0.031199 -0.002637 -0.124888
v -0.038694 -0.012718 -0.132084
v -0.049358 -0.019490 -0.137284
v -0.062019 -0.022106 -0.139630
v -0.077622 -0.020261 -0.138841
v -0.092515 -0.013976 -0.134831
v -0.103386 -0.004540 -0.128360
v -0.108564 0.006985 -0.120191
v -0.107457 0.018853 -0.111763
v -0.100827 0.029693 -0.104146
v -0.089694 0.037809 -0.098507
v -0.075706 0.042013 -0.095575
v -0.060888 0.042281 -0.095294
v -0.046575 0.039367 -0.097127
v -0.035948 0.032210 -0.101751
v -0.029120 0.021678 -0.108590
v -0.027829 0.009422 -0.116682
v -0.061890 0.007799 -0.157424
v -0.069187 -0.001140 -0.164745
v -0.080177 -0.006898 -0.169955
v -0.093843 -0.008759 -0.172293
v -0.108129 -0.006586 -0.171411
v -0.121356 -0.000496 -0.167239
v -0.131487 0.008339 -0.160538
v -0.136670 0.018910 -0.152186
v -0.136414 0.029865 -0.143457
v -0.131022 0.039623 -0.135670
v -0.120625 0.046849 -0.129882
v -0.107782 0.050543 -0.126812
v -0.093496 0.050494 -0.126542
v -0.079696 0.046918 -0.128866
v -0.068593 0.039844 -0.133779
v -0.061587 0.029870 -0.140860
v -0.059254 0.018647 -0.149112
v -0.088059 0.023465 -0.184442
v -0.095368 0.015483 -0.191728
v -0.106448 0.010538 -0.196843
v -0.119802 0.009168 -0.199086
v -0.133627 0.011492 -0.198091
v -0.146056 0.017261 -0.193844
v -0.155409 0.025485 -0.187063
v -0.160425 0.035272 -0.178671
v -0.160425 0.045388 -0.169853
v -0.155409 0.054356 -0.161961
v -0.146056 0.060927 -0.156086
v -0.133627 0.064190 -0.152956
v -0.119802 0.063868 -0.152746
v -0.106448 0.060062 -0.155343
v -0.095368 0.053053 -0.160556
v -0.088059 0.043743 -0.167762
v -0.085507 0.033333 -0.176093
v -0.107343 0.042789 -0.206086
v -0.114557 0.035319 -0.213365
v -0.125519 0.030737 -0.218432
v -0.138699 0.029544 -0.220594
v -0.152342 0.031859 -0.219491
v -0.164608 0.037299 -0.215189
v -0.173812 0.045193 -0.208318
v -0.178761 0.054561 -0.199835
v -0.178761 0.064199 -0.190923
v -0.173812 0.072731 -0.182920
v -0.164580 0.078966 -0.176941
v -0.152315 0.082040 -0.173740
v -0.138671 0.081607 -0.173583
v -0.125492 0.077770 -0.176361
v -0.114557 0.070914 -0.181786
v -0.107343 0.061955 -0.189199
v -0.104826 0.052112 -0.197658
v -0.119222 0.065574 -0.223887
v -0.126531 0.058207 -0.231307
v -0.137611 0.053620 -0.236455
v -0.150965 0.052394 -0.238580
v -0.164790 0.054526 -0.237421
v -0.177219 0.059826 -0.232995
v -0.186572 0.067619 -0.225930
v -0.191588 0.076909 -0.217201
v -0.191588 0.086471 -0.208038
v -0.186522 0.094973 -0.199774
v -0.177168 0.101239 -0.193557
v -0.164740 0.104392 -0.190197
v -0.150915 0.103991 -0.190064
v -0.137561 0.100134 -0.193053
v -0.126481 0.093282 -0.198783
v -0.119222 0.084447 -0.206477
v -0.116671 0.074790 -0.215215
v -0.122865 0.093065 -0.238672
v -0.130418 0.085406 -0.246431
v -0.141868 0.080523 -0.251803
v -0.155667 0.079006 -0.254034
v -0.169954 0.080970 -0.252789
v -0.182797 0.086223 -0.248173
v -0.192463 0.094100 -0.240794
v -0.197645 0.103577 -0.231667
v -0.197645 0.113394 -0.222072
v -0.192463 0.122216 -0.213362
v -0.182797 0.128812 -0.206754
v -0.169954 0.132308 -0.203104
v -0.155667 0.132075 -0.202929
v -0.141868 0.128246 -0.206119
v -0.130418 0.121330 -0.212214
v -0.122865 0.112288 -0.220402
v -0.120229 0.102448 -0.229598
v -0.119984 0.126250 -0.250183
v -0.126575 0.118985 -0.257506
v -0.136692 0.114163 -0.262592
v -0.149393 0.112427 -0.264724
v -0.162543 0.113983 -0.263588
v -0.174529 0.118647 -0.259299
v -0.183884 0.125830 -0.252417
v -0.188913 0.134489 -0.243928
v -0.188913 0.143678 -0.234897
v -0.183884 0.151933 -0.226696
v -0.174987 0.158186 -0.220426
v -0.163326 0.161612 -0.216906
v -0.150177 0.161720 -0.216589
v -0.137314 0.158458 -0.219496
v -0.126775 0.152288 -0.225197
v -0.119984 0.144113 -0.232893
v -0.117655 0.135065 -0.241576
v -0.118772 0.137774 -0.252809
v -0.124436 0.131066 -0.259544
v -0.133186 0.126561 -0.264228
v -0.144243 0.124865 -0.266205
v -0.156218 0.126206 -0.265180
v -0.167939 0.130444 -0.261253
v -0.176810 0.136977 -0.254965
v -0.181693 0.144946 -0.247167
v -0.181925 0.153281 -0.238936
v -0.177580 0.160856 -0.231409
v -0.169008 0.166592 -0.225653
v -0.158336 0.169783 -0.222387
v -0.146361 0.169963 -0.222048
v -0.134700 0.167047 -0.224687
v -0.125197 0.161490 -0.229888
v -0.119242 0.154083 -0.236937
v -0.117032 0.145846 -0.244902
v -0.113749 0.162633 -0.257519
v -0.117280 0.157373 -0.262764
v -0.122308 0.153763 -0.266426
v -0.128185 0.152244 -0.268028
v -0.138790 0.153194 -0.267249
v -0.149680 0.156398 -0.264232
v -0.157601 0.161364 -0.259412
v -0.161993 0.167450 -0.253432
v -0.162381 0.173842 -0.247105
v -0.159016 0.179661 -0.241311
v -0.152851 0.184176 -0.236798
v -0.144331 0.186698 -0.234231
v -0.135260 0.186975 -0.233877
v -0.126418 0.184901 -0.235822
v -0.119503 0.180753 -0.239796
v -0.114626 0.175169 -0.245213
v -0.112945 0.168913 -0.251352
v -0.113981 0.176648 -0.258371
v -0.116134 0.173042 -0.261946
v -0.119753 0.170588 -0.264420
v -0.124605 0.169564 -0.265491
v -0.131083 0.170141 -0.264991
v -0.137943 0.172235 -0.262986
v -0.143345 0.175541 -0.259761
v -0.146375 0.179606 -0.255755
v -0.146619 0.183885 -0.251514
v -0.144643 0.187809 -0.247608
v -0.140520 0.190869 -0.244551
v -0.134670 0.192592 -0.242799
v -0.128712 0.192892 -0.242478
v -0.122826 0.191459 -0.243819
v -0.117941 0.188732 -0.246464
v -0.114954 0.185013 -0.250103
v -0.113595 0.180808 -0.254250
v -0.115033 0.189028 -0.258697
v -0.116391 0.187174 -0.260524
v -0.118602 0.186019 -0.261714
v -0.121369 0.185500 -0.262252
v -0.124324 0.185766 -0.262011
v -0.127565 0.186737 -0.261052
v -0.129881 0.188347 -0.259463
v -0.131301 0.190378 -0.257458
v -0.131508 0.192557 -0.255308
v -0.130402 0.194588 -0.253303
v -0.128340 0.196134 -0.251759
v -0.125394 0.197031 -0.250854
v -0.122552 0.197079 -0.250765
v -0.119688 0.196482 -0.251353
v -0.117166 0.195087 -0.252704
v -0.115554 0.193233 -0.254530
v -0.114712 0.191089 -0.256641
v 0.000000 -0.027544 0.060918
v -0.119481 0.196688 -0.257394
vt 0.515818 0.085221
vt 0.512669 0.078317
vt 0.507894 0.073423
vt 0.502139 0.071200
vt 0.496182 0.071949
vt 0.490826 0.075569
vt 0.486795 0.081571
vt 0.484634 0.089143
vt 0.484634 0.097265
vt 0.486795 0.104837
vt 0.490826 0.110839
vt 0.496182 0.114459
vt 0.502139 0.115208
vt 0.507894 0.112986
vt 0.512669 0.108091
vt 0.515818 0.101187
vt 0.516918 0.093204
vt 0.531000 0.077238
vt 0.524700 0.063429
vt 0.515151 0.053641
vt 0.503642 0.049196
vt 0.491726 0.050695
vt 0.481015 0.057935
vt 0.472953 0.069938
vt 0.468630 0.085083
vt 0.468630 0.101325
vt 0.472953 0.116470
vt 0.481015 0.128474
vt 0.491726 0.135713
vt 0.503642 0.137212
vt 0.515151 0.132767
vt 0.524700 0.122979
vt 0.531000 0.109170
vt 0.533198 0.093204
vt 0.546181 0.069256
vt 0.536732 0.048542
vt 0.522408 0.033860
vt 0.505144 0.027192
vt 0.487271 0.029440
vt 0.471203 0.040300
vt 0.459111 0.058304
vt 0.452627 0.081022
vt 0.452627 0.105386
vt 0.459111 0.128104
vt 0.471203 0.146108
vt 0.487271 0.156968
vt 0.505144 0.159216
vt 0.522408 0.152549
vt 0.536732 0.137866
vt 0.546181 0.117152
vt 0.549479 0.093204
vt 0.561362 0.061273
vt 0.548763 0.033654
vt 0.529665 0.014078
vt 0.506646 0.005188
vt 0.482816 0.008186
vt 0.461392 0.022665
vt 0.445269 0.046671
vt 0.436624 0.076962
vt 0.436624 0.109446
vt 0.445269 0.139737
vt 0.461392 0.163743
vt 0.482816 0.178222
vt 0.506646 0.181220
vt 0.529665 0.172330
vt 0.548763 0.152754
vt 0.561362 0.125135
vt 0.565759 0.093204
vt 0.576543 0.053290
vt 0.560795 0.018767
vt 0.536922 -0.005703
vt 0.508148 -0.016816
vt 0.478360 -0.013069
vt 0.451581 0.005030
vt 0.431427 0.035038
vt 0.420620 0.072901
vt 0.420620 0.113507
vt 0.431427 0.151370
vt 0.451581 0.181378
vt 0.478360 0.193467
vt 0.516319 0.197460
vt 0.536922 0.187440
vt 0.560795 0.167641
vt 0.576543 0.133118
vt 0.582040 0.093204
vt 0.356635 0.198655
vt 0.373479 0.198655
vt 0.390323 0.198655
vt 0.407166 0.198655
vt 0.424010 0.198655
vt 0.440854 0.198655
vt 0.457697 0.198655
vt 0.474541 0.198655
vt 0.491385 0.198655
vt 0.508229 0.198655
vt 0.525072 0.198655
vt 0.541916 0.198655
vt 0.558760 0.198655
vt 0.575603 0.198655
vt 0.592447 0.198655
vt 0.609291 0.198655
vt 0.626135 0.198655
vt 0.642978 0.198655
vt 0.356635 0.254707
vt 0.373479 0.254707
vt 0.390323 0.254707
vt 0.407166 0.254707
vt 0.424010 0.254707
vt 0.440854 0.254707
vt 0.457697 0.254707
vt 0.474541 0.254707
vt 0.491385 0.254707
vt 0.508229 0.254707
vt 0.525072 0.254707
vt 0.541916 0.254707
vt 0.558760 0.254707
vt 0.575603 0.254707
vt 0.592447 0.254707
vt 0.609291 0.254707
vt 0.626135 0.254707
vt 0.642978 0.254707
vt 0.356635 0.310758
vt 0.373479 0.310758
vt 0.390323 0.310758
vt 0.407166 0.310758
vt 0.424010 0.310758
vt 0.440854 0.310758
vt 0.457697 0.310758
vt 0.474541 0.310758
vt 0.491385 0.310758
vt 0.508229 0.310758
vt 0.525072 0.310758
vt 0.541916 0.310758
vt 0.558760 0.310758
vt 0.575603 0.310758
vt 0.592447 0.310758
vt 0.609291 0.310758
vt 0.626135 0.310758
vt 0.642978 0.310758
vt 0.356635 0.366809
vt 0.373479 0.366809
vt 0.390323 0.366809
vt 0.407166 0.366809
vt 0.424010 0.366809
vt 0.440854 0.366809
vt 0.457697 0.366809
vt 0.474541 0.366809
vt 0.491385 0.366809
vt 0.508229 0.366809
vt 0.525072 0.366809
vt 0.541916 0.366809
vt 0.558760 0.366809
vt 0.575603 0.366809
vt 0.592447 0.366809
vt 0.609291 0.366809
vt 0.626135 0.366809
vt 0.642978 0.366809
vt 0.356635 0.422860
vt 0.373479 0.422860
vt 0.390323 0.422860
vt 0.407166 0.422860
vt 0.424010 0.422860
vt 0.440854 0.422860
vt 0.457697 0.422860
vt 0.474541 0.422860
vt 0.491385 0.422860
vt 0.508229 0.422860
vt 0.525072 0.422860
vt 0.541916 0.422860
vt 0.558760 0.422860
vt 0.575603 0.422860
vt 0.592447 0.422860
vt 0.609291 0.422860
vt 0.626135 0.422860
vt 0.642978 0.422860
vt 0.356635 0.478912
vt 0.373479 0.478912
vt 0.390323 0.478912
vt 0.407166 0.478912
vt 0.424010 0.478912
vt 0.440854 0.478912
vt 0.457697 0.478912
vt 0.474541 0.478912
vt 0.491385 0.478912
vt 0.508229 0.478912
vt 0.525072 0.478912
vt 0.541916 0.478912
vt 0.558760 0.478912
vt 0.575603 0.478912
vt 0.592447 0.478912
vt 0.609291 0.478912
vt 0.626135 0.478912
vt 0.642978 0.478912
vt 0.356635 0.534963
vt 0.373479 0.534963
vt 0.390323 0.534963
vt 0.407166 0.534963
vt 0.424010 0.534963
vt 0.440854 0.534963
vt 0.457697 0.534963
vt 0.474541 0.534963
vt 0.491385 0.534963
vt 0.508229 0.534963
vt 0.525072 0.534963
vt 0.541916 0.534963
vt 0.558760 0.534963
vt 0.575603 0.534963
vt 0.592447 0.534963
vt 0.609291 0.534963
vt 0.626135 0.534963
vt 0.642978 0.534963
vt 0.356635 0.591014
vt 0.373479 0.591014
vt 0.390323 0.591014
vt 0.407166 0.591014
vt 0.424010 0.591014
vt 0.440854 0.591014
vt 0.457697 0.591014
vt 0.474541 0.591014
vt 0.491385 0.591014
vt 0.508229 0.591014
vt 0.525072 0.591014
vt 0.541916 0.591014
vt 0.558760 0.591014
vt 0.575603 0.591014
vt 0.592447 0.591014
vt 0.609291 0.591014
vt 0.626135 0.591014
vt 0.642978 0.591014
vt 0.356635 0.647065
vt 0.373479 0.647065
vt 0.390323 0.647065
vt 0.407166 0.647065
vt 0.424010 0.647065
vt 0.440854 0.647065
vt 0.457697 0.647065
vt 0.474541 0.647065
vt 0.491385 0.647065
vt 0.508229 0.647065
vt 0.525072 0.647065
vt 0.541916 0.647065
vt 0.558760 0.647065
vt 0.575603 0.647065
vt 0.592447 0.647065
vt 0.609291 0.647065
vt 0.626135 0.647065
vt 0.642978 0.647065
vt 0.356635 0.703117
vt 0.373479 0.703117
vt 0.390323 0.703117
vt 0.407166 0.703117
vt 0.424010 0.703117
vt 0.440854 0.703117
vt 0.457697 0.703117
vt 0.474541 0.703117
vt 0.491385 0.703117
vt 0.508229 0.703117
vt 0.525072 0.703117
vt 0.541916 0.703117
vt 0.558760 0.703117
vt 0.575603 0.703117
vt 0.592447 0.703117
vt 0.609291 0.703117
vt 0.626135 0.703117
vt 0.642978 0.703117
vt 0.356635 0.759168
vt 0.373479 0.759168
vt 0.390323 0.759168
vt 0.407166 0.759168
vt 0.424010 0.759168
vt 0.440854 0.759168
vt 0.457697 0.759168
vt 0.474541 0.759168
vt 0.491385 0.759168
vt 0.508229 0.759168
vt 0.525072 0.759168
vt 0.541916 0.759168
vt 0.558760 0.759168
vt 0.575603 0.759168
vt 0.592447 0.759168
vt 0.609291 0.759168
vt 0.626135 0.759168
vt 0.642978 0.759168
vt 0.356635 0.815219
vt 0.373479 0.815219
vt 0.390323 0.815219
vt 0.407166 0.815219
vt 0.424010 0.815219
vt 0.440854 0.815219
vt 0.457697 0.815219
vt 0.474541 0.815219
vt 0.491385 0.815219
vt 0.508229 0.815219
vt 0.525072 0.815219
vt 0.541916 0.815219
vt 0.558760 0.815219
vt 0.575603 0.815219
vt 0.592447 0.815219
vt 0.609291 0.815219
vt 0.626135 0.815219
vt 0.642978 0.815219
vt 0.356635 0.871271
vt 0.373479 0.871271
vt 0.390323 0.871271
vt 0.407166 0.871271
vt 0.424010 0.871271
vt 0.440854 0.871271
vt 0.457697 0.871271
vt 0.474541 0.871271
vt 0.491385 0.871271
vt 0.508229 0.871271
vt 0.525072 0.871271
vt 0.541916 0.871271
vt 0.558760 0.871271
vt 0.575603 0.871271
vt 0.592447 0.871271
vt 0.609291 0.871271
vt 0.626135 0.871271
vt 0.642978 0.871271
vt 0.557634 0.904112
vt 0.545845 0.880917
vt 0.527974 0.854452
vt 0.516319 0.872466
vt 0.484135 0.850403
vt 0.464088 0.871688
vt 0.449001 0.891849
vt 0.440911 0.917289
vt 0.440911 0.944570
vt 0.449001 0.970010
vt 0.464088 0.990171
vt 0.484135 1.002332
vt 0.506434 1.004849
vt 0.527974 0.997383
vt 0.545845 0.980942
vt 0.557634 0.957747
vt 0.561749 0.930929
vt 0.546270 0.909476
vt 0.536838 0.890919
vt 0.522541 0.877767
vt 0.505310 0.871794
vt 0.487470 0.873808
vt 0.471433 0.883536
vt 0.459363 0.899665
vt 0.452891 0.920017
vt 0.452891 0.941842
vt 0.459363 0.962194
vt 0.471433 0.978323
vt 0.487470 0.988051
vt 0.505310 0.990065
vt 0.522541 0.984092
vt 0.536838 0.970940
vt 0.546270 0.952383
vt 0.549562 0.930929
vt 0.534905 0.914839
vt 0.527831 0.900922
vt 0.517109 0.891057
vt 0.504185 0.886578
vt 0.490806 0.888088
vt 0.478778 0.895384
vt 0.469725 0.907481
vt 0.464871 0.922745
vt 0.464871 0.939114
vt 0.469725 0.954378
vt 0.478778 0.966474
vt 0.490806 0.973771
vt 0.504185 0.975281
vt 0.517109 0.970802
vt 0.527831 0.960937
vt 0.534905 0.947020
vt 0.537374 0.930929
vt 0.523540 0.920203
vt 0.518825 0.910924
vt 0.511676 0.904348
vt 0.503060 0.901362
vt 0.494141 0.902368
vt 0.486122 0.907233
vt 0.480087 0.915297
vt 0.476851 0.925473
vt 0.476851 0.936386
vt 0.480087 0.946562
vt 0.486122 0.954626
vt 0.494141 0.959490
vt 0.503060 0.960497
vt 0.511676 0.957511
vt 0.518825 0.950934
vt 0.523540 0.941656
vt 0.525186 0.930929
vt 0.512176 0.925566
vt 0.509818 0.920927
vt 0.506244 0.917639
vt 0.501936 0.916146
vt 0.497476 0.916649
vt 0.493467 0.919081
vt 0.490449 0.923113
vt 0.488831 0.928201
vt 0.488831 0.933658
vt 0.490449 0.938745
vt 0.493467 0.942778
vt 0.497476 0.945210
vt 0.501936 0.945713
vt 0.506244 0.944220
vt 0.509818 0.940932
vt 0.512176 0.936293
vt 0.512999 0.930929
vt 0.500637 0.093204
vt 0.500811 0.930929
vn -0.001210 -0.453253 0.891381
vn -0.001654 -0.451424 0.892308
vn -0.001070 -0.454003 0.890999
vn -0.001286 -0.452459 0.891784
vn -0.000756 -0.452694 0.891666
vn -0.001208 -0.450400 0.892826
vn -0.000260 -0.452009 0.892013
vn -0.000332 -0.449998 0.893030
vn 0.000344 -0.452428 0.891801
vn 0.000707 -0.450053 0.893001
vn 0.001070 -0.452920 0.891550
vn 0.001579 -0.450876 0.892585
vn 0.001229 -0.453732 0.891137
vn 0.001630 -0.452021 0.892006
vn 0.000896 -0.454393 0.890801
vn 0.000793 -0.452783 0.891620
vn 0.000170 -0.454647 0.890672
vn -0.000313 -0.452869 0.891577
vn -0.000483 -0.454442 0.890776
vn -0.001149 -0.452298 0.891866
vn -0.000714 -0.453891 0.891057
vn -0.001304 -0.451412 0.892315
vn -0.000430 -0.453373 0.891321
vn -0.000730 -0.450681 0.892685
vn 0.000141 -0.453116 0.891452
vn 0.000230 -0.450478 0.892787
vn 0.000631 -0.453609 0.891201
vn 0.001094 -0.450992 0.892527
vn 0.000664 -0.454178 0.890911
vn 0.001326 -0.451867 0.892084
vn 0.000192 -0.454633 0.890679
vn 0.000797 -0.452654 0.891686
vn -0.000546 -0.454584 0.890704
vn -0.000247 -0.452917 0.891553
vn -0.001918 -0.450168 0.892942
vn -0.001313 -0.451277 0.892383
vn -0.001518 -0.449005 0.893528
vn -0.000381 -0.448386 0.893840
vn 0.000999 -0.448568 0.893748
vn 0.001868 -0.449522 0.893267
vn 0.001731 -0.450778 0.892634
vn 0.000748 -0.451617 0.892211
vn -0.000555 -0.451651 0.892195
vn -0.001508 -0.450914 0.892566
vn -0.001647 -0.449816 0.893120
vn -0.000908 -0.448913 0.893575
vn 0.000298 -0.448693 0.893686
vn 0.001378 -0.449302 0.893379
vn 0.001697 -0.450374 0.892838
vn 0.001111 -0.451362 0.892340
vn -0.000095 -0.451743 0.892148
vn -0.000664 -0.450465 0.892794
vn -0.000396 -0.450869 0.892590
vn -0.000571 -0.449987 0.893035
vn -0.000145 -0.449695 0.893182
vn 0.000384 -0.449801 0.893129
vn 0.000668 -0.450216 0.892919
vn 0.000581 -0.450687 0.892682
vn 0.000153 -0.450979 0.892535
vn -0.000371 -0.450942 0.892553
vn -0.000693 -0.450618 0.892716
vn -0.000733 -0.450142 0.892957
vn -0.000389 -0.449793 0.893133
vn 0.000139 -0.449608 0.893226
vn 0.000598 -0.449942 0.893058
vn 0.000742 -0.450399 0.892827
vn 0.000582 -0.450801 0.892624
vn 0.000115 -0.451003 0.892523
vn -0.000001 -0.450934 0.892557
vn 0.000000 -0.450934 0.892557
vn 0.000000 -0.450933 0.892558
vn 0.000000 -0.450932 0.892558
vn 0.000000 -0.450935 0.892556
vn -0.000000 -0.450935 0.892557
vn 0.000003 -0.450933 0.892558
vn 0.000002 -0.450933 0.892558
vn 0.000001 -0.450935 0.892557
vn -0.000001 -0.450933 0.892558
vn 0.000001 -0.450935 0.892557
vn 0.000000 -0.450932 0.892558
vn 0.000000 -0.450933 0.892558
vn -0.000000 -0.450933 0.892558
vn 0.000000 -0.450933 0.892558
vn -0.000000 -0.450933 0.892558
vn 0.000000 -0.450935 0.892557
vn 0.732426 -0.578147 -0.359582
vn 0.745020 -0.601723 -0.287880
vn 0.928384 -0.315545 -0.196300
vn 0.936589 -0.316032 -0.151409
vn 0.440154 -0.762510 -0.474175
vn 0.450474 -0.805435 -0.385160
vn 0.090954 -0.845688 -0.525871
vn 0.093332 -0.898242 -0.429476
vn -0.269924 -0.817682 -0.508465
vn -0.276750 -0.866935 -0.414527
vn -0.596065 -0.681837 -0.424034
vn -0.608393 -0.715958 -0.342434
vn -0.844530 -0.454717 -0.282845
vn -0.855661 -0.466816 -0.223444
vn -0.980876 -0.165259 -0.102817
vn -0.985165 -0.154686 -0.074305
vn -0.984702 0.147928 0.092087
vn -0.980575 0.177092 0.084324
vn -0.853975 0.441690 0.275023
vn -0.844302 0.483542 0.230956
vn -0.606159 0.675109 0.420474
vn -0.596221 0.724314 0.346250
vn -0.275430 0.815954 0.508288
vn -0.270125 0.868610 0.415391
vn 0.092877 0.845105 0.526470
vn 0.091028 0.898389 0.429665
vn 0.448511 0.758640 0.472549
vn 0.440394 0.809975 0.387290
vn 0.742903 0.568223 0.353861
vn 0.732400 0.614332 0.293574
vn 0.935507 0.299930 0.186729
vn 0.928033 0.336179 0.160430
vn 0.999944 -0.008965 -0.005568
vn 0.999919 0.011597 0.005183
vn 0.934402 -0.330833 -0.132070
vn 0.740758 -0.638125 -0.209938
vn 0.448144 -0.858090 -0.250697
vn 0.099010 -0.963020 -0.250578
vn -0.260167 -0.941135 -0.215819
vn -0.587477 -0.793820 -0.157229
vn -0.841941 -0.532740 -0.085573
vn -0.982188 -0.187735 -0.007904
vn -0.979965 0.186203 0.070682
vn -0.837884 0.526865 0.142703
vn -0.585654 0.785639 0.199453
vn -0.263105 0.936143 0.233265
vn 0.089699 0.967058 0.238230
vn 0.432297 0.876435 0.212088
vn 0.724406 0.671713 0.155041
vn 0.924795 0.373876 0.070506
vn 0.999244 0.022655 -0.031595
vn 0.912052 -0.291844 -0.288077
vn 0.729008 -0.619498 -0.291151
vn 0.442929 -0.864300 -0.238326
vn 0.100288 -0.984157 -0.146209
vn -0.238487 -0.970345 -0.039438
vn -0.539281 -0.839233 0.069746
vn -0.784001 -0.598687 0.164060
vn -0.939929 -0.258529 0.222927
vn -0.961140 0.139793 0.238051
vn -0.823480 0.524245 0.216904
vn -0.561576 0.808964 0.173808
vn -0.240050 0.962332 0.127646
vn 0.099231 0.991985 0.078224
vn 0.421906 0.906468 0.017621
vn 0.699129 0.712673 -0.057585
vn 0.895319 0.420078 -0.148113
vn 0.969733 0.069511 -0.234066
vn 0.849907 -0.185741 -0.493111
vn 0.716282 -0.541239 -0.440454
vn 0.441377 -0.844300 -0.303881
vn 0.083475 -0.989453 -0.118384
vn -0.231721 -0.971601 0.047930
vn -0.491970 -0.846746 0.202452
vn -0.693019 -0.632496 0.345938
vn -0.825570 -0.334984 0.454114
vn -0.871168 0.028480 0.490158
vn -0.787422 0.430882 0.440803
vn -0.546102 0.782553 0.298969
vn -0.232490 0.964536 0.124974
vn 0.082217 0.996248 -0.027023
vn 0.377452 0.911383 -0.164046
vn 0.621089 0.726181 -0.294805
vn 0.786902 0.464956 -0.405711
vn 0.865194 0.159453 -0.475409
vn 0.786518 -0.056093 -0.615015
vn 0.711957 -0.408589 -0.571115
vn 0.466443 -0.774500 -0.427294
vn 0.071076 -0.980160 -0.185024
vn -0.235718 -0.971605 0.020516
vn -0.467864 -0.860596 0.201189
vn -0.636601 -0.676779 0.369742
vn -0.746976 -0.413966 0.520248
vn -0.784530 -0.082045 0.614639
vn -0.729329 0.301734 0.614033
vn -0.524347 0.712589 0.466130
vn -0.209267 0.956421 0.203634
vn 0.066802 0.997296 -0.030642
vn 0.324193 0.915927 -0.236596
vn 0.544638 0.735640 -0.402745
vn 0.687657 0.508403 -0.518319
vn 0.767408 0.249500 -0.590622
vn 0.754589 0.072965 -0.652128
vn 0.695144 -0.273973 -0.664615
vn 0.454438 -0.681850 -0.573207
vn 0.047495 -0.946100 -0.320372
vn -0.263281 -0.961719 -0.076020
vn -0.476387 -0.869814 0.128369
vn -0.631640 -0.710407 0.310405
vn -0.729854 -0.483705 0.483055
vn -0.757009 -0.193451 0.624111
vn -0.704284 0.168878 0.689539
vn -0.511865 0.603818 0.611063
vn -0.182907 0.921561 0.342448
vn 0.096170 0.993619 0.058927
vn 0.328550 0.924521 -0.193172
vn 0.517822 0.759821 -0.393107
vn 0.643698 0.557733 -0.524010
vn 0.722930 0.335297 -0.604109
vn 0.746429 0.126979 -0.653238
vn 0.655724 -0.220256 -0.722158
vn 0.389177 -0.622070 -0.679389
vn 0.008067 -0.883326 -0.468689
vn -0.315683 -0.926666 -0.204045
vn -0.528339 -0.848678 0.024545
vn -0.668638 -0.707922 0.227528
vn -0.750717 -0.514832 0.413970
vn -0.772265 -0.261116 0.579159
vn -0.707701 0.076498 0.702358
vn -0.512313 0.489975 0.705308
vn -0.183626 0.838072 0.513728
vn 0.138218 0.965494 0.220721
vn 0.376938 0.924458 -0.057399
vn 0.552013 0.782858 -0.287079
vn 0.667964 0.597487 -0.443660
vn 0.734856 0.392293 -0.553257
vn 0.765279 0.115718 -0.633212
vn 0.632982 -0.210841 -0.744902
vn 0.355994 -0.554058 -0.752521
vn -0.008686 -0.790997 -0.611758
vn -0.344499 -0.861844 -0.372216
vn -0.578552 -0.806423 -0.122310
vn -0.725907 -0.678407 0.113241
vn -0.803032 -0.496824 0.329099
vn -0.809463 -0.261585 0.525683
vn -0.725132 0.040186 0.687436
vn -0.511871 0.401917 0.759244
vn -0.177714 0.723701 0.666839
vn 0.166115 0.886139 0.432624
vn 0.438116 0.885707 0.153550
vn 0.622872 0.775470 -0.103323
vn 0.738338 0.598361 -0.311161
vn 0.789230 0.381828 -0.480962
vn 0.810150 0.056804 -0.583464
vn 0.633554 -0.227131 -0.739609
vn 0.343893 -0.494693 -0.798133
vn -0.009224 -0.683206 -0.730167
vn -0.347475 -0.758998 -0.550621
vn -0.612977 -0.727792 -0.307536
vn -0.788368 -0.613767 -0.042031
vn -0.871085 -0.438585 0.221027
vn -0.859361 -0.214510 0.464202
vn -0.740824 0.053174 0.669591
vn -0.503940 0.337858 0.794919
vn -0.174463 0.585034 0.792021
vn 0.173762 0.734992 0.655433
vn 0.481279 0.768247 0.422098
vn 0.708109 0.691227 0.144178
vn 0.837387 0.531381 -0.128130
vn 0.872653 0.313093 -0.374765
vn 0.863118 -0.052194 -0.502298
vn 0.642132 -0.270444 -0.717305
vn 0.336428 -0.449331 -0.827597
vn -0.000750 -0.565197 -0.824956
vn -0.333850 -0.611605 -0.717275
vn -0.626655 -0.582546 -0.517633
vn -0.840476 -0.481118 -0.249250
vn -0.946135 -0.318615 0.057565
vn -0.923722 -0.114261 0.365625
vn -0.769622 0.102469 0.630224
vn -0.506364 0.296049 0.809908
vn -0.177512 0.442430 0.879059
vn 0.160957 0.529114 0.833145
vn 0.479756 0.550850 0.682934
vn 0.748615 0.498316 0.437329
vn 0.921754 0.367175 0.124705
vn 0.962976 0.172501 -0.207172
vn 0.654201 -0.298012 -0.695133
vn 0.900734 -0.160558 -0.403609
vn 0.336204 -0.379521 -0.861934
vn 0.009767 -0.404878 -0.914318
vn -0.305619 -0.380724 -0.872723
vn -0.592638 -0.313567 -0.741927
vn -0.827675 -0.204186 -0.522745
vn -0.974506 -0.055220 -0.217462
vn -0.982832 0.117723 0.142061
vn -0.826483 0.277721 0.489691
vn -0.540443 0.384057 0.748614
vn -0.195547 0.424831 0.883901
vn 0.140948 0.412386 0.900040
vn 0.443840 0.365386 0.818229
vn 0.713742 0.286133 0.639297
vn 0.920515 0.168231 0.352633
vn 0.999691 0.009342 -0.023047
vn 0.729493 -0.281878 -0.623205
vn 0.945952 -0.174348 -0.273456
vn 0.398967 -0.329326 -0.855786
vn 0.055343 -0.311309 -0.948696
vn -0.259175 -0.247010 -0.933710
vn -0.533677 -0.152464 -0.831832
vn -0.765844 -0.030712 -0.642292
vn -0.931467 0.128242 -0.340474
vn -0.952826 0.299161 0.051246
vn -0.793991 0.422064 0.437540
vn -0.503202 0.466989 0.727124
vn -0.163070 0.446539 0.879779
vn 0.152119 0.388203 0.908932
vn 0.428774 0.310941 0.848215
vn 0.678862 0.214326 0.702290
vn 0.882585 0.097282 0.459979
vn 0.992317 -0.037606 0.117867
vn 0.640699 -0.246636 -0.727100
vn 0.698407 -0.269595 -0.662983
vn 0.899422 -0.194728 -0.391307
vn 0.932815 -0.222098 -0.283775
vn 0.304857 -0.213559 -0.928146
vn 0.348901 -0.218987 -0.911215
vn 0.004965 -0.120682 -0.992679
vn 0.023746 -0.093977 -0.995291
vn -0.229855 -0.014028 -0.973124
vn -0.204594 0.023958 -0.978554
vn -0.427462 0.089823 -0.899560
vn -0.390745 0.128397 -0.911500
vn -0.592219 0.201843 -0.780087
vn -0.555615 0.248075 -0.793568
vn -0.735068 0.330042 -0.592239
vn -0.689255 0.382491 -0.615328
vn -0.822945 0.473286 -0.314265
vn -0.771851 0.530758 -0.350059
vn -0.797100 0.601357 0.054774
vn -0.743009 0.669255 0.005962
vn -0.594638 0.679032 0.430490
vn -0.555049 0.732172 0.394772
vn -0.259784 0.643918 0.719640
vn -0.236021 0.668558 0.705212
vn 0.115295 0.512951 0.850640
vn 0.124881 0.513843 0.848746
vn 0.439600 0.364067 0.821101
vn 0.435008 0.338078 0.834548
vn 0.717362 0.219698 0.661154
vn 0.695320 0.173206 0.697517
vn 0.923566 0.081116 0.374762
vn 0.890717 0.024528 0.453895
vn 0.997674 -0.067854 0.006501
vn 0.986517 -0.108378 0.122632
vn 0.805882 -0.184001 -0.562759
vn 0.970854 -0.144534 -0.191186
vn 0.506722 -0.152554 -0.848504
vn 0.084771 -0.026083 -0.996059
vn -0.146252 0.081829 -0.985857
vn -0.307931 0.177972 -0.934615
vn -0.474095 0.297077 -0.828842
vn -0.610212 0.437359 -0.660574
vn -0.686347 0.601705 -0.408507
vn -0.666060 0.741774 -0.078328
vn -0.499049 0.810009 0.307954
vn -0.192575 0.751348 0.631182
vn 0.153556 0.585643 0.795891
vn 0.466850 0.393018 0.792204
vn 0.708471 0.220888 0.670281
vn 0.886273 0.070116 0.457826
vn 0.985102 -0.059635 0.161299
vn 0.713924 0.035979 -0.699298
vn 0.942233 0.037380 -0.332866
vn 0.370430 0.084606 -0.924999
vn 0.051350 0.154560 -0.986648
vn -0.131654 0.210370 -0.968716
vn -0.259561 0.282559 -0.923466
vn -0.382464 0.386456 -0.839269
vn -0.484224 0.517272 -0.705660
vn -0.542966 0.653416 -0.527480
vn -0.541424 0.786951 -0.295920
vn -0.428953 0.902952 0.026021
vn -0.198867 0.915150 0.350645
vn 0.144767 0.794077 0.590325
vn 0.488264 0.581771 0.650492
vn 0.744678 0.372412 0.553862
vn 0.917320 0.209131 0.338805
vn 0.995039 0.094294 0.031725
vn 0.567990 0.201137 -0.798080
vn 0.830417 0.219259 -0.512185
vn 0.274584 0.226789 -0.934436
vn 0.050250 0.262450 -0.963636
vn -0.112488 0.306015 -0.945358
vn -0.232939 0.362496 -0.902406
vn -0.340661 0.450888 -0.825015
vn -0.415030 0.560640 -0.716543
vn -0.459376 0.680287 -0.571124
vn -0.449555 0.808644 -0.379466
vn -0.355037 0.927309 -0.118518
vn -0.149814 0.978719 0.140231
vn 0.166956 0.909606 0.380450
vn 0.482043 0.750796 0.451597
vn 0.731038 0.591375 0.340380
vn 0.896132 0.412559 0.163530
vn 0.947204 0.291728 -0.133040
vn -0.000007 -0.454858 0.890564
vn 0.091005 0.756569 -0.647550
s 1
g tail
usemtl lambert11SG
f 2/2/1 19/19/2 1/1/3
f 1/1/3 19/19/2 18/18/4
f 3/3/5 20/20/6 2/2/1
f 2/2/1 20/20/6 19/19/2
f 3/3/5 4/4/7 20/20/6
f 20/20/6 4/4/7 21/21/8
f 5/5/9 22/22/10 4/4/7
f 4/4/7 22/22/10 21/21/8
f 5/5/9 6/6/11 22/22/10
f 22/22/10 6/6/11 23/23/12
f 6/6/11 7/7/13 23/23/12
f 23/23/12 7/7/13 24/24/14
f 7/7/13 8/8/15 24/24/14
f 24/24/14 8/8/15 25/25/16
f 8/8/15 9/9/17 25/25/16
f 25/25/16 9/9/17 26/26/18
f 9/9/17 10/10/19 26/26/18
f 26/26/18 10/10/19 27/27/20
f 10/10/19 11/11/21 27/27/20
f 27/27/20 11/11/21 28/28/22
f 11/11/21 12/12/23 28/28/22
f 28/28/22 12/12/23 29/29/24
f 12/12/23 13/13/25 29/29/24
f 29/29/24 13/13/25 30/30/26
f 14/14/27 31/31/28 13/13/25
f 13/13/25 31/31/28 30/30/26
f 15/15/29 32/32/30 14/14/27
f 14/14/27 32/32/30 31/31/28
f 16/16/31 33/33/32 15/15/29
f 15/15/29 33/33/32 32/32/30
f 17/17/33 34/34/34 16/16/31
f 16/16/31 34/34/34 33/33/32
f 1/1/3 18/18/4 17/17/33
f 17/17/33 18/18/4 34/34/34
f 19/19/2 36/36/35 18/18/4
f 18/18/4 36/36/35 35/35/36
f 20/20/6 37/37/37 19/19/2
f 19/19/2 37/37/37 36/36/35
f 21/21/8 38/38/38 20/20/6
f 20/20/6 38/38/38 37/37/37
f 21/21/8 22/22/10 38/38/38
f 38/38/38 22/22/10 39/39/39
f 22/22/10 23/23/12 39/39/39
f 39/39/39 23/23/12 40/40/40
f 23/23/12 24/24/14 40/40/40
f 40/40/40 24/24/14 41/41/41
f 24/24/14 25/25/16 41/41/41
f 41/41/41 25/25/16 42/42/42
f 25/25/16 26/26/18 42/42/42
f 42/42/42 26/26/18 43/43/43
f 26/26/18 27/27/20 43/43/43
f 43/43/43 27/27/20 44/44/44
f 27/27/20 28/28/22 44/44/44
f 44/44/44 28/28/22 45/45/45
f 28/28/22 29/29/24 45/45/45
f 45/45/45 29/29/24 46/46/46
f 29/29/24 30/30/26 46/46/46
f 46/46/46 30/30/26 47/47/47
f 31/31/28 48/48/48 30/30/26
f 30/30/26 48/48/48 47/47/47
f 32/32/30 49/49/49 31/31/28
f 31/31/28 49/49/49 48/48/48
f 33/33/32 50/50/50 32/32/30
f 32/32/30 50/50/50 49/49/49
f 34/34/34 51/51/51 33/33/32
f 33/33/32 51/51/51 50/50/50
f 18/18/4 35/35/36 34/34/34
f 34/34/34 35/35/36 51/51/51
f 36/36/35 53/53/52 35/35/36
f 35/35/36 53/53/52 52/52/53
f 37/37/37 54/54/54 36/36/35
f 36/36/35 54/54/54 53/53/52
f 38/38/38 55/55/55 37/37/37
f 37/37/37 55/55/55 54/54/54
f 38/38/38 39/39/39 55/55/55
f 55/55/55 39/39/39 56/56/56
f 39/39/39 40/40/40 56/56/56
f 56/56/56 40/40/40 57/57/57
f 40/40/40 41/41/41 57/57/57
f 57/57/57 41/41/41 58/58/58
f 41/41/41 42/42/42 58/58/58
f 58/58/58 42/42/42 59/59/59
f 42/42/42 43/43/43 59/59/59
f 59/59/59 43/43/43 60/60/60
f 43/43/43 44/44/44 60/60/60
f 60/60/60 44/44/44 61/61/61
f 44/44/44 45/45/45 61/61/61
f 61/61/61 45/45/45 62/62/62
f 45/45/45 46/46/46 62/62/62
f 62/62/62 46/46/46 63/63/63
f 46/46/46 47/47/47 63/63/63
f 63/63/63 47/47/47 64/64/64
f 48/48/48 65/65/65 47/47/47
f 47/47/47 65/65/65 64/64/64
f 49/49/49 66/66/66 48/48/48
f 48/48/48 66/66/66 65/65/65
f 50/50/50 67/67/67 49/49/49
f 49/49/49 67/67/67 66/66/66
f 51/51/51 68/68/68 50/50/50
f 50/50/50 68/68/68 67/67/67
f 35/35/36 52/52/53 51/51/51
f 51/51/51 52/52/53 68/68/68
f 53/53/52 70/70/69 52/52/53
f 52/52/53 70/70/69 69/69/70
f 54/54/54 71/71/71 53/53/52
f 53/53/52 71/71/71 70/70/69
f 55/55/55 72/72/72 54/54/54
f 54/54/54 72/72/72 71/71/71
f 55/55/55 56/56/56 72/72/72
f 72/72/72 56/56/56 73/73/73
f 56/56/56 57/57/57 73/73/73
f 73/73/73 57/57/57 74/74/74
f 57/57/57 58/58/58 74/74/74
f 74/74/74 58/58/58 75/75/75
f 58/58/58 59/59/59 75/75/75
f 75/75/75 59/59/59 76/76/76
f 59/59/59 60/60/60 76/76/76
f 76/76/76 60/60/60 77/77/77
f 60/60/60 61/61/61 77/77/77
f 77/77/77 61/61/61 78/78/78
f 62/62/62 79/79/79 61/61/61
f 61/61/61 79/79/79 78/78/78
f 63/63/63 80/80/80 62/62/62
f 62/62/62 80/80/80 79/79/79
f 64/64/64 81/81/81 63/63/63
f 63/63/63 81/81/81 80/80/80
f 64/64/64 65/65/65 81/81/81
f 81/81/81 65/65/65 82/82/82
f 65/65/65 66/66/66 82/82/82
f 82/82/82 66/66/66 83/83/83
f 67/67/67 84/84/84 66/66/66
f 66/66/66 84/84/84 83/83/83
f 68/68/68 85/85/85 67/67/67
f 67/67/67 85/85/85 84/84/84
f 52/52/53 69/69/70 68/68/68
f 68/68/68 69/69/70 85/85/85
s 8
f 70/87/86 87/105/87 69/86/88
f 69/86/88 87/105/87 86/104/89
f 71/88/90 88/106/91 70/87/86
f 70/87/86 88/106/91 87/105/87
f 72/89/92 89/107/93 71/88/90
f 71/88/90 89/107/93 88/106/91
f 72/89/92 73/90/94 89/107/93
f 89/107/93 73/90/94 90/108/95
f 73/90/94 74/91/96 90/108/95
f 90/108/95 74/91/96 91/109/97
f 74/91/96 75/92/98 91/109/97
f 91/109/97 75/92/98 92/110/99
f 75/92/98 76/93/100 92/110/99
f 92/110/99 76/93/100 93/111/101
f 76/93/100 77/94/102 93/111/101
f 93/111/101 77/94/102 94/112/103
f 77/94/102 78/95/104 94/112/103
f 94/112/103 78/95/104 95/113/105
f 78/95/104 79/96/106 95/113/105
f 95/113/105 79/96/106 96/114/107
f 79/96/106 80/97/108 96/114/107
f 96/114/107 80/97/108 97/115/109
f 80/97/108 81/98/110 97/115/109
f 97/115/109 81/98/110 98/116/111
f 82/99/112 99/117/113 81/98/110
f 81/98/110 99/117/113 98/116/111
f 83/100/114 100/118/115 82/99/112
f 82/99/112 100/118/115 99/117/113
f 84/101/116 101/119/117 83/100/114
f 83/100/114 101/119/117 100/118/115
f 85/102/118 102/120/119 84/101/116
f 84/101/116 102/120/119 101/119/117
f 69/103/88 86/121/89 85/102/118
f 85/102/118 86/121/89 102/120/119
f 86/104/89 87/105/87 103/122/120
f 103/122/120 87/105/87 104/123/121
f 87/105/87 88/106/91 104/123/121
f 104/123/121 88/106/91 105/124/122
f 88/106/91 89/107/93 105/124/122
f 105/124/122 89/107/93 106/125/123
f 90/108/95 107/126/124 89/107/93
f 89/107/93 107/126/124 106/125/123
f 91/109/97 108/127/125 90/108/95
f 90/108/95 108/127/125 107/126/124
f 92/110/99 109/128/126 91/109/97
f 91/109/97 109/128/126 108/127/125
f 93/111/101 110/129/127 92/110/99
f 92/110/99 110/129/127 109/128/126
f 94/112/103 111/130/128 93/111/101
f 93/111/101 111/130/128 110/129/127
f 95/113/105 112/131/129 94/112/103
f 94/112/103 112/131/129 111/130/128
f 96/114/107 113/132/130 95/113/105
f 95/113/105 113/132/130 112/131/129
f 97/115/109 114/133/131 96/114/107
f 96/114/107 114/133/131 113/132/130
f 98/116/111 115/134/132 97/115/109
f 97/115/109 115/134/132 114/133/131
f 98/116/111 99/117/113 115/134/132
f 115/134/132 99/117/113 116/135/133
f 99/117/113 100/118/115 116/135/133
f 116/135/133 100/118/115 117/136/134
f 100/118/115 101/119/117 117/136/134
f 117/136/134 101/119/117 118/137/135
f 101/119/117 102/120/119 118/137/135
f 118/137/135 102/120/119 119/138/136
f 102/120/119 86/121/89 119/138/136
f 119/138/136 86/121/89 103/139/120
f 103/122/120 104/123/121 120/140/137
f 120/140/137 104/123/121 121/141/138
f 104/123/121 105/124/122 121/141/138
f 121/141/138 105/124/122 122/142/139
f 105/124/122 106/125/123 122/142/139
f 122/142/139 106/125/123 123/143/140
f 106/125/123 107/126/124 123/143/140
f 123/143/140 107/126/124 124/144/141
f 108/127/125 125/145/142 107/126/124
f 107/126/124 125/145/142 124/144/141
f 109/128/126 126/146/143 108/127/125
f 108/127/125 126/146/143 125/145/142
f 110/129/127 127/147/144 109/128/126
f 109/128/126 127/147/144 126/146/143
f 111/130/128 128/148/145 110/129/127
f 110/129/127 128/148/145 127/147/144
f 112/131/129 129/149/146 111/130/128
f 111/130/128 129/149/146 128/148/145
f 113/132/130 130/150/147 112/131/129
f 112/131/129 130/150/147 129/149/146
f 114/133/131 131/151/148 113/132/130
f 113/132/130 131/151/148 130/150/147
f 115/134/132 132/152/149 114/133/131
f 114/133/131 132/152/149 131/151/148
f 115/134/132 116/135/133 132/152/149
f 132/152/149 116/135/133 133/153/150
f 116/135/133 117/136/134 133/153/150
f 133/153/150 117/136/134 134/154/151
f 117/136/134 118/137/135 134/154/151
f 134/154/151 118/137/135 135/155/152
f 118/137/135 119/138/136 135/155/152
f 135/155/152 119/138/136 136/156/153
f 119/138/136 103/139/120 136/156/153
f 136/156/153 103/139/120 120/157/137
f 120/140/137 121/141/138 137/158/154
f 137/158/154 121/141/138 138/159/155
f 121/141/138 122/142/139 138/159/155
f 138/159/155 122/142/139 139/160/156
f 122/142/139 123/143/140 139/160/156
f 139/160/156 123/143/140 140/161/157
f 123/143/140 124/144/141 140/161/157
f 140/161/157 124/144/141 141/162/158
f 124/144/141 125/145/142 141/162/158
f 141/162/158 125/145/142 142/163/159
f 126/146/143 143/164/160 125/145/142
f 125/145/142 143/164/160 142/163/159
f 127/147/144 144/165/161 126/146/143
f 126/146/143 144/165/161 143/164/160
f 128/148/145 145/166/162 127/147/144
f 127/147/144 145/166/162 144/165/161
f 129/149/146 146/167/163 128/148/145
f 128/148/145 146/167/163 145/166/162
f 130/150/147 147/168/164 129/149/146
f 129/149/146 147/168/164 146/167/163
f 131/151/148 148/169/165 130/150/147
f 130/150/147 148/169/165 147/168/164
f 132/152/149 149/170/166 131/151/148
f 131/151/148 149/170/166 148/169/165
f 133/153/150 150/171/167 132/152/149
f 132/152/149 150/171/167 149/170/166
f 133/153/150 134/154/151 150/171/167
f 150/171/167 134/154/151 151/172/168
f 134/154/151 135/155/152 151/172/168
f 151/172/168 135/155/152 152/173/169
f 135/155/152 136/156/153 152/173/169
f 152/173/169 136/156/153 153/174/170
f 136/156/153 120/157/137 153/174/170
f 153/174/170 120/157/137 137/175/154
f 137/158/154 138/159/155 154/176/171
f 154/176/171 138/159/155 155/177/172
f 138/159/155 139/160/156 155/177/172
f 155/177/172 139/160/156 156/178/173
f 139/160/156 140/161/157 156/178/173
f 156/178/173 140/161/157 157/179/174
f 140/161/157 141/162/158 157/179/174
f 157/179/174 141/162/158 158/180/175
f 141/162/158 142/163/159 158/180/175
f 158/180/175 142/163/159 159/181/176
f 142/163/159 143/164/160 159/181/176
f 159/181/176 143/164/160 160/182/177
f 144/165/161 161/183/178 143/164/160
f 143/164/160 161/183/178 160/182/177
f 145/166/162 162/184/179 144/165/161
f 144/165/161 162/184/179 161/183/178
f 146/167/163 163/185/180 145/166/162
f 145/166/162 163/185/180 162/184/179
f 147/168/164 164/186/181 146/167/163
f 146/167/163 164/186/181 163/185/180
f 148/169/165 165/187/182 147/168/164
f 147/168/164 165/187/182 164/186/181
f 149/170/166 166/188/183 148/169/165
f 148/169/165 166/188/183 165/187/182
f 150/171/167 167/189/184 149/170/166
f 149/170/166 167/189/184 166/188/183
f 151/172/168 168/190/185 150/171/167
f 150/171/167 168/190/185 167/189/184
f 151/172/168 152/173/169 168/190/185
f 168/190/185 152/173/169 169/191/186
f 152/173/169 153/174/170 169/191/186
f 169/191/186 153/174/170 170/192/187
f 153/174/170 137/175/154 170/192/187
f 170/192/187 137/175/154 154/193/171
f 154/176/171 155/177/172 171/194/188
f 171/194/188 155/177/172 172/195/189
f 155/177/172 156/178/173 172/195/189
f 172/195/189 156/178/173 173/196/190
f 156/178/173 157/179/174 173/196/190
f 173/196/190 157/179/174 174/197/191
f 157/179/174 158/180/175 174/197/191
f 174/197/191 158/180/175 175/198/192
f 158/180/175 159/181/176 175/198/192
f 175/198/192 159/181/176 176/199/193
f 159/181/176 160/182/177 176/199/193
f 176/199/193 160/182/177 177/200/194
f 161/183/178 178/201/195 160/182/177
f 160/182/177 178/201/195 177/200/194
f 162/184/179 179/202/196 161/183/178
f 161/183/178 179/202/196 178/201/195
f 163/185/180 180/203/197 162/184/179
f 162/184/179 180/203/197 179/202/196
f 164/186/181 181/204/198 163/185/180
f 163/185/180 181/204/198 180/203/197
f 165/187/182 182/205/199 164/186/181
f 164/186/181 182/205/199 181/204/198
f 166/188/183 183/206/200 165/187/182
f 165/187/182 183/206/200 182/205/199
f 167/189/184 184/207/201 166/188/183
f 166/188/183 184/207/201 183/206/200
f 168/190/185 185/208/202 167/189/184
f 167/189/184 185/208/202 184/207/201
f 169/191/186 186/209/203 168/190/185
f 168/190/185 186/209/203 185/208/202
f 169/191/186 170/192/187 186/209/203
f 186/209/203 170/192/187 187/210/204
f 170/192/187 154/193/171 187/210/204
f 187/210/204 154/193/171 171/211/188
f 171/194/188 172/195/189 188/212/205
f 188/212/205 172/195/189 189/213/206
f 172/195/189 173/196/190 189/213/206
f 189/213/206 173/196/190 190/214/207
f 173/196/190 174/197/191 190/214/207
f 190/214/207 174/197/191 191/215/208
f 174/197/191 175/198/192 191/215/208
f 191/215/208 175/198/192 192/216/209
f 175/198/192 176/199/193 192/216/209
f 192/216/209 176/199/193 193/217/210
f 176/199/193 177/200/194 193/217/210
f 193/217/210 177/200/194 194/218/211
f 177/200/194 178/201/195 194/218/211
f 194/218/211 178/201/195 195/219/212
f 179/202/196 196/220/213 178/201/195
f 178/201/195 196/220/213 195/219/212
f 180/203/197 197/221/214 179/202/196
f 179/202/196 197/221/214 196/220/213
f 181/204/198 198/222/215 180/203/197
f 180/203/197 198/222/215 197/221/214
f 182/205/199 199/223/216 181/204/198
f 181/204/198 199/223/216 198/222/215
f 183/206/200 200/224/217 182/205/199
f 182/205/199 200/224/217 199/223/216
f 184/207/201 201/225/218 183/206/200
f 183/206/200 201/225/218 200/224/217
f 185/208/202 202/226/219 184/207/201
f 184/207/201 202/226/219 201/225/218
f 186/209/203 203/227/220 185/208/202
f 185/208/202 203/227/220 202/226/219
f 186/209/203 187/210/204 203/227/220
f 203/227/220 187/210/204 204/228/221
f 187/210/204 171/211/188 204/228/221
f 204/228/221 171/211/188 188/229/205
f 188/212/205 189/213/206 205/230/222
f 205/230/222 189/213/206 206/231/223
f 189/213/206 190/214/207 206/231/223
f 206/231/223 190/214/207 207/232/224
f 190/214/207 191/215/208 207/232/224
f 207/232/224 191/215/208 208/233/225
f 191/215/208 192/216/209 208/233/225
f 208/233/225 192/216/209 209/234/226
f 192/216/209 193/217/210 209/234/226
f 209/234/226 193/217/210 210/235/227
f 193/217/210 194/218/211 210/235/227
f 210/235/227 194/218/211 211/236/228
f 194/218/211 195/219/212 211/236/228
f 211/236/228 195/219/212 212/237/229
f 196/220/213 213/238/230 195/219/212
f 195/219/212 213/238/230 212/237/229
f 197/221/214 214/239/231 196/220/213
f 196/220/213 214/239/231 213/238/230
f 198/222/215 215/240/232 197/221/214
f 197/221/214 215/240/232 214/239/231
f 199/223/216 216/241/233 198/222/215
f 198/222/215 216/241/233 215/240/232
f 200/224/217 217/242/234 199/223/216
f 199/223/216 217/242/234 216/241/233
f 201/225/218 218/243/235 200/224/217
f 200/224/217 218/243/235 217/242/234
f 202/226/219 219/244/236 201/225/218
f 201/225/218 219/244/236 218/243/235
f 203/227/220 220/245/237 202/226/219
f 202/226/219 220/245/237 219/244/236
f 203/227/220 204/228/221 220/245/237
f 220/245/237 204/228/221 221/246/238
f 204/228/221 188/229/205 221/246/238
f 221/246/238 188/229/205 205/247/222
f 205/230/222 206/231/223 222/248/239
f 222/248/239 206/231/223 223/249/240
f 206/231/223 207/232/224 223/249/240
f 223/249/240 207/232/224 224/250/241
f 207/232/224 208/233/225 224/250/241
f 224/250/241 208/233/225 225/251/242
f 208/233/225 209/234/226 225/251/242
f 225/251/242 209/234/226 226/252/243
f 209/234/226 210/235/227 226/252/243
f 226/252/243 210/235/227 227/253/244
f 210/235/227 211/236/228 227/253/244
f 227/253/244 211/236/228 228/254/245
f 211/236/228 212/237/229 228/254/245
f 228/254/245 212/237/229 229/255/246
f 212/237/229 213/238/230 229/255/246
f 229/255/246 213/238/230 230/256/247
f 214/239/231 231/257/248 213/238/230
f 213/238/230 231/257/248 230/256/247
f 215/240/232 232/258/249 214/239/231
f 214/239/231 232/258/249 231/257/248
f 216/241/233 233/259/250 215/240/232
f 215/240/232 233/259/250 232/258/249
f 217/242/234 234/260/251 216/241/233
f 216/241/233 234/260/251 233/259/250
f 218/243/235 235/261/252 217/242/234
f 217/242/234 235/261/252 234/260/251
f 219/244/236 236/262/253 218/243/235
f 218/243/235 236/262/253 235/261/252
f 220/245/237 237/263/254 219/244/236
f 219/244/236 237/263/254 236/262/253
f 221/246/238 238/264/255 220/245/237
f 220/245/237 238/264/255 237/263/254
f 221/246/238 205/247/222 238/264/255
f 238/264/255 205/247/222 222/265/239
f 222/248/239 223/249/240 239/266/256
f 239/266/256 223/249/240 240/267/257
f 223/249/240 224/250/241 240/267/257
f 240/267/257 224/250/241 241/268/258
f 224/250/241 225/251/242 241/268/258
f 241/268/258 225/251/242 242/269/259
f 225/251/242 226/252/243 242/269/259
f 242/269/259 226/252/243 243/270/260
f 226/252/243 227/253/244 243/270/260
f 243/270/260 227/253/244 244/271/261
f 227/253/244 228/254/245 244/271/261
f 244/271/261 228/254/245 245/272/262
f 228/254/245 229/255/246 245/272/262
f 245/272/262 229/255/246 246/273/263
f 229/255/246 230/256/247 246/273/263
f 246/273/263 230/256/247 247/274/264
f 231/257/248 248/275/265 230/256/247
f 230/256/247 248/275/265 247/274/264
f 232/258/249 249/276/266 231/257/248
f 231/257/248 249/276/266 248/275/265
f 233/259/250 250/277/267 232/258/249
f 232/258/249 250/277/267 249/276/266
f 234/260/251 251/278/268 233/259/250
f 233/259/250 251/278/268 250/277/267
f 235/261/252 252/279/269 234/260/251
f 234/260/251 252/279/269 251/278/268
f 236/262/253 253/280/270 235/261/252
f 235/261/252 253/280/270 252/279/269
f 237/263/254 254/281/271 236/262/253
f 236/262/253 254/281/271 253/280/270
f 238/264/255 255/282/272 237/263/254
f 237/263/254 255/282/272 254/281/271
f 222/265/239 239/283/256 238/264/255
f 238/264/255 239/283/256 255/282/272
f 240/267/257 257/285/273 239/266/256
f 239/266/256 257/285/273 256/284/274
f 241/268/258 258/286/275 240/267/257
f 240/267/257 258/286/275 257/285/273
f 241/268/258 242/269/259 258/286/275
f 258/286/275 242/269/259 259/287/276
f 242/269/259 243/270/260 259/287/276
f 259/287/276 243/270/260 260/288/277
f 243/270/260 244/271/261 260/288/277
f 260/288/277 244/271/261 261/289/278
f 244/271/261 245/272/262 261/289/278
f 261/289/278 245/272/262 262/290/279
f 245/272/262 246/273/263 262/290/279
f 262/290/279 246/273/263 263/291/280
f 246/273/263 247/274/264 263/291/280
f 263/291/280 247/274/264 264/292/281
f 247/274/264 248/275/265 264/292/281
f 264/292/281 248/275/265 265/293/282
f 248/275/265 249/276/266 265/293/282
f 265/293/282 249/276/266 266/294/283
f 250/277/267 267/295/284 249/276/266
f 249/276/266 267/295/284 266/294/283
f 251/278/268 268/296/285 250/277/267
f 250/277/267 268/296/285 267/295/284
f 252/279/269 269/297/286 251/278/268
f 251/278/268 269/297/286 268/296/285
f 253/280/270 270/298/287 252/279/269
f 252/279/269 270/298/287 269/297/286
f 254/281/271 271/299/288 253/280/270
f 253/280/270 271/299/288 270/298/287
f 255/282/272 272/300/289 254/281/271
f 254/281/271 272/300/289 271/299/288
f 239/283/256 256/301/274 255/282/272
f 255/282/272 256/301/274 272/300/289
f 257/285/273 274/303/290 256/284/274
f 256/284/274 274/303/290 273/302/291
f 258/286/275 275/304/292 257/285/273
f 257/285/273 275/304/292 274/303/290
f 259/287/276 276/305/293 258/286/275
f 258/286/275 276/305/293 275/304/292
f 260/288/277 277/306/294 259/287/276
f 259/287/276 277/306/294 276/305/293
f 260/288/277 261/289/278 277/306/294
f 277/306/294 261/289/278 278/307/295
f 261/289/278 262/290/279 278/307/295
f 278/307/295 262/290/279 279/308/296
f 262/290/279 263/291/280 279/308/296
f 279/308/296 263/291/280 280/309/297
f 263/291/280 264/292/281 280/309/297
f 280/309/297 264/292/281 281/310/298
f 264/292/281 265/293/282 281/310/298
f 281/310/298 265/293/282 282/311/299
f 265/293/282 266/294/283 282/311/299
f 282/311/299 266/294/283 283/312/300
f 266/294/283 267/295/284 283/312/300
f 283/312/300 267/295/284 284/313/301
f 267/295/284 268/296/285 284/313/301
f 284/313/301 268/296/285 285/314/302
f 268/296/285 269/297/286 285/314/302
f 285/314/302 269/297/286 286/315/303
f 270/298/287 287/316/304 269/297/286
f 269/297/286 287/316/304 286/315/303
f 271/299/288 288/317/305 270/298/287
f 270/298/287 288/317/305 287/316/304
f 272/300/289 289/318/306 271/299/288
f 271/299/288 289/318/306 288/317/305
f 256/301/274 273/319/291 272/300/289
f 272/300/289 273/319/291 289/318/306
s 15
f 274/334/307 291/351/308 273/335/309
f 273/335/309 291/351/308 290/352/310
f 275/333/311 292/350/312 274/334/307
f 274/334/307 292/350/312 291/351/308
f 276/332/313 293/349/314 275/333/311
f 275/333/311 293/349/314 292/350/312
f 277/331/315 294/348/316 276/332/313
f 276/332/313 294/348/316 293/349/314
f 278/330/317 295/347/318 277/331/315
f 277/331/315 295/347/318 294/348/316
f 278/330/317 279/329/319 295/347/318
f 295/347/318 279/329/319 296/346/320
f 279/329/319 280/328/321 296/346/320
f 296/346/320 280/328/321 297/345/322
f 280/328/321 281/327/323 297/345/322
f 297/345/322 281/327/323 298/344/324
f 281/327/323 282/326/325 298/344/324
f 298/344/324 282/326/325 299/343/326
f 282/326/325 283/325/327 299/343/326
f 299/343/326 283/325/327 300/342/328
f 283/325/327 284/324/329 300/342/328
f 300/342/328 284/324/329 301/341/330
f 284/324/329 285/323/331 301/341/330
f 301/341/330 285/323/331 302/340/332
f 285/323/331 286/322/333 302/340/332
f 302/340/332 286/322/333 303/339/334
f 287/321/335 304/338/336 286/322/333
f 286/322/333 304/338/336 303/339/334
f 288/320/337 305/337/338 287/321/335
f 287/321/335 305/337/338 304/338/336
f 289/336/339 306/353/340 288/320/337
f 288/320/337 306/353/340 305/337/338
f 273/335/309 290/352/310 289/336/339
f 289/336/339 290/352/310 306/353/340
f 291/351/308 308/368/341 290/352/310
f 290/352/310 308/368/341 307/369/342
f 292/350/312 309/367/343 291/351/308
f 291/351/308 309/367/343 308/368/341
f 293/349/314 310/366/344 292/350/312
f 292/350/312 310/366/344 309/367/343
f 294/348/316 311/365/345 293/349/314
f 293/349/314 311/365/345 310/366/344
f 295/347/318 312/364/346 294/348/316
f 294/348/316 312/364/346 311/365/345
f 296/346/320 313/363/347 295/347/318
f 295/347/318 313/363/347 312/364/346
f 296/346/320 297/345/322 313/363/347
f 313/363/347 297/345/322 314/362/348
f 297/345/322 298/344/324 314/362/348
f 314/362/348 298/344/324 315/361/349
f 298/344/324 299/343/326 315/361/349
f 315/361/349 299/343/326 316/360/350
f 299/343/326 300/342/328 316/360/350
f 316/360/350 300/342/328 317/359/351
f 300/342/328 301/341/330 317/359/351
f 317/359/351 301/341/330 318/358/352
f 301/341/330 302/340/332 318/358/352
f 318/358/352 302/340/332 319/357/353
f 302/340/332 303/339/334 319/357/353
f 319/357/353 303/339/334 320/356/354
f 303/339/334 304/338/336 320/356/354
f 320/356/354 304/338/336 321/355/355
f 305/337/338 322/354/356 304/338/336
f 304/338/336 322/354/356 321/355/355
f 306/353/340 323/370/357 305/337/338
f 305/337/338 323/370/357 322/354/356
f 290/352/310 307/369/342 306/353/340
f 306/353/340 307/369/342 323/370/357
f 308/368/341 325/385/358 307/369/342
f 307/369/342 325/385/358 324/386/359
f 309/367/343 326/384/360 308/368/341
f 308/368/341 326/384/360 325/385/358
f 310/366/344 327/383/361 309/367/343
f 309/367/343 327/383/361 326/384/360
f 311/365/345 328/382/362 310/366/344
f 310/366/344 328/382/362 327/383/361
f 312/364/346 329/381/363 311/365/345
f 311/365/345 329/381/363 328/382/362
f 313/363/347 330/380/364 312/364/346
f 312/364/346 330/380/364 329/381/363
f 313/363/347 314/362/348 330/380/364
f 330/380/364 314/362/348 331/379/365
f 314/362/348 315/361/349 331/379/365
f 331/379/365 315/361/349 332/378/366
f 315/361/349 316/360/350 332/378/366
f 332/378/366 316/360/350 333/377/367
f 316/360/350 317/359/351 333/377/367
f 333/377/367 317/359/351 334/376/368
f 317/359/351 318/358/352 334/376/368
f 334/376/368 318/358/352 335/375/369
f 318/358/352 319/357/353 335/375/369
f 335/375/369 319/357/353 336/374/370
f 319/357/353 320/356/354 336/374/370
f 336/374/370 320/356/354 337/373/371
f 320/356/354 321/355/355 337/373/371
f 337/373/371 321/355/355 338/372/372
f 322/354/356 339/371/373 321/355/355
f 321/355/355 339/371/373 338/372/372
f 323/370/357 340/387/374 322/354/356
f 322/354/356 340/387/374 339/371/373
f 307/369/342 324/386/359 323/370/357
f 323/370/357 324/386/359 340/387/374
f 325/385/358 342/402/375 324/386/359
f 324/386/359 342/402/375 341/403/376
f 326/384/360 343/401/377 325/385/358
f 325/385/358 343/401/377 342/402/375
f 327/383/361 344/400/378 326/384/360
f 326/384/360 344/400/378 343/401/377
f 328/382/362 345/399/379 327/383/361
f 327/383/361 345/399/379 344/400/378
f 329/381/363 346/398/380 328/382/362
f 328/382/362 346/398/380 345/399/379
f 330/380/364 347/397/381 329/381/363
f 329/381/363 347/397/381 346/398/380
f 330/380/364 331/379/365 347/397/381
f 347/397/381 331/379/365 348/396/382
f 331/379/365 332/378/366 348/396/382
f 348/396/382 332/378/366 349/395/383
f 332/378/366 333/377/367 349/395/383
f 349/395/383 333/377/367 350/394/384
f 333/377/367 334/376/368 350/394/384
f 350/394/384 334/376/368 351/393/385
f 334/376/368 335/375/369 351/393/385
f 351/393/385 335/375/369 352/392/386
f 335/375/369 336/374/370 352/392/386
f 352/392/386 336/374/370 353/391/387
f 336/374/370 337/373/371 353/391/387
f 353/391/387 337/373/371 354/390/388
f 337/373/371 338/372/372 354/390/388
f 354/390/388 338/372/372 355/389/389
f 339/371/373 356/388/390 338/372/372
f 338/372/372 356/388/390 355/389/389
f 340/387/374 357/404/391 339/371/373
f 339/371/373 357/404/391 356/388/390
f 324/386/359 341/403/376 340/387/374
f 340/387/374 341/403/376 357/404/391
s 1
f 2/2/1 1/1/3 358/405/392
f 3/3/5 2/2/1 358/405/392
f 4/4/7 3/3/5 358/405/392
f 5/5/9 4/4/7 358/405/392
f 6/6/11 5/5/9 358/405/392
f 7/7/13 6/6/11 358/405/392
f 8/8/15 7/7/13 358/405/392
f 9/9/17 8/8/15 358/405/392
f 10/10/19 9/9/17 358/405/392
f 11/11/21 10/10/19 358/405/392
f 12/12/23 11/11/21 358/405/392
f 13/13/25 12/12/23 358/405/392
f 14/14/27 13/13/25 358/405/392
f 15/15/29 14/14/27 358/405/392
f 16/16/31 15/15/29 358/405/392
f 17/17/33 16/16/31 358/405/392
f 1/1/3 17/17/33 358/405/392
s 15
f 341/403/376 342/402/375 359/406/393
f 342/402/375 343/401/377 359/406/393
f 343/401/377 344/400/378 359/406/393
f 344/400/378 345/399/379 359/406/393
f 345/399/379 346/398/380 359/406/393
f 346/398/380 347/397/381 359/406/393
f 347/397/381 348/396/382 359/406/393
f 348/396/382 349/395/383 359/406/393
f 349/395/383 350/394/384 359/406/393
f 350/394/384 351/393/385 359/406/393
f 351/393/385 352/392/386 359/406/393
f 352/392/386 353/391/387 359/406/393
f 353/391/387 354/390/388 359/406/393
f 354/390/388 355/389/389 359/406/393
f 355/389/389 356/388/390 359/406/393
f 356/388/390 357/404/391 359/406/393
f 357/404/391 341/403/376 359/406/393
