# This file uses centimeters as units for non-parametric coordinates.

mtllib cha_cat_rightarm.mtl
g default
v 0.525622 0.035469 -0.012436
v 0.526175 0.030820 -0.023654
v 0.526872 0.023580 -0.032557
v 0.527491 0.014457 -0.038274
v 0.527570 0.004344 -0.040243
v 0.526788 -0.005769 -0.038274
v 0.525342 -0.014892 -0.032557
v 0.523715 -0.022132 -0.023654
v 0.522421 -0.026780 -0.012436
v 0.521928 -0.028382 0.000000
v 0.522421 -0.026780 0.012436
v 0.523715 -0.022132 0.023654
v 0.525342 -0.014892 0.032557
v 0.526788 -0.005769 0.038274
v 0.527570 0.004344 0.040243
v 0.527491 0.014457 0.038274
v 0.526872 0.023580 0.032557
v 0.526175 0.030820 0.023654
v 0.525622 0.035469 0.012436
v 0.525411 0.037071 0.000000
v 0.487328 0.082609 -0.031271
v 0.490135 0.070921 -0.059481
v 0.493121 0.052715 -0.081868
v 0.502714 0.029774 -0.096241
v 0.495413 0.004344 -0.101194
v 0.502231 -0.021086 -0.096241
v 0.490153 -0.044026 -0.081868
v 0.483211 -0.062232 -0.059481
v 0.476652 -0.073921 -0.031271
v 0.473950 -0.077949 0.000000
v 0.476652 -0.073921 0.031271
v 0.483211 -0.062232 0.059481
v 0.490153 -0.044026 0.081868
v 0.507602 -0.021086 0.096241
v 0.495482 0.004344 0.101194
v 0.508085 0.029774 0.096241
v 0.493132 0.052715 0.081868
v 0.490135 0.070921 0.059481
v 0.487328 0.082609 0.031271
v 0.486172 0.086637 0.000000
v 0.455851 0.097718 -0.037307
v 0.459406 0.083773 -0.070963
v 0.462919 0.062053 -0.097672
v 0.464742 0.034684 -0.114821
v 0.464874 0.004344 -0.120730
v 0.464561 -0.025995 -0.114821
v 0.460305 -0.053364 -0.097672
v 0.452094 -0.075085 -0.070963
v 0.443789 -0.089030 -0.037307
v 0.440272 -0.093818 0.000000
v 0.443789 -0.089030 0.037307
v 0.452094 -0.075085 0.070963
v 0.460305 -0.053364 0.097672
v 0.464561 -0.025995 0.114821
v 0.464874 0.004344 0.120730
v 0.464742 0.034684 0.114821
v 0.462919 0.062053 0.097672
v 0.459406 0.083773 0.070963
v 0.455851 0.097718 0.037307
v 0.454347 0.102524 0.000000
v 0.361893 0.090675 -0.034493
v 0.363122 0.077782 -0.065611
v 0.363971 0.057700 -0.090305
v 0.364023 0.032395 -0.106160
v 0.364023 0.004361 -0.111623
v 0.364023 -0.023236 -0.106160
v 0.363902 -0.047514 -0.090305
v 0.361918 -0.066132 -0.065611
v 0.359046 -0.077618 -0.034493
v 0.357706 -0.081463 0.000000
v 0.359046 -0.077618 0.034493
v 0.361918 -0.066132 0.065611
v 0.363902 -0.047514 0.090305
v 0.364023 -0.023236 0.106160
v 0.364023 0.004361 0.111623
v 0.364023 0.032395 0.106160
v 0.363971 0.057700 0.090305
v 0.363122 0.077782 0.065611
v 0.361893 0.090675 0.034493
v 0.361320 0.095117 0.000000
v 0.256936 0.081590 -0.030864
v 0.256936 0.070054 -0.058706
v 0.256936 0.052182 -0.080802
v 0.256936 0.030021 -0.094988
v 0.256936 0.006028 -0.099877
v 0.256936 -0.017224 -0.094988
v 0.256936 -0.037431 -0.080802
v 0.256936 -0.052855 -0.058706
v 0.256936 -0.062435 -0.030864
v 0.256936 -0.065673 0.000000
v 0.256936 -0.062435 0.030863
v 0.256936 -0.052855 0.058706
v 0.256936 -0.037431 0.080802
v 0.256936 -0.017224 0.094988
v 0.256936 0.006028 0.099877
v 0.256936 0.030021 0.094988
v 0.256936 0.052181 0.080802
v 0.256936 0.070054 0.058706
v 0.256936 0.081590 0.030863
v 0.256936 0.085565 0.000000
v 0.147013 0.071121 -0.026681
v 0.147013 0.061148 -0.050750
v 0.147013 0.045614 -0.069851
v 0.147013 0.026042 -0.082114
v 0.147013 0.004576 -0.086340
v 0.147013 -0.016499 -0.082114
v 0.147013 -0.035103 -0.069851
v 0.147013 -0.049545 -0.050750
v 0.147013 -0.058648 -0.026681
v 0.147013 -0.061752 0.000000
v 0.147013 -0.058648 0.026681
v 0.147013 -0.049545 0.050750
v 0.147013 -0.035103 0.069851
v 0.147013 -0.016499 0.082114
v 0.147013 0.004576 0.086340
v 0.147013 0.026042 0.082114
v 0.147013 0.045614 0.069851
v 0.147013 0.061148 0.050750
v 0.147013 0.071121 0.026681
v 0.147013 0.074557 0.000000
v 0.001510 0.044232 -0.015937
v 0.001510 0.038274 -0.030314
v 0.001510 0.028996 -0.041723
v 0.001510 0.017304 -0.049049
v 0.001510 0.004344 -0.051573
v 0.001510 -0.008616 -0.049049
v 0.001510 -0.020307 -0.041723
v 0.001510 -0.029586 -0.030314
v 0.001510 -0.035543 -0.015937
v 0.001510 -0.037596 0.000000
v 0.001510 -0.035543 0.015937
v 0.001510 -0.029586 0.030314
v 0.001510 -0.020307 0.041723
v 0.001510 -0.008616 0.049049
v 0.001510 0.004344 0.051573
v 0.001510 0.017304 0.049049
v 0.001510 0.028996 0.041723
v 0.001510 0.038274 0.030314
v 0.001510 0.044232 0.015937
v 0.001510 0.046284 0.000000
v -0.012301 0.032568 -0.011277
v -0.012301 0.028353 -0.021450
v -0.012301 0.021788 -0.029523
v -0.012301 0.013515 -0.034707
v -0.012301 0.004344 -0.036493
v -0.012301 -0.004826 -0.034707
v -0.012301 -0.013099 -0.029523
v -0.012301 -0.019665 -0.021450
v -0.012301 -0.023880 -0.011277
v -0.012301 -0.025332 0.000000
v -0.012301 -0.023880 0.011277
v -0.012301 -0.019665 0.021450
v -0.012301 -0.013099 0.029523
v -0.012301 -0.004826 0.034707
v -0.012301 0.004344 0.036493
v -0.012301 0.013515 0.034707
v -0.012301 0.021788 0.029523
v -0.012301 0.028353 0.021450
v -0.012301 0.032568 0.011277
v -0.012301 0.034021 0.000000
v -0.022239 0.020756 -0.006558
v -0.022239 0.018305 -0.012472
v -0.022239 0.014487 -0.017167
v -0.022239 0.009676 -0.020181
v -0.022239 0.004344 -0.021220
v -0.022239 -0.000988 -0.020181
v -0.022239 -0.005799 -0.017167
v -0.022239 -0.009616 -0.012472
v -0.022239 -0.012067 -0.006558
v -0.022239 -0.012912 0.000000
v -0.022239 -0.012067 0.006557
v -0.022239 -0.009616 0.012472
v -0.022239 -0.005799 0.017167
v -0.022239 -0.000988 0.020181
v -0.022239 0.004344 0.021219
v -0.022239 0.009676 0.020181
v -0.022239 0.014487 0.017167
v -0.022239 0.018305 0.012472
v -0.022239 0.020756 0.006557
v -0.022239 0.021600 0.000000
v 0.531483 0.004344 0.000000
v -0.027562 0.004344 0.000000
vt 0.521671 0.061862
vt 0.543342 0.046117
vt 0.525475 0.069329
vt 0.550951 0.061052
vt 0.515745 0.055936
vt 0.531490 0.034265
vt 0.508278 0.052131
vt 0.516555 0.026656
vt 0.500000 0.050820
vt 0.500000 0.024033
vt 0.491722 0.052131
vt 0.483445 0.026656
vt 0.484255 0.055936
vt 0.468510 0.034265
vt 0.478329 0.061862
vt 0.456658 0.046117
vt 0.474525 0.069329
vt 0.449049 0.061052
vt 0.473214 0.077606
vt 0.446427 0.077606
vt 0.474525 0.085884
vt 0.449049 0.094161
vt 0.478329 0.093351
vt 0.456658 0.109096
vt 0.484255 0.099277
vt 0.468510 0.120948
vt 0.491722 0.103082
vt 0.483445 0.128557
vt 0.500000 0.104393
vt 0.500000 0.131180
vt 0.508278 0.103082
vt 0.516555 0.128557
vt 0.515745 0.099277
vt 0.531490 0.120948
vt 0.521671 0.093351
vt 0.543342 0.109096
vt 0.525475 0.085884
vt 0.550951 0.094161
vt 0.526786 0.077606
vt 0.553573 0.077606
vt 0.565012 0.030372
vt 0.576427 0.052774
vt 0.547235 0.012594
vt 0.524833 0.001180
vt 0.500000 -0.002753
vt 0.475167 0.001180
vt 0.452766 0.012594
vt 0.434988 0.030372
vt 0.423573 0.052774
vt 0.419640 0.077606
vt 0.423573 0.102439
vt 0.434988 0.124840
vt 0.452766 0.142619
vt 0.475167 0.154033
vt 0.500000 0.161766
vt 0.524833 0.154033
vt 0.547234 0.142619
vt 0.565012 0.124840
vt 0.576427 0.102439
vt 0.580360 0.077606
vt 0.341265 0.161766
vt 0.341265 0.294044
vt 0.323628 0.161766
vt 0.323628 0.294044
vt 0.358903 0.161766
vt 0.358903 0.294044
vt 0.376540 0.161766
vt 0.376540 0.294044
vt 0.394177 0.161766
vt 0.394177 0.294044
vt 0.411814 0.161766
vt 0.411814 0.294044
vt 0.429451 0.161766
vt 0.429451 0.294044
vt 0.447088 0.161766
vt 0.447088 0.294044
vt 0.464726 0.161766
vt 0.464726 0.294044
vt 0.482363 0.161766
vt 0.482363 0.294044
vt 0.500000 0.161766
vt 0.500000 0.294044
vt 0.517637 0.161766
vt 0.517637 0.294044
vt 0.535274 0.161766
vt 0.535274 0.294044
vt 0.552912 0.161766
vt 0.552912 0.294044
vt 0.570549 0.161766
vt 0.570549 0.294044
vt 0.588186 0.161766
vt 0.588186 0.294044
vt 0.605823 0.161766
vt 0.605823 0.294044
vt 0.623460 0.161766
vt 0.623460 0.294044
vt 0.641098 0.161766
vt 0.641098 0.294044
vt 0.658735 0.161766
vt 0.658735 0.294044
vt 0.676372 0.161766
vt 0.676372 0.294044
vt 0.341265 0.426323
vt 0.323628 0.426323
vt 0.358903 0.426323
vt 0.376540 0.426323
vt 0.394177 0.426323
vt 0.411814 0.426323
vt 0.429451 0.426323
vt 0.447088 0.426323
vt 0.464726 0.426323
vt 0.482363 0.426323
vt 0.500000 0.426323
vt 0.517637 0.426323
vt 0.535274 0.426323
vt 0.552912 0.426323
vt 0.570549 0.426323
vt 0.588186 0.426323
vt 0.605823 0.426323
vt 0.623460 0.426323
vt 0.641098 0.426323
vt 0.658735 0.426323
vt 0.676372 0.426323
vt 0.323628 0.558602
vt 0.341265 0.558602
vt 0.358903 0.558602
vt 0.376540 0.558602
vt 0.394177 0.558602
vt 0.411814 0.558602
vt 0.429451 0.558602
vt 0.447088 0.558602
vt 0.464726 0.558602
vt 0.482363 0.558602
vt 0.500000 0.558602
vt 0.517637 0.558602
vt 0.535274 0.558602
vt 0.552912 0.558602
vt 0.570549 0.558602
vt 0.588186 0.558602
vt 0.605823 0.558602
vt 0.623460 0.558602
vt 0.641098 0.558602
vt 0.658735 0.558602
vt 0.676372 0.558602
vt 0.323628 0.690881
vt 0.341265 0.690881
vt 0.358903 0.690881
vt 0.376540 0.690881
vt 0.394177 0.690881
vt 0.411814 0.690881
vt 0.429451 0.690881
vt 0.447088 0.690881
vt 0.464726 0.690881
vt 0.482363 0.690881
vt 0.500000 0.690881
vt 0.517637 0.690881
vt 0.535274 0.690881
vt 0.552912 0.690881
vt 0.570549 0.690881
vt 0.588186 0.690881
vt 0.605823 0.690881
vt 0.623460 0.690881
vt 0.641098 0.690881
vt 0.658735 0.690881
vt 0.676372 0.690881
vt 0.648603 0.892034
vt 0.626409 0.935591
vt 0.599068 0.875939
vt 0.584273 0.904978
vt 0.591841 0.970159
vt 0.561228 0.928023
vt 0.548284 0.992353
vt 0.532189 0.942818
vt 0.500000 1.000000
vt 0.500000 0.947917
vt 0.451716 0.992353
vt 0.467811 0.942818
vt 0.408159 0.970159
vt 0.438772 0.928023
vt 0.373591 0.935591
vt 0.415727 0.904978
vt 0.351397 0.892034
vt 0.400932 0.875939
vt 0.343750 0.843750
vt 0.395833 0.843750
vt 0.351397 0.795466
vt 0.400932 0.811561
vt 0.373591 0.751909
vt 0.415727 0.782522
vt 0.408159 0.717341
vt 0.438772 0.759477
vt 0.431872 0.701671
vt 0.467811 0.744682
vt 0.500000 0.690881
vt 0.500000 0.739583
vt 0.568128 0.701671
vt 0.532189 0.744682
vt 0.591842 0.717341
vt 0.561228 0.759477
vt 0.626409 0.751908
vt 0.584273 0.782522
vt 0.648603 0.795466
vt 0.599068 0.811561
vt 0.656250 0.843750
vt 0.604167 0.843750
vt 0.549534 0.859845
vt 0.542136 0.874364
vt 0.530614 0.885886
vt 0.516095 0.893284
vt 0.500000 0.895833
vt 0.483905 0.893284
vt 0.469386 0.885886
vt 0.457864 0.874364
vt 0.450466 0.859845
vt 0.447917 0.843750
vt 0.450466 0.827655
vt 0.457864 0.813136
vt 0.469386 0.801614
vt 0.483905 0.794216
vt 0.500000 0.791667
vt 0.516095 0.794216
vt 0.530614 0.801614
vt 0.542136 0.813136
vt 0.549534 0.827655
vt 0.552083 0.843750
vt 0.500000 0.077606
vt 0.500000 0.843750
vn 0.808713 0.556423 -0.190726
vn 0.808713 0.556423 -0.190726
vn 0.808713 0.556423 -0.190726
vn 0.865826 0.489820 -0.102088
vn 0.692227 0.650748 -0.312009
vn 0.665504 0.730585 -0.152808
vn 0.908275 0.346045 -0.235137
vn 0.699932 0.565448 -0.436308
vn 0.884803 0.422230 -0.197093
vn 0.884803 0.422230 -0.197093
vn 0.699932 0.565448 -0.436308
vn 0.692227 0.650748 -0.312009
vn 0.954774 0.139409 -0.262626
vn 0.751658 0.274450 -0.599740
vn 0.908275 0.346045 -0.235137
vn 0.908275 0.346045 -0.235137
vn 0.751658 0.274450 -0.599740
vn 0.699932 0.565448 -0.436308
vn 0.954774 0.139409 -0.262626
vn 0.940258 -0.023237 -0.339670
vn 0.751658 0.274450 -0.599740
vn 0.751658 0.274450 -0.599740
vn 0.940258 -0.023237 -0.339670
vn 0.739473 -0.005749 -0.673162
vn 0.946852 -0.207366 -0.245908
vn 0.750008 -0.312914 -0.582729
vn 0.940258 -0.023237 -0.339670
vn 0.940258 -0.023237 -0.339670
vn 0.750008 -0.312914 -0.582729
vn 0.739473 -0.005749 -0.673162
vn 0.946852 -0.207366 -0.245908
vn 0.884046 -0.417492 -0.210152
vn 0.750008 -0.312914 -0.582729
vn 0.750008 -0.312914 -0.582729
vn 0.884046 -0.417492 -0.210152
vn 0.678401 -0.621508 -0.391791
vn 0.884046 -0.417492 -0.210152
vn 0.846652 -0.505146 -0.167356
vn 0.678401 -0.621508 -0.391791
vn 0.678401 -0.621508 -0.391791
vn 0.846652 -0.505146 -0.167356
vn 0.653967 -0.712594 -0.254042
vn 0.846652 -0.505146 -0.167356
vn 0.814257 -0.574918 -0.080344
vn 0.653967 -0.712594 -0.254042
vn 0.653967 -0.712594 -0.254042
vn 0.814257 -0.574918 -0.080344
vn 0.617711 -0.778288 -0.112699
vn 0.814257 -0.574918 -0.080344
vn 0.792822 -0.609453 0.000000
vn 0.617711 -0.778288 -0.112699
vn 0.617711 -0.778288 -0.112699
vn 0.792822 -0.609453 0.000000
vn 0.605120 -0.796134 0.000000
vn 0.814257 -0.574918 0.080344
vn 0.617711 -0.778288 0.112700
vn 0.792822 -0.609453 0.000000
vn 0.792822 -0.609453 0.000000
vn 0.617711 -0.778288 0.112700
vn 0.605120 -0.796134 0.000000
vn 0.846652 -0.505146 0.167356
vn 0.653967 -0.712594 0.254042
vn 0.814257 -0.574918 0.080344
vn 0.814257 -0.574918 0.080344
vn 0.653967 -0.712594 0.254042
vn 0.617711 -0.778288 0.112700
vn 0.880114 -0.440853 0.176206
vn 0.654540 -0.658643 0.371169
vn 0.846652 -0.505146 0.167356
vn 0.846652 -0.505146 0.167356
vn 0.654540 -0.658643 0.371169
vn 0.653967 -0.712594 0.254042
vn 0.961700 -0.189981 0.197588
vn 0.748341 -0.313377 0.584621
vn 0.880114 -0.440853 0.176206
vn 0.880114 -0.440853 0.176206
vn 0.748341 -0.313377 0.584621
vn 0.654540 -0.658643 0.371169
vn 0.961700 -0.189981 0.197588
vn 0.949022 -0.023480 0.314335
vn 0.748341 -0.313377 0.584621
vn 0.748341 -0.313377 0.584621
vn 0.949022 -0.023480 0.314335
vn 0.715404 -0.005502 0.698689
vn 0.969348 0.120595 0.214060
vn 0.749820 0.275532 0.601542
vn 0.949022 -0.023480 0.314335
vn 0.949022 -0.023480 0.314335
vn 0.749820 0.275532 0.601542
vn 0.715404 -0.005502 0.698689
vn 0.969348 0.120595 0.214060
vn 0.906741 0.370684 0.201033
vn 0.749820 0.275532 0.601542
vn 0.749820 0.275532 0.601542
vn 0.906741 0.370684 0.201033
vn 0.676745 0.608355 0.414632
vn 0.906741 0.370684 0.201033
vn 0.884809 0.422249 0.197024
vn 0.676745 0.608355 0.414632
vn 0.676745 0.608355 0.414632
vn 0.884809 0.422249 0.197024
vn 0.692192 0.650818 0.311940
vn 0.884809 0.422249 0.197024
vn 0.865826 0.489820 0.102089
vn 0.692192 0.650818 0.311940
vn 0.692192 0.650818 0.311940
vn 0.865826 0.489820 0.102089
vn 0.665504 0.730585 0.152809
vn 0.865826 0.489820 0.102089
vn 0.850264 0.526357 0.000000
vn 0.665504 0.730585 0.152809
vn 0.665504 0.730585 0.152809
vn 0.850264 0.526357 0.000000
vn 0.655000 0.755629 0.000000
vn 0.865826 0.489820 -0.102088
vn 0.665504 0.730585 -0.152808
vn 0.850264 0.526357 0.000000
vn 0.850264 0.526357 0.000000
vn 0.665504 0.730585 -0.152808
vn 0.655000 0.755629 0.000000
vn 0.692227 0.650748 -0.312009
vn 0.477196 0.778806 -0.407118
vn 0.665504 0.730585 -0.152808
vn 0.665504 0.730585 -0.152808
vn 0.477196 0.778806 -0.407118
vn 0.454585 0.868017 -0.199748
vn 0.699932 0.565448 -0.436308
vn 0.508579 0.601257 -0.616309
vn 0.692227 0.650748 -0.312009
vn 0.692227 0.650748 -0.312009
vn 0.508579 0.601257 -0.616309
vn 0.477196 0.778806 -0.407118
vn 0.751658 0.274450 -0.599740
vn 0.486819 0.342825 -0.803417
vn 0.699932 0.565448 -0.436308
vn 0.699932 0.565448 -0.436308
vn 0.486819 0.342825 -0.803417
vn 0.508579 0.601257 -0.616309
vn 0.751658 0.274450 -0.599740
vn 0.739473 -0.005749 -0.673162
vn 0.486819 0.342825 -0.803417
vn 0.486819 0.342825 -0.803417
vn 0.739473 -0.005749 -0.673162
vn 0.538870 -0.001734 -0.842387
vn 0.750008 -0.312914 -0.582729
vn 0.488321 -0.367396 -0.791557
vn 0.739473 -0.005749 -0.673162
vn 0.739473 -0.005749 -0.673162
vn 0.488321 -0.367396 -0.791557
vn 0.538870 -0.001734 -0.842387
vn 0.750008 -0.312914 -0.582729
vn 0.678401 -0.621508 -0.391791
vn 0.488321 -0.367396 -0.791557
vn 0.488321 -0.367396 -0.791557
vn 0.678401 -0.621508 -0.391791
vn 0.505814 -0.643351 -0.574676
vn 0.678401 -0.621508 -0.391791
vn 0.653967 -0.712594 -0.254042
vn 0.505814 -0.643351 -0.574676
vn 0.505814 -0.643351 -0.574676
vn 0.653967 -0.712594 -0.254042
vn 0.463969 -0.813221 -0.351291
vn 0.653967 -0.712594 -0.254042
vn 0.617711 -0.778288 -0.112699
vn 0.463969 -0.813221 -0.351291
vn 0.463969 -0.813221 -0.351291
vn 0.617711 -0.778288 -0.112699
vn 0.435770 -0.885513 -0.161158
vn 0.617711 -0.778288 -0.112699
vn 0.605120 -0.796134 0.000000
vn 0.435770 -0.885513 -0.161158
vn 0.435770 -0.885513 -0.161158
vn 0.605120 -0.796134 0.000000
vn 0.426262 -0.904600 0.000000
vn 0.617711 -0.778288 0.112700
vn 0.435770 -0.885513 0.161158
vn 0.605120 -0.796134 0.000000
vn 0.605120 -0.796134 0.000000
vn 0.435770 -0.885513 0.161158
vn 0.426262 -0.904600 0.000000
vn 0.653967 -0.712594 0.254042
vn 0.463969 -0.813220 0.351291
vn 0.617711 -0.778288 0.112700
vn 0.617711 -0.778288 0.112700
vn 0.463969 -0.813220 0.351291
vn 0.435770 -0.885513 0.161158
vn 0.654540 -0.658643 0.371169
vn 0.505814 -0.643351 0.574676
vn 0.653967 -0.712594 0.254042
vn 0.653967 -0.712594 0.254042
vn 0.505814 -0.643351 0.574676
vn 0.463969 -0.813220 0.351291
vn 0.748341 -0.313377 0.584621
vn 0.459220 -0.373116 0.806165
vn 0.654540 -0.658643 0.371169
vn 0.654540 -0.658643 0.371169
vn 0.459220 -0.373116 0.806165
vn 0.505814 -0.643351 0.574676
vn 0.748341 -0.313377 0.584621
vn 0.715404 -0.005502 0.698689
vn 0.459220 -0.373116 0.806165
vn 0.459220 -0.373116 0.806165
vn 0.715404 -0.005502 0.698689
vn 0.538012 -0.001732 0.842936
vn 0.749820 0.275532 0.601542
vn 0.458116 0.348623 0.817674
vn 0.715404 -0.005502 0.698689
vn 0.715404 -0.005502 0.698689
vn 0.458116 0.348623 0.817674
vn 0.538012 -0.001732 0.842936
vn 0.749820 0.275532 0.601542
vn 0.676745 0.608355 0.414632
vn 0.458116 0.348623 0.817674
vn 0.458116 0.348623 0.817674
vn 0.676745 0.608355 0.414632
vn 0.508477 0.601317 0.616335
vn 0.676745 0.608355 0.414632
vn 0.692192 0.650818 0.311940
vn 0.508477 0.601317 0.616335
vn 0.508477 0.601317 0.616335
vn 0.692192 0.650818 0.311940
vn 0.477195 0.778806 0.407118
vn 0.692192 0.650818 0.311940
vn 0.665504 0.730585 0.152809
vn 0.477195 0.778806 0.407118
vn 0.477195 0.778806 0.407118
vn 0.665504 0.730585 0.152809
vn 0.454584 0.868017 0.199749
vn 0.665504 0.730585 0.152809
vn 0.655000 0.755629 0.000000
vn 0.454584 0.868017 0.199749
vn 0.454584 0.868017 0.199749
vn 0.655000 0.755629 0.000000
vn 0.446625 0.894721 0.000001
vn 0.665504 0.730585 -0.152808
vn 0.454585 0.868017 -0.199748
vn 0.655000 0.755629 0.000000
vn 0.655000 0.755629 0.000000
vn 0.454585 0.868017 -0.199748
vn 0.446625 0.894721 0.000001
vn -0.081049 0.851699 -0.517725
vn -0.088667 0.856670 -0.508187
vn -0.079332 0.961742 -0.262219
vn -0.079332 0.961742 -0.262219
vn -0.088667 0.856670 -0.508187
vn -0.086146 0.962997 -0.255373
vn -0.084198 0.656349 -0.749745
vn -0.092278 0.663551 -0.742418
vn -0.081049 0.851699 -0.517725
vn -0.081049 0.851699 -0.517725
vn -0.092278 0.663551 -0.742418
vn -0.088667 0.856670 -0.508187
vn -0.087922 0.367174 -0.925988
vn -0.096120 0.371073 -0.923616
vn -0.084198 0.656349 -0.749745
vn -0.084198 0.656349 -0.749745
vn -0.096120 0.371073 -0.923616
vn -0.092278 0.663551 -0.742418
vn -0.090325 0.002750 -0.995909
vn -0.100024 0.000713 -0.994985
vn -0.087922 0.367174 -0.925988
vn -0.087922 0.367174 -0.925988
vn -0.100024 0.000713 -0.994985
vn -0.096120 0.371073 -0.923616
vn -0.089875 -0.359973 -0.928624
vn -0.106349 -0.376193 -0.920418
vn -0.090325 0.002750 -0.995909
vn -0.090325 0.002750 -0.995909
vn -0.106349 -0.376193 -0.920418
vn -0.100024 0.000713 -0.994985
vn -0.089875 -0.359973 -0.928624
vn -0.093693 -0.646672 -0.756992
vn -0.106349 -0.376193 -0.920418
vn -0.106349 -0.376193 -0.920418
vn -0.093693 -0.646672 -0.756992
vn -0.118170 -0.677063 -0.726376
vn -0.093693 -0.646672 -0.756992
vn -0.107959 -0.841383 -0.529546
vn -0.118170 -0.677063 -0.726376
vn -0.118170 -0.677063 -0.726376
vn -0.107959 -0.841383 -0.529546
vn -0.133885 -0.865144 -0.483323
vn -0.107959 -0.841383 -0.529546
vn -0.129535 -0.953897 -0.270743
vn -0.133885 -0.865144 -0.483323
vn -0.133885 -0.865144 -0.483323
vn -0.129535 -0.953897 -0.270743
vn -0.146322 -0.960743 -0.235717
vn -0.129535 -0.953897 -0.270743
vn -0.141280 -0.989970 0.000000
vn -0.146322 -0.960743 -0.235717
vn -0.146322 -0.960743 -0.235717
vn -0.141280 -0.989970 0.000000
vn -0.150168 -0.988661 0.000000
vn -0.129535 -0.953897 0.270743
vn -0.146322 -0.960743 0.235717
vn -0.141280 -0.989970 0.000000
vn -0.141280 -0.989970 0.000000
vn -0.146322 -0.960743 0.235717
vn -0.150168 -0.988661 0.000000
vn -0.107959 -0.841383 0.529547
vn -0.133885 -0.865143 0.483324
vn -0.129535 -0.953897 0.270743
vn -0.129535 -0.953897 0.270743
vn -0.133885 -0.865143 0.483324
vn -0.146322 -0.960743 0.235717
vn -0.093693 -0.646672 0.756992
vn -0.118170 -0.677062 0.726376
vn -0.107959 -0.841383 0.529547
vn -0.107959 -0.841383 0.529547
vn -0.118170 -0.677062 0.726376
vn -0.133885 -0.865143 0.483324
vn -0.089875 -0.359973 0.928624
vn -0.106349 -0.376192 0.920418
vn -0.093693 -0.646672 0.756992
vn -0.093693 -0.646672 0.756992
vn -0.106349 -0.376192 0.920418
vn -0.118170 -0.677062 0.726376
vn -0.089875 -0.359973 0.928624
vn -0.090325 0.002750 0.995909
vn -0.106349 -0.376192 0.920418
vn -0.106349 -0.376192 0.920418
vn -0.090325 0.002750 0.995909
vn -0.100024 0.000713 0.994985
vn -0.090325 0.002750 0.995909
vn -0.087922 0.367174 0.925988
vn -0.100024 0.000713 0.994985
vn -0.100024 0.000713 0.994985
vn -0.087922 0.367174 0.925988
vn -0.096120 0.371073 0.923616
vn -0.087922 0.367174 0.925988
vn -0.084198 0.656349 0.749744
vn -0.096120 0.371073 0.923616
vn -0.096120 0.371073 0.923616
vn -0.084198 0.656349 0.749744
vn -0.092278 0.663552 0.742418
vn -0.084198 0.656349 0.749744
vn -0.081049 0.851699 0.517725
vn -0.092278 0.663552 0.742418
vn -0.092278 0.663552 0.742418
vn -0.081049 0.851699 0.517725
vn -0.088667 0.856670 0.508187
vn -0.081049 0.851699 0.517725
vn -0.079332 0.961742 0.262220
vn -0.088667 0.856670 0.508187
vn -0.088667 0.856670 0.508187
vn -0.079332 0.961742 0.262220
vn -0.086146 0.962997 0.255374
vn -0.079332 0.961742 0.262220
vn -0.078882 0.996884 0.000001
vn -0.086146 0.962997 0.255374
vn -0.086146 0.962997 0.255374
vn -0.078882 0.996884 0.000001
vn -0.085289 0.996356 0.000001
vn -0.079332 0.961742 -0.262219
vn -0.086146 0.962997 -0.255373
vn -0.078882 0.996884 0.000001
vn -0.078882 0.996884 0.000001
vn -0.086146 0.962997 -0.255373
vn -0.085289 0.996356 0.000001
vn -0.088667 0.856670 -0.508187
vn -0.100737 0.857072 -0.505252
vn -0.086146 0.962997 -0.255373
vn -0.086146 0.962997 -0.255373
vn -0.100737 0.857072 -0.505252
vn -0.096751 0.962249 -0.254393
vn -0.092278 0.663551 -0.742418
vn -0.106614 0.667356 -0.737068
vn -0.088667 0.856670 -0.508187
vn -0.088667 0.856670 -0.508187
vn -0.106614 0.667356 -0.737068
vn -0.100737 0.857072 -0.505252
vn -0.096120 0.371073 -0.923616
vn -0.112655 0.379761 -0.918199
vn -0.092278 0.663551 -0.742418
vn -0.092278 0.663551 -0.742418
vn -0.112655 0.379761 -0.918199
vn -0.106614 0.667356 -0.737068
vn -0.100024 0.000713 -0.994985
vn -0.115583 0.003622 -0.993291
vn -0.096120 0.371073 -0.923616
vn -0.096120 0.371073 -0.923616
vn -0.115583 0.003622 -0.993291
vn -0.112655 0.379761 -0.918199
vn -0.106349 -0.376193 -0.920418
vn -0.113188 -0.391107 -0.913359
vn -0.100024 0.000713 -0.994985
vn -0.100024 0.000713 -0.994985
vn -0.113188 -0.391107 -0.913359
vn -0.115583 0.003622 -0.993291
vn -0.118170 -0.677063 -0.726376
vn -0.106793 -0.701225 -0.704896
vn -0.106349 -0.376193 -0.920418
vn -0.106349 -0.376193 -0.920418
vn -0.106793 -0.701225 -0.704896
vn -0.113188 -0.391107 -0.913359
vn -0.133885 -0.865144 -0.483323
vn -0.100432 -0.884780 -0.455058
vn -0.118170 -0.677063 -0.726376
vn -0.118170 -0.677063 -0.726376
vn -0.100432 -0.884780 -0.455058
vn -0.106793 -0.701225 -0.704896
vn -0.146322 -0.960743 -0.235717
vn -0.097366 -0.970763 -0.219407
vn -0.133885 -0.865144 -0.483323
vn -0.133885 -0.865144 -0.483323
vn -0.097366 -0.970763 -0.219407
vn -0.100432 -0.884780 -0.455058
vn -0.146322 -0.960743 -0.235717
vn -0.150168 -0.988661 0.000000
vn -0.097366 -0.970763 -0.219407
vn -0.097366 -0.970763 -0.219407
vn -0.150168 -0.988661 0.000000
vn -0.096032 -0.995378 0.000000
vn -0.146322 -0.960743 0.235717
vn -0.097366 -0.970763 0.219408
vn -0.150168 -0.988661 0.000000
vn -0.150168 -0.988661 0.000000
vn -0.097366 -0.970763 0.219408
vn -0.096032 -0.995378 0.000000
vn -0.146322 -0.960743 0.235717
vn -0.133885 -0.865143 0.483324
vn -0.097366 -0.970763 0.219408
vn -0.097366 -0.970763 0.219408
vn -0.133885 -0.865143 0.483324
vn -0.100432 -0.884780 0.455058
vn -0.133885 -0.865143 0.483324
vn -0.118170 -0.677062 0.726376
vn -0.100432 -0.884780 0.455058
vn -0.100432 -0.884780 0.455058
vn -0.118170 -0.677062 0.726376
vn -0.106793 -0.701225 0.704897
vn -0.118170 -0.677062 0.726376
vn -0.106349 -0.376192 0.920418
vn -0.106793 -0.701225 0.704897
vn -0.106793 -0.701225 0.704897
vn -0.106349 -0.376192 0.920418
vn -0.113188 -0.391107 0.913359
vn -0.106349 -0.376192 0.920418
vn -0.100024 0.000713 0.994985
vn -0.113188 -0.391107 0.913359
vn -0.113188 -0.391107 0.913359
vn -0.100024 0.000713 0.994985
vn -0.115583 0.003622 0.993291
vn -0.100024 0.000713 0.994985
vn -0.096120 0.371073 0.923616
vn -0.115583 0.003622 0.993291
vn -0.115583 0.003622 0.993291
vn -0.096120 0.371073 0.923616
vn -0.112655 0.379762 0.918199
vn -0.096120 0.371073 0.923616
vn -0.092278 0.663552 0.742418
vn -0.112655 0.379762 0.918199
vn -0.112655 0.379762 0.918199
vn -0.092278 0.663552 0.742418
vn -0.106753 0.668342 0.736154
vn -0.092278 0.663552 0.742418
vn -0.088667 0.856670 0.508187
vn -0.106753 0.668342 0.736154
vn -0.106753 0.668342 0.736154
vn -0.088667 0.856670 0.508187
vn -0.100807 0.858117 0.503462
vn -0.088667 0.856670 0.508187
vn -0.086146 0.962997 0.255374
vn -0.100807 0.858117 0.503462
vn -0.100807 0.858117 0.503462
vn -0.086146 0.962997 0.255374
vn -0.096726 0.962774 0.252411
vn -0.086146 0.962997 0.255374
vn -0.085289 0.996356 0.000001
vn -0.096726 0.962774 0.252411
vn -0.096726 0.962774 0.252411
vn -0.085289 0.996356 0.000001
vn -0.095393 0.995439 -0.001002
vn -0.086146 0.962997 -0.255373
vn -0.096751 0.962249 -0.254393
vn -0.085289 0.996356 0.000001
vn -0.085289 0.996356 0.000001
vn -0.096751 0.962249 -0.254393
vn -0.095393 0.995439 -0.001002
vn -0.096751 0.962249 -0.254393
vn -0.100737 0.857072 -0.505252
vn -0.152371 0.954838 -0.255083
vn -0.152371 0.954838 -0.255083
vn -0.100737 0.857072 -0.505252
vn -0.159483 0.848527 -0.504547
vn -0.100737 0.857072 -0.505252
vn -0.106614 0.667356 -0.737068
vn -0.159483 0.848527 -0.504547
vn -0.159483 0.848527 -0.504547
vn -0.106614 0.667356 -0.737068
vn -0.170130 0.654572 -0.736608
vn -0.106614 0.667356 -0.737068
vn -0.112655 0.379761 -0.918199
vn -0.170130 0.654572 -0.736608
vn -0.170130 0.654572 -0.736608
vn -0.112655 0.379761 -0.918199
vn -0.180332 0.363588 -0.913939
vn -0.112655 0.379761 -0.918199
vn -0.115583 0.003622 -0.993291
vn -0.180332 0.363588 -0.913939
vn -0.180332 0.363588 -0.913939
vn -0.115583 0.003622 -0.993291
vn -0.183035 -0.005007 -0.983094
vn -0.115583 0.003622 -0.993291
vn -0.113188 -0.391107 -0.913359
vn -0.183035 -0.005007 -0.983094
vn -0.183035 -0.005007 -0.983094
vn -0.113188 -0.391107 -0.913359
vn -0.172500 -0.383786 -0.907167
vn -0.113188 -0.391107 -0.913359
vn -0.106793 -0.701225 -0.704896
vn -0.172500 -0.383786 -0.907167
vn -0.172500 -0.383786 -0.907167
vn -0.106793 -0.701225 -0.704896
vn -0.151221 -0.684963 -0.712712
vn -0.106793 -0.701225 -0.704896
vn -0.100432 -0.884780 -0.455058
vn -0.151221 -0.684963 -0.712712
vn -0.151221 -0.684963 -0.712712
vn -0.100432 -0.884780 -0.455058
vn -0.128732 -0.872917 -0.470579
vn -0.100432 -0.884780 -0.455058
vn -0.097366 -0.970763 -0.219407
vn -0.128732 -0.872917 -0.470579
vn -0.128732 -0.872917 -0.470579
vn -0.097366 -0.970763 -0.219407
vn -0.113036 -0.966741 -0.229421
vn -0.097366 -0.970763 -0.219407
vn -0.096032 -0.995378 0.000000
vn -0.113036 -0.966741 -0.229421
vn -0.113036 -0.966741 -0.229421
vn -0.096032 -0.995378 0.000000
vn -0.107556 -0.994199 0.000000
vn -0.097366 -0.970763 0.219408
vn -0.113036 -0.966741 0.229421
vn -0.096032 -0.995378 0.000000
vn -0.096032 -0.995378 0.000000
vn -0.113036 -0.966741 0.229421
vn -0.107556 -0.994199 0.000000
vn -0.100432 -0.884780 0.455058
vn -0.128732 -0.872917 0.470579
vn -0.097366 -0.970763 0.219408
vn -0.097366 -0.970763 0.219408
vn -0.128732 -0.872917 0.470579
vn -0.113036 -0.966741 0.229421
vn -0.106793 -0.701225 0.704897
vn -0.151221 -0.684963 0.712712
vn -0.100432 -0.884780 0.455058
vn -0.100432 -0.884780 0.455058
vn -0.151221 -0.684963 0.712712
vn -0.128732 -0.872917 0.470579
vn -0.113188 -0.391107 0.913359
vn -0.172500 -0.383786 0.907167
vn -0.106793 -0.701225 0.704897
vn -0.106793 -0.701225 0.704897
vn -0.172500 -0.383786 0.907167
vn -0.151221 -0.684963 0.712712
vn -0.115583 0.003622 0.993291
vn -0.183657 -0.002702 0.982987
vn -0.113188 -0.391107 0.913359
vn -0.113188 -0.391107 0.913359
vn -0.183657 -0.002702 0.982987
vn -0.172500 -0.383786 0.907167
vn -0.112655 0.379762 0.918199
vn -0.180299 0.367444 0.912402
vn -0.115583 0.003622 0.993291
vn -0.115583 0.003622 0.993291
vn -0.180299 0.367444 0.912402
vn -0.183657 -0.002702 0.982987
vn -0.106753 0.668342 0.736154
vn -0.169360 0.658657 0.733136
vn -0.112655 0.379762 0.918199
vn -0.112655 0.379762 0.918199
vn -0.169360 0.658657 0.733136
vn -0.180299 0.367444 0.912402
vn -0.106753 0.668342 0.736154
vn -0.100807 0.858117 0.503462
vn -0.169360 0.658657 0.733136
vn -0.169360 0.658657 0.733136
vn -0.100807 0.858117 0.503462
vn -0.159189 0.851471 0.499655
vn -0.100807 0.858117 0.503462
vn -0.096726 0.962774 0.252411
vn -0.159189 0.851471 0.499655
vn -0.159189 0.851471 0.499655
vn -0.096726 0.962774 0.252411
vn -0.152272 0.956229 0.249878
vn -0.096726 0.962774 0.252411
vn -0.095393 0.995439 -0.001002
vn -0.152272 0.956229 0.249878
vn -0.152272 0.956229 0.249878
vn -0.095393 0.995439 -0.001002
vn -0.149895 0.988698 -0.002607
vn -0.095393 0.995439 -0.001002
vn -0.096751 0.962249 -0.254393
vn -0.149895 0.988698 -0.002607
vn -0.149895 0.988698 -0.002607
vn -0.096751 0.962249 -0.254393
vn -0.152371 0.954838 -0.255083
vn -0.152371 0.954838 -0.255083
vn -0.159483 0.848527 -0.504547
vn -0.193943 0.946706 -0.257164
vn -0.193943 0.946706 -0.257164
vn -0.159483 0.848527 -0.504547
vn -0.202790 0.839264 -0.504492
vn -0.159483 0.848527 -0.504547
vn -0.170130 0.654572 -0.736608
vn -0.202790 0.839264 -0.504492
vn -0.202790 0.839264 -0.504492
vn -0.170130 0.654572 -0.736608
vn -0.215439 0.644314 -0.733789
vn -0.170130 0.654572 -0.736608
vn -0.180332 0.363588 -0.913939
vn -0.215439 0.644314 -0.733789
vn -0.215439 0.644314 -0.733789
vn -0.180332 0.363588 -0.913939
vn -0.227549 0.353078 -0.907501
vn -0.180332 0.363588 -0.913939
vn -0.183035 -0.005007 -0.983094
vn -0.227549 0.353078 -0.907501
vn -0.227549 0.353078 -0.907501
vn -0.183035 -0.005007 -0.983094
vn -0.232068 -0.009934 -0.972649
vn -0.183035 -0.005007 -0.983094
vn -0.172500 -0.383786 -0.907167
vn -0.232068 -0.009934 -0.972649
vn -0.232068 -0.009934 -0.972649
vn -0.172500 -0.383786 -0.907167
vn -0.223409 -0.372900 -0.900574
vn -0.172500 -0.383786 -0.907167
vn -0.151221 -0.684963 -0.712712
vn -0.223409 -0.372900 -0.900574
vn -0.223409 -0.372900 -0.900574
vn -0.151221 -0.684963 -0.712712
vn -0.204274 -0.662396 -0.720766
vn -0.151221 -0.684963 -0.712712
vn -0.128732 -0.872917 -0.470579
vn -0.204274 -0.662396 -0.720766
vn -0.204274 -0.662396 -0.720766
vn -0.128732 -0.872917 -0.470579
vn -0.183375 -0.852885 -0.488836
vn -0.128732 -0.872917 -0.470579
vn -0.113036 -0.966741 -0.229421
vn -0.183375 -0.852885 -0.488836
vn -0.183375 -0.852885 -0.488836
vn -0.113036 -0.966741 -0.229421
vn -0.168698 -0.955370 -0.242506
vn -0.113036 -0.966741 -0.229421
vn -0.107556 -0.994199 0.000000
vn -0.168698 -0.955370 -0.242506
vn -0.168698 -0.955370 -0.242506
vn -0.107556 -0.994199 0.000000
vn -0.163774 -0.986498 0.000000
vn -0.113036 -0.966741 0.229421
vn -0.168698 -0.955370 0.242506
vn -0.107556 -0.994199 0.000000
vn -0.107556 -0.994199 0.000000
vn -0.168698 -0.955370 0.242506
vn -0.163774 -0.986498 0.000000
vn -0.128732 -0.872917 0.470579
vn -0.183375 -0.852885 0.488836
vn -0.113036 -0.966741 0.229421
vn -0.113036 -0.966741 0.229421
vn -0.183375 -0.852885 0.488836
vn -0.168698 -0.955370 0.242506
vn -0.151221 -0.684963 0.712712
vn -0.204274 -0.662396 0.720766
vn -0.128732 -0.872917 0.470579
vn -0.128732 -0.872917 0.470579
vn -0.204274 -0.662396 0.720766
vn -0.183375 -0.852885 0.488836
vn -0.172500 -0.383786 0.907167
vn -0.223409 -0.372900 0.900574
vn -0.151221 -0.684963 0.712712
vn -0.151221 -0.684963 0.712712
vn -0.223409 -0.372900 0.900574
vn -0.204274 -0.662396 0.720766
vn -0.183657 -0.002702 0.982987
vn -0.232000 -0.000148 0.972716
vn -0.172500 -0.383786 0.907167
vn -0.172500 -0.383786 0.907167
vn -0.232000 -0.000148 0.972716
vn -0.223409 -0.372900 0.900574
vn -0.183657 -0.002702 0.982987
vn -0.180299 0.367444 0.912402
vn -0.232000 -0.000148 0.972716
vn -0.232000 -0.000148 0.972716
vn -0.180299 0.367444 0.912402
vn -0.226942 0.370040 0.900871
vn -0.180299 0.367444 0.912402
vn -0.169360 0.658657 0.733136
vn -0.226942 0.370040 0.900871
vn -0.226942 0.370040 0.900871
vn -0.169360 0.658657 0.733136
vn -0.214741 0.656929 0.722725
vn -0.169360 0.658657 0.733136
vn -0.159189 0.851471 0.499655
vn -0.214741 0.656929 0.722725
vn -0.214741 0.656929 0.722725
vn -0.159189 0.851471 0.499655
vn -0.202207 0.846912 0.491785
vn -0.159189 0.851471 0.499655
vn -0.152272 0.956229 0.249878
vn -0.202207 0.846912 0.491785
vn -0.202207 0.846912 0.491785
vn -0.152272 0.956229 0.249878
vn -0.193627 0.950230 0.244073
vn -0.152272 0.956229 0.249878
vn -0.149895 0.988698 -0.002607
vn -0.193627 0.950230 0.244073
vn -0.193627 0.950230 0.244073
vn -0.149895 0.988698 -0.002607
vn -0.190741 0.981618 -0.006563
vn -0.149895 0.988698 -0.002607
vn -0.152371 0.954838 -0.255083
vn -0.190741 0.981618 -0.006563
vn -0.190741 0.981618 -0.006563
vn -0.152371 0.954838 -0.255083
vn -0.193943 0.946706 -0.257164
vn -0.670394 0.715910 -0.195049
vn -0.687411 0.622155 -0.374685
vn -0.717371 0.671704 -0.184911
vn -0.717371 0.671704 -0.184911
vn -0.687411 0.622155 -0.374685
vn -0.733435 0.581294 -0.352379
vn -0.687411 0.622155 -0.374685
vn -0.710038 0.464117 -0.529568
vn -0.733435 0.581294 -0.352379
vn -0.733435 0.581294 -0.352379
vn -0.710038 0.464117 -0.529568
vn -0.754476 0.430961 -0.495015
vn -0.710038 0.464117 -0.529568
vn -0.729798 0.246852 -0.637541
vn -0.754476 0.430961 -0.495015
vn -0.754476 0.430961 -0.495015
vn -0.729798 0.246852 -0.637541
vn -0.772551 0.227078 -0.592959
vn -0.729798 0.246852 -0.637541
vn -0.737440 -0.007570 -0.675370
vn -0.772551 0.227078 -0.592959
vn -0.772551 0.227078 -0.592959
vn -0.737440 -0.007570 -0.675370
vn -0.779375 -0.009439 -0.626487
vn -0.737440 -0.007570 -0.675370
vn -0.728905 -0.260783 -0.633000
vn -0.779375 -0.009439 -0.626487
vn -0.779375 -0.009439 -0.626487
vn -0.728905 -0.260783 -0.633000
vn -0.771455 -0.244528 -0.587421
vn -0.728905 -0.260783 -0.633000
vn -0.708709 -0.475020 -0.521621
vn -0.771455 -0.244528 -0.587421
vn -0.771455 -0.244528 -0.587421
vn -0.708709 -0.475020 -0.521621
vn -0.752825 -0.444771 -0.485215
vn -0.708709 -0.475020 -0.521621
vn -0.686205 -0.629345 -0.364758
vn -0.752825 -0.444771 -0.485215
vn -0.752825 -0.444771 -0.485215
vn -0.686205 -0.629345 -0.364758
vn -0.731918 -0.590513 -0.339985
vn -0.686205 -0.629345 -0.364758
vn -0.669702 -0.719420 -0.184213
vn -0.731918 -0.590513 -0.339985
vn -0.731918 -0.590513 -0.339985
vn -0.669702 -0.719420 -0.184213
vn -0.716493 -0.676245 -0.171264
vn -0.669702 -0.719420 -0.184213
vn -0.663962 -0.747745 0.005543
vn -0.716493 -0.676245 -0.171264
vn -0.716493 -0.676245 -0.171264
vn -0.663962 -0.747745 0.005543
vn -0.711180 -0.702975 0.007004
vn -0.663962 -0.747745 0.005543
vn -0.670394 -0.715910 0.195049
vn -0.711180 -0.702975 0.007004
vn -0.711180 -0.702975 0.007004
vn -0.670394 -0.715910 0.195049
vn -0.717371 -0.671704 0.184913
vn -0.670394 -0.715910 0.195049
vn -0.687411 -0.622156 0.374684
vn -0.717371 -0.671704 0.184913
vn -0.717371 -0.671704 0.184913
vn -0.687411 -0.622156 0.374684
vn -0.733435 -0.581294 0.352378
vn -0.687411 -0.622156 0.374684
vn -0.710038 -0.464117 0.529568
vn -0.733435 -0.581294 0.352378
vn -0.733435 -0.581294 0.352378
vn -0.710038 -0.464117 0.529568
vn -0.754475 -0.430961 0.495015
vn -0.710038 -0.464117 0.529568
vn -0.729798 -0.246852 0.637541
vn -0.754475 -0.430961 0.495015
vn -0.754475 -0.430961 0.495015
vn -0.729798 -0.246852 0.637541
vn -0.772551 -0.227078 0.592959
vn -0.729798 -0.246852 0.637541
vn -0.737440 0.007570 0.675371
vn -0.772551 -0.227078 0.592959
vn -0.772551 -0.227078 0.592959
vn -0.737440 0.007570 0.675371
vn -0.779374 0.009439 0.626488
vn -0.737440 0.007570 0.675371
vn -0.728905 0.260783 0.633001
vn -0.779374 0.009439 0.626488
vn -0.779374 0.009439 0.626488
vn -0.728905 0.260783 0.633001
vn -0.771454 0.244528 0.587422
vn -0.728905 0.260783 0.633001
vn -0.708709 0.475020 0.521621
vn -0.771454 0.244528 0.587422
vn -0.771454 0.244528 0.587422
vn -0.708709 0.475020 0.521621
vn -0.752824 0.444771 0.485216
vn -0.708709 0.475020 0.521621
vn -0.686205 0.629345 0.364758
vn -0.752824 0.444771 0.485216
vn -0.752824 0.444771 0.485216
vn -0.686205 0.629345 0.364758
vn -0.731918 0.590513 0.339987
vn -0.686205 0.629345 0.364758
vn -0.669702 0.719420 0.184213
vn -0.731918 0.590513 0.339987
vn -0.731918 0.590513 0.339987
vn -0.669702 0.719420 0.184213
vn -0.716492 0.676245 0.171264
vn -0.669702 0.719420 0.184213
vn -0.663962 0.747746 -0.005543
vn -0.716492 0.676245 0.171264
vn -0.716492 0.676245 0.171264
vn -0.663962 0.747746 -0.005543
vn -0.711180 0.702975 -0.007003
vn -0.663962 0.747746 -0.005543
vn -0.670394 0.715910 -0.195049
vn -0.711180 0.702975 -0.007003
vn -0.711180 0.702975 -0.007003
vn -0.670394 0.715910 -0.195049
vn -0.717371 0.671704 -0.184911
vn -0.717371 0.671704 -0.184911
vn -0.733435 0.581294 -0.352379
vn -0.878657 0.460183 -0.127255
vn -0.878657 0.460183 -0.127255
vn -0.733435 0.581294 -0.352379
vn -0.887756 0.393334 -0.239120
vn -0.733435 0.581294 -0.352379
vn -0.754476 0.430961 -0.495015
vn -0.887756 0.393334 -0.239120
vn -0.887756 0.393334 -0.239120
vn -0.754476 0.430961 -0.495015
vn -0.899172 0.286860 -0.330457
vn -0.754476 0.430961 -0.495015
vn -0.772551 0.227078 -0.592959
vn -0.899172 0.286860 -0.330457
vn -0.899172 0.286860 -0.330457
vn -0.772551 0.227078 -0.592959
vn -0.908545 0.148783 -0.390398
vn -0.772551 0.227078 -0.592959
vn -0.779375 -0.009439 -0.626487
vn -0.908545 0.148783 -0.390398
vn -0.908545 0.148783 -0.390398
vn -0.779375 -0.009439 -0.626487
vn -0.911963 -0.006874 -0.410216
vn -0.779375 -0.009439 -0.626487
vn -0.771455 -0.244528 -0.587421
vn -0.911963 -0.006874 -0.410216
vn -0.911963 -0.006874 -0.410216
vn -0.771455 -0.244528 -0.587421
vn -0.907923 -0.161698 -0.386690
vn -0.771455 -0.244528 -0.587421
vn -0.752825 -0.444771 -0.485215
vn -0.907923 -0.161698 -0.386690
vn -0.907923 -0.161698 -0.386690
vn -0.752825 -0.444771 -0.485215
vn -0.898197 -0.297504 -0.323626
vn -0.752825 -0.444771 -0.485215
vn -0.731918 -0.590513 -0.339985
vn -0.898197 -0.297504 -0.323626
vn -0.898197 -0.297504 -0.323626
vn -0.731918 -0.590513 -0.339985
vn -0.886818 -0.400776 -0.230070
vn -0.731918 -0.590513 -0.339985
vn -0.716493 -0.676245 -0.171264
vn -0.886818 -0.400776 -0.230070
vn -0.886818 -0.400776 -0.230070
vn -0.716493 -0.676245 -0.171264
vn -0.878095 -0.463978 -0.116936
vn -0.716493 -0.676245 -0.171264
vn -0.711180 -0.702975 0.007004
vn -0.878095 -0.463978 -0.116936
vn -0.878095 -0.463978 -0.116936
vn -0.711180 -0.702975 0.007004
vn -0.875042 -0.484017 0.005364
vn -0.711180 -0.702975 0.007004
vn -0.717371 -0.671704 0.184913
vn -0.875042 -0.484017 0.005364
vn -0.875042 -0.484017 0.005364
vn -0.717371 -0.671704 0.184913
vn -0.878657 -0.460182 0.127257
vn -0.717371 -0.671704 0.184913
vn -0.733435 -0.581294 0.352378
vn -0.878657 -0.460182 0.127257
vn -0.878657 -0.460182 0.127257
vn -0.733435 -0.581294 0.352378
vn -0.887755 -0.393334 0.239121
vn -0.733435 -0.581294 0.352378
vn -0.754475 -0.430961 0.495015
vn -0.887755 -0.393334 0.239121
vn -0.887755 -0.393334 0.239121
vn -0.754475 -0.430961 0.495015
vn -0.899172 -0.286860 0.330457
vn -0.754475 -0.430961 0.495015
vn -0.772551 -0.227078 0.592959
vn -0.899172 -0.286860 0.330457
vn -0.899172 -0.286860 0.330457
vn -0.772551 -0.227078 0.592959
vn -0.908545 -0.148783 0.390398
vn -0.772551 -0.227078 0.592959
vn -0.779374 0.009439 0.626488
vn -0.908545 -0.148783 0.390398
vn -0.908545 -0.148783 0.390398
vn -0.779374 0.009439 0.626488
vn -0.911962 0.006874 0.410217
vn -0.779374 0.009439 0.626488
vn -0.771454 0.244528 0.587422
vn -0.911962 0.006874 0.410217
vn -0.911962 0.006874 0.410217
vn -0.771454 0.244528 0.587422
vn -0.907923 0.161698 0.386691
vn -0.771454 0.244528 0.587422
vn -0.752824 0.444771 0.485216
vn -0.907923 0.161698 0.386691
vn -0.907923 0.161698 0.386691
vn -0.752824 0.444771 0.485216
vn -0.898197 0.297503 0.323627
vn -0.752824 0.444771 0.485216
vn -0.731918 0.590513 0.339987
vn -0.898197 0.297503 0.323627
vn -0.898197 0.297503 0.323627
vn -0.731918 0.590513 0.339987
vn -0.886817 0.400776 0.230073
vn -0.731918 0.590513 0.339987
vn -0.716492 0.676245 0.171264
vn -0.886817 0.400776 0.230073
vn -0.886817 0.400776 0.230073
vn -0.716492 0.676245 0.171264
vn -0.878095 0.463979 0.116934
vn -0.716492 0.676245 0.171264
vn -0.711180 0.702975 -0.007003
vn -0.878095 0.463979 0.116934
vn -0.878095 0.463979 0.116934
vn -0.711180 0.702975 -0.007003
vn -0.875042 0.484017 -0.005364
vn -0.711180 0.702975 -0.007003
vn -0.717371 0.671704 -0.184911
vn -0.875042 0.484017 -0.005364
vn -0.875042 0.484017 -0.005364
vn -0.717371 0.671704 -0.184911
vn -0.878657 0.460183 -0.127255
vn 0.884803 0.422230 -0.197093
vn 0.865826 0.489820 -0.102088
vn 0.998850 -0.047946 0.000000
vn 0.908275 0.346045 -0.235137
vn 0.884803 0.422230 -0.197093
vn 0.998850 -0.047946 0.000000
vn 0.954774 0.139409 -0.262626
vn 0.908275 0.346045 -0.235137
vn 0.998850 -0.047946 0.000000
vn 0.940258 -0.023237 -0.339670
vn 0.954774 0.139409 -0.262626
vn 0.998850 -0.047946 0.000000
vn 0.946852 -0.207366 -0.245908
vn 0.940258 -0.023237 -0.339670
vn 0.998850 -0.047946 0.000000
vn 0.884046 -0.417492 -0.210152
vn 0.946852 -0.207366 -0.245908
vn 0.998850 -0.047946 0.000000
vn 0.846652 -0.505146 -0.167356
vn 0.884046 -0.417492 -0.210152
vn 0.998850 -0.047946 0.000000
vn 0.814257 -0.574918 -0.080344
vn 0.846652 -0.505146 -0.167356
vn 0.998850 -0.047946 0.000000
vn 0.792822 -0.609453 0.000000
vn 0.814257 -0.574918 -0.080344
vn 0.998850 -0.047946 0.000000
vn 0.814257 -0.574918 0.080344
vn 0.792822 -0.609453 0.000000
vn 0.998850 -0.047946 0.000000
vn 0.846652 -0.505146 0.167356
vn 0.814257 -0.574918 0.080344
vn 0.998850 -0.047946 0.000000
vn 0.880114 -0.440853 0.176206
vn 0.846652 -0.505146 0.167356
vn 0.998850 -0.047946 0.000000
vn 0.961700 -0.189981 0.197588
vn 0.880114 -0.440853 0.176206
vn 0.998850 -0.047946 0.000000
vn 0.949022 -0.023480 0.314335
vn 0.961700 -0.189981 0.197588
vn 0.998850 -0.047946 0.000000
vn 0.969348 0.120595 0.214060
vn 0.949022 -0.023480 0.314335
vn 0.998850 -0.047946 0.000000
vn 0.906741 0.370684 0.201033
vn 0.969348 0.120595 0.214060
vn 0.998850 -0.047946 0.000000
vn 0.884809 0.422249 0.197024
vn 0.906741 0.370684 0.201033
vn 0.998850 -0.047946 0.000000
vn 0.865826 0.489820 0.102089
vn 0.884809 0.422249 0.197024
vn 0.998850 -0.047946 0.000000
vn 0.850264 0.526357 0.000000
vn 0.865826 0.489820 0.102089
vn 0.998850 -0.047946 0.000000
vn 0.865826 0.489820 -0.102088
vn 0.850264 0.526357 0.000000
vn 0.998850 -0.047946 0.000000
vn -0.878657 0.460183 -0.127255
vn -0.887756 0.393334 -0.239120
vn -1.000000 0.000000 0.000001
vn -0.887756 0.393334 -0.239120
vn -0.899172 0.286860 -0.330457
vn -1.000000 0.000000 0.000001
vn -0.899172 0.286860 -0.330457
vn -0.908545 0.148783 -0.390398
vn -1.000000 0.000000 0.000001
vn -0.908545 0.148783 -0.390398
vn -0.911963 -0.006874 -0.410216
vn -1.000000 0.000000 0.000001
vn -0.911963 -0.006874 -0.410216
vn -0.907923 -0.161698 -0.386690
vn -1.000000 0.000000 0.000001
vn -0.907923 -0.161698 -0.386690
vn -0.898197 -0.297504 -0.323626
vn -1.000000 0.000000 0.000001
vn -0.898197 -0.297504 -0.323626
vn -0.886818 -0.400776 -0.230070
vn -1.000000 0.000000 0.000001
vn -0.886818 -0.400776 -0.230070
vn -0.878095 -0.463978 -0.116936
vn -1.000000 0.000000 0.000001
vn -0.878095 -0.463978 -0.116936
vn -0.875042 -0.484017 0.005364
vn -1.000000 0.000000 0.000001
vn -0.875042 -0.484017 0.005364
vn -0.878657 -0.460182 0.127257
vn -1.000000 0.000000 0.000001
vn -0.878657 -0.460182 0.127257
vn -0.887755 -0.393334 0.239121
vn -1.000000 0.000000 0.000001
vn -0.887755 -0.393334 0.239121
vn -0.899172 -0.286860 0.330457
vn -1.000000 0.000000 0.000001
vn -0.899172 -0.286860 0.330457
vn -0.908545 -0.148783 0.390398
vn -1.000000 0.000000 0.000001
vn -0.908545 -0.148783 0.390398
vn -0.911962 0.006874 0.410217
vn -1.000000 0.000000 0.000001
vn -0.911962 0.006874 0.410217
vn -0.907923 0.161698 0.386691
vn -1.000000 0.000000 0.000001
vn -0.907923 0.161698 0.386691
vn -0.898197 0.297503 0.323627
vn -1.000000 0.000000 0.000001
vn -0.898197 0.297503 0.323627
vn -0.886817 0.400776 0.230073
vn -1.000000 0.000000 0.000001
vn -0.886817 0.400776 0.230073
vn -0.878095 0.463979 0.116934
vn -1.000000 0.000000 0.000001
vn -0.878095 0.463979 0.116934
vn -0.875042 0.484017 -0.005364
vn -1.000000 0.000000 0.000001
vn -0.875042 0.484017 -0.005364
vn -0.878657 0.460183 -0.127255
vn -1.000000 0.000000 0.000001
s off
g rightarm
usemtl lambert7SG
f 2/1/1 22/2/2 1/3/3
f 1/3/4 22/2/5 21/4/6
f 3/5/7 23/6/8 2/1/9
f 2/1/10 23/6/11 22/2/12
f 4/7/13 24/8/14 3/5/15
f 3/5/16 24/8/17 23/6/18
f 4/7/19 5/9/20 24/8/21
f 24/8/22 5/9/23 25/10/24
f 6/11/25 26/12/26 5/9/27
f 5/9/28 26/12/29 25/10/30
f 6/11/31 7/13/32 26/12/33
f 26/12/34 7/13/35 27/14/36
f 7/13/37 8/15/38 27/14/39
f 27/14/40 8/15/41 28/16/42
f 8/15/43 9/17/44 28/16/45
f 28/16/46 9/17/47 29/18/48
f 9/17/49 10/19/50 29/18/51
f 29/18/52 10/19/53 30/20/54
f 11/21/55 31/22/56 10/19/57
f 10/19/58 31/22/59 30/20/60
f 12/23/61 32/24/62 11/21/63
f 11/21/64 32/24/65 31/22/66
f 13/25/67 33/26/68 12/23/69
f 12/23/70 33/26/71 32/24/72
f 14/27/73 34/28/74 13/25/75
f 13/25/76 34/28/77 33/26/78
f 14/27/79 15/29/80 34/28/81
f 34/28/82 15/29/83 35/30/84
f 16/31/85 36/32/86 15/29/87
f 15/29/88 36/32/89 35/30/90
f 16/31/91 17/33/92 36/32/93
f 36/32/94 17/33/95 37/34/96
f 17/33/97 18/35/98 37/34/99
f 37/34/100 18/35/101 38/36/102
f 18/35/103 19/37/104 38/36/105
f 38/36/106 19/37/107 39/38/108
f 19/37/109 20/39/110 39/38/111
f 39/38/112 20/39/113 40/40/114
f 1/3/115 21/4/116 20/39/117
f 20/39/118 21/4/119 40/40/120
f 22/2/121 42/41/122 21/4/123
f 21/4/124 42/41/125 41/42/126
f 23/6/127 43/43/128 22/2/129
f 22/2/130 43/43/131 42/41/132
f 24/8/133 44/44/134 23/6/135
f 23/6/136 44/44/137 43/43/138
f 24/8/139 25/10/140 44/44/141
f 44/44/142 25/10/143 45/45/144
f 26/12/145 46/46/146 25/10/147
f 25/10/148 46/46/149 45/45/150
f 26/12/151 27/14/152 46/46/153
f 46/46/154 27/14/155 47/47/156
f 27/14/157 28/16/158 47/47/159
f 47/47/160 28/16/161 48/48/162
f 28/16/163 29/18/164 48/48/165
f 48/48/166 29/18/167 49/49/168
f 29/18/169 30/20/170 49/49/171
f 49/49/172 30/20/173 50/50/174
f 31/22/175 51/51/176 30/20/177
f 30/20/178 51/51/179 50/50/180
f 32/24/181 52/52/182 31/22/183
f 31/22/184 52/52/185 51/51/186
f 33/26/187 53/53/188 32/24/189
f 32/24/190 53/53/191 52/52/192
f 34/28/193 54/54/194 33/26/195
f 33/26/196 54/54/197 53/53/198
f 34/28/199 35/30/200 54/54/201
f 54/54/202 35/30/203 55/55/204
f 36/32/205 56/56/206 35/30/207
f 35/30/208 56/56/209 55/55/210
f 36/32/211 37/34/212 56/56/213
f 56/56/214 37/34/215 57/57/216
f 37/34/217 38/36/218 57/57/219
f 57/57/220 38/36/221 58/58/222
f 38/36/223 39/38/224 58/58/225
f 58/58/226 39/38/227 59/59/228
f 39/38/229 40/40/230 59/59/231
f 59/59/232 40/40/233 60/60/234
f 21/4/235 41/42/236 40/40/237
f 40/40/238 41/42/239 60/60/240
f 42/61/241 62/62/242 41/63/243
f 41/63/244 62/62/245 61/64/246
f 43/65/247 63/66/248 42/61/249
f 42/61/250 63/66/251 62/62/252
f 44/67/253 64/68/254 43/65/255
f 43/65/256 64/68/257 63/66/258
f 45/69/259 65/70/260 44/67/261
f 44/67/262 65/70/263 64/68/264
f 46/71/265 66/72/266 45/69/267
f 45/69/268 66/72/269 65/70/270
f 46/71/271 47/73/272 66/72/273
f 66/72/274 47/73/275 67/74/276
f 47/73/277 48/75/278 67/74/279
f 67/74/280 48/75/281 68/76/282
f 48/75/283 49/77/284 68/76/285
f 68/76/286 49/77/287 69/78/288
f 49/77/289 50/79/290 69/78/291
f 69/78/292 50/79/293 70/80/294
f 51/81/295 71/82/296 50/79/297
f 50/79/298 71/82/299 70/80/300
f 52/83/301 72/84/302 51/81/303
f 51/81/304 72/84/305 71/82/306
f 53/85/307 73/86/308 52/83/309
f 52/83/310 73/86/311 72/84/312
f 54/87/313 74/88/314 53/85/315
f 53/85/316 74/88/317 73/86/318
f 54/87/319 55/89/320 74/88/321
f 74/88/322 55/89/323 75/90/324
f 55/89/325 56/91/326 75/90/327
f 75/90/328 56/91/329 76/92/330
f 56/91/331 57/93/332 76/92/333
f 76/92/334 57/93/335 77/94/336
f 57/93/337 58/95/338 77/94/339
f 77/94/340 58/95/341 78/96/342
f 58/95/343 59/97/344 78/96/345
f 78/96/346 59/97/347 79/98/348
f 59/97/349 60/99/350 79/98/351
f 79/98/352 60/99/353 80/100/354
f 41/101/355 61/102/356 60/99/357
f 60/99/358 61/102/359 80/100/360
f 62/62/361 82/103/362 61/64/363
f 61/64/364 82/103/365 81/104/366
f 63/66/367 83/105/368 62/62/369
f 62/62/370 83/105/371 82/103/372
f 64/68/373 84/106/374 63/66/375
f 63/66/376 84/106/377 83/105/378
f 65/70/379 85/107/380 64/68/381
f 64/68/382 85/107/383 84/106/384
f 66/72/385 86/108/386 65/70/387
f 65/70/388 86/108/389 85/107/390
f 67/74/391 87/109/392 66/72/393
f 66/72/394 87/109/395 86/108/396
f 68/76/397 88/110/398 67/74/399
f 67/74/400 88/110/401 87/109/402
f 69/78/403 89/111/404 68/76/405
f 68/76/406 89/111/407 88/110/408
f 69/78/409 70/80/410 89/111/411
f 89/111/412 70/80/413 90/112/414
f 71/82/415 91/113/416 70/80/417
f 70/80/418 91/113/419 90/112/420
f 71/82/421 72/84/422 91/113/423
f 91/113/424 72/84/425 92/114/426
f 72/84/427 73/86/428 92/114/429
f 92/114/430 73/86/431 93/115/432
f 73/86/433 74/88/434 93/115/435
f 93/115/436 74/88/437 94/116/438
f 74/88/439 75/90/440 94/116/441
f 94/116/442 75/90/443 95/117/444
f 75/90/445 76/92/446 95/117/447
f 95/117/448 76/92/449 96/118/450
f 76/92/451 77/94/452 96/118/453
f 96/118/454 77/94/455 97/119/456
f 77/94/457 78/96/458 97/119/459
f 97/119/460 78/96/461 98/120/462
f 78/96/463 79/98/464 98/120/465
f 98/120/466 79/98/467 99/121/468
f 79/98/469 80/100/470 99/121/471
f 99/121/472 80/100/473 100/122/474
f 61/102/475 81/123/476 80/100/477
f 80/100/478 81/123/479 100/122/480
f 81/104/481 82/103/482 101/124/483
f 101/124/484 82/103/485 102/125/486
f 82/103/487 83/105/488 102/125/489
f 102/125/490 83/105/491 103/126/492
f 83/105/493 84/106/494 103/126/495
f 103/126/496 84/106/497 104/127/498
f 84/106/499 85/107/500 104/127/501
f 104/127/502 85/107/503 105/128/504
f 85/107/505 86/108/506 105/128/507
f 105/128/508 86/108/509 106/129/510
f 86/108/511 87/109/512 106/129/513
f 106/129/514 87/109/515 107/130/516
f 87/109/517 88/110/518 107/130/519
f 107/130/520 88/110/521 108/131/522
f 88/110/523 89/111/524 108/131/525
f 108/131/526 89/111/527 109/132/528
f 89/111/529 90/112/530 109/132/531
f 109/132/532 90/112/533 110/133/534
f 91/113/535 111/134/536 90/112/537
f 90/112/538 111/134/539 110/133/540
f 92/114/541 112/135/542 91/113/543
f 91/113/544 112/135/545 111/134/546
f 93/115/547 113/136/548 92/114/549
f 92/114/550 113/136/551 112/135/552
f 94/116/553 114/137/554 93/115/555
f 93/115/556 114/137/557 113/136/558
f 95/117/559 115/138/560 94/116/561
f 94/116/562 115/138/563 114/137/564
f 96/118/565 116/139/566 95/117/567
f 95/117/568 116/139/569 115/138/570
f 97/119/571 117/140/572 96/118/573
f 96/118/574 117/140/575 116/139/576
f 97/119/577 98/120/578 117/140/579
f 117/140/580 98/120/581 118/141/582
f 98/120/583 99/121/584 118/141/585
f 118/141/586 99/121/587 119/142/588
f 99/121/589 100/122/590 119/142/591
f 119/142/592 100/122/593 120/143/594
f 100/122/595 81/123/596 120/143/597
f 120/143/598 81/123/599 101/144/600
f 101/124/601 102/125/602 121/145/603
f 121/145/604 102/125/605 122/146/606
f 102/125/607 103/126/608 122/146/609
f 122/146/610 103/126/611 123/147/612
f 103/126/613 104/127/614 123/147/615
f 123/147/616 104/127/617 124/148/618
f 104/127/619 105/128/620 124/148/621
f 124/148/622 105/128/623 125/149/624
f 105/128/625 106/129/626 125/149/627
f 125/149/628 106/129/629 126/150/630
f 106/129/631 107/130/632 126/150/633
f 126/150/634 107/130/635 127/151/636
f 107/130/637 108/131/638 127/151/639
f 127/151/640 108/131/641 128/152/642
f 108/131/643 109/132/644 128/152/645
f 128/152/646 109/132/647 129/153/648
f 109/132/649 110/133/650 129/153/651
f 129/153/652 110/133/653 130/154/654
f 111/134/655 131/155/656 110/133/657
f 110/133/658 131/155/659 130/154/660
f 112/135/661 132/156/662 111/134/663
f 111/134/664 132/156/665 131/155/666
f 113/136/667 133/157/668 112/135/669
f 112/135/670 133/157/671 132/156/672
f 114/137/673 134/158/674 113/136/675
f 113/136/676 134/158/677 133/157/678
f 115/138/679 135/159/680 114/137/681
f 114/137/682 135/159/683 134/158/684
f 115/138/685 116/139/686 135/159/687
f 135/159/688 116/139/689 136/160/690
f 116/139/691 117/140/692 136/160/693
f 136/160/694 117/140/695 137/161/696
f 117/140/697 118/141/698 137/161/699
f 137/161/700 118/141/701 138/162/702
f 118/141/703 119/142/704 138/162/705
f 138/162/706 119/142/707 139/163/708
f 119/142/709 120/143/710 139/163/711
f 139/163/712 120/143/713 140/164/714
f 120/143/715 101/144/716 140/164/717
f 140/164/718 101/144/719 121/165/720
f 121/166/721 122/167/722 141/168/723
f 141/168/724 122/167/725 142/169/726
f 122/167/727 123/170/728 142/169/729
f 142/169/730 123/170/731 143/171/732
f 123/170/733 124/172/734 143/171/735
f 143/171/736 124/172/737 144/173/738
f 124/172/739 125/174/740 144/173/741
f 144/173/742 125/174/743 145/175/744
f 125/174/745 126/176/746 145/175/747
f 145/175/748 126/176/749 146/177/750
f 126/176/751 127/178/752 146/177/753
f 146/177/754 127/178/755 147/179/756
f 127/178/757 128/180/758 147/179/759
f 147/179/760 128/180/761 148/181/762
f 128/180/763 129/182/764 148/181/765
f 148/181/766 129/182/767 149/183/768
f 129/182/769 130/184/770 149/183/771
f 149/183/772 130/184/773 150/185/774
f 130/184/775 131/186/776 150/185/777
f 150/185/778 131/186/779 151/187/780
f 131/186/781 132/188/782 151/187/783
f 151/187/784 132/188/785 152/189/786
f 132/188/787 133/190/788 152/189/789
f 152/189/790 133/190/791 153/191/792
f 133/190/793 134/192/794 153/191/795
f 153/191/796 134/192/797 154/193/798
f 134/192/799 135/194/800 154/193/801
f 154/193/802 135/194/803 155/195/804
f 135/194/805 136/196/806 155/195/807
f 155/195/808 136/196/809 156/197/810
f 136/196/811 137/198/812 156/197/813
f 156/197/814 137/198/815 157/199/816
f 137/198/817 138/200/818 157/199/819
f 157/199/820 138/200/821 158/201/822
f 138/200/823 139/202/824 158/201/825
f 158/201/826 139/202/827 159/203/828
f 139/202/829 140/204/830 159/203/831
f 159/203/832 140/204/833 160/205/834
f 140/204/835 121/166/836 160/205/837
f 160/205/838 121/166/839 141/168/840
f 141/168/841 142/169/842 161/206/843
f 161/206/844 142/169/845 162/207/846
f 142/169/847 143/171/848 162/207/849
f 162/207/850 143/171/851 163/208/852
f 143/171/853 144/173/854 163/208/855
f 163/208/856 144/173/857 164/209/858
f 144/173/859 145/175/860 164/209/861
f 164/209/862 145/175/863 165/210/864
f 145/175/865 146/177/866 165/210/867
f 165/210/868 146/177/869 166/211/870
f 146/177/871 147/179/872 166/211/873
f 166/211/874 147/179/875 167/212/876
f 147/179/877 148/181/878 167/212/879
f 167/212/880 148/181/881 168/213/882
f 148/181/883 149/183/884 168/213/885
f 168/213/886 149/183/887 169/214/888
f 149/183/889 150/185/890 169/214/891
f 169/214/892 150/185/893 170/215/894
f 150/185/895 151/187/896 170/215/897
f 170/215/898 151/187/899 171/216/900
f 151/187/901 152/189/902 171/216/903
f 171/216/904 152/189/905 172/217/906
f 152/189/907 153/191/908 172/217/909
f 172/217/910 153/191/911 173/218/912
f 153/191/913 154/193/914 173/218/915
f 173/218/916 154/193/917 174/219/918
f 154/193/919 155/195/920 174/219/921
f 174/219/922 155/195/923 175/220/924
f 155/195/925 156/197/926 175/220/927
f 175/220/928 156/197/929 176/221/930
f 156/197/931 157/199/932 176/221/933
f 176/221/934 157/199/935 177/222/936
f 157/199/937 158/201/938 177/222/939
f 177/222/940 158/201/941 178/223/942
f 158/201/943 159/203/944 178/223/945
f 178/223/946 159/203/947 179/224/948
f 159/203/949 160/205/950 179/224/951
f 179/224/952 160/205/953 180/225/954
f 160/205/955 141/168/956 180/225/957
f 180/225/958 141/168/959 161/206/960
f 2/1/961 1/3/962 181/226/963
f 3/5/964 2/1/965 181/226/966
f 4/7/967 3/5/968 181/226/969
f 5/9/970 4/7/971 181/226/972
f 6/11/973 5/9/974 181/226/975
f 7/13/976 6/11/977 181/226/978
f 8/15/979 7/13/980 181/226/981
f 9/17/982 8/15/983 181/226/984
f 10/19/985 9/17/986 181/226/987
f 11/21/988 10/19/989 181/226/990
f 12/23/991 11/21/992 181/226/993
f 13/25/994 12/23/995 181/226/996
f 14/27/997 13/25/998 181/226/999
f 15/29/1000 14/27/1001 181/226/1002
f 16/31/1003 15/29/1004 181/226/1005
f 17/33/1006 16/31/1007 181/226/1008
f 18/35/1009 17/33/1010 181/226/1011
f 19/37/1012 18/35/1013 181/226/1014
f 20/39/1015 19/37/1016 181/226/1017
f 1/3/1018 20/39/1019 181/226/1020
f 161/206/1021 162/207/1022 182/227/1023
f 162/207/1024 163/208/1025 182/227/1026
f 163/208/1027 164/209/1028 182/227/1029
f 164/209/1030 165/210/1031 182/227/1032
f 165/210/1033 166/211/1034 182/227/1035
f 166/211/1036 167/212/1037 182/227/1038
f 167/212/1039 168/213/1040 182/227/1041
f 168/213/1042 169/214/1043 182/227/1044
f 169/214/1045 170/215/1046 182/227/1047
f 170/215/1048 171/216/1049 182/227/1050
f 171/216/1051 172/217/1052 182/227/1053
f 172/217/1054 173/218/1055 182/227/1056
f 173/218/1057 174/219/1058 182/227/1059
f 174/219/1060 175/220/1061 182/227/1062
f 175/220/1063 176/221/1064 182/227/1065
f 176/221/1066 177/222/1067 182/227/1068
f 177/222/1069 178/223/1070 182/227/1071
f 178/223/1072 179/224/1073 182/227/1074
f 179/224/1075 180/225/1076 182/227/1077
f 180/225/1078 161/206/1079 182/227/1080
